<svg xmlns="http://www.w3.org/2000/svg" width="390" height="1721" fill="none">
  <g clip-path="url(#a)">
    <path fill="#856D61"
      d="M430 117c-24-2-50-1-75-1-7-1-22-5-28-1-4 3-10 20-5 23 5 4 41 2 50 2 18 1 43 5 60 3 26-2 18-24-2-26Z" />
    <path fill="#916A4D"
      d="M159 383c-25 1-52-2-76 0-4 0-26 3-28 5-3 2-5 22 3 21l61-1 12 1c10 1 31 2 40 0 8-1 9-19 7-25-2-5-15-1-19-1Z" />
    <path fill="#3D3236"
      d="M227 375c3 0 18-2 19-5 4-12-6-17-16-18l-38-1c-10 0-20 4-29 4-9 1-40-3-44 7-1 1-3 7-2 8 1 6 32 4 39 4 23 1 47 3 71 1Z" />
    <path fill="#79605C"
      d="m143 420-22 3v14c3 4 38 6 44 3 24-1 52 3 76-1 5-1 8-15 8-20-35 1-71-3-106 1Z" />
    <path fill="#6B4538"
      d="M330 276a737 737 0 0 0 115 0c1-1 10-27-1-26-29 0-58-3-88-2l-29 2c-6 1-8 7-8 13-1 11 1 12 11 13Z" />
    <path fill="#81665F"
      d="M367 216c-26 0-54 4-80 5-7 0-25-5-30 0-6 6 3 21 12 23 25 5 78 1 104-5 22-5 10-22-6-23Z" />
    <path fill="#8C6757"
      d="M312 271c1-3 1-19-1-21l-41-3c-14 2-69-4-78 4-4 4-4 19 0 22l13 2c32 3 59 0 90-2 4 0 15 5 17-2Z" />
    <path fill="#906958"
      d="M139 146c-5 1-17 4-18 9-2 12-1 15 10 18 21 3 54 0 76 0l43-2c2-1 3-13 1-15-4-8-55-8-66-8-15-1-31-3-46-2Z" />
    <path fill="#85624E"
      d="M123 216c-2 2 0 19 2 22 1 2 15 5 18 6 30 3 61-1 90-5 13-1 22 5 19-14-1-9-4-9-12-10-21-4-57-3-80-4-6 0-34 1-37 5Z" />
    <path fill="#724035"
      d="M123 281c-3 3-4 20-5 25 43-2 88 3 130-3 3-3 4-16 1-19-3-2-35-6-41-6-17-1-34 3-51 3-7 0-30-4-34 0Z" />
    <path fill="#82533F"
      d="M190 132c1 11 13 7 20 8 26 4 41 0 66 0 14 0 27 3 41 2 1-4-2-7-3-10-1-6 3-12-7-13-17-3-41 0-59 0-11-1-46-8-54 0l-4 13Z" />
    <path fill="#906658"
      d="M193 199c0 2 4 4 6 5 12 6 50 2 66 3 9 0 39 6 44 4 5-3 5-21 0-25-2-2-18-5-22-5-17-2-44-3-60-2l-33 6c-1 1-2 13-1 14Z" />
    <path fill="#9A806F"
      d="M311 387c-42-7-85-6-126 1-9 16-6 27 14 28 26 1 65-2 91-3 21-2 28-3 21-26Z" />
    <path fill="#6C4943"
      d="M307 310c22 0 46 2 68-1 10-2 9-18 5-21-3-3-29-7-34-7-20-1-38 0-58 2-6 0-26-2-29 1-2 2-5 22-4 25 2 8 45 2 52 1Z" />
    <path fill="#856D61" d="M302 343c11 2 7-20 3-22l-118-4c-9 7-8 24 4 26 37 5 75-1 111 0Z" />
    <path fill="#724035"
      d="M219 88c-26-2-60-7-85-5-2 0-8 2-10 4-6 7 3 21 13 19h108c7 0 9-13 6-17-2-3-26-1-32-1Z" />
    <path fill="#695049"
      d="M443 187c-10-7-46-7-59-7l-23 4c-9 0-42-2-44 10-2 11 6 15 16 16 13 1 31-3 43-3 11-1 68 4 72-1 5-4 0-16-5-19Z" />
    <path fill="#5F3E2F"
      d="M495 176c32 1 35-23 5-26-11-2-26 0-38 0-20 1-40 5-60 1-13 2-13 19-3 23 12 5 20 2 32 2h64Z" />
    <path fill="#6E4D44"
      d="m272 147-11 3c-3 4-4 16-1 19 5 4 49 4 58 4l24-3c9-1 34 4 39 0 17-12-11-20-20-22-20-3-70-4-89-1Z" />
    <path fill="#7B5141"
      d="M378 86c-12-2-33 1-46 0-11 0-19-3-31-2-8 0-32 2-38 4-13 6-2 23 9 24 20 1 45-6 66-7 14-1 27 2 40 1 10-3 11-18 0-20Z" />
    <path fill="#3D3236"
      d="M239 72c18 0 36-2 54-1 6 0 18 5 19-4 3-16-4-19-18-21a485 485 0 0 0-103 3c-3 3-6 17-1 20 4 2 41 3 49 3Z" />
    <path fill="#825744"
      d="M414 48h-68c-9 0-25-5-27 8-3 16 9 18 22 19 18 2 38-1 56 0l50-3c11-29-14-24-33-24Z" />
    <path fill="#93776C"
      d="M65 72c16 4 44-1 61-1 18-1 35 1 52 1 2-12 0-24-15-26-29-4-66 3-97 0-12 2-17 22-1 26Z" />
    <path fill="#724035"
      d="M372 377c-25 3-49 4-73 3l12 3c6 10 10 0 19 0l64-3c0-4-13-7-13-8-2-4 8-16-11-18-14-2-29 0-43 0-22 0-45 0-66 3-9 1-12 13-6 17 7 5 46 1 58 1l23 2c14-1 29-5 43-5 1 4-5 4-7 5Z" />
    <path fill="#885A4B"
      d="m169 653-109-2c-10 2-10 22-6 28 1 2 8 2 11 4 32-1 69 7 100 5 15-1 21-1 19-18-1-10-4-15-15-17Z" />
    <path fill="#7B5957"
      d="M72 210c17 1 33-1 50-2l54-1c6-1 16-16 11-21-4-4-45-2-53-2l-51-3c-17-2-34-5-32 17 1 11 12 11 21 12Z" />
    <path fill="#836861"
      d="m117 275 63-2c2-2 1-17-1-19-4-4-38-3-45-4-20-1-54-7-72-1-8 3-8 23-4 26 6 3 40 2 48 1l11-1Z" />
    <path fill="#6B4538"
      d="M60 318c-2 3-4 25-3 26l115-3c6-2 5-20 4-23s-5-4-8-5a401 401 0 0 0-46-1c-20 0-41 0-51 2-3 0-10 2-11 4Z" />
    <path fill="#9D7B71"
      d="M264 445c31 2 82 1 112-5 2 0 5 0 6-2 1-3 2-13 0-16-6-6-47-1-56-1-22 1-43-1-65 1l-7 1v19c0 2 8 3 10 3Z" />
    <path fill="#654945"
      d="m363 487-53 3c-9 0-52-2-56 3-3 5-1 20 7 22 37 2 76 6 113-2 1-16 14-27-11-26Z" />
    <path fill="#5C4849"
      d="M387 527h-51c-6 0-22-6-24 4l1 18c2 8 21 3 27 3h35c10-1 64 2 69-5l-1-17c-3-5-47-3-56-3Z" />
    <path fill="#6F584A"
      d="M437 617c10-2 3-4 3-8-1-2 3-12 0-15l-19-5c-25-3-50 1-75 3-7 0-27-2-30 1-4 4-3 20 0 25l65-1c18-1 38 2 56 0Z" />
    <path fill="#82533F"
      d="m360 558-99-1c-7 10-10 25 6 27 26 4 83 0 109-5 4 0 7-1 7-5 4-19-11-13-23-16Z" />
    <path fill="#5C3F3B"
      d="M306 613c4-3 2-19-5-19l-54-2-14 2c-14 0-58-15-52 12 2 8 17 9 24 9 21 2 42-2 63-1 8 0 32 4 38-1Z" />
    <path fill="#895D50"
      d="M115 618c-7 23-6 28 17 30 24 2 63 3 87 1 15-1 28 1 28-18 0-10-21-10-30-11h-40l-62-2Z" />
    <path fill="#5E4038" d="M366 651c7 0 11-21 1-26-10-4-26 0-37-1l-63-3-13 1c-2 1-4 28-2 29h114Z" />
    <path fill="#735B59"
      d="M278 525c-33 1-66 1-99-2-8 2-5 26-1 28 8 5 38-2 49-2 6-1 15 1 22 1 19-3 38 3 56-3 7-30-8-22-27-22Z" />
    <path fill="#7C5747"
      d="M72 586H55c-7 0-9 12-8 18 0 5 8 6 13 7 23 2 48 0 71-1 7 0 42 2 45-1 3-4 2-17-2-20-6-4-40 1-51 0-18-1-32-4-51-3Z" />
    <path fill="#734B3F" d="M46 474c2-2 0-15-2-18-5-11-44-16-42 4l5 16c4 3 38 0 39-2Z" />
    <path fill="#826E65" d="m78 442 32-7c2-2 2-14 2-15L7 419c-3 0-2 17 0 20 2 2 19 4 23 5l48-2Z" />
    <path fill="#745A49" d="M42 544c-1-6 2-20-2-23-3-2-31-3-33-2-4 3-1 23 1 28 12 1 23-1 34-3Z" />
    <path fill="#805D57"
      d="M15 510c27-3 63 4 89 0 9-1 13-15 9-18-5-4-22-3-28-4l-24-3c-8 0-49-1-53 4-2 2-4 24 7 21Z" />
    <path fill="#5F403B" d="M111 372c11-27-5-19-23-20-22-1-47-3-68-1-20 2-14 13-9 28l100-7Z" />
    <path fill="#7E513E"
      d="M100 307c9-1 16 0 16-10 0-5 0-13-5-14l-57 1H32c-6 0-23-2-24 4-2 12 1 18 13 19 19 3 60 3 79 0Z" />
    <path fill="#724035" d="M56 315c-2-2-45-5-48-2-4 3 0 26 0 31h39c9 0 7-23 9-29Z" />
    <path fill="#936F63"
      d="m12 683 18 2c4 0 9-1 11-3 3-3 5-25 3-28-3-3-28-5-33-4-4 0-7 1-8 5l3 24c1 2 4 3 6 4Z" />
    <path fill="#A98B80" d="M44 609c-1-5 1-20-4-22-4-3-31-4-34 0-2 2-2 21 0 23 4 2 31-3 38-1Z" />
    <path fill="#805E5C" d="M5 579h104c4-1 5-21 2-24-2-3-31-1-37-2-16 0-41-5-55-1-19 6-13 11-14 27Z" />
    <path fill="#754A39"
      d="M85 641c5 0 13 2 18 0 5-1 7-18 5-21l-8-5c-14-3-52-3-67-3-3 0-21 3-23 5s-6 23-5 27c26 6 54 0 80-3Z" />
    <path fill="#824D3B"
      d="M101 149c-11-4-39-4-52-4l-29 1c-9 1-9 5-10 12-1 6-2 14 4 16l92 2c13-6 5-23-5-27Z" />
    <path fill="#654A3F"
      d="M16 76c7 4 27-1 35-1-3-7 3-20-4-24-6-4-9 0-14 0-4-1-18-5-21-1s0 24 4 26Z" />
    <path fill="#684239"
      d="M18 38c15-1 29-5 43-6 12-1 46 3 54-3 3-2 3-7 3-10-1-5-15-9-20-10-21-2-51 2-74 1L14 9c-6 2-8 30 4 29Z" />
    <path fill="#7A6E70"
      d="m132 34 99-1c7-2 15-1 17-9 2-21-10-18-26-18-27 4-60-1-88 3-5 1-10 2-10 8 0 4 4 16 8 17Z" />
    <path fill="#5C3B32"
      d="M263 31c11 6 50 1 64 1 12 0 52 7 60 1 5-5 2-17 2-24l-31-3c-8-1-18 1-26 1-14 1-61-2-71 5-5 3-4 16 2 19Z" />
    <path fill="#795F5E" d="M51 137c3-2 2-18-1-21-4-3-35-5-38-1-2 3-2 20 2 22 3 3 34 2 37 0Z" />
    <path fill="#784D3C"
      d="M20 106c31 1 62 0 94-3 10-8 0-15-10-17l-40-1c-8-1-45-2-50 0-6 2-3 20 6 21Z" />
    <path fill="#895442" d="M45 207c1-5 6-20 2-23-2-1-33-3-36-1-6 3-5 18-3 24h37Z" />
    <path fill="#875D51"
      d="m95 241 18-4c1-1 3-19 1-21-2-3-23-1-28-1-19-2-42-6-60-5-23 1-20 8-18 28 2 3 77 4 87 3Z" />
    <path fill="#5D3C33" d="M49 276c3-2 4-21 2-24-6-7-34-5-43-4-3 2-4 21-3 24 2 7 38 8 44 4Z" />
    <path fill="#63453D" d="M43 384c-4-2-31-2-34 1-4 2-3 22 1 24 2 2 33-1 36-3 4-3 3-19-3-22Z" />
    <path fill="#846050"
      d="M440 321c-30-1-62-5-93-3-5 0-28 2-30 6l-6 19c0 2 2 3 3 4 5 2 41 0 50 0h42c21-1 49 7 34-26Z" />
    <path fill="#663B2B"
      d="M324 479h77c12 0 38 7 41-9v-11c-2-3-39-3-45-3l-30-6c-9-1-39 2-46 8-6 4-6 19 3 21Z" />
    <path fill="#916757"
      d="m89 547 56 2 23-4c0-19 1-23-19-24-22-2-46-1-68 0-5 0-26-1-29 2l-5 14c0 14 32 10 42 10Z" />
    <path fill="#8E6A5C"
      d="M128 578a524 524 0 0 0 116-5c5-5 0-10-5-12a432 432 0 0 0-119-6c-5 2-7 21 8 23Z" />
    <path fill="#7B6055"
      d="M330 411a525 525 0 0 0 115-5c3-3 5-15 3-18-4-6-60-5-70-5l-46 3c-19 3-22 23-2 25Z" />
    <path fill="#8F6857"
      d="M311 477c10-28-21-20-38-21-18-1-70-10-84-2l-5 4 4 14c2 3 27 5 32 6 30 1 61-2 91-1Z" />
    <path fill="#865F50"
      d="M142 485c-5 1-17 2-18 7-1 4-1 18 2 19l117 2c2-1 5-30-6-28-31 2-65-2-95 0Z" />
    <path fill="#62483B" d="m299 657-105-3c-8 0-6 29-3 31l56 1 12-1c10 0 44 5 49-2 5-6 2-27-9-26Z" />
    <path fill="#987E71"
      d="M440 658c-7-5-39-3-50-3l-49 2c-5 0-9-3-17-1-5 1-8 3-8 8-1 2 1 15 1 17 2 4 13 5 18 5 21 2 45-2 66-1 8 0 37 4 41 1 3-2 3-24-2-28Z" />
    <path fill="#885A4B"
      d="M140 450c-18-1-35-3-54-1-6 0-18 0-24 3-10 4-20 22-3 25l90-3c10 0 18 4 26-1 10-6 8-21-3-23-10-2-22 0-32 0Z" />
    <path fill="#785A50"
      d="M163 140c7 0 14-2 21-1 9-37-17-21-36-21-3 1-6-1-9-1H63c-7 1-10 14-6 18l20 5c23 3 62 2 86 0Z" />
    <path fill="#B7B29D"
      d="M696 22V0H0v696h696V22Zm-9 595c-27-2-55 4-82 1-20-2-13-7-13-23l96-2c-1 4 2 23-1 24Zm0 30c-1 4-3 7-7 6l-19-1c-11-1-11-8-12-18 0-8 3-9 11-11 4-1 22-1 24 3l3 21Zm-294-6c2-15-4-18 5-18 33-1 66-2 99 1 4 1 10 1 11 5 3 3 3 13 0 17l-7 3c-16 5-47 1-64 0-14 0-21 1-33-1-10-2-7-5-6-13l-5 6Zm-9 11Zm-18-1H252c-2-1 0-28 2-29l13-1 63 3c11 1 27-3 37 1 10 5 6 26-1 26ZM85 641c-26 3-54 9-80 3-1-4 3-25 5-27s20-5 23-5c15 0 53 0 67 3l8 5c2 3 0 20-5 21-5 2-13 0-18 0Zm5 4ZM2 460c-2-20 37-15 42-4 2 3 4 16 2 18-1 2-35 5-39 2l-5-16Zm4-249ZM6 57Zm6-7c3-4 17 0 21 1 5 0 8-4 14 0 7 4 1 17 4 24-8 0-28 5-35 1-4-2-7-22-4-26Zm35-4 3 2-3-2Zm17 39 40 1c10 2 20 9 10 17-32 3-63 4-94 3-9-1-12-19-6-21 5-2 42-1 50 0ZM52 49Zm111-3c15 2 17 14 15 26-17 0-34-2-52-1-17 0-46 5-61 1-16-4-11-24 1-26 31 3 68-4 97 0Zm2-3Zm66 1c19-1 45 0 63 2 14 2 21 5 18 21-1 9-13 4-19 4-18-1-36 1-54 1-8 0-45-1-49-3-5-3-2-17 1-20l40-5Zm24-20 1 2-1-2Zm11 13Zm38 7Zm110 4c19 0 44-5 33 24l-50 3c-18-1-38 2-56 0-13-1-25-3-22-19 2-13 18-8 27-8h68Zm25-5Zm41 4a529 529 0 0 1 107 4c3 2 4 19-1 21-8 5-45 0-58 0-19 0-38 4-57 2-8-1-14-2-15-10 0-15 12-16 24-17Zm-12-1h1-1Zm144 2Zm-8 4c18-4 41 0 60-5 4 0 19 0 22 2 2 2 9 26 1 28-25-2-55 3-80 0-18-2-12-22-3-25Zm85 57c-2 3-27 4-31 2-5-3-7-18-4-23 2-2 29-4 32-3 6 3 6 20 3 24Zm-4 444Zm-99 48Zm-1 13Zm-25-25-12-2c-6 0-22 3-25-1-1-1 1-4 1-6 0-3 0-21 3-22 4-1 9 1 13 1l37-3c10 0 65 0 69 4 2 2 6 22 1 24-29 4-58 6-87 5Zm-102-37c-4-1-9-1-10-6-1-9 0-19 11-20a655 655 0 0 1 121 4l1 19-58 1c-21 1-43 4-65 2Zm-38 31c-9-1-17-3-26-2-9-2 3-13 3-20 16 1 24-3 40-3 12-1 70-1 76 5 2 2 4 8 3 11 0 6-8 7-13 7-22 2-60 3-83 2Zm29 8Zm-74-39h-35c-6 0-25 5-27-3l-1-18c2-10 18-4 24-4h51c9 0 53-2 56 3l1 17c-5 7-59 4-69 5Zm1 27c-26 5-83 9-109 5-16-2-13-17-6-27l99 1c12 3 27-3 23 16 0 4-3 5-7 5Zm-248-1c-15-2-13-21-8-23s43-1 51 0c14 0 56 2 68 6 5 2 10 7 5 12l-11 3c-31 4-75 6-105 2Zm49 10Zm-68-9H5c1-16-5-21 14-27 14-4 39 1 55 1 6 1 35-1 37 2 3 3 2 23-2 24Zm-65 30c-7-2-34 3-38 1-2-2-2-21 0-23 3-4 30-3 34 0 5 2 3 17 4 22ZM7 519c2-1 30 0 33 2 4 3 1 17 2 23-11 2-22 4-34 3-2-5-5-25-1-28Zm54-34 24 3c6 1 23 0 28 4 4 3 0 17-9 18-26 4-62-3-89 0-11 3-9-19-7-21 4-5 45-4 53-4Zm-31-41c-4-1-21-3-23-5-2-3-3-20 0-20l105 1c0 1 0 13-2 15a222 222 0 0 1-80 9ZM8 238c-2-20-5-27 18-28 18-1 41 3 60 5 5 0 26-2 28 1 2 2 0 20-1 21l-18 4c-10 1-85 0-87-3Zm69-98-20-5c-4-4-1-17 6-18h76c3 0 6 2 9 1 19 0 45-16 36 21-7-1-14 1-21 1-24 2-63 3-86 0Zm-12 3Zm-7-5Zm-46-23c3-4 34-2 38 1 3 3 4 19 1 21s-34 3-37 0c-4-2-4-19-2-22Zm-3-15Zm-1-9Zm211-3c6 0 30-2 32 1 3 4 1 17-6 17H137c-10 2-19-12-13-19 2-2 8-4 10-4 25-2 59 3 85 5Zm27-3Zm5 2h1-1Zm56 32c10 1 6 7 7 13 1 3 4 6 3 10-14 1-27-2-41-2-25 0-40 4-66 0-7-1-19 3-20-8l4-13c8-8 43-1 54 0 18 0 42-3 59 0Zm-44-31c6-2 30-4 38-4 12-1 20 2 31 2 13 1 34-2 46 0 11 2 10 17 0 20-13 1-26-2-40-1-21 1-46 8-66 7-11-1-22-18-9-24Zm73-5Zm228 5 29-3c19-1 38-1 56 3 1 6 1 13-2 18-5 10-12 5-20 5-20 0-80 6-94-2-5-4-11-13-6-19 6-6 28-2 37-2Zm125 91h-25c-10 0-17-24-6-26 4-1 23-1 26 1 6 4 8 19 5 25Zm0 42c2 26-10 22-30 20 0-10-10-20 5-22 4 0 24 0 25 2Zm-13 261c-16 2-65 4-79 1-2-1-7-3-8-5l7-19c2-3 13-5 17-6 16-2 30 1 45 1 14 0 28-8 28 14 0 8-1 13-10 14Zm-102 29-10 2c-6 0-38 1-40-1-2-1-4-22 4-22h77c6 0 11 2 17 1 10 0 19-3 29 1-1 7 3 21-7 22-23 3-47-2-70-3Zm16 10Zm-16-6Zm5 12Zm-168-17c-12 0-21 10-14-13 2-9 18-5 26-6l47-4h45c3 3 0 18-1 21-3 9-7 4-14 3l-89-1Zm-37 3c-37 8-76 4-113 2-8-2-10-17-7-22 4-5 47-3 56-3l53-3c25-1 12 10 11 26Zm-150 72Zm25-35c-7 0-16-2-22-1-11 0-41 7-49 2-4-2-7-26 1-28 33 3 66 3 99 2 19 0 34-8 27 22-18 6-37 0-56 3Zm-34 5c-1 0-2 0-1-1-1 1 0 1 1 1Zm-89-44c-3-1-3-15-2-19 1-5 13-6 18-7 30-2 64 2 95 0 11-2 8 27 6 28l-117-2Zm41 10ZM59 477c-17-3-7-21 3-25 6-3 18-3 24-3 19-2 36 0 54 1 10 0 22-2 32 0 11 2 13 17 3 23-8 5-16 1-26 1l-90 3Zm-49-68c-4-2-5-22-1-24 3-3 30-3 34-1 6 3 7 19 3 22-3 2-34 5-36 3Zm0-100-1 1 1-1Zm-2 35c0-5-4-28 0-31 3-3 46 0 48 2-2 6 0 29-9 29H8Zm12 7c21-2 46 0 68 1 18 1 34-7 23 20l-100 7c-5-15-11-26 9-28Zm38-76c-4-3-4-23 4-26 18-6 52 0 72 1 7 1 41 0 45 4 2 2 3 17 1 19l-63 2-11 1c-8 1-42 2-48-1Zm73-102c-11-3-12-6-10-18 1-5 13-8 18-9 15-1 31 1 46 2 11 0 62 0 66 8 2 2 1 14-1 15l-43 2c-22 0-55 3-76 0Zm-14-9 1-7-1 7Zm264 6c-5 4-30-1-39 0l-24 3c-9 0-53 0-58-4-3-3-2-16 1-19l11-3c19-3 69-2 89 1 9 2 37 10 20 22Zm81-20c12 0 27-2 38 0 30 3 27 27-5 26h-64c-12 0-20 3-32-2-10-4-10-21 3-23 20 4 40 0 60-1Zm-17-5Zm70 3Zm23 6a369 369 0 0 1 108-1l3 13c1 8-2 9-9 11-18 4-86 2-105-2-9-1-10-10-7-18 1-6 6-3 10-3Zm88-38-1 1 1-1Zm-32 10Zm51 95c5 2 6 14 2 16-3 3-17 2-22 2-25 3-50 6-75 5-5 0-22-2-24-4s1-16 2-16c39-5 78-5 117-3Zm43 33c1 2 0 19-3 21-23 2-47 0-71 0-6 0-15 4-17-4-1-4-2-18 2-19 6-2 25 0 33 0 14-1 35-7 48-3l8 5Zm-3-7Zm5 79v4a68 68 0 0 1 0-4Zm-136 51c-5 0-29-2-29-5 2-8-2-11 6-15 20-10 52-3 73-2 9 1 26-1 33 1 5 1 8 13 8 18-3 4-80 4-91 3Zm100 44 3 18-4 5-31 4c-31 3-61-1-92-3-9-2-9-17-2-21 3-2 16-4 19-4l49 2c9 0 54-7 58-1Zm2-2Zm-138 87Zm-3-22Zm-53-3c-14-2-17-8-11-21 2-6 7-8 14-8 19-1 43 3 61 2 14 0 32-5 45-3 4 1 14 5 16 8 2 4-2 17-8 18-13 3-38 0-53 0-21 1-42 6-64 4Zm-138-2c-9-2-9-17-3-21 7-6 37-9 46-8l30 6c6 0 43 0 45 3v11c-3 16-29 9-41 9h-77Zm-104-1c-5-1-30-3-32-6l-4-14 5-4c14-8 66 1 84 2 17 1 48-7 38 21-30-1-61 2-91 1Zm29 24c0-4 1-8 3-10-2 2-3 6-3 10Zm12-15Zm-140-50v-14l22-3c35-4 71 0 106-1 0 5-3 19-8 20-24 4-52 0-76 1-6 3-41 1-44-3Zm17 7Zm-80-35c-8 1-6-19-3-21 2-2 24-5 28-5 24-2 51 1 76 0 4 0 17-4 19 1 2 6 1 24-7 25-9 2-30 1-40 0l-12-1-61 1Zm60-103c1-5 2-22 5-25 4-4 27 0 34 0 17 0 34-4 51-3 6 0 38 4 41 6 3 3 2 16-1 19-42 6-87 1-130 3Zm47 5Zm17-57Zm17-50c-2-1-6-3-6-5-1-1 0-13 1-14l33-6c16-1 43 0 60 2 4 0 20 3 22 5 5 4 5 22 0 25-5 2-35-4-44-4-16-1-54 3-66-3Zm85-26a138 138 0 0 1 23 4 77 77 0 0 0-23-4Zm159 9c5 3 10 15 5 19-4 5-61 0-72 1-12 0-30 4-43 3-10-1-18-5-16-16 2-12 35-10 44-10l23-4c13 0 49 0 59 7Zm54-3-15 1 15-1Zm7 36 14 4c2 2 3 12-1 14-2 0-17-4-21-3-28 0-60 10-87 9-3 0-8-4-9-5-4-2-5-10 0-12 37-6 67-11 104-7Zm-45-12 6 3-6-3Zm43 7 12 5-12-5Zm13 5 2 1-2-1Zm6 3Zm0 2h1-1Zm71 29c-2-2-4-4-4-6 0 2 2 4 4 6Zm60 45c1 19-26 9-37 13-23-2-45 0-67 0l-18-2c-9-2-6-19 1-22l11-2c20-2 43-3 64-3 15 0 46-6 46 16Zm19 16Zm-82 0h3-3Zm-8 29c-14 2-34-3-50-3l-57 2c-13 1-22 10-22-10 0-8 6-10 13-12 27-4 87-3 116-1l9 1c-1 9 2 22-9 23Zm-27 39 33 2c2 1 3 11 3 14-1 18-12 11-25 10h-73c-7 1-29 5-34 1-5-3-2-17-2-22h27c24-1 48-5 71-5Zm33 30 3-1-3 1Zm-67 13Zm-14 17Zm-77 1c-12-4-18-1-29-5-6-2-3-7 0-11 24-4 38-7 63-6l11 1c9 1 34-1 40 1 3 1 4 12 2 14-4 5-76 5-87 6Zm16 16-2-4 2 4Zm-11-6Zm-104-43c-20-2-17-22 2-25l46-3c10 0 66-1 70 5 2 3 0 15-3 18a525 525 0 0 1-115 5Zm-40 2c-26 1-65 4-91 3-20-1-23-12-14-28 41-7 84-8 126-1 7 23 0 24-21 26Zm-99-70c-12-2-13-19-4-26l118 4c4 2 8 24-3 22-36-1-74 4-111 0Zm32 4Zm-39-37 1 1-1-1Zm104-27c20-2 38-3 58-2 5 0 31 4 34 7 4 3 5 19-5 21-22 3-46 1-68 1-7 1-50 7-52-1-1-3 2-23 4-25 3-3 23-1 29-1Zm11-66Zm-12 4c26-1 54-5 80-5 16 1 28 18 6 23-26 6-79 10-104 5-9-2-18-17-12-23 5-5 23 0 30 0Zm42-9Zm30 0 5-1-5 1Zm39 6-8 2 8-2Zm-10 27Zm-12-4Zm-57 22c0-6 2-12 8-13l29-2c30-1 59 2 89 2 10-1 1 25 0 26l-25 4c-26 1-64-1-90-4-10-1-12-2-11-13Zm200 26c4 5 1 20-5 21H407c-17-2-19-17-6-22 17-6 70-2 92-2 7 0 20-4 26 3Zm-13-9c2 3 7 3 11 5-4-2-9-2-11-5Zm17 10Zm-1 19h-1 1Zm-8 46c7 2 3 15 4 20-10-2-22 3-33 4-28 1-57-5-85-4-16-3-7-15 13-18 15-3 26-4 42-5 20 0 39 4 59 3Zm-49-6 27 3-27-3Zm25 35h-2 2Zm-35 30Zm-62 8c-3 0-4 1-5 2 1-1 2-2 5-2Zm56-38 2 4-2-4Zm-188-27c21-3 44-3 66-3 14 0 29-2 43 0 17 1 10 12 11 17l-2 1c-14 0-29 4-43 5l-23-2c-12 0-51 4-58-1-6-4-3-16 6-17Zm-7-1c2-2 8-3 14-4-6 1-12 2-14 4Zm55-34c0-2-1-3-2-3 1 0 2 1 2 3l1 2-1-2Zm8 2c2-4 25-6 30-6 31-2 63 2 93 3 15 33-13 25-34 26h-42c-9 0-45 2-50 0-1-1-3-2-3-4l6-19Zm60-41 8-1-8 1Zm7 75Zm67-106c0 2 0 3 2 3-2 0-2-1-2-3Zm4 0v2-2Zm-17-8h-1 1Zm-160 73Zm-1-1Zm-28-37Zm-12 29Zm-31-1 31 1-31-1Zm13 7h-17 17Zm303 49Zm1-4Zm18-44Zm58-1 27-2-27 2Zm-18-33h12-12Zm2-2Zm8-8c-2 8-22 2-27 2l-42 3c-17 1-42 4-57 2s-11-23-6-25h24c22-1 44-4 66-4 19 0 47-7 42 22Zm-321-24 41 3c2 2 2 18 1 21-2 7-13 2-17 2-31 2-58 5-90 2l-13-2c-4-3-4-18 0-22 9-8 64-2 78-4Zm-78 104 38 1c10 1 20 6 16 18-1 3-16 5-19 5-24 2-48 0-71-1-7 0-38 2-39-4-1-1 1-7 2-8 4-10 35-6 44-7 9 0 19-4 29-4Zm-37 26 4 2-4-2Zm-34-22 7-2-7 2Zm25-3h9-9Zm25-8Zm-85 5Zm61 31c-13 1-26 0-39-1 13 1 26 2 39 1Zm117 65c-2 0-10-1-10-3v-18l7-2c22-2 43 0 65-1 9 0 50-5 56 1 2 3 1 13 0 16-1 2-4 2-6 2-30 6-81 7-112 5Zm101-1Zm13 38h-3 3Zm64 5Zm129-4Zm-46 4Zm126-129c1-2 32-5 34-4 2 2 3 18 1 21-2 2-29 3-34 2-1-1-3-17-1-19Zm33-10-87-2c1-7-6-22 2-24l87-4c4 3 0 29-2 30Zm4-38c-8-1-22 3-29 2l-4-1c-2-3-2-21 0-23 3-2 27-6 29-4s7 24 4 26Zm-16-30Zm13-1Zm-33-50Zm-3-9Zm-101-4Zm18 0Zm-13-31c8 1 33 4 35 13l-2 10c-3 2-27 5-32 5l-35-3c-15 0-29 2-45 0-9-2-20-3-19-13 0-13 17-8 27-9 26-2 44-6 71-3Zm-162-31 5-4-5 4Zm-138 19 3-5-3 5Zm-63 24v-1 1Zm50 18c8 1 11 1 12 10 3 19-6 13-19 14-29 4-60 8-90 5-3-1-17-4-18-6-2-3-4-20-2-22 3-4 31-5 37-5 23 1 59 0 80 4Zm-109 29Zm-26 1c0-2 1-3 4-3-3 0-4 1-4 3Zm17 67Zm0 0a85 85 0 0 0 11 0l19-1-19 1 35 1c3 1 7 2 8 5s2 21-4 23l-115 3c-1-1 1-23 3-26 1-2 8-4 11-4 10-2 31-2 51-2ZM51 416H29h22Zm49-5Zm14 8-2-1 2 1Zm108 96Zm53 8Zm103-18-1 2 1-2Zm-4-21c4 4 6 5 9 5-3 0-5-1-9-5Zm148 31h1-1Zm161-65Zm5-30v23c0 4-21 5-24 2s-2-22 0-23c5-4 18-4 24-2Zm-87-9c-6-1-8-11-7-16 3-7 11-7 18-9a340 340 0 0 1 77-1c1 7 1 24-8 26h-80Zm89-153Zm-5-47c-7 5-37-1-47-1l-10 1c-12 0-23 2-34-3 4-7 3-23 13-24 22-4 44 0 66 0 5 2 17 22 12 27Zm1-66c-5 4-15 0-20 0-19 0-42 2-59 0-18-2-12-15-3-25l62-1c6 0 14-4 19 0 6 3 6 21 1 26Zm-154-32-3 1 3-1Zm-7-9Zm32 13c5 0 29 4 32 7 2 2 3 12 1 15a629 629 0 0 1-124 5c-18-2-16-18-3-25 31 1 63-4 94-2Zm-125 26c-17 2-42-2-60-3-9 0-45 2-50-2-5-3 1-20 5-23 6-4 21 0 28 1 25 0 51-1 75 1 21 2 28 24 2 26Zm-101-32v-2 2Zm-23 5c-3-1-8 0-13 1 5-1 10-2 13-1Zm-174 68c8 0 49-2 53 2 5 5-5 20-11 21l-54 1c-17 1-33 3-50 2-9-1-20-1-21-12-2-22 15-19 32-17l51 3Zm-90 60h-2 2Zm6 5Zm4 35 57-1c5 1 5 9 5 14 0 10-7 9-16 10-19 3-60 3-79 0-12-1-15-7-13-19 1-6 18-4 24-4h22ZM5 298Zm104 220Zm-27 0Zm-49-3c6 1 12 4 12 9 0-5-6-8-12-9Zm15 9c0 2-1 4-3 5 2-1 3-3 3-5Zm16-7Zm-45-1Zm70 31c-10 0-42 4-42-10l5-14c3-3 24-2 29-2 22-1 46-2 68 0 20 1 19 5 19 24l-23 4-56-2Zm92 65Zm52-18 14-2 54 2c7 0 9 16 5 19-6 5-30 1-38 1-21-1-42 3-63 1-7 0-22-1-24-9-6-27 38-12 52-12Zm73-1Zm78-8Zm266-21v-3 3Zm-3 23c3 0 5-2 5-5 0 3-2 5-5 5Zm8-31Zm1 34-21 2 21-2Zm-3-37c-12 1-44 2-55 0-12-3-15-28-4-29 14-2 40-1 55 0 4 0 34 4 36 6 2 4-2 17-3 22-10-1-20 1-29 1Zm33-28 2 7-2-7Zm-3-8c-4 3-24 0-27-4s-3-17 1-19c3-2 30-4 31-2 2 3-1 23-5 25Zm5-63Zm-5-39ZM480 88c14 1 29 0 42 3 0 24-10 17-26 18-32 3-57 4-88 3-10 0-17-6-12-16 2-5 18-12 24-13 20-2 40 3 60 5ZM358 43Zm-18-6c11 0 29 4 42 2-13 2-31-2-42-2ZM224 85ZM8 138Zm7 6c-2 0-4 2-5 4 1-2 3-4 5-4Zm-5 14c1-7 1-11 10-12l29-1c13 0 41 0 52 4 10 4 18 21 5 27l-92-2c-6-2-5-10-4-16Zm39 23Zm-12 0Zm10 3c4 3-1 18-2 23H8c-2-6-3-21 3-24 3-2 34 0 36 1ZM8 248c9-1 37-3 43 4 2 3 1 22-2 24-6 4-42 3-44-4-1-3 0-22 3-24Zm99 400-13-1 13 1Zm-47-37c-5-1-13-2-13-7-1-6 1-18 8-18h17c19-1 33 2 51 3 11 1 45-4 51 0 4 3 5 16 2 20-3 3-38 1-45 1-23 1-48 3-71 1Zm55 7 62 2h40c9 1 30 1 30 11 0 19-13 17-28 18-24 2-63 1-87-1-23-2-24-7-17-30Zm79 36 105 3c11-1 14 20 9 26-5 7-39 2-49 2l-12 1-56-1c-3-2-5-31 3-31Zm122-36c-3-5-4-21 0-25 3-3 23-1 30-1 25-2 50-6 75-3l19 5c3 3-1 13 0 15 0 4 7 6-3 8-18 2-38-1-56 0l-65 1Zm194-1c-15-2-30 2-44 1-10-1-15 0-16-11-2-17 5-17 21-18 18-1 41 5 60 6 9 1 45-2 50 3s3 21-7 22c-18 2-46-4-64-3Zm7 9c9-4 19 0 28 0h71c14 0 32-7 27 18-3 15-30 8-39 8-24 1-54 3-77 0-16-2-10-14-10-26Zm171-41c-3 4-28 2-30-1-1-1 2-20 1-24 7-2 21-6 27 0 3 3 4 22 2 25Zm3-85Zm1 118Zm-3-580c-3 3-24 2-26 0l2-5c0-5-4-17 1-20 3-2 20-4 23-1 5 5 4 22 0 26Zm3-29Zm-28 0Zm-2 4h-1 1Zm-128-1Zm53 5c8 0 19-3 28-4l36-1c10-1 4 25-4 26a462 462 0 0 1-114-4c-2-2-5-14-1-17 7-5 44 0 55 0Zm-56-4ZM411 7Zm-14 7 9-2c32-3 58 0 90 3 12 1 29-6 25 14-2 7-7 9-13 9a649 649 0 0 1-107-3c-2-2-5-18-4-21Zm-10-9Zm-126 7c10-7 57-4 71-5 8 0 18-2 26-1l31 3c0 7 3 19-2 24-8 6-48-1-60-1-14 0-53 5-64-1-6-3-7-16-2-19Zm-5 1-1 5 1-5Zm-7-6Zm-27-1c16 0 28-3 26 18-2 8-10 7-17 9l-99 1c-4-1-8-13-8-17 0-6 5-7 10-8 28-4 61 1 88-3Zm-87-1ZM14 9l10 1c23 1 53-3 74-1 5 1 19 5 20 10 0 3 0 8-3 10-8 6-42 2-54 3-14 1-28 5-43 6C6 39 7 11 14 9Zm3 170c-11 0-13 5-13 12 0-7 2-12 13-12ZM0 670l1 5-1-5Zm41 12c-2 2-7 3-11 3l-18-2c-2-1-5-2-6-4l-3-24c1-4 4-5 8-5 5-1 30 1 33 4 2 3 0 25-3 28Zm24 1c-3-2-10-2-11-4-4-6-4-26 6-28l109 2c11 2 14 7 15 17 2 17-4 17-19 18-31 2-68-6-100-5Zm214 6h-43 43Zm56-3c-5 0-16-1-18-5 0-2-2-15-1-17 0-5 3-7 8-8 8-2 12 1 17 1l49-2c11 0 43-2 50 3 5 4 5 26 2 28-4 3-33-1-41-1-21-1-45 3-66 1Zm245 0-9 2c-36 3-76-2-112 0-14-2-10-20-11-30l43 1c26-1 54-6 80-2 2 0 9 2 9 4v25Zm2 0v1-1Zm46 7Zm-42-9c-5-32 14-27 38-27h20c8 0 38-2 42 2 3 3 5 24 2 27-7 7-35 2-44 2-8 0-57 1-58-4ZM693 90Z" />
    <path fill="#7E5247"
      d="M251 974c6 0 27 6 29-2 5-31-24-24-44-23-23 0-46 3-69 4h-26c-4 2-8 24 7 26 16 2 42-1 60-2l43-3Z" />
    <path fill="#6F4132"
      d="M339 936c3-3 3-15-2-17-41-2-82-2-123 3-1 1-5 15-2 18l25 3c26 2 53-2 79-5 5 0 19 2 23-2Z" />
    <path fill="#7F574F"
      d="M189 918c-39-4-78-3-117 3-5 2-3 18 0 20l17 2c29 1 62-10 91-10l22 4c5-2 4-12 1-14l-14-5Z" />
    <path fill="#715353"
      d="M81 1011c13 2 32 2 46 2h72c7-1 9-18 6-22-7-8-20-4-28-4-23 0-78-4-96 2-14 5-18 20 0 22Z" />
    <path fill="#856D61"
      d="M112 811c-26-2-53-1-79-2-8 0-23-5-30 0-4 3-10 21-5 24 6 3 43 1 53 2 19 1 44 5 63 3 27-3 19-26-2-27Z" />
    <path fill="#563E3A"
      d="M276 896c-1-10-28-13-36-14-28-4-47 0-75 3-10 1-28-5-28 9 0 11 11 12 21 13 16 3 30 0 46 1l38 3c4 0 30-3 32-5s3-8 2-10Z" />
    <path fill="#6B4538"
      d="M7 977c27 3 67 5 94 4l26-4c1-1 10-28 0-27-31 0-62-3-93-2l-30 2c-7 1-9 7-9 14-1 11 2 12 12 13Z" />
    <path fill="#81665F"
      d="M46 914c-28 0-57 4-85 5-6 0-25-5-31 0-6 7 3 22 12 24 27 6 83 1 110-5 23-5 11-23-6-24Z" />
    <path fill="#6B4538"
      d="M80 1081c29-1 60 5 89 3 11-1 24-6 34-3-1-6 4-20-4-21-20 0-40-4-61-3-17 0-43 2-59 5-21 3-16 15 1 19Z" />
    <path fill="#6C4943"
      d="M-17 1013c22-1 48 2 71-2 10-1 9-18 5-22-3-3-30-7-36-7-20-1-40 0-60 2-6 0-27-2-31 1-2 2-5 24-4 27 2 8 47 1 54 1h1Z" />
    <path fill="#6F4132"
      d="m157 1047 60-2c17 0 38 5 52 3 12-1 9-14 10-24l-10-2c-30-2-93-3-121 2-7 2-14 4-14 12 0 22 10 12 23 11Z" />
    <path fill="#695049"
      d="M125 883c-10-7-48-7-62-6l-24 3c-9 1-43-1-46 11-2 12 6 16 17 17 13 0 32-3 45-4 12 0 71 4 75 0 5-5 0-17-5-21Z" />
    <path fill="#5F3E2F"
      d="M180 872c33 1 36-24 5-27-12-2-28-1-40 0-21 1-42 6-63 1-13 2-13 20-4 24 13 5 22 2 34 2h68Z" />
    <path fill="#6E4D44"
      d="m-54 842-11 3c-4 4-5 17-1 20 4 4 51 4 60 4 8 0 18-3 26-4 9 0 34 5 40 1 18-13-12-21-21-23-21-3-73-5-93-1Z" />
    <path fill="#7B5141"
      d="M57 778c-12-2-35 1-49 0-11 0-19-3-31-3-9 1-34 3-41 6-13 5-2 24 10 24 21 1 47-6 69-7 14-1 28 2 42 1 10-3 12-19 0-21Z" />
    <path fill="#7E513E"
      d="M164 780c-21-2-42-7-63-5-6 1-28 5-31 10-5 10 8 20 18 21 33 1 59 0 92-4 18-1 28 6 28-19-14-3-30-2-44-3Z" />
    <path fill="#5A3B36"
      d="M279 833c2-2 1-13-1-16-3-2-28-6-33-7-33-2-66 4-99 2-14 8-16 24 3 26 31 3 81 3 112 0 3 0 16-3 18-5Z" />
    <path fill="#735B5B"
      d="m266 1270-39 3c-4 0-9-2-14-1-4 1-3 20-3 23l-2 6c4 5 21 1 27 1l13 2c30 1 60-1 90-5 6-2 2-22-1-25-3-4-62-4-71-4Z" />
    <path fill="#825744"
      d="M94 738H23c-9 0-26-5-28 9-3 16 10 18 23 20 19 2 40-1 59 0l52-4c11-30-15-25-35-25Z" />
    <path fill="#603F38"
      d="M139 754c0 10 7 10 15 11 20 3 40-1 60-1 13-1 52 4 61-1 5-2 4-19 1-22l-9-2c-32-3-71-4-103-1-13 1-26 1-25 16Z" />
    <path fill="#846050"
      d="M282 776c-10 1-21 4-31 4-9 0-32-4-38 2-5 7 1 16 7 20 14 8 77 2 98 2 8 0 16 6 21-5 3-6 2-13 2-19-19-4-39-4-59-4Z" />
    <path fill="#724035"
      d="M50 1082c-25 3-51 4-76 4l12 2c7 11 11 1 21 1l67-3c-1-4-13-8-14-8-2-5 8-18-11-20H4c-23 0-47 0-70 3-9 2-13 14-6 18 8 6 49 2 61 2 8 0 16 2 24 1 15 0 30-5 45-4 1 4-5 4-8 4Z" />
    <path fill="#9D7B71"
      d="M-63 1154c33 2 86 1 118-5 2-1 5-1 6-3 2-3 2-14 0-16-6-7-49-1-59-1-22 0-45-2-68 1l-7 1v20c0 2 8 3 10 3Z" />
    <path fill="#382F32"
      d="M149 1335c15 1 31-3 46-2 20 0 49 6 68 4 10-2 11-18 6-23s-42-3-52-3c-20-2-43-8-63-7-16 1-23 1-22 19 1 11 6 11 17 12Z" />
    <path fill="#654945"
      d="m41 1198-55 3c-10 0-54-3-58 3-5 5-2 21 6 22 39 3 80 7 118-1 1-17 15-28-11-27Z" />
    <path fill="#5C4849"
      d="M67 1239H13c-7 0-23-6-25 5v19c3 8 23 2 29 2h37c11 0 67 2 72-5l-1-17c-3-5-49-3-58-4Z" />
    <path fill="#8F5F4B"
      d="M68 1275c0 7-4 19 5 21 10-1 19 1 28 2 24 1 64 0 87-2 5 0 13-1 14-7 0-3-1-10-3-12-7-6-68-6-81-5-16 0-34 4-50 3Z" />
    <path fill="#624642"
      d="M240 1238c-23-2-77-3-99 0-11 2-12 11-10 22 1 5 6 5 10 5 22 2 46-1 68-1l61-2-2-19-28-5Z" />
    <path fill="#6F584A"
      d="M118 1333c11-1 4-4 3-7 0-3 4-13 1-17l-20-5c-27-3-52 1-79 3-6 1-27-1-31 2-4 4-3 20 0 26l68-2c19 0 39 2 58 0Z" />
    <path fill="#82533F"
      d="m38 1272-104-2c-7 11-10 27 7 29 26 4 86 0 114-5 4 0 7-1 8-5 4-20-12-14-25-17Z" />
    <path fill="#5E4038" d="M44 1369c8 0 12-22 1-27-10-5-27 0-38-1l-66-3-14 1c-2 1-4 29-2 30H44Z" />
    <path fill="#5C3F39" d="M356 917c-15 2-5 13-5 23 22 3 34 7 32-21-2-2-23-2-27-2Z" />
    <path fill="#654339"
      d="M358 812c-21 1-43 0-64 2-10 10-16 23 3 26 18 2 42-1 61 0 6 0 16 4 22-1 4-4 4-23-1-27-6-4-14 0-21 0Z" />
    <path fill="#504043"
      d="M335 1375h-21c-24 1-44-5-39 28 1 6 52 5 60 5 10 0 39 5 46-2 4-4 2-26-1-28-4-4-36-3-45-3Z" />
    <path fill="#785A4F"
      d="M365 881c-22-1-45-4-68-1-11 2-10 18-14 26 12 4 24 3 36 3l10-2c10 1 42 7 49 1 6-5-6-25-13-27Z" />
    <path fill="#786652"
      d="M322 951c-8 1-27-1-33 1-4 1-3 15-3 19 2 9 12 5 19 5 24-1 50 2 74 0 3-2 4-20 2-23l-8-4c-13-5-36 1-51 2Z" />
    <path fill="#3D3236" d="m286 1050 91 2c2-1 7-28 3-31l-91 4c-9 2-1 18-3 25Z" />
    <path fill="#5E4036"
      d="M348 989c-3 2-3 22-1 24 1 2 3 1 4 1 7 1 22-3 31-2 3-2-2-24-4-26-3-3-28 1-30 3Z" />
    <path fill="#9B8172"
      d="M233 728c25 3 82 4 106 0 8-2 14-28 3-27l-37 1-29 3c-12 0-50-5-58 1-3 3-1 15 2 18 2 2 10 3 13 4Z" />
    <path fill="#483F42" d="M346 780c-3 5-1 21 4 24 5 2 31 1 32-2 4-4 4-22-2-25-4-2-32 1-34 3Z" />
    <path fill="#41342E"
      d="M356 738c-19 4-44 0-62 5-9 2-16 23 3 25 26 3 57-2 83 0 9-2 2-26 0-28-3-3-19-3-24-2Z" />
    <path fill="#7A7677" d="M383 728c4-5 5-22 0-27-4-3-21-2-24 0-6 4-2 16-2 21l-1 6c1 2 24 3 27 0Z" />
    <path fill="#5F4743" d="M351 1274c1 4-2 24-1 25 2 4 29 5 31 2 3-4 1-24-1-27-6-6-21-2-29 0Z" />
    <path fill="#724639"
      d="M340 1236c-14-1-42-2-56 0-12 1-9 27 4 30 11 3 44 2 57 1 10 0 20-3 30-2 1-4 5-19 3-22-1-2-33-6-38-7Z" />
    <path fill="#7E5247" d="M343 1062c-2 3 0 20 1 21 5 1 34 0 36-3s1-19-2-21c-2-2-34 1-35 3Z" />
    <path fill="#634B41" d="M377 1229c3-2 6-23 4-27-1-2-29 1-32 3-4 2-4 16-1 19 3 5 24 8 29 5Z" />
    <path fill="#7C5E5C"
      d="m353 1370 20 2c5 0 7-2 7-7l-2-22c-3-4-21-4-26-3-8 2-11 4-11 12 1 10 1 17 12 18Z" />
    <path fill="#805A4F" d="m382 1309-101 2c0 17-7 22 14 24 28 2 57-3 86-2 3 0 0-21 1-24Z" />
    <path fill="#3F3438" d="M357 1129c-3 2-4 22-1 24 4 4 26 2 26-2v-23c-6-3-20-2-25 1Z" />
    <path fill="#563830"
      d="M345 1089c-13 0-31 1-43 3-7 2-16 2-18 10-2 5 0 15 6 16h84c10-2 10-19 9-27-2-3-33-2-38-2Z" />
    <path fill="#5F3E35"
      d="M350 1164c-15 0-30-4-47-2-4 1-16 3-18 6l-7 20c1 2 6 4 8 5 15 4 66 2 83 0 10-2 11-7 11-16-1-23-15-14-30-13Z" />
    <path fill="#634239"
      d="m313 1202-18-1h-81c-8-1-7 21-4 23 2 2 35 1 41 1l12-2c23 1 48 6 72 3 11-1 7-16 8-24-11-4-20 0-30 0Z" />
    <path fill="#683D2C" d="M378 849c-3-2-24-2-28-1-11 2-4 27 6 27h27c3-6 0-22-5-26Z" />
    <path fill="#5C3B32"
      d="M-63 721c11 6 51 0 67 0 12 1 54 8 62 1 5-4 3-18 3-25l-33-3-27 2c-15 0-65-2-75 5-5 3-4 16 3 20Z" />
    <path fill="#8F6857"
      d="M101 728c23 2 69 3 92 0 6-1 12-3 13-9 5-21-13-14-26-15-33-3-60-6-94-4-2 1-7 1-9 3-1 3 2 19 4 21l20 4Z" />
    <path fill="#7B5F53"
      d="M313 1157c5-1 29-3 32-5l4-4-3-20c-4-6-52 1-61 1-17 1-35-1-51-1l-20 3c-7 4-7 21 2 23 32 1 64 6 97 3Z" />
    <path fill="#64433C"
      d="M259 1160c-14-2-32 3-47 3-19 1-44-4-64-3-7 1-12 3-15 10-6 13-3 19 11 21 24 2 46-2 68-3 16-1 42 2 55 0 7-2 11-15 9-20-2-3-13-7-17-8Z" />
    <path fill="#704938"
      d="m91 1222 94 1c7 0 11 6 14-3 1-4 5-20 1-22-2-2-40 0-47 0l-49 4c-9 1-40-3-43 6-7 25 18 14 30 14Z" />
    <path fill="#6C5045"
      d="M295 984c-21 1-45 1-66 3l-11 2c-8 3-11 21-2 24l19 2c23 0 46-3 70 0 12-5 40 5 39-14 0-23-33-17-49-17Z" />
    <path fill="#754B3F"
      d="M140 1117c6 4 29 0 37-1h76c13 1 25 9 26-11 0-3-1-13-3-14l-35-2c-24 0-49 4-74 5h-28c-1 5-3 20 1 23Z" />
    <path fill="#81665F"
      d="M329 1060c-8-2-26 0-36 0-22-2-55-9-76 1-8 4-4 8-7 16 1 3 26 5 31 6 12 0 92 0 95-4 0-5-3-17-7-19Z" />
    <path fill="#5B4A40"
      d="M335 1362c5-26-14-19-29-19h-74c-10 0-20-4-30 0 1 13-6 25 11 27 24 4 56 1 80 0 10 0 39 7 42-8Z" />
    <path fill="#8A5E51"
      d="M110 1152c12 0 87 0 92-5 2-3 1-15-3-16-6-2-33 0-42 0l-11-2c-26 0-52 1-77 5-3 4-5 13 1 14 12 4 28 1 40 4Z" />
    <path fill="#846050"
      d="M122 1024c-32-1-65-5-97-3-6 0-30 2-32 6l-6 20c0 2 2 3 3 4 5 2 43 0 53 1h43c22-1 52 7 36-28Z" />
    <path fill="#663B2B"
      d="M0 1189h81c12 0 40 8 43-9v-12c-2-3-41-2-48-3-10-1-20-6-31-6-9-1-40 2-48 8-7 5-6 20 3 22Z" />
    <path fill="#7B6055"
      d="M7 1118a552 552 0 0 0 120-5c3-3 5-16 3-19-4-6-63-6-73-5l-48 3c-20 3-23 24-2 26Z" />
    <path fill="#674E4A"
      d="m186 1367 7-3c3-4 3-15 1-18-2-4-9-4-12-5-35-3-70-2-104-1-10 0-16-7-18 9-2 8-2 17 8 18 13 2 36 0 51 0 18 1 50 5 67 0Z" />
    <path fill="#604439"
      d="M259 1376c-27-4-57 0-84 1h-44c0 10-4 28 10 31 39-2 81 3 118 0l9-2v-27l-9-3Z" />
    <path fill="#987E71"
      d="M122 1377c-7-5-41-3-52-3l-52 1c-5 1-10-2-17-1-5 1-9 3-10 9l2 17c2 5 14 6 19 6 21 2 47-2 69-2 8 1 39 5 43 1 3-2 3-24-2-28Z" />
    <path fill="#5D3F37"
      d="M331 873c8-2 10-3 10-11 0-2-2-13-4-14-4-4-52-4-62-4-16 1-35 2-50 5-4 0-10-3-11 3-3 9-3 18 7 20 20 3 92 6 110 1Z" />
    <path fill="#B7B29D"
      d="M390 711v-23h-729v696a89 89 0 0 0 0 5v27h729V711Zm-9 622c-29-1-58 4-86 2-21-2-14-7-14-24l101-2c-1 3 2 24-1 24Zm-1 32c0 5-2 7-7 7l-20-2c-11-1-11-8-12-18 0-8 3-10 11-12 5-1 23-1 26 3l2 22Zm-320-16c2-16 8-9 18-9 34-1 69-2 104 1 3 1 10 1 12 5 2 3 2 14-1 18l-7 3c-17 5-49 1-67 0-15 0-38 2-51 0-10-1-10-10-8-18Zm3 22Zm-19-2H-75c-2-1 0-29 2-30l14-1 66 3c11 1 28-4 38 1 11 5 7 27-1 27Zm-294-10c-28 3-57 9-84 2-1-3 3-25 6-28 2-2 20-5 24-5 16 0 55 1 69 4l9 5c2 3 0 20-5 22h-19Zm5 3Zm-92-193c-2-20 39-15 44-4 2 3 4 17 3 19-2 2-37 5-41 2l-6-17Zm4-260Zm1-162Zm5-6c3-4 18 0 23 0s8-4 14 0c8 5 1 18 5 26-9-1-30 5-38 1-4-3-6-24-4-27Zm37-4 3 1-3-1Zm19 39 41 2c10 2 21 10 10 18-33 2-66 4-98 3-10-2-13-20-7-22s44-1 54-1Zm-13-37Zm116-3c16 2 17 14 15 28l-54-2c-17 0-48 5-64 1s-11-25 1-27c32 3 71-4 102 0Zm2-3Zm69 1c20 0 47 0 66 2 15 2 22 5 19 22-2 10-13 4-20 4-19-1-38 1-56 1-9 0-48 0-52-3-5-3-2-17 1-20 1-2 37-5 42-6Zm25-21 1 3-1-3Zm11 14Zm40 8Zm115 3c20 0 46-5 35 25l-52 4c-19-1-40 2-59 0-13-2-26-4-23-20 2-14 19-9 28-9h71Zm27-5Zm43 5a554 554 0 0 1 112 3c3 3 4 20-1 22-9 5-48 0-61 1-20 0-40 4-60 1-8-1-15-1-15-11-1-15 12-15 25-16Zm-13-2h2-2Zm151 2Zm-8 5c18-5 43-1 62-5 5-1 21-1 24 2 2 2 9 26 0 28-26-2-57 3-83 0-19-2-12-23-3-25Zm88 59c-1 3-27 4-32 2-5-3-7-19-4-24 2-2 30-5 34-3 6 3 6 21 2 25Zm-4 464Zm-103 50Zm-1 14Zm-26-26-13-2c-6 0-23 4-27-1l2-6c0-3-1-22 3-23 5-1 10 1 14 1l39-3c9 0 68 0 71 4 3 3 7 23 1 25-30 4-60 6-90 5Zm-107-39c-4 0-9 0-10-5-2-11-1-20 10-22a687 687 0 0 1 127 5l2 19-61 2c-22 0-46 3-68 1Zm-40 33c-9-1-18-3-28-2-9-2-5-14-5-21 16 1 34-3 50-3 13-1 74-1 81 5 2 2 3 9 3 12-1 6-9 7-14 7-23 2-63 3-87 2Zm30 8Zm-77-41H17c-6 0-26 6-29-2v-19c2-11 18-5 25-5h54c9 1 55-1 58 4l1 17c-5 7-61 5-72 5Zm1 29c-28 5-88 9-114 5-17-2-14-18-7-29l104 2c13 3 29-3 25 17-1 4-4 5-8 5Zm-260-1c-16-2-14-22-8-24 5-2 45-1 53 0 15 0 59 2 71 6 5 2 11 7 6 13l-12 3c-33 4-78 6-110 2Zm52 11Zm-72-10h-109c1-17-5-22 15-28 15-4 41 0 57 1 7 0 37-1 40 2 2 3 1 24-3 25Zm-68 31c-7-2-35 4-39 1-3-1-3-21-1-24 3-4 32-3 36 0 5 3 3 18 4 23Zm-39-93c2-2 32-1 35 1 4 3 1 18 2 24-12 2-23 5-35 3-2-5-6-26-2-28Zm57-36 25 3c6 1 24-1 29 4 4 3 0 17-9 19-27 4-65-4-93 0-12 3-10-20-7-23 3-4 47-4 55-3Zm-32-44c-4 0-23-2-24-5-3-3-4-20 0-21l109 2s0 13-2 15a233 233 0 0 1-83 9Zm-23-215c-3-21-6-28 18-29 19-1 44 3 63 4 6 1 27-1 29 2 2 2 1 21-1 22l-18 4c-11 1-89 0-91-3Zm71-102c-3-1-18-4-20-6-4-3-1-18 6-18l79-1 10 2c20-1 48-17 38 21-8-1-15 2-22 2-25 1-66 2-91 0Zm-12 3Zm-7-6Zm-49-23c4-5 36-3 40 1 3 3 4 19 1 21-3 3-35 3-39 0-3-2-4-20-2-22Zm-3-16Zm-1-10Zm221-3c6 0 32-2 34 1 3 4 0 17-6 18h-113c-11 2-21-13-14-20 2-2 8-4 10-4 26-2 62 3 89 5Zm29-3Zm5 2 1 1-1-1Zm59 33c10 1 6 7 7 14 1 3 4 6 3 10-14 1-28-1-43-1-26 0-42 3-69 0-8-1-20 3-21-9l4-13c8-9 45-1 57-1 19 1 44-2 62 0Zm-47-31c7-3 32-5 41-6 12 0 20 3 31 3 14 1 37-2 49 0s10 18 0 21c-14 1-28-2-42-1-22 1-48 8-69 7-12 0-23-19-10-24Zm77-6Zm238 5c10 0 21-3 31-4 20 0 40 0 59 4 0 6 1 13-2 19-5 11-13 5-21 5-21 0-84 6-98-2-6-4-12-13-7-20 6-6 29-2 38-2Zm132 95h-27c-10 0-17-25-6-27 4-1 25-1 28 1 5 4 8 20 5 26Zm0 44c2 28-10 24-32 21 0-10-10-21 5-23 4 0 25 0 27 2Zm-14 274c-17 2-68 4-83 0l-8-4 7-21c2-3 14-5 18-6 17-2 32 2 47 2 15-1 29-10 30 13 0 9-2 14-11 16Zm-106 30-12 2c-6 0-39 1-41-1-3-2-4-24 4-23h81l18 1c10 0 19-4 30 0-1 8 3 23-8 24-24 3-49-2-72-3Zm16 10Zm-17-6Zm5 13Zm-176-18c-12 0-37 11-30-14 3-9 34-5 43-6l49-4c7 0 45-2 47 0 4 2 0 18-1 22-3 9-7 3-14 3l-94-1Zm-39 3c-38 8-79 4-118 1-8-1-11-17-6-22 4-6 48-3 58-3l55-3c26-1 12 10 11 27Zm-156 75Zm25-37-23-1c-11 0-42 7-51 2-4-2-7-27 2-29 34 3 68 4 103 3 21-1 36-9 29 22-19 6-40 0-60 3Zm-35 6-1-1 1 1Zm-93-46c-3-1-3-16-2-20 1-6 13-7 18-7 32-3 68 2 101 0 11-2 7 27 5 29l-122-2Zm43 11Zm-114-47c-17-3-7-21 4-26 6-3 18-3 26-4 19-1 37 1 56 2 10 0 22-2 33 0s13 18 4 24c-9 5-18 1-28 1-31 2-63 2-95 3Zm-51-71c-4-2-5-23-1-26 4-2 32-2 36 0 7 3 8 20 3 23-3 2-35 5-38 3Zm1-104h-2 2Zm-3 36c1-6-4-30 0-33 4-2 49 0 51 3-3 6 0 30-9 30h-42Zm13 7c21-2 49 0 71 2 20 1 36-8 25 20l-106 7c-5-15-11-27 10-29Zm40-80c-5-3-4-23 4-26 18-7 55 0 75 1 8 0 43-1 48 3 2 2 3 18 0 20l-66 3-11 1c-9 0-44 2-50-2Zm76-106c-12-3-13-6-10-19 0-5 13-8 18-9 16-1 33 1 49 2 11 0 64 0 69 8 2 3 1 15-1 16l-46 2c-22 0-57 4-79 0Zm-15-10 2-6-2 6Zm277 7c-6 4-31-1-40-1-8 1-18 4-26 4-9 0-56 0-60-4-4-3-3-16 1-20l11-3c20-4 72-2 93 1 9 2 39 10 21 23Zm85-21c12-1 28-2 40 0 31 3 28 28-5 27h-68c-12 0-21 3-34-2-9-4-9-22 4-24 21 5 42 0 63-1Zm-18-5Zm73 3Zm25 6a387 387 0 0 1 112-1c2 1 4 12 4 14 0 8-2 9-10 11-18 5-90 2-110-1-10-2-10-11-7-20 1-6 7-3 11-3Zm91-40-1 1 1-1Zm-32 11Zm53 99c5 2 5 14 2 17-4 4-18 2-23 2-26 3-53 7-79 5l-25-3c-3-3 1-17 2-18 41-5 82-5 123-3Zm44 34c2 3 1 21-2 23-24 2-50-1-74 0-7 0-17 4-19-5 0-4-1-18 3-19 6-2 25 0 33-1 15-1 38-7 51-2l8 4Zm-2-7Zm5 83v5a71 71 0 0 1 0-5Zm-143 54c-5-1-30-3-31-6 3-8-1-12 7-16 21-10 54-3 76-1 10 0 28-2 36 0 4 2 7 14 7 19-3 4-83 4-95 4Zm105 45 3 20-4 4c-3 2-27 4-32 5-33 3-65-2-97-3-9-2-9-19-2-23l20-3c16 0 34 2 51 1 9 0 57-7 61-1Zm2-2Zm-144 91Zm-3-22Zm-57-4c-14-2-17-8-11-21 3-7 8-9 15-10 20-1 45 4 64 3 15 0 33-5 47-3 4 1 15 5 17 8 2 5-2 18-9 20-13 2-39-1-55 0-22 1-44 5-68 3Zm-144-2c-9-2-10-17-3-22 8-6 39-9 48-8 11 0 21 5 31 6 7 1 46 0 48 3v12c-3 17-31 9-43 9H0Zm-108-1c-6-1-32-3-35-6l-3-14c1-3 3-4 5-5 15-8 69 1 88 2 18 1 50-8 39 22-31 0-63 2-94 1Zm30 25c0-4 1-8 3-11-2 3-3 7-3 11Zm13-15Zm-147-52v-15l23-3c37-4 74-1 111-2 0 5-3 20-9 21-25 5-54 0-79 2-7 2-43 0-46-3Zm18 6h-4l-4-1 4 1h4Zm-84-36c-8 1-6-19-4-22 2-2 25-5 30-5 26-2 53 1 79 0 5 0 18-5 20 1s1 25-7 26c-9 2-31 1-42 0l-13-1-63 1Zm62-108c2-6 3-23 6-26 4-5 28 0 35 0 18 0 37-4 54-3 6 0 40 4 42 7 4 3 3 16 0 19-44 6-91 2-137 3Zm50 5Zm18-59Zm17-53c-2 0-6-3-6-5l1-14c1-2 30-6 34-7 17-1 46 1 63 2 5 0 21 3 24 6 5 3 5 23 0 25-6 3-37-3-46-4-17-1-57 4-70-3Zm90-27a146 146 0 0 1 24 5 81 81 0 0 0-24-5Zm166 9c5 4 10 16 5 21-4 4-63 0-75 0-13 1-32 4-45 4-11-1-19-5-17-17 3-12 37-10 46-11l24-3c14-1 52-1 62 6Zm57-3-17 2 17-2Zm7 38 14 5c3 2 4 12-1 14l-22-4c-29 0-62 11-91 10l-17-2c-3-2-5-18 0-20 39-6 78-7 117-3Zm-47-12 6 2-6-2Zm45 7 13 5-13-5Zm14 6h1-1Zm5 2Zm1 2 1 1-1-1Zm74 30-4-5 4 5Zm63 48c1 19-27 9-39 14-24-3-47 0-70 0l-19-2c-9-3-6-21 2-24l11-2c21-2 45-2 66-3 16 0 49-6 49 17Zm20 17Zm-86-1Zm-9 31c-14 2-35-3-52-3l-60 2c-13 1-23 11-23-11 0-8 7-10 14-12 28-5 91-4 121-2l10 2c-1 10 2 23-10 24Zm-28 41 35 2c2 1 3 11 3 14-1 20-13 12-26 11h-76c-8 1-31 5-37 1-4-3-2-18-1-23h28c25-1 50-5 74-5Zm35 31 3-1-3 1Zm-70 14-2-1 2 1Zm-15 18Zm-81 0c-12-3-28 0-40-4-6-1-4-10-1-14 25-4 51-5 77-5l11 2c9 0 36-2 42 0 4 1 5 13 3 16-5 5-80 5-92 5Zm17 17-2-4 2 4Zm-11-6ZM7 1118c-21-2-18-23 2-26l48-3c10-1 69-1 73 5 2 3 0 16-3 19l-23 3c-30 3-67 5-97 2Zm-42 2c-28 2-69 4-96 3-20-1-23-13-14-29 43-7 88-9 131-1 8 24 1 25-21 27Zm-104-73c-13-2-14-20-4-27l124 4c3 2 8 25-3 23-39-1-78 5-117 0Zm33 4Zm-40-38h1-1Zm109-29c20-2 40-3 60-2 6 0 33 4 36 7 4 4 5 21-5 22-23 4-49 1-71 2-8 0-53 7-55-1-1-3 2-25 4-27 4-3 25-1 31-1Zm11-69Zm-13 4c28-1 57-5 85-5 17 1 29 19 6 24-28 6-83 11-110 5-9-2-18-17-12-24 6-5 25 0 31 0Zm45-9Zm31-1h6-6Zm41 7-8 3 8-3Zm-10 29Zm-14-5Zm-59 24c0-7 2-13 9-14l30-2c31-1 62 2 93 2 10-1 1 26 0 27l-26 4c-27 1-67-1-94-4-10-1-13-2-12-13Zm210 27c3 4 1 21-6 22h-72c-14 0-33 0-46-2-18-2-14-17 0-22 18-6 73-2 96-2 8 0 21-4 28 4Zm-14-11c2 4 7 5 11 6-4-1-9-2-11-6Zm18 11Zm-1 20-1 1 1-1Zm-9 49c8 1 3 15 4 21-10-3-23 2-34 3-29 2-60-4-89-3-17-4-22-16-1-19 16-3 42-5 59-5 21-1 41 3 61 3Zm-51-7c10 0 19 2 28 3-9-1-18-3-28-3Zm26 37h-2 2Zm-36 31Zm-65 8-6 3 6-3Zm58-39 2 4-2-4Zm-197-29c23-3 47-3 70-3h45c17 2 10 13 11 18l-2 2c-15-1-30 4-45 4-8 1-16-1-24-1-12 0-53 4-61-2-7-4-3-16 6-18Zm-7 0c2-2 8-3 15-4-7 1-13 2-15 4Zm58-36-2-4 2 4v2-2Zm8 2c2-4 26-6 32-6 32-2 65 2 97 3 16 35-14 27-36 28H43c-10-1-48 1-53-1-1-1-3-2-3-4l6-20Zm63-42c0-2 4-2 8-2-4 0-8 0-8 2Zm7 78Zm71-111 1 3-1-3Zm4-1-1 3 1-3Zm-18-8-2 1 2-1Zm-168 77Zm-1-1Zm-29-39Zm-13 30Zm-32 0h32-32Zm13 6h-17 17Zm318 52Zm1-4Zm18-47Zm61 0 29-2-29 2Zm-19-35h13-13Zm3-2Zm8-8c-2 8-23 2-29 2l-43 3c-18 1-44 4-60 2-15-2-11-24-7-26h26c23-1 46-4 69-4 20-1 49-8 44 23Zm-336-26 42 4c3 1 3 18 2 21-2 7-13 3-18 3-33 1-61 5-94 2l-14-3c-4-3-4-19 0-22 9-9 67-2 82-5Zm-82 109c11 0 29 0 40 2 10 1 21 5 16 18-1 3-16 6-20 6-24 2-50-1-74-2-6 0-40 2-41-4l2-9c5-10 37-5 47-6l30-5Zm-39 28 4 1-4-1Zm-36-23 8-3-8 3Zm27-4 9 1-9-1Zm26-8Zm-89 5Zm64 33-41-1 41 1Zm122 68c-2 0-10-1-10-3v-20l7-1c23-3 46-1 68-1 10 0 53-6 59 1 2 2 2 13 0 16-1 2-4 2-6 3-32 6-85 7-118 5Zm107-1Zm13 39h-3 3Zm67 5Zm135-4Zm-48 4Zm132-135c1-2 33-5 35-3 3 2 4 18 2 21s-31 4-36 3c-1-1-3-18-1-21Zm34-10-91-2c2-7-6-23 3-25l91-4c4 3-1 30-3 31Zm5-40c-9-1-24 3-31 2-1 0-3 1-4-1-2-2-2-22 1-24 2-2 27-6 30-3 2 2 7 24 4 26Zm-17-32Zm14 0Zm-35-52Zm-3-10Zm-106-4Zm19 0Zm-14-32c8 1 35 4 36 14 1 2 0 8-2 10s-28 5-32 5l-38-3c-16-1-30 2-46-1-10-1-21-2-21-13 0-14 18-8 28-9 28-3 47-7 75-3ZM71 849l5-4-5 4Zm-145 20 3-5-3 5Zm-66 25v-1 1Zm53 19c8 1 11 1 12 10 3 20-7 14-20 15-31 4-63 8-94 5-3 0-18-4-19-6-2-3-4-20-3-23 3-5 33-5 40-5 24 1 61 0 84 4Zm-114 30Zm-28 2c0-3 1-4 4-4-3 0-4 1-4 4Zm18 69Zm0 0a90 90 0 0 0 12 0l19-1-19 1 36 2c3 0 7 1 9 4 1 4 1 23-5 25l-120 3c-2-2 1-24 3-27 1-2 9-4 11-5l54-2Zm-75 109h-22 22Zm52-5Zm15 8-3-1 3 1Zm112 101Zm56 9Zm108-19-1 1 1-1Zm-4-22c3 4 6 5 9 5-3 0-6-1-9-5Zm155 32Zm168-68Zm6-31v23c0 4-22 6-26 2-3-2-2-22 1-24 5-3 19-4 25-1Zm-92-10c-6-1-8-11-6-16 2-8 11-8 18-10a357 357 0 0 1 81-1c1 8 1 25-9 27h-84Zm94-160Zm-6-50c-7 6-39 0-49-1l-10 2c-12 0-24 1-36-3 4-8 3-24 14-26 23-3 46 0 68 1 7 2 19 22 13 27Zm2-69c-6 5-16 1-22 1-19-1-43 2-61 0-19-3-13-16-3-26 21-2 43-1 64-2 6 0 15-4 21 0 5 4 5 23 1 27Zm-162-33-3 1 3-1Zm-7-9Zm34 13c5 1 30 5 33 7 2 3 3 14 1 16s-15 5-18 5c-31 3-81 3-112 0-19-2-17-18-3-26 33 2 66-4 99-2Zm-131 28c-19 2-44-2-63-3-10-1-47 1-53-2-5-3 1-21 5-24 7-5 22 0 30 0 26 1 53 0 79 2 21 1 29 24 2 27ZM8 804v-2 2Zm-24 5-14 2 14-2Zm-183 71c9 0 52-1 56 2 5 5-6 21-12 22-19 2-38 1-57 2-17 0-34 3-51 2-10-1-21-1-22-12-3-24 15-20 33-19 19 1 34 3 53 3Zm-94 63h-2 2Zm6 5Zm4 37 60-1c6 1 6 10 6 14v1c0 11-8 9-17 10-20 4-63 3-83 1-12-2-16-9-14-21 2-6 19-4 25-4h23Zm-50 15Zm108 230Zm-29 0Zm-50-3c6 1 12 4 13 10-1-6-7-9-13-10Zm16 10-4 4 4-4Zm16-8Zm-47-1Zm73 33c-10 0-44 4-44-11l5-15c3-3 25-2 31-2 23-1 48-2 71 0 21 2 20 5 20 26l-24 3c-19 0-39-2-59-1Zm97 67Zm54-19 14-2 57 2c8 1 10 17 5 21-5 5-31 0-39 0-22 0-44 3-66 2-8-1-23-1-25-10-6-28 39-13 54-13Zm77-1Zm81-8Zm279-22-1-3 1 3Zm-3 24c3 0 5-2 5-5 0 3-2 5-5 5Zm9-32Zm0 36-22 1 22-1Zm-3-39c-13 1-46 2-57-1-13-3-16-29-4-30 14-2 42-1 56 0 5 1 37 5 38 7 2 3-2 18-3 22-10-1-20 2-30 2Zm35-29 1 7-1-7Zm-3-9c-5 3-26 0-29-5-3-3-3-17 1-19 3-2 31-5 32-3 2 4-1 25-4 27Zm4-66Zm-4-41ZM164 780c14 1 30 0 44 3 0 25-10 18-28 19-33 4-59 5-92 4-10-1-23-11-18-21 3-5 25-9 31-10 21-2 42 3 63 5ZM36 733Zm-19-7c12 1 31 5 44 3-13 2-32-2-44-3Zm-121 51Zm-226 55Zm7 7c-3 0-4 2-6 4 2-2 3-4 6-4Zm-6 15c1-8 2-12 10-13l32-1c13 0 42-1 54 4 10 4 18 22 5 28l-96-2c-7-2-6-11-5-16Zm42 24Zm-14 0Zm11 3c4 3-1 19-2 23h-39c-1-6-3-21 4-25 3-1 35 0 37 2Zm-41 66c10-1 39-3 45 5 3 3 1 23-2 25-6 4-43 3-46-4-1-4 1-24 3-26Zm104 419-13-1 13 1Zm-49-39c-5-1-14-2-14-7 0-6 2-19 9-19h17c20-1 35 2 54 3 11 1 47-4 53 0 5 3 6 18 2 21-3 3-39 2-47 2-24 0-50 2-74 0Zm57 8c22-1 44 1 66 2 13 0 28-2 42 0 8 0 31 0 31 11 0 20-14 19-30 19-24 2-65 1-90-1-24-2-26-8-19-31Zm83 37 110 4c12-1 15 20 10 27s-41 1-52 1l-12 2c-20 0-40 0-59-2-3-1-5-32 3-32Zm128-37c-3-6-4-22 0-26 4-3 25-1 31-2 27-2 52-6 79-3l20 5c3 4-1 14-1 17 1 3 8 6-3 7-19 2-39 0-58 0l-68 2Zm203-2c-15-1-31 3-46 2-11-1-16-1-17-12-1-18 6-18 22-19 20-1 43 5 63 7 10 0 47-2 52 3s4 21-6 23c-19 2-48-4-68-4Zm7 10c10-4 20 0 30 0h74c15 0 34-7 29 19-3 15-32 8-42 8-24 1-56 4-80 0-17-2-10-14-11-27Zm179-42c-2 3-29 2-31-2-1-1 2-21 1-25 8-2 23-6 29 0 2 3 4 23 1 27Zm4-90Zm0 124Zm-2-607c-3 3-26 2-27 0l1-6c0-5-4-17 2-21 3-2 20-3 24 0 5 5 4 22 0 27Zm2-31Zm-28 1Zm-3 4h-1 1Zm-133-1Zm55 4 29-3 37-1c11-1 5 25-3 27a484 484 0 0 1-119-4c-3-3-5-15-2-18 8-6 46-1 58-1Zm-59-3Zm-126-6Zm-14 7c2-2 7-2 9-3 34-2 61 1 94 4 13 1 31-6 26 15-1 6-7 8-13 9a680 680 0 0 1-112-4c-2-2-5-18-4-21Zm-10-10Zm-133 8c10-7 60-5 75-5l27-2 33 3c0 7 2 21-3 25-8 7-50 0-62-1-16 0-56 6-67 0-7-4-8-17-3-20Zm-5 1-1 5 1-5Zm-7-7Zm-28-1c17 0 29-3 26 19-1 9-10 8-17 10h-103c-5 0-9-13-9-17 0-6 5-8 10-9 29-4 64 1 93-3Zm-91-1Zm-128 4 11 2c24 0 56-4 78-2 5 1 19 5 20 11 1 3 1 8-2 10-9 6-44 3-57 4l-45 6c-12 1-11-29-5-31Zm4 178c-12 0-14 6-14 13 0-7 2-13 14-13Zm-18 514 1 5-1-5Zm43 12c-2 3-8 4-11 4l-19-2-6-4-4-26c1-4 5-5 8-5 6-1 32 1 35 5 2 3 0 26-3 28Zm25 2c-3-2-10-3-12-5-4-6-3-27 7-29l114 2c11 2 15 7 16 18 1 18-4 18-20 19-33 2-72-7-105-5Zm224 6h-45 45Zm59-3c-5 0-17-1-19-6l-2-17c1-6 5-8 10-9 7-1 12 2 17 1l52-1c11 0 45-2 52 3 5 4 5 26 2 28-4 4-35 0-43-1-22 0-48 4-69 2Zm256 0-9 2c-37 3-79-2-118 0-14-3-10-21-10-31h44c27-1 57-5 84-1l9 3v27Zm3 0h-1 1Zm48 7Zm-44-10c-5-33 15-27 39-28h21c9 0 41-1 45 3 3 2 5 24 1 28-7 7-36 2-46 2-8 0-59 1-60-5Zm112-621Z" />
    <path fill="#856D61"
      d="M429 1526c-24-2-50-1-75-1-7-1-22-5-28-1-4 3-10 20-5 23 5 4 41 2 50 2 18 1 43 5 60 3 26-2 18-24-2-26Z" />
    <path fill="#6B4538"
      d="M329 1685a739 739 0 0 0 115 0c1-1 10-27-1-26-29 0-58-3-88-2l-29 2c-6 1-8 7-8 13-1 11 1 12 11 13Z" />
    <path fill="#81665F"
      d="M366 1625c-26 0-54 4-80 5-7 0-25-5-30 0-6 6 3 21 12 23 25 5 78 1 104-5 22-5 10-22-6-23Z" />
    <path fill="#8C6757"
      d="M311 1680c1-3 1-19-1-21l-41-3c-14 2-69-4-78 4-4 4-4 19 0 22l13 2c32 3 59 0 90-2 4 0 15 5 17-2Z" />
    <path fill="#906958"
      d="M138 1555c-5 1-17 4-18 9-2 12-1 15 10 18 21 3 54 0 76 0l43-2c2-1 3-13 1-15-4-8-55-8-66-8-15-1-31-3-46-2Z" />
    <path fill="#85624E"
      d="M122 1625c-2 2 0 19 2 22 1 2 15 5 18 6 30 3 61-1 90-5 13-1 22 5 19-14-1-9-4-9-12-10-21-4-57-3-80-4-6 0-34 1-37 5Z" />
    <path fill="#724035"
      d="M122 1690c-3 3-4 20-5 25 43-2 88 3 130-3 3-3 4-16 1-19-3-2-35-6-41-6-17-1-34 3-51 3-7 0-30-4-34 0Z" />
    <path fill="#82533F"
      d="M189 1541c1 11 13 7 20 8 26 4 41 0 66 0 14 0 27 3 41 2 1-4-2-7-3-10-1-6 3-12-7-13-17-3-41 0-59 0-11-1-46-8-54 0l-4 13Z" />
    <path fill="#906658"
      d="M192 1608c0 2 4 4 6 5 12 6 50 2 66 3 9 0 39 6 44 4 5-3 5-21 0-25-2-2-18-5-22-5-17-2-44-3-60-2l-33 6c-1 1-2 13-1 14Z" />
    <path fill="#6C4943"
      d="M306 1719c22 0 46 2 68-1 10-2 9-18 5-21-3-3-29-7-34-7-20-1-38 0-58 2-6 0-26-2-29 1-2 2-5 22-4 25 2 8 45 2 52 1Z" />
    <path fill="#724035"
      d="M218 1497c-26-2-60-7-85-5-2 0-8 2-10 4-6 7 3 21 13 19h108c7 0 9-13 6-17-2-3-26-1-32-1Z" />
    <path fill="#695049"
      d="M442 1596c-10-7-46-7-59-7l-23 4c-9 0-42-2-44 10-2 11 6 15 16 16 13 1 31-3 43-3 11-1 68 4 72-1 5-4 0-16-5-19Z" />
    <path fill="#5F3E2F"
      d="M494 1585c32 1 35-23 5-26-11-2-26 0-38 0-20 1-40 5-60 1-13 2-13 19-3 23 12 5 20 2 32 2h64Z" />
    <path fill="#6E4D44"
      d="m271 1556-11 3c-3 4-4 16-1 19 5 4 49 4 58 4l24-3c9-1 34 4 39 0 17-12-11-20-20-22-20-3-70-4-89-1Z" />
    <path fill="#7B5141"
      d="M377 1495c-12-2-33 1-46 0-11 0-19-3-31-2-8 0-32 2-38 4-13 6-2 23 9 24 20 1 45-6 66-7 14-1 27 2 40 1 10-3 11-18 0-20Z" />
    <path fill="#3D3236"
      d="M238 1481c18 0 36-2 54-1 6 0 18 5 19-4 3-16-4-19-18-21a484 484 0 0 0-103 3c-3 3-6 17-1 20 4 2 41 3 49 3Z" />
    <path fill="#825744"
      d="M413 1457h-68c-9 0-25-5-27 8-3 16 9 18 22 19 18 2 38-1 56 0l50-3c11-29-14-24-33-24Z" />
    <path fill="#93776C"
      d="M64 1481c16 4 44-1 61-1 18-1 35 1 52 1 2-12 0-24-15-26-29-4-66 3-97 0-12 2-17 22-1 26Z" />
    <path fill="#7B5957"
      d="M71 1619c17 1 33-1 50-2l54-1c6-1 16-16 11-21-4-4-45-2-53-2l-51-3c-17-2-34-5-32 17 1 11 12 11 21 12Z" />
    <path fill="#836861"
      d="m116 1684 63-2c2-2 1-17-1-19-4-4-38-3-45-4-20-1-54-7-72-1-8 3-8 23-4 26 6 3 40 2 48 1l11-1Z" />
    <path fill="#6B4538"
      d="M59 1727c-2 3-4 25-3 26l115-3c6-2 5-20 4-23s-5-4-8-5a400 400 0 0 0-46-1c-20 0-41 0-51 2-3 0-10 2-11 4Z" />
    <path fill="#7E513E"
      d="M99 1716c9-1 16 0 16-10 0-5 0-13-5-14l-57 1H31c-6 0-23-2-24 4-2 12 1 18 13 19 19 3 60 3 79 0Z" />
    <path fill="#724035" d="M55 1724c-2-2-45-5-48-2-4 3 0 26 0 31h39c9 0 7-23 9-29Z" />
    <path fill="#824D3B"
      d="M100 1558c-11-4-39-4-52-4l-29 1c-9 1-9 5-10 12-1 6-2 14 4 16l92 2c13-6 5-23-5-27Z" />
    <path fill="#654A3F"
      d="M15 1485c7 5 27-1 35-1-3-7 3-20-4-24-6-4-9 0-14 0-4-1-18-5-21-1s0 24 4 26Z" />
    <path fill="#684239"
      d="M17 1447c15-1 29-5 43-6 12-1 46 3 54-3 3-2 3-7 3-10-1-5-15-9-20-10-21-2-51 2-74 1l-10-1c-6 2-8 30 4 29Z" />
    <path fill="#7A6E70"
      d="m131 1443 99-1c7-2 15-1 17-9 2-21-10-18-26-18-27 4-60-1-88 3-5 1-10 2-10 8 0 4 4 16 8 17Z" />
    <path fill="#5C3B32"
      d="M262 1440c11 6 50 1 64 1 12 0 52 7 60 1 5-5 2-17 2-24l-31-3c-8-1-18 1-26 1-14 1-61-2-71 5-5 3-4 16 2 19Z" />
    <path fill="#795F5E" d="M50 1546c3-2 2-18-1-21-4-3-35-5-38-1-2 3-2 20 2 22 3 3 34 2 37 0Z" />
    <path fill="#784D3C"
      d="M19 1515c31 1 62 0 94-3 10-8 0-15-10-17l-40-1c-8-1-45-2-50 0-6 2-3 20 6 21Z" />
    <path fill="#895442" d="M44 1616c1-5 6-20 2-23-2-1-33-3-36-1-6 3-5 18-3 24h37Z" />
    <path fill="#875D51"
      d="m94 1650 18-4c1-1 3-19 1-21-2-3-23-1-28-1-19-2-42-6-60-5-23 1-20 8-18 28 2 3 77 4 87 3Z" />
    <path fill="#5D3C33" d="M48 1685c3-2 4-21 2-24-6-7-34-5-43-4-3 2-4 21-3 24 2 7 38 8 44 4Z" />
    <path fill="#785A50"
      d="M162 1549c7 0 14-2 21-1 9-37-17-21-36-21-3 1-6-1-9-1H62c-7 1-10 14-6 18l20 5c23 3 62 2 86 0Z" />
    <path fill="#B7B29D"
      d="M695 1431v-22H-1v696h696v-667a30 30 0 0 0 0-5v-2Zm-9 595c-27-2-55 4-82 1-20-2-13-7-13-23l96-2c-1 4 2 23-1 24Zm0 30c-1 4-3 7-7 6l-19-1c-11-1-11-8-12-18 0-8 3-9 11-11 4-1 22-1 24 3l3 21Zm-294-6c2-15-4-18 5-18 33-1 66-2 99 1 4 1 10 1 11 5 3 3 3 13 0 17l-7 3c-16 5-47 1-64 0-14 0-21 1-33-1-10-2-7-5-6-13l-5 6Zm-9 11Zm-18-1H251c-2-1 0-28 2-29l13-1 63 3c11 1 27-3 37 1 10 5 6 26-1 26Zm-281-10c-26 3-54 9-80 3-1-4 3-25 5-27s20-5 23-5c15 0 53 0 67 3l8 5c2 4 0 20-5 21-5 2-13 0-18 0Zm5 4ZM1 1869c-2-20 37-15 42-4 2 3 4 16 2 18-1 2-35 5-39 2l-5-16Zm4-249Zm0-154Zm6-7c3-4 17 0 21 1 5 0 8-4 14 0 7 4 1 17 4 24-8 0-28 6-35 1-4-2-7-22-4-26Zm35-4 3 2-3-2Zm17 39 40 1c10 2 20 9 10 17-32 3-63 4-94 3-9-1-12-19-6-21 5-2 42-1 50 0Zm-12-36Zm111-3c15 2 17 14 15 26-17 0-34-2-52-1-17 0-46 5-61 1-16-4-11-24 1-26 31 3 68-4 97 0Zm2-3Zm66 1c19-1 45 0 63 2 14 2 21 5 18 21-1 9-13 4-19 4-18-1-36 1-54 1-8 0-45-1-49-3-5-3-2-17 1-20l40-5Zm24-20 1 2-1-2Zm11 13Zm38 7Zm110 4c19 0 44-5 33 24l-50 3c-18-1-38 2-56 0-13-1-25-3-22-19 2-13 18-8 27-8h68Zm25-5Zm41 5a528 528 0 0 1 107 3c3 2 4 19-1 21-8 5-45 0-58 0-19 0-38 4-57 2-8-1-14-2-15-10 0-15 12-16 24-16Zm-12-2h1-1Zm144 2Zm-8 4c18-4 41 0 60-5 4 0 19 0 22 2 2 2 9 26 1 28-25-2-55 3-80 0-18-2-12-22-3-25Zm85 57c-2 3-27 4-31 2-5-3-7-18-4-23 2-2 29-4 32-3 6 3 6 20 3 24Zm-4 444Zm-99 48Zm-1 13Zm-25-25-12-2c-6 0-22 3-25-1-1-1 1-4 1-6 0-3 0-21 3-22 4-1 9 1 13 1l37-3c10 0 65 0 69 4 2 2 6 22 1 24-29 4-58 6-87 5Zm-102-37c-4-1-9-1-10-6-1-9 0-19 11-20a655 655 0 0 1 121 4l1 19-58 1c-21 1-43 4-65 2Zm-38 31c-9-1-17-3-26-2-9-2 3-13 3-20 16 1 24-3 40-3 12-1 70-1 76 5 2 2 4 8 3 11 0 6-8 7-13 7-22 2-60 3-83 2Zm29 8Zm-74-39h-35c-6 0-25 5-27-3l-1-18c2-10 18-4 24-4h51c9 0 53-2 56 3l1 17c-5 7-59 4-69 5Zm1 27c-26 5-83 9-109 5-16-2-13-17-6-27l99 1c12 3 27-3 23 16 0 4-3 5-7 5Zm-248-1c-15-2-13-21-8-23s43-1 51 0c14 0 56 2 68 6 5 2 10 7 5 12l-11 3c-31 4-75 6-105 2Zm49 10Zm-68-9H4c1-16-5-21 14-27 14-4 39 1 55 1 6 1 35-1 37 2 3 3 2 23-2 24Zm-65 30c-7-2-34 3-38 1-2-2-2-21 0-23 3-4 30-3 34 0 5 2 3 17 4 22Zm-37-90c2-1 30 0 33 2 4 3 1 17 2 23-11 2-22 4-34 3-2-5-5-25-1-28Zm54-34 24 3c6 1 23 0 28 4 4 3 0 17-9 18-26 4-62-3-89 0-11 3-9-19-7-21 4-5 45-4 53-4Zm-31-41c-4-1-21-3-23-5-2-3-3-20 0-20l105 1c0 1 0 13-2 15a223 223 0 0 1-80 9ZM7 1647c-2-20-5-27 18-28 18-1 41 3 60 5 5 0 26-2 28 1 2 2 0 20-1 21l-18 4c-10 1-85 0-87-3Zm69-98-20-5c-4-4-1-17 6-18h76c3 0 6 2 9 1 19 0 45-16 36 21-7-1-14 1-21 1-24 2-63 3-86 0Zm-12 3Zm-7-5Zm-46-23c3-4 34-2 38 1 3 3 4 19 1 21s-34 3-37 0c-4-2-4-19-2-22Zm-3-15Zm-1-9Zm211-3c6 0 30-2 32 1 3 4 1 17-6 17H136c-10 2-19-12-13-19 2-2 8-4 10-4 25-2 59 3 85 5Zm27-3Zm5 2h1-1Zm56 32c10 1 6 7 7 13 1 3 4 6 3 10-14 1-27-2-41-2-25 0-40 4-66 0-7-1-19 3-20-8l4-13c8-8 43-1 54 0 18 0 42-3 59 0Zm-44-31c6-2 30-4 38-4 12-1 20 2 31 2 13 1 34-2 46 0 11 2 10 17 0 20-13 1-26-2-40-1-21 1-46 8-66 7-11-1-22-18-9-24Zm73-5Zm228 5 29-3c19-1 38-1 56 3 1 6 1 13-2 18-5 10-12 5-20 5-20 0-80 6-94-2-5-4-11-13-6-19 6-6 28-2 37-2Zm125 91h-25c-10 0-17-24-6-26 4-1 23-1 26 1 6 4 8 19 5 25Zm0 42c2 26-10 22-30 20 0-10-10-20 5-22 4 0 24 0 25 2Zm-13 261c-16 2-65 4-79 1-2-1-7-3-8-5l7-19c2-3 13-5 17-6 16-2 30 1 45 1 14 0 28-8 28 14 0 8-1 13-10 14Zm-102 29-10 2c-6 0-38 1-40-1-2-1-4-22 4-22h77c6 0 11 2 17 1 10 0 19-3 29 1-1 7 3 21-7 22-23 3-47-2-70-3Zm16 10Zm-16-6Zm5 12Zm-168-17c-12 0-21 10-14-13 2-9 18-5 26-6l47-4h45c3 3 0 18-1 21-3 9-7 4-14 3l-89-1Zm-37 3c-37 8-76 4-113 2-8-2-10-17-7-22 4-5 47-3 56-3l53-3c25-1 12 10 11 26Zm-150 72h4-4Zm25-35c-7 0-16-2-22-1-11 0-41 7-49 2-4-2-7-26 1-28 33 3 66 3 99 2 19 0 34-8 27 22-18 6-37 0-56 3Zm-34 5c-1 0-2 0-1-1-1 1 0 1 1 1Zm-89-44c-3-1-3-15-2-19 1-5 13-6 18-7 30-2 64 2 95 0 11-2 8 27 6 28l-117-2Zm41 10Zm-108-44c-17-3-7-21 3-25 6-3 18-3 24-3 19-2 36 0 54 1 10 0 22-2 32 0 11 2 13 17 3 23-8 5-16 1-26 1l-90 3Zm-49-68c-4-2-5-22-1-24 3-3 30-3 34-1 6 3 7 19 3 22-3 2-34 5-36 3Zm0-100-1 1 1-1Zm-2 35c0-5-4-28 0-31 3-3 46 0 48 2-2 6 0 29-9 29H7Zm12 7c21-2 46 0 68 1 18 1 34-7 23 20l-100 7c-5-15-11-26 9-28Zm38-76c-4-3-4-23 4-26 18-6 52 0 72 1 7 1 41 0 45 4 2 2 3 17 1 19l-63 2-11 1c-8 1-42 2-48-1Zm73-102c-11-3-12-6-10-18 1-5 13-8 18-9 15-1 31 1 46 2 11 0 62 0 66 8 2 2 1 14-1 15l-43 2c-22 0-55 3-76 0Zm-14-9 1-7-1 7Zm264 6c-5 4-30-1-39 0l-24 3c-9 0-53 0-58-4-3-3-2-15 1-19l11-3c19-3 69-2 89 1 9 2 37 10 20 22Zm81-20c12 0 27-2 38 0 30 3 27 27-5 26h-64c-12 0-20 3-32-2-10-4-10-21 3-23 20 4 40 0 60-1Zm-17-5Zm70 3Zm23 6a370 370 0 0 1 108-1l3 13c1 8-2 9-9 11-18 4-86 2-105-2-9-1-10-10-7-18 1-6 6-3 10-3Zm88-38-1 1 1-1Zm-32 10Zm51 95c5 2 6 14 2 16-3 3-17 2-22 2-25 3-50 6-75 5-5 0-22-2-24-4s1-16 2-16c39-5 78-5 117-3Zm43 33c1 2 0 19-3 21-23 2-47 0-71 0-6 0-15 4-17-4-1-4-2-18 2-19 6-2 25 0 33 0 14-1 35-7 48-3l8 5Zm-3-7Zm5 79v4a68 68 0 0 1 0-4Zm-136 51c-5 0-29-2-29-5 2-8-2-11 6-15 20-10 52-3 73-2 9 1 26-1 33 1 5 1 8 13 8 18-3 4-80 4-91 3Zm100 44 3 18-4 5-31 4c-31 3-61-1-92-3-9-2-9-17-2-21 3-2 16-4 19-4l49 2c9 0 54-7 58-1Zm2-2Zm-138 87Zm-3-22Zm-53-3c-14-2-17-8-11-21 2-6 7-8 14-8 19-1 43 3 61 2 14 0 32-5 45-3 4 1 14 5 16 8 2 4-2 17-8 18-13 3-38 0-53 0-21 1-42 6-64 4Zm-138-2c-9-2-9-17-3-21 7-6 37-9 46-8l30 6c6 0 43 0 45 3v11c-3 16-29 9-41 9h-77Zm-104-1c-5-1-30-3-32-5l-4-15 5-4c14-8 66 1 84 2 17 1 48-7 38 21-30-1-61 2-91 1Zm29 24c0-4 1-8 3-10-2 2-3 6-3 10Zm12-15Zm-140-50v-14l22-3c35-4 71 0 106-1 0 5-3 19-8 20-24 4-52 0-76 1-6 3-41 1-44-3Zm17 7-1-1a139 139 0 0 1 1 1Zm-80-35c-8 1-6-19-3-21 2-2 24-5 28-5 24-2 51 1 76 0 4 0 17-4 19 1 2 6 1 24-7 25-9 2-30 1-40 0l-12-1-61 1Zm60-103c1-5 2-22 5-25 4-4 27 0 34 0 17 0 34-4 51-3 6 0 38 4 41 7 3 2 2 15-1 18-42 6-87 1-130 3Zm47 5Zm17-57Zm17-50c-2-1-6-3-6-5-1-1 0-13 1-14l33-6c16-1 43 0 60 2 4 0 20 3 22 5 5 4 5 22 0 25-5 2-35-4-44-4-16-1-54 3-66-3Zm85-26a138 138 0 0 1 23 4 77 77 0 0 0-23-4Zm159 9c5 3 10 15 5 19-4 5-61 0-72 1-12 0-30 4-43 3-10-1-18-5-16-16 2-12 35-10 44-10l23-4c13 0 49 0 59 7Zm54-3-15 1 15-1Zm7 36 14 4c2 2 3 12-1 14l-21-3c-28 0-60 10-87 9-3 0-8-4-9-5-4-2-5-10 0-12 37-6 67-11 104-7Zm-45-12 6 3-6-3Zm43 7 12 5-12-5Zm13 5 2 1-2-1Zm6 3Zm0 2h1-1Zm71 29c-2-2-4-4-4-6 0 2 2 4 4 6Zm60 45c1 19-26 9-37 13-23-2-45 0-67 0l-18-2c-9-2-6-19 1-22l11-2c20-2 43-3 64-3 15 0 46-6 46 16Zm19 16Zm-82 0h3-3Zm-8 29c-14 2-34-3-50-3l-57 2c-13 1-22 10-22-10 0-8 6-10 13-12 27-4 87-3 116-1l9 1c-1 9 2 23-9 23Zm-27 39 33 2c2 1 3 11 3 14-1 18-12 11-25 10h-73c-7 1-29 5-34 1-5-3-2-17-2-22h27c24-1 48-5 71-5Zm33 30 3-1-3 1Zm-67 13Zm-14 17Zm-77 1c-12-4-18-1-29-5-6-2-3-7 0-11 24-4 38-7 63-6l11 1c9 1 34-1 40 1 3 1 4 12 2 14-4 5-76 5-87 6Zm16 16-2-4 2 4Zm-11-6Zm-104-43c-20-2-17-22 2-25l46-3c10 0 66-1 70 5 2 3 0 15-3 18a525 525 0 0 1-115 5Zm-40 2c-26 1-65 4-91 3-20-1-23-12-14-28 41-7 84-8 126-1 7 23 0 24-21 26Zm-99-70c-12-2-13-19-4-26l118 4c4 2 8 24-3 22-36-1-74 5-111 0Zm32 4Zm-39-37 1 1-1-1Zm104-27c20-2 38-3 58-2 5 0 31 4 34 7 4 3 5 19-5 21-22 3-46 1-68 1-7 1-50 7-52-1-1-3 2-23 4-25 3-3 23-1 29-1Zm11-66Zm-12 4c26-1 54-5 80-5 16 1 28 18 6 23-26 6-79 10-104 5-9-2-18-17-12-23 5-5 23 0 30 0Zm42-9Zm30 0 5-1-5 1Zm39 6-8 2 8-2Zm-10 27Zm-12-4Zm-57 22c0-6 2-12 8-13l29-2c30-1 59 2 89 2 10-1 1 25 0 26l-25 4c-26 1-64-1-90-4-10-1-12-2-11-13Zm200 26c4 5 1 20-5 21H406c-17-2-19-17-6-22 17-6 70-2 92-2 7 0 20-4 26 3Zm-13-9c2 3 7 3 11 5-4-2-9-2-11-5Zm17 10 2-1-2 1Zm-1 19h-1 1Zm-8 46c7 2 3 15 4 20-10-2-22 3-33 4-28 1-57-5-85-4-16-3-7-15 13-18 15-3 26-4 42-5 20 0 39 4 59 3Zm-49-6 27 3-27-3Zm25 35h-2 2Zm-35 30Zm-62 8c-3 0-4 1-5 2 1-1 2-2 5-2Zm56-38 2 4-2-4Zm-188-27c21-3 44-3 66-3 14 0 29-2 43 0 17 1 10 12 11 17l-2 1c-14 0-29 4-43 5l-23-2c-12 0-51 4-58-1-6-4-3-16 6-17Zm-7-1c2-2 8-3 14-4-6 1-12 2-14 4Zm55-34c0-2-1-3-2-3 1 0 2 1 2 3l1 2-1-2Zm8 2c2-4 25-6 30-6 31-2 63 2 93 3 15 33-13 25-34 26h-42c-9 0-45 2-50 0-1-1-3-2-3-4l6-19Zm60-41 8-1-8 1Zm7 75Zm67-106c0 2 0 3 2 3-2 0-2-1-2-3Zm4 0v2-2Zm-17-8h-1 1Zm-160 73Zm-1-1Zm-28-37Zm-12 29Zm-31-1 31 1-31-1Zm13 7h-17 17Zm303 49Zm1-4Zm18-44Zm58-1 27-2-27 2Zm-18-33h12-12Zm2-2Zm8-8c-2 8-22 2-27 2l-42 3c-17 1-42 4-57 2s-11-23-6-25h24c22-1 44-4 66-4 19 0 47-7 42 22Zm-321-24 41 3c2 2 2 18 1 21-2 7-13 2-17 2-31 2-58 5-90 2l-13-2c-4-3-4-18 0-22 9-8 64-2 78-4Zm-78 104 38 1c10 1 20 6 16 18-1 3-16 5-19 5-24 2-48 0-71-1-7 0-38 2-39-4-1-1 1-7 2-8 4-10 35-6 44-7 9 0 19-4 29-4Zm-37 26 4 2-4-2Zm-34-22 7-2-7 2Zm25-3h9-9Zm25-8Zm-85 5Zm61 31c-13 1-26 0-39-1 13 1 26 2 39 1Zm117 65-10-2v-19l7-2c22-2 43 0 65-1 9 0 50-5 56 1 2 3 1 13 0 16-1 2-4 2-6 2-30 6-81 7-112 5Zm101-1Zm13 38h-3 3Zm64 5Zm129-4Zm-46 4Zm126-129c1-2 32-5 34-4 2 2 3 18 1 21-2 2-29 3-34 2-1-1-3-17-1-19Zm33-10-87-2c1-7-6-22 2-24l87-4c4 3 0 29-2 30Zm4-38c-8-1-22 3-29 2l-4-1c-2-3-2-21 0-23 3-2 27-6 29-4s7 24 4 26Zm-16-30Zm13-1Zm-33-50Zm-3-9Zm-101-4Zm18 0Zm-13-31c8 1 33 4 35 13l-2 10c-3 2-27 5-32 5l-35-3c-15 0-29 2-45 0-9-2-20-3-19-13 0-13 17-8 27-9 26-2 44-6 71-3Zm-162-31 5-4-5 4Zm-138 19 3-5-3 5Zm-63 24v-1 1Zm50 18c8 1 11 1 12 10 3 19-6 13-19 14-29 4-60 8-90 5-3-1-17-4-18-6-2-3-4-20-2-22 3-4 31-5 37-5 23 1 59 0 80 4Zm-109 29Zm-26 1c0-2 1-3 4-3-3 0-4 1-4 3Zm17 67Zm0 0a82 82 0 0 0 11 0l19-1-19 1 35 1c3 1 7 2 8 5s2 21-4 23l-115 3c-1-1 1-23 3-26 1-2 8-4 11-4 10-2 31-2 51-2Zm-71 104Zm49-5Zm14 8-2-1 2 1Zm108 96Zm53 8Zm103-18-1 2 1-2Zm-4-21c4 4 6 5 9 5-3 0-5-1-9-5Zm148 31h1-1Zm161-65Zm5-30v23c0 4-21 5-24 2s-2-22 0-23c5-4 18-4 24-2Zm-87-9c-6-1-8-11-7-16 3-7 11-7 18-9a341 341 0 0 1 77-1c1 7 1 24-8 26h-80Zm89-153Zm-5-47c-7 5-37-1-47-1l-10 1c-12 0-23 2-34-3 4-7 3-23 13-24 22-4 44 0 66 0 5 2 17 22 12 27Zm1-66c-5 4-15 0-20 0-19 0-42 2-59 0-18-2-12-15-3-25l62-1c6 0 14-4 19 0 6 3 6 21 1 26Zm-154-32-3 1 3-1Zm-7-9Zm32 13c5 0 29 4 32 7 2 2 3 12 1 15a629 629 0 0 1-124 5c-18-2-16-18-3-25 31 1 63-4 94-2Zm-125 26c-17 2-42-2-60-3-9 0-45 2-50-2-5-3 1-20 5-23 6-4 21 0 28 1 25 0 51-1 75 1 21 2 28 24 2 26Zm-101-32v-2 2Zm-23 5c-3-1-8 0-13 1 5-1 10-2 13-1Zm-174 68c8 0 49-2 53 2 5 5-5 20-11 21l-54 1c-17 1-33 3-50 2-9-1-20-1-21-12-2-22 15-19 32-17l51 3Zm-90 60Zm6 5Zm4 35 57-1c5 1 5 9 5 14 0 10-7 9-16 10-19 3-60 3-79 0-12-1-15-7-13-19 1-6 18-4 24-4h22Zm-49 14Zm104 220h-5 5Zm-27 0h-6 6Zm-49-3c6 1 12 4 12 9 0-5-6-8-12-9Zm15 9c0 2-1 4-3 5 2-1 3-3 3-5Zm16-7Zm-45-1Zm70 31c-10 0-42 4-42-10l5-14c3-3 24-2 29-2 22-1 46-2 68 0 20 1 19 5 19 24l-23 4-56-2Zm92 65Zm52-18 14-2 54 2c7 0 9 16 5 19-6 5-30 1-38 1-21-1-42 3-63 1-7 0-22-1-24-9-6-27 38-12 52-12Zm73-1Zm78-8Zm266-21v-3 3Zm-3 23c3 0 5-2 5-5 0 3-2 5-5 5Zm8-31Zm1 34-21 2 21-2Zm-3-37c-12 1-44 2-55 0-12-3-15-28-4-29 14-2 40-1 55 0 4 0 34 4 36 6 2 4-2 17-3 22-10-1-20 1-29 1Zm33-28 2 7-2-7Zm-3-8c-4 3-24 0-27-4s-3-17 1-19c3-2 30-4 31-2 2 3-1 23-5 25Zm5-63Zm-5-39Zm-203-327c14 1 29 0 42 3 0 24-10 17-26 18-32 3-57 4-88 3-10 0-17-6-12-16 2-5 18-12 24-13 20-2 40 3 60 5Zm-122-45Zm-18-6c11 0 29 4 42 2-13 2-31-2-42-2Zm-116 48ZM7 1547Zm7 6c-2 0-4 2-5 4 1-2 3-4 5-4Zm-5 14c1-7 1-11 10-12l29-1c13 0 41 0 52 4 10 4 18 21 5 27l-92-2c-6-2-5-10-4-16Zm39 23Zm-12 0h-2 2Zm10 3c4 3-1 18-2 23H7c-2-6-3-21 3-24 3-2 34 0 36 1Zm-39 64c9-1 37-3 43 4 2 3 1 22-2 24-6 4-42 3-44-4-1-3 0-22 3-24Zm99 400-13-1 13 1Zm-47-37c-5-1-13-2-13-7-1-6 1-18 8-18h17c19-1 33 2 51 3 11 1 45-4 51 0 4 3 5 16 2 20-3 3-38 1-45 1-23 1-48 3-71 1Zm55 7 62 2h40c9 1 30 1 30 11 0 19-13 17-28 18-24 2-63 1-87-1-23-2-24-7-17-30Zm79 36 105 3c11-1 14 20 9 26-5 7-39 2-49 2l-12 1-56-1c-3-2-5-31 3-31Zm122-36c-3-5-4-21 0-25 3-3 23-1 30-1 25-2 50-6 75-3l19 5c3 3-1 13 0 15 0 4 7 6-3 8-18 2-38-1-56 0l-65 1Zm194-1c-15-2-30 2-44 1-10-1-15 0-16-11-2-17 5-17 21-18 18-1 41 5 60 6 9 1 45-2 50 3s3 21-7 22c-18 2-46-4-64-3Zm7 9c9-4 19 0 28 0h71c14 0 32-7 27 18-3 15-30 8-39 8-24 1-54 3-77 0-16-2-10-14-10-26Zm171-41c-3 4-28 2-30-1-1-1 2-20 1-24 7-2 21-6 27 0 3 3 4 22 2 25Zm3-85Zm1 118Zm-3-580c-3 3-24 2-26 0l2-5c0-5-4-17 1-20 3-2 20-4 23-1 5 5 4 22 0 26Zm3-29Zm-28 0Zm-2 4h-1 1Zm-128-1Zm53 5c8 0 19-3 28-4l36-1c10-1 4 25-4 26a462 462 0 0 1-114-4c-2-2-5-14-1-17 7-5 44 0 55 0Zm-56-4Zm-120-6Zm-14 7 9-2c32-3 58 0 90 3 12 1 29-6 25 14-2 7-7 9-13 9a650 650 0 0 1-107-3c-2-2-5-18-4-21Zm-10-9Zm-126 7c10-7 57-4 71-5 8 0 18-2 26-1l31 3c0 7 3 19-2 24-8 6-48-1-60-1-14 0-53 5-64-1-6-3-7-16-2-19Zm-5 1-1 5 1-5Zm-7-6Zm-27-1c16 0 28-3 26 18-2 8-10 7-17 9l-99 1c-4-1-8-13-8-17 0-6 5-7 10-8 28-4 61 1 88-3Zm-87-1Zm-121 4 10 1c23 1 53-3 74-1 5 1 19 5 20 10 0 3 0 8-3 10-8 6-42 2-54 3-14 1-28 5-43 6-12 1-11-27-4-29Zm3 170c-11 0-13 5-13 12 0-7 2-12 13-12Zm-17 491 1 5-1-5Zm41 12c-2 2-7 3-11 3l-18-2c-2-1-5-2-6-4l-3-24c1-4 4-5 8-5 5-1 30 1 33 4 2 3 0 25-3 28Zm24 1c-3-2-10-2-11-4-4-6-4-26 6-28l109 2c11 2 14 7 15 17 2 17-4 17-19 18-31 2-68-6-100-5Zm214 6h-43 43Zm56-3c-5 0-16-1-18-5 0-2-2-15-1-17 0-5 3-7 8-8 8-2 12 1 17 1l49-2c11 0 43-2 50 3 5 4 5 26 2 28-4 3-33-1-41-1-21-1-45 3-66 1Zm245 0-9 2c-36 3-76-2-112 0-14-2-10-20-11-30l43 1c26-1 54-6 80-2 2 0 9 2 9 4v25Zm2 0v1-1Zm46 7Zm-42-9c-5-32 14-27 38-27h20c8 0 38-2 42 2 3 3 5 24 2 27-7 7-35 2-44 2-8 0-57 1-58-4Zm107-594Z" />
    <path fill="#485860" d="M0 0h390v1721H0z" opacity=".5" />
  </g>
  <defs>
    <clipPath id="a">
      <path fill="#fff" d="M0 0h390v1721H0z" />
    </clipPath>
  </defs>
</svg>