<svg xmlns="http://www.w3.org/2000/svg" width="1728" height="1727" fill="none">
  <g clip-path="url(#a)">
    <path fill="#7E5247"
      d="M1399 678c14 0 63 14 67-6 13-72-56-55-104-54-55 1-108 7-162 10-16 1-50-3-61 1-11 3-21 56 14 61 39 4 101-3 142-4 33-1 72-8 104-8Z" />
    <path fill="#6F4132"
      d="M1607 589c8-7 7-37-5-41-98-5-194-6-291 7-4 1-11 36-5 41 4 5 48 9 58 9 63 4 126-5 188-11 13-2 46 2 55-5Z" />
    <path fill="#7F574F"
      d="M1252 545c-92-9-186-7-278 7-12 5-8 42 1 47 3 2 34 6 40 6 67 3 147-23 215-23 12 0 47 9 53 7 10-2 8-27 2-33-2-2-28-10-33-11Z" />
    <path fill="#715353"
      d="M996 766c30 4 76 3 107 4 58 2 116-1 173 0 15-3 21-42 12-53-15-18-47-8-65-8-54 0-186-10-229 5-32 12-41 47 2 52Z" />
    <path fill="#856D61"
      d="M1068 291c-60-5-125-3-187-4-17-1-55-11-69-1-10 7-24 50-13 57 13 9 102 4 124 5 45 2 106 12 150 8 64-7 45-62-5-65Z" />
    <path fill="#563E3A"
      d="M1458 492c-3-23-66-30-86-33-67-7-112 2-176 8-24 2-67-11-68 21 0 26 27 29 49 32 40 6 73 0 111 0 27 1 60 9 88 9 11-1 72-8 78-13 4-4 5-18 4-24Z" />
    <path fill="#916A4D"
      d="M394 951c-62 2-127-5-188-1-11 1-66 8-70 13-6 6-11 54 9 53 50-3 99-5 149-4 11 0 21 4 31 4 25 0 78 4 99 0 20-4 22-49 17-63-4-14-36-3-47-2Z" />
    <path fill="#3D3236"
      d="M563 931c9 0 45-6 47-14 11-30-15-41-40-43-26-3-68-4-94-3-25 1-49 9-71 10-24 2-99-8-111 16l-5 21c3 14 82 9 97 9 58 3 119 9 177 4Z" />
    <path fill="#79605C"
      d="M356 1042c-8 1-54 6-56 8-1 2-1 31 2 35 6 9 92 13 107 7 60-3 129 7 188-3 14-3 21-38 21-50-88 2-175-6-262 3Z" />
    <path fill="#6B4538"
      d="M820 686c64 5 159 11 222 8 10-1 59-6 63-9 3-2 24-67-2-64-73 0-145-7-218-5-21 1-54 2-73 5-16 2-20 17-21 32-2 27 4 30 29 33Z" />
    <path fill="#81665F"
      d="M912 536c-66-1-135 9-200 11-16 1-61-11-74 1-15 16 7 52 29 56 64 14 195 3 259-12 55-12 26-53-14-56Z" />
    <path fill="#8C6757"
      d="M775 672c2-7 1-48-4-51l-101-8c-35 5-172-11-194 9-9 9-10 48 0 54 3 2 27 5 33 6 79 8 145-1 222-4 12-1 38 11 44-6Z" />
    <path fill="#906958"
      d="M344 363c-12 2-42 9-44 21-6 31-3 39 25 44 51 10 134 2 188 1 13-1 103-2 109-5 4-3 6-31 2-38-12-19-138-18-165-19-37-1-77-8-115-4Z" />
    <path fill="#85624E"
      d="M304 537c-3 5 2 46 6 53 3 5 37 14 46 15 73 8 149-3 222-11 32-4 54 11 48-37-3-22-10-21-29-24-54-10-142-7-199-8-15-1-86 0-94 12Z" />
    <path fill="#724035"
      d="M306 697c-8 8-9 49-14 62 108-4 219 7 324-8 8-7 9-38 1-45-6-6-85-16-100-17-42-2-86 7-127 8-17 0-74-11-84 0Z" />
    <path fill="#82533F"
      d="M472 327c1 28 31 19 48 21 65 8 103 0 165 0 34 0 68 6 102 4 3-11-6-17-7-25-4-15 6-30-18-33-42-5-101 2-146 0-28-1-115-19-135 1-3 3-9 27-9 32Z" />
    <path fill="#906658"
      d="M478 494c2 4 11 10 15 12 30 15 126 5 166 7 21 1 95 16 109 10 12-7 11-53 0-62-7-6-45-12-56-13-41-3-110-7-149-4-11 1-80 12-82 16l-3 34Z" />
    <path fill="#9A806F"
      d="M771 959a998 998 0 0 0-312 3c-21 39-14 67 35 69 64 3 160-3 226-8 52-3 68-7 51-64Z" />
    <path fill="#6B4538"
      d="M992 931c70-3 142 12 211 8 28-2 57-13 83-8-3-14 8-46-10-50-49 2-96-9-146-7-40 1-102 5-140 12-48 9-37 37 2 45Z" />
    <path fill="#6C4943"
      d="M762 770c54-2 115 4 169-4 24-4 22-43 12-53-6-6-71-15-85-16-48-4-94 1-142 4-15 1-65-4-73 4-5 4-11 55-10 63 5 18 111 2 129 2Z" />
    <path fill="#6F4132"
      d="M1176 851c46-3 96-4 142-4 40-1 89 10 123 7 28-2 22-34 25-57-8-1-16-4-25-4-70-5-220-7-287 4-17 3-33 9-33 28 0 51 23 28 55 26Z" />
    <path fill="#856D61" d="M751 851c26 4 15-51 7-54l-294-11c-23 17-21 60 11 64 90 12 185-2 276 1Z" />
    <path fill="#724035"
      d="M543 218c-63-3-149-17-210-12-6 0-21 5-24 9-17 17 6 53 31 49h269c15-2 22-33 15-43-5-7-67-3-81-3Z" />
    <path fill="#695049"
      d="M1100 463c-25-17-114-17-146-15-18 0-40 6-58 7-23 2-103-3-109 25-6 29 15 40 40 41 31 1 76-7 108-8 26-1 167 9 177-1 11-11 0-40-12-49Z" />
    <path fill="#5F3E2F"
      d="M1230 436c77 3 85-58 12-65-29-3-66 0-95 1-50 2-100 14-150 4-31 3-31 45-8 55 30 13 52 5 80 5h161Z" />
    <path fill="#6E4D44"
      d="M675 364c-7 1-22 5-26 9-8 8-11 40-3 47 11 10 122 10 143 9 19-1 42-8 61-8 22-1 82 11 97 0 40-29-30-49-52-53-49-8-171-12-220-4Z" />
    <path fill="#7B5141"
      d="M938 214c-28-6-82 1-115 0-26-1-45-9-75-7-20 1-80 6-95 12-33 14-6 57 22 59 51 3 112-16 164-18 34-2 66 4 99 3 24-8 29-44 0-49Z" />
    <path fill="#7E513E"
      d="M1192 218c-49-5-99-16-149-11-14 2-67 11-73 23-12 24 18 48 42 49 78 2 139 0 218-8 42-4 66 14 66-46-33-7-71-5-104-8v1Z" />
    <path fill="#5A3B36"
      d="M1464 344c4-6 3-32-3-37-5-6-66-16-77-17-77-5-157 9-234 4-34 19-39 57 7 62 73 7 192 7 265 0 8-1 39-7 42-12Z" />
    <path fill="#735B5B"
      d="M1433 1380c-28 0-63 6-92 7-9 0-22-6-34-3-7 2-5 47-6 56 0 4-4 12-4 13 9 11 49 3 64 4 11 0 20 4 30 4 72 2 143-3 214-12 14-6 5-54-2-60-9-10-147-9-170-9Z" />
    <path fill="#3D3236"
      d="M594 178c44 0 89-4 134-3 15 1 43 14 47-9 8-39-10-48-44-52a795 795 0 0 0-258 8c-7 8-14 42-2 49 10 6 103 7 123 7Z" />
    <path fill="#825744"
      d="M1027 118c-57-2-112-1-169 0-22 0-62-12-67 21-6 39 24 44 56 47 44 5 93-2 138 1l124-8c27-72-34-60-82-61Z" />
    <path fill="#603F38"
      d="M1133 158c0 22 17 23 36 25 46 6 95-4 141-4 32 0 124 11 146-1 10-5 8-46 1-52a1313 1313 0 0 0-266-9c-29 3-60 4-58 41Z" />
    <path fill="#93776C"
      d="M161 178c39 10 110-2 152-3 43 0 86 3 129 4 4-31 1-61-37-65-74-9-165 6-241 0-30 5-41 55-3 64Z" />
    <path fill="#846050"
      d="M1472 210c-23 1-51 7-73 8-22 0-77-10-90 5s1 38 15 46c34 21 183 5 232 6 21 0 38 13 50-11 7-14 7-31 5-46-45-8-93-10-139-8Z" />
    <path fill="#724035"
      d="M923 935c-61 7-121 9-182 8l30 6c15 25 26 2 49 1l159-7c-1-10-32-18-33-19-5-11 19-42-27-47-35-3-72 0-107 1-54 0-111-1-165 7-20 4-30 32-15 42 19 13 116 4 146 4 18 0 36 5 57 4 34-1 71-13 105-11 4 9-11 10-17 11Z" />
    <path fill="#885A4B"
      d="m420 1619-271-4c-24 4-26 54-16 68 3 6 21 7 28 11 79-3 171 17 248 12 39-2 52-2 48-44-2-26-11-37-37-43Z" />
    <path fill="#7B5957"
      d="M179 521c41 3 82-3 123-4 44-2 89-1 134-4 15-3 41-40 28-53-9-8-111-4-132-5-45 0-81-4-126-7-43-3-85-12-79 44 3 26 29 27 52 29Z" />
    <path fill="#836861"
      d="M290 682c52-2 104-2 156-6 7-4 4-42-1-47-10-10-94-7-113-8-48-3-134-18-178-3-20 7-21 56-9 63 13 8 97 5 119 5 9 0 17-4 26-4Z" />
    <path fill="#6B4538"
      d="M148 789c-4 7-10 61-5 65l285-8c14-4 13-49 9-58-2-8-13-10-20-10a996 996 0 0 0-114-4c-50-1-102 1-127 5-7 1-24 5-28 10Z" />
    <path fill="#9D7B71"
      d="M655 1104c77 5 204 3 279-12 5-1 12-1 14-6 4-8 5-32-1-39-14-16-114-2-139-1-53 0-106-5-161 1l-17 4c-3 3 2 38 0 47 1 4 20 6 25 6Z" />
    <path fill="#382F32"
      d="M1157 1534c35 2 72-8 108-4 47-1 116 14 161 8 23-4 28-42 16-53-13-13-101-7-124-9-47-3-103-17-149-15-39 2-56 2-52 44 3 27 14 27 40 29Z" />
    <path fill="#654945"
      d="m901 1209-131 6c-23 1-129-5-138 8-10 13-5 50 15 53 93 7 189 17 280-3 3-39 36-67-26-64Z" />
    <path fill="#5C4849"
      d="M961 1307H835c-17 0-55-15-59 10-2 7-2 40 0 45 7 20 53 6 67 6h88c25 0 159 5 170-11 2-3 1-39-1-42-8-12-117-7-139-8Z" />
    <path fill="#8F5F4B"
      d="M963 1392c3 15-7 45 14 49 22-2 44 4 65 5 57 2 152 1 207-5 12-1 31-3 33-17 1-7-3-22-8-27-16-15-160-14-190-13-40 1-80 10-121 8Z" />
    <path fill="#624642"
      d="M1372 1303c-55-4-182-7-234 1-27 3-29 27-25 51 2 13 15 13 25 14 53 5 109-3 161-4l144-4c-1-7-2-44-4-46s-59-11-67-12Z" />
    <path fill="#6F584A"
      d="M1084 1529c25-3 9-9 7-17-1-7 8-31 2-39-1-3-41-11-47-12-64-8-125 3-188 7-15 1-65-4-73 4-9 10-7 48-1 61 54 1 108-3 162-3 45-1 93 5 138-1Z" />
    <path fill="#82533F"
      d="m893 1384-245-3c-17 24-24 62 15 68 63 9 205-1 271-12 9-1 16-4 18-13 9-48-27-32-59-40Z" />
    <path fill="#5C3F3B"
      d="M759 1521c10-9 6-47-12-49-45 0-90-3-135-4-12 0-22 5-34 5-35-1-143-37-128 31 5 20 41 21 59 22 52 4 105-4 157-4 20 0 79 11 93-1Z" />
    <path fill="#895D50"
      d="M285 1534c-18 55-13 68 44 72 59 5 156 8 215 5 37-3 70 1 69-46 0-25-53-26-73-28-34-3-68 1-100 1-52-2-103-6-155-4Z" />
    <path fill="#5E4038"
      d="M908 1614c18 0 29-52 3-64-24-11-64-1-92-1-49-1-107-5-156-8-11 0-23-1-33 2-5 3-8 68-4 71h282Z" />
    <path fill="#735B59"
      d="M689 1304c-81 1-163 0-244-8-21 6-13 65-3 70 21 12 93-4 121-5 16-1 37 3 54 3 47-8 96 7 141-7 18-75-20-54-69-53Z" />
    <path fill="#7C5747"
      d="M179 1453h-42c-17 1-22 31-21 44 1 14 22 17 32 18 57 5 120 0 177-1 18 0 104 4 112-4s6-42-5-49c-16-11-100 1-127 0-43-3-80-10-126-8Z" />
    <path fill="#5C3F39" d="M1648 544c-37 4-13 30-13 53 51 7 81 17 76-49-4-5-54-5-63-4Z" />
    <path fill="#654339"
      d="M1652 294c-51 1-102 1-153 5-23 22-36 55 8 60 43 5 100 0 145 0 14 1 39 11 51 0 12-12 12-55-1-64-15-11-35-1-50-1Z" />
    <path fill="#504043"
      d="M1598 1629h-49c-59 1-106-12-95 67 4 14 125 10 145 10 23 0 91 13 108-4 8-9 4-61-3-67-11-9-86-6-106-6Z" />
    <path fill="#785A4F"
      d="M1670 457c-55-1-109-10-163-1-25 3-24 42-33 61 28 10 56 7 86 7 7 1 15-4 23-4 24 1 100 17 117 3 14-12-16-61-30-66Z" />
    <path fill="#786652"
      d="M1568 624c-20 2-66-4-80 1-10 3-8 37-6 46 5 21 28 11 43 11 59-1 119 5 176 0 7-4 9-47 6-53l-19-10c-32-12-85 3-120 5Z" />
    <path fill="#3D3236" d="m1481 858 217 4c4-1 15-66 5-72l-215 8c-21 6-3 44-7 60Z" />
    <path fill="#5E4036"
      d="M1627 714c-5 5-6 51-2 56 3 5 7 3 11 4 17 1 53-8 72-6 7-5-4-58-9-62-6-7-66 3-72 8Z" />
    <path fill="#9B8172"
      d="M1357 95c57 8 193 10 249 0 20-4 35-67 9-65-31 3-59 2-89 3-21 1-49 8-69 8-28 0-118-12-137 2-8 6-3 36 4 42 6 5 25 9 33 10Z" />
    <path fill="#483F42" d="M1624 218c-8 12-4 49 9 57 11 6 73 2 77-4 8-10 8-52-6-59-9-5-76 1-80 6Z" />
    <path fill="#41342E"
      d="M1648 118c-46 10-104 1-149 12-21 5-37 56 7 61 62 7 136-5 199-1 19-5 4-62-2-67-7-7-44-6-55-5Z" />
    <path fill="#7A7677"
      d="M1711 94c10-11 11-52 0-63-8-8-50-4-57 0-13 9-4 38-4 50 1 5-4 13-4 14 4 5 57 6 65-1Z" />
    <path fill="#5F4743" d="M1635 1388c3 10-5 58-2 61 6 8 68 12 74 3 5-8 3-57-3-62-15-15-50-5-69-2Z" />
    <path fill="#724639"
      d="M1610 1300c-35-3-101-5-135-1-27 4-21 65 10 72 27 6 105 3 137 2 22-1 46-7 70-5 4-10 13-44 8-53-3-4-79-15-90-15Z" />
    <path fill="#7E5247" d="M1615 888c-4 5 0 46 3 47 12 4 81 1 85-5 5-7 3-46-3-51-6-4-80 3-85 9Z" />
    <path fill="#634B41"
      d="M1696 1282c8-5 16-55 11-63-3-4-68 1-76 6-10 6-9 39-3 47 8 10 58 17 68 10Z" />
    <path fill="#7C5E5C"
      d="m1641 1618 47 3c11 0 16-5 16-16 0-5-4-50-6-52-6-10-49-9-60-7-20 3-27 8-26 28 1 24 3 40 29 44Z" />
    <path fill="#805A4F" d="m1708 1472-238 4c-1 41-17 53 33 58 67 6 135-8 202-4 9-1 1-50 3-58Z" />
    <path fill="#3F3438" d="M1649 1046c-6 4-8 51-2 57 10 8 61 5 61-5v-56c-14-5-48-4-59 4Z" />
    <path fill="#563830"
      d="M1621 950c-30 1-73 4-103 9-15 2-37 4-43 22-4 12 3 36 16 38h199c23-4 22-46 21-64-4-7-77-5-90-5Z" />
    <path fill="#5F3E35"
      d="M1633 1127c-36 0-72-8-110-3-11 1-38 7-43 15-2 2-17 45-17 47 1 5 14 10 19 11 35 10 156 4 197-1 21-3 25-15 25-36-1-54-36-33-71-33Z" />
    <path fill="#634239"
      d="M1545 1219c-16 0-29-4-42-4h-192c-20 0-16 52-10 56 5 4 83 2 98 2 9 0 17-4 27-4 56 1 115 14 172 7 26-3 16-38 17-57-24-10-47 0-70 0Z" />
    <path fill="#683D2C" d="M1698 382c-6-5-55-5-65-3-26 4-11 65 15 65h64c7-16 0-52-14-62Z" />
    <path fill="#734B3F"
      d="M115 1176c3-5-2-38-5-45-13-27-110-39-105 9 0 5 12 40 13 41 10 7 94 1 97-5Z" />
    <path fill="#826E65"
      d="M194 1096c11-1 75-13 79-17 5-5 5-35 4-36l-259-5c-8 2-6 43 0 51 4 5 47 11 57 11 32 2 88 0 119-4Z" />
    <path fill="#745A49" d="M104 1349c-2-14 5-49-5-58-7-5-77-6-82-2-10 6-1 56 3 68 29 3 56-3 84-8Z" />
    <path fill="#805D57"
      d="M37 1265c68-8 157 10 222 0 21-3 31-37 21-45-13-10-54-7-70-9-18-2-40-7-58-7-20-1-123-3-132 8-5 7-10 61 17 53Z" />
    <path fill="#5F403B" d="M276 923c26-68-12-47-59-49-52-3-116-9-168-4-49 5-34 34-23 69l250-16Z" />
    <path fill="#7E513E"
      d="M248 762c22-4 40 1 40-25v-1c0-12 0-33-13-35-47 3-95 4-142 4H79c-15 0-56-6-59 9-6 29 3 45 32 48 48 6 150 8 196 0Z" />
    <path fill="#724035" d="M139 782c-5-6-112-12-119-6-11 7 0 64 0 78h98c22 0 15-58 21-72Z" />
    <path fill="#936F63"
      d="M30 1694c8 2 37 5 46 5 7 0 21-3 26-8 6-7 12-61 6-68-7-9-68-14-81-12-9 2-17 3-19 13-1 6 5 58 8 61 2 4 10 8 14 9Z" />
    <path fill="#A98B80" d="M108 1511c-1-13 5-49-8-56-11-7-78-10-86 2-4 5-4 52 2 56 9 6 75-8 92-2Z" />
    <path fill="#805E5C"
      d="M12 1437h258c10-4 12-53 6-60-7-8-78-4-93-4-39-2-100-13-136-3-47 14-32 27-35 67Z" />
    <path fill="#754A39"
      d="M210 1591c13-1 33 3 45-1 13-3 18-43 13-52 0-1-18-11-21-11-33-8-127-9-164-9-9 0-52 7-57 12-7 6-17 57-14 66 64 16 133 2 198-5Z" />
    <path fill="#824D3B"
      d="M250 369c-27-10-97-9-127-8-22 0-55 0-74 2-21 3-23 11-25 30-2 13-5 34 11 38l228 5c32-14 12-57-13-67Z" />
    <path fill="#654A3F"
      d="M39 189c18 11 67-4 88-2-8-19 8-50-10-61-14-10-22 0-34-1-11 0-47-10-54 0-6 9 0 58 10 64Z" />
    <path fill="#684239"
      d="M45 95c36-3 72-13 107-16 30-2 113 7 134-8 8-5 8-16 6-24-2-13-35-23-48-25-52-6-128 4-184 4-8 0-22-5-26-4-15 4-18 74 11 73Z" />
    <path fill="#7A6E70"
      d="M329 83h245c17-6 38-3 41-24 7-51-23-44-63-44-69 10-151-2-219 7-12 2-25 6-25 20 0 9 9 40 21 41Z" />
    <path fill="#5C3B32"
      d="M653 77c26 16 123 1 159 2 29 1 129 18 148 2 13-11 6-42 7-59-2-3-67-8-78-8-21 0-45 4-65 4-35 1-152-5-177 12-12 8-9 38 6 47Z" />
    <path fill="#795F5E" d="M127 340c6-6 4-45-4-51-9-9-86-14-94-3-4 6-4 48 5 54 9 7 85 6 93 0Z" />
    <path fill="#784D3C"
      d="M49 263c78 2 156-1 233-8 25-19 0-38-23-41-25-3-71-3-99-4-22-1-112-4-126 0-14 5-8 49 15 53Z" />
    <path fill="#895442" d="M112 513c2-11 15-48 4-56-5-3-81-7-89-4-15 8-11 46-7 60h92Z" />
    <path fill="#875D51"
      d="M237 598c6-1 41-7 43-9 4-4 7-48 3-53-5-7-56-3-69-4-47-3-105-14-150-11-57 2-50 19-44 68 6 10 192 10 217 9Z" />
    <path fill="#5D3C33"
      d="M121 685c8-5 11-52 5-60-14-18-84-12-106-11-7 5-10 53-7 61 5 17 94 19 108 10Z" />
    <path fill="#8F6857"
      d="M1042 95c56 4 165 6 219 0 14-2 28-6 32-22 10-50-32-33-63-36-77-6-143-14-222-7-7 0-17 2-22 6-2 7 4 46 9 50 2 3 40 8 47 9Z" />
    <path fill="#63453D" d="M107 953c-10-4-77-5-85 1-9 7-7 55 2 61 7 4 82-2 90-7 11-9 8-48-7-55Z" />
    <path fill="#7B5F53"
      d="M1545 1111c12-1 70-7 77-11 2-1 7-7 8-10s-6-45-8-47c-9-13-121 3-142 3-41 2-84-4-123-3-8 0-40 4-46 8-17 10-17 49 4 53 77 4 152 14 230 7Z" />
    <path fill="#64433C"
      d="M1418 1119c-34-4-77 7-111 8-47 1-106-9-152-7-17 1-29 6-36 22-14 32-8 47 27 50 55 5 108-6 161-8 37-1 97 7 130 0 15-3 25-35 20-46-4-7-30-18-39-19Z" />
    <path fill="#704938"
      d="M1019 1265c73 0 150 2 223 4 16 0 27 13 34-8 2-9 10-47 2-52-6-5-96-1-112 0-39 1-78 7-116 10-21 1-95-7-101 14-18 58 41 32 70 32Z" />
    <path fill="#6C5045"
      d="M1504 702c-51 1-109 2-159 7-6 0-21 2-26 4-19 8-26 50-4 56l46 5c55 1 109-5 165 0 29-11 95 14 94-33-2-54-80-40-116-39Z" />
    <path fill="#754B3F"
      d="M1136 1018c13 9 69-2 86-3h181c31 1 59 20 61-26 1-7-2-32-6-34-4-3-72-5-82-5-59 1-118 9-176 12h-68c-1 12-7 48 4 56Z" />
    <path fill="#81665F"
      d="M1582 882c-17-5-61 1-83-1-52-3-132-19-181 4-19 9-10 19-16 37 2 8 62 13 74 13 26 2 217 2 224-8 1-11-7-42-18-45Z" />
    <path fill="#5B4A40"
      d="M1596 1597c12-61-32-45-67-44h-176c-23-1-48-10-71 0 2 30-13 59 25 65 59 8 133 1 192 0 22-1 90 16 97-21Z" />
    <path fill="#8A5E51"
      d="M1065 1100c28-1 206-1 216-12 5-6 3-35-5-37-15-5-78 0-100-1-9 0-17-4-26-4-62-1-123 1-184 12-7 9-11 29 4 34 29 8 66 0 95 8Z" />
    <path fill="#846050"
      d="M1093 797c-75-3-155-12-231-8-14 1-70 5-75 14-2 3-15 46-15 49 1 3 4 7 7 8 13 6 103 2 125 2 38 0 65 2 103 0 53-2 123 16 86-65Z" />
    <path fill="#663B2B"
      d="M804 1188h192c29 0 94 19 102-21 0-5 1-25-1-28-4-7-97-7-112-8-24-3-50-13-74-15-23-2-96 6-114 19-16 11-15 49 7 53Z" />
    <path fill="#916757"
      d="M221 1357c48 0 93 5 138 4 9 0 58-6 59-8 0-48 1-57-47-61-55-5-115-1-169 0-14 0-67-3-74 5l-12 35c1 35 81 25 105 25Z" />
    <path fill="#8E6A5C"
      d="M317 1434c76 9 184 4 261-4 5-1 25-6 28-9 13-12-1-24-14-28-29-10-132-15-167-17-21-1-114-3-127 1s-18 53 19 57Z" />
    <path fill="#7B6055"
      d="M820 1019a1305 1305 0 0 0 284-12c8-7 13-37 7-45-9-13-149-13-173-12-32 1-83 4-114 8-47 7-53 56-4 61Z" />
    <path fill="#8F6857"
      d="M771 1184c26-71-51-50-93-53-45-3-173-24-208-5-5 3-11 6-12 11-1 3 6 34 8 35 6 6 68 12 81 13 73 3 150-3 224-1Z" />
    <path fill="#865F50"
      d="M352 1204c-13 1-42 3-44 17-2 9-3 44 6 47l288 4c6-3 14-74-13-68-77 4-161-7-237 0Z" />
    <path fill="#674E4A"
      d="M1244 1609c5-1 16-5 18-7 6-8 6-34 0-43-5-7-19-9-28-10-82-8-164-6-246-4-23 1-38-16-43 22-3 20-3 39 21 43 29 5 85-1 119 0 43 1 119 11 159-1Z" />
    <path fill="#604439"
      d="M1418 1630c-64-9-135 1-199 4-35 1-71-2-106-1 1 24-8 68 25 73 91-5 190 7 280 0 8 0 14-2 21-4v-63c0-4-17-9-21-9Z" />
    <path fill="#62483B"
      d="m743 1630-261-8c-21 0-14 73-9 76 47 5 93 4 140 5 9 0 19-5 30-5 25 0 110 13 123-3 12-17 4-68-23-65Z" />
    <path fill="#987E71"
      d="M1092 1633c-17-12-97-7-123-7-40-1-82 2-122 3-14 1-24-6-42-2-12 2-21 7-22 20l5 41c3 12 32 14 43 15 52 3 111-5 165-5 19 1 91 11 102 3 7-5 7-58-6-68Z" />
    <path fill="#885A4B"
      d="M348 1116c-46-2-87-7-133-3-17 1-46 2-61 8-26 11-49 56-9 63l226-7c23-1 43 8 65-5s18-51-9-56c-25-4-55 1-79 0Z" />
    <path fill="#785A50"
      d="M406 348c16-1 33-6 51-4 23-90-42-51-90-50-8 0-15-4-23-4l-188 1c-16 1-24 35-13 44 4 3 40 12 48 13 58 6 155 3 215 0Z" />
    <path fill="#5D3F37"
      d="M1589 438c17-4 24-7 23-26-1-5-6-30-9-32-11-11-125-10-147-9-38 1-83 4-120 10-9 1-22-7-26 8-6 20-5 42 17 46 48 9 218 15 262 3Z" />
    <path fill="#B7B29D"
      d="m1728 55-1-5V0H1v1126l-1 12v1l1 4v486l-1 6v16a201 201 0 0 0 1 11v65h1726V71l1-5V55Zm-23 1475c-67-4-135 10-202 4-50-5-34-17-33-58l238-4c-2 8 6 57-3 58Zm-1 75c0 11-5 16-16 16l-47-3c-26-4-28-20-29-44-1-20 6-25 26-28 11-2 54-3 60 7 2 2 6 47 6 52Zm-759-38c5-38 20-21 43-22 82-2 164-4 246 4 9 1 23 3 28 10 6 9 6 35 0 43-2 2-13 6-18 7-40 12-116 2-159 1-34-1-90 5-119 0-24-4-24-23-21-43Zm7 51Zm-44-4H626c-4-3-1-68 4-71 10-3 22-2 33-2 49 3 107 7 156 8 28 0 68-10 92 1 26 12 15 64-3 64Zm-698-23c-65 7-134 21-198 5-3-9 7-60 14-66 5-5 48-12 57-12 37 0 131 1 164 9 3 0 21 10 21 11 5 9 0 49-13 52-12 4-32 0-45 1Zm13 8ZM5 1140c-5-48 92-36 105-9 3 7 8 40 5 45-3 6-87 12-97 5-1-1-13-36-13-41Zm10-617Zm1-383Zm13-15c7-10 43 0 54 0 12 1 20-9 34 1 18 11 2 42 10 61-21-2-70 13-88 2-10-6-16-55-10-64Zm88-10 7 5-7-5Zm43 95c28 1 74 1 99 4 23 3 48 22 23 41-77 7-155 10-233 8-23-4-29-48-15-53 14-4 104-1 126 0Zm-31-88Zm276-8c38 4 41 34 37 65-43-1-86-4-129-4-42 1-113 13-152 3-38-9-27-59 3-64 76 6 167-9 241 0Zm4-8Zm165 4c47-2 110 0 157 4 34 4 52 13 44 52-4 23-32 10-47 9-45-1-90 3-134 3-20 0-113-1-123-7-12-7-5-41 2-48 4-4 88-12 101-13Zm60-50 1 5-1-5Zm26 32Zm94 18Zm273 8c48 1 109-11 82 61l-124 8c-45-3-94 4-138-1-32-3-62-8-56-47 5-33 45-21 67-21 57-1 112-2 169 0Zm63-12Zm102 12a1313 1313 0 0 1 265 8c7 6 9 47-1 52-22 12-114 1-146 1-46 0-95 10-141 4-19-2-36-3-36-25-2-37 29-38 59-40Zm-31-3h4-4Zm358 4Zm-20 11c45-11 103-2 149-12 11-1 48-2 55 5 6 5 21 62 2 67-63-4-137 8-199 1-44-5-28-56-7-61Zm211 141c-4 6-66 10-77 4-13-8-17-45-9-57 4-5 71-11 80-6 14 7 14 49 6 59Zm-10 1100Zm-245 119Zm-2 32Zm-62-61c-10 0-19-4-30-4-15-1-55 7-64-4 0-1 4-9 4-13 1-9-1-54 6-56 12-3 25 3 34 3 29-1 64-7 92-7 23 0 161-1 170 9 7 6 16 54 2 60-71 9-142 14-214 12Zm-253-92c-10-1-23-1-25-14-4-24-2-48 25-51 52-8 179-5 234-1 8 1 65 10 67 12s3 39 4 46l-144 4c-52 1-108 9-161 4Zm-96 77c-21-1-43-7-65-5-21-4-11-34-14-49 41 2 81-7 121-8 30-1 174-2 190 13 5 5 9 20 8 27-2 14-21 16-33 17-55 6-150 7-207 5Zm72 20Zm-183-98h-88c-14 0-60 14-67-6-2-5-2-38 0-45 4-25 42-10 59-10h126c22 1 131-4 139 8 2 3 3 39 1 42-11 16-145 11-170 11Zm3 69c-66 11-208 21-271 12-39-6-32-44-15-68l245 3c32 8 68-8 59 40-2 9-9 12-18 13Zm-617-3c-36-4-32-53-19-57s106-2 127-1c35 2 138 7 167 17 13 4 27 16 14 28-3 3-23 8-28 9-77 8-185 13-261 4Zm123 25Zm-170-22H12c3-40-12-53 35-67 36-10 97 1 136 3 15 0 86-4 93 4 6 7 4 56-6 60Zm-162 74c-17-6-83 8-92 2-6-4-6-51-2-56 8-12 75-9 86-2 13 7 7 43 8 56Zm-91-222c5-4 75-3 82 2 10 9 3 44 5 58-28 5-55 11-84 8-4-12-13-62-3-68Zm135-85c18 0 40 5 58 7 16 2 57-1 70 9 10 8 0 42-21 45-65 10-154-8-222 0-27 8-22-46-17-53 9-11 112-9 132-8Zm-77-104c-10 0-53-6-57-11-6-8-8-49 0-51l259 5c1 1 1 31-4 36a552 552 0 0 1-198 21ZM20 589c-6-49-13-66 44-68 45-3 103 8 150 11 13 1 64-3 69 4 4 5 1 49-3 53-2 2-37 8-43 9-25 1-211 0-217-9Zm171-241c-8-1-44-10-48-13-11-9-3-43 13-44l188-1c8 0 15 4 23 4 48-1 113-40 90 50-18-2-35 3-51 4-60 3-157 6-215 0Zm-30 7Zm-17-13ZM29 286c8-11 85-6 94 3 8 6 10 45 4 51-8 6-84 7-93 0-9-6-9-48-5-54Zm-7-37Zm-2-24Zm523-7c14 0 76-4 81 3 7 10 0 41-15 43H340c-25 4-48-32-31-49 3-4 18-9 24-9 61-5 147 9 210 12Zm68-8Zm11 5 4 2-4-2Zm140 79c24 3 14 18 18 33 1 8 10 14 7 25-34 2-68-4-102-4-62 0-100 8-165 0-17-2-47 7-48-21 0-5 6-29 9-32 20-20 107-2 135-1 45 2 104-5 146 0Zm-109-75c15-6 75-11 95-12 30-2 49 6 75 7 33 1 87-6 115 0 29 5 24 41 0 50-33 0-65-6-99-4-52 2-113 21-164 18-28-2-55-45-22-59Zm182-13Zm564 12c22-1 50-7 73-8 46-2 94 0 139 8 2 15 2 32-5 46-12 24-29 11-50 11-49-1-198 15-232-6-14-8-28-31-15-46s68-5 90-5Zm313 226h-64c-26 0-41-61-15-65 10-2 59-2 65 3 14 10 21 46 14 62Zm-1 104c5 66-25 56-76 49 0-23-24-49 13-53 9-1 59-1 63 4Zm-32 648c-41 5-162 11-197 1-5-1-18-6-19-11 0-2 15-45 17-47 5-8 32-14 43-15 38-5 74 3 110 3 35 0 70-21 71 33 0 21-4 33-25 36Zm-253 73c-10 0-18 4-27 4-15 0-93 2-98-2-6-4-10-56 10-56h192c13 0 26 4 42 4 23 0 46-10 70 0-1 19 9 54-17 57-57 7-116-6-172-7Zm39 23Zm-40-14Zm11 30Zm-417-43c-29 0-88 26-70-32 6-21 80-13 101-14 38-3 77-9 116-10 16-1 106-5 112 0 8 5 0 43-2 52-7 21-18 8-34 8-73-2-150-4-223-4Zm-92 8c-91 20-187 10-280 3-20-3-25-40-15-53 9-13 115-7 138-8l131-6c62-3 29 25 26 64Zm-371 177Zm61-86c-17 0-38-4-54-3-28 1-100 17-121 5-10-5-18-64 3-70 81 8 163 9 244 8 49-1 87-22 69 53-45 14-94-1-141 7Zm-84 13c-2-1-3-1-3-3 0 2 1 2 3 3Zm-219-109c-9-3-8-38-6-47 2-14 31-16 44-17 76-7 160 4 237 0 27-6 19 65 13 68l-288-4Zm100 25Zm-269-109c-40-7-17-52 9-63 15-6 44-7 61-8 46-4 87 1 133 3 24 1 54-4 79 0 27 5 31 43 9 56s-42 4-65 5l-226 7ZM24 1015c-9-6-11-54-2-61 8-6 75-5 85-1 15 7 18 46 7 55-8 5-83 11-90 7Zm1-248-3 2 3-2Zm-5 87c0-14-11-71 0-78 7-6 114 0 119 6-6 14 1 72-21 72H20Zm29 16c52-5 116 1 168 4 47 2 85-19 59 49L26 939c-11-35-26-64 23-69Zm96-189c-12-7-11-56 9-63 44-15 130 0 178 3 19 1 103-2 113 8 5 5 8 43 1 47-52 4-104 4-156 6-9 0-17 4-26 4-22 0-106 3-119-5Zm180-253c-28-5-31-13-25-44 2-12 32-19 44-21 38-4 78 3 115 4 27 1 153 0 165 19 4 7 2 35-2 38-6 3-96 4-109 5-54 1-137 9-188-1Zm-35-22 3-16-3 16Zm657 15c-15 11-75-1-97 0-19 0-42 7-61 8-21 1-132 1-143-9-8-7-5-39 3-47 4-4 19-8 26-9 49-8 171-4 220 4 22 4 92 24 52 53Zm200-49c29-1 66-4 95-1 73 7 65 68-12 65h-161c-28 0-50 8-80-5-23-10-23-52 8-55 50 10 100-2 150-4Zm-42-11Zm173 6Zm58 14c37-6 82-9 120-10 22-1 136-2 147 9 3 2 8 27 9 32 1 19-6 22-23 26-44 12-214 6-262-3-22-4-23-26-17-46 4-15 17-7 26-8Zm217-94-2 2 2-2Zm-77 26Zm126 235c12 4 13 34 5 41-9 7-42 3-55 5-62 6-125 15-188 11-10 0-54-4-58-9-6-5 1-40 5-41 97-13 193-12 291-7Zm105 81c3 6 1 49-6 53-57 5-117-1-176 0-15 0-38 10-43-11-2-9-4-43 6-46 14-5 60 1 80-1 35-2 88-17 120-5l19 10Zm-7-17Zm13 197v11a167 167 0 0 1 0-11Zm-337 126c-12 0-72-5-74-13 6-18-3-28 16-37 49-23 129-7 181-4 22 2 66-4 83 1 11 3 19 34 18 45-7 10-198 10-224 8Zm247 108c1 2 8 44 7 47s-6 9-8 10c-7 4-65 10-77 11-78 7-153-3-230-7-21-4-21-43-4-53 6-4 38-8 46-8 39-1 82 5 123 3 21 0 133-16 143-3Zm6-4Zm-343 216Zm-7-54Zm-133-9c-35-3-41-18-27-50 7-16 19-21 36-22 46-2 105 8 152 7 34-1 77-12 111-8 9 1 35 12 39 19 5 11-5 43-20 46-33 7-93-1-130 0-53 2-106 13-161 8Zm-342-4c-22-4-23-42-7-53 18-13 91-21 114-19 24 2 50 12 74 15 15 1 108 1 112 8 2 3 1 23 1 28-8 40-73 21-102 21H804Zm-257-3c-13-1-75-7-81-13-2-1-9-32-8-35 1-5 7-8 12-11 35-19 163 2 208 5 42 3 119-18 93 53-73-2-151 4-224 1Zm71 59c-1-10 2-18 8-25-6 7-9 15-8 25Zm30-36Zm-346-123c-3-4-3-33-2-35 2-2 48-7 56-8 87-9 174-1 262-3 0 12-7 47-21 50-59 10-128 0-188 3-15 6-101 2-107-7Zm42 15a149 149 0 0 1-20-2l9 1a337 337 0 0 0 11 1Zm-199-84c-20 1-15-47-9-53 4-5 59-12 70-13 61-4 126 3 188 1 11-1 43-12 47 2 5 14 3 59-17 63-21 4-74 0-99 0-10 0-20-4-31-4-50-1-99 1-149 4Zm147-257c5-13 6-54 14-62 10-11 67 0 84 0 41-1 85-10 127-8 15 1 94 11 100 17 8 7 7 38-1 45-105 15-216 4-324 8Zm118 12Zm43-140Zm40-125c-4-2-13-8-15-12l3-34c2-4 71-15 82-16 39-3 108 1 149 4 11 1 49 7 56 13 11 9 12 56 0 62-14 6-88-9-109-10-40-2-136 8-166-7Zm213-64a344 344 0 0 1 56 10 192 192 0 0 0-56-10Zm394 21c12 9 23 38 12 49-10 10-151 0-177 1-32 1-77 9-108 8-25-1-46-12-40-41 6-28 86-23 109-25 18-1 40-7 58-7 32-2 121-2 146 15Zm134-8-38 4 38-4Zm18 90c5 1 31 9 33 11 6 6 8 31-2 33-6 2-41-7-53-7-68 0-148 26-215 23-6 0-37-4-40-6-9-5-13-42-1-47 92-14 186-16 278-7Zm-112-28 14 5-14-5Zm107 17c0 2 17 7 29 11-12-4-29-9-29-11Zm32 13 4 1-4-1Zm13 6Zm1 4 2 2-2-2Zm176 72c-4-5-9-9-9-13 0 4 5 8 9 13Zm151 112c1 47-65 22-94 33-56-5-110 1-165 0l-46-5c-22-6-15-48 4-56 5-2 20-4 26-4 50-5 108-6 159-7 36-1 114-15 116 39Zm45 41Zm-203-2h7-7Zm-21 74c-34 3-83-8-123-7-46 0-96 1-142 4-32 2-55 25-55-26 0-19 16-25 33-28 67-11 217-9 287-4 9 0 17 3 25 4-3 23 3 55-25 57Zm-65 96c10 0 78 2 82 5 4 2 7 27 6 34-2 46-30 27-61 26h-181c-17 1-73 12-86 3-11-8-5-44-4-56h68c58-3 117-11 176-12Zm81 74 7-3-7 3Zm-166 33Zm-34 43Zm-192 0c-29-8-66 0-95-8-15-5-11-25-4-34 61-11 122-13 184-12 9 0 17 4 26 4 22 1 85-4 100 1 8 2 10 31 5 37-10 11-188 11-216 12Zm39 41c-1-3-2-8-4-10 2 2 3 7 4 10Zm-26-15Zm-258-107c-49-5-43-54 4-61 31-4 82-7 114-8 24-1 164-1 173 12 6 8 1 38-7 45-4 4-45 8-54 9-72 5-159 12-230 3Zm-100 4c-66 5-162 11-226 8-49-2-56-30-35-69 102-16 209-20 312-3 17 57 2 61-51 64ZM475 850c-32-4-34-47-11-64l294 11c8 3 19 58-7 54-91-3-186 11-276-1Zm78 10Zm-96-90 2 1-2-1Zm259-69c48-3 94-8 142-4 14 1 79 10 85 16 10 10 12 49-12 53-54 8-115 2-169 4-18 0-124 16-129-2-1-8 5-59 10-63 8-8 58-3 73-4Zm26-162Zm-30 8c65-2 134-12 200-11 40 3 69 44 14 56-65 15-195 26-259 12-22-4-44-40-29-56 13-12 58 0 74-1Zm106-20Zm73-2 13-2-13 2Zm97 15-19 7 19-7Zm-25 69Zm-30-12Zm-142 56c1-15 5-30 21-32 19-3 52-4 73-5 73-2 145 5 218 5 26-3 5 62 2 64-4 3-53 8-63 9-63 3-158-3-222-8-25-3-31-6-29-33Zm497 64c9 11 3 50-12 53-57-1-115 2-173 0-31-1-77 0-107-4-43-5-34-40-2-52 43-15 175-5 229-5 18 0 50-10 65 8Zm-33-24c6 8 18 10 28 14-10-4-22-6-28-14Zm44 25Zm-4 48-1 2 1-2Zm-19 115c18 4 7 36 10 50-26-5-55 6-83 8-69 4-141-11-211-8-39-8-50-36-2-45 38-7 100-11 140-12 50-2 97 9 146 7Zm-121-15c22 0 44 4 66 7-22-3-44-7-66-7Zm62 87h-7 7Zm-88 73Zm-152 20c-8 1-12 4-15 6 3-2 7-5 15-6Zm137-92 6 8-6-8Zm-467-69c54-8 111-7 165-7 35-1 72-4 107-1 42 5 25 31 26 43-2 4-5 4-5 4-34-2-71 10-105 11-21 1-39-4-57-4-30 0-127 9-146-4-15-10-5-38 15-42Zm-17-2c6-4 19-7 36-9-17 2-30 5-36 9Zm137-85c0-3-1-6-4-8 3 2 4 5 4 8l1 6-1-6Zm20 5c5-9 61-13 75-14 76-4 156 5 231 8 38 81-33 63-86 65-38 2-65 0-103 0-22 0-112 4-125-2-3-1-6-5-7-8 0-3 13-46 15-49Zm149-100c0-3 8-4 20-4-12 0-20 1-20 4Zm18 186Zm166-264c1 4 0 7 4 7-4 0-3-3-4-7Zm11-1-3 6 3-6Zm-43-19-4 1 4-1ZM691 787Zm-3-3Zm-69-91Zm-30 70Zm-78-1 78 1-78-1Zm32 16c-12-1-27 0-42 1 15-1 30-2 42-1Zm752 123Zm3-10Zm44-110Zm144-1 68-6-68 6Zm-45-82 30-1-30 1Zm7-7Zm18-19c-4 20-53 6-67 6-32 0-71 7-104 8-41 1-103 8-142 4-35-5-25-58-14-61 11-4 45 0 61-1 54-3 107-9 162-10 48-1 117-18 104 54Zm-796-59 101 8c5 3 6 44 4 51-6 17-32 5-44 6-77 3-143 12-222 4-6-1-30-4-33-6-10-6-9-45 0-54 22-20 159-4 194-9ZM476 871c26-1 68 0 94 3 25 2 51 13 40 43-2 8-38 14-47 14-58 5-119-1-177-4-15 0-94 5-97-9l5-21c12-24 87-14 111-16 22-1 46-9 71-10Zm-91 65c3 0 8 1 10 4-2-3-7-4-10-4Zm-86-55 18-6-18 6Zm64-8 21 1-21-1Zm61-19Zm-210 12Zm150 78-97-3 97 3Zm291 160c-5 0-24-2-25-6 2-9-3-44 0-47l17-4c55-6 108-1 161-1 25-1 125-15 139 1 6 7 5 31 1 39-2 5-9 5-14 6-75 15-202 17-279 12Zm252-3Zm32 95h-8 8Zm158 11Zm319-10Zm-113 10Zm312-319c5-6 79-13 85-9 6 5 8 44 3 51-4 6-73 9-85 5-3-1-7-42-3-47Zm83-26-217-4c4-16-14-54 7-60l215-8c10 6-1 71-5 72Zm10-94c-19-2-55 7-72 6-4-1-8 1-11-4-4-5-3-51 2-56 6-5 66-15 72-8 5 4 16 57 9 62Zm-39-75Zm32-1Zm-81-124Zm-8-23Zm-251-10Zm43 1Zm-32-77c20 3 83 10 86 33 1 6 0 20-4 24-6 5-67 12-78 13-28 0-61-8-88-9-38 0-71 6-111 0-22-3-49-6-49-32 1-32 44-19 68-21 64-6 109-15 176-8Zm-401-76c4-5 8-10 13-11-5 1-9 6-13 11Zm-343 45 6-10c-2 1-4 7-6 10Zm-156 60-1-2 1 2Zm125 45c19 3 26 2 29 24 6 48-16 33-48 37-73 8-149 19-222 11-9-1-43-10-46-15-4-7-9-48-6-53 8-12 79-13 94-12 57 1 145-2 199 8Zm-271 72Zm-64 4c-2-6 2-8 8-9-6 1-10 3-8 9Zm41 165Zm0 0a208 208 0 0 0 28 0l46-3-46 3c36 0 68 2 86 4 7 0 18 2 20 10 3 9 5 54-9 58l-285 8c-5-4 1-58 5-65 4-5 21-9 28-10 25-4 77-5 127-5Zm-178 257H73h52Zm124-13Zm35 21-6-2 6 2Zm267 238Zm133 21Zm255-45c-2 0-2 2-2 4 0-2 0-4 2-4Zm-10-51c8 9 15 12 21 12-6 0-13-3-21-12Zm366 75 2 1-2-1Zm401-160Zm12-75v56c0 10-51 13-61 5-6-6-4-53 2-57 11-8 45-9 59-4Zm-217-23c-13-2-20-26-16-38 6-18 28-20 43-22a845 845 0 0 1 193-4c1 18 2 60-21 64h-199Zm223-380Zm-14-116c-17 14-93-2-117-3-8 0-16 5-23 4-30 0-58 3-86-7 9-19 8-58 33-61 54-9 108 0 163 1 14 5 44 54 30 66Zm3-165c-12 12-37 2-51 1-45 0-102 5-145 0-44-5-31-38-8-60 51-4 102-4 153-5 15 0 35-10 50 1 12 9 13 52 1 63Zm-383-79c1 2-2 3-7 4 5-1 8-2 7-4Zm-17-20Zm81 31c11 1 72 11 77 17 6 5 7 31 3 37-3 5-34 11-42 12-73 7-192 7-265 0-46-5-41-43-7-62 77 5 157-9 234-4Zm-311 66c-44 4-105-6-150-8-22-1-111 4-124-5-11-7 3-50 13-57 14-10 52 0 69 1 62 1 127-1 187 4 50 3 69 58 5 65Zm-251-82v-3 3Zm-57 13c-8-1-20 2-32 3 12-1 24-4 32-3ZM332 455c21 1 123-3 132 5 13 13-13 50-28 53-45 3-90 2-134 4-41 1-82 7-123 4-23-2-49-3-52-29-6-56 36-47 79-44 45 3 81 7 126 7ZM109 605h-4 4Zm14 12Zm10 88c47 0 95-1 142-4 13 2 13 23 13 35v1c0 26-18 21-40 25-46 8-148 6-196 0-29-3-38-19-32-48 3-15 44-9 59-9h54ZM13 740Zm258 544Zm-69 0h-4 4Zm-120-6c14 3 29 10 31 23-2-13-17-20-31-23Zm38 22c-2 5-4 9-8 11 4-2 6-6 8-11Zm39-17Zm-113-3Zm175 77c-24 0-104 10-105-25l12-35c7-8 60-5 74-5 54-1 114-5 169 0 48 4 47 13 47 61-1 2-50 8-59 8-45 1-90-4-138-4Zm228 161Zm129-45c12 0 22-5 34-5 45 1 90 4 135 4 18 2 22 40 12 49-14 12-73 1-93 1-52 0-105 8-157 4-18-1-54-2-59-22-15-68 93-32 128-31Zm183-3Zm193-18Zm661-53-2-8 2 8Zm-9 58c8-1 12-6 13-14-1 8-5 13-13 14Zm21-77Zm0 85c-17 0-33 3-50 2 17 1 33-2 50-2Zm-5-92c-32 1-110 4-137-2-31-7-37-68-10-72 34-4 100-2 135 1 11 0 87 11 90 15 5 9-4 43-8 53-24-2-48 4-70 5Zm82-70 3 18-3-18Zm-8-21c-10 7-60 0-68-10-6-8-7-41 3-47 8-5 73-10 76-6 5 8-3 58-11 63Zm11-156Zm-11-97Zm-504-811c33 2 71 0 104 7 0 60-24 42-66 46-79 8-140 10-218 8-24-1-53-25-42-49 6-12 59-21 73-23 50-5 100 6 149 11ZM888 108Zm-45-17c28 1 73 12 104 6-31 6-76-5-104-6ZM556 210ZM20 342Zm17 16c-5 0-9 4-13 9 4-5 8-9 13-9Zm-13 35c2-19 4-27 25-30 19-2 52-2 74-2 30-1 100-2 127 8 25 10 45 53 13 67l-228-5c-16-4-13-25-11-38Zm99 57Zm-32-1Zm25 8c11 8-2 45-4 56H20c-4-14-8-52 7-60 8-3 84 1 89 4ZM20 614c22-1 92-7 106 11 6 8 3 55-5 60-14 9-103 7-108-10-3-8 0-56 7-61Zm246 993-32-2 32 2Zm-118-92c-10-1-31-4-32-18-1-13 4-43 21-44h42c46-2 83 5 126 8 27 2 111-11 127 0 11 7 13 41 5 49s-94 4-112 4c-57 1-120 6-177 1Zm137 19c52-2 103 2 155 4 32 0 66-4 100-1 20 2 73 3 73 28 1 47-32 43-69 46-59 3-156 0-215-5-57-4-62-17-44-72Zm197 88 261 8c27-3 35 48 23 65-13 16-98 3-123 3-11 0-21 5-30 5-47-1-93 0-140-5-5-3-12-76 9-76Zm302-89c-6-13-8-52 1-61 8-8 58-3 73-4 63-4 124-15 188-7 6 1 46 9 47 12 6 8-3 32-2 39 2 8 18 14-7 17-45 6-93 0-138 1-54 0-108 4-162 3Zm481-3c-36-4-73 6-108 4-25-2-37-2-40-29-4-42 13-42 52-44 46-2 102 12 149 15 23 2 111-4 124 9 12 11 7 49-16 53-45 6-114-9-161-8Zm17 23c23-10 48-1 71 0h176c35-1 79-17 67 44-7 37-75 20-97 21-59 1-133 8-192 0-38-6-23-35-25-65Zm425-101c-6 9-68 5-74-3-3-3 5-51 2-61 19-3 54-13 69 2 6 5 8 54 3 62Zm9-213Zm1 294Zm-6-1439c-8 7-61 6-65 1 0-1 5-9 4-14 0-11-9-41 4-50 7-4 49-8 57 0 11 11 10 52 0 63Zm6-72Zm-69 1Zm-6 9-1 1 1-1Zm-316-2Zm131 11c20 0 48-7 69-8 30-1 58 0 89-3 26-2 11 61-9 65-56 10-192 7-249 0-8-1-27-5-33-10-7-6-12-36-4-42 19-14 109-2 137-2Zm-140-9Zm-298-14Zm-33 18c5-4 15-6 22-6 79-7 145 1 222 7 31 3 73-14 63 36-4 16-18 20-32 22-54 6-163 4-219 0-7-1-45-6-47-9-5-5-11-43-9-50Zm-24-24ZM647 30c25-17 142-11 177-12 20 0 44-4 65-4 11 0 76 5 78 8-1 17 6 48-7 59-19 16-119-1-148-2-36-1-133 14-159-2-15-9-18-39-6-47Zm-12 3c0 4-1 9-3 11 2-2 3-7 3-11Zm-16-17Zm-67-1c40 0 70-7 63 44-3 21-24 18-41 24H329c-12 0-21-32-21-41 0-14 13-18 25-20 68-9 150 3 219-7Zm-216-2ZM34 22c4-1 18 4 26 4 56 0 132-10 184-4 13 2 46 12 48 25 2 8 2 19-6 24-21 15-104 6-134 8-35 3-71 13-107 16-29 1-26-69-11-73Zm9 422c-28-1-34 13-34 31 0-18 6-32 34-31ZM1 1663l1 11-1-11Zm101 28c-5 5-19 8-26 8-9 0-38-3-46-5-4-1-12-5-14-9-3-3-9-55-8-61 2-10 10-11 19-13 13-2 74 3 81 12 6 7 0 61-6 68Zm59 3c-7-4-25-5-28-11-10-14-8-64 16-68l271 4c26 6 35 17 37 43 4 42-9 42-48 44-77 5-169-15-248-12Zm532 15-108 1 108-1Zm138-6c-11-1-40-3-43-15l-5-41c1-13 10-18 22-20 18-4 28 3 42 3 40-2 82-5 122-4 26 0 106-5 123 7 13 10 13 63 6 68-11 8-83-2-102-3-54 0-113 8-165 5Zm608-1c-7 2-13 4-21 4-90 7-189-5-280 0-33-5-24-49-25-73 35-1 71 2 106 1 64-3 135-13 199-4 4 0 21 5 21 9v63Zm6 0-1 1 1-1Zm114 16Zm-105-22c-11-79 36-66 95-67h49c20 0 95-3 106 6 7 6 11 58 3 67-17 17-85 4-108 4-20 0-141 4-145-10Zm266-1473Z" />
    <path fill="#B7B29D" d="M1724 0h4v1727h-4zM0 0h4v1727H0z" />
    <path fill="#B7B29D" d="M0 1723h1725v4H0z" />
    <path fill="#485860" d="M0 0h1728v1727H0z" opacity=".5" />
  </g>
  <defs>
    <clipPath id="a">
      <path fill="#fff" d="M0 0h1728v1727H0z" />
    </clipPath>
  </defs>
</svg>