<svg xmlns="http://www.w3.org/2000/svg" width="1728" height="309" fill="none">
  <g clip-path="url(#a)">
    <path fill="#2F7346"
      d="M1728-110v410.8c-25.5 3.5-51.2 8.5-77.2 8-34.8-.5-67.6-10.1-101.8-14-34.1-4-67.1-6-100.7-5-74 2-145.3 14-219.9 11-68.8-2.8-135.2-25-204.7-23.2-95.6 2.4-187 21-284.3 20.2-72.6-.5-139-9.3-210.6-15.1-85-7-158 15-240.8 25.2-2 .3-16.2 1.1-21.7 1.1h-31.4c-5.6 0-11.8-1-14.6-1.2-27.6-1.5-55.2-.3-82.7-3-33.1-3.3-68-13.3-99.8-16-12.7-1.2-25.3 1.6-37.8 3V-110h1728ZM475.3 259.5c-2.7-.8-15 0-19.1 0-1.3 0-2.2 5-1.4 6a43.8 43.8 0 0 0 20.5 0c2.3-1.7 2.2-5.4 0-6Zm586 1.2c-2.6.5-4.6 2.5-3.7 5.2.7 2 16.7 5 18 0 1.2-4.6-11.3-5.8-14.3-5.2Zm-615.8 7.7c1-1.6.3-5.5-2.4-6a85 85 0 0 0-16.7 3.7c-.7 2.4 0 5 2.6 5.5 2 .4 16-2.3 16.5-3.2Zm45-5.9c-6.2 6.4 6.5 7.3 11 7.2 8.7-.3 7.3-7.2 5.1-7.2h-16.1Zm517.5.3c-3.6.4-9.4.3-7.8 5 1.4 4.2 17 1.9 18-2 1.2-4.8-7.4-3.3-10.2-3Zm40.5-.3c-.6-.6-14.3 0-16.6 0-2 0-3.7 6-1 6h16c1.6 0 2-5.5 1.6-6Zm-64.8 1.3c-3.2.3-11.6 2.3-9.3 6.8 1.9 3.6 13.6 0 14.5-2.7 1.2-4.3-1.7-4.5-5.2-4.1Zm-459.8.9c-3 1-1.9 5.8 1 6.7 1 .2 16.5 1 17.9.9 4.4-.5 4.8-5.4.9-6.6-2.1-.6-18-1.6-19.8-1Zm582 2c-.7-1-19.8-5.5-19.2 1.3.4 3.2 12.9 4.4 15.8 4.4 3.2 0 5.1-2.9 3.3-5.7Zm-177.6-1c-3.4.4-17.4 2.4-13.5 8 1.8 2.4 16-.4 17.3-3 1.9-3.8-.1-5.2-3.8-5Zm35.4 1c-1.3-2-15.1-.7-15.9 1.5-1 3.3-.1 5.2 3.4 5.2 1.6 0 11.3-1.2 12-1.7 1-.7 1-4.2.5-5Zm-403.4 1c-3.7 1.1-4 4.8.4 6.2 3.9 1.2 19.7 2.7 15.5-4.4-1.5-2.5-13.2-2.5-16-1.8ZM406 268.9c-2 .3-6.4 2-7.3 3.8-3.7 7 15.6 3.4 16.5.3 1.8-5.5-5.5-4.7-9.2-4.1Zm189.3 7.8c2.6.7 11.6 0 15.1 0 1.4 0 2.6-4.2.6-5.6-1-.6-17.8-1.7-18.3.2-.3 1.7 1 5 2.6 5.4Zm302-7c-4-.3-19.6-1-17.1 6.4 1 3 16.1.4 17-2 .3-1.3 0-3 0-4.4Zm240 3c-.8-1-22-7.6-19.3 2.4.3 1.2 13.5 3 15.7 2.6 2.1-.4 4.7-3.3 3.5-5Zm-1108 .1c-.4.7-.2 3.3 0 4.3 1.3 3.8 7.8-.2 10.6-.3 2.6 0 8.1 3 8.5-1.6.7-7.3-17.8-4.3-19-2.4Zm-14.4-1c-3.4.5-14.8 4.3-11.4 9 1.8 2.6 18-2.8 18.6-4.7 1.1-3.7-4.4-4.6-7.2-4.2Zm841.8.2c-3.9.4-13.4 2-9.4 7.8 1.1 1.7 15.4-1.3 16.7-2.6 5.3-5.2-3.3-5.7-7.3-5.2Zm-42 11.6c6 .9 22 1.4 19-8.2-1.5-4.6-5.2.7-6.7 1.1-4.9 1.5-14.3-1.7-12.3 7.1ZM1455 275c-7 6.7 16.3 8.5 17 2.2.6-5.6-15.1-4-17-2.2Zm-1392.8-.1c-1.8.5-2.2 2.5-1.6 4.2.8 2.5 20.3 5.5 23 4.2 2-1 3-3.3 1.1-5-1.6-1.6-20-4.3-22.5-3.4Zm316.6 0c-2.3.3-13.1 3.6-13.7 5.5-2.7 8.3 16.1 2.2 17.5-.6 1.8-3.7 0-5.4-3.8-4.9Zm1039.6-.1c-1-.7-14.6 2.3-15.6 3.9-4.8 8 15 5 16.3 0 .2-.9-.2-3.6-.7-4Zm26 1.1c-2.6-2.2-17.9-2.2-15.7 4.2.7 2.3 16.7 2.8 17 1 .3-1-.4-4.4-1.3-5.2Zm-295.4 0c-2.5.8-2.5 4.8 0 5.7 3.4 1 22.5 3.4 17-4-1.2-1.7-14.6-2.5-17-1.8Zm353 6.7c5.6-8-24-9.6-17-1.3 1.4 1.7 16 2.9 17 1.3Zm-871.6-.1c1.4 1.4 13 2.7 15.3 2.3 3.3-.7 3.8-4.3.8-5.9-2.7-1.4-15.2-3.7-17-.2-.5 1.1 0 3 .8 3.8Zm59.3 3.1c2 1.2 16.2-.6 17.6-2.8 1.6-2.7.3-5.2-3-5.1a109 109 0 0 0-13.5 1.7c-2.3 1-2.3 5.4-1 6.2Zm-10.3-5.8c-1-1.5-18.4-3.1-16 4.4.8 2.3 11.1 2 13.4 1.4 2-.6 3.7-4.2 2.6-5.8Zm55.4 5.8c4.8-7.5-15.6-8.2-18-6.4-1.1.7-1.5 4.7-.9 5.5.7.8 17.8 2.8 19 1Zm47.7 0c1.4 2.4 18 .7 19.5-1.8 5.3-8.8-19.4-3.8-19.7-2.4-.2.9-.2 3.6.2 4.2Zm584.6-6.9c-3.8-.4-24.3-.3-22.2 6.6.8 2.5 16.5.6 19-.2 3.8-1.2 3.4-2.5 3.2-6.4Zm7.3 1.3c-.7.5-1.4 3.2-1.2 4.1 1.2 4.2 18.1 1.2 18.1-2.9 0-4-15-2.6-17-1.2Zm137.5-1.1c-3 1-1.9 5.8 1 6.7 2.3.6 13.6 1 14.4-1.4 2.1-6.4-11.8-6.5-15.4-5.3Zm-743.2.8c-2.7-.8-15 0-19.1 0-.4 0-1.6 1.1-2.4 1.1-3.4 8.6 18.3 6.6 21.4 4.8 2.4-1.5 2.2-5.2.1-5.9Zm408.5.2c-3 1-1.9 5.8 1 6.7 3.1.9 14.5 1.7 17.2.4 2.8-1.2 3.4-5.2.6-6.1-1-.4-17.7-1.4-18.8-1Zm358.4 6.8c.3.5 11.7 2 13.4 2 5.4-.1 8-5.6 4-6.8a92.6 92.6 0 0 0-15-1.2c-2.8.6-3.5 4.1-2.4 6Zm-1434.1-4.9c-2.5.7-2.5 5.3 0 6.8 4.8 3 19 .9 13.5-4.3-1-1-12.6-2.7-13.5-2.5Zm1230.1.2c-3.6 0-16.5 2.2-12.5 7.9 1.4 1.8 14.6-.8 16.3-2 3.6-2.8.3-6-3.8-6Zm-988 1c-2.9.4-11.5 2.7-9.4 6.8 2 4.1 14.8-.4 15.5-2.7 1.5-4.7-2.7-4.6-6.2-4.1Zm947 8.7c1.2 2 17.4-1 18.5-2.9 4.9-8-13.7-4-17-2.8-1.8.7-2.4 4.2-1.5 5.7Zm271.7-7.8c-3 1-2 5.6 1.1 6.7 3.5 1.2 20.8 3.5 16-3.9-1.1-1.6-15-3.5-17-2.8Zm-339.6 2a41.5 41.5 0 0 0-17-.7c-1.6 1.1-1.5 4.7.8 5.4 2.5.9 13.4 1.8 15.7 1.3 1.7-.4 1.8-5 .5-6ZM147 292.7c.6-.3 1.2-3 .8-3.9-2-4-20.1-5.7-16.2 2 1.2 2.4 13.7 3 15.5 1.9Zm1089.7-6.8c-3.1 1-2.1 5.4 1.3 6.5 3.4 1 19.1 2 14.7-4.7-1.5-2.1-13.6-2.6-16-1.8Zm28.5 7c.6.5 14.3.7 15.7-2 3.9-7.8-14.2-6-15.5-2.4-.3.8-.4 4.1-.2 4.3Zm446.4-6.9c-1.1.2-8 2.3-8.4 2.7-5.4 7.6 15.2 6 15.8.6.5-4.5-4.2-3.8-7.4-3.3Zm-1546.8 8.8c4 1.1 12.2-.8 16.7 0-.3-1.4.7-4.2-.6-5.1-2.3-1.6-18.7-3.4-19.6-.4-.7 1.6 2.6 5.3 3.5 5.5Zm136.6 2c4 0 15.8.5 18.3-2.4 2-2.4 1.2-5.8-2.5-5.6-2.4.2-12.5 1.4-14 2.2-2.5 1.3-1.7 3.3-1.8 5.8Zm1286.1-7.9c-2.5.9-2.4 4.4 0 5.8 2 1.1 16.4 4.6 17.4 1.5 2-6.1-13.6-8.5-17.4-7.3Zm-1388.4 8c2.6.7 14.3 0 18.1 0 1.4 0 2.9-5-.1-6-2.6-.8-9.5 0-13 0-2.4-.2-5.9-2.9-6.5 1.4-.3 1.5 0 4.1 1.5 4.5Zm1492.4-5.8c-2.9.3-14.2 1.4-12.8 6.1 1.4 4.8 18.1.6 19-2 1.5-5-3-4.4-6.2-4.1Zm-1424.8.7c-3.5 2.9-1 6.8 3 7 1.3 0 13-1.2 13.6-1.5 2.8-1.3 2.2-5.5.5-5.5h-17.1Zm-28 1.2c-3 .7-5.2 2.7-2.9 5.4 2.3 2.8 18.5 3 16.2-4-.8-2.4-10.8-2-13.3-1.3Zm1371.5 1c-.8.8-.4 5.1 1.5 5.7.7.3 11.1 1.3 11.9 1.2 4.2-.7 4.8-5.7.8-6.8-2.2-.7-13-1.7-14.3-.2Zm55 1c-4.8 1-8.6 6.3-4 7.8 2 .7 17.1-.8 14.3-6.4-.8-2.5-7.9-1.8-10.3-1.3Zm-28.4.8c-2.1 1.3-4 5-1.6 6.6.5.4 11.2 1.5 12.7 1.5 9 0 7-8 5-8h-16.1Z" />
    <path fill="#D0332E"
      d="M62.2 274.8c2.5-.9 21 1.8 22.5 3.3 1.8 1.8 1 4.1-1 5-2.8 1.4-22.3-1.6-23.1-4-.6-1.8-.2-3.8 1.5-4.3Zm706.5 4.8c2.1.7 2.3 4.4-.1 5.9-3.1 1.8-24.8 3.8-21.4-4.8.8 0 2-1 2.4-1 4 0 16.4-.9 19.1 0Zm-244.8-15c1.8-.5 17.7.5 19.8 1.1 4 1.2 3.5 6.1-1 6.6-1.2.1-16.8-.7-17.7-1-3-.8-4.1-5.6-1-6.6h-.1Zm-48.5-5.1c2 .6 2.2 4.4-.1 6a45 45 0 0 1-20.5 0c-.8-1 0-6 1.4-6 4 0 16.4-.8 19.2 0Zm701.8 20.3c1-.4 17.7.6 18.8 1 2.8.9 2.3 4.8-.6 6.1-2.8 1.4-14 .5-17.2-.4-2.9-.9-4-5.7-1-6.7Zm189.9-1.2c.2 3.9.6 5.2-3.2 6.4-2.5.8-18.2 2.8-19 .2-2-7 18.4-7 22.2-6.6Zm269.7 17.1h16.1c2 0 4 8-5 8.1-1.5 0-12.2-1-12.7-1.4-2.3-1.6-.5-5.4 1.6-6.6Zm-822-12.2c-2.1-8.8 7.3-5.6 12.2-7 1.5-.5 5.2-5.8 6.6-1.2 3.1 9.6-12.9 9-18.9 8.2Zm-32.3 2c-.4-.6-.4-3.3-.2-4.2.3-1.4 25-6.4 19.7 2.4-1.5 2.5-18 4.2-19.5 1.8Zm-47.7 0c-1.1 1.9-18.2-.1-18.9-1-.6-.7-.2-4.7.9-5.4 2.4-1.7 22.8-1 18 6.5Zm-535.7 11.2c-1.4-.4-1.8-3-1.5-4.5.6-4.3 4-1.6 6.6-1.5 3.3.1 10.3-.7 12.9.2 3 1 1.5 5.8.1 5.8-3.8 0-15.5.8-18 0Zm246.4-28.3c-.6 1-14.5 3.6-16.5 3.2-2.6-.5-3.3-3-2.6-5.4.2-.9 15.5-3.9 16.7-3.7 2.7.4 3.4 4.3 2.4 6Zm-280.7 26.3c-.9-.2-4.2-3.9-3.5-5.5 1-3 17.3-1.2 19.6.4 1.3.9.4 3.7.6 5.1-4.5-.8-12.7 1.1-16.6 0Zm1422.7-5.9c3.8-1.2 19.5 1.2 17.4 7.3-1 3-15.3-.4-17.4-1.5-2.4-1.4-2.5-5 0-5.8Zm-25.2-5c2.2-.7 16 1.2 17 2.8 5 7.4-12.4 5.1-15.9 3.9-3-1.1-4.1-5.7-1-6.7Zm-271.7 7.8c-1-1.5-.3-5 1.6-5.7 3.2-1.3 21.8-5.2 17 2.8-1.2 1.9-17.4 4.8-18.6 2.9ZM14.9 271.8c2.8-.4 8.3.5 7.2 4.2-.5 1.9-16.8 7.3-18.6 4.7-3.4-4.7 8-8.4 11.4-9Zm1520.7 14.8c-1.1-1.8-.4-5.4 2.4-6 1.7-.3 13.3.7 15 1.2 4 1.2 1.4 6.7-4 6.8-1.6.1-13-1.5-13.4-2ZM301.4 296.7c0-2.5-.7-4.5 1.8-5.8 1.5-.8 11.6-2 14-2.2 3.7-.2 4.5 3.2 2.5 5.6-2.5 3-14.3 2.4-18.3 2.4Zm-272-24c1.2-2 19.7-5 19 2.4-.4 4.6-5.9 1.5-8.5 1.6-2.8 0-9.2 4-10.5.2-.3-.9-.5-3.5 0-4.2ZM1691.5 291c3.3-.3 7.7-.9 6.1 4.1-.8 2.6-17.5 6.7-19 2-1.3-4.7 10-5.8 13-6.1ZM560.3 267.8c2.7-.8 14.4-.8 15.9 1.8 4.2 7-11.6 5.5-15.5 4.3-4.4-1.4-4-5-.4-6.1Zm296.4 4c4-.4 12.6 0 7.3 5.3-1.3 1.3-15.6 4.3-16.7 2.6-4-5.9 5.5-7.4 9.4-7.8Zm-167 13.7c-1.2-.8-1.2-5.2 1.1-6.2a109 109 0 0 1 13.4-1.7c3.4 0 4.7 2.4 3 5-1.3 2.3-15.6 4.1-17.5 3Zm416.1-18.8c1.8 2.8-.1 5.7-3.3 5.7-3 0-15.4-1.2-15.8-4.4-.6-6.8 18.5-2.2 19.1-1.3Zm31.4 5.9c1.2 1.8-1.3 4.6-3.5 5-2.2.4-15.4-1.4-15.7-2.6-2.7-10 18.5-3.4 19.2-2.4Zm-506.8 9.8c-.8-.7-1.4-2.7-.8-3.8 1.7-3.5 14.2-1.2 17 .2 3 1.6 2.4 5.2-.8 5.9-2.4.4-14-.9-15.4-2.3Zm-363.7 9.3h17.1c1.7 0 2.3 4.2-.5 5.6-.6.3-12.3 1.5-13.6 1.4-4-.2-6.5-4.1-3-7Zm112.1-16.9c3.7-.5 5.6 1.2 3.8 4.9-1.3 2.8-20.2 8.9-17.5.6.6-1.9 11.4-5.2 13.7-5.5Zm111.7-12.3h16.1c2.2 0 3.6 7-5 7.2-4.6 0-17.4-.8-11.1-7.2Zm437.8 3.3c3.7-.3 5.7 1 3.8 4.8-1.4 2.7-15.5 5.5-17.3 3-4-5.5 10-7.5 13.5-7.8Zm220.7 10c2.3-.8 15.8 0 17 1.7 5.5 7.4-13.6 5-17 4-2.5-.8-2.5-5 0-5.7Zm-87.7-15.1c3-.6 15.5.6 14.3 5.2-1.3 5-17.3 2-18 0-.9-2.7 1.1-4.7 3.8-5.2Zm175.4 25.1c2.4-.8 14.5-.3 16 1.8 4.5 6.7-11.2 5.8-14.7 4.7-3.6-1.2-4.4-5.5-1.3-6.5Zm-14 0c1.3 1 1.2 5.6-.4 6-2.4.5-13.3-.4-15.8-1.3-2.3-.7-2.4-4.2-.8-5.4 1.7-1.1 15.3-.5 17 .8Zm108.9-4c4 0 7.4 3.2 3.8 6-1.7 1.2-15 3.8-16.3 2-4-5.7 9-7.8 12.5-8Zm170.5.7c-1 1.6-15.8.4-17.1-1.3-7-8.3 22.6-6.7 17 1.3Zm-47-7.6c1.8-1.8 17.5-3.4 16.9 2.2-.7 6.2-24 4.5-17-2.2Zm-859.8 1.7c-1.6-.4-3-3.7-2.6-5.4.4-1.9 17.4-.8 18.3-.2 2 1.4.8 5.6-.6 5.6-3.5 0-12.5.7-15 0Zm302-7c-.1 1.4.2 3-.2 4.4-.8 2.4-15.9 5.1-16.9 2-2.5-7.4 13-6.7 17-6.4Zm614.6 9.2c3.6-1.2 17.5-1.2 15.4 5.3-.8 2.3-12 2-14.3 1.4-3-.9-4.1-5.7-1-6.7Zm-504-16c3-.3 11.5-1.8 10.2 3-1 3.9-16.5 6.2-17.9 2-1.6-4.7 4.2-4.6 7.8-5Zm40.6-.3c.5.5 0 6-1.5 6h-16.1c-2.7 0-1-6 1-6 2.3 0 16-.6 16.6 0Zm396 13.3c.8.8 1.5 4.1 1.3 5.2-.3 1.8-16.4 1.3-17.1-1-2.1-6.4 13.1-6.4 15.8-4.2Zm-26-1.1c.4.3.8 3 .6 4-1.3 5-21.1 8-16.3-.1 1-1.7 14.7-4.6 15.6-4Zm191.7 19.1c1.3-1.5 12-.5 14.3.1 4 1.2 3.4 6.2-.9 6.9-.8.1-11.2-1-11.9-1.2-1.9-.6-2.3-4.9-1.5-5.8Zm-235.8-14c1.8-1.3 17-2.9 17 1.3-.1 4.3-17 7.1-18.2 3-.2-1 .5-3.7 1.2-4.2Zm-968.4-11c3.7-.6 11-1.4 9.2 4.1-1 3-20.2 6.7-16.5-.3 1-1.8 5.4-3.5 7.3-3.8Zm-167.3 24.1c2.5-.5 12.5-1 13.3 1.4 2.3 7-13.9 6.8-16.2 4-2.3-2.7 0-4.7 2.9-5.4Zm-91.7-.3c-1.7 1-14.2.5-15.5-1.9-3.8-7.7 14.3-6 16.2-2 .5 1-.2 3.6-.7 3.9Zm1118.2.1c-.1-.2 0-3.5.2-4.3 1.3-3.7 19.4-5.4 15.5 2.3-1.4 2.8-15.1 2.6-15.7 2Zm400 2.3c2.4-.5 9.5-1.2 10.3 1.4 2.8 5.5-12.3 7-14.4 6.3-4.5-1.5-.7-6.9 4.1-7.7ZM101.5 281.7c1-.3 12.4 1.4 13.5 2.4 5.4 5.3-8.7 7.4-13.5 4.4-2.5-1.5-2.5-6.1 0-6.8Zm862.2-15c.5.8.5 4.3-.5 5-.7.5-10.4 1.7-12 1.7-3.5 0-4.5-2-3.4-5.2.8-2.2 14.6-3.5 15.8-1.5Zm-284.3 13c1 1.6-.5 5.2-2.6 5.8-2.3.6-12.6.9-13.3-1.5-2.5-7.4 14.9-5.8 16-4.3ZM343.5 283c3.5-.5 7.7-.6 6.2 4.1-.7 2.3-13.4 6.8-15.5 2.7-2.1-4.1 6.5-6.4 9.3-6.8Zm1368.1 3c3.3-.4 7.9-1.2 7.4 3.3-.6 5.4-21.2 7-15.8-.6.3-.4 7.3-2.5 8.4-2.7Zm-727.9-22.1c3.5-.4 6.4-.3 5.2 4-.9 2.9-12.6 6.5-14.5 2.8-2.4-4.5 6-6.5 9.3-6.8Z" />
  </g>
  <defs>
    <clipPath id="a">
      <path fill="#fff" d="M0-110h1728v419H0z" />
    </clipPath>
  </defs>
</svg>