<svg xmlns="http://www.w3.org/2000/svg" width="5182" height="419" fill="none"><g clip-path="url(#a)"><path fill="#2F7346" d="M3455 0v410.768c-25.54 3.544-51.21 8.546-77.17 8.103-34.85-.572-67.62-10.189-101.8-14.121-34.17-3.931-67.15-5.906-100.77-5.002-73.92 2.012-145.31 14.121-219.86 11.075-68.85-2.824-135.24-24.992-204.65-23.239-95.63 2.4-187.05 20.95-284.31 20.212-72.62-.535-139.02-9.266-210.68-15.136-84.91-6.959-157.96 14.951-240.81 25.288-2.03.258-16.11 1.052-21.66 1.052h-31.44c-5.54 0-11.74-1.071-14.55-1.218-27.56-1.495-55.17-.296-82.7-2.99-33.11-3.249-68.03-13.309-99.84-16.078-12.68-1.107-25.26 1.736-37.78 3.009V0H3455ZM2202.35 369.495c-2.76-.83-15.07 0-19.16 0-1.33 0-2.18 5.021-1.41 5.944 1.3 1.55 18.11 1.679 20.48 0 2.36-1.68 2.2-5.316.09-5.962v.018Zm586 1.182c-2.65.498-4.64 2.528-3.72 5.26.67 1.957 16.68 4.91 17.96-.074 1.16-4.54-11.3-5.74-14.26-5.186h.02Zm-615.87 7.77c1.06-1.642.34-5.555-2.42-5.962-1.13-.166-16.44 2.843-16.68 3.655-.67 2.4 0 4.984 2.61 5.464 2.03.387 15.92-2.271 16.49-3.175v.018Zm45-5.925c-6.22 6.332 6.54 7.254 11.09 7.144 8.6-.222 7.2-7.144 5.05-7.144h-16.14Zm517.5.296c-3.61.406-9.34.258-7.75 5.076 1.37 4.116 16.9 1.772 17.9-2.012 1.29-4.892-7.32-3.397-10.15-3.064Zm40.52-.296c-.58-.59-14.28 0-16.63 0-1.98 0-3.68 6.036-1.02 6.036h16.13c1.48 0 2.02-5.519 1.52-6.036Zm-64.75 1.237c-3.26.388-11.69 2.381-9.4 6.811 1.93 3.673 13.69.092 14.52-2.695 1.28-4.319-1.66-4.522-5.12-4.116Zm-459.85.923c-3.02.978-1.89 5.814 1.05 6.682.89.258 16.5 1.052 17.81.923 4.46-.48 4.85-5.427.93-6.553-2.09-.591-18.02-1.643-19.81-1.052h.02Zm581.93 1.993c-.58-.922-19.75-5.482-19.09 1.366.32 3.12 12.84 4.375 15.74 4.356 3.18-.036 5.14-2.861 3.35-5.722Zm-177.49-.886c-3.46.296-17.48 2.345-13.5 7.882 1.76 2.437 15.87-.369 17.24-3.064 1.9-3.747-.11-5.131-3.74-4.818Zm35.32.905c-1.22-1.975-15.09-.702-15.83 1.513-1.11 3.249-.14 5.206 3.35 5.206 1.61 0 11.34-1.2 12.06-1.717.98-.72.94-4.19.44-5.002h-.02Zm-403.4 1.07c-3.61 1.071-3.98 4.781.46 6.166 3.84 1.199 19.69 2.621 15.48-4.394-1.52-2.528-13.23-2.584-15.94-1.79v.018Zm-154.23 1.034c-1.94.332-6.39 2.031-7.32 3.766-3.7 7.014 15.55 3.414 16.53.369 1.8-5.575-5.56-4.762-9.21-4.135Zm189.29 7.808c2.53.701 11.61 0 15.13 0 1.31 0 2.53-4.227.55-5.593-.92-.627-17.84-1.698-18.27.166-.37 1.698 1.02 4.984 2.59 5.427Zm301.95-7.033c-4.05-.295-19.53-1.015-17.07 6.424 1.02 3.082 16.13.387 16.92-2.031.43-1.31.08-2.99.15-4.393Zm239.94 3.028c-.68-.979-21.95-7.605-19.2 2.399.32 1.163 13.51 2.99 15.65 2.584 2.15-.406 4.77-3.248 3.55-4.983Zm-1107.84.11c-.46.739-.3 3.304 0 4.246 1.27 3.802 7.75-.185 10.52-.259 2.59-.074 8.14 3.009 8.55-1.606.64-7.291-17.83-4.337-19.09-2.362l.02-.019Zm-14.48-.923c-3.41.462-14.78 4.227-11.43 8.934 1.85 2.603 18.1-2.861 18.66-4.707 1.11-3.747-4.4-4.614-7.23-4.227Zm841.82.074c-3.86.425-13.39 1.975-9.41 7.826 1.15 1.68 15.44-1.292 16.72-2.547 5.32-5.26-3.35-5.703-7.31-5.279Zm-41.98 11.684c5.99.812 21.97 1.329 18.88-8.269-1.46-4.541-5.14.72-6.6 1.144-4.9 1.44-14.33-1.698-12.28 7.125Zm640.32-8.694c-7.07 6.793 16.25 8.51 16.94 2.252.61-5.611-15.09-4.042-16.94-2.252Zm-1392.89-.092c-1.76.572-2.15 2.584-1.57 4.264.85 2.492 20.34 5.464 23.1 4.135 1.97-.96 2.82-3.304 1.03-5.039-1.59-1.514-19.95-4.19-22.54-3.36h-.02Zm316.67.037c-2.33.314-13.15 3.618-13.76 5.501-2.7 8.324 16.16 2.159 17.53-.646 1.78-3.618-.05-5.353-3.79-4.855h.02Zm1039.58-.129c-.94-.683-14.57 2.289-15.57 3.931-4.88 8.03 14.91 5.095 16.26.056.24-.923-.23-3.673-.69-3.987Zm26.04 1.181c-2.63-2.289-17.9-2.215-15.79 4.19.74 2.252 16.77 2.732 17.12.96.21-1.052-.52-4.448-1.35-5.15h.02Zm-295.48-.092c-2.44.794-2.46 4.891.04 5.703 3.42 1.126 22.47 3.415 17.03-3.931-1.25-1.698-14.68-2.547-17.07-1.791v.019Zm353.11 6.792c5.53-8.01-24.12-9.69-17.13-1.329 1.41 1.68 16.06 2.88 17.13 1.329Zm-871.71-.147c1.48 1.403 13.05 2.713 15.36 2.252 3.24-.628 3.78-4.301.8-5.833-2.76-1.421-15.26-3.766-17-.185-.55 1.108.02 3.027.82 3.766h.02Zm59.36 3.138c1.89 1.181 16.18-.628 17.53-2.861 1.63-2.695.32-5.15-2.99-5.113-1.87.018-12.23 1.218-13.43 1.716-2.37.997-2.37 5.464-1.09 6.258h-.02Zm-10.32-5.815c-1.05-1.55-18.42-3.156-15.96 4.338.78 2.344 11.1 2.067 13.34 1.421 2.09-.609 3.71-4.153 2.62-5.74v-.019Zm55.41 5.815c4.73-7.531-15.65-8.196-18.07-6.479-1.07.757-1.46 4.781-.83 5.5.66.794 17.75 2.806 18.9.96v.019Zm47.68 0c1.42 2.362 18.01.683 19.53-1.846 5.29-8.823-19.38-3.766-19.72-2.363-.2.831-.18 3.6.19 4.209Zm584.59-6.904c-3.79-.461-24.24-.369-22.17 6.516.77 2.584 16.53.665 18.97-.129 3.81-1.218 3.37-2.547 3.2-6.387Zm7.29 1.219c-.69.498-1.41 3.23-1.15 4.153 1.2 4.227 18.09 1.218 18.09-2.861 0-4.08-15.09-2.64-16.94-1.292Zm137.54-1.071c-3.02.978-1.89 5.814 1.05 6.7 2.26.665 13.56.942 14.33-1.403 2.11-6.423-11.78-6.46-15.38-5.279v-.018Zm-743.18.849c-2.78-.831-15.07 0-19.16 0-.35 0-1.59 1.108-2.42 1.108-3.31 8.583 18.34 6.608 21.39 4.762 2.5-1.514 2.26-5.242.19-5.87Zm408.46.166c-3.02.997-1.87 5.851 1.05 6.682 3.09.886 14.42 1.735 17.2.462 2.77-1.274 3.36-5.243.59-6.147-1.13-.369-17.75-1.366-18.84-.997Zm358.39 6.756c.35.572 11.76 2.123 13.39 2.067 5.4-.166 8.03-5.574 3.98-6.829-1.63-.499-13.3-1.477-14.99-1.163-2.73.535-3.47 4.116-2.38 5.906v.019Zm-1434.13-4.836c-2.44.683-2.42 5.279.03 6.811 4.83 3.009 18.92.867 13.47-4.375-1.04-.996-12.54-2.695-13.5-2.418v-.018Zm1230.14.166c-3.61.074-16.51 2.215-12.46 7.882 1.33 1.845 14.61-.739 16.27-2.012 3.64-2.788.26-5.962-3.81-5.87Zm-988.07.997c-2.82.424-11.47 2.732-9.36 6.829 2.11 4.098 14.79-.369 15.53-2.676 1.52-4.689-2.66-4.67-6.19-4.153h.02Zm947.07 8.693c1.22 1.957 17.42-.996 18.53-2.861 4.83-8.029-13.7-4.079-16.98-2.861-1.88.702-2.46 4.283-1.57 5.722h.02Zm271.71-7.77c-3.03 1.015-1.98 5.556 1.09 6.663 3.46 1.255 20.83 3.489 15.95-3.839-1.06-1.588-14.87-3.544-17.04-2.824Zm-339.62 2.067c-1.72-1.237-15.35-1.864-16.96-.757-1.61 1.108-1.53 4.67.74 5.408 2.53.831 13.43 1.809 15.78 1.237 1.61-.388 1.72-4.947.44-5.888Zm-1075.64 6.719c.51-.333 1.18-2.917.72-3.877-2.02-4.097-20.09-5.703-16.2 2.012 1.2 2.4 13.76 2.954 15.49 1.865h-.01Zm1089.62-6.756c-3.11 1.015-2.09 5.334 1.31 6.442 3.41 1.107 19.16 2.012 14.73-4.633-1.47-2.178-13.56-2.603-16.04-1.809Zm28.57 6.885c.58.591 14.26.757 15.65-1.994 3.88-7.715-14.2-5.998-15.48-2.362-.28.812-.37 4.171-.17 4.356Zm446.37-6.793c-1.12.166-8.08 2.289-8.37 2.695-5.42 7.568 15.16 5.925 15.75.554.48-4.504-4.14-3.729-7.38-3.267v.018Zm-1546.77 8.805c3.92 1.089 12.13-.794 16.62 0-.22-1.477.71-4.264-.57-5.15-2.31-1.587-18.68-3.378-19.59-.351-.68 1.588 2.59 5.242 3.52 5.501h.02Zm136.59 2.012c3.92-.037 15.8.498 18.26-2.418 2.05-2.437 1.25-5.796-2.48-5.593-2.37.129-12.56 1.347-14.06 2.16-2.49 1.347-1.68 3.322-1.72 5.851Zm1286.09-7.9c-2.55.83-2.37 4.319.02 5.722 2.03 1.181 16.38 4.614 17.4 1.55 2.02-6.128-13.67-8.509-17.42-7.272Zm-1388.41 7.9c2.57.793 14.29 0 18.14 0 1.39 0 2.83-4.929-.15-5.888-2.61-.831-9.54-.056-12.95-.148-2.49-.074-5.93-2.769-6.6 1.532-.22 1.458.11 4.061 1.56 4.504Zm1492.4-5.741c-2.88.277-14.24 1.366-12.83 6.128 1.4 4.763 18.14.536 18.95-2.03 1.59-5.002-2.84-4.393-6.12-4.098Zm-1424.85.72c-3.45 2.843-.99 6.774 3.09 6.996 1.22.074 12.93-1.182 13.56-1.477 2.81-1.347 2.2-5.537.52-5.537h-17.15l-.02.018Zm-28 1.218c-2.92.665-5.12 2.658-2.83 5.409 2.3 2.75 18.44 2.879 16.15-4.006-.81-2.418-10.76-1.975-13.32-1.384v-.019Zm1371.5.886c-.76.886-.35 5.206 1.53 5.815.69.221 11.14 1.273 11.89 1.163 4.26-.665 4.83-5.686.85-6.848-2.2-.646-13-1.662-14.29-.111l.02-.019Zm55.07 1.145c-4.79.867-8.65 6.239-4.1 7.697 2.12.683 17.2-.812 14.38-6.331-.83-2.492-7.89-1.809-10.26-1.385l-.02.019Zm-28.46.775c-2.09 1.218-3.88 5.002-1.55 6.59.51.35 11.17 1.476 12.65 1.458 8.98-.037 7.04-8.066 5.03-8.066h-16.13v.018Z"/><path fill="#D0332E" d="M1789.16 384.76c2.59-.849 20.97 1.827 22.54 3.359 1.81 1.736.96 4.08-1.03 5.04-2.76 1.329-22.25-1.625-23.1-4.135-.58-1.68-.19-3.692 1.57-4.264h.02ZM2495.74 389.633c2.09.628 2.31 4.356-.19 5.87-3.05 1.846-24.71 3.839-21.39-4.762.83 0 2.05-1.108 2.42-1.108 4.09 0 16.38-.831 19.16 0ZM2250.9 374.682c1.79-.591 17.71.461 19.8 1.052 3.92 1.126 3.54 6.073-.92 6.553-1.31.147-16.92-.646-17.81-.923-2.96-.868-4.07-5.704-1.06-6.682h-.01ZM2202.35 369.495c2.11.646 2.2 4.356-.09 5.962-2.3 1.606-19.18 1.532-20.48 0-.77-.941.08-5.943 1.41-5.943 4.09 0 16.4-.831 19.16 0v-.019ZM2904.19 389.799c1.1-.369 17.72.628 18.85.997 2.77.904 2.27 4.818-.59 6.146-2.87 1.329-14.11.425-17.2-.461-2.92-.831-4.09-5.704-1.06-6.682ZM3094.09 388.636c.19 3.84.61 5.169-3.2 6.387-2.46.794-18.2 2.732-18.97.129-2.07-6.885 18.38-6.977 22.17-6.516ZM3363.77 405.747h16.13c2.01 0 3.95 8.011-5.03 8.066-1.48 0-12.14-1.107-12.65-1.458-2.33-1.587-.52-5.371 1.55-6.589v-.019ZM2541.73 393.546c-2.05-8.823 7.4-5.685 12.28-7.125 1.44-.424 5.14-5.685 6.6-1.144 3.09 9.617-12.89 9.081-18.88 8.269ZM2509.5 395.54c-.37-.628-.39-3.378-.19-4.209.34-1.403 25.01-6.46 19.72 2.363-1.52 2.529-18.11 4.208-19.53 1.846ZM2461.82 395.54c-1.15 1.827-18.24-.166-18.9-.96-.61-.738-.22-4.744.83-5.501 2.42-1.716 22.8-1.052 18.07 6.479v-.018ZM1926.11 406.744c-1.45-.443-1.78-3.064-1.56-4.504.67-4.301 4.11-1.606 6.6-1.532 3.39.092 10.34-.683 12.95.148 3 .959 1.54 5.888.15 5.888-3.85 0-15.59.794-18.14 0ZM2172.48 378.447c-.57.886-14.46 3.544-16.49 3.175-2.61-.498-3.26-3.064-2.61-5.463.22-.831 15.53-3.821 16.68-3.655 2.76.406 3.48 4.319 2.42 5.962v-.019ZM1891.84 404.732c-.93-.259-4.2-3.913-3.52-5.501.89-3.027 17.28-1.218 19.59.351 1.29.886.35 3.673.57 5.15-4.49-.794-12.72 1.089-16.62 0h-.02ZM3314.52 398.844c3.75-1.237 19.44 1.144 17.42 7.272-1.02 3.064-15.37-.369-17.4-1.55-2.39-1.403-2.57-4.873-.02-5.722ZM3289.31 393.805c2.17-.72 15.98 1.218 17.04 2.824 4.88 7.328-12.49 5.094-15.95 3.839-3.07-1.107-4.12-5.648-1.09-6.663ZM3017.6 401.576c-.91-1.44-.33-5.003 1.57-5.722 3.26-1.219 21.81-5.187 16.98 2.861-1.11 1.864-17.31 4.817-18.53 2.861h-.02ZM1741.89 381.788c2.81-.387 8.34.48 7.23 4.227-.56 1.846-16.79 7.291-18.66 4.707-3.35-4.707 8.02-8.454 11.43-8.934ZM3262.59 396.555c-1.11-1.791-.35-5.371 2.38-5.907 1.69-.332 13.36.665 14.98 1.163 4.05 1.237 1.43 6.645-3.97 6.83-1.63.055-13.04-1.495-13.39-2.068v-.018ZM2028.43 406.744c.04-2.529-.77-4.504 1.72-5.851 1.52-.813 11.69-2.031 14.06-2.16 3.73-.203 4.53 3.156 2.48 5.593-2.46 2.916-14.34 2.362-18.26 2.418ZM1756.37 382.711c1.26-1.975 19.73-4.928 19.08 2.363-.4 4.614-5.95 1.532-8.54 1.606-2.77.092-9.25 4.061-10.52.258-.32-.941-.48-3.507 0-4.245l-.02.018ZM3418.51 401.003c3.27-.295 7.73-.904 6.12 4.098-.81 2.566-17.57 6.719-18.95 2.03-1.39-4.688 9.95-5.851 12.83-6.128ZM2287.26 377.764c2.71-.812 14.42-.756 15.94 1.791 4.21 7.014-11.64 5.593-15.48 4.393-4.46-1.403-4.09-5.094-.46-6.165v-.019ZM2583.71 381.862c3.96-.424 12.63.019 7.31 5.279-1.28 1.255-15.57 4.227-16.72 2.547-3.98-5.851 5.55-7.42 9.41-7.826ZM2416.73 395.54c-1.26-.794-1.27-5.261 1.09-6.258 1.2-.498 11.56-1.698 13.43-1.716 3.31-.037 4.64 2.399 3 5.113-1.35 2.252-15.65 4.042-17.54 2.861h.02ZM2832.83 376.675c1.79 2.843-.17 5.686-3.35 5.722-2.89.037-15.42-1.218-15.74-4.356-.66-6.848 18.51-2.288 19.09-1.366ZM2864.21 382.601c1.22 1.753-1.35 4.577-3.55 4.983-2.2.406-15.33-1.421-15.65-2.584-2.73-10.023 18.54-3.378 19.2-2.399ZM2357.37 392.402c-.8-.738-1.37-2.658-.82-3.766 1.72-3.581 14.24-1.218 17 .185 2.98 1.532 2.42 5.205-.8 5.833-2.33.443-13.89-.849-15.37-2.252h-.01ZM1993.66 401.723h17.15c1.7 0 2.31 4.172-.52 5.538-.61.295-12.34 1.532-13.56 1.476-4.06-.221-6.52-4.153-3.08-6.995l.01-.019ZM2105.83 384.797c3.72-.498 5.55 1.237 3.79 4.855-1.37 2.805-20.23 8.952-17.53.646.61-1.883 11.41-5.187 13.76-5.501h-.02ZM2217.48 372.522h16.12c2.17 0 3.56 6.922-5.04 7.144-4.54.111-17.31-.812-11.1-7.144h.02ZM2655.34 375.789c3.63-.313 5.64 1.071 3.74 4.818-1.37 2.695-15.48 5.519-17.24 3.064-3.98-5.537 10.04-7.586 13.5-7.882ZM2875.97 385.757c2.37-.775 15.82.092 17.07 1.79 5.44 7.328-13.61 5.039-17.03 3.932-2.5-.812-2.46-4.928-.04-5.704v-.018ZM2788.35 370.677c2.96-.554 15.42.646 14.26 5.186-1.28 4.984-17.29 2.031-17.96.074-.92-2.732 1.05-4.762 3.72-5.26h-.02ZM2963.67 395.835c2.46-.794 14.57-.369 16.04 1.809 4.45 6.645-11.16 5.777-14.73 4.633-3.56-1.145-4.42-5.427-1.31-6.442ZM2949.69 395.872c1.28.923 1.17 5.482-.44 5.888-2.37.572-13.26-.406-15.78-1.237-2.26-.738-2.4-4.263-.74-5.408 1.67-1.144 15.26-.48 16.96.757ZM3058.6 391.885c4.07-.092 7.44 3.101 3.81 5.87-1.66 1.273-14.94 3.857-16.27 2.012-4.05-5.667 8.87-7.808 12.46-7.882ZM3229.08 392.549c-1.07 1.551-15.74.351-17.13-1.329-6.99-8.361 22.66-6.681 17.13 1.329ZM3182.05 384.852c1.85-1.772 17.55-3.34 16.94 2.252-.69 6.239-24.01 4.541-16.94-2.252ZM2322.32 386.606c-1.57-.443-2.98-3.729-2.59-5.427.41-1.864 17.35-.794 18.27-.166 1.98 1.366.76 5.593-.55 5.593-3.52 0-12.6.701-15.13 0ZM2624.27 379.573c-.07 1.403.28 3.064-.15 4.393-.79 2.418-15.88 5.132-16.92 2.031-2.46-7.439 13.02-6.719 17.07-6.424ZM3238.92 388.784c3.6-1.181 17.51-1.144 15.38 5.279-.77 2.344-12.09 2.067-14.33 1.403-2.96-.868-4.07-5.704-1.05-6.7v.018ZM2734.98 372.818c2.84-.333 11.44-1.828 10.15 3.064-1 3.784-16.53 6.128-17.9 2.012-1.59-4.836 4.14-4.67 7.75-5.076ZM2775.5 372.522c.5.517-.04 6.036-1.52 6.036h-16.13c-2.66 0-.98-6.036 1.02-6.036 2.37 0 16.05-.59 16.63 0ZM3171.45 385.849c.81.72 1.55 4.098 1.35 5.15-.35 1.753-16.38 1.292-17.12-.96-2.11-6.405 13.16-6.479 15.79-4.19h-.02ZM3145.41 384.668c.45.332.93 3.064.69 3.987-1.35 5.02-21.14 7.974-16.26-.056 1-1.661 14.63-4.614 15.57-3.931ZM3337.16 403.827c1.29-1.532 12.09-.535 14.29.111 3.98 1.163 3.41 6.184-.85 6.848-.76.111-11.21-.941-11.89-1.163-1.89-.59-2.29-4.91-1.53-5.814l-.02.018ZM3101.38 389.855c1.85-1.348 16.96-2.917 16.94 1.292-.02 4.208-16.89 7.088-18.09 2.861-.26-.905.46-3.655 1.15-4.153ZM2133.03 378.798c3.67-.627 11.01-1.44 9.21 4.135-.98 3.045-20.23 6.645-16.53-.369.91-1.735 5.38-3.434 7.32-3.766ZM1965.66 402.941c2.54-.572 12.51-1.033 13.32 1.385 2.31 6.903-13.85 6.737-16.15 4.005-2.29-2.732-.09-4.725 2.83-5.408v.018ZM1874.05 402.591c-1.72 1.089-14.28.535-15.5-1.865-3.89-7.715 14.2-6.109 16.2-2.012.46.96-.21 3.544-.72 3.877h.02ZM2992.24 402.72c-.18-.185-.11-3.544.17-4.356 1.26-3.637 19.35-5.353 15.48 2.362-1.39 2.769-15.09 2.584-15.65 1.994ZM3392.23 404.972c2.39-.425 9.43-1.126 10.27 1.384 2.81 5.519-12.27 7.014-14.39 6.331-4.55-1.476-.69-6.848 4.1-7.697l.02-.018ZM1828.46 391.719c.96-.277 12.44 1.421 13.5 2.418 5.47 5.242-8.62 7.383-13.47 4.374-2.45-1.532-2.47-6.109-.03-6.811v.019ZM2690.66 376.694c.5.812.54 4.282-.44 5.002-.72.517-10.45 1.717-12.06 1.717-3.49 0-4.44-1.957-3.35-5.206.74-2.196 14.61-3.488 15.84-1.513h.01ZM2406.41 389.725c1.07 1.606-.53 5.132-2.62 5.741-2.24.646-12.56.923-13.34-1.421-2.46-7.494 14.91-5.889 15.96-4.338v.018ZM2070.52 392.882c3.52-.517 7.72-.536 6.2 4.153-.74 2.307-13.41 6.792-15.53 2.676-2.13-4.116 6.54-6.405 9.35-6.829h-.02ZM3438.61 395.927c3.24-.461 7.86-1.236 7.38 3.267-.57 5.372-21.17 6.996-15.75-.553.29-.406 7.25-2.548 8.37-2.695v-.019ZM2710.75 373.759c3.44-.406 6.4-.221 5.12 4.116-.83 2.806-12.59 6.387-14.52 2.695-2.31-4.43 6.14-6.423 9.4-6.811Z"/></g><g clip-path="url(#b)"><path fill="#2F7346" d="M0 0v410.768c25.54 3.544 51.21 8.546 77.175 8.103 34.843-.572 67.614-10.189 101.791-14.121 34.176-3.931 67.151-5.906 100.773-5.002 73.921 2.012 145.307 14.121 219.856 11.075 68.853-2.824 135.246-24.992 204.654-23.239 95.632 2.4 187.048 20.95 284.308 20.212 72.623-.535 139.023-9.266 210.683-15.136 84.91-6.959 157.96 14.951 240.81 25.288 2.03.258 16.11 1.052 21.66 1.052h31.44c5.54 0 11.74-1.071 14.55-1.218 27.56-1.495 55.17-.296 82.7-2.99 33.11-3.249 68.03-13.309 99.84-16.078 12.68-1.107 25.26 1.736 37.78 3.009V0H0Zm1252.65 369.495c2.76-.83 15.07 0 19.16 0 1.33 0 2.18 5.021 1.41 5.944-1.3 1.55-18.11 1.679-20.48 0-2.36-1.68-2.2-5.316-.09-5.962v.018Zm-585.999 1.182c2.645.498 4.642 2.528 3.717 5.26-.666 1.957-16.681 4.91-17.957-.074-1.166-4.54 11.299-5.74 14.258-5.186h-.018Zm615.869 7.77c-1.06-1.642-.34-5.555 2.42-5.962 1.13-.166 16.44 2.843 16.68 3.655.67 2.4 0 4.984-2.61 5.464-2.03.387-15.92-2.271-16.49-3.175v.018Zm-45-5.925c6.22 6.332-6.54 7.254-11.09 7.144-8.6-.222-7.2-7.144-5.05-7.144h16.14Zm-517.496.296c3.607.406 9.34.258 7.749 5.076-1.368 4.116-16.903 1.772-17.902-2.012-1.294-4.892 7.324-3.397 10.153-3.064Zm-40.52-.296c.574-.59 14.278 0 16.626 0 1.979 0 3.681 6.036 1.017 6.036h-16.126c-1.48 0-2.016-5.519-1.517-6.036Zm64.748 1.237c3.254.388 11.688 2.381 9.395 6.811-1.924 3.673-13.686.092-14.518-2.695-1.276-4.319 1.664-4.522 5.123-4.116Zm459.848.923c3.02.978 1.89 5.814-1.05 6.682-.89.258-16.5 1.052-17.81.923-4.46-.48-4.85-5.427-.93-6.553 2.09-.591 18.02-1.643 19.81-1.052h-.02Zm-581.927 1.993c.573-.922 19.752-5.482 19.086 1.366-.315 3.12-12.835 4.375-15.739 4.356-3.181-.036-5.141-2.861-3.347-5.722Zm177.486-.886c3.459.296 17.477 2.345 13.501 7.882-1.757 2.437-15.868-.369-17.236-3.064-1.905-3.747.111-5.131 3.735-4.818Zm-35.323.905c1.221-1.975 15.091-.702 15.831 1.513 1.109 3.249.148 5.206-3.348 5.206-1.609 0-11.336-1.2-12.058-1.717-.98-.72-.943-4.19-.444-5.002h.019Zm403.404 1.07c3.61 1.071 3.98 4.781-.46 6.166-3.84 1.199-19.69 2.621-15.48-4.394 1.52-2.528 13.23-2.584 15.94-1.79v.018Zm154.23 1.034c1.94.332 6.39 2.031 7.32 3.766 3.7 7.014-15.55 3.414-16.53.369-1.8-5.575 5.56-4.762 9.21-4.135Zm-189.29 7.808c-2.53.701-11.61 0-15.13 0-1.31 0-2.53-4.227-.55-5.593.92-.627 17.84-1.698 18.27.166.37 1.698-1.02 4.984-2.59 5.427Zm-301.951-7.033c4.05-.295 19.53-1.015 17.07 6.424-1.017 3.082-16.127.387-16.922-2.031-.425-1.31-.074-2.99-.148-4.393Zm-239.94 3.028c.684-.979 21.952-7.605 19.196 2.399-.314 1.163-13.5 2.99-15.645 2.584-2.146-.406-4.772-3.248-3.551-4.983Zm1107.841.11c.46.739.3 3.304 0 4.246-1.27 3.802-7.75-.185-10.52-.259-2.59-.074-8.14 3.009-8.55-1.606-.64-7.291 17.83-4.337 19.09-2.362l-.02-.019Zm14.48-.923c3.41.462 14.78 4.227 11.43 8.934-1.85 2.603-18.1-2.861-18.66-4.707-1.11-3.747 4.4-4.614 7.23-4.227Zm-841.824.074c3.866.425 13.39 1.975 9.414 7.826-1.147 1.68-15.443-1.292-16.719-2.547-5.326-5.26 3.348-5.703 7.305-5.279Zm41.982 11.684c-5.992.812-21.971 1.329-18.883-8.269 1.461-4.541 5.142.72 6.603 1.144 4.901 1.44 14.332-1.698 12.28 7.125Zm-640.316-8.694c7.065 6.793-16.256 8.51-16.941 2.252-.61-5.611 15.091-4.042 16.941-2.252Zm1392.888-.092c1.76.572 2.15 2.584 1.57 4.264-.85 2.492-20.34 5.464-23.1 4.135-1.97-.96-2.82-3.304-1.03-5.039 1.59-1.514 19.95-4.19 22.54-3.36h.02Zm-316.67.037c2.33.314 13.15 3.618 13.76 5.501 2.7 8.324-16.16 2.159-17.53-.646-1.78-3.618.05-5.353 3.79-4.855h-.02Zm-1039.582-.129c.944-.683 14.574 2.289 15.572 3.931 4.883 8.03-14.906 5.095-16.256.056-.24-.923.222-3.673.684-3.987Zm-26.039 1.181c2.626-2.289 17.902-2.215 15.794 4.19-.74 2.252-16.774 2.732-17.126.96-.203-1.052.518-4.448 1.35-5.15h-.018Zm295.478-.092c2.441.794 2.459 4.891-.037 5.703-3.422 1.126-22.47 3.415-17.033-3.931 1.257-1.698 14.684-2.547 17.07-1.791v.019Zm-353.105 6.792c-5.53-8.01 24.116-9.69 17.125-1.329-1.405 1.68-16.053 2.88-17.125 1.329Zm871.708-.147c-1.48 1.403-13.05 2.713-15.36 2.252-3.24-.628-3.78-4.301-.8-5.833 2.76-1.421 15.26-3.766 17-.185.55 1.108-.02 3.027-.82 3.766h-.02Zm-59.36 3.138c-1.89 1.181-16.18-.628-17.53-2.861-1.63-2.695-.32-5.15 2.99-5.113 1.87.018 12.23 1.218 13.43 1.716 2.37.997 2.37 5.464 1.09 6.258h.02Zm10.32-5.815c1.05-1.55 18.42-3.156 15.96 4.338-.78 2.344-11.1 2.067-13.34 1.421-2.09-.609-3.71-4.153-2.62-5.74v-.019Zm-55.41 5.815c-4.734-7.531 15.65-8.196 18.07-6.479 1.07.757 1.46 4.781.83 5.5-.66.794-17.753 2.806-18.9.96v.019Zm-47.677 0c-1.424 2.362-18.013.683-19.53-1.846-5.289-8.823 19.382-3.766 19.715-2.363.203.831.185 3.6-.185 4.209Zm-584.594-6.904c3.791-.461 24.246-.369 22.174 6.516-.776 2.584-16.533.665-18.974-.129-3.81-1.218-3.366-2.547-3.2-6.387Zm-7.287 1.219c.685.498 1.406 3.23 1.147 4.153-1.202 4.227-18.087 1.218-18.087-2.861 0-4.08 15.091-2.64 16.94-1.292Zm-137.539-1.071c3.014.978 1.886 5.814-1.054 6.7-2.256.665-13.556.942-14.333-1.403-2.108-6.423 11.781-6.46 15.387-5.279v-.018Zm743.179.849c2.774-.831 15.073 0 19.16 0 .351 0 1.59 1.108 2.423 1.108 3.31 8.583-18.346 6.608-21.398 4.762-2.497-1.514-2.256-5.242-.185-5.87Zm-408.457.166c3.014.997 1.868 5.851-1.054 6.682-3.089.886-14.426 1.735-17.2.462-2.774-1.274-3.365-5.243-.591-6.147 1.128-.369 17.754-1.366 18.845-.997Zm-358.394 6.756c-.352.572-11.762 2.123-13.39 2.067-5.4-.166-8.026-5.574-3.976-6.829 1.627-.499 13.297-1.477 14.98-1.163 2.737.535 3.477 4.116 2.386 5.906v.019Zm1434.129-4.836c2.44.683 2.42 5.279-.03 6.811-4.83 3.009-18.92.867-13.47-4.375 1.04-.996 12.54-2.695 13.5-2.418v-.018Zm-1230.141.166c3.606.074 16.515 2.215 12.465 7.882-1.332 1.845-14.61-.739-16.275-2.012-3.643-2.788-.259-5.962 3.81-5.87Zm988.071.997c2.82.424 11.47 2.732 9.36 6.829-2.11 4.098-14.79-.369-15.53-2.676-1.52-4.689 2.66-4.67 6.19-4.153h-.02Zm-947.07 8.693c-1.221 1.957-17.421-.996-18.531-2.861-4.827-8.029 13.704-4.079 16.978-2.861 1.886.702 2.459 4.283 1.571 5.722h-.018Zm-271.713-7.77c3.033 1.015 1.979 5.556-1.091 6.663-3.458 1.255-20.824 3.489-15.942-3.839 1.054-1.588 14.869-3.544 17.033-2.824Zm339.623 2.067c1.72-1.237 15.35-1.864 16.959-.757 1.609 1.108 1.535 4.67-.74 5.408-2.534.831-13.427 1.809-15.775 1.237-1.609-.388-1.72-4.947-.444-5.888Zm1075.64 6.719c-.51-.333-1.18-2.917-.72-3.877 2.02-4.097 20.09-5.703 16.2 2.012-1.2 2.4-13.76 2.954-15.49 1.865h.01Zm-1089.622-6.756c3.107 1.015 2.09 5.334-1.313 6.442-3.403 1.107-19.159 2.012-14.721-4.633 1.461-2.178 13.556-2.603 16.034-1.809Zm-28.573 6.885c-.573.591-14.259.757-15.646-1.994-3.883-7.715 14.204-5.998 15.48-2.362.277.812.37 4.171.166 4.356Zm-446.37-6.793c1.128.166 8.082 2.289 8.378 2.695 5.419 7.568-15.165 5.925-15.757.554-.48-4.504 4.143-3.729 7.38-3.267v.018Zm1546.775 8.805c-3.92 1.089-12.13-.794-16.62 0 .22-1.477-.71-4.264.57-5.15 2.31-1.587 18.68-3.378 19.59-.351.68 1.588-2.59 5.242-3.52 5.501h-.02Zm-136.59 2.012c-3.92-.037-15.8.498-18.26-2.418-2.05-2.437-1.25-5.796 2.48-5.593 2.37.129 12.56 1.347 14.06 2.16 2.49 1.347 1.68 3.322 1.72 5.851Zm-1286.09-7.9c2.552.83 2.367 4.319-.019 5.722-2.034 1.181-16.385 4.614-17.403 1.55-2.015-6.128 13.667-8.509 17.422-7.272Zm1388.41 7.9c-2.57.793-14.29 0-18.14 0-1.39 0-2.83-4.929.15-5.888 2.61-.831 9.54-.056 12.95-.148 2.49-.074 5.93-2.769 6.6 1.532.22 1.458-.11 4.061-1.56 4.504ZM36.488 401.003c2.885.277 14.24 1.366 12.835 6.128-1.405 4.763-18.142.536-18.956-2.03-1.59-5.002 2.848-4.393 6.121-4.098Zm1424.852.72c3.45 2.843.99 6.774-3.09 6.996-1.22.074-12.93-1.182-13.56-1.477-2.81-1.347-2.2-5.537-.52-5.537h17.15l.02.018Zm28 1.218c2.92.665 5.12 2.658 2.83 5.409-2.3 2.75-18.44 2.879-16.15-4.006.81-2.418 10.76-1.975 13.32-1.384v-.019Zm-1371.497.886c.758.886.352 5.206-1.535 5.815-.684.221-11.133 1.273-11.891 1.163-4.254-.665-4.827-5.686-.851-6.848 2.201-.646 13.001-1.662 14.296-.111l-.019-.019Zm-55.075 1.145c4.79.867 8.655 6.239 4.106 7.697-2.127.683-17.2-.812-14.388-6.331.832-2.492 7.897-1.809 10.264-1.385l.018.019Zm28.462.775c2.09 1.218 3.884 5.002 1.554 6.59-.518.35-11.17 1.476-12.65 1.458-8.988-.037-7.046-8.066-5.03-8.066H91.23v.018Z"/><path fill="#D0332E" d="M1665.84 384.76c-2.59-.849-20.97 1.827-22.54 3.359-1.81 1.736-.96 4.08 1.03 5.04 2.76 1.329 22.25-1.625 23.1-4.135.58-1.68.19-3.692-1.57-4.264h-.02ZM959.262 389.633c-2.089.628-2.311 4.356.185 5.87 3.052 1.846 24.708 3.839 21.398-4.762-.832 0-2.053-1.108-2.423-1.108-4.087 0-16.386-.831-19.16 0ZM1204.1 374.682c-1.79-.591-17.71.461-19.8 1.052-3.92 1.126-3.54 6.073.92 6.553 1.31.147 16.92-.646 17.81-.923 2.96-.868 4.07-5.704 1.06-6.682h.01ZM1252.65 369.495c-2.11.646-2.2 4.356.09 5.962 2.3 1.606 19.18 1.532 20.48 0 .77-.941-.08-5.943-1.41-5.943-4.09 0-16.4-.831-19.16 0v-.019ZM550.805 389.799c-1.091-.369-17.717.628-18.845.997-2.774.904-2.275 4.818.592 6.146 2.866 1.329 14.11.425 17.199-.461 2.922-.831 4.087-5.704 1.054-6.682ZM360.909 388.636c-.185 3.84-.61 5.169 3.2 6.387 2.459.794 18.198 2.732 18.974.129 2.072-6.885-18.383-6.977-22.174-6.516ZM91.23 405.747H75.105c-2.016 0-3.958 8.011 5.03 8.066 1.48 0 12.132-1.107 12.65-1.458 2.33-1.587.518-5.371-1.553-6.589v-.019ZM913.268 393.546c2.053-8.823-7.398-5.685-12.28-7.125-1.443-.424-5.141-5.685-6.602-1.144-3.089 9.617 12.89 9.081 18.882 8.269ZM945.503 395.54c.37-.628.388-3.378.185-4.209-.333-1.403-25.004-6.46-19.715 2.363 1.517 2.529 18.106 4.208 19.53 1.846ZM993.18 395.54c1.147 1.827 18.24-.166 18.9-.96.61-.738.22-4.744-.83-5.501-2.42-1.716-22.804-1.052-18.07 6.479v-.018ZM1528.89 406.744c1.45-.443 1.78-3.064 1.56-4.504-.67-4.301-4.11-1.606-6.6-1.532-3.39.092-10.34-.683-12.95.148-3 .959-1.54 5.888-.15 5.888 3.85 0 15.59.794 18.14 0ZM1282.52 378.447c.57.886 14.46 3.544 16.49 3.175 2.61-.498 3.26-3.064 2.61-5.463-.22-.831-15.53-3.821-16.68-3.655-2.76.406-3.48 4.319-2.42 5.962v-.019ZM1563.16 404.732c.93-.259 4.2-3.913 3.52-5.501-.89-3.027-17.28-1.218-19.59.351-1.29.886-.35 3.673-.57 5.15 4.49-.794 12.72 1.089 16.62 0h.02ZM140.48 398.844c-3.754-1.237-19.437 1.144-17.421 7.272 1.017 3.064 15.368-.369 17.403-1.55 2.385-1.403 2.57-4.873.018-5.722ZM165.687 393.805c-2.164-.72-15.978 1.218-17.033 2.824-4.882 7.328 12.484 5.094 15.942 3.839 3.07-1.107 4.124-5.648 1.091-6.663ZM437.4 401.576c.906-1.44.333-5.003-1.572-5.722-3.255-1.219-21.804-5.187-16.977 2.861 1.109 1.864 17.31 4.817 18.531 2.861h.018ZM1713.11 381.788c-2.81-.387-8.34.48-7.23 4.227.56 1.846 16.79 7.291 18.66 4.707 3.35-4.707-8.02-8.454-11.43-8.934ZM192.411 396.555c1.11-1.791.351-5.371-2.386-5.907-1.683-.332-13.352.665-14.98 1.163-4.05 1.237-1.424 6.645 3.976 6.83 1.628.055 13.039-1.495 13.39-2.068v-.018ZM1426.57 406.744c-.04-2.529.77-4.504-1.72-5.851-1.52-.813-11.69-2.031-14.06-2.16-3.73-.203-4.53 3.156-2.48 5.593 2.46 2.916 14.34 2.362 18.26 2.418ZM1698.63 382.711c-1.26-1.975-19.73-4.928-19.08 2.363.4 4.614 5.95 1.532 8.54 1.606 2.77.092 9.25 4.061 10.52.258.32-.941.48-3.507 0-4.245l.02.018ZM36.488 401.003c-3.273-.295-7.73-.904-6.121 4.098.814 2.566 17.57 6.719 18.956 2.03 1.387-4.688-9.95-5.851-12.835-6.128ZM1167.74 377.764c-2.71-.812-14.42-.756-15.94 1.791-4.21 7.014 11.64 5.593 15.48 4.393 4.46-1.403 4.09-5.094.46-6.165v-.019ZM871.287 381.862c-3.958-.424-12.632.019-7.306 5.279 1.277 1.255 15.572 4.227 16.719 2.547 3.976-5.851-5.548-7.42-9.413-7.826ZM1038.27 395.54c1.26-.794 1.27-5.261-1.09-6.258-1.2-.498-11.56-1.698-13.43-1.716-3.31-.037-4.64 2.399-3 5.113 1.35 2.252 15.65 4.042 17.54 2.861h-.02ZM622.173 376.675c-1.794 2.843.167 5.686 3.348 5.722 2.885.037 15.424-1.218 15.738-4.356.666-6.848-18.513-2.288-19.086-1.366ZM590.789 382.601c-1.221 1.753 1.35 4.577 3.551 4.983 2.201.406 15.331-1.421 15.646-2.584 2.737-10.023-18.531-3.378-19.197-2.399ZM1097.63 392.402c.8-.738 1.37-2.658.82-3.766-1.72-3.581-14.24-1.218-17 .185-2.98 1.532-2.42 5.205.8 5.833 2.33.443 13.89-.849 15.37-2.252h.01ZM1461.34 401.723h-17.15c-1.7 0-2.31 4.172.52 5.538.61.295 12.34 1.532 13.56 1.476 4.06-.221 6.52-4.153 3.08-6.995l-.01-.019ZM1349.17 384.797c-3.72-.498-5.55 1.237-3.79 4.855 1.37 2.805 20.23 8.952 17.53.646-.61-1.883-11.41-5.187-13.76-5.501h.02ZM1237.52 372.522h-16.12c-2.17 0-3.56 6.922 5.04 7.144 4.54.111 17.31-.812 11.1-7.144h-.02ZM799.66 375.789c-3.625-.313-5.641 1.071-3.736 4.818 1.368 2.695 15.479 5.519 17.236 3.064 3.976-5.537-10.042-7.586-13.5-7.882ZM579.027 385.757c-2.367-.775-15.812.092-17.07 1.79-5.437 7.328 13.612 5.039 17.033 3.932 2.497-.812 2.46-4.928.037-5.704v-.018ZM666.651 370.677c-2.959-.554-15.424.646-14.259 5.186 1.276 4.984 17.292 2.031 17.958.074.925-2.732-1.054-4.762-3.717-5.26h.018ZM491.329 395.835c-2.46-.794-14.574-.369-16.035 1.809-4.457 6.645 11.152 5.777 14.721 4.633 3.57-1.145 4.421-5.427 1.314-6.442ZM505.31 395.872c-1.276.923-1.165 5.482.444 5.888 2.367.572 13.26-.406 15.775-1.237 2.256-.738 2.404-4.263.74-5.408-1.665-1.144-15.258-.48-16.959.757ZM396.399 391.885c-4.069-.092-7.434 3.101-3.81 5.87 1.665 1.273 14.943 3.857 16.275 2.012 4.05-5.667-8.877-7.808-12.465-7.882ZM225.922 392.549c1.073 1.551 15.738.351 17.125-1.329 6.991-8.361-22.655-6.681-17.125 1.329ZM272.952 384.852c-1.849-1.772-17.551-3.34-16.94 2.252.684 6.239 24.005 4.541 16.94-2.252ZM1132.68 386.606c1.57-.443 2.98-3.729 2.59-5.427-.41-1.864-17.35-.794-18.27-.166-1.98 1.366-.76 5.593.55 5.593 3.52 0 12.6.701 15.13 0ZM830.729 379.573c.074 1.403-.277 3.064.148 4.393.796 2.418 15.887 5.132 16.922 2.031 2.46-7.439-13.02-6.719-17.07-6.424ZM216.083 388.784c-3.606-1.181-17.514-1.144-15.387 5.279.777 2.344 12.095 2.067 14.333 1.403 2.959-.868 4.069-5.704 1.054-6.7v.018ZM720.025 372.818c-2.848-.333-11.448-1.828-10.154 3.064.999 3.784 16.534 6.128 17.903 2.012 1.59-4.836-4.143-4.67-7.749-5.076ZM679.504 372.522c-.499.517.037 6.036 1.517 6.036h16.126c2.664 0 .981-6.036-1.017-6.036-2.367 0-16.052-.59-16.626 0ZM283.549 385.849c-.814.72-1.553 4.098-1.35 5.15.351 1.753 16.386 1.292 17.125-.96 2.109-6.405-13.167-6.479-15.793-4.19h.018ZM309.588 384.668c-.443.332-.924 3.064-.684 3.987 1.35 5.02 21.139 7.974 16.256-.056-.998-1.661-14.628-4.614-15.572-3.931ZM117.843 403.827c-1.294-1.532-12.095-.535-14.296.111-3.976 1.163-3.402 6.184.851 6.848.758.111 11.208-.941 11.892-1.163 1.886-.59 2.293-4.91 1.535-5.814l.018.018ZM353.623 389.855c-1.85-1.348-16.959-2.917-16.941 1.292.019 4.208 16.885 7.088 18.087 2.861.259-.905-.462-3.655-1.146-4.153ZM1321.97 378.798c-3.67-.627-11.01-1.44-9.21 4.135.98 3.045 20.23 6.645 16.53-.369-.91-1.735-5.38-3.434-7.32-3.766ZM1489.34 402.941c-2.54-.572-12.51-1.033-13.32 1.385-2.31 6.903 13.85 6.737 16.15 4.005 2.29-2.732.09-4.725-2.83-5.408v.018ZM1580.95 402.591c1.72 1.089 14.28.535 15.5-1.865 3.89-7.715-14.2-6.109-16.2-2.012-.46.96.21 3.544.72 3.877h-.02ZM462.755 402.72c.185-.185.111-3.544-.166-4.356-1.258-3.637-19.345-5.353-15.479 2.362 1.387 2.769 15.091 2.584 15.645 1.994ZM62.769 404.972c-2.386-.425-9.432-1.126-10.265 1.384-2.81 5.519 12.262 7.014 14.389 6.331 4.55-1.476.684-6.848-4.106-7.697l-.018-.018ZM1626.54 391.719c-.96-.277-12.44 1.421-13.5 2.418-5.47 5.242 8.62 7.383 13.47 4.374 2.45-1.532 2.47-6.109.03-6.811v.019ZM764.336 376.694c-.499.812-.536 4.282.444 5.002.721.517 10.449 1.717 12.058 1.717 3.495 0 4.439-1.957 3.347-5.206-.739-2.196-14.61-3.488-15.83-1.513h-.019ZM1048.59 389.725c-1.07 1.606.53 5.132 2.62 5.741 2.24.646 12.56.923 13.34-1.421 2.46-7.494-14.91-5.889-15.96-4.338v.018ZM1384.48 392.882c-3.52-.517-7.72-.536-6.2 4.153.74 2.307 13.41 6.792 15.53 2.676 2.13-4.116-6.54-6.405-9.35-6.829h.02ZM16.386 395.927c-3.237-.461-7.86-1.236-7.38 3.267.574 5.372 21.176 6.996 15.758-.553-.296-.406-7.25-2.548-8.378-2.695v-.019ZM744.252 373.759c-3.44-.406-6.399-.221-5.123 4.116.832 2.806 12.594 6.387 14.518 2.695 2.311-4.43-6.14-6.423-9.395-6.811Z"/></g><g clip-path="url(#c)"><path fill="#2F7346" d="M3454 0v410.768c25.54 3.544 51.21 8.546 77.18 8.103 34.84-.572 67.61-10.189 101.79-14.121 34.17-3.931 67.15-5.906 100.77-5.002 73.92 2.012 145.31 14.121 219.86 11.075 68.85-2.824 135.24-24.992 204.65-23.239 95.63 2.4 187.05 20.95 284.31 20.212 72.62-.535 139.02-9.266 210.68-15.136 84.91-6.959 157.96 14.951 240.81 25.288 2.03.258 16.11 1.052 21.66 1.052h31.44c5.54 0 11.74-1.071 14.55-1.218 27.56-1.495 55.17-.296 82.71-2.99 33.1-3.249 68.02-13.309 99.83-16.078 12.68-1.107 25.26 1.736 37.78 3.009V0H3454Zm1252.65 369.495c2.76-.83 15.07 0 19.16 0 1.33 0 2.18 5.021 1.41 5.944-1.3 1.55-18.11 1.679-20.48 0-2.36-1.68-2.2-5.316-.09-5.962v.018Zm-586 1.182c2.65.498 4.64 2.528 3.72 5.26-.67 1.957-16.68 4.91-17.96-.074-1.16-4.54 11.3-5.74 14.26-5.186h-.02Zm615.87 7.77c-1.06-1.642-.33-5.555 2.42-5.962 1.13-.166 16.44 2.843 16.68 3.655.67 2.4 0 4.984-2.61 5.464-2.03.387-15.92-2.271-16.49-3.175v.018Zm-45-5.925c6.22 6.332-6.54 7.254-11.09 7.144-8.6-.222-7.2-7.144-5.05-7.144h16.14Zm-517.5.296c3.61.406 9.34.258 7.75 5.076-1.36 4.116-16.9 1.772-17.9-2.012-1.29-4.892 7.33-3.397 10.15-3.064Zm-40.52-.296c.58-.59 14.28 0 16.63 0 1.98 0 3.68 6.036 1.02 6.036h-16.13c-1.48 0-2.01-5.519-1.52-6.036Zm64.75 1.237c3.26.388 11.69 2.381 9.4 6.811-1.93 3.673-13.69.092-14.52-2.695-1.28-4.319 1.66-4.522 5.12-4.116Zm459.85.923c3.02.978 1.89 5.814-1.05 6.682-.89.258-16.5 1.052-17.81.923-4.46-.48-4.85-5.427-.92-6.553 2.08-.591 18.01-1.643 19.8-1.052h-.02Zm-581.93 1.993c.58-.922 19.75-5.482 19.09 1.366-.32 3.12-12.84 4.375-15.74 4.356-3.18-.036-5.14-2.861-3.35-5.722Zm177.49-.886c3.46.296 17.48 2.345 13.5 7.882-1.76 2.437-15.87-.369-17.24-3.064-1.9-3.747.11-5.131 3.74-4.818Zm-35.32.905c1.22-1.975 15.09-.702 15.83 1.513 1.11 3.249.14 5.206-3.35 5.206-1.61 0-11.34-1.2-12.06-1.717-.98-.72-.94-4.19-.44-5.002h.02Zm403.4 1.07c3.61 1.071 3.98 4.781-.46 6.166-3.84 1.199-19.69 2.621-15.48-4.394 1.52-2.528 13.23-2.584 15.94-1.79v.018Zm154.23 1.034c1.94.332 6.39 2.031 7.32 3.766 3.7 7.014-15.55 3.414-16.53.369-1.8-5.575 5.56-4.762 9.21-4.135Zm-189.29 7.808c-2.53.701-11.61 0-15.13 0-1.31 0-2.53-4.227-.55-5.593.92-.627 17.84-1.698 18.27.166.37 1.698-1.02 4.984-2.59 5.427Zm-301.95-7.033c4.05-.295 19.53-1.015 17.07 6.424-1.02 3.082-16.13.387-16.92-2.031-.43-1.31-.08-2.99-.15-4.393Zm-239.94 3.028c.68-.979 21.95-7.605 19.2 2.399-.32 1.163-13.5 2.99-15.65 2.584-2.15-.406-4.77-3.248-3.55-4.983Zm1107.84.11c.46.739.3 3.304 0 4.246-1.27 3.802-7.75-.185-10.52-.259-2.59-.074-8.14 3.009-8.55-1.606-.64-7.291 17.83-4.337 19.09-2.362l-.02-.019Zm14.48-.923c3.41.462 14.78 4.227 11.43 8.934-1.85 2.603-18.1-2.861-18.66-4.707-1.11-3.747 4.4-4.614 7.23-4.227Zm-841.82.074c3.86.425 13.39 1.975 9.41 7.826-1.15 1.68-15.44-1.292-16.72-2.547-5.32-5.26 3.35-5.703 7.31-5.279Zm41.98 11.684c-5.99.812-21.97 1.329-18.88-8.269 1.46-4.541 5.14.72 6.6 1.144 4.9 1.44 14.33-1.698 12.28 7.125Zm-640.32-8.694c7.07 6.793-16.25 8.51-16.94 2.252-.61-5.611 15.09-4.042 16.94-2.252Zm1392.89-.092c1.76.572 2.15 2.584 1.57 4.264-.85 2.492-20.34 5.464-23.1 4.135-1.97-.96-2.82-3.304-1.03-5.039 1.59-1.514 19.95-4.19 22.54-3.36h.02Zm-316.67.037c2.33.314 13.15 3.618 13.76 5.501 2.7 8.324-16.16 2.159-17.53-.646-1.78-3.618.05-5.353 3.79-4.855h-.02Zm-1039.58-.129c.94-.683 14.57 2.289 15.57 3.931 4.88 8.03-14.91 5.095-16.26.056-.24-.923.23-3.673.69-3.987Zm-26.04 1.181c2.63-2.289 17.9-2.215 15.79 4.19-.74 2.252-16.77 2.732-17.12.96-.21-1.052.52-4.448 1.35-5.15h-.02Zm295.48-.092c2.44.794 2.46 4.891-.04 5.703-3.42 1.126-22.47 3.415-17.03-3.931 1.25-1.698 14.68-2.547 17.07-1.791v.019Zm-353.11 6.792c-5.53-8.01 24.12-9.69 17.13-1.329-1.41 1.68-16.06 2.88-17.13 1.329Zm871.71-.147c-1.48 1.403-13.05 2.713-15.36 2.252-3.24-.628-3.78-4.301-.8-5.833 2.76-1.421 15.26-3.766 17-.185.55 1.108-.02 3.027-.82 3.766h-.02Zm-59.36 3.138c-1.89 1.181-16.18-.628-17.53-2.861-1.63-2.695-.32-5.15 2.99-5.113 1.87.018 12.23 1.218 13.43 1.716 2.37.997 2.37 5.464 1.09 6.258h.02Zm10.32-5.815c1.05-1.55 18.42-3.156 15.96 4.338-.78 2.344-11.1 2.067-13.34 1.421-2.09-.609-3.71-4.153-2.62-5.74v-.019Zm-55.41 5.815c-4.73-7.531 15.65-8.196 18.07-6.479 1.07.757 1.46 4.781.83 5.5-.66.794-17.75 2.806-18.9.96v.019Zm-47.68 0c-1.42 2.362-18.01.683-19.53-1.846-5.29-8.823 19.38-3.766 19.72-2.363.2.831.18 3.6-.19 4.209Zm-584.59-6.904c3.79-.461 24.24-.369 22.17 6.516-.77 2.584-16.53.665-18.97-.129-3.81-1.218-3.37-2.547-3.2-6.387Zm-7.29 1.219c.69.498 1.41 3.23 1.15 4.153-1.2 4.227-18.09 1.218-18.09-2.861 0-4.08 15.09-2.64 16.94-1.292Zm-137.54-1.071c3.02.978 1.89 5.814-1.05 6.7-2.26.665-13.56.942-14.33-1.403-2.11-6.423 11.78-6.46 15.38-5.279v-.018Zm743.18.849c2.78-.831 15.07 0 19.16 0 .35 0 1.59 1.108 2.42 1.108 3.32 8.583-18.34 6.608-21.39 4.762-2.5-1.514-2.26-5.242-.19-5.87Zm-408.45.166c3.01.997 1.86 5.851-1.06 6.682-3.09.886-14.42 1.735-17.2.462-2.77-1.274-3.36-5.243-.59-6.147 1.13-.369 17.75-1.366 18.85-.997Zm-358.4 6.756c-.35.572-11.76 2.123-13.39 2.067-5.4-.166-8.03-5.574-3.97-6.829 1.62-.499 13.29-1.477 14.98-1.163 2.73.535 3.47 4.116 2.38 5.906v.019Zm1434.13-4.836c2.44.683 2.42 5.279-.03 6.811-4.83 3.009-18.92.867-13.47-4.375 1.04-.996 12.54-2.695 13.5-2.418v-.018Zm-1230.14.166c3.61.074 16.51 2.215 12.46 7.882-1.33 1.845-14.61-.739-16.27-2.012-3.64-2.788-.26-5.962 3.81-5.87Zm988.08.997c2.81.424 11.46 2.732 9.35 6.829-2.11 4.098-14.79-.369-15.53-2.676-1.52-4.689 2.66-4.67 6.19-4.153h-.01Zm-947.08 8.693c-1.22 1.957-17.42-.996-18.53-2.861-4.83-8.029 13.7-4.079 16.98-2.861 1.88.702 2.46 4.283 1.57 5.722h-.02Zm-271.71-7.77c3.03 1.015 1.98 5.556-1.09 6.663-3.46 1.255-20.83 3.489-15.95-3.839 1.06-1.588 14.87-3.544 17.04-2.824Zm339.62 2.067c1.72-1.237 15.35-1.864 16.96-.757 1.61 1.108 1.53 4.67-.74 5.408-2.53.831-13.43 1.809-15.78 1.237-1.61-.388-1.72-4.947-.44-5.888Zm1075.64 6.719c-.51-.333-1.18-2.917-.72-3.877 2.02-4.097 20.09-5.703 16.2 2.012-1.2 2.4-13.76 2.954-15.49 1.865h.01Zm-1089.62-6.756c3.11 1.015 2.09 5.334-1.31 6.442-3.41 1.107-19.16 2.012-14.73-4.633 1.47-2.178 13.56-2.603 16.04-1.809Zm-28.57 6.885c-.58.591-14.26.757-15.65-1.994-3.88-7.715 14.2-5.998 15.48-2.362.28.812.37 4.171.17 4.356Zm-446.37-6.793c1.12.166 8.08 2.289 8.37 2.695 5.42 7.568-15.16 5.925-15.75.554-.48-4.504 4.14-3.729 7.38-3.267v.018Zm1546.77 8.805c-3.92 1.089-12.13-.794-16.62 0 .22-1.477-.71-4.264.57-5.15 2.31-1.587 18.68-3.378 19.59-.351.68 1.588-2.59 5.242-3.52 5.501h-.02Zm-136.59 2.012c-3.92-.037-15.8.498-18.26-2.418-2.05-2.437-1.25-5.796 2.48-5.593 2.37.129 12.56 1.347 14.06 2.16 2.49 1.347 1.68 3.322 1.72 5.851Zm-1286.09-7.9c2.55.83 2.37 4.319-.02 5.722-2.03 1.181-16.38 4.614-17.4 1.55-2.02-6.128 13.67-8.509 17.42-7.272Zm1388.41 7.9c-2.57.793-14.29 0-18.14 0-1.39 0-2.83-4.929.15-5.888 2.61-.831 9.54-.056 12.95-.148 2.49-.074 5.93-2.769 6.6 1.532.22 1.458-.11 4.061-1.56 4.504Zm-1492.4-5.741c2.88.277 14.24 1.366 12.83 6.128-1.4 4.763-18.14.536-18.95-2.03-1.59-5.002 2.85-4.393 6.12-4.098Zm1424.85.72c3.45 2.843.99 6.774-3.09 6.996-1.22.074-12.93-1.182-13.56-1.477-2.81-1.347-2.2-5.537-.52-5.537h17.15l.02.018Zm28 1.218c2.92.665 5.12 2.658 2.83 5.409-2.3 2.75-18.44 2.879-16.15-4.006.81-2.418 10.76-1.975 13.32-1.384v-.019Zm-1371.5.886c.76.886.35 5.206-1.53 5.815-.69.221-11.14 1.273-11.89 1.163-4.26-.665-4.83-5.686-.85-6.848 2.2-.646 13-1.662 14.29-.111l-.02-.019Zm-55.07 1.145c4.79.867 8.65 6.239 4.1 7.697-2.12.683-17.2-.812-14.38-6.331.83-2.492 7.89-1.809 10.26-1.385l.02.019Zm28.46.775c2.09 1.218 3.88 5.002 1.55 6.59-.51.35-11.17 1.476-12.65 1.458-8.98-.037-7.04-8.066-5.03-8.066h16.13v.018Z"/><path fill="#D0332E" d="M5119.84 384.76c-2.59-.849-20.97 1.827-22.54 3.359-1.81 1.736-.96 4.08 1.03 5.04 2.76 1.329 22.25-1.625 23.1-4.135.58-1.68.19-3.692-1.57-4.264h-.02ZM4413.26 389.633c-2.09.628-2.31 4.356.19 5.87 3.05 1.846 24.71 3.839 21.39-4.762-.83 0-2.05-1.108-2.42-1.108-4.09 0-16.38-.831-19.16 0ZM4658.1 374.682c-1.79-.591-17.71.461-19.8 1.052-3.92 1.126-3.54 6.073.92 6.553 1.31.147 16.92-.646 17.81-.923 2.96-.868 4.07-5.704 1.06-6.682h.01ZM4706.65 369.495c-2.11.646-2.2 4.356.09 5.962 2.3 1.606 19.18 1.532 20.48 0 .77-.941-.08-5.943-1.41-5.943-4.09 0-16.4-.831-19.16 0v-.019ZM4004.81 389.799c-1.1-.369-17.72.628-18.85.997-2.77.904-2.27 4.818.59 6.146 2.87 1.329 14.11.425 17.2-.461 2.92-.831 4.09-5.704 1.06-6.682ZM3814.91 388.636c-.19 3.84-.61 5.169 3.2 6.387 2.46.794 18.2 2.732 18.97.129 2.07-6.885-18.38-6.977-22.17-6.516ZM3545.23 405.747h-16.13c-2.01 0-3.95 8.011 5.03 8.066 1.48 0 12.14-1.107 12.65-1.458 2.33-1.587.52-5.371-1.55-6.589v-.019ZM4367.27 393.546c2.05-8.823-7.4-5.685-12.28-7.125-1.44-.424-5.14-5.685-6.6-1.144-3.09 9.617 12.89 9.081 18.88 8.269ZM4399.5 395.54c.37-.628.39-3.378.19-4.209-.34-1.403-25.01-6.46-19.72 2.363 1.52 2.529 18.11 4.208 19.53 1.846ZM4447.18 395.54c1.15 1.827 18.24-.166 18.9-.96.61-.738.22-4.744-.83-5.501-2.42-1.716-22.8-1.052-18.07 6.479v-.018ZM4982.89 406.744c1.45-.443 1.78-3.064 1.56-4.504-.67-4.301-4.11-1.606-6.6-1.532-3.39.092-10.34-.683-12.95.148-3 .959-1.54 5.888-.15 5.888 3.85 0 15.59.794 18.14 0ZM4736.52 378.447c.57.886 14.46 3.544 16.49 3.175 2.61-.498 3.26-3.064 2.61-5.463-.22-.831-15.53-3.821-16.68-3.655-2.75.406-3.48 4.319-2.42 5.962v-.019ZM5017.16 404.732c.93-.259 4.2-3.913 3.52-5.501-.89-3.027-17.28-1.218-19.59.351-1.29.886-.35 3.673-.57 5.15 4.49-.794 12.72 1.089 16.62 0h.02ZM3594.48 398.844c-3.75-1.237-19.44 1.144-17.42 7.272 1.02 3.064 15.37-.369 17.4-1.55 2.39-1.403 2.57-4.873.02-5.722ZM3619.69 393.805c-2.17-.72-15.98 1.218-17.04 2.824-4.88 7.328 12.49 5.094 15.95 3.839 3.07-1.107 4.12-5.648 1.09-6.663ZM3891.4 401.576c.91-1.44.33-5.003-1.57-5.722-3.26-1.219-21.81-5.187-16.98 2.861 1.11 1.864 17.31 4.817 18.53 2.861h.02ZM5167.11 381.788c-2.81-.387-8.34.48-7.23 4.227.56 1.846 16.79 7.291 18.66 4.707 3.35-4.707-8.02-8.454-11.43-8.934ZM3646.41 396.555c1.11-1.791.35-5.371-2.38-5.907-1.69-.332-13.36.665-14.98 1.163-4.05 1.237-1.43 6.645 3.97 6.83 1.63.055 13.04-1.495 13.39-2.068v-.018ZM4880.57 406.744c-.04-2.529.77-4.504-1.72-5.851-1.52-.813-11.69-2.031-14.06-2.16-3.73-.203-4.53 3.156-2.48 5.593 2.46 2.916 14.34 2.362 18.26 2.418ZM5152.63 382.711c-1.26-1.975-19.73-4.928-19.08 2.363.4 4.614 5.95 1.532 8.54 1.606 2.77.092 9.25 4.061 10.52.258.32-.941.48-3.507 0-4.245l.02.018ZM3490.49 401.003c-3.27-.295-7.73-.904-6.12 4.098.81 2.566 17.57 6.719 18.95 2.03 1.39-4.688-9.95-5.851-12.83-6.128ZM4621.74 377.764c-2.71-.812-14.42-.756-15.94 1.791-4.21 7.014 11.64 5.593 15.48 4.393 4.46-1.403 4.09-5.094.46-6.165v-.019ZM4325.29 381.862c-3.96-.424-12.63.019-7.31 5.279 1.28 1.255 15.57 4.227 16.72 2.547 3.98-5.851-5.55-7.42-9.41-7.826ZM4492.27 395.54c1.26-.794 1.27-5.261-1.09-6.258-1.2-.498-11.56-1.698-13.43-1.716-3.31-.037-4.64 2.399-3 5.113 1.35 2.252 15.65 4.042 17.54 2.861h-.02ZM4076.17 376.675c-1.79 2.843.17 5.686 3.35 5.722 2.89.037 15.42-1.218 15.74-4.356.66-6.848-18.51-2.288-19.09-1.366ZM4044.79 382.601c-1.22 1.753 1.35 4.577 3.55 4.983 2.2.406 15.33-1.421 15.65-2.584 2.73-10.023-18.54-3.378-19.2-2.399ZM4551.63 392.402c.8-.738 1.37-2.658.82-3.766-1.72-3.581-14.24-1.218-17 .185-2.98 1.532-2.42 5.205.8 5.833 2.33.443 13.89-.849 15.37-2.252h.01ZM4915.34 401.723h-17.15c-1.7 0-2.31 4.172.52 5.538.61.295 12.34 1.532 13.56 1.476 4.06-.221 6.52-4.153 3.08-6.995l-.01-.019ZM4803.17 384.797c-3.72-.498-5.55 1.237-3.79 4.855 1.37 2.805 20.23 8.952 17.53.646-.61-1.883-11.41-5.187-13.76-5.501h.02ZM4691.52 372.522h-16.12c-2.17 0-3.56 6.922 5.04 7.144 4.54.111 17.31-.812 11.1-7.144h-.02ZM4253.66 375.789c-3.63-.313-5.64 1.071-3.74 4.818 1.37 2.695 15.48 5.519 17.24 3.064 3.98-5.537-10.04-7.586-13.5-7.882ZM4033.03 385.757c-2.37-.775-15.82.092-17.07 1.79-5.44 7.328 13.61 5.039 17.03 3.932 2.5-.812 2.46-4.928.04-5.704v-.018ZM4120.65 370.677c-2.96-.554-15.42.646-14.26 5.186 1.28 4.984 17.29 2.031 17.96.074.92-2.732-1.05-4.762-3.72-5.26h.02ZM3945.33 395.835c-2.46-.794-14.57-.369-16.04 1.809-4.45 6.645 11.16 5.777 14.73 4.633 3.56-1.145 4.42-5.427 1.31-6.442ZM3959.31 395.872c-1.28.923-1.17 5.482.44 5.888 2.37.572 13.26-.406 15.78-1.237 2.26-.738 2.4-4.263.74-5.408-1.67-1.144-15.26-.48-16.96.757ZM3850.4 391.885c-4.07-.092-7.44 3.101-3.81 5.87 1.66 1.273 14.94 3.857 16.27 2.012 4.05-5.667-8.87-7.808-12.46-7.882ZM3679.92 392.549c1.07 1.551 15.74.351 17.13-1.329 6.99-8.361-22.66-6.681-17.13 1.329ZM3726.95 384.852c-1.85-1.772-17.55-3.34-16.94 2.252.69 6.239 24.01 4.541 16.94-2.252ZM4586.68 386.606c1.57-.443 2.98-3.729 2.59-5.427-.41-1.864-17.35-.794-18.27-.166-1.98 1.366-.76 5.593.55 5.593 3.52 0 12.6.701 15.13 0ZM4284.73 379.573c.07 1.403-.28 3.064.15 4.393.79 2.418 15.88 5.132 16.92 2.031 2.46-7.439-13.02-6.719-17.07-6.424ZM3670.08 388.784c-3.6-1.181-17.51-1.144-15.38 5.279.77 2.344 12.09 2.067 14.33 1.403 2.96-.868 4.07-5.704 1.05-6.7v.018ZM4174.02 372.818c-2.84-.333-11.44-1.828-10.15 3.064 1 3.784 16.53 6.128 17.9 2.012 1.59-4.836-4.14-4.67-7.75-5.076ZM4133.5 372.522c-.49.517.04 6.036 1.52 6.036h16.13c2.66 0 .98-6.036-1.02-6.036-2.37 0-16.05-.59-16.63 0ZM3737.55 385.849c-.81.72-1.55 4.098-1.35 5.15.35 1.753 16.38 1.292 17.12-.96 2.11-6.405-13.16-6.479-15.79-4.19h.02ZM3763.59 384.668c-.45.332-.93 3.064-.69 3.987 1.35 5.02 21.14 7.974 16.26-.056-1-1.661-14.63-4.614-15.57-3.931ZM3571.84 403.827c-1.29-1.532-12.09-.535-14.29.111-3.98 1.163-3.41 6.184.85 6.848.76.111 11.21-.941 11.89-1.163 1.89-.59 2.29-4.91 1.53-5.814l.02.018ZM3807.62 389.855c-1.85-1.348-16.96-2.917-16.94 1.292.02 4.208 16.89 7.088 18.09 2.861.26-.905-.46-3.655-1.15-4.153ZM4775.97 378.798c-3.67-.627-11.01-1.44-9.21 4.135.98 3.045 20.23 6.645 16.53-.369-.91-1.735-5.38-3.434-7.32-3.766ZM4943.34 402.941c-2.54-.572-12.51-1.033-13.32 1.385-2.31 6.903 13.85 6.737 16.15 4.005 2.29-2.732.09-4.725-2.83-5.408v.018ZM5034.95 402.591c1.72 1.089 14.28.535 15.5-1.865 3.89-7.715-14.2-6.109-16.2-2.012-.46.96.21 3.544.72 3.877h-.02ZM3916.76 402.72c.18-.185.11-3.544-.17-4.356-1.26-3.637-19.35-5.353-15.48 2.362 1.39 2.769 15.09 2.584 15.65 1.994ZM3516.77 404.972c-2.39-.425-9.43-1.126-10.27 1.384-2.81 5.519 12.27 7.014 14.39 6.331 4.55-1.476.69-6.848-4.1-7.697l-.02-.018ZM5080.54 391.719c-.96-.277-12.44 1.421-13.5 2.418-5.47 5.242 8.62 7.383 13.47 4.374 2.46-1.532 2.47-6.109.03-6.811v.019ZM4218.34 376.694c-.5.812-.54 4.282.44 5.002.72.517 10.45 1.717 12.06 1.717 3.49 0 4.44-1.957 3.35-5.206-.74-2.196-14.61-3.488-15.84-1.513h-.01ZM4502.59 389.725c-1.07 1.606.53 5.132 2.62 5.741 2.24.646 12.56.923 13.34-1.421 2.46-7.494-14.91-5.889-15.96-4.338v.018ZM4838.47 392.882c-3.51-.517-7.71-.536-6.19 4.153.74 2.307 13.41 6.792 15.53 2.676 2.13-4.116-6.54-6.405-9.35-6.829h.01ZM3470.39 395.927c-3.24-.461-7.86-1.236-7.38 3.267.57 5.372 21.17 6.996 15.75-.553-.29-.406-7.25-2.548-8.37-2.695v-.019ZM4198.25 373.759c-3.44-.406-6.4-.221-5.12 4.116.83 2.806 12.59 6.387 14.52 2.695 2.31-4.43-6.14-6.423-9.4-6.811Z"/></g><defs><clipPath id="a"><path fill="#fff" d="M1727 0h1728v419H1727z"/></clipPath><clipPath id="b"><path fill="#fff" d="M1728 0H0v419h1728z"/></clipPath><clipPath id="c"><path fill="#fff" d="M5182 0H3454v419h1728z"/></clipPath></defs></svg>