<svg xmlns="http://www.w3.org/2000/svg" width="1728" height="309" fill="none"><g clip-path="url(#a)"><path fill="#2F7346" d="M1728-110v410.768c-25.54 3.544-51.21 8.546-77.18 8.103-34.84-.572-67.61-10.189-101.79-14.121-34.17-3.931-67.15-5.906-100.77-5.002-73.92 2.012-145.31 14.121-219.86 11.075-68.85-2.824-135.24-24.992-204.65-23.239-95.631 2.4-187.047 20.95-284.307 20.212-72.625-.535-139.019-9.266-210.683-15.136-84.905-6.959-157.956 14.951-240.809 25.288-2.035.258-16.108 1.052-21.657 1.052h-31.439c-5.549 0-11.744-1.071-14.555-1.218-27.556-1.495-55.168-.296-82.705-2.99-33.104-3.249-68.02-13.309-99.83-16.078-12.687-1.107-25.263 1.736-37.783 3.009V-110H1728ZM475.35 259.495c-2.756-.83-15.073 0-19.16 0-1.331 0-2.182 5.021-1.405 5.944 1.294 1.55 18.105 1.679 20.472 0 2.368-1.68 2.201-5.316.093-5.962v.018Zm586 1.182c-2.65.498-4.64 2.528-3.72 5.26.67 1.957 16.68 4.91 17.96-.074 1.16-4.54-11.3-5.74-14.26-5.186h.02Zm-615.868 7.77c1.054-1.642.333-5.555-2.423-5.962-1.128-.166-16.441 2.843-16.681 3.655-.666 2.4 0 4.984 2.608 5.464 2.034.387 15.923-2.271 16.496-3.175v.018Zm44.996-5.925c-6.214 6.332 6.547 7.254 11.096 7.144 8.6-.222 7.194-7.144 5.049-7.144h-16.145Zm517.502.296c-3.61.406-9.344.258-7.75 5.076 1.37 4.116 16.9 1.772 17.9-2.012 1.29-4.892-7.32-3.397-10.15-3.064Zm40.52-.296c-.58-.59-14.28 0-16.63 0-1.98 0-3.68 6.036-1.02 6.036h16.13c1.48 0 2.01-5.519 1.52-6.036Zm-64.752 1.237c-3.255.388-11.688 2.381-9.395 6.811 1.924 3.673 13.686.092 14.518-2.695 1.276-4.319-1.664-4.522-5.123-4.116Zm-459.852.923c-3.014.978-1.886 5.814 1.055 6.682.887.258 16.496 1.052 17.809.923 4.457-.48 4.846-5.427.925-6.553-2.09-.591-18.013-1.643-19.807-1.052h.018Zm581.934 1.993c-.58-.922-19.75-5.482-19.09 1.366.32 3.12 12.84 4.375 15.74 4.356 3.18-.036 5.14-2.861 3.35-5.722Zm-177.489-.886c-3.459.296-17.477 2.345-13.501 7.882 1.757 2.437 15.868-.369 17.236-3.064 1.905-3.747-.111-5.131-3.735-4.818Zm35.323.905c-1.221-1.975-15.091-.702-15.831 1.513-1.109 3.249-.148 5.206 3.348 5.206 1.609 0 11.336-1.2 12.058-1.717.98-.72.943-4.19.443-5.002h-.018Zm-403.408 1.07c-3.607 1.071-3.977 4.781.462 6.166 3.847 1.199 19.696 2.621 15.479-4.394-1.516-2.528-13.223-2.584-15.941-1.79v.018Zm-154.221 1.034c-1.942.332-6.399 2.031-7.324 3.766-3.699 7.014 15.553 3.414 16.534.369 1.793-5.575-5.567-4.762-9.21-4.135Zm189.285 7.808c2.534.701 11.614 0 15.128 0 1.313 0 2.534-4.227.555-5.593-.925-.627-17.847-1.698-18.272.166-.37 1.698 1.017 4.984 2.589 5.427Zm301.951-7.033c-4.05-.295-19.53-1.015-17.07 6.424 1.017 3.082 16.127.387 16.922-2.031.425-1.31.074-2.99.148-4.393Zm239.939 3.028c-.68-.979-21.95-7.605-19.2 2.399.32 1.163 13.51 2.99 15.65 2.584 2.15-.406 4.77-3.248 3.55-4.983Zm-1107.842.11c-.462.739-.295 3.304 0 4.246 1.277 3.802 7.75-.185 10.524-.259 2.589-.074 8.137 3.009 8.544-1.606.647-7.291-17.828-4.337-19.086-2.362l.018-.019Zm-14.48-.923c-3.403.462-14.777 4.227-11.43 8.934 1.85 2.603 18.106-2.861 18.66-4.707 1.11-3.747-4.4-4.614-7.23-4.227Zm841.826.074c-3.866.425-13.39 1.975-9.414 7.826 1.147 1.68 15.443-1.292 16.719-2.547 5.326-5.26-3.348-5.703-7.305-5.279Zm-41.982 11.684c5.992.812 21.971 1.329 18.883-8.269-1.461-4.541-5.142.72-6.603 1.144-4.901 1.44-14.333-1.698-12.28 7.125Zm640.318-8.694c-7.07 6.793 16.25 8.51 16.94 2.252.61-5.611-15.09-4.042-16.94-2.252ZM62.158 274.76c-1.757.572-2.145 2.584-1.572 4.264.85 2.492 20.344 5.464 23.1 4.135 1.978-.96 2.829-3.304 1.035-5.039-1.59-1.514-19.955-4.19-22.544-3.36h-.019Zm316.672.037c-2.33.314-13.149 3.618-13.76 5.501-2.7 8.324 16.164 2.159 17.533-.646 1.775-3.618-.056-5.353-3.792-4.855h.019Zm1039.58-.129c-.94-.683-14.57 2.289-15.57 3.931-4.88 8.03 14.91 5.095 16.26.056.24-.923-.23-3.673-.69-3.987Zm26.04 1.181c-2.63-2.289-17.9-2.215-15.79 4.19.74 2.252 16.77 2.732 17.12.96.21-1.052-.52-4.448-1.35-5.15h.02Zm-295.48-.092c-2.44.794-2.46 4.891.04 5.703 3.42 1.126 22.47 3.415 17.03-3.931-1.25-1.698-14.68-2.547-17.07-1.791v.019Zm353.11 6.792c5.53-8.01-24.12-9.69-17.13-1.329 1.41 1.68 16.06 2.88 17.13 1.329Zm-871.714-.147c1.48 1.403 13.057 2.713 15.369 2.252 3.236-.628 3.772-4.301.795-5.833-2.756-1.421-15.258-3.766-16.996-.185-.555 1.108.018 3.027.814 3.766h.018Zm59.366 3.138c1.886 1.181 16.182-.628 17.532-2.861 1.627-2.695.314-5.15-2.996-5.113-1.868.018-12.225 1.218-13.427 1.716-2.367.997-2.367 5.464-1.091 6.258h-.018Zm-10.32-5.815c-1.054-1.55-18.42-3.156-15.96 4.338.777 2.344 11.096 2.067 13.334 1.421 2.09-.609 3.717-4.153 2.626-5.74v-.019Zm55.408 5.815c4.734-7.531-15.646-8.196-18.069-6.479-1.072.757-1.461 4.781-.832 5.5.666.794 17.754 2.806 18.901.96v.019Zm47.677 0c1.424 2.362 18.013.683 19.53-1.846 5.289-8.823-19.382-3.766-19.715-2.363-.203.831-.185 3.6.185 4.209Zm584.593-6.904c-3.79-.461-24.24-.369-22.17 6.516.77 2.584 16.53.665 18.97-.129 3.81-1.218 3.37-2.547 3.2-6.387Zm7.29 1.219c-.69.498-1.41 3.23-1.15 4.153 1.2 4.227 18.09 1.218 18.09-2.861 0-4.08-15.09-2.64-16.94-1.292Zm137.54-1.071c-3.02.978-1.89 5.814 1.05 6.7 2.26.665 13.56.942 14.33-1.403 2.11-6.423-11.78-6.46-15.38-5.279v-.018Zm-743.182.849c-2.774-.831-15.073 0-19.16 0-.351 0-1.59 1.108-2.423 1.108-3.31 8.583 18.346 6.608 21.398 4.762 2.497-1.514 2.256-5.242.185-5.87Zm408.462.166c-3.02.997-1.87 5.851 1.05 6.682 3.09.886 14.42 1.735 17.2.462 2.77-1.274 3.36-5.243.59-6.147-1.13-.369-17.75-1.366-18.84-.997Zm358.39 6.756c.35.572 11.76 2.123 13.39 2.067 5.4-.166 8.03-5.574 3.98-6.829-1.63-.499-13.3-1.477-14.99-1.163-2.73.535-3.47 4.116-2.38 5.906v.019Zm-1434.132-4.836c-2.441.683-2.423 5.279.037 6.811 4.827 3.009 18.919.867 13.463-4.375-1.035-.996-12.538-2.695-13.5-2.418v-.018Zm1230.142.166c-3.61.074-16.51 2.215-12.46 7.882 1.33 1.845 14.61-.739 16.27-2.012 3.64-2.788.26-5.962-3.81-5.87Zm-988.075.997c-2.811.424-11.466 2.732-9.358 6.829 2.108 4.098 14.795-.369 15.535-2.676 1.517-4.689-2.663-4.67-6.195-4.153h.018Zm947.075 8.694c1.22 1.956 17.42-.997 18.53-2.862 4.83-8.029-13.7-4.079-16.98-2.861-1.88.702-2.46 4.283-1.57 5.723h.02Zm271.71-7.771c-3.03 1.015-1.98 5.556 1.09 6.663 3.46 1.255 20.83 3.489 15.95-3.839-1.06-1.588-14.87-3.544-17.04-2.824Zm-339.62 2.067c-1.72-1.237-15.35-1.864-16.96-.757-1.61 1.108-1.53 4.67.74 5.408 2.53.831 13.43 1.809 15.78 1.237 1.61-.388 1.72-4.947.44-5.888Zm-1075.645 6.719c.518-.333 1.184-2.917.722-3.877-2.016-4.097-20.085-5.703-16.201 2.012 1.202 2.4 13.759 2.954 15.498 1.865h-.019Zm1089.625-6.756c-3.11 1.015-2.09 5.334 1.31 6.442 3.41 1.107 19.16 2.012 14.73-4.633-1.47-2.178-13.56-2.603-16.04-1.809Zm28.57 6.885c.58.591 14.26.757 15.65-1.994 3.88-7.715-14.2-5.998-15.48-2.362-.28.812-.37 4.171-.17 4.356Zm446.37-6.793c-1.12.166-8.08 2.289-8.37 2.695-5.42 7.568 15.16 5.925 15.75.554.48-4.504-4.14-3.729-7.38-3.267v.018Zm-1546.773 8.805c3.92 1.089 12.132-.794 16.626 0-.222-1.477.702-4.264-.574-5.15-2.311-1.587-18.679-3.378-19.585-.351-.684 1.588 2.589 5.242 3.514 5.501h.019Zm136.596 2.012c3.921-.037 15.794.498 18.253-2.418 2.053-2.437 1.258-5.796-2.478-5.593-2.367.129-12.557 1.347-14.055 2.16-2.497 1.347-1.683 3.322-1.72 5.851Zm1286.087-7.9c-2.55.83-2.37 4.319.02 5.722 2.03 1.181 16.38 4.614 17.4 1.55 2.02-6.128-13.67-8.509-17.42-7.272Zm-1388.414 7.9c2.571.793 14.296 0 18.142 0 1.387 0 2.83-4.929-.148-5.888-2.607-.831-9.542-.056-12.945-.148-2.497-.074-5.937-2.769-6.603 1.532-.222 1.458.111 4.061 1.554 4.504Zm1492.404-5.741c-2.88.277-14.24 1.366-12.83 6.128 1.4 4.763 18.14.536 18.95-2.03 1.59-5.002-2.84-4.393-6.12-4.098Zm-1424.846.72c-3.458 2.843-.998 6.774 3.089 6.996 1.22.074 12.927-1.182 13.556-1.477 2.811-1.347 2.201-5.537.518-5.537h-17.144l-.019.018Zm-28 1.218c-2.922.665-5.122 2.658-2.829 5.409 2.293 2.75 18.438 2.879 16.145-4.006-.814-2.418-10.763-1.975-13.316-1.384v-.019Zm1371.496.886c-.76.886-.35 5.206 1.53 5.815.69.221 11.14 1.273 11.89 1.163 4.26-.665 4.83-5.686.85-6.848-2.2-.646-13-1.662-14.29-.111l.02-.019Zm55.07 1.145c-4.79.867-8.65 6.239-4.1 7.697 2.12.683 17.2-.812 14.38-6.331-.83-2.492-7.89-1.809-10.26-1.385l-.02.019Zm-28.46.775c-2.09 1.218-3.88 5.002-1.55 6.59.51.35 11.17 1.476 12.65 1.458 8.98-.037 7.04-8.066 5.03-8.066h-16.13v.018Z"/><path fill="#D0332E" d="M62.158 274.76c2.59-.849 20.972 1.828 22.544 3.36 1.813 1.735.962 4.079-1.035 5.039-2.756 1.329-22.249-1.625-23.1-4.135-.573-1.68-.184-3.692 1.573-4.264h.018ZM768.738 279.633c2.089.628 2.311 4.356-.185 5.87-3.052 1.846-24.708 3.839-21.398-4.762.832 0 2.053-1.108 2.423-1.108 4.087 0 16.386-.831 19.16 0ZM523.896 264.682c1.794-.591 17.718.461 19.807 1.052 3.921 1.126 3.533 6.073-.924 6.553-1.313.147-16.922-.646-17.81-.923-2.959-.868-4.069-5.704-1.054-6.682h-.019ZM475.35 259.495c2.108.646 2.201 4.356-.093 5.962-2.293 1.606-19.178 1.532-20.472 0-.777-.941.073-5.943 1.405-5.943 4.087 0 16.404-.831 19.16 0v-.019ZM1177.19 279.799c1.1-.369 17.72.628 18.85.997 2.77.904 2.27 4.818-.59 6.146-2.87 1.329-14.11.425-17.2-.461-2.92-.831-4.09-5.704-1.06-6.682ZM1367.09 278.636c.19 3.84.61 5.169-3.2 6.387-2.46.794-18.2 2.732-18.97.129-2.07-6.885 18.38-6.977 22.17-6.516ZM1636.77 295.747h16.13c2.01 0 3.95 8.011-5.03 8.066-1.48 0-12.14-1.107-12.65-1.458-2.33-1.587-.52-5.371 1.55-6.589v-.019ZM814.732 283.546c-2.053-8.823 7.398-5.685 12.28-7.125 1.443-.424 5.141-5.685 6.603-1.144 3.088 9.617-12.891 9.081-18.883 8.269ZM782.497 285.54c-.37-.628-.388-3.378-.185-4.209.333-1.403 25.004-6.46 19.715 2.363-1.517 2.529-18.106 4.208-19.53 1.846ZM734.82 285.54c-1.147 1.827-18.235-.166-18.901-.96-.61-.738-.222-4.744.832-5.501 2.423-1.716 22.803-1.052 18.069 6.479v-.018ZM199.106 296.744c-1.443-.443-1.776-3.064-1.554-4.504.666-4.301 4.106-1.606 6.603-1.532 3.384.092 10.338-.683 12.945.148 2.996.959 1.535 5.888.148 5.888-3.846 0-15.59.794-18.142 0ZM445.482 268.447c-.573.886-14.462 3.544-16.496 3.175-2.608-.498-3.255-3.064-2.608-5.463.222-.831 15.535-3.821 16.681-3.655 2.756.406 3.477 4.319 2.423 5.962v-.019ZM164.837 294.732c-.925-.259-4.199-3.913-3.514-5.501.887-3.027 17.273-1.218 19.585.351 1.294.886.351 3.673.573 5.15-4.494-.794-12.724 1.089-16.626 0h-.018ZM1587.52 288.844c3.75-1.237 19.44 1.144 17.42 7.272-1.02 3.064-15.37-.369-17.4-1.55-2.39-1.403-2.57-4.873-.02-5.722ZM1562.31 283.805c2.17-.72 15.98 1.218 17.04 2.824 4.88 7.328-12.49 5.094-15.95 3.839-3.07-1.107-4.12-5.648-1.09-6.663ZM1290.6 291.576c-.91-1.44-.33-5.003 1.57-5.722 3.26-1.219 21.81-5.187 16.98 2.86-1.11 1.865-17.31 4.818-18.53 2.862h-.02ZM14.888 271.788c2.81-.387 8.34.48 7.23 4.227-.554 1.846-16.792 7.291-18.66 4.707-3.347-4.707 8.027-8.454 11.43-8.934ZM1535.59 286.555c-1.11-1.791-.35-5.371 2.38-5.907 1.69-.332 13.36.665 14.98 1.163 4.05 1.237 1.43 6.645-3.97 6.83-1.63.055-13.04-1.495-13.39-2.068v-.018ZM301.433 296.744c.037-2.529-.777-4.504 1.72-5.851 1.516-.813 11.688-2.031 14.055-2.16 3.736-.203 4.531 3.156 2.478 5.593-2.459 2.916-14.332 2.362-18.253 2.418ZM29.368 272.711c1.258-1.975 19.733-4.928 19.086 2.363-.407 4.614-5.955 1.532-8.544 1.606-2.774.092-9.247 4.061-10.523.258-.314-.941-.481-3.507 0-4.245l-.019.018ZM1691.51 291.003c3.27-.295 7.73-.904 6.12 4.098-.81 2.566-17.57 6.719-18.95 2.03-1.39-4.688 9.95-5.851 12.83-6.128ZM560.256 267.764c2.718-.812 14.425-.756 15.941 1.791 4.217 7.014-11.632 5.593-15.479 4.393-4.457-1.403-4.087-5.094-.462-6.165v-.019ZM856.713 271.862c3.958-.424 12.632.019 7.305 5.279-1.276 1.255-15.571 4.227-16.718 2.547-3.976-5.851 5.548-7.42 9.413-7.826ZM689.732 285.54c-1.258-.794-1.276-5.261 1.091-6.258 1.202-.498 11.558-1.698 13.426-1.716 3.311-.037 4.642 2.399 2.996 5.113-1.35 2.252-15.645 4.042-17.532 2.861h.019ZM1105.83 266.675c1.79 2.843-.17 5.686-3.35 5.722-2.89.037-15.42-1.218-15.74-4.356-.66-6.848 18.51-2.288 19.09-1.366ZM1137.21 272.601c1.22 1.753-1.35 4.577-3.55 4.983-2.2.406-15.33-1.421-15.65-2.584-2.73-10.023 18.54-3.378 19.2-2.399ZM630.366 282.402c-.795-.739-1.369-2.658-.814-3.766 1.72-3.581 14.241-1.218 16.996.185 2.978 1.532 2.423 5.205-.795 5.833-2.33.443-13.889-.849-15.369-2.252h-.018ZM266.664 291.723h17.144c1.702 0 2.312 4.172-.518 5.538-.61.295-12.335 1.532-13.556 1.476-4.068-.221-6.528-4.153-3.088-6.995l.018-.019ZM378.83 274.797c3.717-.498 5.548 1.237 3.791 4.855-1.368 2.805-20.232 8.952-17.532.646.61-1.883 11.411-5.187 13.759-5.501h-.018ZM490.478 262.522h16.127c2.163 0 3.551 6.922-5.049 7.144-4.531.11-17.311-.812-11.097-7.144h.019ZM928.34 265.789c3.625-.313 5.641 1.071 3.736 4.818-1.368 2.695-15.479 5.519-17.236 3.064-3.976-5.537 10.042-7.586 13.5-7.882ZM1148.97 275.757c2.37-.775 15.82.092 17.07 1.79 5.44 7.328-13.61 5.039-17.03 3.932-2.5-.812-2.46-4.928-.04-5.704v-.018ZM1061.35 260.677c2.96-.554 15.42.646 14.26 5.186-1.28 4.984-17.29 2.031-17.96.074-.92-2.732 1.05-4.762 3.72-5.26h-.02ZM1236.67 285.835c2.46-.794 14.57-.369 16.04 1.809 4.45 6.645-11.16 5.777-14.73 4.633-3.56-1.145-4.42-5.427-1.31-6.442ZM1222.69 285.872c1.28.923 1.17 5.482-.44 5.888-2.37.572-13.26-.406-15.78-1.237-2.26-.738-2.4-4.263-.74-5.408 1.67-1.144 15.26-.48 16.96.757ZM1331.6 281.885c4.07-.092 7.44 3.101 3.81 5.87-1.66 1.273-14.94 3.857-16.27 2.012-4.05-5.667 8.87-7.808 12.46-7.882ZM1502.08 282.549c-1.07 1.551-15.74.351-17.13-1.329-6.99-8.361 22.66-6.681 17.13 1.329ZM1455.05 274.852c1.85-1.772 17.55-3.341 16.94 2.252-.69 6.239-24.01 4.541-16.94-2.252ZM595.32 276.606c-1.572-.443-2.978-3.729-2.589-5.427.407-1.864 17.347-.793 18.272-.166 1.979 1.366.758 5.593-.555 5.593-3.514 0-12.594.701-15.128 0ZM897.271 269.573c-.074 1.403.277 3.064-.148 4.393-.795 2.418-15.887 5.132-16.922 2.031-2.46-7.439 13.02-6.719 17.07-6.424ZM1511.92 278.784c3.6-1.181 17.51-1.144 15.38 5.279-.77 2.344-12.09 2.067-14.33 1.403-2.96-.868-4.07-5.704-1.05-6.7v.018ZM1007.98 262.818c2.84-.333 11.44-1.828 10.15 3.064-1 3.784-16.53 6.128-17.9 2.012-1.594-4.836 4.14-4.67 7.75-5.076ZM1048.5 262.522c.49.517-.04 6.036-1.52 6.036h-16.13c-2.66 0-.98-6.036 1.02-6.036 2.37 0 16.05-.59 16.63 0ZM1444.45 275.849c.81.72 1.55 4.098 1.35 5.15-.35 1.753-16.38 1.292-17.12-.96-2.11-6.405 13.16-6.479 15.79-4.19h-.02ZM1418.41 274.668c.45.332.93 3.064.69 3.987-1.35 5.02-21.14 7.974-16.26-.056 1-1.661 14.63-4.614 15.57-3.931ZM1610.16 293.827c1.29-1.532 12.09-.535 14.29.111 3.98 1.163 3.41 6.184-.85 6.848-.76.111-11.21-.941-11.89-1.163-1.89-.59-2.29-4.91-1.53-5.814l-.02.018ZM1374.38 279.855c1.85-1.348 16.96-2.917 16.94 1.292-.02 4.208-16.89 7.088-18.09 2.861-.26-.905.46-3.655 1.15-4.153ZM406.035 268.798c3.661-.627 11.003-1.44 9.209 4.135-.98 3.045-20.232 6.645-16.533-.369.906-1.735 5.382-3.434 7.324-3.766ZM238.664 292.941c2.534-.572 12.502-1.033 13.316 1.385 2.312 6.903-13.852 6.737-16.145 4.005-2.293-2.732-.093-4.725 2.829-5.408v.018ZM147.045 292.591c-1.72 1.089-14.277.535-15.498-1.865-3.883-7.715 14.204-6.109 16.201-2.012.462.96-.203 3.544-.721 3.877h.018ZM1265.24 292.72c-.18-.185-.11-3.544.17-4.356 1.26-3.636 19.35-5.353 15.48 2.362-1.39 2.769-15.09 2.585-15.65 1.994ZM1665.23 294.972c2.39-.425 9.43-1.126 10.27 1.384 2.81 5.519-12.27 7.014-14.39 6.331-4.55-1.476-.69-6.848 4.1-7.697l.02-.018ZM101.458 281.719c.962-.277 12.446 1.421 13.5 2.418 5.475 5.242-8.618 7.383-13.463 4.374-2.46-1.532-2.478-6.109-.037-6.811v.019ZM963.664 266.694c.499.812.536 4.282-.444 5.002-.721.517-10.449 1.717-12.058 1.717-3.495 0-4.438-1.957-3.347-5.206.739-2.196 14.61-3.488 15.83-1.513h.019ZM679.412 279.725c1.073 1.606-.536 5.132-2.626 5.741-2.238.646-12.558.923-13.334-1.421-2.46-7.494 14.906-5.889 15.96-4.338v.018ZM343.525 282.882c3.514-.517 7.712-.536 6.195 4.153-.739 2.307-13.408 6.792-15.534 2.676-2.127-4.116 6.546-6.405 9.357-6.829h-.018ZM1711.61 285.927c3.24-.461 7.86-1.236 7.38 3.267-.57 5.372-21.17 6.996-15.75-.553.29-.406 7.25-2.548 8.37-2.695v-.019ZM983.748 263.759c3.44-.406 6.399-.221 5.123 4.116-.832 2.806-12.594 6.387-14.518 2.695-2.312-4.43 6.14-6.423 9.395-6.811Z"/></g><defs><clipPath id="a"><path fill="#fff" d="M0-110h1728v419H0z"/></clipPath></defs></svg>