<svg xmlns="http://www.w3.org/2000/svg" width="1728" height="1117" fill="none">
  <g clip-path="url(#a)">
    <path fill="#917147" d="M0 0h1728v3999H0z" />
    <path fill="#674729" d="M1728 0H0v3999h1728V0Z" />
    <path fill="#917147"
      d="M0 1122c17-5 37 3 53 0 4-1 14-10 20-12 27-13 44-8 71-10 55-5 142-35 195-15 11 4 54 37 60 46 5 7 5 12 7 19 21 0 41-12 61-14 24-2 54 5 80 2 16-2 29-10 43-13 66-15 140 9 207 1 22-3 46-12 67-12 24 0 104 18 127 28 25 10 38 24 68 20 23-3 18-20 32-28 22-12 71-7 95-4 16 3 45 15 57 14 9-1 24-10 35-12 23-4 68-7 90 1 26 9 36 14 67 11 22-2 32-20 51-27 26-10 43-1 68 3 13 2 23-1 37 3s22 13 34 18c13 6 29 7 42 13 18-15 37-25 61-28v18c-18 6-27 26-46 28-19 3-72-12-87-25-4-3-5-8-10-12-14-10-25-5-39-7-11-2-27-8-37-7-17 0-33 19-48 26-17 7-48 7-66 5s-40-16-53-15c-7 0-40 7-48 9-17 6-29 15-49 15-26-1-39-13-61-18-18-5-63-10-80-2-15 7-15 24-43 27-41 5-57-17-91-27-21-7-56-13-78-16-34-6-44 4-75 9-65 10-127-8-189-4-38 3-69 21-111 23-12 0-27-3-38-2-15 0-37 12-55 13-8 1-35 2-40-6-2-3 4-12-4-24-5-7-46-39-55-42-47-15-126 13-177 18-22 2-37-2-60 7-10 3-18 12-29 13-19 3-40-6-59-4v-4Zm0-308c14-3 25-8 39-6 9 1 12 9 19 11 37 10 46-36 90-29 26 4 59 19 85 20 22 0 47-16 68-16 19 1 38 20 59 20 14 0 28-9 41-10 7-1 13 2 21 2 17-1 37-10 53-9 22 2 36 25 62 27 32 2 41-6 68-11 37-8 76 6 119-2 35-6 28-10 64 0 35 9 48-8 76-11 16-2 32 3 46 1 7-1 16-5 23-7 9-2 38-3 42-7 2-1 2-5 4-8 9-10 29-11 41-7 15 5 9 26 10 38h32c13-2 25-8 38-9l56 1c10 0 20 7 30 9 19 4 59 5 79 3 12-1 21-7 32-8 18-2 33 3 49 4 10 0 27-6 35 3 3 2 3 7 5 11 20 25 64 33 94 37 19 4 51 9 70 9 9 0 12-9 19-13 14-9 40-3 57-5 14-2 26-8 39-11 21-4 42-3 63-3v6c-16 0-34 0-49 2-19 3-35 13-55 14-11 1-27-2-38 1-8 1-11 17-33 19-29 3-115-10-144-21-18-7-46-21-49-41-19 2-40-7-58-6-10 0-17 5-27 6-22 2-64 1-86-3-10-2-19-7-27-8-7-2-55 2-64 3-7 1-14 6-21 7-12 3-61 5-68-5-3-6-2-31-4-31-5 1-6 8-9 11-8 8-29 10-39 14-15 5-23 12-40 14-13 1-29-3-39-2-7 1-16 7-25 9-21 5-61 3-81-6-5-2-11-9-17-9s-24 6-32 8c-36 5-69-1-101 2-14 1-28 11-40 12-19 2-62 2-79-6-10-4-26-19-34-19-11-1-33 4-45 5-6 0-12-3-20-2-18 1-28 10-52 8-13-1-34-12-45-12-4 0-34 13-45 15-52 10-76-15-124-28-17 3-27 18-42 24-14 6-31 9-46 6-7-2-14-10-17-11-7-1-24 8-33 6v-6Zm0-657c12-5 24 1 35 1 21 0 48-4 69-1 5 1 9 5 14 5 20 2 47-5 71-3 13 2 29 11 42 11 9-1 24-8 35-10 16-3 35-5 51 1-3-2-1-9-1-10-3-4-15 0-12-10 28 4 48-11 75-17 25-5 32-3 56-3 6 0 23-5 29-1 2 1 1 6 3 7 4 3 22 3 29 5 6 2 10 7 15 10 5 2 31 12 31 14-8 8-22 6-32 8l-28 6c-10 4-20 11-29 12-10 0-22-7-33-7-29 0-26 2-54-5-16-4-32-4-47-7l19 14c37 20 95 20 136 18 28-1 46-21 75-22l15 3c23-1 32-12 50-14 16-2 26 3 40 4 34 0 105-10 139-17 18-4 27-13 48-9 9 1 16 8 25 9 15 2 33-1 48 0l31 6c26 3 44-10 71 1 6 3 16 11 21 11 6 0 21-9 30-11 12-3 34-2 47-1 17 3 14 16 21 18 22 0 47 5 70 2 9-1 19-7 30-8 11 0 25 4 36 4 15 0 38-2 53-4 20-1 35-11 55-1 8 5 11 11 22 15 14 5 58 7 74 7 10-1 18-7 27-10 41-10 75 19 114 21 32 1 53-14 81-17 11-1 21 0 31 2v4c-21-5-36-2-55 8-7 4-13 11-21 14-32 13-77-9-108-18-31-10-30 3-55 6-25 2-93 1-114-14-5-3-10-12-17-13-6 0-17 4-24 4-26 2-55 3-81 3-23-1-23 3-42 5-17 3-70 1-86-3-13-3-10-11-14-14-1-1-23 1-27 2-23 4-37 18-63 8-8-3-14-9-20-12-14-6-39 3-54 3-27 1-67-1-92-9-9-2-17-9-25-9-7 0-19 6-27 8-59 12-133 17-193 22-22 2-49 0-68 3-16 2-35 19-57 21-37 5-131 4-164-10-10-4-31-23-34-23-10-1-29 8-40 9-32 4-55-13-81-9-21 2-37 12-61 4-18-5-30-8-50-10-15-1-37 13-55 1v-8Zm349-6c3 7 13 6 19 8s10 7 16 8c24 5 79 4 100-7 11-5 16-18 2-22-17-2-40-1-57-5-7-1-13-7-20-7-10 0-39 6-45 13-5 4-4 12-15 12Z" />
    <path fill="#917147"
      d="M0 758c36 2 85-53 106-2 19-1 42-13 60-9 5 1 9 5 16 5 12 2 72 2 80-1 4-2 9-7 15-9 12-5 33-5 47-4 17 2 22 10 35 17 62 34 102-13 159 2 10 3 18 11 24 13 13 3 59 0 71-5 6-2 11-8 17-11 17-8 27-1 43 0 21 0 43-3 64-2 22 2 39 11 63 8 15-1 19-16 38-18 23-2 36 10 52 10 13 0 23-10 40-8 11 2 21 12 25 12 5 1 34-10 43-11 52-9 51 12 92 26 37 11 70 3 105-11 49 5 106-2 155 3 28 3 45 18 69 29 8 5 25 7 31 14l5 9a378 378 0 0 0 193 4c21-7 15-11 24-22 10-10 42-8 56-8v4c-10 0-40-1-45 8-2 5 0 8-4 14-9 12-56 18-72 21-41 7-84 4-126-1-11-2-48-8-54-17-2-4 0-7-1-9-1-4-15-7-20-10-12-7-23-16-37-21-36-14-113-8-154-7-24 0-23 4-43 9-28 6-73 4-99-7-12-4-35-21-46-23-23-3-64 18-82 10-6-3-6-9-16-10-19-2-27 11-43 12-13 2-30-6-36-5-2 0-14 13-20 16-15 6-56 6-71 0-8-3-9-8-14-10-20-10-46-1-66-1-11 1-23-3-33-2s-13 10-23 13c-22 9-68 16-91 9-11-4-16-14-22-16-27-13-53 4-80 6-22 2-77-1-98-10-6-3-10-9-16-10-19-2-31 14-51 15-11 0-20-4-30-5-19-1-40 1-59-2-6 0-15-5-19-5-19 0-40 21-65 17-20-3-20-23-22-24-23 11-44 17-70 14v-4Zm0 310c10-2 19-6 29-6 16-2 37 4 51 2 1-1 18-14 25-17 31-11 35 10 56 18 57 19 140-15 201-9 17 1 29 6 48 6 57-1 113-9 170-6 43 2 68 19 111 18 34-1 45-4 74-19 25-12 62-3 89-1 19 1 40-2 58 0 14 1 33 13 50 17 12 2 36 7 47 7 8 0 48-8 54-11 9-4 9-18 25-23 24-7 51 0 31 28 35-1 71-20 106-16 11 0 18 5 27 7 20 4 85 17 100 11 5-2 11-9 17-11 22-10 53-5 76-5 28-1 49-11 80-6 16 3 33 10 49 12 27 2 60-7 89-4l65 4v8l-55-4c-38-4-78 7-115 1-19-3-37-12-57-11-12 0-26 5-38 6-24 1-49-2-73 2-15 2-23 16-42 18-39 3-86-17-125-16-19 0-57 15-79 18-16 2-30 2-45-1-5-1-9-5-13-5-11 0-35 8-49 10-34 3-81-2-113-15-7-3-16-10-22-11-13-2-30 0-44 0-18-1-60-9-74-4-4 2-8 7-13 9-29 13-100 20-130 12-21-6-29-14-55-15-61-4-123 6-184 6-21 0-42-9-62-8-61 1-118 24-181 9-9-2-24-10-31-9-7 0-29 9-40 10-29 2-59-10-88 2v-8Z" />
    <path fill="#917147"
      d="M1728 758v12c-19 2-32-11-46-17-11-4-25-5-36-8-25-8-43-26-70-27l-128-6c11 37-47 27-70 28-9 1-19 5-28 4-19 0-43-9-63-12-35-4-72 0-106-4-16-2-32-16-39-16-9-1-33 12-45 14-13 1-39 1-51-6-11-6-15-24-27-24-20-1-49 12-71 14-15 1-27-3-42-2-22 1-45 11-68 12-29 2-81 5-109 2-27-4-43-11-73-8-39 5-59 32-104 16-9-4-18-13-27-14-10-2-48 1-60 2-14 2-30 10-44 10-17 0-38-12-56-15-13-3-28-2-41-6-6-1-11-7-19-7-23-1-32 22-52 24-34 4-64-16-96-9-23 4-36 13-61 3-6-3-8-8-11-9-7-3-37 8-48 9H0v-8c28 6 60-13 86-12 14 0 12 5 20 9 15 7 43-7 61-9 12-1 28-1 39 4 6 3 9 7 14 9 9 4 30 8 39 3 18-9 21-19 46-18 13 0 18 6 27 8 11 2 25-1 37 0 16 2 37 14 51 14 11 0 26-8 37-10 24-4 76-9 98-2 9 4 19 11 28 13 20 4 56-12 81-13 29-2 47 6 73 8 53 4 102-7 153-14 17-2 32 0 46 0 29-1 80-27 107-12 9 5 17 22 25 24l22 2c22-1 44-19 67-8 14 6 15 12 34 14 28 2 56-1 84 2 20 2 53 12 69 12 6 0 20-6 28-8 8-1 41-2 43-4 1-2 0-8 4-13 13-15 35-3 50-1 43 4 103-5 143 9 12 4 25 13 38 17s27 5 39 10c13 4 25 14 39 14Zm0-431v8c-25 4-56-7-80-4-10 1-18 8-32 8-40 0-78-7-116-17-38-11-68-3-104-5-31-2-56-16-88-14-54 3-89 19-147 7-10-2-17-8-27-9-21-3-56 1-74-9l-16-12c-19-9-44 3-65 4-21 2-46-5-62-4-8 1-25 14-35 17-25 8-83-2-108-12-7-3-15-11-23-11-9 0-21 4-30 4-19 1-42-5-61-4-29 3-50 17-84 14-39-3-84-2-123 0-40 3-82 25-123 6-13-6-9-16-22-18-30-3-75 2-105 4-21 2-39 9-61 6-14-1-27-11-38-12-9 0-21 4-30 4-26 2-49-4-74-6v-8c20-3 42 6 62 6 20 1 41-6 64-4 12 1 27 10 38 10 44 1 94-13 140-10 25 2 44 17 70 18 24 2 40-4 62-6 23-1 45 2 67 0l46-6c22-1 45 4 65 2 15-1 33-10 48-10 19 0 40 5 59 4 7 0 15-3 22-4 39-3 79 23 119 22 14 0 32-10 46-12 21-2 43 5 63 4 27 0 50-15 79-4 18 7 18 15 42 16 53 5 107 7 159 6 26 0 60-2 85 0 19 2 40 11 60 13 16 1 31-3 47-3 67 1 119 23 190 15 31-3 53 3 84 4 4 0 8-1 11 2Zm0-248v10l-61 2-15 2c-21 0-37-11-58-10s-39 12-59 14c-34 3-114 3-142-17-3-3-3-7-6-8-11-8-56-3-71-4-18 0-42-10-63-12-34-2-60 4-93 6-27 3-52-6-78-8-45-2-82 22-130 9-5-1-10-6-16-6-18-3-43 1-62-1-11-1-29-9-38-10-20 0-52 13-75 15l-38-1c-10-1-23-9-30-10-15 0-36 9-55 8-22 0-41-13-60-14-15 0-30 4-45 4-24 1-41 1-65 4-32 4-41-3-70-6-25-2-57 4-85 2-8 0-15-4-24-4-11 0-22 5-34 5-18-1-30-7-50-2-29 8-35 19-73 15-16-1-29-15-32-15-5-1-21 5-28 5-23 2-49-1-72 0v-8c23-6 48-1 72-4 20-2 34-12 56-2l11 7c25 9 58-10 84-11l127 2c24 1 45-4 66-4 24 0 52 6 77 6 30 1 63-5 91-4 16 1 32 11 46 11 25 0 52-18 82-6 6 3 11 9 18 11 33 7 71-7 104-8 16 0 29 6 44 6 23 2 52-6 75-4 7 1 12 5 18 6 40 7 77-6 117-4 23 2 47 10 70 8 37-2 66-6 103-1 31 4 40 9 73 7 15 0 64 2 76 7 30 16 42 22 79 24 35 2 43-2 74-11 30-9 57 0 85 1 27 1 54 0 80-2ZM0 916c16-4 32 1 49 0 10 0 25-2 34-4 19-4 64-23 79-19 15 3 5 17 14 19 32 6 63-26 86-19 8 2 10 7 22 9 56 7 94-2 149-4 12 0 38-1 47 6 8 6 2 16 21 18 35 4 85-5 121-8 31-2 90-4 119 0 9 2 15 8 22 10 37 12 76-20 111-15 9 1 18 6 27 8 33 7 110 6 144 1 10-2 21-7 31-8 18-2 40 1 58 0 31-1 86-17 113-9 8 2 17 9 25 11 24 4 76 0 96 15l6 7c8 7 59 15 70 12 6-1 9-7 14-10 16-8 40 1 57 2h47c21 2 45 13 64 13 17 0 41-5 59-6 14-2 29-2 43-3v13c-16 0-32 0-47 2-22 1-43 5-65 4-16-2-31-8-46-10-24-4-46-1-69-3-10 0-21-6-31-3l-10 7c-20 7-74 1-94-7-11-4-15-11-27-14-23-6-53-3-77-8-13-2-15-7-24-12-14-6-61 6-80 7-23 2-47 0-70 0-8 1-20 6-29 8-43 7-136 12-178 3-8-1-18-7-25-7-34 0-62 23-104 9-60-19-129-3-192-1-20 1-51 2-69 0-9-1-16-4-21-11l-4-10c-9-8-49 2-62-1-41 6-93 9-134-2-7-2-12-8-17-8-8-1-31 14-42 17-13 3-48 9-58 1-4-2-3-10-5-10l-23 5c-11 3-21 8-32 10-31 7-62 6-93 1v-6Zm1728-345v8c-16-1-38 0-52-5-5-2-9-7-13-7-5 0-27 6-32 8-15 6-26 16-41 18-18 2-48-1-65-6-8-2-19-9-26-10-13-2-38 3-54 2-15-1-35-4-50-7-30-6-65-25-93-27-15-2-44 0-59 2-19 2-30 11-52 10-53-2-101-13-152-22-43-7-86 0-129 0-56-1-104-7-158-21-6-2-22-8-26-11s-6-11-7-11h-28c-32 0-78 6-111 10-29 4-42 20-73 20h-66c-11 0-21-8-29-8-9 0-28 7-40 8-19 3-35 0-52 0-25 2-45 9-73 9-21-1-62 1-80-3l-31-6c-39-4-50-26-83-33-18-4-36-4-53-1v-12c15-1 31-4 46-1 21 4 46 20 63 30 18 8 25 1 41 1 31 1 71 16 107 17 19 0 42-10 61-11 6 0 13 3 20 2 30 0 68-18 94-14 6 1 9 5 15 6 17 3 63 6 80 2 6-2 13-7 20-8 31-9 64-5 95-12 10-3 15-8 23-11 11-4 54 0 65 4 14 5 9 9 12 18 3 7 54 14 65 16 83 17 158-1 236 12 47 8 93 18 141 20 22 0 33-8 51-10 79-9 111 16 182 27 30 5 55 0 82 3 24 2 41 18 69 20 27 2 26-5 47-14 13-5 43-13 57-10 4 1 6 4 9 5 15 4 31 2 47 3Zm0-422v12c-27 3-53 3-80 4l-28 5c-24 0-44-13-64-15-46-4-82 15-132 1-14-3-27-12-40-14-16-3-33 1-48-1-18-2-21-12-46-10-18 2-38 10-52 17-17 9-73 3-92-2-21-6-2-20-34-19-24 1-37 10-63 3l-13-7c-8 1-25 13-37 14-40 5-112-3-153-8-38-5-59-17-99-6-15 4-28 13-45 14-33 2-62-1-98 4-19 3-43 17-62 2-6-4-5-11-10-15-9-5-28-7-39-11-14-6-31-19-46-20-8 0-19 4-27 4-32 1-43-9-75 10-10 6-19 15-30 20-19 8-67 8-88 6-13-1-25-8-37-10-31-3-59 7-88 8-10 0-18-4-26-4-11 0-26 5-37 6-16 1-24-2-39-8v-10c12-5 26 7 34 7 10 2 26-3 38-3 10 0 18 4 28 4 28 0 54-12 85-10 15 1 33 10 46 10 7 0 17-4 24-4 14-1 29 1 44-1 22-3 55-26 75-29 12-2 25 3 38 2 16-1 30-6 47-4 15 1 28 11 42 16 15 5 38 8 51 17 4 3 8 9 11 10 6 3 21-2 29-3l70-6 36 2c12-1 33-13 48-15 44-9 84 5 128 9 31 3 60 1 91 2 9 0 23 4 32 4 11 0 27-12 40-12 11 0 14 9 27 10 21 2 61-11 79-1 5 3 6 9 9 11 8 6 36 0 47 0 12 0 23 3 34 2 35-2 50-21 91-10 28 8 38 3 64 6 32 4 67 22 101 18 24-3 40-8 67-6 19 2 36 13 56 14 13 1 37-1 50-2 22-2 44-8 66-8ZM0 1002c12-1 21-5 33-4 16 2 27 4 45 0 5-1 14-11 23-13 27-6 33 3 37 27 34-4 68-13 101-18l38-4c29-2 49 10 77 8 23-2 44-15 67-6 8 3 15 10 24 14 25 12 60 15 88 14 16 0 27-9 40-12 14-4 85-11 99-9 20 2 33 13 57 9 7-1 24-16 36-20 39-13 44 3 74 13l48 13c18 2 37-3 55 3 14 4 16 18 33 23 36 11 89-20 127-26 21-3 40 1 60 0 34-2 74-16 107-14 30 3 67 14 99 18 61 7 113 1 170 4 38 3 77 16 116 10l74-6v6l-17 4c-34 4-77 7-111 4-23-1-46-9-69-10-24-1-50 5-74 4-48 0-106-9-153-16-14-3-31-10-45-10-26 0-63 12-91 14h-50c-48 4-111 40-157 18-23-12-12-21-49-22-33 0-68 3-101-7-5-1-17-8-20-8-5 0-22 16-30 19-23 9-57 7-80 2-10-3-24-11-33-12-15-1-41 0-56 3-13 2-25 12-37 13-30 4-81 1-110-10-11-4-36-22-43-22-12-1-33 8-48 8-26 1-48-10-73-8-12 1-29 4-41 7-28 5-77 21-102 21-18 0-32-8-29-28-7 3-14 8-21 10l-38 4c-9 0-17-6-27-6-8 0-16 3-23 4v-6Z" />
    <path fill="#917147"
      d="M1728 526v6c-9 2-17-2-25-1-10 1-21 8-31 9a2544 2544 0 0 0-52 8c-28 5-84 0-110-8-7-2-16-9-21-9-38-7-81-1-120-16-5-2-11-8-17-9-11 0-33 8-45 10-42 6-59 0-98-2-14 0-27 3-40 2-27-2-46-19-70-25-38-9-69 0-106-1-18 0-40-7-58-8-21-1-51 0-71 2-22 2-60 13-79 5-7-4-14-14-22-15-57-9-117 3-173 0-18-1-36-7-55-8-20-1-35 7-54 8-32 2-67-1-99 0-47 1-83 8-131 2-19-2-53 14-68 6-4-3-5-8-8-9-4-3-45-1-55-1l-85-6H0v-6c8 2 18-2 25-2l4 2h129c5 0 27 4 32 7 4 2 6 7 7 7 9 2 35-10 54-8 52 5 90 0 141-2 25-1 52 2 77 0 21-2 41-13 62-12 17 0 36 8 53 10 32 3 71-4 105-2 16 1 74 5 87 10 16 6 11 16 35 14 30-3 60-10 91-10 29 0 59 8 85 8 44 1 81-10 127 4 15 5 34 18 51 18 9 1 19-4 28-4 23 0 46 9 72 8 30-1 65-15 93-12 11 1 19 10 29 14 34 13 79 6 114 11 19 2 38 12 61 13 32 3 51-7 78-8 9 0 16 3 24 3 22-1 43-4 64-3Zm0-272v12c-15 8-29 17-45 23-12 3-46 14-57 13-22 0-53-15-79-16-11 0-24 5-35 4-28-1-64-25-92-30-42-7-94 7-141 4-28-2-56-16-85-8-6 1-11 6-16 8-11 4-67 0-79-3-10-4-10-14-21-18-17-6-52-9-70-4-7 1-15 6-23 7-10 1-26-4-36-3-19 1-46 13-69 15-51 4-54-6-96-19-26-8-60 0-87-1-33-1-60-7-94 3-12 4-14 11-23 16-37 20-119-2-164 1-39 3-77 4-117 4-14 0-29 6-44-1-6-3-9-9-13-12-6-3-67-9-78-9-30-1-56 8-86 6-26-2-52-11-78-10v-10c48 0 95 11 142 10 27 0 100-6 121 8 3 2 3 6 5 7 5 3 35-3 43-3l97-4c47-2 119 17 159 3 8-2 18-10 28-12 31-8 63-5 94-3 38 2 91-14 126-1 9 4 16 10 26 14 41 13 76-13 114-11 7 0 20 4 28 4 5-1 12-6 19-8 40-8 89 14 130 20 9 1 29 6 37 6 4 0 10-5 15-7 38-9 86 3 126 5 30 2 58-6 88-4 38 3 68 25 104 32 18 3 36-3 56-2 46 3 62 24 111 1 20-10 34-31 59-27Z" />
    <path fill="#917147"
      d="M1728 230v8c-30-3-53 22-82 24-29 3-70-5-97-15-34-12-28-8-62-9-21-1-50-7-70-12-11-3-20-9-31-10-14-1-27 7-42 8-32 2-62-3-93-6-38-5-84 1-125-4-8-2-14-8-22-8-11-1-22 5-32 6-36 3-66-10-99-12h-28c-12-1-21-6-33-6-14-1-29 5-44 5-19 1-40-5-60-3s-30 9-53 7c-25-2-44-8-72-5-17 1-33 8-49 10h-42c-23 3-44 14-65 23-14 7-106 8-127 7-20-1-40-10-60-12-29-2-50 3-79-6-48-14-80-23-131-18-21 2-41 10-63 4l-16-8c-8-1-17 6-28 6-9 0-15-4-23-6v-12c14-6 27 4 40 7l40 9c11 0 30-7 42-8 41-5 90 0 131 8 15 3 32 14 45 16 17 2 35-3 52-2s33 9 48 10c26 2 78 1 103-2 28-4 60-24 93-26 44-4 86-10 131-10 5 0 9-3 14-3 10 0 22 7 32 7 13-1 31-7 45-7 19 0 38 6 58 5 14-2 26-7 40-7 11 1 19 5 29 6 15 2 34 1 50 3 20 2 46 10 65 9 18 0 32-10 53-2 6 2 12 9 18 10 45 10 90-1 134-1 24-1 52 6 77 6 9 0 21-7 30-8 27-3 35 5 58 11 28 7 48 8 77 9 44 0 39 9 73 19 17 6 53 9 70 7 13-3 31-16 47-19 12-3 21-4 33-3ZM0 8c26 3 53 9 80 8 37-1 77-13 114-14 21-1 23 3 40 7 40 10 95-9 138-7l121 8c18 1 39-2 56 0 18 2 35 12 55 12 24 1 48-8 72-10 26-2 52 2 77 2 13 0 31-4 44-4 43 0 88 13 132 10 29-1 59-13 88-10 10 1 19 5 28 6 53 5 115 2 170 4 26 1 65-3 88 0 10 2 19 11 31 12 30 4 77-3 105 6 16 5 25 16 44 17 32 0 30-21 50-31 14-8 55-10 71-7 22 3 44 30 67 20 7-3 7-10 9-12 7-6 38-1 48-3v8c-6 2-34-4-36-2-1 1 3 9-4 15-16 13-50 10-67 3-9-4-21-14-30-15-8-2-40 3-48 7-15 8-13 22-40 24-37 4-40-6-69-17-33-14-81 5-120-7-9-2-13-7-22-8-12-1-27 4-39 4-45 2-90-4-135-6-25-1-43 3-70-3-11-2-23-10-33-11-25-2-58 12-84 14-48 4-96-8-144-6-13 1-29 4-42 4-27 1-54-4-81-2-14 1-29 6-44 6-30 2-51-10-79-12-49-4-105 0-155-4-11-1-24-6-34-6-26 0-58 7-85 8-26 1-49-5-74-4-54 3-106 20-160 14-11-1-21-7-33-8V8Zm1728 387v10c-25 10-47 15-74 13-26-3-55-20-81-21-8 0-14 5-22 6-17 3-32-5-48-7-22-4-50-8-72-9-22 0-36 8-56 6-11-1-22-7-33-8-55-5-111 7-167 4-49-2-86-19-131-31-36-9-77-1-111 11-8 3-15 8-23 10-20 3-84-7-105-13-9-3-21-11-28-11-9 0-24 4-34 4-42 1-68 2-107-10-58-16-114 12-169 6-8-1-14-5-21-6-20-3-90 19-119 22-16 1-36-2-52 0-36 5-67 25-105 24-29 0-75-8-102-20-8-4-20-14-27-16-12-2-28 1-41 0v-12l23-2c13 0 40 2 49 10 4 4 4 10 11 15 20 15 92 26 116 17 33-13 41-33 82-34 38 0 70 5 109-2 23-4 35-13 63-10 9 1 16 6 28 6 14 0 27-10 40-12 24-3 66 0 91 2 11 1 25 6 36 6 13 0 25-3 39-2 13 1 26 7 40 8 18 1 39-6 56-4 11 1 20 9 29 11 14 5 82 17 94 15l25-9c63-16 111-12 174 0 43 8 88 27 134 21 7-1 12-5 18-6 23-3 81-4 103-2 8 1 17 6 24 6 6 0 14-3 20-4 26-1 57 3 82 7 15 2 43 11 56 11 6 0 11-3 18-4 42-4 81 26 119 19 16-3 33-11 49-15Z" />
    <path fill="#917147"
      d="M1728 349v6c-7 3-22-4-25-3-1 0-7 9-12 11-24 15-93 21-119 12-9-3-13-8-21-12-15-7-49 0-68-2-30-4-72-22-101-22-18 0-45 10-64 12-29 2-54-6-79-6-12 0-25 6-38 6-33-1-89-7-121-13-34-6-58-20-95-17-46 3-89 14-137 12-34-2-57-14-87-16-23-2-47 1-70 0-36-3-73-8-109-10-29-2-50 9-75 10-9 0-17-3-26-2-40 1-77 23-118 13-8-2-15-9-19-9-32-6-77-7-111-11-10-1-23-5-32-5-8 0-18 3-26 4-34 1-70-5-103-3-24 2-48 12-72 9v-8c21 3 44-10 64-13 33-3 69 9 102 7 11-1 21-5 31-6 41-5 78 12 117 16h58c15 0 29 4 44 4 20-1 40-7 59-8 11-1 21 2 30 1 10 0 24-6 35-7 34-5 56 2 88 4 19 1 48-4 64 2 47 17 113 11 164 12 12 0 27 3 38 4 46 2 85-12 131-8 23 2 48 11 71 16 28 5 79 13 107 14 13 0 25-4 38-4 14 0 30 5 44 6 37 2 71-15 107-12 30 2 64 17 93 20 27 2 49-7 76 2 27 10 33 15 65 12 26-2 39-10 61-20 14-6 27 1 41 2Zm0 347v8c-21 3-40 15-62 14-23 0-44-12-67-18-46-12-84-9-130-12-13-1-29-6-42-6-24-1-51 6-75 6-42 0-87-8-127-8-24-1-52 6-75 6-20 0-76-15-97-22-16-6-24-15-44-15-55 0-109 12-162 24-37 7-65-5-100-3-20 0-41 10-58 10-15 0-32-5-47-6-32-2-67 5-101 4-24-1-52-9-76-9-53 0-106 12-160 9-32-2-75-12-106-10-26 1-43 15-73 11-9-1-19-7-26-8-11 0-30 6-42 7-21 1-38-3-58-4v-10c13-4 29-5 43-2 6 1 14 7 19 7 13 1 30-7 46-6 9 1 12 5 18 6 17 3 33-6 49-9 38-7 70 8 108 6 54-4 105-7 160-4 18 0 42 6 60 6 42-1 83-12 127-9 17 2 33 9 49 10 21 2 55-9 80-10 27-1 57 5 83 3l66-9c36-3 96-15 130-6 9 3 16 8 26 10 15 3 30 2 45 6 10 2 22 8 31 9 28 3 61-2 89 0 20 1 40 7 60 8 48 3 94-7 140-6 13 0 30 5 44 6 44 2 83 0 126 10 27 7 53 22 81 17 8-1 18-6 28-8 6-2 13-1 20-3Zm0 184v11c-14-3-30-8-43-9-20-1-79 12-97 21-23 10-16 21-51 18-42-4-97-29-145-36-28-5-81 5-75-39-28-4-56 7-84 8-33 2-78 0-113 0-22 0-76-7-92 3-22 12-27 19-55 21-46 4-116-2-163-6-14-1-30-8-43-8-17 0-39 9-58 10-18 2-37 0-55 0-33 2-60 9-93-1-10-2-21-10-30-11-21-2-51 3-74 2l-29-2c-12 1-26 7-38 8-15 2-52-2-68-4-9-2-18-9-24-10-9-1-35 2-45 2-19 1-51 10-68 1-3-1-7-6-9-7-3 0-35 22-53 20-9-1-18-6-27-7-29-4-66 16-96 15v-4c32-8 66-23 100-20 11 1 19 8 31 5 24-5 15-21 26-30 9-7 30-7 38 1s-3 21 18 21c26 1 72-10 96-2 6 2 11 7 19 9 43 7 74-4 115-4 28 0 78-6 103 2 50 15 56 11 108 8 37-2 51-5 85-11 33-6 46 3 75 5 42 4 108 10 149 8 36-1 51-22 83-24 11-1 21 2 32 2 49 1 106 3 155 0 20-1 87-18 101-2 4 5 3 14 6 20 7 11 45 8 58 11 41 8 104 36 141 38 23 1 22-11 41-19 18-6 74-21 93-21 18 0 37 6 55 7ZM0 502c16-2 27-13 45-9 17 4 10 17 19 22 11 7 25 9 37 12 15 6 9 6 27 8 5 0 22 2 19 11-2 6-27 5-34 6l-26 11c57-1 113-10 170-16 10-1 20 1 30-1 9-1 19-7 29-7 12-2 22 4 32 4 7-1 18-7 28-8 30-3 53 6 79 6 11 0 23-6 34-6 25-3 77 2 98 14l19 14 47 19c15 4 91 7 108 4 33-4 40-13 65-29 38-23 80-5 121-4 32 0 59-7 94-2 57 6 119 42 177 27 11-2 17-11 31-13 72-9 103 23 165 32 15 2 26 0 42 5 17 5 33 20 51 21 41 4 61-20 93-24 33-4 78 4 113 2l15-2v8c-15-1-30 2-45 2-22 0-51-6-73-4-27 3-52 22-85 24-36 3-37-8-65-15s-54-3-84-15c-10-5-20-14-31-18-26-10-63-14-91-10-16 3-16 11-28 15-57 21-139-26-199-31-26-2-52 2-78 2s-71-9-96-1c-15 4-26 18-40 24-35 15-59 12-94 11-18 0-36 5-51 4-10 0-62-21-71-27l-12-12c-18-12-69-15-90-13l-34 6c-25 0-50-7-77-4-25 2-38 17-70 13-8-1-16-7-23-7-37-6-163 17-203 28-11 4-24 13-35 14-17 1-36-8-53-2v-16c14-2 31-1 43-6 9-3 15-12 22-14 7-3 10 0 14-1l15-8c13-10-11-14-17-17l-25-12c-4-3-5-11-9-13-3-1-18 5-24 6-6 0-13-3-19-2v-6Zm83 61c-15-5-23 13-39 13l-36 5c22-1 46 14 58-12l17-6Zm1645 420v8h-56c-34-1-63-7-98-4-21 2-44 9-65 10-41 3-81-6-121-8-31-1-70 5-100-5-14-5-28-17-42-22-34-13-102 5-142 3-21-1-41-9-61-3-19 6-32 17-54 19-26 3-78-1-105-4-13-2-25-11-38-12-14-1-30 7-44 8-31 3-92-3-123-6-15-1-28-11-43-12-51-5-93 38-147 32-29-3-25-26-44-39-21-15-47-5-71-3-33 2-64 8-95 10-24 2-46-6-70-4-31 2-51 14-84 3-6-2-14-10-15-11-6 0-33 18-40 18H37l-20-4H0v-6c20-5 42 3 61 0 17-3 53-29 67-16 4 4 4 10 10 14 20 12 47 0 69-2 23-2 46 4 68 2 39-3 83-13 123-16 30-2 54 0 77 20 7 6 15 22 24 22 24 2 63-18 87-23 17-4 43-7 60-5 12 2 24 10 37 12 25 4 67 5 92 6 32 1 57-14 85-12 12 1 21 8 32 10 19 4 74 6 93 4 21-2 44-13 65-14 22-1 45 7 68 6 40-2 102-17 139-4 20 7 36 22 59 24 26 3 56-1 82 0 35 2 69 11 105 8 22-1 45-8 67-10 33-2 64 3 97 4 20 1 41-2 61 2ZM0 85c22 6 46-6 68-8s65-2 88 2c8 2 27 11 33 10 4-1 4-5 6-6 19-12 39-3 60-5 23-2 48-13 71-15 19-2 49 0 70-1 40 0 78 11 115 9 18-2 37-10 54 2 6 4 9 12 13 16 17 13 44-1 64-2 22-1 43 5 65 4 39-2 75-7 115-6 32 0 54 8 84 10 56 3 109-14 164-10 35 2 64 13 97 19 61 11 133-28 190-12 36 10 55 26 98 29 68 4 146 3 216 4 19 0 38 0 57-6v8c-15 4-30 4-45 4-42 0-85-3-127-4-49-1-104 6-151-7-38-10-52-28-95-23-36 4-73 17-109 18-46 2-90-20-137-22-35-2-67 8-101 10-57 3-114-3-170-8-28-3-55 3-82 4-24 1-49-4-73-2-25 2-38 13-66 3-8-2-21-13-25-14-5-1-21 4-32 3-34-5-60-14-96-14-26-1-66-5-89-2-23 2-49 13-73 15-22 3-28 3-49 8-28 7-60-9-92-9-38-1-77 15-116 6v-8Zm1728 405v6c-37 6-77-1-114 2-11 1-21 7-32 8-19 2-60-5-78-10-21-7-33-20-55-22-34-3-71 4-105 2-26-1-52-8-77-10-53-4-106 10-158-6-17-5-47-22-64-22-27-2-70 11-98 14-32 2-83 0-115-2-26-2-45-8-73-8-40-1-52 0-90-11-29-8-55 3-83 5-12 1-30-2-41 0-6 1-9 10-24 12-27 3-25-8-43-13-24-7-88-8-114-5-31 2-46 8-81 8-65-1-131 4-197 0-29-2-57-11-86-4v-6c29-9 58 1 88 2 24 1 48-5 72-5l107 3 30 3c17-1 39-12 57-13 36-3 99 1 134 9 4 0 10 4 13 4 5 0 14-7 22-8 9 0 18 4 26 5 42 2 83-16 125-6 29 8 26 10 59 10 61-1 119 10 179 12 61 1 108-25 168-5 11 4 22 10 33 13 50 16 101 1 152 6 23 2 48 9 71 10 37 2 74-5 111-2s66 26 109 28c23 1 34-6 54-8 30-2 66 5 97 4 7 0 14-5 21 0Z" />
    <path fill="#917147"
      d="M1728 446v6h-37l-16 2c-26-1-46-14-79-10-14 1-9 7-14 14-11 15-58 5-67-8-6-10 0-16-18-16-9-1-18 3-26 4-25 1-56-12-85-13-20 0-37 9-56 9-39-1-90-16-127-16-13-1-25 7-43 6-43-3-88-23-135-27-28-2-54 10-80 12-55 5-110-10-162-21-33-7-61 3-92 3-16 1-32-3-49-2-20 2-43 12-63 3-5-2-7-6-11-7-23-4-60 9-83 10-13 1-25-4-38-4-62 1-123 16-186 14-9 0-23-4-32-4-18 0-35 9-52 11-16 1-76 1-88-4-4-2-5-6-8-7-10-6-18-2-28-4-17-2-35-7-53-8v-2c18-4 36 4 53 4 14 1 21-4 38 1 24 8 56 14 81 14 16-1 34-9 51-11 65-4 133 1 197-8 46-7 82-10 129-10 18 0 35 10 47 10 18 1 46-6 68-6 37 0 90-8 123-1 35 7 65 18 103 20 31 1 42-2 70-12 36-12 55-3 88 5 15 3 32 1 47 5 26 6 49 21 79 17 55-6 100 12 152 13 26 0 51-15 84-12 15 2 35 11 47 12 8 0 18-4 26-4 13-1 40 0 48 12 3 3 3 8 5 11 2 2 15 7 18 7 5-1 8-10 14-14 4-3 13-6 18-6 27-2 54 7 78 10 21 2 44-4 64 2Zm0 216v8c-10 4-22 4-32 7-28 7-40 23-72 5-19-10-13-16-42-18-39-3-80-2-119-4-89-6-178-10-266-17-26-1-64 1-88-7-6-2-12-8-15-9-26-5-67 5-97 2-14-1-24-9-36-10-15-1-70 3-84 8-25 8-23 6-49 8-27 3-62 10-87 11-10 0-25-4-36-5-27 0-57 4-83 2-18-1-41-8-58-7-8 0-17 4-25 5-19 2-25-6-42-8-29-2-58 6-87 8h-32c-15 3-17 11-40 8-14-1-21-11-28-12-25-3-59 14-78 5-6-2-6-6-13-7-8-1-15 2-22 2-47 2-95 4-141 4-19 1-37-3-56-2v-8c19-3 37 1 56 0 31 0 63-8 94-6 11 1 22 6 32 6 14 1 30-6 43-4 7 2 14 10 20 10s20-6 28-7l24-1c15-1 31-9 46 0l5 6c10 5 25-1 36-2 73-4 130-8 204-4 26 2 52-4 78-2 27 2 55 12 81 10 33-1 70-9 101-18 24-7 103-15 126-7 6 2 10 7 16 8 32 8 81-5 114 1 5 1 14 10 26 12 52 9 120 8 174 10 63 4 126 10 189 13 36 1 98-7 129 6 7 3 11 8 17 11 18 9 25-2 43-6 14-4 31-6 46-5Z" />
    <path fill="#917147"
      d="M1728 631v8c-22 0-44 9-65 11-57 3-140-4-198-9-67-5-131-20-198-22-21 0-43 1-64-2-22-2-42-11-63-14-40-6-83-4-123-8-50-6-130-29-176-4-11 6-19 17-31 21-53 17-118-1-172-5-19-1-45 4-63-6-6-3-9-10-16-12-30-6-66-9-96-8-15 0-32 0-46 2-27 5-49 10-77 12-8 1-20-2-26 0-2 0-5 9-21 10-15 1-24-6-34-6-9 0-24 5-34 6h-34c-12 2-19 9-34 6-4-1-6-5-10-5-16 0-58 22-68 12-3-2-1-4 0-7-27 3-53 2-79 0v-4c27 4 58-7 84-4 6 1 11 4 16 4 6 0 19-6 27-7 45-8 86-1 132-7 16-3 34-7 50-8 23-2 51 3 73 1 5 0 11-5 17-6 29-7 68-7 98-9 16-1 73 5 86 13l10 10c12 6 35 2 49 3 40 3 133 25 166 8 8-4 16-14 25-18 50-27 131-4 184 2 36 4 75 3 111 6 29 3 56 14 85 16 28 2 61-2 91 0 50 4 103 19 153 22 54 4 109 6 163 8 38 2 71-7 108-10ZM0 561v-6c8-4 20 0 28-4 4-2 4-6 6-9l6-4c0-1-5-11-7-11-3-1-10 5-16 5-6 1-11-1-17-2v-10c11-2 30-4 41-1 8 2 9 9 15 13 3 3 14 5 15 8 1 6-16 4-21 6-5 1-9 6-13 8-12 6-24 4-37 7Zm140 569c8-1 27-12 37-15 33-10 46-7 78-7 8 0 21-4 28-2 4 2 3 7 5 9 6 4 27 3 37 8 4 2 7 6 12 8 6 4 28 11 30 12 2 2 3 6 2 7-2 3-50 8-59 11-12 3-27 13-37 14-9 0-18-5-28-6-17-2-35 4-52-1l-17-7c-11-3-50-3-54-11-2-3 2-8 1-10-1-1-15 0-12-10 9-1 21 2 29 0Zm19 14c13 1 27 12 38 14 23 6 92 5 112-8 11-7 16-20 0-23-18-4-43-2-62-5-6-1-11-6-17-7-10-2-50 5-56 14-2 2-1 7-3 9s-11 1-12 6Zm1529-363c-12 1-27-5-37 0-4 2-9 12-15 15-18 12-99 16-120 10-16-6-24-24-39-31-6-3-17-6-24-7l-29-5c-7-3-2-8 4-9 29-3 23-5 45-13 35-13 101-14 136-4 23 6 25 17 40 25 9 5 28 5 35 11 4 2 4 3 4 8Zm-82-32c-15-14-66-15-86-10-7 2-14 8-21 9-13 2-31-5-35 12 9 2 22 4 30 10 10 7 10 23 26 28 23 6 85 4 105-8l14-13c3-7-18-11-24-16-3-3-5-9-9-12ZM298 337l-27 7c-12 3-31 5-40 9-6 2-11 9-17 13-13 7-58 14-70 8l-11-9c-22-12-59-22-84-32-11-4-8-8 2-8 16-2 33 1 49 0 28-2 68-14 95-12 18 1 49 10 69 13 6 1 32 3 34 5v6Zm-205-2c0 2 3 4 5 6 25 17 62 27 93 24 20-2 19-8 31-17 7-4 18-4 24-10 0-5-43-15-49-15-13-1-26 7-39 8-21 2-44-2-65 4Z" />
    <path fill="#917147"
      d="M785 551c-2 1-2 9-4 12-4 6-17 3-24 4-46 6-107 23-145-14-3-4-6-11-9-12-8-5-29-6-40-10-6-2-10-2-9-9h13c36-10 111-32 145-17 23 9 31 24 60 31 9 2 47 4 49 12 2 11-34 1-36 3Zm-186-23c7 0 20 4 23 11 2 3 1 7 3 11 17 29 94 19 121 10 9-3 15-7 20-14-10-6-21-10-31-15-18-10-30-24-51-25-19 0-44 7-62 12-8 2-22-1-23 10Zm1017 243c14 16-20 13-28 14s-17 8-24 7c-5 0-35-8-40-10-13-5-17-16-28-23l32-11c14-1 66-1 77 7 4 3 3 8 5 11s5 4 6 5Zm-84-14c-11 2-19 10-6 17 19 9 49 7 70 5 13-2 1-12-6-15-12-4-46-9-58-7ZM224 345c-1 0-12-1-16 1-6 1-11 8-16 10-15 7-42-9-59-5-8-8 22-10 25-11 4-1 5-4 12-5 8-1 47-1 52 3 2 1 3 6 2 7Zm242-202c5 7-6 11-12 12-17 3-51 6-68 4-27-2 3-16 14-18 8-1 63 0 66 2Z" />
    <path fill="#917147"
      d="M715 549c-3 1-5 9-7 11-8 5-53-7-61-12-5-3-7-8-8-9-4-2-19-2-16-9 5-11 26-12 35-12 11 0 37 0 46 3 5 2 8 8 13 11 7 4 24 5 29 10 4 3 0 7-1 7-7 0-26-2-30 0Zm-5-12c-6 0-9-8-12-10-6-2-48 2-49 7 1 13 33 19 41 16 3-1 4-5 7-7 4-3 11-2 13-6Z" />
  </g>
  <defs>
    <clipPath id="a">
      <path fill="#fff" d="M0 0h1728v3999H0z" />
    </clipPath>
  </defs>
</svg>