<svg xmlns="http://www.w3.org/2000/svg" width="1728" height="1117" fill="none"><g clip-path="url(#a)"><path fill="#917147" d="M0 0h1728v3999H0z"/><path fill="#674729" d="M1728 0H0v3999h1728V0Z"/><path fill="#917147" d="M0 1122.15c17.352-5.51 36.531 3.16 53.388-.04 3.807-.72 14.031-9.66 19.836-12.44 26.73-12.77 43.542-7.63 70.686-9.97 55.521-4.79 142.191-34.55 194.787-14.82 11.052 4.14 54.009 36.91 60.552 46.33 4.482 6.44 5.004 12.19 7.173 19.28 20.286-.43 40.347-12.33 60.372-14.21 24.57-2.31 53.901 4.52 80.388 1.75 15.912-1.66 28.512-10.02 43.155-13.3 65.241-14.66 139.428 8.85 206.865 1.19 21.708-2.46 45.378-11.84 66.762-12 24.246-.19 104.166 18.45 127.431 28.04 24.425 10.06 37.735 24.52 68.015 20.35 22.85-3.15 17.86-20.64 32.03-28.46 21.42-11.83 70.45-6.97 94.93-3.38 15.7 2.3 44.36 14.06 56.45 13.21 8.86-.63 24.28-9.19 34.77-11.2 22.96-4.41 68.68-7.34 90.01.24 26.58 9.43 36.42 14.44 67.11 11.7 22.59-2.01 32.32-20.03 51.36-27.27 25.72-9.79 42.6-.66 67.78 2.73 13.27 1.79 22.67-.78 37.04 3.29 14.38 4.07 22.48 13.12 34.27 18.17 12.75 5.46 28.84 6.75 41.75 12.72 18.56-14.62 37.1-25.06 61.09-27.86v18.15c-17.52 5.6-26.61 25.42-45.54 28.05-19.4 2.7-72.52-12.3-87.34-25.22-3.69-3.22-5.43-8.18-10.41-11.78-14.14-10.22-24.35-5.25-38.93-7.43-10.51-1.58-27.19-7.5-36.56-7.43-16.84.13-32.77 19.59-47.99 26.22-16.78 7.31-48.3 7.33-66.68 5.41-17.33-1.8-39.13-15.7-52.45-15.66-7.53.03-40.06 7.47-48.51 9.98-16.95 5.01-28.23 14.35-48.49 14.17-26.38-.23-39.52-12.22-61.1-17.72-18.35-4.68-62.87-10.16-79.6-2.16-15.76 7.53-15.54 24.22-43.02 27.56-41.86 5.08-57.14-16.96-91.081-27.45-20.862-6.44-56.448-12.73-78.615-16.16-34.182-5.27-44.001 4.15-74.619 8.99-64.764 10.25-127.197-7.54-188.955-3.46-37.926 2.51-68.778 20.6-110.835 22.25-12.627.49-27.333-2.52-38.115-2-15.309.75-37.125 12.09-54.963 13.77-8.154.78-35.595 1.6-40.221-5.79-2.052-3.27 4.068-12-4.023-24.08-5.112-7.62-46.017-39.1-54.873-41.92-47.223-15.08-126.504 12.38-176.904 17.55-22.005 2.26-37.179-1.91-60.003 6.54-10.053 3.72-18.351 12.01-28.863 13.48-19.287 2.68-39.843-5.64-59.31-3.88v-4.03ZM0 813.691c13.653-2.962 24.813-8.147 39.429-6.158 8.379 1.144 11.538 9.921 18.531 11.713 36.756 9.426 46.269-36.371 89.766-29.277 25.902 4.222 59.553 19.41 85.185 19.842 22.572.378 46.746-16.304 67.986-15.737 19.476.522 38.538 19.707 59.031 19.752 13.824.027 28.026-9.101 40.59-10.074 7.758-.594 13.95 2.044 21.834 1.891 16.398-.315 36.747-9.246 52.452-8.166 21.825 1.495 36.081 24.263 62.487 26.36 31.428 2.494 40.581-5.725 67.527-11.253 37.278-7.652 76.599 6.311 119.466-1.522 34.578-6.319 27.288-10.506 64.107-.396 34.2 9.381 47.961-7.58 75.834-10.884 15.849-1.882 31.851 3.394 45.999 1.621 7.236-.91 15.417-5.636 22.941-7.284 8.838-1.935 38.061-3.133 42.273-7.139 1.467-1.395 1.782-5.428 3.519-7.508 8.604-10.281 29.403-11.343 41.403-7.211 14.73 5.086 8.99 25.396 9.99 37.406 10.18-.648 21.17.882 31.23-.045 13-1.197 25.45-8.012 38.32-8.183 15.08-.199 42.22-.667 56.19.27 9.41.63 19.9 7.067 29.41 9.074 19.91 4.223 59.23 4.799 79.73 2.872 11.83-1.107 21.08-7.076 32.22-8.111 17.28-1.612 32.51 3.925 48.41 4.222 10.49.198 26.82-5.447 35.33 2.935 2.69 2.638 2.61 7.733 5.13 11.001 19.21 24.92 63.81 32.968 93.3 37.776 19.55 3.186 51.11 8.75 70 8.75 9.86 0 12.64-8.768 19.2-13.072 14.24-9.354 39.95-3.592 57.12-5.383 13.73-1.432 26.13-8.256 39.46-10.948 20.63-4.159 41.67-2.754 62.62-2.926v6.05c-15.68.27-33.77-.342-49.2 2.224-18.78 3.133-34.35 12.334-54.67 13.882-11.46.873-27.47-1.908-37.85.45-8.57 1.945-11.78 17.015-32.92 19.518-29.37 3.475-115.42-10.011-143.91-20.985-18.18-7.004-46.11-20.688-49.58-41.422-19.21 2.296-39.57-6.797-58.39-6.049-9.88.387-16.62 5.167-26.17 6.139-22.08 2.26-64.21 1.153-86.12-2.547-10.71-1.81-18.92-6.806-27.65-8.634-6.53-1.368-54.63 2.098-63.47 3.313-7.28 1.008-13.69 5.825-20.81 7.418-12.06 2.701-61.49 4.997-68-5.653-3.61-5.897-2.6-30.222-4.13-30.195-5.205.099-5.745 7.85-9.147 11.019-7.974 7.427-28.584 9.354-39.303 13.126-14.598 5.131-22.932 12.811-40.176 14.269-12.411 1.044-28.431-3.304-38.205-2.017-6.867.91-16.785 7.284-25.254 9.129-21.447 4.655-61.155 3.259-81.243-5.698-5.229-2.332-11.169-9.129-16.578-9.318-6.399-.216-23.913 6.32-32.58 7.598-35.892 5.294-68.715-.63-100.368 2.467-13.869 1.359-28.161 10.533-40.536 11.892-18.945 2.071-62.082 1.711-79.029-5.671-9.315-4.061-25.398-18.816-33.804-19.599-10.584-.991-32.436 4.303-44.667 4.897-5.805.279-12.231-2.53-19.962-1.827-18.666 1.701-28.566 10.407-52.497 8.165-13.041-1.224-33.426-12.118-44.307-11.992-4.239.046-34.821 12.946-45.315 14.954-52.272 10.02-76.023-15.197-123.984-27.332-17.514 2.187-26.838 17.096-42.669 23.992-13.374 5.825-30.807 8.805-45.216 5.474-7.218-1.666-14.364-10.182-17.244-10.741-6.678-1.278-24.498 7.455-33.066 5.546v-6.05ZM0 157.322c11.835-5.275 23.931.18 35.289.189 20.727.009 47.637-3.268 68.427-.063 4.95.765 8.829 4.466 14.166 4.916 19.755 1.656 47.457-5.312 70.623-2.998 13.473 1.341 29.142 10.641 42.309 10.164 9.297-.342 24.435-7.814 34.848-9.66 16.722-2.971 34.857-4.6 50.895 1.476-2.673-2.79-.171-9.065-.927-10.191-2.826-4.213-14.148-.522-11.178-9.948 27.99 4.025 47.925-11.307 74.592-17.177 24.489-5.383 32.157-3.106 55.467-2.836 6.903.081 23.562-5.374 29.367-1.26 1.935 1.368 1.134 5.897 3.15 7.337 4.365 3.097 22.383 2.809 29.034 4.79 6.12 1.818 9.693 7.058 14.67 9.524 4.977 2.467 31.635 12.145 31.599 14.738-8.181 7.769-22.293 5.546-32.67 7.616-8.901 1.774-19.278 3.673-27.792 6.482-9.621 3.169-19.962 11.01-29.205 11.29-9.243.279-21.456-6.32-32.292-6.401-29.079-.225-25.965 1.494-54.621-5.69-15.408-3.862-31.563-3.916-47.187-6.221l19.548 13.702c36.504 20.283 94.581 19.581 136.368 17.78 27.207-1.17 45.63-20.994 74.943-21.588 4.806-.099 9.342 2.485 14.121 2.359 23.382-.639 32.058-11.947 50.616-14.081 16.317-1.872 26.199 3.764 40.086 3.962 33.723.495 104.67-9.615 138.591-16.844 18.117-3.863 27.288-12.703 48.465-9.048 8.433 1.458 15.894 8.201 24.858 9.426 14.868 2.043 32.841-1.063 48.186.207 10.071.837 20.763 5.131 30.294 5.996 26.082 2.376 44.469-9.975 71.55 1.044 6.2 2.521 15.6 10.749 21.15 10.857 5.95.117 21.08-8.958 29.21-10.938 12.5-3.043 34.36-2.53 47.27-.756 16.78 2.304 14.12 15.556 20.73 17.591 22.45.099 47.74 5.185 70.02 2.224 9.75-1.297 19.35-7.662 30.4-8.031 11.05-.369 25.49 4.015 36.3 3.745 14.58-.351 37.41-2.295 52.4-3.646 19.86-1.8 35.26-11.613 55.6-1.098 8.22 4.249 11.11 11.118 21.5 14.791 14.16 5.006 58.11 7.148 74.04 6.581 10.37-.369 18.13-6.905 27.22-9.263 40.65-10.57 74.55 18.977 114.39 20.526 31.34 1.215 52.21-14 80.51-17.168 10.61-1.189 20.66.387 31.04 1.8v4.033c-20.84-4.582-36.46-1.116-54.91 8.598-6.87 3.61-12.92 10.569-20.61 13.666-32.49 13.081-77.87-8.805-108.89-18.312-30.52-9.362-29.99 3.62-54.55 6.104-25.39 2.575-93.32.991-113.76-13.216-5.59-3.88-9.78-12.432-17.37-12.91-6.16-.387-17.22 3.611-24.12 3.935-25.94 1.233-54.77 2.322-80.72 2.124-23.39-.18-23.47 3.295-42.43 5.798-16.68 2.197-69.16.882-85.15-3.223-13.68-3.511-10.57-11.127-14.4-13.891-1.19-.855-23.2 1.026-26.79 1.665-23.75 4.205-37.1 17.61-63.4 7.932-7.62-2.809-13.79-9.309-20.3-11.938-13.999-5.645-38.083 3.187-53.842 3.583-26.478.666-66.6-1.845-91.872-9.11-8.685-2.494-16.56-9.327-25.164-9.318-7.11 0-18.387 5.96-26.811 7.67-59.022 11.974-132.786 17.555-193.221 22.534-21.195 1.746-48.591-.342-68.13 2.44-15.408 2.196-34.911 19.355-56.844 21.795-37.062 4.123-130.779 3.106-164.079-10.92-9.306-3.925-30.339-22.201-33.534-22.579-10.008-1.188-29.052 8.03-40.32 9.3-31.617 3.556-54.999-12.946-80.28-9.705-21.465 2.755-37.719 12.766-61.704 4.915-17.928-5.869-29.853-8.606-49.284-10.182-15.525-1.26-37.278 12.424-55.485 1.072v-8.067Zm348.831-6.023c3.438 7.122 12.762 5.402 19.26 7.932 5.607 2.187 9.531 6.887 16.137 8.057 23.823 4.213 78.309 4.069 99.81-6.824 10.998-5.573 16.029-18.149 2.457-22.867-17.865-1.899-40.608-1.062-57.906-4.6-6.912-1.414-12.42-7.13-19.89-7.256-9.369-.162-38.358 6.653-44.892 13.315-4.32 4.411-3.456 12.036-14.976 12.234v.009Z"/><path fill="#917147" d="M0 758.37c36.054 2.034 84.681-53.188 105.993-1.972 18.585-1.423 41.85-13.135 59.895-9.651 5.247 1.017 9.522 4.798 16.587 5.582 11.367 1.26 71.127 1.458 79.092-1.576 4.383-1.665 9.639-6.806 15.309-8.894 12.537-4.619 33.381-4.943 46.827-3.746 16.875 1.504 22.023 10.047 35.172 17.259 61.938 33.985 102.159-13.153 159.444 1.863 9.387 2.458 17.514 10.398 23.976 12.325 12.717 3.799 58.356.729 70.722-4.096 5.652-2.206 10.629-8.697 16.749-11.488 17.64-8.03 26.748-.657 43.038-.423 21.096.297 42.912-2.962 64.143-1.215 21.897 1.8 38.736 10.344 62.631 8.129 15.111-1.404 19.287-16.178 38.205-18.248 23.094-2.539 36.657 9.957 52.398 10.101 12.807.117 23.103-10.047 40.185-7.905 10.377 1.297 20.385 11.533 24.417 11.965 4.869.513 33.84-9.993 42.885-11.542 52.622-9.002 51.152 12.64 92.052 25.73 37.25 11.92 70.07 3.628 104.94-10.2 49.4 4.294 106.67-2.782 155.02 2.278 28.63 2.998 45.46 18.203 69.06 29.754 8.75 4.285 24.85 6.428 31.08 13.288 2.55 2.8 2.82 7.778 5.43 9.164 6.14 3.259 35.77 8.706 44.14 9.813 44.49 5.861 106.16 8.211 149.07-5.698 20.15-6.527 14.36-11.335 23.69-21.688 9.63-10.677 42.31-8.471 55.85-8.669v4.033c-9.86-.126-40.28-1.045-44.91 8.525-2.13 4.412-.55 8.292-4.36 13.801-8.44 12.244-56.17 17.664-72.13 20.626-40.22 7.445-84.06 4.393-125.37-.829-11.61-1.467-47.77-7.463-53.88-16.826-2.82-4.321.02-7.247-.85-9.281-1.72-3.98-15.84-7.077-20.46-9.606-12.41-6.797-23.05-16.385-36.97-21.508-35.8-13.171-113.29-7.157-154.3-6.986-24.13.099-22.5 4.087-43.21 9.048-27.81 6.662-72.26 4.645-98.83-6.149-11.95-4.852-35.13-21.904-45.3-23.245-23.56-3.106-64.835 18.005-82.322 9.714-6.507-3.088-6.408-8.472-16.533-9.669-18.846-2.233-26.136 10.398-42.381 12.136-13.257 1.422-30.411-6.104-36.378-5.285-1.332.18-13.437 12.613-20.052 15.422-15.075 6.401-56.142 6.626-71.226.567-7.236-2.908-8.748-7.715-13.95-10.254-19.548-9.516-45.585-.657-66.006-.369-10.953.153-22.599-3.259-32.4-2.134-9.981 1.152-13.464 9.282-23.184 13.108-22.041 8.67-68.373 15.377-90.675 8.093-11.655-3.799-15.993-13.044-22.293-16.024-27.027-12.802-52.731 4.627-79.587 6.932-22.923 1.962-77.814-.964-98.226-10.596-6.228-2.935-10.107-9.021-16.614-9.705-18.414-1.936-30.195 13.855-50.409 14.395-11.025.297-20.223-3.484-30.339-4.114-18.927-1.189-39.375.108-58.419-2.071-6.642-.756-15.66-5.474-19.791-5.465-18.234.054-39.996 21.22-64.44 17.097-19.935-3.367-19.98-23.353-22.626-23.578-22.59 10.992-44.064 16.465-69.579 13.99v-4.033ZM0 1067.68c9.54-2.11 19.35-5.39 29.169-6.12 15.849-1.19 37.089 4.7 50.499 2.12 1.521-.3 18.612-14.12 25.704-16.64 30.87-10.97 34.641 10.39 55.989 17.57 56.385 18.94 139.833-14.53 200.547-9.01 17.154 1.56 29.043 6.44 48.51 6.13 56.277-.89 112.779-9.01 169.362-6.23 43.155 2.13 68.211 19.79 110.898 18.32 34.047-1.17 44.991-4.13 74.097-18.65 25.047-12.5 61.902-2.81 89.055-1.51 18.693.89 40.167-2.03 58.329.14 14.283 1.7 32.715 13.23 49.554 16.99 11.79 2.64 36.072 7.2 47.447 7.16 7.57-.03 47.42-7.79 53.96-10.74 8.65-3.92 8.43-17.91 25.26-23.14 23.95-7.44 50.49-.08 30.67 27.64 35.44-.77 70.61-19.29 105.93-16.19 11.09.97 17.62 5.97 26.61 7.67 20.21 3.81 85.48 17.22 100.84 11.05 4.58-1.84 10.39-8.82 16.65-11.59 21.89-9.66 52.47-4.35 75.61-5.07 28.68-.89 49.24-10.09 80.12-5.47 16.23 2.43 32.95 10.27 48.97 11.51 27.7 2.16 60.44-6.27 88.78-4.09l65.44 4.13v8.07l-55.37-4.12c-37.8-3.54-77.55 7.83-114.51 1.6-18.65-3.15-37.23-12.36-57.01-11.7-11.91.41-26.06 5.25-38.29 6.13-23.97 1.72-48.42-1.36-72.39 2.22-15.36 2.28-23.67 16.23-42.53 17.95-38.79 3.53-86.24-17.02-124.97-16.27-18.58.36-56.55 15.02-78.89 18.09-15.58 2.13-29.83 2.27-45.27-.65-4.4-.84-8.69-4.74-12.88-4.89-11.01-.4-35.28 8.08-48.75 9.56-34.33 3.77-81.385-2.02-113.632-14.92-6.786-2.71-15.408-9.99-21.312-10.94-12.744-2.06-30.528.71-44.235-.13-17.514-1.06-60.138-8.98-74.079-3.47-4.239 1.68-8.082 6.59-13.23 8.96-28.611 13.16-99.792 20.02-129.42 11.62-21.573-6.11-29.421-13.59-55.422-15.16-61.101-3.68-122.688 6.76-183.645 6.26-20.835-.17-41.913-8.78-62.514-8.27-60.606 1.47-117.18 24.21-180.828 9.6-8.352-1.91-23.877-9.84-30.87-9.65-6.534.18-29.124 9.19-40.275 10.19-28.584 2.54-58.473-9.24-87.678 2.02v-8.08Z"/><path fill="#917147" d="M1728 758.37v12.099c-18.59 1.693-31.8-11.415-46.39-17.141-10.7-4.195-24.77-5.068-35.84-8.516-24.51-7.635-43.06-25.514-70.04-26.757l-128-6.067c11.54 37.487-46.53 27.224-69.54 28.25-8.78.396-19.3 4.285-28.24 4.177-18.66-.225-43.45-9.56-62.76-12.036-34.78-4.457-72.47-.837-106.38-4.52-15.58-1.692-31.67-15.367-38.67-15.844-8.77-.604-32.83 11.937-44.77 13.558-13.66 1.854-39.52 1.152-51.61-5.834-10.49-6.059-14.45-23.713-26.41-23.992-20.116-.468-49.717 12.153-70.93 13.954-15.003 1.269-27.9-2.548-42.057-1.72-21.87 1.279-45.351 10.696-68.499 12.145-29.295 1.828-81.279 5.366-108.765 1.729-27.162-3.592-43.146-11.245-72.765-7.842-39.717 4.565-59.49 31.78-104.328 15.557-8.901-3.223-18.504-12.532-26.667-13.657-10.8-1.495-48.258.99-60.372 2.323-13.698 1.512-30.24 9.812-44.352 9.65-16.992-.198-38.088-11.829-55.26-15.313-13.617-2.764-28.827-1.657-41.22-5.159-6.48-1.827-11.619-7.337-18.693-7.661-23.166-1.071-32.49 22.147-52.398 24.334-33.633 3.691-63.693-16.331-96.192-9.489-22.482 4.736-36.189 12.973-60.678 3.025-6.102-2.484-8.415-7.211-11.547-8.669-6.642-3.097-36.549 7.796-47.601 8.822-12.195 1.126-24.786-.279-37.026.252v-8.066c28.161 6.194 59.868-12.901 85.716-12.244 14.562.369 11.961 5.753 20.664 9.687 14.454 6.536 42.831-7.634 60.21-9.3 12.843-1.233 28.062-1.521 39.834 4.034 5.22 2.466 8.424 6.734 13.338 8.84 9.72 4.178 29.97 7.995 39.393 3.079 17.937-9.354 20.925-18.896 46.341-18.374 12.492.261 17.379 6.68 26.307 8.093 11.412 1.81 25.389-.909 37.674.639 15.804 1.99 36.279 13.847 50.94 13.756 11.025-.063 25.389-8.156 36.441-10.082 24.192-4.214 76.221-9.453 98.181-1.729 8.964 3.151 18.486 10.857 27.558 12.766 20.286 4.285 56.439-12.028 81.693-13.306 28.458-1.441 46.917 6.122 72.603 8.219 53.55 4.394 102.357-6.923 153.522-13.981 16.101-2.224 31.32.405 46.08-.18 28.233-1.116 79.815-26.801 106.685-11.857 8.99 4.997 16.36 22.219 24.53 23.867 4.37.882 17.56 2.277 22 2.142 22.2-.648 44.11-18.932 67.01-8.48 14.13 6.455 14.86 12.342 34.19 14.215 27.65 2.674 56.5-.36 84.4 2.305 19.48 1.854 52.56 12.261 68.65 11.73 6.23-.207 19.85-6.077 28.43-7.445 7.53-1.206 40.39-1.909 42.12-4.258 1.91-2.593.88-8.49 4.92-13.225 12.94-15.125 34.58-2.467 49.49-.964 43.3 4.376 102.65-4.69 142.58 8.634 12.78 4.267 25.16 13.234 38.79 17.672 12.68 4.124 26.33 5.168 38.95 9.453 13.16 4.465 24.44 14.585 38.74 14.693l.02.009ZM1728 326.744v8.066c-25.29 4.619-55.96-7.103-79.7-4.078-10.44 1.333-18.68 8.337-32.22 8.301-40.17-.117-78.04-6.86-115.9-17.366-37.85-10.507-68.56-2.917-103.85-5.033-30.94-1.855-56.12-16.133-88.72-14.071-53.56 3.394-88.59 19.824-146.69 7.517-10.15-2.152-17.19-8.138-26.97-9.327-21.21-2.574-55.98.883-74.06-8.624-5.22-2.746-10.6-9.57-16.05-12.172-19.31-9.219-44.183 3.034-64.847 4.51-20.664 1.477-45.999-5.617-62.397-4.096-7.677.711-24.876 13.189-34.362 16.223-24.75 7.922-83.493-1.377-107.964-11.217-7.695-3.097-15.102-10.885-23.238-11.209-8.559-.342-20.736 4.268-30.177 4.331-18.684.117-42.111-5.816-60.516-4.169-29.286 2.62-50.364 17.087-84.672 14.072-38.745-3.403-83.538-2.62-123.102-.063-39.564 2.556-81.711 24.919-122.688 5.914-13.122-6.086-9.27-16.493-22.365-17.933-29.664-3.25-74.214 1.422-104.859 4.06-21.006 1.81-38.223 8.184-60.597 6.113-14.328-1.323-26.919-11.731-38.304-12.289-8.847-.432-21.078 3.583-30.186 4.115-25.353 1.476-48.618-4.016-73.566-6.032v-8.067c20.466-2.908 41.706 6.131 61.506 6.23 20.709.099 41.238-6.509 64.494-4.195 12.483 1.242 27.063 9.948 38.331 10.065 43.488.432 93.753-13.225 139.203-10.164 25.218 1.701 44.244 16.466 70.407 18.32 24.516 1.747 40.356-4.6 62.523-6.22 22.167-1.621 44.847 1.287 66.6.054 15.291-.865 31.284-5.195 46.314-6.113 21.357-1.297 44.829 3.925 64.584 2.079 15.21-1.422 32.652-10.083 48.42-10.236 18.396-.18 39.51 5.42 58.428 4.169 7.101-.469 15.111-3.44 22.239-3.971 39.105-2.872 78.93 22.714 118.935 21.742 14.238-.342 31.617-10.155 46.395-11.668 20.664-2.106 42.732 4.34 62.478 4.007 27-.451 50.563-15.395 78.993-4.376 17.79 6.896 18.56 14.612 42.02 16.457 52.85 4.15 106.65 6.419 159.18 5.996 26-.216 59.73-2.359 84.76.099 19.06 1.873 40.12 10.704 60.53 12.064 15.99 1.062 30.67-2.233 46.46-2.08 66.79.639 119.2 22.876 189.93 14.701 31.43-3.628 53.57 2.62 84.28 3.448 3.83.099 7.63-.18 10.99 2.098v.018ZM1728 78.657V88.74c-20.53.369-40.91 1.566-61.48 2.034-4.45.1-8.85 2.197-14.13 2.17-20.95-.1-37.14-11.272-58.57-10.326-20.35.891-38.93 12.28-58.4 14.17-34.09 3.313-114.28 2.782-142.08-17.186-3.01-2.17-3.83-6.32-6.22-7.895-11.56-7.644-56.48-2.764-71.15-3.277-18.03-.63-42.29-10.534-62.84-11.947-34.4-2.368-60.41 3.403-92.76 5.996-27.14 2.178-52.23-6.824-78.62-8.004-44.79-1.998-81.37 21.598-129.631 8.643-5.517-1.486-10.314-5.69-15.642-6.536-18.387-2.917-43.065 1.755-62.37-.135-11.547-1.134-29.565-9.93-38.25-10.128-19.449-.441-51.696 12.685-74.592 14.27-10.467.72-27.945.881-38.187-.307-10.242-1.188-22.959-9.66-30.483-9.993-14.751-.666-35.46 8.895-54.396 8.166-21.843-.838-41.085-13.468-60.426-14.18-14.301-.522-30.222 3.628-44.361 4.205-24.039.98-41.04.207-65.142 3.412-31.959 4.258-41.715-2.512-70.02-5.537-24.93-2.665-57.555 3.817-84.771 2.107-8.415-.532-15.525-4.25-24.138-4.286-11.088-.045-22.284 4.484-34.335 4.33-18.225-.224-30.051-6.68-49.788-1.593-29.646 7.634-35.091 19.4-73.107 15.566-16.002-1.612-28.962-15.791-32.157-15.971-5.013-.288-20.763 5.248-28.386 5.879C48.537 54.33 23.256 51.054 0 52.44v-8.067c23.409-6.185 47.997-1.674 71.559-4.05 19.962-2.017 34.632-12.515 56.826-2.35 3.789 1.737 7.812 6.292 10.827 7.328 25.101 8.588 57.411-10.687 83.664-11.047 42.957-.594 83.835.414 126.855 2.152 23.778.954 45.081-4.06 66.537-4.204 23.58-.162 51.705 5.923 76.635 6.211 29.907.343 62.991-5.878 90.9-4.195 16.245.981 32.454 10.29 46.296 10.335 25.263.081 51.795-17.285 81.648-5.203 6.255 2.53 10.98 8.58 18.018 10.218 32.967 7.67 71.478-6.293 103.878-7.292 16.425-.505 29.043 5.437 44.379 6.212 23.202 1.17 52.362-6.636 74.691-4.106 7.416.837 12.231 4.934 18.261 5.942 39.976 6.653 76.956-6.347 116.816-3.898 23.51 1.44 46.78 9.408 70.56 8.021 36.16-2.106 65.22-6.356 102.6-1.737 30.74 3.799 39.97 9.786 72.77 7.742 14.83-.918 64.4 1.188 75.79 7.022 30.91 15.827 42.68 21.3 79.45 23.39 35.52 2.016 42.79-1.72 74.08-10.777 29.95-8.67 56.54-.486 85.21.684 26.43 1.08 53.52.252 79.72-2.097l.03-.018ZM0 916.268c16.182-4.141 32.31 1.044 49.482.081 9.36-.522 24.309-2.809 33.651-4.663 18.459-3.674 64.125-22.453 78.75-19.185 14.949 3.34 5.004 17.87 14.535 19.725 31.788 6.185 62.937-26.315 85.806-19.248 7.281 2.251 9.99 7.013 21.636 8.598 56.277 7.643 94.617-1.9 148.662-3.44 12.132-.342 38.403-1.575 47.952 5.924 7.398 5.816 1.17 16.07 20.583 18.258 34.956 3.952 85.086-5.735 120.996-8.049 30.528-1.971 89.613-3.808 118.773.153 9.432 1.279 14.886 7.419 22.455 9.804 37.098 11.704 75.429-20.49 110.277-15.502 9.072 1.296 18.108 6.635 27.639 8.642 33.183 7.013 109.683 5.753 143.713.351 10.22-1.62 21.42-6.509 30.79-7.526 18.11-1.971 39.84 1.017 58.57.099 31.07-1.521 85.75-16.817 112.25-9.579 8.64 2.359 17.84 9.705 25.25 11.047 24.42 4.402 76.35.009 96.04 14.863 3.1 2.341 3.95 5.87 6.27 7.85 8.23 7.023 59.01 14.153 70.2 11.623 6.02-1.359 8.92-7.373 14.13-10.065 15.6-8.067 39.39 1.269 56.88 2.404 15.15.981 31.26-1.072 46.34.045 20.89 1.548 45.36 12.063 64.56 12.243 17.21.162 40.5-4.771 58.47-6.203 14.31-1.134 28.98-1.62 43.34-2.034v12.099c-15.7.424-31.7.883-47.37 2.035-21.35 1.575-43.09 5.744-64.61 4.087-15.74-1.215-31.41-7.715-46.51-9.948-23.09-3.403-45.42-1.044-68.31-2.259-10.27-.55-21.08-6.248-31.39-3.088-3.29 1.008-6.22 4.726-10 6.121-19.99 7.383-73.58.973-94.3-6.481-10.96-3.944-14.03-11.002-26.21-14.126-23.6-6.04-52.89-3.142-77.18-7.517-13.33-2.404-14.73-7.454-24.3-11.992-13.98-6.635-60.66 5.177-79.46 6.825-23.71 2.079-47.12-.514-70.36.189-7.64.234-20.38 5.869-29.01 7.301-43.02 7.13-136.391 12.171-177.917 3.691-7.713-1.576-18.36-7.04-25.092-7.148-33.948-.54-62.136 22.533-103.824 9.038-60.606-19.625-129.6-3.502-192.528-.873-19.215.801-50.265 1.99-68.643-.081-8.523-.954-16.101-4.123-20.88-11.379-1.899-2.881-1.764-7.229-4.338-9.777-8.469-8.4-48.51 1.971-61.461-1.008-41.472 6.193-93.789 8.795-134.559-2.593-6.921-1.927-11.511-7.4-16.659-7.725-8.388-.531-30.708 13.775-41.796 16.907-12.933 3.656-47.889 9.03-58.671 1.594-3.735-2.575-2.385-10.299-4.473-10.281-2.394.018-19.368 4.051-23.184 5.023-10.692 2.719-20.988 7.806-32.121 10.227-30.933 6.77-61.74 5.681-92.844.973v-6.05ZM1728 570.798v8.067c-15.53-.675-38.05.468-52.41-5.06-4.55-1.755-8.09-6.635-13.04-6.806-4.53-.153-26.27 6.32-31.86 8.319-14.88 5.32-25.36 16.07-40.83 17.645-17.78 1.801-47.4-1.08-64.8-5.726-8.45-2.25-19.01-9.128-26.02-10.254-13.15-2.115-38.14 2.836-54.41 1.972-14.91-.792-34.95-3.817-49.73-6.734-30.28-5.96-65.25-24.893-93.36-27.62-14.9-1.45-43.4-.091-58.44 2.016-19.55 2.737-30.44 10.992-52.54 10.146-52.38-2.007-100.89-13.108-151.67-21.714-42.482-7.203-85.772-.072-128.405-.45-56.007-.496-104.949-6.41-158.805-20.842-5.499-1.476-21.717-7.382-25.695-10.596-3.996-3.232-5.904-10.722-7.479-11.1-5.868-1.405-20.556.324-27.981.171-31.257-.639-77.823 5.96-110.565 10.254-28.647 3.754-42.444 19.473-72.882 19.914-18.972.27-48.573.999-66.42.036-10.314-.558-20.295-8.193-28.26-8.319-9.081-.144-28.863 6.905-40.392 8.256-18.972 2.223-34.803-.765-52.389.054-24.939 1.161-45.09 8.669-72.702 8.129-20.835-.405-62.352 1-80.073-2.592-12.96-2.629-17.487-3.935-30.717-5.582-38.898-4.862-50.022-25.964-83.583-33.364-17.172-3.79-35.253-3.889-52.542-.918V476c15.264-1.396 31.104-3.907 46.467-1.107 20.547 3.745 45.225 20.598 63.009 29.754 17.037 8.768 24.498 1.44 40.419 1.746 30.897.594 71.208 15.863 107.199 16.169 18.612.162 42.192-9.903 60.597-10.326 6.786-.153 12.861 2.286 20.079 2.232 29.97-.198 67.932-18.428 94.608-14.152 5.328.855 9.036 4.961 14.355 5.807 17.478 2.782 63.576 5.564 80.064 1.665 6.282-1.485 13.491-6.463 20.025-8.201 30.69-8.183 64.584-4.988 94.815-12.055 10.116-2.367 15.606-7.697 23.751-10.515 10.782-3.727 53.118.315 64.548 3.988 13.995 4.502 8.865 9.489 12.438 17.808 3.078 7.166 53.451 14.296 64.206 16.448 83.142 16.673 157.986-1.171 236.28 11.739 46.99 7.752 93.46 18.375 141.64 19.653 21.08.558 32.16-8.075 50.52-10.137 79.04-8.904 111.13 16.16 182.03 27.629 29.95 4.844 54.53-.027 81.84 2.854 23.67 2.494 40.96 18.285 68.72 20.004 27.13 1.675 25.91-5.347 46.94-13.711 13.71-5.456 43.62-13.414 57.58-10.164 3.62.846 5.91 4.294 9.02 5.096 15.21 3.916 31.3 2.196 46.83 2.565l.02.009ZM1728 149.256v12.099c-26.59 2.602-53.01 2.818-79.62 4.052-8.27.387-20.49 4.069-28.34 4.096-23.64.063-43.75-12.109-64.45-14.179-45.47-4.538-81.4 14.332-132.03.963-13.3-3.511-26.56-12.721-39.83-14.62-15.27-2.197-32.79 1.395-47.73-.658-17.88-2.457-21.23-12.45-46.34-9.696-17.28 1.9-37.2 9.3-51.77 16.79-16.99 8.733-73.06 2.791-92.25-2.241-20.83-5.465-1.9-20.148-33.63-18.771-24.24 1.053-37.3 9.66-63.12 2.602-4.61-1.26-10.42-6.284-13.13-6.23-7.77.126-25.16 12.064-36.895 13.468-39.834 4.772-111.726-2.458-152.766-8.093-38.196-5.24-59.13-16.889-99.351-6.104-15.201 4.078-28.143 13.081-44.316 14.152-33.372 2.215-62.712-1.098-98.379 4.465-18.693 2.917-43.434 16.277-62.406 1.585-5.202-4.033-4.644-11.019-9.873-14.494-8.523-5.663-27.738-7.914-38.331-11.911-14.598-5.51-31.212-18.996-46.827-19.293-7.56-.144-18.207 3.349-26.127 3.7-32.823 1.441-43.002-9.138-75.033 9.66-10.242 6.014-19.098 15.485-30.159 20.256-18.999 8.193-67.239 8.4-88.443 6.284-12.447-1.242-24.471-8.435-36.531-9.849-31.653-3.7-59.067 7.157-88.578 7.887-9.783.243-18.009-4.007-26.136-4.043-10.188-.045-25.227 5.339-36.315 5.996-16.596.981-24.57-1.737-39.294-8.048v-10.083c12.186-4.898 25.767 6.689 33.516 7.481 10.152 1.044 26.676-3.88 38.124-3.565 9.972.279 17.919 4.429 28.197 4.294 27.801-.378 54.018-12.478 84.735-10.308 15.345 1.08 33.624 9.984 46.287 10.155 6.768.09 17.037-3.682 24.228-4.006 14.4-.639 29.124 1.323 43.425-.927 22.932-3.61 55.323-26.468 75.681-29.16 11.853-1.567 25.209 2.548 38.232 1.909 15.651-.775 29.556-5.753 46.368-4.196 15.669 1.45 28.098 11.29 42.219 16.259 15.363 5.411 38.358 8.346 51.327 17.231 3.6 2.467 7.317 8.571 10.251 9.921 6.858 3.16 21.042-2.205 29.223-2.971 23.229-2.169 47.34-5.122 70.569-6.058 12.159-.487 25.695 2.358 35.982 1.881 11.88-.549 32.598-12.568 47.268-15.422 44.478-8.642 84.591 5.726 128.457 9.471 30.483 2.602 60.354 1.018 90.81 1.945 9.585.297 23.049 3.916 32.418 3.934 11.173.027 27.043-12.127 40.093-12.1 10.94.018 14.06 8.985 26.2 10.246 21.1 2.196 60.99-11.11 79.52-.856 4.89 2.71 6.04 8.895 9.07 11.101 7.68 5.608 36.01-.09 46.41-.234 11.93-.163 23.13 2.763 34.35 2.07 35.04-2.161 50.47-21.444 90.85-10.128 27.96 7.832 37.93 3.403 64.23 6.347 32.21 3.61 66.82 21.534 100.82 17.726 23.91-2.682 40.12-8.183 66.72-5.806 19.04 1.701 36.18 12.909 56.41 14.152 12.81.783 37.1-.972 50.46-2.107 21.79-1.845 43.51-7.976 65.56-8.039l-.01.018ZM0 1002.06c11.79-1.04 20.772-5.407 33.111-3.858 16.353 2.048 26.874 3.808 44.451-.235 5.706-1.314 14.598-10.479 23.616-12.675 26.388-6.437 32.76 2.953 37.098 26.988 33.543-4.03 67.752-13.457 100.899-18.031 11.043-1.521 27.198-3.565 38.088-4.258 28.377-1.818 48.906 10.129 76.662 8.111 22.716-1.638 44.244-15.538 66.87-6.526 7.92 3.15 15.597 10.214 24.084 14.234 25.569 12.08 60.336 14.87 88.416 14.57 15.273-.16 26.235-9.11 39.735-12.87 14.355-4.01 84.978-10.839 98.892-8.948 19.836 2.688 33.516 13.178 56.862 9.448 7.164-1.15 24.66-16.326 36.333-20.144 39.186-12.801 43.587 2.656 73.719 13.134 9.801 3.4 38.079 11.27 47.817 12.68 18.036 2.6 37.845-2.69 55.404 3.07 13.761 4.51 16.092 17.84 33.399 23.06 35.604 10.75 88.204-20.07 126.704-25.42 21.09-2.94 39.6 1.08 60.23-.26 33.62-2.19 74.09-16.433 106.63-13.83 29.81 2.38 67.43 13.78 99.31 17.64 60.25 7.26 112.23.63 169.2 4.2 38.34 2.4 77.08 15.36 116.95 10.25l73.51-6.13v6.05c-5.4 1.99-11.7 3.04-17.4 3.77-33.49 4.37-77 6.54-110.62 4.28-22.77-1.53-45.72-8.96-68.49-10.14-24.01-1.26-50.3 4.45-74.77 4.19-47.46-.5-105.4-9.11-152.56-16.81-14.08-2.29-31.25-9.45-44.96-9.49-26.1-.08-63.04 12.03-90.77 14.08-16.33 1.22-33.65-1.03-50.12.29-48.04 3.88-111.25 39.82-156.992 17.36-23.472-11.53-12.609-21.18-48.915-21.63-33.48-.4-68.742 2.95-101.862-7.06-4.977-1.51-16.821-8.33-19.134-8.34-5.076-.03-22.779 15.81-30.672 18.99-22.374 9.01-56.493 7.32-79.668 1.88-10.503-2.47-23.931-10.84-32.688-11.68-15.084-1.42-41.13-.22-56.07 2.67-13.518 2.62-25.785 11.89-36.99 13.42-30.213 4.13-81.702.55-110.241-10.39-10.872-4.17-35.577-21.317-42.849-21.839-11.88-.855-33.561 7.639-48.267 8.289-26.037 1.17-48.177-9.757-72.657-8.118-12.024.801-29.457 4.348-41.778 6.608-27.054 4.96-76.869 21.78-101.403 21.74-18.126-.03-32.472-8.34-29.259-28.393-6.903 2.674-14.031 8.493-21.276 9.963-7.02 1.43-31.194 4.13-37.971 3.96-8.946-.24-16.92-5.97-26.442-6.02-7.686-.03-15.669 2.77-23.166 4.22v-6.05Z"/><path fill="#917147" d="M1728 526.424v6.05c-8.55 1.296-16.51-2.773-24.99-1.909-9.54.982-21.13 8.031-30.99 9.453a2543.692 2543.692 0 0 0-52.41 8.084c-27.11 4.466-83.3.334-109.81-8.138-6.86-2.197-15.39-8.516-20.84-9.408-38.45-6.266-81.23-.144-119.87-15.232-5.48-2.143-11.07-8.598-17.25-8.985-10.92-.684-32.42 7.508-44.81 9.435-41.86 6.5-59.44.369-98.16-1.54-13.97-.693-26.49 3.061-40.17 1.846-26.6-2.368-46.19-19.077-69.79-24.974-38.37-9.578-69.24-.576-105.868-.819-18.225-.117-39.951-7.013-58.5-8.219-20.16-1.315-50.103.297-70.533 2.016-22.176 1.864-59.787 13.27-79.083 4.439-7.182-3.286-13.464-13.126-21.861-14.432-56.772-8.858-117.45 3.196-173.376-.027-18.189-1.044-36.153-7.472-54.252-8.237-20.007-.846-35.343 6.815-54.468 8.237-31.707 2.341-66.717-1.224-98.964-.162-47.16 1.558-83.115 8.265-131.13 2.269-19.242-2.404-53.325 14.305-68.184 5.663-4.068-2.368-5.076-7.518-7.272-8.859-4.608-2.818-45.81-.567-55.53-.927-28.08-1.054-56.529-4.97-84.519-6.221-11.727-.522-23.643.549-35.37.09v-6.05c8.253 1.729 17.982-1.711 25.281-1.701 1.854 0 3.357 1.701 3.951 1.701h129.042c5.166 0 26.334 4.528 31.32 6.995 4.383 2.161 6.435 7.13 7.308 7.265 9.045 1.396 35.109-9.786 53.91-7.985 52.02 4.978 89.964-.144 141.273-2.314 25.029-1.062 51.966 1.963 76.68.054 21.285-1.638 41.49-12.883 62.586-12.18 17.01.567 35.937 8.597 52.389 10.173 31.788 3.033 71.055-3.755 104.913-2.08 16.749.828 74.745 4.87 87.057 9.732 16.029 6.329 11.259 16.502 35.622 14.296 29.763-2.683 59.841-9.642 90.882-9.903 28.836-.243 58.5 7.887 84.87 8.22 44.196.567 80.916-10.443 126.816 4.078 15.38 4.861 34.15 17.438 50.64 18.104 9.09.369 19.13-4.15 28.03-4.177 23.72-.09 46.86 9.138 72.76 8.229 30.12-1.072 64.47-15.692 92.72-12.235 10.8 1.323 18.68 10.074 28.62 13.72 34.76 12.757 79.11 6.545 114.26 10.758 18.85 2.26 38 12.298 60.73 13.873 31.84 2.215 51.26-7.103 78.54-8.12 8.93-.333 16.26 2.296 24.17 2.188 21.22-.288 42.32-3.511 63.61-2.107l.02-.027ZM1728 254.137v12.1c-14.76 8.084-29.27 16.655-45.3 22.264-11.39 3.979-45.7 14.026-56.32 13.828-22.16-.405-53.08-15.638-78.95-15.998-11.35-.153-24.23 4.591-35.89 3.916-27.48-1.584-63.47-24.982-91.25-29.853-42.69-7.472-94.37 6.878-141.01 3.907-28.64-1.827-56-16.07-85.24-8.786-6.4 1.593-10.87 6.212-16.11 8.093-11.16 3.988-66.52.891-78.49-2.962-10.48-3.367-10.65-13.513-21.07-17.249-17.78-6.365-52.27-8.94-70.68-4.861-7.03 1.557-14.918 6.869-23.009 7.409-10.017.666-25.2-3.727-35.676-3.169-19.314 1.026-45.873 13.315-69.138 15.133-50.895 3.971-53.676-5.572-95.535-18.887-26.37-8.391-60.516.243-87.777-.937-32.76-1.431-59.643-6.743-93.303 3.313-12.303 3.674-14.454 10.435-23.148 15.17-37.17 20.238-119.502-1.089-163.701 1.638-39.573 2.44-77.085 3.44-117.063 3.917-14.688.18-29.556 5.887-44.703-1.504-5.472-2.674-8.262-8.777-12.843-11.361-5.355-3.016-66.636-8.967-77.373-9.336-30.015-1.026-56.574 8.255-86.877 6.23C52.2 244.45 25.929 234.772 0 235.979v-10.083c47.637.324 94.5 10.614 142.236 10.164 26.937-.252 99.729-5.924 120.636 8.246 2.709 1.837 3.582 5.681 5.319 6.779 4.374 2.764 35.199-2.799 43.254-3.088 32.571-1.161 64.431-2.403 96.768-4.051 46.449-2.368 118.449 17.114 158.787 3.529 8.298-2.791 17.811-10.299 27.684-12.64 31.014-7.373 62.964-4.573 93.915-2.907 37.953 2.034 91.836-14.171 125.973-.964 9.504 3.673 16.65 10.389 26.685 13.639 40.959 13.288 75.996-12.189 113.463-10.614 7.758.324 20.457 4.213 27.783 3.574 5.4-.468 12.834-5.833 19.067-7.175 40.62-8.732 89.71 13.63 130.58 19.716 9.08 1.35 28.91 6.05 36.42 5.753 4.49-.171 10.21-5.033 15.41-6.374 38.08-9.831 86.18 2.827 125.53 4.726 30.43 1.468 58.63-6.392 88.78-4.096 37.72 2.881 67.76 24.514 103.4 31.672 18.06 3.628 36.51-2.539 55.89-1.423 46.79 2.683 62.15 24.028 111.31.369 19.64-9.453 34.06-30.267 59.09-26.612l.02.018Z"/><path fill="#917147" d="M1728 229.929v8.066c-30.03-3.358-53.1 21.67-81.69 24.173-29.68 2.592-69.87-4.799-97.73-15.116-33.49-12.406-27.09-7.778-61.63-8.949-20.81-.702-49.86-7.085-70.36-12.315-10.2-2.602-19.12-9.156-30.4-9.966-14.1-1.018-27.63 6.968-42.34 8.03-31.35 2.26-62.13-2.566-92.65-6.086-38.49-4.438-84.66 1.27-124.9-4.15-8.28-1.116-14.7-7.319-22.36-7.994-11.12-.982-21.53 5.068-32.27 6.14-36.09 3.583-65.59-9.462-98.707-12.172-9.144-.747-19.071.873-28.278.054-11.232-1.008-20.583-6.086-32.301-6.131-14.238-.054-29.763 5.582-44.343 5.762-19.521.243-40.113-5.681-60.471-3.61-19.233 1.962-29.421 9.678-52.182 7.787-25.668-2.134-44.622-8.066-72.819-5.762-16.416 1.342-32.193 8.571-48.456 10.02-13.581 1.216-27.99-1.071-41.796.55-23.517 2.754-44.802 13.882-65.52 23.208-13.554 6.104-106.02 7.374-126.621 6.608-20.601-.765-40.32-10.551-60.444-12.144-28.431-2.251-50.148 3.061-79.128-5.564-47.214-14.044-79.569-23.461-130.509-18.644-20.889 1.971-41.589 10.074-62.64 4.114-5.229-1.486-12.141-7.121-16.272-7.571-7.686-.829-17.559 5.743-28.026 5.572-9.225-.144-14.796-3.511-23.157-6.176v-12.099c13.833-5.564 27.216 4.627 39.789 7.598 5.913 1.395 36.261 8.499 39.915 8.625 11.124.387 29.916-6.653 42.318-8.13 40.689-4.87 90.216.765 130.509 8.562 15.012 2.908 32.85 13.648 45.009 15.484 17.01 2.575 35.235-2.709 52.281-1.854 16.722.837 32.922 8.705 48.321 10.137 25.524 2.377 77.373 1.215 102.744-2.278 27.9-3.835 59.841-23.416 92.961-26.009 44.136-3.457 86.625-9.975 131.112-10.038 4.806 0 9.234-2.268 14.022-2.259 10.305.018 22.392 6.437 32.175 6.257 12.501-.226 30.411-6.194 44.424-6.257 19.017-.081 38.808 5.788 58.473 4.159 13.815-1.143 25.488-6.707 40.446-6.104 10.557.423 18.855 4.844 28.359 5.924 15.588 1.782 34.263.495 50.166 2.26 19.506 2.16 46.176 9.966 64.776 9.848 18.15-.117 31.94-10.74 53.22-2.835 5.92 2.196 11.77 9.434 17.54 10.695 45.89 10.02 90.39-.927 134.57-1.684 24-.414 52.09 6.185 76.73 6.131 9.05-.018 20.8-6.707 30.46-7.85 26.89-3.187 34.82 5.437 57.21 10.92 28.78 7.049 48.76 8.571 77.58 8.949 44.17.576 39.04 9.435 73.26 19.671 16.79 5.023 52.57 9.002 69.51 6.149 13.02-2.197 31.54-15.323 47.44-19.104 11.36-2.692 20.94-3.286 32.68-2.602ZM0 8.066c26.487 3.35 52.722 9.273 79.731 8.157 37.332-1.549 77.112-13.045 114.768-14.287 20.709-.685 22.617 3.385 39.276 7.265 40.302 9.39 94.959-9.597 138.33-7.265 40.05 2.151 80.649 6.31 120.816 8.237 18.261.873 38.673-1.791 56.52-.063 18.054 1.747 34.308 11.407 54.351 12.172 24.66.945 48.087-8.697 72.612-10.254 25.56-1.62 51.606 2.142 76.707 2.097 13.347-.018 30.834-4.267 44.379-4.177 42.624.28 87.174 12.964 131.13 10.326 29.349-1.764 59.148-13.054 88.7-10.272 9.71.91 18.26 5.384 28.08 6.212 52.74 4.456 115.08 2.017 169.42 3.98 26.65.962 65.18-3.575 88.61.098 9.36 1.467 18.24 10.281 30.6 11.758 30.38 3.628 77.27-3.277 104.99 5.905 16 5.303 24.8 16.35 43.96 16.646 31.76.486 30.22-20.57 50.03-30.807 14.25-7.355 54.66-9.642 70.5-7.175 22.03 3.43 44.13 30.168 67.52 20.184 7.08-3.025 6.53-9.93 9.09-12.082 6.42-5.41 38.16-1.125 47.88-2.53v8.067c-5.81 1.495-33.97-4.492-36.31-2.034-1.03 1.098 2.9 9.236-4.08 15.07-15.72 13.126-49.14 9.966-67.03 2.647-8.55-3.502-20.66-13.513-29.15-15.25-8.2-1.684-40.66 3.06-48.34 7.22-15.44 8.354-12.78 21.822-39.94 24.586-37.5 3.826-39.91-6.302-68.83-17.835-33.07-13.188-81.64 4.988-120.57-6.454-8.36-2.458-12.95-7.49-22.21-8.085-11.94-.756-26.08 3.754-38.3 4.258-45.58 1.864-90.04-4.402-135.29-6.22-24.7-1-42.65 3.042-69.49-2.926-11.49-2.557-23.38-10.624-33.17-11.236-24.849-1.566-58.437 12.424-84.681 14.324-47.223 3.412-95.301-7.995-143.325-6.212-13.095.486-29.142 3.853-42.174 4.204-26.928.72-53.82-3.934-80.82-2.179-14.364.928-29.691 5.6-44.181 6.23-30.24 1.323-51.561-9.948-78.768-12.163-49.662-4.05-105.462-.126-155.295-3.997-11.133-.864-23.751-6.14-34.227-6.284-26.181-.36-57.708 7.212-84.582 8.319-26.433 1.09-49.599-5.249-74.664-4.096-53.127 2.44-105.093 19.482-159.291 14.08C21.753 25.055 11.646 18.5 0 18.149V8.066ZM1728 395.318v10.083c-24.76 9.209-46.88 14.287-73.67 12.171-26.78-2.115-55.24-19.139-80.89-20.103-8.39-.315-14.44 4.736-22.04 5.735-17.64 2.323-32.01-5.077-48.46-7.643-22.39-3.493-49.98-7.743-72.37-8.283-21.16-.513-35.41 7.653-55.88 5.465-10.88-1.161-22.13-6.437-32.84-7.49-54.76-5.375-111.04 7.067-167.31 3.997-48.76-2.656-85.54-18.852-130.48-30.843-35.93-9.588-77.091-.919-111.552 10.65-7.524 2.53-14.931 8.354-22.617 9.651-20.367 3.43-83.736-6.824-105.048-12.964-8.37-2.413-20.979-10.362-27.702-10.623-9.288-.37-24.228 3.682-34.047 3.979-42.183 1.296-67.626 1.926-107.478-9.642-58.041-16.844-113.985 11.208-168.822 5.501-7.893-.82-14.094-4.97-20.304-5.897-20.592-3.061-90.036 19.437-119.106 21.795-16.713 1.36-36.018-1.71-51.993.432-36.81 4.934-67.419 24.875-105.102 24.11-29.628-.594-75.006-8.769-102.213-20.797-7.767-3.43-20.133-13.675-27.216-15.133-12.06-2.485-28.251.864-40.86-.45v-12.1c7.992-.936 15.048-2.296 23.283-2.115 12.249.261 39.609 1.926 48.348 10.128 4.491 4.222 4.824 10.299 11.16 15.052 20.349 15.26 92.637 26.387 115.866 17.312 33.255-12.991 41.598-33.049 82.62-33.931 37.557-.81 69.264 4.222 108.72-2.584 23.409-4.042 35.271-13.225 62.505-9.75 9.702 1.234 16.785 6.419 28.413 6.014 14.508-.504 26.676-10.317 40.536-12 23.85-2.908 65.673-.171 90.477 1.827 11.565.927 24.84 5.762 36.27 6.122 12.609.396 24.687-3.25 38.331-2.089 13.644 1.162 26.874 7.284 40.275 8.103 18.189 1.116 39.339-6.032 56.376-3.916 10.557 1.314 19.593 8.525 28.953 11.352 14.274 4.321 81.477 16.304 93.735 14.206 7.443-1.278 16.848-6.905 25.245-9.029 62.928-15.926 110.977-11.452 173.877.387 43.06 8.102 88.28 26.9 134.1 21.273 6.7-.819 11.67-5.014 18.27-5.924 22.62-3.115 80.16-4.456 102.64-2.178 8.12.828 17.38 5.968 24.17 6.049 6 .063 13.72-3.601 20.24-4.015 25.7-1.638 56.53 2.458 82.05 6.608 15.01 2.44 42.33 11.407 55.13 11.569 6.78.09 11.58-3.493 18.03-4.106 42.36-4.051 81.73 25.748 119.67 18.852 15.35-2.791 33.11-11.145 48.71-14.809v-.009Z"/><path fill="#917147" d="M1728 348.927v6.05c-6.66 3.006-21.63-4.043-25.32-3.449-.88.145-7 9.147-11.57 11.929-24.08 14.638-93.29 20.814-119.48 11.785-8.89-3.061-12.97-8.58-20.27-11.983-15.04-7.004-48.93-.306-68.13-2.449-29.81-3.322-72.26-21.651-101.13-22.029-17.85-.234-45.28 10.461-64.45 12.126-28.85 2.503-53.53-6.122-78.6-6.005-12.16.054-24.66 6.41-38.38 6.14-32.34-.63-88.34-6.833-120.37-12.756-34.02-6.293-57.8-20.473-95.286-17.574-46.143 3.565-89.019 14.179-137.223 12.154-33.939-1.423-56.502-13.765-86.652-16.187-22.77-1.828-47.583 1.377-70.551-.018-35.694-2.17-72.963-7.895-108.891-10.074-28.269-1.72-50.031 9.021-74.628 10.047-9.297.387-16.821-2.395-26.109-1.999-39.717 1.72-76.986 23.443-118.098 13.189-7.515-1.872-15.264-8.417-19.098-9.137-31.662-5.951-76.941-6.707-110.628-10.353-9.819-1.063-22.797-5.807-32.499-5.807-7.56 0-18.018 3.781-26.127 4.105-33.993 1.377-69.174-4.798-102.987-2.17C48.267 306.29 24.435 316.238 0 312.628v-8.067c21.492 3.836 44.496-10.038 63.504-12.117 33.093-3.619 69.813 8.345 102.933 6.158 11.016-.73 20.52-4.871 30.366-5.933 41.049-4.421 78.039 12.811 116.766 15.89 18.801 1.494 39.429-.73 58.527-.054 14.679.522 28.773 4.564 44.37 4.195 19.125-.459 39.825-7.013 58.41-8.121 10.737-.639 20.898 2.161 29.907 1.855 9.837-.333 24.048-6.248 34.821-7.697 34.407-4.637 56.178 1.818 88.506 3.772 18.549 1.125 47.628-3.34 63.963 2.575 47.151 17.069 112.833 10.587 163.944 11.487 11.538.207 26.577 3.61 38.241 4.096 45.684 1.882 85.158-11.982 131.012-8.012 23.11 1.998 47.93 11.775 70.85 15.854 28.25 5.023 79.28 13.792 106.56 14.467 12.96.324 25.75-4.393 38.4-4.303 14.07.099 30.39 5.311 44.35 6.184 36.53 2.278 70.91-15.07 106.81-12.045 29.46 2.485 63.36 16.862 93.03 19.896 26.93 2.746 49.03-6.761 75.92 2.719 27.16 9.57 32.68 14.548 64.97 11.631 25.95-2.341 39.18-9.885 60.98-19.68 14.12-6.347 26.74.198 40.86 1.54v.009ZM1728 695.846v8.066c-20.89 3.34-39.92 14.765-61.56 14.225-23.48-.586-44.93-11.803-67.05-17.691-45.96-12.225-84.23-9.426-130.46-12.703-13.28-.936-29.14-5.905-42.31-6.13-23.66-.415-51.07 6.121-74.68 6.329-41.67.378-86.55-8.085-127.02-8.418-23.45-.198-51.76 6.293-74.59 6.221-20.21-.063-76.2-15.008-96.86-22.111-16.42-5.644-24.21-14.422-44.28-14.386-55.235.117-109.01 12.235-162.218 23.488-36.621 7.742-64.917-4.636-99.99-3.214-19.989.81-40.653 10.128-58.365 10.326-15.048.162-31.545-5.339-46.323-6.284-31.851-2.025-67.131 5.87-100.98 4.195-24.219-1.197-52.677-8.318-76.536-8.336-53.253-.045-105.525 11.172-159.363 8.327-31.986-1.692-75.753-11.856-106.875-10.218-25.965 1.369-42.921 15.386-72.288 11.947-9.153-1.071-19.098-7.49-26.46-7.994-10.539-.721-29.862 5.563-42.228 6.274-20.538 1.198-37.71-2.826-57.564-4.105v-10.083c13.293-3.745 29.313-4.492 42.885-1.548 6.255 1.35 13.626 6.671 19.071 7.166 13.275 1.197 29.601-7.049 46.008-5.69 8.577.711 12.393 4.457 18.522 5.645 16.965 3.286 32.202-6.266 48.447-9.093 37.998-6.617 69.948 7.913 108.45 5.618 53.712-3.205 105.021-6.581 159.183-4.096 18.9.864 42.237 6.247 60.417 6.103 41.661-.333 83.493-11.316 127.215-8.237 16.875 1.188 32.715 8.489 48.537 9.921 21.006 1.908 55.377-8.967 80.316-9.93 27.135-1.044 56.925 4.636 82.746 2.098 21.699-2.134 43.443-5.87 66.537-8.067 36.144-3.448 95.866-15.358 129.376-6.338 9.4 2.53 16.23 8.004 26.42 9.876 14.4 2.638 29.58 2.188 44.88 5.537 10.27 2.251 21.51 8.048 31.22 9.111 27.48 3.006 60.34-1.738 88.71 0 20.1 1.233 40.35 6.914 60.43 8.129 47.99 2.908 93.73-6.662 139.24-6.275 13.72.117 30.6 5.285 44.36 6.167 43.69 2.818 82.95.432 126.41 10.704 26.49 6.257 52.83 21.859 80.77 17.087 7.94-1.359 18.16-6.851 27.58-8.714 6.73-1.333 13.75-.423 20.28-2.908l-.01.009ZM1728 880.437v10.083c-13.65-2.458-29.74-7.049-43.39-8.039-19.76-1.432-78.42 11.55-96.8 20.085-23.14 10.731-15.42 21.138-50.32 18.176-42.89-3.637-97.96-28.997-145.36-36.119-27.95-4.195-81.44 5.114-75.47-38.459-27.85-4.51-55.9 6.365-83.59 8.138-33.1 2.125-78.27.036-112.9.009-21.98-.018-76.66-6.905-92.51 2.251-21.28 12.298-26.52 19.716-54.706 21.922-45.828 3.592-116.262-2.314-163.368-6.158-13.527-1.099-29.898-8.139-42.381-8.193-17.19-.072-39.6 8.922-58.482 10.218-17.73 1.216-36.63-.783-54.504-.063-32.922 1.333-60.534 8.436-93.654-.945-9.522-2.701-21.042-10.128-29.205-11.118-21.375-2.611-51.516 2.358-74.745 2.16-9.378-.081-17.784-2.818-28.215-2.178-12.888.792-25.956 6.671-38.475 7.886-15.345 1.486-51.894-1.755-67.824-4.276-8.802-1.387-17.64-8.796-24.579-9.696-8.28-1.071-34.245 1.476-44.433 2.134-18.612 1.197-50.733 9.425-67.689 1.107-3.204-1.567-7.875-6.725-9.243-6.968-2.853-.504-34.947 21.723-53.622 19.446-8.712-1.063-18.009-6.329-26.955-7.329-28.71-3.178-65.781 16.358-95.58 15.926v-4.033c31.833-8.247 66.312-23.578 99.792-20.148 11.583 1.188 19.269 7.679 31.383 5.149 23.832-4.969 14.931-21.777 26.154-30.33 8.676-6.617 29.457-7.148 37.395.829 7.911 7.958-3.204 20.94 18.351 21.561 26.163.747 72.144-10.533 95.832-2.665 6.147 2.044 11.259 7.68 19.233 8.994 43.038 7.094 73.872-3.304 114.372-3.466 28.638-.117 78.588-5.996 103.482 1.368 50.301 14.864 56.286 11.794 108.234 8.553 36.549-2.278 50.436-4.943 85.248-11.542 32.544-6.157 45.441 2.917 74.16 5.537 42.309 3.862 108.126 9.93 149.265 8.184 35.613-1.513 50.829-22.174 82.609-24.263 11.85-.783 21.79 1.99 32.15 2.08 49.58.414 106.66 3.124 155.42 0 20.38-1.305 87.24-17.771 100.69-2.062 3.85 4.493 3.44 14.144 6.62 19.599 6.27 10.785 44.55 8.526 57.47 11.083 40.96 8.102 104.1 36.028 141.55 37.919 22.53 1.143 21.18-10.875 40.32-18.303 17.93-6.959 74.71-21.606 92.83-21.705 17.99-.099 37.45 6.671 55.45 7.661h-.01ZM0 502.216c16.353-1.81 27.45-13.333 44.505-9.21 17.055 4.123 10.224 16.628 19.899 22.435 10.647 6.392 24.948 8.102 36.36 12.036 15.516 5.348 9.702 5.096 26.946 7.148 5.274.631 21.987 2.854 19.431 10.876-2.007 6.302-27.234 5.734-33.84 6.338l-26.586 10.875c57.177-.936 113.733-10.02 170.397-16.088 9.63-1.035 20.385 1.017 30.051-.189 8.811-1.098 19.242-7.076 28.377-7.913 12.483-1.153 22.14 4.888 32.256 4.186 7.551-.531 18.477-6.905 28.503-7.949 29.718-3.106 52.704 6.355 78.408 5.95 10.998-.171 23.004-5.221 34.29-6.167 24.957-2.088 76.563 2.305 98.406 14.45 6.939 3.853 11.799 10.299 18.72 13.54 10.188 4.771 36.873 15.962 47.223 19.32 14.265 4.636 90.342 6.707 107.298 4.582 32.94-4.141 40.671-13.045 65.79-28.989 37.449-23.767 79.272-5.572 120.141-4.708 32.598.684 59.305-6.293 94.835-2.062 56.85 6.779 118.14 41.917 177.01 27.747 10.22-2.458 16.57-11.659 30.92-13.441 71.72-8.904 102.42 23.029 165.15 32.022 14.27 2.044 25.93.369 41.31 5.06 17.26 5.257 33.56 19.617 51.43 21.147 40.29 3.457 60.89-19.77 92.91-24.001 32.44-4.285 77.59 3.457 112.83 1.944 5.23-.225 9.95-1.323 15.04-2.115v8.066c-15.3-1.125-30.19 2.233-45.46 2.089-22.01-.198-50.97-6.518-72.5-4.123-27.27 3.034-52.04 22.074-84.7 24.199-36.14 2.35-37.03-7.841-65.47-15.152-28.25-7.265-54.24-2.881-83.43-15.367-10.83-4.637-20.76-13.36-30.95-17.448-26.95-10.794-63.22-13.99-91.8-9.975-15.58 2.188-16.17 11.056-27.27 15.08-57.81 20.949-139.06-26.18-199.35-31.482-26.32-2.314-52.461 1.998-78.462 1.836-26.001-.162-70.848-8.913-95.679-1.08-14.562 4.591-25.785 17.834-40.383 24.154-34.443 14.909-58.32 11.884-93.744 11.154-17.955-.369-35.514 4.808-50.436 4.106-10.107-.478-62.586-21.229-71.406-27.45-4.545-3.205-7.821-8.741-12.357-11.847-17.712-12.118-68.148-15.08-89.568-13.207-11.223.981-22.671 5.87-34.245 6.131-24.642.558-49.788-6.635-76.653-4.115-25.272 2.368-38.502 17.862-70.083 13.559-8.469-1.153-15.912-6.734-22.608-7.635-37.593-5.059-163.773 17.204-203.166 28.899-11.412 3.394-24.066 12.325-35.1 13.342-17.1 1.566-36.477-7.823-53.19-1.81v-16.132c13.878-1.882 30.519-.694 43.425-5.978 8.154-3.34 14.346-11.704 22.059-14.333 6.255-2.133 9.027.136 13.194-.774 1.485-.324 13.455-6.311 14.85-7.373 13.635-10.488-10.755-14.242-16.866-16.961-5.418-2.413-20.277-9.138-24.201-12.091-4.554-3.421-5.778-11.694-9.441-12.883-3.429-1.107-17.901 5.051-24.417 5.303-5.895.225-12.285-2.728-18.603-1.476v-6.05Zm82.656 60.534c-14.904-4.465-22.662 12.82-38.187 13.198l-36.396 4.906c22.131-1.152 45.684 14.198 57.726-11.811l16.857-6.302v.009ZM1728 983.266v8.067c-18.42-.703-37.12.918-55.53.081-34.21-1.549-63.53-7.392-98.69-4.088-21.06 1.972-43.63 8.571-64.58 10.029-40.77 2.835-80.92-6.076-120.87-8.129-31.12-1.593-70.77 4.996-99.84-5.006-14.53-4.996-28.23-16.925-42.42-22.11-34.52-12.613-101.76 4.861-142.1 2.98-20.75-.973-41.14-8.949-61.43-2.908-18.93 5.636-31.6 17.015-53.557 19.032-25.551 2.349-78.273-1.18-104.598-4.223-13.851-1.593-25.659-11.478-38.502-12.018-13.842-.586-29.772 7.121-44.316 8.273-30.222 2.413-91.269-2.989-123.048-6.14-14.976-1.485-27.567-10.893-42.273-12.162-51.588-4.457-93.69 38.513-147.285 32.355-28.764-3.304-24.516-26.017-43.47-39.206-21.555-14.999-47.574-4.835-71.478-3.169-32.949 2.286-63.693 7.697-94.779 10.074-24.237 1.854-46.206-5.564-70.623-4.088-30.915 1.873-50.274 13.721-83.628 3.142-5.589-1.773-14.139-10.488-15.057-10.56-5.823-.45-32.67 17.592-40.356 17.592H37.305c-4.041 0-14.607-3.566-20.178-4.007-5.688-.459-11.457.207-17.127-.036v-6.05c20.394-5.239 41.607 2.575 61.326-.171 16.839-2.34 52.839-28.484 66.771-16.015 4.329 3.871 4.212 10.056 10.287 13.909 19.71 12.514 46.656-.099 68.319-1.729 23.031-1.737 46.53 3.583 68.499 1.963 38.709-2.854 82.953-13.423 123.057-16.079 29.313-1.945 53.766.297 76.644 20.094 7.389 6.392 15.435 21.715 24.129 22.426 23.697 1.926 63.162-18.348 87.327-23.794 16.704-3.763 42.552-6.401 59.373-4.115 12.393 1.684 24.03 9.372 37.026 11.371 24.759 3.799 66.825 5.6 92.556 6.239 31.23.783 57.132-14.558 84.753-12.163 12.267 1.062 21.123 7.643 32.373 9.966 18.423 3.799 73.53 5.699 92.286 3.97 21.394-1.971 43.844-13.036 64.814-13.828 22.16-.846 45.53 7.229 68.61 6.104 40.29-1.963 101.57-16.736 139.12-4.186 20.06 6.698 36.15 22.227 58.43 24.244 26.35 2.386 55.95-1.531 82.72-.054 34.99 1.935 68.7 10.722 104.74 8.129 21.5-1.548 44.8-8.75 66.49-10.146 33.19-2.124 64.47 2.503 96.88 4.097 20.49 1.008 41.25-1.837 61.48 2.034l-.01.009ZM0 84.715c22.248 6.005 46.08-6.112 67.581-8.039 22.86-2.044 65.898-1.648 88.164 2.503 8.082 1.503 27.675 10.46 32.769 9.705 4.734-.712 4.248-4.898 6.525-6.248 18.846-11.218 39.015-2.26 59.787-4.213 23.103-2.18 48.024-13.793 70.848-15.863 19.638-1.774 49.383-.045 70.461-.117 39.771-.126 78.336 10.677 115.092 8.228 18.018-1.197 36.639-9.849 54.072 2.224 6.012 4.16 8.307 12.343 12.879 15.899 16.38 12.747 43.983-1.108 64.053-2.053 22.131-1.044 42.93 4.97 64.593 4.096 38.682-1.557 74.817-6.653 114.759-6.212 32.337.36 54.63 8.607 84.69 10.254 55.764 3.052 108.847-13.567 163.497-10.254 35.51 2.161 64.28 13.603 97.3 19.653 60.84 11.155 133.14-28.493 189.89-12.46 36 10.174 55.52 26.45 97.86 29.169 68.66 4.421 146.34 3.016 215.75 4.033 19.52.289 38.74.262 57.45-6.031v8.066c-15.34 3.457-29.72 4.393-45.46 4.132-41.95-.684-84.93-3.358-126.86-4.213-48.67-.99-103.54 5.528-150.3-6.977-38.12-10.2-52.59-27.99-95.54-22.957-35.64 4.177-72.95 16.502-109.04 18.006-46.01 1.917-89.86-19.69-137.1-22.354-34.57-1.945-66.718 8.453-100.819 10.254-56.997 3.007-113.481-2.818-169.47-8.13-28.332-2.691-55.242 2.962-82.566 4.097-24.183 1.008-48.402-4.232-72.639-2.071-25.632 2.287-37.935 13.495-66.123 3.556-7.974-2.809-21.078-13.756-25.416-14.656-4.689-.973-20.7 4.339-31.32 2.827-34.164-4.87-60.57-13.351-96.867-13.838-25.668-.342-65.142-4.357-88.596-1.908-22.959 2.395-48.744 13-73.062 15.665-21.645 2.376-27.468 2.043-49.131 7.337-28.008 6.842-60.174-8.967-91.674-9.174C78.111 86.399 38.889 102.253 0 92.781v-8.066ZM1728 490.116v6.05c-36.78 6.023-77.46-1.639-113.9 2.034-11.04 1.117-21.41 6.816-32.52 7.788-18.28 1.602-59.9-4.709-77.83-10.398-20.44-6.482-32.37-19.554-55.05-21.589-34.17-3.061-70.34 3.808-104.9 2.071-25.33-1.279-51.83-8.562-76.47-10.245-53.16-3.628-105.94 9.741-157.92-5.402-17.51-5.104-47.67-22.02-64.03-22.858-27.42-1.404-70.122 11.902-98.76 14.189-31.743 2.538-82.53.387-114.876-2.008-26.217-1.945-44.316-7.67-72.531-7.949-40.158-.397-51.885-.217-90.252-10.741-28.494-7.814-55.089 2.449-83.259 4.574-12.114.909-29.43-2.008-40.257.063-6.822 1.305-9.945 10.767-24.129 12.162-27.045 2.656-25.371-7.607-43.722-12.937-24.084-6.995-87.75-7.58-113.625-5.275-31.374 2.8-45.648 8.246-80.604 7.949-65.862-.549-131.751 4.214-197.667.063-28.287-1.782-57.069-11.145-85.698-4.015v-6.05c29.187-8.777 58.446 1.018 87.624 2.098 24.354.9 48.456-4.979 72.756-4.204 35.775 1.143 70.938 1.197 106.866 2.016 8.721.198 21.195 3.943 29.871 3.421 16.515-.999 38.457-11.46 57.015-13.162 35.514-3.259 98.721 1.504 133.875 8.769 4.419.909 9.513 4.933 13.068 4.942 4.95.009 13.887-7.598 22.257-8.021 8.262-.423 17.874 3.511 26.163 4.096 41.13 2.917 82.953-15.241 124.065-5.104 29.187 7.193 26.829 9.2 59.301 9.083 60.705-.216 118.89 10.966 179.442 12.28 60.633 1.315 108.157-25.126 168.007-4.672 11.08 3.79 22.13 9.795 33.15 13.225 49.98 15.511 100.36.36 151.78 5.491 23.01 2.296 47.35 8.787 70.5 10.155 36.9 2.179 74.1-4.843 110.96-2.079 37.67 2.836 66.41 26.207 108.83 28.295 23.21 1.144 34.54-6.653 54.45-8.228 29.65-2.341 66.13 5.221 96.84 4.087 6.8-.252 14.11-4.843 21.2.018l-.02.018Z"/><path fill="#917147" d="M1728 445.742v6.05c-12.44.162-24.93-.189-37.39-.081-5.36.045-10.05 2.286-15.93 2.16-26.05-.549-45.62-14.071-78.78-10.182-13.43 1.576-8.83 6.932-14.11 14.125-11.02 14.999-57.74 5.546-66.45-8.102-6.2-9.714.03-15.521-18.33-16.142-8.64-.288-17.61 3.448-26.12 4.06-25.05 1.81-55.74-11.577-84.57-12.162-19.92-.405-37.42 8.705-56.61 8.273-38.83-.864-89.3-15.412-127.18-16.043-12.52-.207-24.68 6.959-42.1 5.816-43.32-2.845-88.49-22.651-135.04-26.252-27.911-2.16-54.227 9.939-80.759 12.136-54.837 4.546-109.251-10.524-161.775-21.652-32.4-6.86-60.921 3.394-92.187 3.637-15.921.126-31.554-3.385-48.429-2.097-20.691 1.575-42.813 11.802-63.549 3.007-4.473-1.9-6.813-6.203-11.124-7.031-22.104-4.232-60.03 8.759-82.683 10.038-12.906.729-25.092-4.34-38.313-4.133-61.713.964-122.238 15.845-185.526 14.306-9.468-.234-23.076-4.187-32.175-4.115-17.388.126-34.92 8.886-52.335 10.173-15.723 1.162-75.753 1.927-87.228-3.682-3.834-1.872-5.706-5.617-8.802-7.337-9.522-5.284-17.577-1.926-27.027-3.214-17.802-2.422-35.388-7.553-53.478-8.03v-2.017c17.712-4.546 35.847 3.331 53.433 4.033 13.536.541 20.736-3.979 37.287 1.027 24.129 7.292 55.782 13.594 81.702 13.243 15.219-.207 33.399-8.94 50.409-10.209 64.854-4.835 133.02.288 197.028-8.643 45.72-6.374 82.638-10.191 129.555-9.534 17.469.243 34.929 9.885 46.404 10.272 18.009.603 46.323-6.032 68.652-6.32 36.072-.468 89.433-8.471 122.427-1.449 35.595 7.571 64.692 18.194 103.329 19.86 30.636 1.323 41.994-1.972 69.606-11.218 35.973-12.045 55.278-3.051 88.168 4.493 15.16 3.475 32.22 1.251 47.34 5.086 25.97 6.581 49.13 20.896 79.02 17.439 54.22-6.266 99.29 11.613 151.35 12.405 26.68.405 51.33-15.16 84.16-11.685 14.8 1.566 35.03 11.019 47.01 11.649 8.25.432 17.88-3.547 26.16-4.105 13.05-.873 40.33.477 48.29 12.136 2.37 3.457 2.49 8.201 5.16 10.974 1.86 1.945 14.58 7.157 17.19 7.013 4.95-.27 8.64-9.84 14.34-13.702 4.17-2.827 12.88-6.221 17.9-6.473 26.87-1.341 53.76 7.508 78.54 10.2 20.57 2.233 43.15-4.123 63.53 1.999h.01ZM1728 661.555v8.066c-10.12 4.807-22.45 4.285-32.38 6.941-27.23 7.274-39.36 23.272-71.88 5.573-18.61-10.137-13.02-16.34-41.95-18.537-39.1-2.98-79.74-1.737-118.97-4.024-88.69-5.168-177.41-9.732-266.15-16.151-25.62-1.854-63.88.738-87.25-7.526-6.22-2.197-11.95-7.887-15.6-8.589-25.98-4.96-67.27 4.646-96.719 1.945-13.896-1.27-24.588-8.985-36.225-10.155-14.958-1.504-69.597 2.926-83.412 7.535-25.29 8.436-23.4 6.446-49.743 8.733-26.28 2.286-61.767 10.074-86.724 10.227-10.44.063-25.398-3.97-36.216-4.286-27.135-.801-57.24 3.809-82.827 2.179-17.892-1.143-40.806-8.399-58.419-7.769-7.047.252-16.623 4.699-24.408 5.419-19.44 1.801-25.137-6.41-42.03-7.886-28.791-2.512-58.266 5.537-86.796 8.12-10.143.919-22.545-1.458-32.139.117-14.895 2.449-17.658 10.318-40.212 7.752-13.815-1.576-21.096-11.01-28.341-11.992-24.615-3.331-58.194 13.477-77.742 5.159-5.454-2.323-6.318-6.266-12.987-7.175-8.091-1.108-14.904 2.025-22.212 2.205-46.917 1.189-94.284 3.682-141.138 4.034-18.558.135-36.909-3.521-55.53-2.098v-8.067c18.567-2.925 36.621.496 55.53.081 31.347-.684 63.144-8.858 94.761-6.202 10.656.891 21.726 5.977 32.175 6.256 13.149.343 29.574-5.968 42.228-4.033 7.632 1.171 14.184 9.417 19.89 9.408 6.732-.018 19.989-6.293 28.872-7.274 7.965-.873 16.128.468 23.931-.27 14.823-1.396 30.942-9.525 45.891-.009 1.818 1.152 2.277 4.267 4.86 5.654 9.63 5.194 25.281-.964 35.991-1.567 72.639-4.15 130.212-8.589 203.553-3.979 26.244 1.647 52.515-4.096 78.678-2.062 26.163 2.035 54.549 11.479 80.775 10.119 33.318-1.728 69.471-8.984 100.656-18.293 24.318-7.256 103.473-14.693 126.09-6.977 5.697 1.944 10.035 6.734 15.984 8.21 32.215 8.004 81.465-5.374 114.035.9 5.03.964 13.66 9.543 26.47 11.848 51.54 9.273 119.88 7.553 173.17 10.317 63.25 3.286 126.52 9.156 189.48 12.163 35.65 1.701 97.85-6.599 128.67 6.428 7.07 2.989 11.32 8.309 17.08 11.154 18.62 9.21 25.29-2.089 42.83-6.59 14.74-3.781 31.24-5.321 46.41-5.015l-.01-.017Z"/><path fill="#917147" d="M1728 631.306v8.066c-22.06-.162-43.84 8.67-65.44 10.173-56.28 3.934-140.02-3.61-197.67-8.174-66.55-5.276-130.86-20.617-197.54-22.075-21.62-.477-43.07.477-64.57-2.143-21.52-2.619-41.9-10.767-62.79-13.846-39.88-5.879-82.63-3.871-122.72-8.336-49.95-5.564-130.464-29.322-175.815-4.376-11.187 6.158-19.026 17.051-31.284 21.148-53.154 17.726-117.792-.414-172.017-4.619-19.386-1.503-45.099 3.538-62.892-5.662-5.958-3.088-9.45-10.615-16.137-12.091-30.258-6.671-65.691-8.949-96.39-8.463-14.931.235-31.419-.387-46.143 2.215-26.424 4.654-48.978 9.678-76.752 11.974-7.461.612-19.719-1.648-25.893-.126-1.701.414-4.968 8.966-20.592 10.083-15.624 1.116-24.129-5.834-34.173-6.068-9-.207-24.255 5.14-34.389 6.077-10.872 1.008-23.625-1.396-34.119.153-11.718 1.728-18.81 8.939-33.984 5.518-3.69-.837-5.67-4.528-9.612-4.645-16.389-.486-57.987 22.228-68.562 12.109-2.538-2.431-.99-4.178.144-7.04-26.271 2.817-52.407 2.178-78.66-.027v-4.034c27.18 4.367 57.852-6.815 83.781-4.141 6.255.648 11.421 4.249 15.822 4.087 5.949-.216 19.26-6.14 26.964-7.472 45.342-7.823 86.436-.27 132.327-6.806 16.092-2.296 34.029-6.293 50.598-7.877 22.275-2.134 50.292 2.862 72.342 1.386 5.256-.351 11.664-5.204 17.361-6.455 28.908-6.347 67.446-6.923 97.866-9.003 16.371-1.116 73.278 4.745 85.518 13.216 3.735 2.584 6.984 8.211 10.323 9.84 11.943 5.825 35.478 2.026 49.266 3.16 39.609 3.241 132.912 25.19 165.771 8.445 7.875-4.006 16.308-14.035 25.434-18.933 49.734-26.666 130.203-3.502 183.887 2.359 35.9 3.916 75.02 2.773 110.85 6.095 28.76 2.664 56.16 13.972 84.74 16.088 28.57 2.115 60.69-2.188 90.69.045 50.29 3.745 103.44 18.914 153.28 22.146 54.18 3.511 109.09 5.51 163.32 8.067 38.21 1.809 70.46-7.023 107.86-10.065v.027ZM0 560.706v-6.05c8.244-4.087 20.304.226 27.783-3.466 4.23-2.088 4.095-6.121 6.624-9.506 1.098-1.477 5.535-2.431 5.706-4.124.081-.828-5.247-10.506-7.119-11.037-3.204-.918-10.485 5.195-16.074 5.825-6.201.702-11.034-1.126-16.92-1.891v-10.083c11.079-2.025 30.096-4.006 40.905-1.593 8.379 1.872 9.549 9.507 14.814 13.414 3.249 2.412 14.202 4.753 14.841 7.364 1.647 6.806-15.426 4.726-20.214 5.96-5.562 1.431-9.09 6.608-13.527 8.651-12.312 5.672-23.958 3.772-36.819 6.536ZM140.139 1130.22c7.884-1.33 26.541-11.93 37.314-15.12 32.589-9.65 45.864-6.66 77.652-6.91 8.064-.07 20.475-4.58 27.954-1.92 3.735 1.32 2.682 6.81 5.301 8.81 5.211 4 27.063 2.61 36.846 7.52 4.086 2.05 6.57 6.24 11.466 8.7 6.417 3.22 27.981 10.23 30.249 12.1 2.088 1.71 3.195 5.61 2.079 6.97-1.917 2.33-49.752 7.53-59.328 10.27-11.781 3.36-26.379 13.82-36.432 14.14-9.549.32-18.621-5.23-28.269-6.21-17.235-1.76-35.325 4.04-52.299-.13-5.094-1.25-9.936-5.52-16.839-7.36-10.728-2.87-49.338-3.22-53.991-10.67-2.295-3.68 2.043-8.89 1.17-10.08-1.008-1.38-15.399-.8-12.114-10.11 8.991-1.05 20.673 1.43 29.241 0Zm19.152 14.09c12.807.96 26.829 11.58 37.449 13.99 23.184 5.25 92.457 4.64 112.428-8.25 10.422-6.73 15.561-20.45-.171-23.37-17.829-3.31-43.371-1.79-61.893-4.65-5.724-.88-11.079-5.78-17.136-7.05-10.395-2.19-49.689 5.24-55.98 13.81-1.773 2.41-1.134 7.37-3.087 9.04-2.151 1.85-10.629 1.04-11.628 6.48h.018ZM1687.66 780.543c-11.57 1.864-26.17-4.402-36.85.459-3.53 1.612-8.89 11.533-14.88 15.359-18.22 11.659-98.98 16.043-119.63 9.381-16.77-5.411-24.69-24.064-39.55-31.024-6.11-2.862-16.48-5.248-23.33-6.923-8.69-2.115-22.13-2.394-29.11-5.176-6.97-2.782-2.17-7.706 4.14-8.391 28.2-3.079 22.29-5.212 44.92-13.558 34.36-12.667 100.67-13.693 136.06-3.889 22.1 6.122 24.36 17.105 39.38 25.154 9.45 5.059 27.97 5.311 35.58 10.794 3.47 2.494 3.8 3.475 3.26 7.823l.01-.009Zm-81.34-31.554c-15.17-14.269-66.44-15.008-86.12-9.894-7.35 1.908-14.19 7.49-21.54 8.714-12.58 2.107-30.41-4.312-34.79 12.568 9.51 2.044 22.22 3.358 30.11 9.21 10.18 7.544 10.22 23.857 26.26 28.187 22.77 6.14 84.88 4.484 104.8-8.264 1.61-1.035 13.7-11.316 14.07-12.172 3.04-7.067-18.59-11.622-23.87-16.088-3.53-2.979-5.74-9.272-8.92-12.261ZM298.422 336.809c-.918 1.107-23.841 6.419-27.837 7.472-12.06 3.196-30.537 4.808-39.879 8.517-5.76 2.296-10.656 9.624-17.109 13.135-13.023 7.094-57.159 14.242-69.84 7.598-4.491-2.35-6.867-6.662-11.25-8.922-21.654-11.136-58.68-21.381-83.376-31.563-10.818-4.456-8.451-7.625 2.178-8.427 15.597-1.179 32.652 1.018 48.474.081 28.539-1.692 68.472-13.657 94.851-12.189 18.486 1.026 49.707 10.488 69.003 13.72 6.093 1.017 32.355 2.35 33.876 4.438.99 1.351 1.485 5.429.9 6.14h.009Zm-205.668-1.98c.558 2.592 3.33 4.267 5.382 5.689 24.975 17.24 62.127 27.548 92.394 24.524 20.304-2.026 19.062-8.211 31.806-16.592 7.065-4.646 17.379-4.214 23.625-10.615-.063-4.609-42.885-15.142-49.374-15.286-12.177-.261-25.596 7.013-38.331 8.192-21.645 1.99-44.019-1.476-65.502 4.088Z"/><path fill="#917147" d="M784.566 550.839c-1.332.919-1.539 9.084-3.33 11.812-4.221 6.446-17.433 3.25-24.084 4.141-46.458 6.221-106.704 22.894-145.179-14.161-3.411-3.286-5.904-10.578-8.631-12.055-8.703-4.708-29.556-5.086-40.725-9.21-5.346-1.971-9.657-2.205-8.145-8.975 4.095.09 8.235.171 12.249-.882 36.585-9.561 110.817-31.852 145.53-16.764 22.347 9.714 30.987 24.056 59.931 30.817 8.46 1.98 46.899 4.519 48.456 12.063 2.25 10.894-33.363 1.333-36.072 3.214ZM598.86 528.432c6.885-.307 20.079 3.664 23.103 10.173 1.602 3.448.648 7.337 2.961 11.163 17.406 28.755 94.077 19.527 121.572 10.389 8.712-2.899 14.814-6.671 19.674-14.575-10.359-5.357-21.267-9.21-31.563-14.783-17.604-9.525-29.268-24.064-50.382-24.406-18.999-.306-44.28 6.644-62.694 11.451-7.578 1.972-21.42-.954-22.671 10.579v.009ZM1616.48 771.054c13.44 15.782-20.92 13.018-28.09 14.063-8.24 1.206-17.28 7.562-24.51 7.382-4.62-.117-35.05-8.112-40.29-10.173-12.47-4.898-16.3-15.827-27.42-22.948l31.39-10.92c14.15-1.936 66.59-1.243 77.37 6.959 3.57 2.709 3.11 7.751 5.21 10.965 1.89 2.854 5.03 3.124 6.34 4.672Zm-84.6-14.224c-11.3 2.071-19.38 9.687-5.53 16.673 18.67 9.426 49.03 7.382 69.67 5.132 12.95-1.414.6-11.605-6.19-14.18-11.48-4.348-46.29-9.768-57.96-7.634l.01.009ZM223.803 344.884c-.576.568-11.745-.387-16.209.928-5.301 1.566-10.62 8.462-15.516 10.686-14.859 6.752-41.751-9.048-59.013-5.564-8.055-8.228 22.113-9.957 24.714-10.578 3.807-.9 5.598-4.753 12.546-5.6 8.073-.99 46.206-.783 51.417 3.124 2.106 1.576 3.123 5.951 2.052 7.004h.009ZM465.669 143.314c5.337 6.527-5.841 10.875-11.178 11.794-17.127 2.961-51.381 5.662-68.346 4.213-27.279-2.323 2.565-16.349 14.274-17.961 7.569-1.044 63.027-.774 65.25 1.954Z"/><path fill="#917147" d="M714.789 548.607c-2.925.909-4.329 9.48-7.029 11.127-7.974 4.879-52.812-6.248-61.227-11.415-4.734-2.908-6.336-8.256-7.902-9.246-3.348-2.116-18.765-1.675-15.408-9.435 4.68-10.848 25.587-11.325 35.208-11.37 10.836-.045 36.099.027 45.378 3.007 5.652 1.809 8.307 8.183 13.446 10.758 7.047 3.529 23.265 4.519 28.764 9.552 3.726 3.403.459 7.031-.981 7.031-6.615 0-25.83-1.369-30.249 0v-.009Zm-5.049-12.073c-5.652.162-8.514-7.418-12.114-9.066-5.661-2.592-47.538 1.774-48.375 6.059 1.17 13.243 32.445 19.824 41.031 16.772 2.862-1.017 3.708-5.473 6.597-7.508 3.708-2.611 11.214-1.972 12.861-6.248v-.009Z"/></g><defs><clipPath id="a"><path fill="#fff" d="M0 0h1728v3999H0z"/></clipPath></defs></svg>