<svg xmlns="http://www.w3.org/2000/svg" width="1728" height="197" fill="none">
  <g clip-path="url(#a)">
    <path fill="#5A3C26"
      d="m1721.06 227.54-13.07-3.07c-51.36-6.77-133.46-8.92-186.27-5.31-3.35.22-26.16 2.53-27.04 3.01-.51.27-.44 2.82-.11 2.98 6.31 3.15 89.69-2.7 104.57-3.06 37.59-.92 79.34.17 115 5.45H633.1l5.85-.83 401.48.06c2.87-1-4.81-1.23-5.74-1.31-70.57-6.25-150.79-4.26-222.56-2.59-31.53.74-63.63 3.3-95.22 3.15-85.61-.42-221.87-20.36-298.05-1.1-2.7.68-5.78.64-5.44 2.63h-98.59l131.44-16.78c56.25-5.47 161.52-11.48 213.22.43 2 .46.15 2.14 4.73 1.52.93-1.82-4.7-2.49-7.49-3.24-50.15-13.51-149.36-9.95-205.62-5.1-54.57 4.7-118.14 13.2-170.94 21.22-2.8.43-6.12-.14-5.13 1.95h-91.67c94.42-19.4 197.78-40.4 304.42-30.43-.6-1.5-3.61-1.28-5.97-1.59-32.1-4.16-74.22-3.5-107.08-1.41-55.9 3.56-105.78 14.2-158.51 21.72 1.5-1.15 2.29-2.5 1.58-3.83-3.57-2.4-77 .16-88.7.81-35.9 2-72.38 5.9-105.33 12.6-2.57.53-5.66.1-4.73 2.12H.02v-8.58c10.55-1.06 22.58-1.74 32.52-3.66 2.35-.46 5.77-.6 5.55-2.18L.02 215.06v-10.91c38.55.88 76.74-1.99 115.04-3.12 8.59-.25 17.33.15 25.95 0 2.33-.04 7.2.64 6.04-1.17l-147.03.38v-8.57c56.99 2.3 117.1-.4 173.03-5.82 49.33-4.79 105.03-19.73 151.3-4.33l-6.9-3.87c-16.68-5.8-36.57-6.94-57.18-6.29-8.9.28-17.6 1.63-26.36 2.16-1.88.12-5.96.86-5.56-.56 18.41-2.9 36.14-6.24 55.32-8.2 98.66-10.12 207.56 5.93 305.8 12.64 129.43 8.84 295.06 10.19 424.76 2.46 94.9-5.66 175.1-24.75 271.73-22.47 10.15.24 15.17-.7 3.17-2.98-51.41-9.76-155.27 7.32-209.77 12.7-96.75 9.57-194.56 10.2-293.13 9.72-59.25-.3-121.15-.14-179.95-3.1-103.85-5.22-301.2-35.33-388.87-.82-2.1.83-.7 2.43-4.06 3.04-13.13 2.39-48.63 4.93-64.2 6.16-48.58 3.8-100.46 6.95-149.13 2.55v-18.72c7.26.57 16.1 1.33 23.37 1.55 105.83 3.33 206.86-11.95 311.34-15.58 24.6-.86 49.69-.84 74.37-1.57 2.22-.06 7.34.64 6.05-1.16-.74-1.03-29.3-3.34-33.77-3.5-34.56-1.25-82.5 2.32-117.35 4.77-87.27 6.12-174.7 18.07-264.02 12.37v-8.58c38.23.45 76.55 3.57 115 2.34 41.13-1.33 81.73-9.5 121.99-12.47-.22-.64.32-2.17-.02-2.34-.8-.37-20.18.72-23.13.88-39.21 2.07-80.45 9.21-119.5 10.07-31.02.68-63.2-3.76-94.33-3.15v-10.14c44.07-3.65 86.7-10.09 131.12-13.01 64.86-4.28 145.02-6.04 207.07 4.42 7.03 1.19 14.42 4.07 21.6 3.52-1.7-2.02-8.32-3.51-12.26-4.61-43.77-12.17-121.43-14.46-171.74-12.05C115.36 120.6 59.82 133 .02 137.1v-10.14c22.87-1.9 48.12-1.98 70.64-4.41 27.59-2.98 50.88-12.08 79.85-13.14 1.3-1.8-5.65-1.24-7.86-1.2-24.68.44-47.2 7.91-71.32 9.96-22.32 1.9-48.4 1.02-71.3 1.77v-12.48c51.64 3.8 94.65-13.1 141.84-19.12.72-1.92-3.16-1.15-5.63-.96-45.26 3.4-88.51 19.33-136.22 15.4V84.84c19.24-.3 38.73.4 57.96 0 2.05-.05 7.58.57 6.05-1.16l-64-2.74v-9.36c9.98-.36 22.44-.46 32.01-1.54 2.71-.3 6.06-.02 6.05-1.95l-38.07-.4V59.1c82.1-17.04 165.1 5 243.89 15.21 69.24 8.98 142.14 14.94 214.49 13.26-74.2-1.95-145.3-9.74-215.82-19.68-59.39-8.37-139.56-25.94-201.44-20.27C26.19 49.01 13.57 52.4.01 55.22V41.18c63.73-3.28 112.36-28.03 178.17-27.3 1.66-4.64-1.93-4.1-10.02-5.24-31.58-4.42-67.83-5.1-100.68-5.67-.84 2.24 1.09 1.29 4 1.66 19.68 2.54 41.66 3.11 61.76 4.95l15.51 1.96C97.03 15.64 53.38 32.34.01 33.38V20.9c69.97 4.67 71.06-27.41 0-24.18v-10.91C93.03.56 195.97 14.23 294.07 1c.63-2.1-2.9-.86-5.21-.78-39.83 1.36-74.85 1.82-114.77-.5C114.9-3.68 57.91-12.1.01-18.08v-7.01c20.91 2.04 41.97 3.94 62.65 6.46 31.38 3.82 63.42 10.97 96.5 9.52l-53.63-5.45c-35.2-5-69.32-11.7-105.51-15.21v-12.48C87.13-28 179.47-10.42 273.32-23.16c.63-2.09-2.87-.88-5.22-.79-29.19 1.17-50.24 2.54-80.2 1.09C121.03-26.1 61.98-38.91.03-49.28v-7.01c62.88.01 117.68 15.91 178.14 21.45 95.8 8.78 167.18-3.56 259.1-9.53 34.46-2.24 70.24-2.83 104.94-3.38 4.85-.07 47.65.54 47.65-1.14-26.67-1.25-53.68-3.42-80.46-4.28C399.75-56.68 298.15-35.44 187.9-40.8 123.8-43.91 65.5-59.76.02-58.64v-6.24c19.16-.92 38.78-.24 57.92-.8 43.88-1.27 87.57-4.98 131.5-6.22 37.94-1.06 67.98.58 105.94-4.48 8.96-1.2 20.9-3.08 28.1-5.66-17.38 1.57-35 3.4-52.78 3.88-31.2.84-62.72-1.36-93.46-.8-35.77.66-71.58 4-107.18 5.49-23.25.97-46.72 1.6-70.04 1.56v-10.92c7.17-.1 14.45.16 21.63 0 2.07-.05 7.54.59 6.05-1.16-.6-.7-23.72-2.75-27.68-2.74v-21.84c36.1 3.12 71.8 6.74 108.98 5.46v-2.33L.02-116.37v-8.57c17.8 1.66 36.33 2 54.57 1.6 6.7-.15 21.17-1.97 25.75-1.66 1.92.13.12 2.5 3.77 3.08 3.32.53 30.67.3 36.19.13 151.27-4.96 195.32-74.36 308.64-103.38 113.56-29.08 309.14-41.4 438.59-38.63 60.2 1.3 93.39 7.64 147.67 16.1 2.06.31 4.77.8 3.6-.84-.45-.64-23.08-5.32-26.52-6-97.89-19.16-252.13-17.3-356.06-8.97-98.66 7.9-189.27 22.6-264.35 53.17-66.6 27.11-108.7 67.24-200.63 79.55-27.63 3.7-52.54 4.44-80.93 5.63-1.91.08-5.88.92-5.54-.55 45.92-6.02 98.32-14.1 137.89-26.35 6.87-2.13 34.2-11.89 36.79-14.6.88-.93-.51-1.55-2.56-1.16-2.32.45-17.94 7.73-22.55 9.33-29.11 10.06-74.9 19.78-110.2 24.4A564.1 564.1 0 0 1 .01-131.94v-24.18c110.58-.13 220.29-17.07 313.09-43.28-21.03 2.38-41.26 6.95-61.85 10.33C171.04-175.9 86.59-164.06 0-166.28v-22.6c66.08-2.8 130.71-6.83 194.1-15.83 117.06-16.61 222.32-46.96 339.05-63.93 97.34-14.16 192.7-17.41 294.5-13.83 3.22.12 35.4 2.62 35.48 1.16-127.1-18.75-264.51-5.98-386.16 14.63-122.44 20.74-238.52 54.24-367.68 65.84-36 3.23-72.76 4.94-109.29 6.49v-24.96l141.85 2.72c.09-1.85-3.36-1.64-5.95-2-42.06-5.65-92.22-6.5-135.9-7.74v-3.9c5.04-.26 9.7.68 14.64.8 111.97 2.78 195.39-2.22 300.6-18.94 59.85-9.5 128.03-21.54 185.97-33.13 2.1-.42 5.11-.4 5.59-1.77-2.91-.15-5.57.17-8.33.53-102.8 13.32-195.98 34.88-304.38 42.92-63.71 4.72-129.91 4.12-194.1 1.78v-20.27c33.06 1.95 66.14 2.56 99.45 3.13 45.21.77 164.06 2.17 188.04-19.74 3.34-3.06 8.73-11.33 1.4-13.8.92 18.86-42.87 22.08-75.51 24.06-70.2 4.28-143.13-.11-213.37-2.23v-5.46c48.4-1.57 96.68-5.44 143.92-10.36 37.22-3.88 75.1-10.2 113.16-12.15 65.84-3.36 145.26 4.29 192.66-22.32-1.44-1.16-4.46-.07-6.12.37-72.08 18.73-127.1 10.59-203.56 15.84-33.92 2.33-66.36 7.7-99.6 11.24-46.7 4.98-93.8 9.24-140.46 14.27v-15.6A2097.3 2097.3 0 0 0 166.43-303c27.56-3.07 56.22-6.11 80.96-12.62 26.5-6.99 53.57-19.23 33.16-33.7-14.83-10.52-35.35-.23-34.92 8.34 8.65 1.2 8.94-3.26 13.85-4.29 13.37-2.8 19.63 6.48 12.1 11.7-16.01 11.1-98.44 21.28-127.65 24.33-47.22 4.94-95.69 8.25-143.93 10.37v-24.18c18.69 1.25 37.51.37 56.29.75 39.88.79 80.43 4.49 118.84-1.73 14.03-2.27 27.2-5.75 41.39-7.85 4.26-.63 13.48.1 13.55-2.47-21.47-3.86-42.21 2.9-62.3 5.45-35.69 4.53-62.9.26-97.73-1.17-23.2-.95-46.77-1.15-70.04-1.56v-10.14c28.44-.44 56.44-3.82 84.78-5.07-28.02-.43-57.04-1.12-84.78.39v-9.36c36.02.28 72.16-.35 108.18-.03 57.14.51 123.22 6.76 172.22-10.4 1.93-.69 5.31-1 5.02-2.43l-31.16 5.45c-46.2 6.63-95.26 2.46-142.62 1.92-37.36-.42-74.46.56-111.64.81v-10.14c60.91-4.73 122.31 2.4 183.37 1.17l-116.7-6.66c-22.4-.06-44.9-.27-66.67 2.37v-4.68c91.74-4.88 194.6 4.64 280.83-13.37 5.42-1.13 12.93-2.44 16.68-4.56-64.16 8.68-127.6 11.91-194.67 11.73-4.94-.01-9.2-.84-13.69-.85-29.73-.04-59.6-.33-89.15.82v-22.62c12.25-2.05 22.4-6.06 34.63-8.18 51.8-8.95 136.71-4.79 192.84-5.86 2.34-.04 7.2.65 6.05-1.16-76.9-2.32-164.24-9.1-233.52 9.74V-433c111.57-8.18 207.08-37.16 313.48-52.47 38.8-5.58 78.83-9.67 118.61-13.58 49.69-4.9 110.84-11.62 160.54-14.19 63.88-3.3 125.54 2.99 188.35-7.1 3.48-.56 28.04-5.2 28.52-5.87 1.17-1.64-1.53-1.16-3.6-.83-65.78 10.4-95.96 6.87-163.25 6.66-76.12-.24-168.3 9.51-242.78 17.72-39.8 4.39-79.69 9.62-117.9 16.25C188.16-470.12 101.8-442.93 0-436.9v-16.38c32.2-1.89 63.85-5.52 94.73-9.93 10.18-1.45 85.33-13.44 86.9-15.43 1.37-1.74-3.58-1.22-5.67-.98-11.34 1.26-24.8 4.52-36.25 6.27-45.4 6.95-92.07 12.5-139.7 15.39v-10.14l50.16-4.3c1.49-1.68-3.97-1.24-6.03-1.15A793.4 793.4 0 0 0 0-470.44v-4.68c75.33-8.15 152.53-11.92 228.64-18.18 16.16-1.33 39.45-2.8 54.4-5.11 2.26-.35 5.28-.22 5.82-1.66C191.57-496.33 96.1-486.34 0-479.02v-24.96c5.55 0 63.99-1.28 64.02-2.73-21.13-1.57-42.62-1.15-64.02-1.17v-19.5c17.13-1.3 34-3.51 51.25-4.58 22.2-1.37 48.3-2.12 70.62-2.47 48.12-.75 97.23 1.87 144.52-2.7-.02-.77-30.21-1.9-33.68-1.98-53.36-1.16-126.63.12-179.94 2.38-17.7.75-35.31 2.5-52.77 3.89V-550h32.86c1.8 1.3 4.7 1.47 7.75 1.58 23.03.82 47.87.4 71.03-.02 3.34-.06 6.95.8 5.98-1.56h297.5l-137.35 17.85c-2.81.9-.96 4.17 3.18 3.98L435.88-550h62.27c-126.74 21.15-261.54 32.37-397.03 33.5-4.59.04-8.84.87-13.74.87-17.81.01-36.27-1.9-52.77-4.73-2.93 4.59 6.38 4.89 14.66 6.25 54.78 8.98 158.85 3.61 217.68-.14 93.04-5.94 188.48-17.23 272.71-35.75h486.04c-46.65 6.55-95.58 8.57-144.4 7.79-82.56-1.31-189.58-12.2-268.15 0-2.04.31-28.1 4.37-23.32 6.25l90.82-3.89c84.24-2.44 170.64 6.77 254.33 4.7 42.1-1.03 88.26-6.98 128.76-12.13 4.4-.55 11.45-.86 13.86-2.72h257.72l-161.35 10.3-2.13.62c-2.7 1.54 17.5 2.24 20.79 2.33 63.17 1.79 139.58-4.94 201.23-11.46 3.05-.32 6.48.42 5.45-1.79h181.62l-2.76.72c-129 7.83-257.22 17.32-387.3 21.1-109.49 3.19-219.32.97-328.28 7.18-4.44.74-5.13 2.56-4.67 4.52l101.12-3.92c129.9-.58 259.83-3.33 389.23-7.77 104.23-3.59 207.49-12.86 311.29-15.63 22.77-.6 45.73.32 68.39-1.53v25.74c-58.48 8.15-123.8 10.56-178.19 23.77-6.92 1.68-24.8 5.56-24.12 9.32 1.46 8.12 23.44-1.05 31.31-2.96 54.2-13.15 113.79-18.82 171-28.57v33.53c-7.58-1.48-14.94-3.78-22.83-4.92-7.73-1.1-29.2-2.93-36.86-2.89-8.04.05-25.56 3.49-15.65 7.86 9.25 4.07 38.45 1.14 52.07 1.48 7.47.19 15.73 1.26 23.28 1.6v18.71c-26.81-4.82-55.9-9.13-84.36-11.48-103.4-8.56-221.33-.28-316.9 18.9-3.85.78-11.4 2.06-14.36 2.9-7.19 2-3.27 3.43 4.39 2.75 18.61-1.64 42.47-6.36 61.83-8.78 114.69-14.26 234.76-21.72 349.39-2.73v8.58c-21.58-.62-43.53-3.8-64.89-4.67-4.6-.18-10.88-.96-9.49 1.94.79 1.65 66.11 4.92 74.38 5.07v14.04c-21.2-.2-42.08-2.37-63.15-3.12-93.99-3.3-233.33-6.75-316.18 14.96-8.09 2.13-18.46 4.67-23.65 8.05 35.42-9.47 74.21-15.67 115.24-18.22 36.23-2.26 70.84-1.58 107.01-.9a6040.75 6040.75 0 0 1 180.73 6.25v38.21a869.2 869.2 0 0 1-44.36 3.79c-105.48 6.8-204.99 2.55-309.29 4.82-8.75.19-32.34-1.8-33.33 2.81-1.3 6.1 21.6 4.3 31.51 4.17 88.31-1.22 178.23.72 266.17-3.99 30.04-1.6 59.55-4.65 89.3-6.92v21.83c-82.14 7.55-160.36 21.23-241.79 30.2-71.65 7.88-147.55 16.03-219.7 22.6-54.88 4.99-114.24 7.18-167.86 13.21-6.46.73-10.02 1.33-5.5 4.62 26.38-1.1 53.54-3.25 79.95-5.37 101.84-8.2 208.31-18.63 309.31-28.99 83.73-8.58 162.38-21.97 245.59-30.81v19.5c-3.49-.2-6.71.2-10.07.51-139.36 13.51-276.49 33.49-416.83 45.25-65.53 5.5-132.31 8.67-198.46 11.9-6.86.34-8.77 2.19-1.59 3.19 33.4-.45 65.84-4.36 98.76-6.17 25.16-1.38 50.71-1.3 75.87-2.44 55.26-2.53 108.04-8.57 161.76-14.41 97.31-10.6 193.34-23.33 290.57-33.93v5.46c-30.81 1.21-58.99 6.75-85.92 13.13-3.82.9-13.46 4.37-15.62 4.65-5.62.73-16.53-1.1-11.08 4.48 5.45 5.58 8.86-2.53 9.96-2.8 2.14-.54 9.93-.9 13.64-1.5 29.57-4.8 58.2-10.96 89.02-14.06v15.6c-11.63.02-94.85 2.07-96.88 4.3-1.15 1.25-.87 1.87 2.56 1.94 32.09.75 62.68-1.53 94.32-3.13v19.5c-7.06.7-14.27 1.43-21.54 1.6-45.29 1.1-88.73-3.23-134.98-1.59-60.41 2.16-123.03 8.9-183.6 12.36-100.81 5.76-222.1 8.78-322.73 2.24-72.35-4.7-136.44-24.21-210.65-21.23-.1 1.5 18.15 1.07 21.41 1.27 48.12 2.94 87.72 13.17 132.61 19.76 104.04 15.29 279.15 10.43 387.96 3.41 54.84-3.53 111.58-10.13 166.36-12.34 54.99-2.22 111.23 1.85 165.16-3.91v5.46c-10.11.26-21.62 1.86-31.1 3.52-7.29 1.28-18.61 3.04-22.53 6.22-.09 2.18 49.51-3.53 53.64-5.07v28.08l-111.28 2.3a2.38 2.38 0 0 0 0 4.75c37.29.47 74.36-1.14 111.28-3.15v18.72c-61.96-1.41-124.25-3.23-185.69-7.13-27.06-1.72-54.23-5.32-81.56-6.12-1.95-.05-16.38-.78-14.7 1.16.61.7 25.77 1.99 30.83 2.49 16.96 1.67 33.26 4.5 50.12 6.25 65.35 6.8 134.06 7.96 201 8.81v16.38c-56.54-1.15-113.74-1.9-169.87 1.79-82.48 5.43-147.38 16.08-233.45 11.21-2.43-.14-5.53-1.43-4.9.64 88.52 12.02 177.61-4.55 265.54-8.95 47.32-2.36 95.11-1.36 142.67-1.57v9.36c-36.71-.48-74 2.95-109.34 7.24-33.32 4.05-77.29 10.46-109.05 16.34-5.19.96-14.65 2.46-16.86 4.88.99 1.03 4.51-.1 6.11-.37a1602.29 1602.29 0 0 1 229.14-22.63v36.66c-32.11-.22-63.78 2.52-95.15 5.07-.01 1.95 3.36 1.64 6.05 1.96 7.2.84 21.61 1.34 29.45 1.53 19.33.49 40.52.15 59.65-.77v22.62c-22.65 1.38-45.56.5-68.39.74-57.28.61-112.05.9-169.42-1.53-26.62-1.13-55.02-3.91-81.33-4.67-12.66-.36-13.37 1.15-1.78 3.15 57.53 9.9 169.27 8.28 231.92 7.01l89.02-3.15v18.73c-16.93-1.17-33.94-.54-51.01-.8-88.61-1.32-177.59-1.89-266.45-.8-352.2 4.33-700.9 32.9-1053.23 35.95-76.76.66-158.4-2.68-233.66-.85-7.16.17-15.25-.14-12.9 3.93 40.07.26 80.2.4 120.29.75 70.99.6 141.58.92 212.6 0C625.02-62.6 804.48-73.9 985.1-80.5c174.96-6.4 352.17-10.59 527.47-11.73 71.83-.47 143.83.15 215.42.8v13.27l-75.17-2.38c-70.53.55-142.79-1.45-212.57 3.27-3.81.25-26.49 1.93-27.07 2.63-1.61 1.88 11.12 1.24 13.05 1.19 43.22-1.05 86.22-3.44 129.74-3.2 26.9.16 54.3 2.04 81.14 2.42 30.23.42 60.66-.38 90.88-.03v2.34c-39.54.03-85.84-1.55-120.63 8.36-3.34.95-3.13 3.23-1.21 3.35 40.27-2.96 80.51-7.45 121.84-6.25v20.27l-77.84 4.3c-.79 1.63 7.54 1.54 10.03 1.71 22.3 1.54 45.22 1.93 67.81 1.79v15.6c-27.38-.11-54.83.13-82.23.03-47.57-.18-93.97-.6-141.75 1.53-71.52 3.18-140.85 12.46-212.78 14.8-6.88.23-13.9-.15-20.79 0-3.57.09-3.14.45-2.55 1.95 1.45 3.7 152.31-7.46 165.41-8.09 71.93-3.4 145.73-2.58 217.64-2.4 25.7.07 51.56.32 77.06-.81v9.35c-23.14-1.78-46.64-3.79-70.07-4.67-38.12-1.43-81.13-1.34-118.79 1.8-5.79.48-16.68 1.09-21.45 2.03-7 1.38-5.38 3.89 1.86 4.03 69.12-5.7 139.46-3 208.45 1.5v11.7c-11.51-.69-25.82-2.19-37.28-1.6-8.1.4-8.21 3.4-1.62 3.92 12.18.96 26.44.77 38.89 1.57v35.09l-96.86-7.01c.44 1.16 3.17 1.5 5.19 1.94 10.15 2.2 29.83 4.91 41.13 6.42 16.46 2.18 33.38 4.29 50.54 4.9v7.01c-77.62 1.13-155.74-2.77-229.29-14.02-17.07 6.36 4.54 8.13 16.55 9.73 67.92 9.04 142.25 11 212.74 8.97v10.14c-54.44 9.1-108.51 13.93-166.89 10.91-36.75-1.9-80.56-9.92-117.16-6.02-25.75 2.75-12.21 6.86 6.47 7.57 40.03 1.52 83.88 4.66 122.8 5.47 55.07 1.13 102.87-5.8 154.79-12.47v7.01l-162.59 14.44c-1.78 3.82 27.77 2.92 33.7 2.7 42.5-1.54 85.47-11.49 128.89-11.68v12.47c-28.08.64-58.23 3.44-82.49 10-2.48.66-8.83 2.37-9.29 3.62-.39 1.07-.76 2.34 2.69 1.99 27.74-6.66 57.78-10.43 89.09-11.7v17.15c-12.16-1.77-9.99-5.45-11.27-10.15-25.06 3.65-51.64 5.08-77.82 6.25-10.45.46-22.06.1-32.89.76-2.6.16-5.33.1-6.01 1.57 24.43.87 50.43 1.5 74.76-.2 12.09-.85 22.52-3.25 34.2-3.7-2.81 5.93 7.97 7.33 19.03 7.03v6.24c-46.08.09-93.15-3.1-138.39 1.96l138.37 1.18v9.35c-61.24 5.22-122.14-2.4-182.69-5.37-32.74-1.6-60.39-1.75-93.21-.87-2.26.06-7.28-.65-6.05 1.16 34.57 2.57 69.71 3.62 104.38 5.98 58.77 4 117.55 12.33 177.57 6.9v10.92c-18.13 1.24-36.43 2.93-54.69 3.8-78.74 3.78-171.5 3.3-248.38-5.58-33.88-3.92-60.99-6.8-95.45-10-5.19-.48-15.12-3.87-11.52 1.94 1.42 2.3 46.15 4.05 53.81 4.72 41.08 3.6 73.93 10.38 118.64 12.8 79.07 4.3 159.56 3.05 237.59-3.8v14.83c-6.59.1-13.28-.17-19.88 0-70.59 1.95-140.37-.35-210.52 5.69-5.85.5-47.13 4.59-48.1 5.62-1.78 1.9.63 2.09 4.29 1.94 75.5-2.97 151.06-5.49 226.66-7.01 15.83-.32 31.73-.46 47.55-.79v10.14c-9.99-1.15-20.23-3.1-30.45-3.82-36.72-2.56-74.54 2.48-110.77 4.48-36.15 2-72.4 3.19-108.43 5.7-46.31 3.25-91.32 9.24-137.18 12.24-72.57 4.75-150.29 4.42-222.04-2.61-6.28-.62-75.21-10-76.09-7.03-1.01 3.38 6.84 2.56 11.76 3.28 35.12 5.11 76.7 11.46 113.67 12.7 49.5 1.66 130.39 1.65 179.93.04 50.69-1.66 115.4-10.88 168.21-14.63 29.01-2.05 58.37-3.23 87.47-5.01 41.4-2.5 81.56-7.75 123.92-4.54v2.34l-38.92-1.56c-21.71.95-41.2 1.13-61.82 4.87-4.72.86-12.43 1.54-13.44 4.08 38.11 1.5 76.15-1.2 114.18-1.94v17.16h-6.92Zm-1461.57-4.68c14.49-.4 30.34-3.16 44.13-5.44 7.85-1.3 17.75-2.73 25.04-4.35 2.47-.54 4.34.18 3.46-1.9-20.02 4.15-48.07 5.16-67.44 8.96-2.78.55-5.82 1.03-5.19 2.73Zm446.26-13.27c26.38 6.55 55.07 8.79 84.74 10.15 4.3-2.09-8.36-3.44-11.34-3.85-23.7-3.3-49.78-2.92-72.52-7.86l-.88 1.56Zm-127.89 1.5c1.48 1.1 18.62.8 22.76 1.07 10.48.7 20.74 2.2 30.74 3.68.95-2.07-1.16-1.34-3.4-1.93-7.61-2.02-22.06-4.36-30.76-4.88-3-.18-18.79-.52-19.46-.2-.18.1-.22 2.03.12 2.28v-.01Zm88.97 2.41v-.78c-1.13.26-1.13.52 0 .78Zm358.89-5.44c-89.47-.43-178.34 1.92-266.93-4.04-27.44-1.85-54.4-4.9-81.83-6.77-54.77-3.72-110.14-5.63-164.33-10.99-13.97 1.56-.6 4.75 5.86 6 39.26 7.66 93.23 6.06 136.01 8.1 50.5 2.4 100.09 8.26 150.72 10.03 65.02 2.28 130.25-.74 195.42-.78l25.09-1.55h-.01Zm206-.86c.78.41 20.26 2.12 23.39 2.31 39.63 2.47 111.62.62 148.86-6.01 1.84-.33 5.98-.64 5.74-1.69-33.31 3.72-66.63 5.68-101.16 4.67-14.18-.41-29.39-2.27-43.49-3.01-5.84-.3-31.43-2.12-33.25.4-.48.65-.75 2.97-.09 3.33Zm-58.95-2.28c1.05.49 28.08-3.1 29.36-3.52 1.8-.6 2.65-2.31 1.75-2.7-2.32-1.05-36.7.89-31.12 6.23l.01-.01Zm-64-.78c26.82-2.93 51.03-7.42 78.91-9.26 1.57-.1 18.36.28 12.74-1.65-11.49-1.48-87.93 5.33-91.4 7.9-.93.69.01 2.1-.25 3Zm302.68-2.34c1.34.21 14.27-.8 10.37-2.33-.69-.26-10.41 1-10.37 2.33ZM640.01 194c1.9.73 43.07 2.83 49.32 3.11 82.55 3.78 195.56 8.07 276.19 2.1 49.75-3.68 98.27-9.5 148.85-13.23 3.11-.23 7.82-.2 6.49-2.12-57.64-3.23-113.86 6.89-170.61 10.02-95.51 5.29-191.2-6.72-286.87-3-5.21.21-16.6.74-20.96 1.47-1.74.3-5.34.53-2.41 1.64v.01Zm-437.62 3.9c13.42 1.09 26.73.07 40.11-1.02 18.4-1.5 39.36-3.95 57.75-5.97 2.94-.32 5.03.77 4.2-1.58-34.13 1.77-67.36 6.66-102.06 6.24v2.33Zm1038.08-6.35c5.03 3.75 88.58 4.56 101.78 4.01 2.75-.94.03-1.42-2.55-1.56-16.95-.9-35.11-.68-51.91-1.56-16.8-.88-31.63-3.08-47.58-3.89.27.9-.67 2.3.26 3Zm-52.33-13.05c.63.28-.09 2.03 1.82 2.66 1.28.42 8.99.84 11.58 1.03 26.93 2.03 57.13 1.92 84.5 3.24 35.66 1.7 71.22 4.8 107.18 5.48 10.04.2 26.97.52 36.42-.03 2.38-.14 5.45-.6 2.58-1.56a4039.32 4039.32 0 0 1-88.84-4.01c-47.56-2.8-94.68-8-142.94-7.7l26.82-1.54c82.07-1.39 162.29 8.54 243.8 10.16 37.85.76 73.83-1.23 110.7-1.62 41.82-.45 84.11 1.36 125.48-1.53-.11-1.35 1.16-1.64-2.18-1.39-42.78 3.35-86.57-.74-130.22-.2-62.17.77-113.69 1.3-176.12-2.42-55.62-3.3-107.95-6.52-164.48-7.72-11.01-.24-58.4.83-63.15 5.9-3.91 4.16 14.46.15 17.05 1.25Zm-693.41 2.26c-2.53-1.1-60.57-5.49-68.8-6.03-9.62-.63-21.14-1.42-30.68-1.77-5.11-.2-25.3-.93-27.8-.08-3.82 1.32-3.57 3.66 1.87 3.96 41.34.75 82.52 2.1 123.23 5.28 3.48.28 3.05-1 2.17-1.37Zm660.74-3.92c31.29-4.72 62.84-10.08 96-11.69 37.85-1.83 73.35 1.97 110.7 3.1 2.36.08 10.7.67 11.22-.76-40.11-4.89-83.77-6.58-125.37-5.46-26.46.71-60.24 3.82-82.74 10.27-3.1.89-9.72 2.65-9.81 4.53v.01Zm-72.66-42.88c-39.72 2.9-80.03 5.1-119.36 8.95-91.11 8.92-176.69 28.62-272.48 26.95-44.96-.8-89.25-5.94-133.4-9.27-31.4-2.36-60.76-2.77-91.88-6.93-3.9-.52-22.42-4.23-23.69-4.12-13.04 1.17 15.15 6.42 17.67 6.84 32.97 5.54 70.22 5.62 104.6 8.21 50.44 3.8 97.02 9.35 149.24 9.12 86.22-.37 170.19-16.58 252.67-25.66 27.72-3.05 56.77-4.7 84.14-8.08 10.42-1.29 24.66-2.78 32.49-6Zm-204.09 38.99c28.58-1.16 54.35-5.78 80.18-11.03 31.86-6.46 46.26-12.8 83.3-13.92 11.31-.34-1.67-3.72-8.67-3.75-20.31-.07-75.73 14.8-97.76 18.94-15.74 2.96-32.31 4.57-48.32 7.07-2.83.45-9.91.78-8.73 2.69Zm88.21-3.9c2.92 1.36 24.04-3.78 27.87-5 .93-.3 6.32-.89 3.25-2.01-.95-.35-19.04 3.57-22.86 4.12-2.9.42-12.92.7-8.26 2.89Zm-297.52-3.9c20.07.28 41.45 2.5 61.5 2.37 47.8-.3 110.41-15.03 157.28-21.88 33.32-4.88 68.76-8.3 101.68-13.43 3.25-.5 11.15-.82 9.9-2.93a1206 1206 0 0 0-70.9 6.63c-54.56 6.73-115.58 20.77-168.1 25.59-26.91 2.47-48.62.56-74.74.6-4.65.02-11.06 1.37-16.62.71v2.33Zm368.44-3.12c3.03 1.44 74.82-8.87 85.93-8.47l4-1.66-88.83 6.99c-1.92.22-1.34 3.03-1.1 3.14Zm-38.05 0c1.89.85 5.33-.7 3.44-1.55-1.89-.85-5.33.7-3.44 1.55Zm5.19-1.56c1.89.85 5.33-.7 3.44-1.55-1.89-.85-5.33.7-3.44 1.55Zm55.34-10.14c24.62-.62 48.97-3.03 73.53-3.89 66.41-2.32 131.17 3.9 197.18 5.45 65.54 1.53 131.8-.83 196.92 3.24 13.76.85 27.46 2.2 40.88 3.78.86-2.29-1.21-1.26-4.02-1.66-81.14-11.18-167.57-7.91-251.08-10.83-77.09-2.69-169.17-14.45-242.98.43-3.13.63-11.43 1.54-10.43 3.48Zm-49.3 8.58v-.78c-1.12.26-1.12.52 0 .78ZM866.6 133.96c-101.1 7.73-218.67 18.12-315.97-1.43-8.78-1.76-16.39-4.73-25.47-5.56-10.83 1.3 11.54 8.65 14.69 9.65 76.25 24.22 206.2 13.83 290.8 3.35 10.04-1.24 22.72-2.57 32.15-4.26 2.63-.48 4.67.45 3.79-1.76v.01ZM45.01 144.87c50.56-8.78 101.87-13.34 156.5-11.69 17.54.53 35.8 2.8 53.08 4.15 1.78.14 5.3 1.23 4.87-.25-7.43-1.32-13.95-3.5-21.54-4.72-40.54-6.47-128.72-3.65-169.16 3.34-8.27 1.43-27.14 4.4-23.76 9.17Zm465.26-5.45c-1.11-.5-25.98-4.38-29.76-4.91-17.66-2.46-41.2-5.51-56.75.6-3.65 1.43-9.1 4.98-.94 5.07 5.15.06 20.7-2.88 29.45-3.13 4.88-.14 10.52-.05 15.41.13 12.92.47 28.5 3.55 40.03 3.8 2.92.07 4.28-.77 2.57-1.55Zm-140.07-.03c2.64 1.8 17.5-.44 15.53-3.87-2.33.76-15.02 1.3-15.57 1.56-.17.09-.16 2.16.04 2.3Zm387.43-7c1.84.84 42.4-7.11 48.8-8.01 116.8-16.51 200.52-1.78 312.36 8.56 69.41 6.41 126.93 3.59 196.72 1.77l42.33 3.54c-3.66-2.94-14.07-4.93-20.8-6.22-48.9-9.41-122.1-2.77-177.26-5.1-130.05-5.47-222.53-25.6-358.54-5.67-5.94.87-39.38 6.5-41.93 7.6-1.71.76-2.49 3.17-1.68 3.53Zm-486.03 2.34c1.43.63 34.57 1.94 39.77 2.34-3.92-1.95-12.38-3.2-17.86-4.03-3.42-.51-20.16-3-21.93-2.2.32.88-.54 3.64.02 3.89Zm1084.5-7.8c-5.22 2.01 22.19 6.4 24.17 6.65 16.46 2.05 33.41 1.66 50.19 2.7.84-2.39-1.36-1.24-4.32-1.52-23.78-2.28-45.94-6.64-70.04-7.82Zm-659.02 6.25c-60.19 3.04-112.93-11.54-168.97-18.57-5.92-.07-8.48 4.81-2.85 5.96 54 5.57 109.88 19.64 166.66 13.77 1.92-.2 5.6 0 5.16-1.16Zm1.75-.01c2.42.56 4.6-.5 3.44-.77-2.43-.56-4.62.5-3.44.77Zm612.29-16.37c55.34 3.19 111.05 14.04 166.93 15.59 71.95 1.99 118-19.55 185.05-24.97 2.87-.24 2.97.48 2.59-1.53-54.75.73-103.87 19.12-158.27 20.25-59.92 1.25-125.7-14.43-186.58-11.58-1.56.06-13.99.8-9.73 2.23h.01Zm-434.16 12.47c21.1.19 42.1-.12 63.13-.78 17.35-.54 37.95-1.41 55.17-2.43 1.87-.1 8.09-.3 7.97-1.45l-126.27 2.33v2.33ZM102.1 105.1c14.77-.15 29.3-2 44.03-2.37 40.52-1.04 83.13 2.3 122.37 6.5 64.12 6.84 127.81 20.24 195.1 16.93v-2.33c-66.45-2.85-130.4-12.54-195.1-19.28-50.5-5.26-107.7-10.75-158.14-2.34-2.94.5-9.52.94-8.26 2.9v-.01Zm560.41 14.8c73.56-4.94 145.88-13.2 219.3-18.47 50.32-3.61 88-5.95 139.06-1.54 53.42 4.61 124.22 21.5 177 18.47 2.39-.14 5.14-.46 2.57-1.55-.96-.4-21.35-2.32-25.54-2.92-58.37-8.33-123.53-22.53-184.63-24.38-59.74-1.79-121.1 10.36-179 16-46.3 4.5-98.09 6-142.74 12.84-1.93.3-6.26.44-6.01 1.57v-.01Zm539.66-14.81c56.5.85 112.03-6.56 168.61-4.66 55.81 1.87 107.37 17.1 164.43 14.85 2.65-.1 6.21.13 7.68-1.22 1.72-1.59-3.72-1.16-5.56-1.37-37.5-4.42-74.26-10.03-111.67-14.39-86.8-10.11-135.17-.72-218.76 5.43-1.56.12-5.2.33-4.73 1.36ZM183.58 90.97c47.48 4.1 94.6 9.9 142.74 12.46 165.42 8.77 328.65-10.38 492.73-14.7 4.6-.13 40.66.53 40.65-1.18C692.5 84.6 526.1 100.7 358.86 98.1c-29.19-.46-66.16-1.4-94.88-3.23-10.47-.67-77.7-8.3-80.61-6.94l.2 3.03h.01Zm1324.73-15.5c-1.09-.49-25.69-3.88-29.38-4.3-56.74-6.47-111.28-1.98-166.8 4.36-56.25 6.42-110.96 16.29-169.27 18.82-5.86.78-6.97 5.11-.39 5.32 5.61.17 28.25-2.08 35.54-2.73 101.52-9.01 193.68-32.49 300.96-23.45 9.12.78 18.37 2.56 27.04 3.42 3.32.33 3.21-1.02 2.3-1.43ZM688.44 73.9c32.24.1 64.03-3.84 96.02-4.67 54.38-1.4 115.21 1.6 169.25 4.79 60.45 3.57 120.27 9.5 180.99 12.36.84-2.34-1.26-1.26-4.19-1.58-57.67-6.34-123.68-12.13-182.29-16.9C880 62.37 801.26 56.7 733.07 64c-8.07.87-38.25 4.85-43.54 6.72-2.17.76-.81 2.12-1.1 3.19Zm-105.5-14.8C480.79 77 378.43 57.7 289.46 35.05c-21.32-5.43-67.7-20.8-89.73-21.22-23.07-.44-23.51 9.47-16.66 16.93 37 40.31 202.38 51.49 286.64 50.2 107.14-1.64 202.24-18.37 303.46-31.62 43.34-5.68 88.22-9.22 130.18-16.96l16.86-3.7c-127.95 6.04-244.65 33.6-371.28 42.77-92.8 6.71-292.7 6.17-350.7-34.26-5.3-3.69-20.68-17.15-4.9-18.5 23.93-2.07 86.53 18.8 108.87 24.66 73.66 19.3 158.86 32.1 244.42 22.38 11.73-1.33 27.21-3.15 36.31-6.63Zm983.32 17.15c10.15.46 21.68-.34 32 0 2.59-5.22-16.6-5.61-25.3-6.14-25.19-1.53-50.68-.53-72.41-7.9-2.84.75.51 1.73 1.69 2.35 10.62 5.6 47.85 10.95 64.02 11.69Zm-1408.83-.79c-.44-2.84-12.4-2.96-18.18-3.89-15.73-2.5-38.9-8.4-55.32-7.02-4.54.38-6.04 2.39-3.59 3.95 1.93 1.22 12.45.59 16.94.94 20.37 1.57 39.13 6.08 60.15 6.01v.01Zm1454.65-32.74c-82.89-.45-165.07-8.1-247.91-3-7.97.5-39.15 3.95-43.34 3.58-2.68-.23-11.26-5.19-15-6.39-36.44-11.7-86.48-4.55-127.04-3.56-39.19.95-93.72-3.72-121.1 12.47-14.65 8.65-6.98 17.23 14.75 20.67 96.31 15.3 222.11-15.1 319.34-20.56 72.06-4.04 142.47-1.1 214.28-2.44 2.1-.04 6.43.59 6.02-.77ZM206.3 29.65c-4.52 1.95.07 4.05 4.15 5.15 9.99 2.67 27.98 4.56 40.42 7.5 35.08 8.3 67.76 22.64 110.66 20.68l-36.26-5.87c-30.6-4.82-54.13-16.6-80.8-23.62-7.6-2-30.93-6.97-38.17-3.85ZM728.22 62.2c72.2-3 144.36-8.76 209.34-23.77 98.55-22.75 138.21-40.5 260.26-37.05 43.22 1.22 99.4 12.76 139.65 6.8 10.51-1.55 27.96-6.37 30.73-11.48-10.37 2.13-19.36 4.8-30.76 6.01-42.48 4.54-94.49-7.91-139.62-9.12-127.46-3.42-165.5 18.53-267.18 41.73-61.41 14-133.92 22.02-202.42 24.55v2.33Zm220.54-12.47c-11.95.55-27.35 0-39.78 0-1.08 0-2.67 1.31-2.66 1.96 0 4.43 36.43 7.53 44.07 7.43 34.82-.46 39.44-12.52 58.01-22.27a200.02 200.02 0 0 1 18.24-8.15c3.17-1.2 12.77-3.19 13.86-3.9 6.1-3.9-7.9-1.75-11.27-1.17-33.2 5.67-38.7 24.2-80.46 26.11Zm-364.09 9.35c2.43.56 4.62-.49 3.45-.76-2.43-.57-4.62.49-3.45.76Zm-186.8-13.25c-.86.37-.14 2.86 2.95 2.95 39.25 3.15 80.16 11.27 120.7 9.51 3.56-.15 15.75-1.4 6.94-2.32-21.24-2.23-44.99-4.15-66.56-5.88-8.01-.64-61.69-5.27-64.03-4.27v.01Zm614.08 10.13c.33.1 4.9.08 5.09 0 .66-.25 3.7-5.76 5.45-7.3 35.08-31.07 142.52-27.84 208.19-25.43 54.9 2 126.34 12.66 179.03 5.83 2.33-.3 8.3-.7 8.65-1.93a574.03 574.03 0 0 1-81.3-1.17c-22.41-1.9-44.5-5.57-67.02-7.22-65.74-4.84-210.41-7.16-249.83 22.66-2.87 2.17-13.51 13.01-8.26 14.57v-.01Zm-378.84-4.67c3.17 1.35 17.07-1.74 20.79-2.74 2.22-.6 4.36.14 3.4-1.94-2.6.8-31.56 1.54-24.2 4.68ZM108.4 34.64c-1.77.87-18.5 6.88-8.7 8.02 2.03.23 6.86-.72 10.1-.76 8.05-.1 17.9-.23 25.8.13 19.21.88 37.18 5.59 56.41 6.13l-41.5-7.4c-12.5-1.38-25-3.2-38.05-2.73 11.13-5.82 25.1-12.46 43.23-12.47 2.09 6.35-11.22 4.53-15.6 5.83-8.73 2.56 10.3 6.3 20.04 2.02 3.68-1.62 4.3-10.94-.34-11.64-18.64-2.78-40.31 7.45-51.4 12.88Zm934.62-39.5h-26.81c-32.78 0-101.77 17.05-139.56 21.3C757.9 29.81 637.5 39.98 514.54 38.84c-35.07-.31-75.99-.55-110.61-1.6-41.29-1.23-77.42-10.9-118.51-10.9v2.33c36.41.63 69.84 9.74 105.1 12.28 28.9 2.09 58.73.92 87.75 1.77 28.75.84 57.55 3.5 86.42 3.92C650.51 47.9 771.13 36.2 854.85 26.1c64.79-7.8 120.53-26.49 188.19-28.63l-.01-2.33Zm316.54 22.6c11.53-.38 22.19-2.66 33.75-3.1 41.13-1.56 80.64 3.57 121.06 5.44 13.93.65 29.79.16 43.21.8 51.37 2.42 101.84 7.88 153.1 10.13-.43-1.1.86-4.03-.21-4.6-2.09-1.08-36.86-4.78-42.72-5.3-50.64-4.39-100.71-4.46-151.64-6.48-47.53-1.9-105.29-13.2-149.49-.32-2.82.82-7.57 1.57-7.06 3.44ZM340.79 22.44c23.8-1.5 48.02-5.3 72-6.13 48.5-1.68 95.36 5.04 143.36 6.13 54.89 1.23 110.56-1.64 165.18 1.17.25-1.55-3.24-1.7-5.53-2.19-35.7-7.45-117.42-4.83-159.66-6-54.23-1.5-167.71-10.89-211.43 4.51-2.1.75-4.7.9-3.92 2.52v-.01Zm-72.65-.78c1.86.92 45.7-7.12 52.29-8C397.99 3.18 481.01 2.43 561.3 5.27c83.47 2.95 185.09 14.92 265.89 6.79 31.64-3.19 57.34-7.25 90.45-9.14 2.36-.13 5.5-.55 2.58-1.55-40.85-.94-80.1 5.14-120.23 7-63.1 2.93-130.75-3.73-193.71-6.22-99.94-3.96-207.06-5.2-302.72 10.12-6 .96-31.02 5-34.35 6.18-1.7.6-1.44 3-1.07 3.19ZM820.37-.76c-3.77 1.76-1.4 6.1 3.79 6.06 45.78-9.58 94.56-16.97 145.3-18.73 2.86-1.78.37-2.6-3.48-3.1-28.18-3.65-77.64 3.35-105.03 7.95-5.19.87-39.03 7.08-40.58 7.82Zm-282.4-8c63.1.8 126.17 2.23 189.47 1.53l82.1 3.14c-.24-.89.99-1.74-1.04-2.4-3.66-1.2-27.5-3.67-33.55-4.23-72.35-6.73-146.26-2.6-218.81.4l-18.16 1.55Zm-275.02-.78c117.9-.13 235-7.06 351.76-13.35 323.21-17.44 645.79-40 972.33-42.8l2.56-1.56c-7.37.43-14.3-.65-21.53-.82-55.44-1.28-112.56.66-167.79 1.63-299.84 5.3-596.87 26.6-894.33 42.86-71.61 3.91-143.37 6.93-214.7 11.6-8.43.56-17.63.46-25.75.89-2.58.14-5.26.63-2.55 1.56v-.01Zm721.26-3.12c52.28-.12 104.4-1.76 156.62-1.6 61.19.2 102.96.45 161.62-9.73 9.24-1.6 21.85-4 29.43-6.6-35.74 2.92-69.83 10.55-106.39 11.68-71.3 2.21-155.67-8.1-223.6 1.35-2.64.36-17.08 2.24-17.67 2.57-.38.21.22 1.69-.01 2.33Zm-176.4-.01c26.46-1.84 51.44-6.53 77.46-9.12 84.45-8.41 170.07-.27 256.93-5.82 64.02-4.1 165.91-11.38 225.18-20.92 6.83-1.1 16.46-2.48 21.59-4.68-46.32 6.35-94.95 6.98-142.45 10.25-55.98 3.85-113.07 10.33-169.69 11.62-64.68 1.47-132.05-6.76-193.82 4.63l-75.2 14.05v-.01Zm58.78-18.7c-24.55 2.75-51.66 5.51-76.98 6.23-16.25.46-43.14-1.4-57.19 1.5-7.07 1.47-4.6 2.35.98 3.58 24.62 5.44 91.67-2.36 117.09-7.27l16.1-4.04Zm759.33-21.84c-19.29.19-38.71-.26-58.01-.04-46.68.54-152.75 1.21-189.17 13.75-3 1.03-11.41 4.6-12.67 5.98-1.61 1.76-3.1 6.21 2.74 5.95 1.89-.09 26.45-7.34 32.82-8.63 49.73-10 105.48-8.77 157.94-13.8l66.35-3.2Zm-991.08 7.79 55.28-7.43c65.8-6.37 132.36-.2 198.12 1.97 47.3 1.56 103.56 2.03 139.22-14.03-45.47 7.78-90.65 9.74-139.22 8.56-76.32-1.84-178.1-17.94-245.34 6.39-1.5.54-10.33 3.62-8.07 4.54Zm755.86-7.8c2.43.56 4.62-.5 3.45-.77-2.43-.56-4.62.5-3.45.77ZM991.14-68.03l9.06-.2a1420.88 1420.88 0 0 1 263.52-6.87c2.98.6 3.22-1.14 2.43-1.5-2.9-1.31-63.14-5.12-71.79-5.46-57.37-2.23-129.25.77-184.57 8.02-7.8 1.02-20.85 1.3-18.65 6.01ZM558.73-84.41c29.66-.87 59.37-.39 89.14-.75 139.97-1.67 279.4-10.33 417.97-18.99L1088-107c-38.71-1.26-78.05.08-116.74 1.55-134.3 5.13-269.18 12-402.81 19.59-2.1.11-9.46.34-9.72 1.46Zm-209.3-34.31c-61.33-2.19-88.37-6.33-148.19 5.32-37.85 7.37-100.29 28.24-139.65 25.8-5.18-.32-19.3-4.18-20.03-3.83-5.44 2.62 16.71 5.8 20.32 6.02 39.31 2.42 112.06-21.23 154.37-26.69 66.66-8.6 120.17 1.58 184.28-.36 4.63-.14 37.4-2.55 38.85-3.16 6.47-2.71-15.16-.76-16.37-.74-21.5.28-44.43.5-64.93-1.6 10.71.23 26.09.48 35.92-1.32 2.12-.39 1.91-1.63 3.33-1.78 8.15-.82 25.75-.31 35.77-.89 82.4-4.75 158-16.75 238.02-25.26 135.9-14.45 279.35-20.52 399.43-56.2 3.03-.9 21.35-5.46 17.44-7.34-39.42 8.82-78.35 18.03-119.37 25.33-98.39 17.53-187.25 22.66-288.85 32.76-77.7 7.72-157.7 20.93-236.3 25.25-27.65 1.52-83.92 3.39-108.36-2.42-14.31-3.4 5.75-16.8 11.88-20.81 44.17-28.91 146.01-43.19 220.04-50.52 35.48-3.52 83.4-8.83 117.93-2.96 40.94 6.96 5.94 15.05-14.92 19.77-44.1 9.98-83.35 14.6-132.96 15.7-41.16.91-101.41-3.18-135.62 9.04-7.74 2.77-9.5 4.03-18.11 6.64-3.5 1.05-10.02 7.53-9.39 9.5 1.97 6.16 26.05 1.89 30.78-2.17-4.9.2-23.25 2.54-13.79-1.54 2.54-1.1 31.07-7.51 35.54-8.16 35.65-5.13 93.51-4.55 132.86-7.16 39.97-2.66 105.46-11.93 137.58-22.97 42.87-14.75-5.8-25.31-38.98-26.74-105.03-4.53-303.7 32.46-355.38 75.88-1.47 1.23-1.4 3.4-1.67 3.52-.92.43-21.94-.1-26.54.12-31.79 1.59-70 12.27-97.9 19.03 1.2 1.08 4.66-.02 6.37-.25 44.78-6.14 73.39-15.2 124.28-13.43 16.98.6 26.58 5.98 42.32 8.6v.02ZM244.16-94.64c213.33 2.03 425.8-8.2 636.9-20.3 196.09-11.22 391.13-25.72 586.86-37.98 81.78-5.12 167.83-8.18 248.59-14.26 2.04-.15 8.06-.23 8.01-1.44-75.29 2.6-150.5 6.25-225.5 10.23-407.83 21.61-806.1 51.77-1217.83 59.2-9.36.18-28.74-.88-36.11-.07-2.95.33-2.64 3.62-.91 4.62h-.01Zm-73.75-17.06v-.78c-1.13.26-1.13.52 0 .78Zm3.46-.78v-.78c-1.13.25-1.13.52 0 .78Zm863.97-8.58c-.52 2.35-.08 4.08 5.97 3.93 84.54-.46 169.4 1.1 253.48-1.6.25-1.82.57-1.37-2.56-1.56-5.85-.33-12.88.18-19.04 0-23.26-.68-47.58-1.36-70.87-1.58-55.71-.52-111.34.84-166.99.82h.01Zm-418.59-4.69c196.67 3.22 380.35-32.85 571.91-45.9l73.26-4c-23.94-.18-47.93.5-71.76 1.56-192.74 8.5-378.79 42.15-573.41 46v2.34ZM1280-127.3c36.4 1.1 71.93-3.84 108.03-4.7 40.79-.98 80.61 1.74 121.07 2.4 26.6.44 53.3-.84 79.56-.84 26.26-.01 54.89 2.19 81.44.84 2.59-.13 5.34-.16 6-1.58-30.7-1.63-61.74-1.2-92.53-2.36-38.98-1.48-72.23-4.39-112.51-3.93-62.43.71-123.33 4.13-185.01 8.61-2.58.19-5.34.04-6.05 1.55v.01Zm-521.5-88.9c-8.52-.38-18.15.29-26.81 0-.25 1.86-.57 1.38 2.58 1.56 29.23 1.68 67.93 4 52.35 22.04-16.91 19.6-84.7 26.34-125.5 30.77-57.92 6.3-118.53 9.93-177.1 15.29-20.4 1.86-41.13 5.16-61.59 6.55-23.86 1.61-47.38.7-71.27-.55.54 1.43 3.56 1.3 5.82 1.65 49.13 7.6 109.53-2.51 158.17-6.87C606-153.92 717.1-156.91 796.2-179.7c24.7-7.12 49.14-18.94 41.53-33.24-4.23-7.93-26.88-13.26-43.34-14.78-102.27-9.36-233.78 9.31-329.52 25.75-20.79 3.56-68.54 11.11-84.93 16.3-1.17.37-2.92.69-2.85 1.44 33.69-5.55 66.67-12.65 100.71-18.15 49.25-7.95 100.18-15.2 152.7-16.94 46.18-1.52 131.22-2.21 173.8 3.51 50.2 6.75 6.39 27.31-19.9 33.9 18.87-15.17 21.87-32.13-25.92-34.3ZM25.99-152.25c1.18.71 34.26 2.98 38.93 3.12 32.95.91 71.23-3.1 97.89-12.02.84-.28 6.39-.87 3.26-2-1.01-.38-20.65 3.56-24.62 4.1-31.28 4.15-57.63 1.91-88.64 2.92-2.91.1-30.93 1.38-26.82 3.88Zm1113.91-6.25c61.23-7.12 122.46 4.91 183.99 1.47 59.7-3.33 118.29-17.2 181.34-21.96 1.83-.14 6.88-.2 6.53-1.32-63.12.5-122.29 12.94-184.45 16.25-54.27 2.9-108.92-3.89-161.48 1.28-6.4.63-15.07 1.84-21.18 2.93-1.83.33-5.16.23-4.75 1.35Zm-155.67-6.23c3.54 1.68 52.63-5.98 60.47-7.43 39.98-7.4 74.8-17.94 116.78-24.56 83.64-13.19 250.61-25.42 336.49-18.33 11.11.92 22.12 3 32.82 3.14-19.44-4.09-43.51-6.43-64.88-7.4-101.34-4.62-219.77.44-313.86 18.33-57.01 10.85-106 29.94-167.84 33.9.22.64-.34 2.17.02 2.34Zm-193.73-3.9c45.97.33 103.27-4.6 142.99-15.46 25.64-7 57.6-23.7 25.6-35.21-22.1-7.95-73.8-11.35-102.02-12.49-6.93-.28-42.51-1.38-45.87-.42-12.13 3.48 24.5 2.66 26.85 2.76 24.8 1.03 59.02 4.63 83.26 7.7 23.2 2.94 54.5 7.44 37.68 21.1-26.04 21.13-109.39 24.9-156.41 30.07-3.25.35-10.52.64-12.07 1.95Zm-529.27-.78c1.79.8 6.93-1.54 5.17-2.33-1.8-.8-6.94 1.55-5.17 2.33Zm6.02-3.13 2.58-1.17c.04-.81-4.32.47-2.58 1.17Zm556.12-3.1c18.53-3.14 38.64-5.38 56.5-9.23 21.3-4.59 40.24-10.9 34.77-22.96-3.46-7.6-47.37-17.02-63.28-17.56-5.51-.18-10.62.1-8.9 2.91 35.55 3.62 103.04 16.04 45.8 32.83-18.1 5.3-47.78 6.28-61.32 10.56-3.12.98-4.12 1.68-3.57 3.45Zm-347.67-1.57c52.12-3.25 112.04-.16 155.66-15.58-48.04 6.38-106.38 4.28-151.88 13.82-2.43.5-4.72-.47-3.78 1.76Zm-103.77-7c-1.97.9.74 2.5 3.44.38.22-.68-3.32-.44-3.44-.39Zm1003.19-18.73c-32.26-.28-63.71-.13-95.48 2.57-6.67.57-41.45 4.25-43.81 5.99-2.71 2-.71 4 5 3.88 19.99-.39 53.19-5.8 75.17-7.51 12.34-.97 25.08-2.02 37.52-2.58 6.55-.3 20.96 1.54 21.6-2.34ZM224.91-196.7c1.92.99 50.48-4.93 57.06-5.85 28.48-4 68.48-12.45 89.78-21.92 1.08-.48 5.51-1.8 3.62-2.65-1.3-.58-27.58 7.48-32.24 7.69-30.33 6.49-64.53 7.9-95.19 14.01-4.45.9-29.25 5.51-23.03 8.71Zm1179.63-2.34c6.98 1.2 39.63.59 43.06-1.63 5.41-3.5-13.64-7.2-20.99-6.8-4.4.23-17.2 2.99-18.12 5.03-.27.6 1.47 1.74 1.25 1.83-1.01.41-7.02-.96-5.21 1.56h.01ZM1536-209.98c2.43.56 4.61-.49 3.44-.76-2.43-.56-4.61.49-3.44.76Zm-2.6-.77v-.78c-1.13.26-1.13.52 0 .78Zm35.46-5.46c-5.55.4-9.77-1.08-14.37-1.72-9.19-1.28-8.28 2.53 1.5 3.23 1.97.14 18.22.45 12.87-1.5Zm-1133.81-1.55v-.79c-1.13.26-1.13.53 0 .79Zm2.6-.8c29.17-3 55.7-9.7 83.86-14.04 125.08-19.23 285.67-5.6 415.16 0 75.73 3.29 154.33 7.62 229.97 9.4 56.09 1.32 105.71-.84 160.85-1.62 41.37-.59 83.11.84 124.35.52 1.67-.02 7.31-.13 6.33-1.64-1.42-2.18-50.74-5.65-57.98-5.86-82.07-2.34-164.86 2.34-249.04-.78-106.01-3.95-209.46-10.3-316.47-12.51-146.46-3.03-257.96-6.11-391.82 24.6-2 .47-4.78.74-5.21 1.94Zm624.41-34.3c6.65 2.68 17.58 5.04 25.97 6.61 95.73 18.01 204.89 2.22 302.3-4.83 79.56-5.76 161.14-9.5 241.58-11.17 12.03-.25 26.7.69 38.16.03 2.4-.14 5.01-.42 2.55-1.55-3.63-1.68-54.64-2.48-63.2-2.38-57.14.6-124.25 3.11-181.53 5.49-96.55 4.02-245.09 24.18-334.7 12.86-10.82-1.37-20.34-3.82-31.14-5.06h.01Zm487.77 7.03c6.86 4.1 18.68 4.98 29.39 5.44 1.25-6.84-19.44-4.24-29.39-5.44ZM271.6-255.21c62.69-11.62 120.56-27.83 183.36-39.36 111.52-20.49 224.7-29.49 344.98-30.85 47.14-.54 167.1 3.8 203.78-4.04 2.3-.5 9.92-2.09 6.44-3.72-1.26-.59-28.79 3.67-35.39 3.93-23.91.92-47.33-1.35-70.9-1.63-135.13-1.56-261.33 1.61-390.04 20.74-83.24 12.37-169.1 28.49-240.49 51.45l-1.74 3.5v-.02Zm276.76-35.87c1.98.98 48.18-8.04 55.34-8.96 58.8-7.56 124.12-2.11 184.13-1.13 14.35.23 38.5.74 52-.04 2.52-.15 5.36-.59 2.55-1.56-12.32.03-24.92-.23-37.17-.79-65.71-2.97-191.32-13.9-245.59 5.48-2.44.88-14.08 5.62-11.27 7Zm304.4-20.29c.3.17 6.6.5 9.12.97 88.75 16.77 160.11 12.61 252.09 3.34 102.49-10.33 201.21-25.58 305.77-32.93 17.72-1.25 35.41-1.61 53.16-2.56 3.17-.17 2.78.23 2.55-1.56-178.91-3.85-347.14 42.3-525.04 38.25-14.04-.32-33.94-1.3-47.54-2.74-8.14-.86-45.42-8.36-50.02-5.04-.3.21-.24 2.19-.08 2.27ZM301-317.59c58.71 2.28 113.08-8.22 169.48-12.89 34.18-2.82 73.4-4.54 108.13-3.48 29.87.9 61.17 5.54 91.42 5.18 1.54-.02 5.94-.42 4.58-1.67-1-.92-22.13-5.54-25.96-6.24-44.75-8.21-98.15-8.07-144.95-3.77-67.68 6.22-132.15 20.72-202.7 20.53v2.34Zm752.43-3.9c29.05-1.03 58.17-3.83 86.8-6.47 160.51-14.84 317.93-39.07 483.05-42.69 12.56-.27 27.9.73 39.88.03 2.52-.14 5.36-.59 2.55-1.56a2880.17 2880.17 0 0 0-215.04 5.59c-133.83 8.57-262.81 27.41-392.42 43.78-1.78.23-5.23.2-4.82 1.31Zm-622.7-41.33c-37.25 2.27-86-15.1-119.38-2.76-20.68 7.65-23.88 31.48 5.52 34.21 1.84.18 6.83.72 6.59-.66-.06-.37-11.17-2.75-13.83-4.1-13.94-7.17-6.37-24.27 12.63-28.43 27.01-5.92 79.02 10.33 106.26 3.47 1.96-.5 2.95.04 2.2-1.74Zm110.7-15.6c-58.88 7.65-98.08 25.35-163.52 23.43-14.28-.43-38.7-4.25-51.01-2.78-13.22 1.57-31.09 14.92-13 16.04 19.73 1.21 31.59-5.47 6.15-5.88 15.13-7.67 38.8.44 57.87 1.2 82.47 3.25 139.48-28.9 216.75-32.58 31.87-1.51 69.95 1.42 103.37.6 10.24-.25 35.66-1.24 44.58-2.52 1.78-.26 3.32-.88 2.91-1.79-1.72-.97-3.2-1.7-6.09-1.94-35.56-2.97-84.16 1.02-120.96 1.58-24.18.36-48.6.43-72.65.78-21.62.3-43.33.14-64.92.75-2.81.96.03 1.4 2.55 1.56 8.57.49 18.88-.4 27.7 0l30.27 1.54Zm-377.07 34.31H109c-.82 2.37 1.3 1.25 4.21 1.58 16.66 1.9 31.88-.27 48.58-.02l2.56-1.56Zm740.32-3.9c55.94-6.5 113.58-3.65 170.43-4.64 79.67-1.4 155.18-13.74 235.24-13.32l43.16 1.6c4.21-3.04-11.37-4.9-16.8-5.69-74.07-10.8-152.19 5.95-225.59 10.25-57.81 3.39-150.77.46-202.11 9.48-2.68.47-5 .65-4.34 2.33v-.01Zm-390.91-9.36c82.25-5.01 158.69 11.7 241.26 9.36 78.13-2.23 150.04-23 227.15-28.6 61.43-4.57 123.93-5.84 186.28-5.7l6.03-.78c-79.84-.2-158.77-5.27-237.32 3.34-81.8 8.98-130.94 25.2-221.98 23.2-53.51-1.18-123.87-13.7-173.81-8.25-2.55.29-32.95 5.33-27.61 7.43Zm176.43-13.25c40 1.96 78.77-1.35 117.24-6.01 67.02-8.14 134.1-21.48 202.42-27.28 11.43-.96 82.37-4.2 85.07-5.7 5.58-3.12-15.37-3.8-19.82-3.93-20.42-.61-41.24 1.47-61.46 2.36-.41-1.12 3.04-1.08 4.82-1.31 28.35-3.6 58.44-5.77 87.72-7.25 30.87-1.56 62.39-1.56 93.21-3.21 2.71-.15 9.45-.28 7.95-2.25-23.41.05-46.64-1.2-70.12-.82-46.88.74-99.34 4.69-143.51 11.72-5.2.83-40.89 7.05-42.11 7.91-.56.4-.87 2.28.65 2.25 17.75-1.56 36.36-5.61 54.04-6.84 1.85-.12 6-.83 5.6.58-76.4 7.34-148.67 23.93-224.83 31.6-28.98 2.92-57.92 3.78-86.83 6.1-3.23.25-11.57-.07-10.04 2.08Zm-456.64-1.56c3.1 1.42 31.06-5.42 35.45-7.02l11.23-5.45-18.4 4.56c-7.22 1.76-19.15 2.71-25.46 4.9-2.1.73-4.59 2.2-2.83 3.01Zm231.77-23.4c-52.6-9.37-115.84-5.35-153.1 14.8-1.76.95-9.73 5.13-7.74 6.25 40.34-14.34 80.07-24.94 133.82-22.52 8.7.4 16.74 2.11 24.72 2.9 3.34.34 2.3-.21 2.3-1.43Zm640.22 3.01c2.19 1.45 67.04 7.86 75.51 8.46 74.42 5.28 107.64-9.38 173.33-17.31 77.43-9.36 147.17 4.8 223.98 4.9 34.47.06 69.47-2.5 103.8-3.73 11.97-.43 24.25-.15 36.34-.8 2.58-.13 5.29-.6 2.55-1.55-60.03-2.03-120.63.82-180.52-2.44-74.33-4.06-125.39-14.39-202.09-3.58-37.02 5.22-74.28 16.55-112.86 17.75-39.97 1.23-80.35-5.04-120.29-4.71.31.88-.68 2.39.25 3v.01Zm-328.89.9c-4.38.39-27.44-1.32-25.92 1.94.72 1.55 29.8 2.91 25.92-1.94Zm-247.33 1.55c22.56-1.72 45.37-4.09 68.34-4.67 49.14-1.25 106.28 3.74 153.08-2.73 2.8-.4 14.86-2.22 16.25-2.67 1.49-.49 1.48-2.19 1.02-2.4-1.2-.57-28.94 2.68-33.96 3-49.57 3.23-95.06-.6-143.3.9-19.9.61-45.57 3.13-61.43 8.56Zm359.77-11.69c-19.52 1.19-38.61 3.43-58.2 4.56-9.02.52-32.78.38-38.23 1.48-6.5 1.3-4.63 3 2.08 3.34 21.8 1.12 67.28-4.16 88.5-7.74 2.2-.37 5.3-.17 5.85-1.64Zm-776.62-.79c-.52 1.58 1.34 2.03 4.38 2.31 9.54.88 80.47 4.3 83.82 3.15l-2.54-1.56-85.65-3.9Zm1024.11-10.86c-2.56.85-1.34 3.91 1.7 4.97 3.4 1.19 23.63 4.27 28.91 4.9 9.85 1.17 22.58 2.27 32.66 2.26 2.83 0 20.56-.94 21.34-1.27 5.42-2.35-8.22-.69-9.42-.74a341.84 341.84 0 0 1-22.08-1.82c-8.06-.97-49.23-9.57-53.11-8.3Zm-638.39 9.3c16.05-1.11 29.18-5.61 44.88-7.45 4.62-.54 13.58.63 12.18-1.9-14.17.48-28.72.79-41.98 3.3-3.1.58-18.87 4.24-15.08 6.05Zm717.8-3.12c62.27-1.98 108.5-23.73 163.16-34.44 53.65-10.52 123.73-13.05 181.99-12.38 4.13.05 14.31 2.27 12.89-.74-59.62-2.6-124.2-1.68-181.6 6.63-55.64 8.06-98.8 27.33-153.57 35.27-8.57 1.24-25.5.69-22.87 5.67Zm-1044.72-4.68c4.32 1.9 85.85 1.84 97.8 1.6 86.88-1.77 149.8-14.96 226.26-31.34 1.24-.27 11.23-1.8 8.03-3-71.31 11.97-136.32 25.93-213.63 28.84-36.15 1.37-73.1-.32-108.94 1.57-1.52.08-13.24.7-9.52 2.33Zm1143.33-.78c4.07.3 4.92-2.12 8.61-2.73-1.62-.17-11.49 1.38-8.61 2.73Zm-394.38-6.23c-12.87.2-25.93.78-38.64 1.68-3.3.24-23.62 1.66-23.59 2.6.06 2.22 21.08.46 24.58.19 10.16-.8 22.1-2.25 32.49-3.3 1.9-.2 5.59 0 5.15-1.16Zm98.58-18.7c-88.58 1.89-178.45 5.64-267.3 3.92-67.67-1.32-201.32-15.47-256.82 4.23-3.8 1.35-17.24 7.3-16.87 9.26.2 1.04 2.5 2.87 5.35 2.76 2.4-.1 22.91-5.75 28.24-6.81 68.06-13.52 139.74-5.82 210.8-4.02 44.58 1.13 92.02.58 136.6-.78 50.22-1.53 100.19-4.95 150.26-7.12l9.75-1.44h-.01Zm669.39 17.93c-1.66-.78-23.26-3.38-27.27-3.7-17-1.35-71.6-3.62-85.99-.98-6.8 1.25-5 3.83.32 4.52 2.23.29 17.42 1 20.42 1 13.71.03 28.75-1.8 43.32-1.65 13.22.14 35.01 3.07 46.64 2.38 2.38-.14 5.01-.41 2.56-1.55v-.02ZM1251-423.77c4.43-.2 22-3.9 20.34-6.5-1.51-2.37-22.54 1.75-25.12 2.69-5.1 1.86-.41 4.03 4.79 3.8h-.01Zm-967.3-1.44h24.22v-1.56H283.7v1.56Zm-259.44-6.25c27.95-.94 55.84-1.42 83.6-3.25a1115.8 1115.8 0 0 0 140.68-18.45l133.75-28.98c-3-.21-5.4.18-8.16.6-44.56 6.9-90.1 17.36-134.97 24.93-59.24 10-120.14 18.86-183.16 22.7-9.65.59-20.19.38-29.19.89-2.54.14-5.34.6-2.55 1.56Zm1217.69-.77c2.33 1.02 13.02-.82 16.14-1.69 2.26-.63 17.09-6.79 14.98-7.66-3.25-1.34-9.81 2.78-12.21 3.46-3.94 1.1-23.82 3.73-18.91 5.89Zm-978.6-5.3c-3.54 1.17-2.78 5.17 3.91 4.59 10.38-1.46 65.4-1.02 70.05-3.2 2.46-1.15-1.6-1.72-3.37-1.94a249.58 249.58 0 0 0-18.17-1.2c-7.13-.19-48.64.52-52.42 1.76Zm902.48-9.51c-20.49.49-42.79 2.4-62.63 4.9-5.55.7-35.48 4.5-34.22 7.18.46.95 3.92 1.18 5.96 1.21 15.3.2 71.53-8.25 87.11-11.52 2.43-.5 4.72.47 3.78-1.77ZM406.5-437.7c4.92-1.9-19.34-6.2-21.12-6.46-7.98-1.2-42.98-5.6-49-5.28-11.34.62-4.67 4.7 2.94 5.77l67.18 5.97Zm299.45-5.55c1.52.82 30.56 3.1 35.18 3.24 31.31.97 71.81-.29 103.93-.78 179.65-2.77 360.42-14.4 535.59-32.25 30.54-3.11 63.26-6.8 93.06-11.07 3.19-.46 11.65-.69 10.38-2.72-93.39 7.28-185.49 16.83-279.55 22.5-141.69 8.55-296.43 15.6-439.14 18.03-8.54.15-57.62-.96-59.66.01-.23.11-.27 2.77.21 3.03v.01ZM582.93-479.8c-57.32-1.56-127.44-11.96-176.44 6.62-7.99 3.02-25.35 11.37-22.13 16.21 2.95 4.44 35.8 10.15 45.68 10.61 25.6 1.2 12.47-4 16.5-6.05.8-.4 6.78-.02 8.18-2.21 3.26-5.1-20.29-6.55-23.87-4.86-.38.18-.5 3.5-.15 4.13.45.78 3.3.43 3.46.51 1.62.84.43 1.62-2.54 1.55-5.99-.13-32.48-4.3-33.51-6.73-1.66-3.9 29.63-14.54 37.74-16.3 47.38-10.34 95.1-2.24 142.73-1.9 3.57.03 5.07.44 4.36-1.58h-.01Zm1056.85 30.42c-1.29-.49-25.74-2.12-24.22 1.15.98 2.09 17.86 1.16 21.81.5 1.73-.3 5.35-.54 2.41-1.65Zm-1327.96-8.4c-3.67 1.39-3.32 4.53 3.8 4.52 7.11-.02 38.06-2.72 45.03-3.94 17.43-3.07-17-3.3-22.44-3.1-3.42.13-25.13 2.04-26.4 2.52h.01Zm983.73-28.26c-77.61-3.67-155.14 3.5-232.7 2.37-112.01-1.63-255.13-18.24-361.74 2.17-18.58 3.56-28.1 8.44-42.93 14.18-1.13 2.35-2.91 7.09 2 8.44 4.22 1.15 26.82 3.51 32.8 3.93 64.84 4.58 129.2-5.05 190.92-12.39.05-1.32.97-1.7-2.44-1.5-5.8.33-11.49.52-17.24.82-63.46 3.43-132.78 19.51-194.77 4.97 12.41-9.86 37.48-13.15 60.82-15.46 111.17-11 228.97 4.04 341.37 1.85 38.12-.75 76.11-4.14 114.1-5.49 35.6-1.26 71.63-1.05 107.26-2.35l2.55-1.56v.02ZM659.04-456.4c-2.11-1.05-24.1-2.96-28.56-3.12-42.08-1.55-70.89-.4-113.64-5.7-7.42-.92-34.77-6.05-38.66-6-7.4.11-6.94 5.97.94 6.63 48.79 5 97.57 9.75 147.86 10.54 7.02.1 15.72.21 22.63 0 1.34-.04 13.14-.52 9.43-2.37v.02Zm265.2-2.46c2.37-.1 9.16-2.28 12.8-2.84 40.65-6.14 72.93.28 112.13-1.7 8.49-.43 8.13-2.2-.06-3.17-18.76-2.19-58.41-3.66-77.84-3.1-8.3.24-44.03 3.04-49.33 5.05-3.22 1.21-2.83 5.97 2.3 5.75v.01ZM584.67-472c-3.4 1.56 2.47 3.86 6.53 4.46 34.36 5.09 67.58-9.75 95-16.79 43.24-11.1 93.8-16.21 143.23-18.09 55.57-2.1 126.57 1.86 178.14-7.03 2.01-.34 6.28-.38 6.04-1.55-9.58-.73-19.52.68-28.46.8-88.75 1.26-202.8-3.75-282.9 15.17-27.65 6.52-65.9 24.7-95.96 24.63-4.31 0-19.9-2.4-21.62-1.61v.01Zm340.18-1.8c2.09-1.1 3.26-3.37-.34-3.67-.78-.06-14.39 2.23-14.65 2.75-1.22 2.34 9.86 3.58 14.99.91Zm-286.57-8.35c1.03-.65-.88-2-2.9-2.2l-75.96-4.77c-5.21.06-6.17 3.66-1.21 4.48 6.42 1.07 23.47 2.01 31 2.4 7.16.36 46.44 1.73 49.07.09Zm-231.76.78c23.76-5.24 46-9.29 72.32-11.45 23.8-1.95 53.12-3.4 77.3-4.13 35.88-1.09 108.5 1.81 136.97-6.88 2.22-.68 4.72-.88 3.97-2.49-12.5.74-24.92 2.29-37.42 3-68.94 3.96-146.52-2.52-213.74 7.36-14.5 2.13-36.6 7.17-39.4 14.59Zm853.02-10.26c.66.2 12.17.87 14.34.94 23.79.73 47.5-2.04 70.99-3.14 86.6-4.05 165.28-8.59 245.36-25.07l30.5-7.68c-75.96 14.77-160.51 23.57-243.02 27.28-13.58.6-31.61 1.48-44.89 1.6-11.36.1-70.62-2.34-75.11.84-1.06.76.46 4.84 1.83 5.24v-.01Zm-600.5-2.99h-44.1c-1.15 0-6.65 1.37-4.33 2.33 2.58 1.07 26.65.9 31.6.6 3.7-.22 14.43-1.43 16.84-2.93Zm529.28-7.8h-61.4c-1.34 0-20.73 2.81-21.31 3.25-1.19.9-1.76 3.03 2.28 3.01 8.68-.03 23.25-2.33 33.15-3.02 11.88-.82 23.96-1.05 35.82-1.78 2.62-.17 10.49-.38 11.46-1.47Zm-181.62 6.24c37.82 1.4 71.16-8.34 105.89-13.49 38.48-5.68 94.59-13.3 113.16 8.87a587.19 587.19 0 0 1 72.7-9.3c35.43-2.3 71.44-2.7 106.93-4.03 26.56-1 53.29-1.46 75.44-8.9 1.93-.64 4.31.02 3.27-2-33.4 5.88-68.21 3.22-102.98 3.86-41.7.77-91.68 2.93-130.49 9.8-5.08.9-18.39 5.16-22.22 4.13-.78-.2-6.31-5.36-9.74-6.91-43.81-19.81-144.66 9.6-195.69 13.21-9.44.66-18.19-1.87-16.27 4.76Zm-570.79-24.96c45.98 3.3 90.78-3.94 133.77-10.26 8.78-3.85-1.1-4.62-9.74-3.75-1.22.13-1.07 1.29-3.6 1.65a798.03 798.03 0 0 1-28.73 3.4c-28.37 3-62.26 3.81-89.17 7.38-2.54.34-3.01-.43-2.53 1.58Zm1187.43-5.46v-.78c-1.13.26-1.13.52 0 .78Zm-812.09-.79c3.62.23 3.94.08 3.45-1.55l-3.45 1.55Z" />
    <path fill="#442E1A"
      d="M.03 191.67v-7.02c48.68 4.4 100.56 1.26 149.15-2.55 15.55-1.22 51.05-3.77 64.2-6.16 3.35-.6 1.94-2.21 4.04-3.04 87.68-34.5 285.03-4.4 388.88.83 58.8 2.96 120.7 2.8 179.95 3.09 98.56.48 196.37-.14 293.13-9.7 54.5-5.4 158.36-22.48 209.76-12.72 12.01 2.28 6.99 3.22-3.16 2.98-96.63-2.28-176.84 16.82-271.73 22.47-129.7 7.74-295.34 6.39-424.76-2.45-98.24-6.72-207.14-22.77-305.8-12.65-19.19 1.96-36.91 5.3-55.33 8.2-.4 1.43 3.7.68 5.57.57 8.76-.53 17.45-1.88 26.35-2.16 20.61-.66 40.51.49 57.18 6.28l6.9 3.87c-46.27-15.39-101.96-.45-151.3 4.33-55.92 5.41-116.03 8.12-173.03 5.82ZM1727.98 202.59c-42.36-3.2-82.52 2.04-123.92 4.56-29.1 1.78-58.46 2.97-87.46 5.02-52.81 3.74-117.53 12.97-168.22 14.62-49.53 1.62-130.43 1.62-179.93-.04-36.97-1.24-78.54-7.58-113.66-12.7-4.93-.71-12.77.1-11.77-3.27.89-2.97 69.81 6.4 76.1 7.02 71.74 7.03 149.46 7.36 222.03 2.61 45.87-3 90.88-9 137.18-12.23 36.03-2.52 72.28-3.7 108.44-5.7 36.23-2.01 74.04-7.05 110.77-4.5 10.22.72 20.45 2.69 30.44 3.83v.78ZM.03 59.09v-3.9c13.56-2.82 26.17-6.21 41.13-7.59 61.87-5.67 142.05 11.9 201.44 20.27 70.52 9.94 141.62 17.73 215.82 19.68-72.36 1.68-145.24-4.29-214.5-13.26C165.15 64.09 82.15 42.04.05 59.08Z" />
    <path fill="#442E1A"
      d="M.04 165.93v-3.12c89.3 5.7 176.74-6.25 264.01-12.37 34.86-2.44 82.8-6.02 117.36-4.77 4.47.16 33.02 2.47 33.76 3.5 1.3 1.8-3.83 1.1-6.04 1.16-24.69.73-49.77.71-74.38 1.57-104.47 3.63-205.5 18.91-311.34 15.59-7.26-.23-16.1-.99-23.37-1.56ZM1727.98 77.03v5.46c-51.92 6.67-99.71 13.61-154.78 12.47-38.92-.8-82.77-3.94-122.8-5.46-18.68-.71-32.22-4.82-6.47-7.57 36.6-3.91 80.41 4.11 117.15 6.02 58.38 3.02 112.46-1.8 166.9-10.91v-.01ZM275.06 227.54c-1-2.08 2.32-1.51 5.12-1.94 52.8-8.04 116.37-16.52 170.94-21.23 56.26-4.85 155.47-8.4 205.62 5.1 2.79.75 8.42 1.42 7.49 3.24-4.58.62-2.73-1.06-4.73-1.52-51.7-11.9-156.98-5.9-213.22-.43l-131.44 16.78h-39.78ZM1727.98 156.57c-60.01 5.44-118.79-2.9-177.56-6.9-34.68-2.36-69.81-3.42-104.38-5.98-1.23-1.8 3.78-1.1 6.05-1.16 32.81-.89 60.46-.73 93.21.87 60.54 2.96 121.44 10.6 182.69 5.37v7.8h-.01ZM1727.98 191.67c-15.82.33-31.71.47-47.55.79-75.6 1.52-151.15 4.03-226.66 7-3.66.14-6.07-.03-4.28-1.94.96-1.03 42.24-5.12 48.09-5.62 70.15-6.03 139.94-3.73 210.53-5.68 6.59-.18 13.29.1 19.87 0v5.46-.01ZM1727.98 171.39a1691.11 1691.11 0 0 1-237.58 3.79c-44.72-2.43-77.57-9.2-118.64-12.8-7.67-.67-52.4-2.43-53.82-4.73-3.59-5.8 6.34-2.4 11.52-1.93 34.46 3.18 61.58 6.08 95.46 10 76.87 8.88 169.64 9.36 248.37 5.58 18.26-.87 36.56-2.55 54.69-3.8v3.9-.01ZM.03 139.42v-2.34c59.8-4.1 115.34-16.5 175.79-19.4 50.31-2.41 127.98-.12 171.74 12.04 3.94 1.1 10.56 2.6 12.26 4.62-7.18.54-14.56-2.34-21.6-3.52-62.05-10.47-142.2-8.7-207.07-4.43-44.41 2.93-87.05 9.37-131.12 13.02ZM.04-14.22v-3.9C57.94-12.14 114.93-3.72 174.1-.3c39.92 2.3 74.94 1.85 114.77.49 2.32-.08 5.84-1.33 5.21.78C196 14.19 93.06.52.04-14.23ZM1727.98 66.88c-70.49 2.03-144.82.07-212.74-8.97-12-1.6-33.62-3.37-16.55-9.73 73.55 11.25 151.67 15.15 229.29 14.02v4.68Z" />
    <path fill="#442E1A"
      d="M.04 41.15v-7.8c53.36-1.03 97-17.73 148.74-21.84l-15.52-1.96c-20.1-1.83-42.08-2.4-61.76-4.94-2.9-.38-4.83.58-4-1.67 32.85.57 69.1 1.25 100.69 5.68 8.08 1.13 11.68.6 10.01 5.24-65.8-.74-114.44 24-178.16 27.3v-.01ZM.04 154.24v-4.69c31.12-.6 63.3 3.83 94.34 3.16 39.04-.86 80.28-8.01 119.49-10.08 2.96-.15 22.33-1.25 23.13-.87.35.15-.2 1.7.02 2.33-40.26 2.97-80.86 11.14-121.98 12.47-38.45 1.24-76.77-1.88-115-2.33ZM162.62 227.54c-1.02-2.06 2.39-1.48 5.04-1.97 12.9-2.4 34.76-5.34 45.67-8.35 1.8-.49 1.9-.6 2.91-1.38 52.74-7.51 102.6-18.16 158.52-21.72 32.85-2.1 74.98-2.75 107.08 1.41 2.35.3 5.36.1 5.97 1.6-106.65-9.99-210 11.03-304.43 30.42h-20.75l-.01-.01ZM1727.98 89.5v5.47c-43.41.19-86.39 10.14-128.89 11.69-5.92.22-35.48 1.11-33.69-2.71l162.58-14.44ZM.03 126.94v-7.02c22.9-.75 48.98.13 71.31-1.77 24.12-2.04 46.64-9.52 71.32-9.96 2.2-.03 9.16-.6 7.86 1.2-28.98 1.06-52.27 10.16-79.85 13.14-22.52 2.43-47.77 2.52-70.64 4.42v-.01Z" />
    <path fill="#442E1A"
      d="M.04 20.88v-6.25c12.39 1.02 27.65 2 38.1-1.92C62.35 3.62 13.58.32.05 1.38v-4.69C71.09-6.55 70 25.53.04 20.87ZM.03 107.44v-4.68c47.71 3.91 90.95-12.01 136.22-15.4 2.46-.2 6.35-.95 5.63.96-47.2 6-90.2 22.91-141.84 19.12Z" />
    <path fill="#5A3C26"
      d="M.03 14.63V1.38C13.57.32 62.34 3.62 38.14 12.7 27.7 16.63 12.43 15.64.04 14.63Z" />
    <path fill="#442E1A"
      d="M1727.98 130.05c-11.07.3-21.83-1.1-19.02-7.02-11.68.44-22.11 2.84-34.2 3.7-24.34 1.7-50.34 1.08-74.77.2.68-1.47 3.41-1.42 6.01-1.58 10.83-.66 22.44-.3 32.89-.76 26.19-1.16 52.77-2.6 77.83-6.24 1.27 4.7-.89 8.37 11.26 10.15v1.56ZM1727.98 55.19c-17.16-.61-34.08-2.72-50.54-4.9-11.3-1.5-30.98-4.22-41.13-6.42-2.02-.43-4.76-.77-5.19-1.94l96.86 7.02v6.25-.01ZM1727.98 111.34c-31.31 1.28-61.34 5.05-89.09 11.7-3.44.36-3.08-.92-2.69-1.98.46-1.25 6.81-2.97 9.29-3.63 24.26-6.55 54.41-9.36 82.49-10v3.91ZM1727.98 139.42l-138.38-1.17c45.23-5.06 92.3-1.86 138.38-1.95v3.12ZM.04 84.83v-3.9l64 2.73c1.54 1.73-4 1.12-6.04 1.17-19.24.4-38.73-.3-57.96 0ZM1727.98 9.96v3.9c-12.45-.8-26.71-.6-38.89-1.57-6.58-.52-6.48-3.5 1.62-3.92 11.46-.59 25.77.92 37.28 1.6l-.01-.01ZM.04 71.57v-3.9l38.07.4c0 1.93-3.34 1.64-6.05 1.94C22.5 71.1 10.02 71.2.04 71.56ZM1612.08 42.72c.41 1.36-3.92.73-6.02.77-71.81 1.33-142.22-1.6-214.28 2.44-97.22 5.46-223.03 35.86-319.34 20.56-21.73-3.45-29.4-12.02-14.75-20.67 27.38-16.19 81.91-11.52 121.1-12.47 40.56-.99 90.6-8.14 127.04 3.56 3.75 1.2 12.32 6.16 15.01 6.4 4.18.36 35.36-3.1 43.33-3.59 82.84-5.1 165.02 2.55 247.91 3Zm-304.41 2.32c2.89-1.77-14.93-5.82-17.85-6.36-34.28-6.46-72.45-1.39-107.48-.61-34.81.77-69.85-3.6-103.39 4.85-13.84 3.49-23.15 12.58-4.21 15.52 36.98 5.75 94.76 2.31 132.63-1.3l51.86-6.62-121.08-1.56v-3.91c26.82.3 53.67.46 80.52.75 4.54.05 8.74.8 13.68.85 10.39.1 71.68.62 75.32-1.6ZM582.94 59.1c-9.1 3.47-24.59 5.29-36.31 6.62-85.57 9.73-170.76-3.07-244.43-22.38-22.33-5.85-84.93-26.73-108.87-24.66-15.78 1.36-.4 14.81 4.9 18.5 58 40.43 257.9 40.97 350.7 34.26 126.64-9.15 243.33-36.73 371.29-42.76l-16.87 3.7c-41.96 7.73-86.84 11.27-130.17 16.95C671.96 62.58 576.86 79.3 469.72 80.95c-84.26 1.3-249.64-9.88-286.64-50.2-6.86-7.46-6.41-17.36 16.65-16.93 22.04.42 68.41 15.79 89.73 21.22 88.97 22.65 191.33 41.97 293.48 24.05Z" />
    <path fill="#442E1A"
      d="m1043.03-4.86.01 2.33C975.38-.39 919.64 18.3 854.86 26.1 771.13 36.2 650.5 47.9 564.69 46.64c-28.86-.42-57.67-3.08-86.42-3.92-29.02-.85-58.84.32-87.75-1.77-35.25-2.54-68.68-11.65-105.1-12.28v-2.33c41.1 0 77.22 9.67 118.51 10.9 34.62 1.05 75.54 1.29 110.61 1.6 122.95 1.14 243.36-9.02 362.12-22.4 37.79-4.25 106.78-21.3 139.56-21.3h26.81ZM757.64 132.4c-.81-.37-.03-2.78 1.68-3.53 2.55-1.12 35.99-6.75 41.92-7.61 136.01-19.93 228.5.2 358.55 5.68 55.15 2.32 128.35-4.33 177.26 5.09 6.73 1.3 17.14 3.28 20.79 6.22l-42.32-3.54c-69.8 1.82-127.31 4.65-196.72-1.77-111.85-10.34-195.57-25.07-312.37-8.56-6.4.9-46.95 8.85-48.8 8.01h.01ZM183.58 90.97l-.2-3.02c2.9-1.37 70.13 6.26 80.6 6.93 28.73 1.84 65.7 2.78 94.9 3.23 167.23 2.6 333.63-13.49 500.82-10.55.02 1.71-36.03 1.05-40.65 1.17-164.07 4.33-327.3 23.48-492.72 14.7-48.15-2.55-95.26-8.36-142.74-12.45h-.01ZM728.22 62.2v-2.33c68.5-2.53 141.01-10.54 202.42-24.55 101.68-23.2 139.72-45.15 267.18-41.73 45.13 1.2 97.14 13.66 139.62 9.12 11.4-1.22 20.39-3.88 30.77-6-2.77 5.1-20.23 9.92-30.74 11.47-40.24 5.96-96.43-5.58-139.65-6.8-122.04-3.45-161.71 14.3-260.26 37.05-64.98 15-137.14 20.78-209.34 23.77Z" />
    <path fill="#442E1A"
      d="M268.14 21.65c-.37-.19-.63-2.6 1.07-3.2 3.32-1.16 28.35-5.21 34.35-6.17C399.22-3.04 506.34-1.8 606.28 2.16c62.96 2.5 130.61 9.15 193.71 6.22 40.14-1.86 79.38-7.94 120.22-7 2.94 1-.22 1.4-2.57 1.55-33.11 1.9-58.81 5.95-90.45 9.14-80.8 8.13-182.42-3.84-265.9-6.8C481 2.45 398 3.18 320.44 13.65c-6.6.9-50.43 8.93-52.29 8ZM640 194c-2.92-1.1.68-1.35 2.42-1.64 4.35-.72 15.75-1.26 20.97-1.47 95.66-3.7 191.35 8.29 286.86 3 56.75-3.13 112.97-13.25 170.61-10.02 1.34 1.91-3.38 1.88-6.49 2.12-50.58 3.72-99.1 9.55-148.85 13.23-80.63 5.97-193.64 1.67-276.19-2.1-6.25-.29-47.42-2.4-49.32-3.11ZM1188.13 178.5c-2.59-1.1-20.96 2.92-17.05-1.24 4.75-5.06 52.14-6.14 63.15-5.9 56.54 1.2 108.86 4.41 164.48 7.72 62.42 3.71 113.95 3.18 176.12 2.41 43.65-.54 87.44 3.56 130.22.21 3.34-.26 2.07.03 2.18 1.38-41.37 2.9-83.66 1.09-125.48 1.53-36.87.4-72.85 2.38-110.7 1.63-81.51-1.63-161.73-11.55-243.8-10.16l-26.82 1.54c48.26-.31 95.38 4.9 142.94 7.7 29.51 1.73 59.19 2.92 88.84 4 2.87.97-.2 1.43-2.58 1.57-9.45.54-26.38.22-36.42.03-35.97-.69-71.52-3.78-107.18-5.49-27.37-1.3-57.57-1.2-84.5-3.23-2.59-.2-10.3-.61-11.58-1.04-1.91-.63-1.19-2.38-1.82-2.65ZM662.51 119.9c-.25-1.12 4.09-1.26 6.02-1.55 44.65-6.85 96.43-8.34 142.74-12.85 57.88-5.64 119.25-17.79 179-16 61.09 1.85 126.26 16.05 184.62 24.39 4.19.6 24.59 2.5 25.54 2.91 2.58 1.1-.17 1.42-2.56 1.56-52.79 3.03-123.58-13.86-177.01-18.47-51.06-4.41-88.74-2.08-139.06 1.53-73.41 5.28-145.74 13.54-219.3 18.48h.01ZM1082.81 133.96c-7.82 3.22-22.07 4.72-32.49 6.01-27.37 3.38-56.41 5.03-84.14 8.08-82.48 9.08-166.45 25.29-252.67 25.66-52.2.23-98.8-5.32-149.24-9.12-34.38-2.6-71.62-2.67-104.6-8.2-2.51-.43-30.71-5.69-17.67-6.84 1.28-.12 19.79 3.6 23.7 4.11 31.11 4.16 60.47 4.57 91.87 6.94 44.15 3.32 88.45 8.47 133.4 9.26 95.8 1.67 181.37-18.03 272.48-26.95 39.34-3.85 79.65-6.04 119.36-8.95ZM688.44 73.9c.28-1.06-1.09-2.42 1.09-3.2 5.3-1.86 35.47-5.85 43.54-6.71 68.2-7.3 146.92-1.63 215.15 3.92 58.61 4.76 124.62 10.55 182.29 16.89 2.93.32 5.03-.76 4.19 1.58-60.72-2.86-120.54-8.79-181-12.36-54.03-3.2-114.86-6.2-169.24-4.79-31.99.83-63.78 4.77-96.02 4.67ZM1060.33 150.32c-1-1.93 7.3-2.85 10.43-3.47 73.81-14.88 165.9-3.11 242.98-.43 83.51 2.91 169.95-.34 251.08 10.83 2.82.4 4.88-.63 4.02 1.66a750.1 750.1 0 0 0-40.88-3.79c-65.12-4.06-131.37-1.7-196.92-3.23-66.01-1.56-130.76-7.76-197.18-5.45-24.56.86-48.9 3.28-73.52 3.88h-.01ZM1011.95 55.96c-5.25-1.55 5.39-12.4 8.26-14.57 39.42-29.81 184.09-27.49 249.83-22.66 22.52 1.66 44.61 5.31 67.02 7.22a574.04 574.04 0 0 0 81.3 1.17c-.35 1.24-6.32 1.64-8.65 1.93-52.69 6.83-124.13-3.83-179.03-5.83-65.67-2.4-173.11-5.64-208.19 25.43-1.75 1.55-4.79 7.06-5.45 7.3-.19.07-4.77.1-5.09 0v.01Z" />
    <path fill="#442E1A"
      d="M866.6 133.96c.88 2.21-1.17 1.28-3.8 1.76-9.42 1.7-22.1 3.02-32.15 4.26-84.6 10.47-214.55 20.86-290.8-3.36-3.15-1-25.52-8.34-14.68-9.64 9.08.82 16.69 3.8 25.46 5.56 97.3 19.54 214.88 9.16 315.97 1.43ZM1359.57 17.75c-.51-1.87 4.24-2.63 7.05-3.44 44.2-12.87 101.97-1.59 149.49.3 50.94 2.04 101 2.11 151.65 6.5 5.86.5 40.63 4.21 42.71 5.3 1.07.56-.22 3.5.21 4.6-51.25-2.26-101.73-7.7-153.1-10.14-13.41-.63-29.28-.15-43.21-.8-40.42-1.87-79.93-7-121.06-5.44-11.56.44-22.21 2.71-33.75 3.1l.01.02ZM340.8 22.43c-.78-1.6 1.8-1.77 3.92-2.51 43.71-15.4 157.19-6.02 211.43-4.51 42.24 1.17 123.96-1.46 159.65 6 2.3.47 5.78.63 5.54 2.18-54.63-2.8-110.3.06-165.19-1.17-48-1.08-94.86-7.8-143.36-6.13-23.98.82-48.2 4.62-72 6.13ZM1025.72 208.06l-25.09 1.54c-65.17.04-130.4 3.06-195.42.78-50.63-1.77-100.2-7.63-150.71-10.03-42.78-2.04-96.76-.44-136.02-8.09-6.45-1.25-19.82-4.45-5.86-6 54.2 5.36 109.57 7.26 164.33 10.98 27.43 1.86 54.4 4.93 81.83 6.77 88.6 5.97 177.47 3.62 266.94 4.04ZM1202.17 105.09c-.46-1.02 3.18-1.24 4.74-1.36 83.59-6.16 131.96-15.55 218.75-5.43 37.42 4.36 74.17 9.96 111.68 14.4 1.83.2 7.27-.22 5.55 1.36-1.47 1.35-5.02 1.11-7.67 1.22-57.06 2.25-108.63-12.98-164.43-14.85-56.59-1.89-112.12 5.51-168.61 4.66h-.01Z" />
    <path fill="#442E1A"
      d="M1311.13 116.8c-4.26-1.45 8.16-2.17 9.73-2.24 60.88-2.85 126.65 12.83 186.58 11.58 54.4-1.13 103.52-19.52 158.27-20.25.38 2.02.28 1.3-2.59 1.53-67.06 5.42-113.1 26.95-185.05 24.96-55.89-1.54-111.59-12.4-166.94-15.59ZM102.1 105.1c-1.25-1.95 5.31-2.4 8.26-2.9 50.44-8.4 107.63-2.92 158.14 2.34 64.7 6.74 128.65 16.43 195.1 19.28v2.33c-67.28 3.31-130.98-10.08-195.1-16.93-39.24-4.2-81.84-7.53-122.37-6.5-14.73.38-29.25 2.23-44.03 2.37ZM1508.31 75.48c.91.4 1.02 1.76-2.3 1.42-8.67-.86-17.92-2.64-27.04-3.41-107.28-9.05-199.44 14.43-300.96 23.44-7.29.65-29.93 2.9-35.54 2.73-6.58-.2-5.47-4.54.39-5.32 58.3-2.53 113.02-12.4 169.27-18.82 55.52-6.33 110.06-10.83 166.8-4.36 3.69.42 28.29 3.82 29.38 4.3v.02ZM669.4 165.14v-2.33c5.57.66 11.98-.7 16.64-.7 26.12-.05 47.82 1.86 74.74-.61 52.52-4.81 113.54-18.86 168.1-25.6 23.33-2.87 46.94-5.09 70.9-6.62 1.25 2.12-6.65 2.43-9.9 2.93-32.92 5.12-68.36 8.55-101.68 13.43-46.87 6.86-109.49 21.58-157.29 21.89-20.05.12-41.42-2.1-61.5-2.39ZM948.76 49.73c41.76-1.9 47.26-20.43 80.47-26.1 3.36-.58 17.37-2.74 11.26 1.17-1.09.7-10.68 2.7-13.85 3.9a199.01 199.01 0 0 0-18.25 8.14c-18.57 9.75-23.18 21.81-58 22.27-7.64.1-44.07-3-44.08-7.43 0-.64 1.59-1.95 2.67-1.95 12.43 0 27.82.54 39.78 0ZM45.01 144.87c-3.38-4.78 15.5-7.74 23.76-9.17 40.44-6.99 128.62-9.8 169.16-3.34 7.59 1.21 14.12 3.39 21.54 4.72.43 1.49-3.09.4-4.87.25-17.28-1.35-35.54-3.62-53.07-4.15-54.64-1.65-105.95 2.9-156.51 11.7ZM820.37-.76c1.55-.73 35.4-6.95 40.58-7.82 27.38-4.6 76.85-11.6 105.03-7.95 3.85.5 6.34 1.32 3.48 3.1-50.74 1.76-99.52 9.14-145.3 18.73-5.2.03-7.57-4.3-3.8-6.06ZM206.3 29.65c7.24-3.12 30.57 1.83 38.18 3.84 26.66 7.04 50.2 18.81 80.79 23.62l36.25 5.87c-42.9 1.97-75.57-12.37-110.65-20.67-12.44-2.94-30.44-4.83-40.42-7.5-4.08-1.1-8.67-3.2-4.15-5.16ZM697.09 133.18c.43 1.16-3.24.97-5.16 1.16-56.78 5.87-112.66-8.2-166.66-13.77-5.63-1.15-3.06-6.03 2.85-5.96 56.04 7.03 108.78 21.61 168.97 18.57ZM1155.47 176.84c.09-1.88 6.7-3.64 9.81-4.53 22.5-6.46 56.27-9.56 82.73-10.27 41.6-1.12 85.26.57 125.37 5.46-.52 1.43-8.85.84-11.21.77-37.36-1.14-72.85-4.94-110.7-3.11-33.17 1.6-64.72 6.97-96.01 11.69h.01ZM108.4 34.64c11.08-5.42 32.76-15.66 51.4-12.87 4.64.69 4.02 10.01.34 11.63-9.75 4.28-28.77.55-20.04-2.02 4.38-1.29 17.69.53 15.6-5.83-18.14 0-32.1 6.65-43.23 12.47 13.05-.46 25.54 1.35 38.04 2.74l41.51 7.4c-19.22-.56-37.2-5.27-56.41-6.14-7.9-.36-17.75-.22-25.8-.13-3.24.04-8.07 1-10.1.76-9.8-1.14 6.93-7.15 8.7-8.02v.01ZM397.87 45.83c2.35-1 56.02 3.63 64.03 4.27 21.57 1.72 45.32 3.65 66.57 5.88 8.8.92-3.39 2.17-6.95 2.32-40.54 1.76-81.44-6.37-120.7-9.51-3.09-.1-3.8-2.58-2.94-2.95ZM878.72 172.95c-1.18-1.9 5.9-2.24 8.73-2.69 16-2.5 32.58-4.1 48.31-7.07 22.04-4.14 77.45-19 97.77-18.94 6.99.03 19.98 3.4 8.67 3.75-37.04 1.12-51.44 7.46-83.3 13.92-25.84 5.24-51.6 9.87-80.18 11.03ZM1566.26 76.25c-16.17-.74-53.4-6.1-64.02-11.69-1.18-.62-4.53-1.6-1.69-2.36 21.72 7.37 47.22 6.38 72.41 7.9 8.7.54 27.89.93 25.3 6.15-10.32-.34-21.85.46-32 0ZM494.73 180.76c.87.38 1.3 1.65-2.18 1.37-40.7-3.18-81.88-4.53-123.22-5.28-5.44-.3-5.7-2.64-1.87-3.96 2.5-.86 22.68-.12 27.8.07 9.53.35 21.06 1.13 30.67 1.77 8.24.55 66.27 4.94 68.8 6.04v-.01ZM510.29 139.43c1.7.77.34 1.61-2.57 1.55-11.53-.26-27.1-3.33-40.03-3.81a248.3 248.3 0 0 0-15.41-.13c-8.75.26-24.3 3.2-29.46 3.13-8.15-.09-2.7-3.63.95-5.07 15.55-6.1 39.1-3.06 56.74-.6 3.78.53 28.65 4.4 29.77 4.92ZM1240.47 191.55c-.93-.7.02-2.09-.25-3 15.94.8 31.45 3.03 47.58 3.88 16.12.85 34.96.67 51.9 1.56 2.58.14 5.3.62 2.56 1.56-13.2.55-96.75-.25-101.78-4h-.01ZM157.43 75.46c-21.02.07-39.78-4.44-60.14-6.02-4.5-.35-15.02.3-16.94-.93-2.46-1.56-.96-3.58 3.58-3.95 16.43-1.37 39.6 4.5 55.32 7.02 5.78.92 17.74 1.05 18.18 3.89v-.01ZM876.97 129.27v-2.33l126.27-2.33c.12 1.16-6.1 1.34-7.97 1.45a2186.05 2186.05 0 0 1-55.17 2.43c-21.03.66-42.03.97-63.13.78ZM1108.76 204.14c.26-.9-.68-2.32.25-3 3.47-2.59 79.92-9.4 91.41-7.91 5.62 1.93-11.18 1.55-12.75 1.65-27.88 1.84-52.09 6.33-78.91 9.26ZM202.4 197.9v-2.33c34.7.42 67.93-4.47 102.05-6.23.84 2.34-1.25 1.25-4.19 1.57-18.4 2.02-39.36 4.47-57.75 5.97-13.38 1.1-26.7 2.1-40.11 1.02ZM1356.11 126.94c24.11 1.18 46.26 5.54 70.04 7.82 2.96.28 5.15-.87 4.32 1.53-16.78-1.05-33.73-.67-50.19-2.71-1.98-.25-29.39-4.64-24.17-6.64ZM1037.85 162.03c-.24-.12-.82-2.92 1.1-3.15l88.83-6.98-4 1.66c-11.11-.4-82.9 9.9-85.93 8.47ZM271.62 134.73c-.57-.25.29-3.02-.02-3.9 1.76-.8 18.5 1.69 21.92 2.21 5.49.84 13.94 2.08 17.86 4.03-5.2-.4-38.33-1.71-39.76-2.34ZM966.93 169.04c-4.67-2.17 5.35-2.46 8.26-2.88 3.81-.56 21.9-4.47 22.86-4.12 3.06 1.12-2.33 1.72-3.25 2.01-3.84 1.22-24.95 6.36-27.87 5ZM633.1 51.29c-7.36-3.14 21.6-3.88 24.2-4.68.96 2.08-1.18 1.34-3.4 1.94-3.72.99-17.62 4.09-20.8 2.74ZM370.21 139.38c-.2-.13-.2-2.22-.03-2.3.55-.25 13.23-.8 15.57-1.56 1.97 3.43-12.9 5.68-15.53 3.86ZM1004.99 160.47c-1.89-.85 1.55-2.4 3.44-1.55 1.89.85-1.55 2.4-3.44 1.55ZM999.8 162.03c-1.89-.85 1.55-2.4 3.44-1.55 1.89.85-1.55 2.4-3.44 1.55ZM698.84 133.17c-1.18-.28 1.01-1.33 3.44-.77 1.17.27-1.02 1.33-3.44.77ZM584.68 59.08c-1.18-.27 1.01-1.32 3.44-.76 1.17.27-1.02 1.32-3.44.76ZM1011.03 158.9c-1.12-.25-1.12-.51 0-.77v.78Z" />
    <path fill="#5A3C26"
      d="M1307.66 45.04c-3.64 2.23-64.93 1.7-75.31 1.61-4.93-.05-9.14-.8-13.69-.85-26.84-.29-53.69-.45-80.51-.75v3.91l121.08 1.56-51.86 6.63c-37.87 3.6-95.65 7.04-132.64 1.3-18.93-2.95-9.63-12.04 4.22-15.53 33.53-8.46 68.58-4.08 103.39-4.85 35.03-.78 73.19-5.85 107.48.6 2.92.56 20.74 4.6 17.84 6.37Z" />
    <path fill="#000" d="M1728 0v227H1V0z" opacity=".4" />
  </g>
  <defs>
    <clipPath id="a">
      <path fill="#fff" d="M1728 197H0V0h1728z" />
    </clipPath>
  </defs>
</svg>