<svg width="310" height="310" viewBox="0 0 310 310" fill="none" xmlns="http://www.w3.org/2000/svg">
<path d="M306.006 0H3.99356C1.78798 0 0 1.78798 0 3.99356V306.006C0 308.212 1.78798 310 3.99356 310H306.006C308.212 310 310 308.212 310 306.006V3.99356C310 1.78798 308.212 0 306.006 0Z" fill="#9E4700"/>
<path d="M271.063 34.9436H38.9369C36.7313 34.9436 34.9434 36.7316 34.9434 38.9372V271.063C34.9434 273.268 36.7313 275.056 38.9369 275.056H271.063C273.268 275.056 275.056 273.268 275.056 271.063V38.9372C275.056 36.7316 273.268 34.9436 271.063 34.9436Z" fill="#BD6B21"/>
<path d="M271.937 275.056H38.0642C17.1329 275.056 3.99414 310 3.99414 310H306.007C306.007 310 292.863 275.056 271.937 275.056Z" fill="#662C00"/>
<path d="M271.546 34.9436H38.4524C17.5911 34.9436 4.49219 0 4.49219 0H305.507C305.507 0 292.408 34.9436 271.546 34.9436Z" fill="#CE8345"/>
<path d="M214.904 186.704V186.694C214.874 186.694 214.849 186.694 214.819 186.694C209.582 186.694 205.334 182.446 205.334 177.209C205.334 171.973 208.165 167.724 213.406 167.724H213.661C214.35 167.724 214.904 167.165 214.904 166.482V161.48C214.904 160.791 214.345 160.237 213.661 160.237H96.3401C95.6512 160.237 95.0971 160.796 95.0971 161.48V166.482C95.0971 167.17 95.6562 167.724 96.3401 167.724H96.5947C101.831 167.724 104.667 171.973 104.667 177.209C104.667 182.446 100.419 186.694 95.182 186.694C95.152 186.694 95.1271 186.694 95.0971 186.694V186.704C89.8955 186.749 85.6973 190.972 85.6973 196.184C85.6973 201.395 89.9005 205.618 95.0971 205.663V205.673C95.1271 205.673 95.152 205.673 95.182 205.673C100.419 205.673 104.667 209.921 104.667 215.158C104.667 220.395 101.836 224.643 96.5947 224.643H96.3401C95.6512 224.643 95.0971 225.202 95.0971 225.886V230.888C95.0971 231.577 95.6562 232.131 96.3401 232.131H213.661C214.35 232.131 214.904 231.572 214.904 230.888V225.886C214.904 225.197 214.345 224.643 213.661 224.643H213.406C208.17 224.643 205.334 220.395 205.334 215.158C205.334 209.921 209.582 205.673 214.819 205.673C214.849 205.673 214.874 205.673 214.904 205.673V205.663C220.105 205.618 224.304 201.395 224.304 196.184C224.304 190.972 220.1 186.749 214.904 186.704Z" fill="#BC8E28"/>
<path d="M155 211.659C163.547 211.659 170.475 204.73 170.475 196.184C170.475 187.637 163.547 180.708 155 180.708C146.454 180.708 139.525 187.637 139.525 196.184C139.525 204.73 146.454 211.659 155 211.659Z" fill="#EFAB00"/>
<path d="M144.597 189.514C144.597 189.514 148.271 182.835 156.293 183.444C156.293 183.444 157.791 183.369 157.86 184.867C157.93 186.364 156.657 186.125 156.657 186.125C156.657 186.125 150.907 185.71 147.158 190.892C147.158 190.892 146.234 192.435 145.211 191.985C144.188 191.536 144.143 190.538 144.592 189.514" fill="#FFDF8F"/>
</svg>
