<svg xmlns="http://www.w3.org/2000/svg" width="341" height="74" fill="none">
  <path fill="#DFAE42" fill-rule="evenodd"
    d="M86 0H31a4 4 0 0 0-4 4c0 3.4-2 5.4-4.6 6.4a27 27 0 0 0 0 53.2c2.6 1 4.6 3 4.6 6.4a4 4 0 0 0 4 4h279a4 4 0 0 0 4-4c0-3.4 2-5.4 4.6-6.4a27 27 0 0 0 0-53.2c-2.6-1-4.6-3-4.6-6.4a4 4 0 0 0-4-4H86Z"
    clip-rule="evenodd" />
  <path fill="#2D1F00" fill-rule="evenodd"
    d="M86 7H43a4 4 0 0 0-4 4v2a8 8 0 1 0 0 16 8 8 0 1 1 0 16 8 8 0 1 0 0 16v2a4 4 0 0 0 4 4h255a4 4 0 0 0 4-4v-2a8 8 0 0 0 0-16 8 8 0 0 1 0-16 8 8 0 0 0 0-16v-2a4 4 0 0 0-4-4H86Z"
    clip-rule="evenodd" />
  <path fill="#634400" d="m214 7-42 60h21l42-60h-21ZM243 7l-42 60h10l42-60h-10Z" />
  <path fill="#F4D38B"
    d="m224 0-5 7h21l5-7h-21ZM253 0l-5 7h10l5-7h-10ZM178 67l-5 7h21l5-7h-21ZM207 67l-5 7h10l5-7h-10Z" />
  <g clip-path="url(#a)">
    <rect width="12" height="12" x="319" y="31" fill="#BC8E28" rx="6" />
    <path fill="#5E4203" d="m317.9 31.3 1.4-1.4L332 42.6l-1.4 1.5z" />
  </g>
  <g clip-path="url(#b)">
    <rect width="12" height="12" x="10" y="31" fill="#BC8E28" rx="6" />
    <path fill="#5E4203" d="M25 36v2H7v-2z" />
  </g>
  <defs>
    <clipPath id="a">
      <rect width="12" height="12" x="319" y="31" fill="#fff" rx="6" />
    </clipPath>
    <clipPath id="b">
      <rect width="12" height="12" x="10" y="31" fill="#fff" rx="6" />
    </clipPath>
  </defs>
</svg>