<svg xmlns="http://www.w3.org/2000/svg" width="310" height="310" fill="none">
  <path fill="#9E4700" d="M306 0H4C2 0 0 2 0 4v302c0 2 2 4 4 4h302c2 0 4-2 4-4V4c0-2-2-4-4-4Z" />
  <path fill="#BD6B21" d="M271 35H39c-2 0-4 2-4 4v232c0 2 2 4 4 4h232c2 0 4-2 4-4V39c0-2-2-4-4-4Z" />
  <path fill="#662C00" d="M272 275H38c-21 0-34 35-34 35h302s-13-35-34-35Z" />
  <path fill="#CE8345" d="M272 35H38C18 35 4 0 4 0h302s-14 35-34 35Z" />
  <path fill="#BC8E28"
    d="M215 187c-5 0-10-5-10-10s3-9 8-9h1l1-2v-5l-1-1H96l-1 1v5l1 2h1c5 0 8 4 8 9s-5 10-10 10a9 9 0 0 0 0 19c5 0 10 4 10 9s-3 10-8 10h-1l-1 1v5l1 1h118l1-1v-5l-1-1h-1c-5 0-8-5-8-10s5-9 10-9a9 9 0 0 0 0-19Z" />
  <path fill="#EFAB00" d="M155 212a15 15 0 1 0 0-31 15 15 0 0 0 0 31Z" />
  <path fill="#FFDF8F" d="M145 190s3-7 11-7c0 0 2 0 2 2l-1 1s-6 0-10 5l-2 1v-2" />
</svg>