<svg width="436" height="339" viewBox="0 0 436 339" fill="none" xmlns="http://www.w3.org/2000/svg">
<path d="M5.0415 128.295C10.8094 106.788 8.19584 35.1457 1.43653 1.94903H130.765L139.777 13.5577L142.481 1.94903C155.699 0.930725 195.564 -0.494898 249.278 1.94903C302.992 4.39295 402.038 2.96733 435.835 1.94903C432.53 21.0931 424.569 43.9793 429.076 66.2801C430.47 73.1819 434.032 134.837 435.835 143.086C437.277 149.684 428.925 207.137 424.569 235.038L399.785 240.537L420.964 243.898C418.441 261.983 425.32 314.568 429.076 338.6C413.754 333.101 349.316 341.349 312.365 334.017C282.804 328.152 173.574 332.999 122.653 336.156L117.246 317.521L110.937 334.017C103.727 329.129 34.9327 331.981 1.43653 334.017C8.94705 316.299 10.8091 292.404 5.04117 275.541C-0.726775 258.678 -0.966627 223.302 1.43668 212.61C5.79268 195.503 -0.726446 149.801 5.0415 128.295Z" fill="#E0C190"/>
</svg>
