<svg width="358" height="333" viewBox="0 0 358 333" fill="none" xmlns="http://www.w3.org/2000/svg">
<path d="M4.13958 126.028C8.87564 104.904 6.72961 34.5329 1.17954 1.92556H107.371L114.771 13.3281L116.991 1.92556C127.845 0.925335 160.578 -0.474981 204.682 1.92556C248.787 4.3261 330.114 2.92579 357.864 1.92556C355.151 20.7298 348.614 43.2097 352.314 65.1146C353.459 71.8939 356.384 132.455 357.864 140.557C359.048 147.038 352.191 203.471 348.614 230.877L328.264 236.278L345.654 239.579C343.582 257.343 349.231 308.995 352.314 332.6C339.734 327.199 286.823 335.301 256.483 328.099C232.211 322.338 142.521 327.099 100.711 330.2L96.2708 311.895L91.0908 328.099C85.1707 323.298 28.6832 326.099 1.17954 328.099C7.34643 310.695 8.87537 287.225 4.13931 270.661C-0.596756 254.097 -0.793698 219.349 1.17966 208.847C4.75638 192.043 -0.596486 147.153 4.13958 126.028Z" fill="#F7F3EE"/>
</svg>
