<svg xmlns="http://www.w3.org/2000/svg" width="1728" height="137" fill="none">
  <g clip-path="url(#a)">
    <path fill="#5A3C26"
      d="M6.94-.54 20 2.53c51.36 6.77 133.46 8.92 186.27 5.31 3.35-.23 26.16-2.53 27.04-3.01.5-.27.44-2.82.1-2.98-6.3-3.15-89.68 2.7-104.56 3.06-37.59.92-79.34-.17-115-5.45H1094.9l-5.85.84L687.57.23c-2.87 1 4.81 1.23 5.74 1.31C763.88 7.8 844.1 5.8 915.87 4.13c31.53-.74 63.63-3.3 95.22-3.15 85.61.42 221.87 20.36 298.05 1.1 2.69-.68 5.78-.64 5.43-2.63h98.6l-131.44 16.78c-56.25 5.47-161.52 11.48-213.22-.43-2-.46-.15-2.14-4.72-1.52-.94 1.82 4.7 2.49 7.48 3.24 50.15 13.51 149.36 9.95 205.62 5.1 54.57-4.7 118.14-13.2 170.94-21.22 2.79-.43 6.12.14 5.13-1.95h91.67c-94.42 19.4-197.78 40.4-304.42 30.43.6 1.5 3.61 1.29 5.97 1.59 32.09 4.16 74.22 3.5 107.08 1.41 55.91-3.56 105.78-14.2 158.51-21.72-1.5 1.14-2.29 2.5-1.58 3.83 3.57 2.4 77-.16 88.71-.81 35.9-2 72.37-5.9 105.32-12.6 2.57-.53 5.66-.1 4.73-2.12h19.03v8.58c-10.55 1.06-22.58 1.74-32.52 3.66-2.35.46-5.77.6-5.55 2.18l38.07-1.94v10.91c-38.55-.88-76.74 1.99-115.04 3.12-8.59.25-17.33-.15-25.95 0-2.33.04-7.19-.64-6.04 1.17l147.03-.38v8.57c-56.99-2.3-117.11.4-173.03 5.82-49.34 4.79-105.03 19.73-151.3 4.33l6.91 3.87c16.66 5.8 36.57 6.94 57.17 6.29 8.91-.28 17.6-1.63 26.36-2.17 1.88-.11 5.96-.85 5.56.57-18.41 2.9-36.14 6.24-55.32 8.2-98.66 10.12-207.56-5.93-305.81-12.64-129.42-8.84-295.05-10.19-424.75-2.46-94.9 5.66-175.1 24.75-271.73 22.47-10.15-.24-15.17.7-3.17 2.98 51.4 9.77 155.27-7.32 209.77-12.7 96.75-9.58 194.56-10.2 293.13-9.72 59.25.3 121.15.14 179.95 3.1 103.85 5.21 301.2 35.33 388.87.82 2.11-.83.7-2.43 4.06-3.04 13.13-2.39 48.63-4.93 64.19-6.16 48.59-3.8 100.47-6.95 149.14-2.55v18.72c-7.26-.57-16.11-1.33-23.37-1.55-105.83-3.33-206.86 11.95-311.34 15.58-24.6.86-49.69.84-74.37 1.57-2.22.06-7.34-.64-6.05 1.16.74 1.03 29.29 3.34 33.77 3.5 34.56 1.25 82.5-2.32 117.35-4.77 87.27-6.12 174.71-18.07 264.02-12.37v8.58c-38.23-.46-76.55-3.57-115.01-2.34-41.12 1.33-81.72 9.5-121.98 12.47.22.64-.32 2.17.02 2.34.81.37 20.18-.72 23.13-.88 39.21-2.07 80.45-9.21 119.49-10.07 31.03-.68 63.22 3.76 94.34 3.15v10.14c-44.07 3.65-86.71 10.09-131.12 13.01-64.86 4.28-145.02 6.04-207.07-4.42-7.03-1.19-14.42-4.07-21.6-3.52 1.7 2.02 8.32 3.51 12.26 4.61 43.77 12.17 121.43 14.46 171.74 12.05 60.46-2.9 115.99-15.3 175.79-19.4v10.14c-22.87 1.9-48.12 1.98-70.64 4.41-27.59 2.98-50.88 12.08-79.85 13.14-1.3 1.8 5.65 1.24 7.86 1.2 24.67-.44 47.2-7.91 71.32-9.96 22.32-1.9 48.4-1.02 71.3-1.77v12.48c-51.64-3.8-94.65 13.1-141.84 19.12-.72 1.92 3.16 1.15 5.63.96 45.26-3.4 88.51-19.33 136.22-15.4v17.94c-19.24.3-38.73-.4-57.96 0-2.05.05-7.58-.57-6.05 1.16l64.01 2.74v9.36c-9.99.36-22.45.46-32.02 1.54-2.71.3-6.06.02-6.05 1.95l38.07.4v8.58c-82.1 17.04-165.1-5-243.89-15.21-69.25-8.97-142.14-14.94-214.49-13.26 74.2 1.95 145.3 9.74 215.82 19.68 59.39 8.37 139.56 25.94 201.44 20.27 14.95-1.38 27.57-4.77 41.13-7.59v14.04c-63.73 3.28-112.36 28.03-178.17 27.3-1.67 4.64 1.93 4.1 10.02 5.24 31.58 4.42 67.83 5.1 100.68 5.67.84-2.25-1.09-1.28-4-1.66-19.68-2.54-41.66-3.11-61.76-4.95l-15.51-1.96c51.73-4.1 95.38-20.8 148.74-21.84v12.48c-69.97-4.67-71.06 27.41 0 24.18v10.91c-93.02-14.75-195.96-28.42-294.06-15.2-.62 2.1 2.9.86 5.21.78 39.83-1.36 74.85-1.83 114.77.5 59.19 3.42 116.18 11.83 174.08 17.82v7.01c-20.91-2.04-41.97-3.94-62.65-6.46-31.38-3.82-63.42-10.97-96.49-9.52l53.62 5.45c35.2 5 69.32 11.7 105.51 15.21v12.48c-87.11-14.26-179.45-31.84-273.3-19.1-.63 2.09 2.87.88 5.22.79 29.19-1.17 50.24-2.54 80.19-1.09 66.87 3.24 125.93 16.05 187.89 26.42v7.01c-62.88-.02-117.68-15.91-178.14-21.45-95.8-8.78-167.18 3.56-259.1 9.53-34.46 2.24-70.24 2.83-104.94 3.38-4.85.07-47.66-.54-47.66 1.13 26.68 1.26 53.69 3.43 80.47 4.29 109.64 3.51 211.24-17.73 321.48-12.37 64.11 3.12 122.42 18.96 187.89 17.84v6.24c-19.16.92-38.78.24-57.92.79-43.88 1.28-87.57 5-131.5 6.23-37.94 1.06-67.98-.58-105.94 4.48-8.96 1.2-20.89 3.08-28.09 5.66 17.37-1.57 34.99-3.4 52.77-3.88 31.19-.84 62.72 1.36 93.46.8 35.77-.66 71.58-4 107.18-5.49 23.25-.97 46.72-1.6 70.04-1.56v10.92c-7.17.1-14.45-.16-21.63 0-2.07.05-7.54-.58-6.05 1.16.59.7 23.72 2.75 27.68 2.74v21.83c-36.11-3.1-71.79-6.73-108.98-5.45v2.33l108.98 10.93v8.57c-17.8-1.66-36.33-2-54.57-1.6-6.7.15-21.17 1.97-25.75 1.66-1.92-.13-.12-2.5-3.77-3.08-3.32-.53-30.67-.3-36.19-.13-151.27 4.96-195.32 74.36-308.64 103.38-113.56 29.08-309.14 41.4-438.59 38.63-60.2-1.3-93.39-7.64-147.67-16.1-2.06-.31-4.77-.8-3.6.84.45.64 23.08 5.32 26.52 6 97.89 19.16 252.13 17.3 356.07 8.97 98.65-7.9 189.26-22.6 264.34-53.17 66.6-27.11 108.71-67.24 200.63-79.55 27.63-3.7 52.54-4.44 80.93-5.63 1.91-.08 5.88-.92 5.54.55-45.92 6.02-98.32 14.1-137.89 26.35-6.87 2.13-34.2 11.89-36.79 14.6-.87.93.51 1.55 2.56 1.16 2.33-.45 17.95-7.73 22.55-9.33 29.11-10.06 74.9-19.78 110.2-24.4 40.25-5.27 83-6 124.13-2.14v24.18c-110.58.13-220.29 17.07-313.09 43.28 21.03-2.38 41.26-6.95 61.85-10.33 80.21-13.18 164.66-25.02 251.24-22.8v22.6c-66.08 2.8-130.71 6.83-194.09 15.83-117.07 16.61-222.33 46.96-339.06 63.93-97.34 14.16-192.7 17.41-294.5 13.83-3.22-.12-35.4-2.62-35.48-1.16 127.1 18.75 264.51 5.97 386.16-14.63 122.44-20.74 238.52-54.25 367.68-65.84 36-3.23 72.76-4.94 109.29-6.48v24.95l-141.85-2.72c-.09 1.85 3.36 1.64 5.95 2 42.06 5.65 92.22 6.5 135.9 7.74v3.9c-5.04.26-9.7-.68-14.64-.8-111.97-2.79-195.39 2.22-300.59 18.94-59.86 9.5-128.04 21.54-185.98 33.13-2.1.42-5.11.4-5.59 1.77 2.91.15 5.57-.17 8.33-.53 102.8-13.32 195.98-34.88 304.38-42.92 63.71-4.72 129.91-4.12 194.09-1.78v20.27c-33.05-1.95-66.13-2.56-99.44-3.13-45.21-.77-164.06-2.17-188.04 19.74-3.34 3.06-8.73 11.33-1.39 13.8-.93-18.86 42.86-22.08 75.5-24.07 70.2-4.27 143.13.12 213.37 2.24v5.46c-48.4 1.57-96.68 5.44-143.92 10.36-37.22 3.88-75.09 10.2-113.16 12.15-65.84 3.36-145.26-4.29-192.65 22.32 1.43 1.16 4.45.07 6.11-.37 72.08-18.72 127.09-10.59 203.56-15.84 33.92-2.33 66.36-7.7 99.6-11.24 46.69-4.98 93.81-9.24 140.46-14.27v15.6A2096.9 2096.9 0 0 0 1561.58 530c-27.57 3.07-56.23 6.11-80.97 12.62-26.51 6.99-53.57 19.23-33.16 33.7 14.83 10.52 35.35.23 34.92-8.34-8.65-1.2-8.94 3.26-13.85 4.29-13.37 2.8-19.63-6.48-12.1-11.7 16.01-11.1 98.44-21.28 127.65-24.33 47.22-4.94 95.69-8.25 143.93-10.37v24.18c-18.69-1.25-37.51-.38-56.29-.75-39.88-.79-80.43-4.49-118.84 1.73-14.03 2.27-27.2 5.75-41.39 7.85-4.26.63-13.48-.1-13.55 2.47 21.47 3.86 42.21-2.9 62.3-5.45 35.68-4.53 62.9-.26 97.73 1.16 23.19.96 46.77 1.16 70.04 1.57v10.14c-28.44.45-56.44 3.82-84.78 5.07 28.02.43 57.04 1.12 84.78-.39v9.36c-36.02-.27-72.16.35-108.18.03-57.14-.51-123.22-6.76-172.22 10.4-1.93.69-5.31 1-5.02 2.43l31.16-5.45c46.2-6.63 95.26-2.46 142.62-1.92 37.36.42 74.46-.56 111.64-.81v10.14c-60.91 4.73-122.31-2.4-183.37-1.17l116.7 6.66c22.4.06 44.91.27 66.67-2.37v4.68c-91.74 4.88-194.6-4.64-280.83 13.37-5.42 1.13-12.93 2.44-16.68 4.55 64.16-8.67 127.6-11.9 194.67-11.72 4.94.01 9.2.84 13.69.85 29.73.04 59.6.33 89.15-.82v22.62c-12.25 2.05-22.39 6.05-34.63 8.18-51.8 8.95-136.71 4.79-192.84 5.86-2.33.04-7.2-.65-6.05 1.16 76.89 2.32 164.24 9.1 233.52-9.74V660c-111.57 8.18-207.08 37.16-313.48 52.47-38.79 5.58-78.83 9.67-118.61 13.58-49.69 4.9-110.84 11.62-160.54 14.19-63.88 3.3-125.54-2.99-188.35 7.1-3.48.56-28.04 5.2-28.52 5.87-1.17 1.64 1.53 1.16 3.6.83 65.78-10.4 95.96-6.87 163.25-6.66 76.12.24 168.31-9.51 242.78-17.72 39.8-4.39 79.69-9.62 117.91-16.25 93.79-16.28 180.16-43.48 281.96-49.51v16.38c-32.21 1.89-63.85 5.52-94.73 9.93-10.18 1.45-85.33 13.44-86.9 15.43-1.37 1.74 3.58 1.22 5.67.98 11.34-1.26 24.8-4.52 36.25-6.27 45.4-6.95 92.07-12.5 139.71-15.39v10.14l-50.17 4.3c-1.49 1.68 3.97 1.24 6.03 1.15a793.75 793.75 0 0 0 44.14-3.11v4.68c-75.33 8.15-152.53 11.91-228.64 18.18-16.16 1.33-39.45 2.8-54.39 5.11-2.27.35-5.29.22-5.83 1.66 97.29-3.74 192.76-13.73 288.86-21.05v24.96c-5.55 0-63.99 1.28-64.02 2.73 21.13 1.57 42.62 1.15 64.02 1.17v19.5c-17.13 1.3-34 3.5-51.25 4.58-22.21 1.37-48.3 2.12-70.62 2.47-48.11.75-97.23-1.87-144.52 2.7.02.77 30.21 1.9 33.68 1.98 53.36 1.16 126.63-.12 179.94-2.38 17.7-.75 35.31-2.5 52.77-3.89V777h-32.86c-1.8-1.3-4.69-1.47-7.75-1.58-23.03-.82-47.87-.4-71.03.02-3.34.06-6.95-.8-5.98 1.56h-297.5l137.35-17.85c2.81-.9.96-4.17-3.18-3.98L1292.12 777h-62.27c126.74-21.15 261.54-32.37 397.03-33.5 4.59-.04 8.84-.87 13.74-.87 17.81-.01 36.27 1.9 52.77 4.73 2.93-4.59-6.38-4.89-14.66-6.25-54.78-8.98-158.85-3.61-217.68.14-93.03 5.94-188.48 17.23-272.71 35.75H702.3c46.65-6.55 95.58-8.57 144.4-7.79 82.56 1.31 189.59 12.2 268.15 0 2.04-.31 28.11-4.37 23.32-6.25l-90.82 3.89c-84.24 2.44-170.64-6.77-254.33-4.7-42.1 1.03-88.26 6.98-128.76 12.13-4.4.55-11.45.86-13.86 2.72H392.68l161.35-10.3 2.13-.62c2.7-1.54-17.5-2.24-20.8-2.33-63.16-1.79-139.56 4.94-201.22 11.46-3.05.32-6.47-.42-5.45 1.79H147.07l2.76-.72c129-7.83 257.22-17.32 387.3-21.1 109.5-3.19 219.32-.97 328.28-7.18 4.44-.74 5.13-2.57 4.67-4.52l-101.12 3.92c-129.9.58-259.83 3.33-389.23 7.77-104.23 3.59-207.49 12.86-311.29 15.63-22.77.6-45.73-.32-68.4 1.53v-25.74c58.5-8.15 123.8-10.56 178.2-23.77 6.92-1.68 24.8-5.56 24.12-9.32-1.46-8.12-23.44 1.05-31.3 2.96-54.2 13.15-113.8 18.82-171.01 28.57V711.5c7.58 1.48 14.94 3.78 22.83 4.91 7.73 1.1 29.2 2.94 36.86 2.9 8.04-.05 25.56-3.49 15.65-7.86-9.25-4.07-38.45-1.14-52.07-1.48-7.47-.19-15.73-1.26-23.28-1.6v-18.71c26.81 4.82 55.9 9.13 84.36 11.48 103.4 8.56 221.33.28 316.9-18.9 3.85-.78 11.4-2.06 14.36-2.9 7.19-2 3.27-3.43-4.4-2.75-18.6 1.64-42.46 6.36-61.82 8.77C234.75 699.63 114.68 707.1.04 688.1v-8.58c21.59.62 43.54 3.8 64.9 4.67 4.6.18 10.88.96 9.5-1.94-.8-1.65-66.12-4.92-74.4-5.07v-14.04c21.2.2 42.09 2.37 63.16 3.12 94 3.3 233.33 6.75 316.18-14.96 8.09-2.13 18.46-4.67 23.65-8.05-35.42 9.47-74.21 15.67-115.24 18.22-36.23 2.26-70.84 1.58-107 .9A6039.64 6039.64 0 0 1 .04 656.12V617.9a869.12 869.12 0 0 1 44.36-3.79c105.48-6.8 204.99-2.55 309.29-4.82 8.75-.19 32.34 1.8 33.33-2.81 1.3-6.1-21.6-4.3-31.51-4.17-88.31 1.22-178.23-.72-266.17 3.99-30.04 1.6-59.55 4.65-89.3 6.92V591.4c82.14-7.55 160.36-21.24 241.79-30.2 71.65-7.88 147.55-16.03 219.7-22.6 54.88-4.99 114.24-7.18 167.86-13.21 6.46-.73 10.02-1.33 5.5-4.62-26.38 1.1-53.54 3.25-79.95 5.37-101.84 8.2-208.31 18.63-309.3 28.99C161.9 563.7 83.25 577.1.04 585.94v-19.5c3.49.2 6.71-.2 10.07-.51 139.36-13.51 276.5-33.49 416.83-45.25 65.53-5.5 132.31-8.67 198.46-11.9 6.86-.34 8.77-2.19 1.59-3.19-33.4.45-65.84 4.36-98.76 6.17-25.16 1.38-50.72 1.3-75.87 2.44-55.26 2.53-108.05 8.57-161.76 14.41C193.3 539.21 97.27 551.94.04 562.54v-5.46c30.81-1.21 58.99-6.75 85.92-13.13 3.82-.9 13.46-4.37 15.62-4.66 5.62-.72 16.53 1.1 11.08-4.47-5.45-5.58-8.86 2.53-9.96 2.8-2.14.54-9.93.9-13.64 1.5-29.57 4.8-58.2 10.96-89.02 14.06v-15.6c11.63-.02 94.85-2.07 96.88-4.3 1.15-1.25.87-1.87-2.56-1.94-32.1-.75-62.68 1.53-94.32 3.12v-19.5c7.06-.7 14.27-1.42 21.54-1.6 45.29-1.1 88.73 3.24 134.98 1.6 60.41-2.16 123.03-8.9 183.6-12.36 100.8-5.76 222.1-8.78 322.73-2.24 72.35 4.7 136.44 24.21 210.65 21.23.1-1.5-18.15-1.07-21.41-1.27-48.12-2.94-87.72-13.17-132.61-19.76-104.04-15.29-279.15-10.43-387.96-3.41-54.84 3.53-111.59 10.13-166.36 12.34-54.99 2.22-111.23-1.85-165.16 3.91v-5.46c10.11-.26 21.62-1.86 31.1-3.52 7.29-1.28 18.6-3.04 22.53-6.22.1-2.18-49.5 3.53-53.64 5.07v-28.08l111.28-2.3a2.38 2.38 0 0 0 0-4.75c-37.3-.47-74.36 1.13-111.28 3.15v-18.72c61.96 1.41 124.25 3.23 185.7 7.13 27.05 1.72 54.22 5.32 81.55 6.12 1.95.05 16.38.78 14.7-1.16-.61-.7-25.77-1.99-30.83-2.49-16.96-1.67-33.26-4.5-50.12-6.25-65.35-6.8-134.06-7.96-201-8.81v-16.38c56.54 1.15 113.73 1.9 169.87-1.79 82.48-5.43 147.38-16.08 233.45-11.21 2.43.14 5.53 1.43 4.9-.64-88.52-12.02-177.6 4.55-265.54 8.95-47.32 2.36-95.1 1.35-142.67 1.57v-9.36c36.71.48 74-2.95 109.34-7.24 33.32-4.05 77.29-10.46 109.05-16.34 5.19-.96 14.64-2.46 16.86-4.88-1-1.03-4.51.1-6.1.37A1602.11 1602.11 0 0 1 .03 412.79v-36.66c32.1.22 63.78-2.52 95.15-5.07.01-1.95-3.36-1.64-6.05-1.96-7.2-.84-21.6-1.34-29.45-1.53a843.9 843.9 0 0 0-59.65.77v-22.61c22.65-1.39 45.56-.51 68.39-.75 57.28-.61 112.05-.9 169.42 1.53 26.62 1.13 55.02 3.91 81.33 4.67 12.66.36 13.37-1.15 1.78-3.14-57.53-9.9-169.27-8.3-231.92-7.02L.02 344.17v-18.73c16.93 1.17 33.94.54 51 .8 88.62 1.32 177.6 1.89 266.46.8 352.2-4.33 700.9-32.9 1053.24-35.95 76.75-.66 158.39 2.68 233.65.86 7.16-.18 15.25.13 12.91-3.94-40.08-.26-80.2-.4-120.3-.75-70.99-.6-141.58-.92-212.6 0-181.4 2.34-360.85 13.63-541.48 20.24-174.97 6.4-352.17 10.59-527.47 11.73-71.83.47-143.83-.15-215.42-.8v-13.27l75.17 2.38c70.53-.55 142.8 1.45 212.57-3.27 3.81-.25 26.49-1.93 27.07-2.63 1.6-1.88-11.12-1.24-13.05-1.19-43.22 1.05-86.22 3.44-129.74 3.2-26.9-.16-54.3-2.04-81.14-2.42-30.23-.42-60.66.38-90.88.03v-2.34c39.54-.03 85.84 1.55 120.63-8.36 3.34-.95 3.14-3.23 1.2-3.35-40.26 2.96-80.5 7.45-121.83 6.25v-20.27l77.84-4.3c.79-1.63-7.54-1.54-10.03-1.71-22.3-1.54-45.22-1.93-67.81-1.79v-15.6c27.38.11 54.83-.13 82.23-.03 47.57.18 93.97.6 141.75-1.53 71.52-3.18 140.85-12.46 212.78-14.8 6.88-.23 13.9.15 20.79 0 3.57-.09 3.14-.46 2.55-1.95-1.45-3.7-152.31 7.46-165.4 8.09-71.94 3.4-145.74 2.58-217.65 2.4-25.7-.07-51.56-.32-77.06.81v-9.35c23.14 1.78 46.64 3.79 70.07 4.67 38.12 1.43 81.13 1.34 118.8-1.8 5.78-.49 16.67-1.09 21.44-2.03 7-1.38 5.38-3.89-1.86-4.03-69.12 5.7-139.46 3-208.45-1.5v-11.7c11.51.69 25.82 2.19 37.28 1.6 8.1-.4 8.2-3.4 1.62-3.92-12.18-.97-26.44-.77-38.9-1.57v-35.09l96.87 7.01c-.44-1.16-3.17-1.5-5.2-1.94-10.14-2.2-29.82-4.91-41.12-6.42-16.46-2.18-33.38-4.29-50.54-4.9v-7.01c77.62-1.13 155.74 2.77 229.29 14.02 17.07-6.36-4.54-8.13-16.55-9.73-67.92-9.04-142.25-11-212.74-8.97v-10.14c54.44-9.1 108.51-13.93 166.9-10.91 36.74 1.9 80.55 9.92 117.15 6.02 25.75-2.75 12.21-6.86-6.47-7.57-40.03-1.53-83.88-4.66-122.8-5.47-55.07-1.14-102.87 5.8-154.79 12.47v-7.01l162.59-14.44c1.78-3.82-27.77-2.92-33.7-2.7C86.4 121.9 43.42 131.85 0 132.04v-12.47c28.08-.64 58.23-3.44 82.5-10 2.47-.66 8.82-2.37 9.28-3.62.4-1.07.76-2.34-2.7-1.99-27.73 6.66-57.77 10.42-89.08 11.7V98.53c12.16 1.78 9.99 5.45 11.27 10.15 25.06-3.65 51.64-5.08 77.82-6.25 10.45-.46 22.06-.1 32.9-.76 2.59-.16 5.32-.1 6-1.57-24.43-.87-50.43-1.5-74.76.2-12.09.85-22.52 3.25-34.2 3.7 2.8-5.93-7.97-7.33-19.03-7.03v-6.24c46.08-.09 93.15 3.1 138.38-1.96L.02 87.58v-9.35C61.26 73 122.16 80.63 182.7 83.6c32.74 1.6 60.4 1.75 93.2.87 2.27-.06 7.29.65 6.06-1.16-34.57-2.57-69.7-3.62-104.38-5.98-58.77-4-117.55-12.33-177.57-6.9V59.51c18.13-1.24 36.43-2.93 54.7-3.8 78.73-3.78 171.5-3.3 248.37 5.58 33.88 3.92 61 6.8 95.45 10 5.19.48 15.12 3.87 11.52-1.94-1.42-2.3-46.15-4.05-53.81-4.72-41.07-3.6-73.93-10.37-118.64-12.8A1689.9 1689.9 0 0 0 .02 55.63V40.8c6.59-.1 13.28.17 19.88 0 70.6-1.95 140.37.35 210.52-5.69 5.85-.5 47.13-4.58 48.1-5.61 1.78-1.92-.63-2.1-4.29-1.95-75.5 2.98-151.06 5.49-226.66 7.01-15.83.32-31.73.46-47.55.79V25.2c9.99 1.15 20.23 3.1 30.45 3.82 36.72 2.56 74.54-2.48 110.77-4.48 36.15-2 72.4-3.19 108.43-5.7C295.97 15.6 341 9.6 386.85 6.6c72.57-4.75 150.3-4.42 222.04 2.61 6.28.62 75.2 10 76.1 7.03 1-3.38-6.85-2.56-11.77-3.28C638.1 7.86 596.52 1.5 559.55.27c-49.5-1.66-130.4-1.65-179.93-.04-50.69 1.66-115.4 10.88-168.21 14.63-29.01 2.05-58.37 3.23-87.47 5.01-41.4 2.5-81.56 7.74-123.92 4.55v-2.35l38.92 1.56c21.71-.95 41.2-1.13 61.82-4.87 4.72-.86 12.43-1.54 13.44-4.08-38.11-1.5-76.15 1.2-114.18 1.94V-.54h6.92ZM1468.5 4.14c-14.49.4-30.34 3.16-44.13 5.44-7.85 1.3-17.75 2.73-25.04 4.35-2.47.54-4.34-.18-3.46 1.9 20.02-4.15 48.07-5.16 67.44-8.96 2.78-.55 5.82-1.03 5.19-2.73Zm-446.26 13.27c-26.38-6.55-55.07-8.79-84.74-10.15-4.3 2.09 8.36 3.44 11.34 3.85 23.7 3.3 49.78 2.92 72.52 7.86l.88-1.56Zm127.89-1.5c-1.48-1.1-18.62-.8-22.76-1.07-10.48-.7-20.74-2.2-30.74-3.68-.95 2.07 1.16 1.34 3.41 1.93 7.6 2.02 22.05 4.36 30.75 4.88 2.99.18 18.79.51 19.46.2.18-.1.22-2.03-.12-2.28v.01Zm-88.97-2.41v.78c1.13-.26 1.13-.52 0-.78Zm-358.9 5.45c89.48.42 178.35-1.93 266.94 4.03 27.44 1.85 54.41 4.9 81.84 6.77 54.76 3.72 110.13 5.63 164.32 10.99 13.97-1.56.59-4.75-5.86-6-39.26-7.66-93.23-6.06-136.01-8.1-50.51-2.4-100.09-8.26-150.72-10.03-65.02-2.28-130.25.74-195.42.78l-25.09 1.55Zm-206 .85c-.77-.41-20.25-2.12-23.38-2.31-39.63-2.47-111.62-.62-148.86 6.01-1.84.33-5.98.64-5.74 1.69 33.31-3.72 66.63-5.68 101.16-4.67 14.18.41 29.39 2.27 43.49 3.01 5.84.3 31.43 2.12 33.25-.4.48-.65.75-2.98.09-3.33Zm58.97 2.28c-1.06-.49-28.09 3.1-29.37 3.52-1.8.6-2.65 2.31-1.75 2.7 2.32 1.05 36.7-.89 31.12-6.23v.01Zm64 .78c-26.83 2.93-51.04 7.42-78.92 9.26-1.57.1-18.36-.28-12.74 1.65 11.49 1.48 87.93-5.33 91.4-7.9.93-.69 0-2.1.25-3Zm-302.7 2.34c-1.33-.22-14.26.8-10.36 2.33.69.26 10.4-1 10.37-2.33ZM1088 33c-1.9-.73-43.07-2.83-49.32-3.11-82.55-3.78-195.56-8.07-276.19-2.1-49.75 3.68-98.27 9.5-148.85 13.23-3.11.23-7.82.2-6.5 2.12 57.65 3.23 113.87-6.89 170.62-10.02 95.51-5.29 191.2 6.71 286.86 3 5.22-.21 16.61-.74 20.97-1.47 1.74-.3 5.34-.54 2.41-1.64V33Zm437.62-3.9c-13.41-1.09-26.73-.07-40.11 1.02-18.39 1.5-39.36 3.95-57.75 5.97-2.94.32-5.03-.77-4.2 1.58 34.12-1.77 67.36-6.66 102.06-6.24V29.1ZM487.53 35.45c-5.03-3.75-88.58-4.56-101.78-4.01-2.75.93-.03 1.42 2.55 1.56 16.95.9 35.1.68 51.91 1.56 16.8.88 31.63 3.08 47.58 3.89-.27-.91.67-2.3-.26-3Zm52.34 13.05c-.64-.28.08-2.02-1.83-2.66-1.28-.42-8.99-.84-11.58-1.03-26.93-2.03-57.13-1.92-84.5-3.24-35.66-1.7-71.21-4.8-107.18-5.48-10.04-.2-26.97-.52-36.42.03-2.38.14-5.45.6-2.58 1.56 29.65 1.09 59.33 2.28 88.84 4.01 47.56 2.8 94.68 8 142.94 7.7l-26.82 1.54c-82.07 1.39-162.29-8.54-243.8-10.16-37.85-.76-73.83 1.23-110.7 1.62-41.82.45-84.11-1.36-125.48 1.53.11 1.35-1.16 1.64 2.18 1.38 42.78-3.34 86.57.75 130.22.22 62.17-.78 113.7-1.3 176.12 2.4 55.62 3.32 107.95 6.53 164.48 7.73 11 .24 58.4-.83 63.15-5.9 3.9-4.16-14.46-.15-17.05-1.25Zm693.4-2.26c2.53 1.1 60.57 5.49 68.81 6.03 9.61.64 21.13 1.42 30.67 1.77 5.11.2 25.3.93 27.8.07 3.82-1.31 3.57-3.66-1.87-3.95-41.34-.75-82.52-2.1-123.23-5.28-3.48-.28-3.05 1-2.17 1.37h-.01Zm-660.74 3.92c-31.29 4.72-62.84 10.08-96 11.69-37.85 1.83-73.35-1.97-110.7-3.1-2.36-.08-10.7-.67-11.22.76 40.11 4.89 83.77 6.58 125.37 5.46 26.46-.71 60.24-3.82 82.74-10.27 3.1-.89 9.72-2.65 9.8-4.53l.01-.01Zm72.66 42.88c39.71-2.9 80.02-5.1 119.36-8.95 91.11-8.92 176.69-28.62 272.48-26.95 44.96.8 89.25 5.94 133.4 9.27 31.4 2.36 60.76 2.77 91.88 6.92 3.9.53 22.42 4.24 23.69 4.12 13.04-1.16-15.16-6.41-17.67-6.83-32.97-5.54-70.22-5.62-104.6-8.21-50.44-3.8-97.03-9.35-149.24-9.12-86.22.37-170.19 16.58-252.67 25.66-27.72 3.05-56.77 4.7-84.14 8.08-10.42 1.29-24.66 2.78-32.49 6Zm204.09-38.99c-28.58 1.16-54.35 5.78-80.18 11.03-31.86 6.46-46.26 12.8-83.3 13.92-11.31.34 1.67 3.72 8.67 3.75 20.31.07 75.73-14.8 97.76-18.94 15.74-2.96 32.31-4.57 48.32-7.07 2.83-.45 9.91-.78 8.73-2.69Zm-88.21 3.9c-2.92-1.36-24.04 3.78-27.87 5-.93.3-6.32.89-3.25 2.01.95.35 19.04-3.57 22.86-4.12 2.9-.42 12.92-.7 8.26-2.89Zm297.52 3.9c-20.07-.28-41.45-2.5-61.5-2.37-47.8.3-110.41 15.03-157.28 21.88-33.32 4.88-68.76 8.3-101.68 13.43-3.25.5-11.15.82-9.9 2.93 23.95-1.53 47.57-3.75 70.9-6.63 54.56-6.73 115.58-20.77 168.1-25.59 26.91-2.47 48.62-.56 74.74-.6 4.65-.02 11.06-1.37 16.62-.71v-2.33Zm-368.44 3.12c-3.03-1.44-74.82 8.87-85.93 8.47l-4 1.66 88.83-6.99c1.92-.22 1.34-3.03 1.1-3.14Zm38.05 0c-1.89-.85-5.33.7-3.44 1.55 1.89.85 5.33-.7 3.44-1.55Zm-5.19 1.56c-1.89-.85-5.33.7-3.44 1.55 1.89.85 5.33-.7 3.44-1.55Zm-55.34 10.14c-24.62.62-48.97 3.03-73.53 3.89-66.41 2.32-131.17-3.9-197.18-5.45-65.54-1.53-131.8.83-196.92-3.23a751.6 751.6 0 0 1-40.88-3.79c-.86 2.29 1.2 1.26 4.03 1.65 81.13 11.19 167.56 7.93 251.07 10.84 77.09 2.69 169.17 14.45 242.98-.43 3.13-.63 11.43-1.54 10.43-3.48Zm49.3-8.58v.78c1.13-.26 1.13-.52 0-.78ZM861.4 93.04c101.1-7.74 218.67-18.12 315.97 1.43 8.78 1.76 16.39 4.73 25.47 5.56 10.83-1.3-11.54-8.65-14.69-9.65-76.24-24.22-206.2-13.83-290.8-3.35-10.04 1.24-22.72 2.57-32.15 4.26-2.63.48-4.67-.45-3.79 1.76v-.01Zm821.58-10.91c-50.56 8.79-101.87 13.33-156.5 11.69-17.54-.53-35.8-2.8-53.08-4.15-1.78-.14-5.3-1.23-4.87.25 7.43 1.32 13.95 3.5 21.54 4.72 40.54 6.47 128.72 3.65 169.16-3.34 8.27-1.43 27.14-4.4 23.76-9.17h-.01Zm-465.26 5.45c1.12.5 25.99 4.38 29.76 4.91 17.66 2.46 41.2 5.51 56.75-.6 3.65-1.44 9.1-4.98.95-5.07-5.16-.06-20.71 2.88-29.46 3.13-4.88.14-10.52.05-15.41-.13-12.92-.47-28.51-3.55-40.03-3.8-2.92-.07-4.28.78-2.57 1.55h.01Zm140.07.03c-2.64-1.8-17.51.44-15.53 3.87 2.33-.76 15.02-1.3 15.57-1.56.17-.09.16-2.17-.04-2.3Zm-387.43 7c-1.84-.84-42.4 7.11-48.8 8.01-116.8 16.51-200.51 1.78-312.36-8.56-69.41-6.41-126.93-3.59-196.72-1.77l-42.33-3.54c3.66 2.94 14.07 4.93 20.8 6.22 48.9 9.41 122.1 2.77 177.26 5.1 130.05 5.47 222.53 25.6 358.54 5.67 5.94-.87 39.38-6.5 41.93-7.6 1.71-.76 2.49-3.17 1.68-3.53Zm486.03-2.34c-1.43-.63-34.57-1.94-39.77-2.34 3.92 1.95 12.38 3.2 17.86 4.03 3.42.51 20.16 3 21.93 2.2-.32-.87.54-3.64-.02-3.89Zm-1084.5 7.8c5.22-2.01-22.2-6.4-24.17-6.65-16.46-2.05-33.41-1.66-50.19-2.7-.84 2.39 1.36 1.24 4.32 1.52 23.78 2.28 45.94 6.64 70.04 7.82Zm659.02-6.25c60.19-3.04 112.93 11.54 168.97 18.57 5.92.07 8.48-4.81 2.85-5.96-53.99-5.57-109.88-19.64-166.66-13.77-1.92.2-5.59 0-5.16 1.16Zm-1.75.01c-2.42-.56-4.61.5-3.44.77 2.43.56 4.62-.5 3.44-.77Zm-612.29 16.38c-55.34-3.2-111.05-14.05-166.93-15.6-71.95-1.99-118 19.55-185.05 24.97-2.87.24-2.97-.48-2.6 1.53 54.76-.73 103.88-19.12 158.28-20.25 59.92-1.25 125.7 14.43 186.58 11.58 1.56-.07 13.99-.8 9.73-2.23Zm434.16-12.48c-21.1-.19-42.1.11-63.13.78-17.35.54-37.95 1.41-55.17 2.42-1.87.11-8.09.3-7.97 1.46l126.27-2.33v-2.33Zm774.87 24.17c-14.77.15-29.3 2-44.02 2.37-40.53 1.04-83.14-2.3-122.38-6.5-64.12-6.84-127.81-20.24-195.1-16.93v2.33c66.45 2.85 130.4 12.54 195.1 19.28 50.51 5.26 107.7 10.75 158.14 2.34 2.94-.5 9.51-.95 8.26-2.9v.01Zm-560.41-14.8c-73.56 4.94-145.88 13.2-219.3 18.47-50.32 3.61-88 5.95-139.06 1.54-53.42-4.61-124.22-21.5-177-18.47-2.39.14-5.14.46-2.57 1.55.96.4 21.35 2.32 25.54 2.92 58.37 8.33 123.53 22.53 184.63 24.38 59.74 1.79 121.1-10.36 179-16 46.3-4.5 98.09-6 142.74-12.85 1.93-.3 6.26-.43 6.01-1.56l.01.01ZM525.83 121.9c-56.5-.85-112.03 6.56-168.61 4.66-55.8-1.87-107.37-17.1-164.43-14.85-2.65.1-6.2-.13-7.68 1.22-1.72 1.59 3.72 1.16 5.56 1.37 37.5 4.42 74.26 10.03 111.67 14.39 86.8 10.11 135.17.73 218.76-5.43 1.56-.12 5.2-.33 4.73-1.36Zm1018.59 14.12c-47.48-4.1-94.6-9.9-142.74-12.46-165.42-8.77-328.65 10.38-492.73 14.7-4.6.13-40.66-.53-40.65 1.18 167.2 2.94 333.59-13.15 500.83-10.56 29.2.46 66.17 1.4 94.89 3.24 10.47.66 77.7 8.3 80.61 6.93l-.2-3.03h-.01Zm-1324.73 15.5c1.09.48 25.7 3.88 29.38 4.3 56.74 6.47 111.28 1.98 166.8-4.36 56.25-6.42 110.96-16.29 169.27-18.82 5.86-.78 6.97-5.11.4-5.32-5.62-.17-28.26 2.08-35.55 2.73-101.52 9.01-193.68 32.49-300.96 23.45-9.12-.78-18.37-2.56-27.04-3.42-3.32-.33-3.2 1.02-2.3 1.43Zm819.87 1.57c-32.24-.1-64.03 3.84-96.02 4.67-54.38 1.4-115.21-1.6-169.25-4.79-60.45-3.57-120.27-9.5-180.99-12.36-.84 2.34 1.26 1.26 4.2 1.58 57.66 6.34 123.67 12.13 182.28 16.9C848 164.63 926.74 170.3 994.93 163c8.07-.87 38.25-4.85 43.54-6.72 2.17-.76.81-2.12 1.09-3.19Zm105.5 14.8c102.15-17.91 204.51 1.4 293.48 24.05 21.32 5.43 67.7 20.8 89.73 21.22 23.07.44 23.52-9.46 16.66-16.93-37.01-40.31-202.38-51.49-286.64-50.2-107.14 1.64-202.24 18.38-303.46 31.63-43.34 5.67-88.22 9.21-130.18 16.95l-16.86 3.7c127.95-6.04 244.65-33.6 371.28-42.77 92.81-6.71 292.7-6.17 350.71 34.26 5.3 3.69 20.67 17.15 4.9 18.5-23.94 2.07-86.54-18.8-108.88-24.66-73.66-19.3-158.86-32.1-244.42-22.38-11.73 1.33-27.21 3.15-36.31 6.63h-.01Zm-983.32-17.15c-10.15-.46-21.68.34-32 0-2.6 5.22 16.6 5.61 25.3 6.14 25.19 1.53 50.69.53 72.41 7.9 2.84-.75-.5-1.72-1.69-2.35-10.62-5.6-47.85-10.95-64.02-11.69Zm1408.83.79c.44 2.84 12.4 2.96 18.18 3.89 15.73 2.5 38.89 8.4 55.32 7.02 4.54-.38 6.04-2.39 3.59-3.95-1.93-1.22-12.45-.59-16.94-.94-20.37-1.57-39.13-6.08-60.14-6.01l-.01-.01ZM115.92 184.28c82.9.45 165.07 8.1 247.91 3 7.97-.5 39.15-3.95 43.34-3.58 2.68.23 11.26 5.19 15 6.39 36.44 11.7 86.48 4.55 127.04 3.56 39.19-.95 93.72 3.72 121.1-12.47 14.65-8.65 6.98-17.23-14.75-20.68-96.3-15.29-222.11 15.11-319.34 20.57-72.06 4.04-142.47 1.1-214.28 2.44-2.1.04-6.43-.59-6.02.77Zm1405.78 13.07c4.52-1.95-.07-4.05-4.15-5.15-9.99-2.67-27.98-4.56-40.42-7.5-35.08-8.3-67.76-22.64-110.66-20.67l36.26 5.86c30.59 4.82 54.13 16.6 80.79 23.62 7.61 2 30.94 6.97 38.18 3.85ZM999.78 164.8c-72.2 3-144.36 8.76-209.34 23.77-98.55 22.75-138.21 40.5-260.26 37.05-43.22-1.22-99.4-12.76-139.65-6.8-10.51 1.55-27.96 6.37-30.73 11.48 10.37-2.13 19.36-4.8 30.76-6.01 42.48-4.54 94.49 7.91 139.62 9.12 127.46 3.42 165.5-18.53 267.18-41.73 61.41-14 133.92-22.02 202.42-24.55v-2.33Zm-220.54 12.47c11.95-.55 27.35 0 39.78 0 1.08 0 2.67-1.31 2.66-1.96 0-4.43-36.43-7.53-44.07-7.43-34.82.46-39.44 12.52-58 22.27a199.57 199.57 0 0 1-18.25 8.15c-3.17 1.2-12.77 3.19-13.86 3.9-6.1 3.9 7.9 1.75 11.26 1.17 33.22-5.67 38.72-24.2 80.47-26.11Zm364.09-9.35c-2.43-.56-4.62.49-3.45.76 2.43.56 4.62-.49 3.45-.76Zm186.8 13.25c.85-.37.14-2.86-2.95-2.95-39.25-3.15-80.16-11.27-120.7-9.51-3.56.15-15.75 1.4-6.94 2.32 21.24 2.23 44.99 4.15 66.56 5.88 8.01.64 61.69 5.27 64.03 4.27v-.01Zm-614.08-10.13c-.33-.1-4.9-.08-5.1 0-.65.25-3.69 5.76-5.44 7.3-35.08 31.07-142.52 27.84-208.2 25.44-54.89-2.01-126.33-12.67-179.02-5.84-2.33.3-8.3.7-8.65 1.93a574.15 574.15 0 0 1 81.3 1.17c22.41 1.9 44.5 5.57 67.02 7.22 65.74 4.84 210.4 7.16 249.83-22.66 2.87-2.17 13.51-13.01 8.26-14.57v.01Zm378.84 4.67c-3.17-1.35-17.07 1.74-20.79 2.74-2.22.6-4.36-.14-3.4 1.94 2.61-.8 31.56-1.54 24.19-4.68Zm524.71 16.65c1.76-.87 18.49-6.88 8.68-8.02-2.02-.23-6.85.72-10.08.76-8.06.1-17.92.23-25.81-.13-19.21-.88-37.18-5.59-56.41-6.13l41.51 7.4c12.5 1.38 24.99 3.2 38.04 2.73-11.13 5.81-25.09 12.46-43.23 12.47-2.09-6.35 11.22-4.53 15.6-5.83 8.73-2.56-10.29-6.3-20.04-2.02-3.68 1.62-4.3 10.94.34 11.64 18.64 2.78 40.31-7.45 51.4-12.88Zm-934.63 39.5h26.81c32.78 0 101.77-17.05 139.56-21.3 118.76-13.37 239.17-23.54 362.12-22.4 35.07.31 75.99.55 110.61 1.6 41.28 1.23 77.42 10.9 118.51 10.9v-2.33c-36.41-.63-69.85-9.74-105.09-12.28-28.92-2.09-58.74-.92-87.76-1.77-28.75-.84-57.55-3.5-86.42-3.92-85.82-1.26-206.44 10.45-290.16 20.53-64.79 7.8-120.53 26.5-188.2 28.64l.02 2.33Zm-316.54-22.6c-11.53.38-22.19 2.66-33.75 3.1-41.13 1.56-80.64-3.57-121.06-5.44-13.93-.65-29.8-.16-43.2-.8C119.03 203.7 68.56 198.24 17.3 196c.43 1.1-.86 4.03.21 4.6 2.1 1.08 36.86 4.78 42.72 5.3 50.64 4.39 100.7 4.46 151.64 6.48 47.53 1.9 105.3 13.2 149.5.32 2.8-.82 7.56-1.57 7.05-3.44Zm1018.78-4.69c-23.8 1.5-48.02 5.3-72 6.13-48.49 1.68-95.36-5.04-143.36-6.13-54.89-1.23-110.56 1.64-165.18-1.17-.25 1.55 3.24 1.7 5.53 2.19 35.7 7.45 117.42 4.82 159.66 6 54.23 1.5 167.71 10.89 211.43-4.51 2.11-.75 4.69-.91 3.92-2.52v.01Zm72.65.78c-1.86-.92-45.7 7.12-52.29 8-77.56 10.46-160.58 11.21-240.87 8.37-83.47-2.96-185.09-14.92-265.89-6.79-31.64 3.19-57.34 7.25-90.45 9.14-2.36.13-5.5.55-2.58 1.55 40.85.94 80.1-5.14 120.23-7 63.1-2.93 130.75 3.73 193.71 6.22 99.94 3.96 207.06 5.2 302.72-10.12 6-.96 31.02-5 34.35-6.18 1.7-.6 1.44-3 1.07-3.19Zm-552.23 22.41c3.77-1.76 1.4-6.1-3.79-6.06-45.78 9.58-94.56 16.97-145.3 18.74-2.86 1.77-.37 2.59 3.48 3.09 28.18 3.66 77.64-3.35 105.03-7.95 5.19-.87 39.03-7.08 40.58-7.82Zm282.4 8c-63.11-.8-126.17-2.23-189.47-1.53l-82.1-3.14c.24.89-.99 1.74 1.04 2.4 3.66 1.2 27.5 3.67 33.55 4.23 72.35 6.73 146.26 2.6 218.81-.4l18.16-1.55h.01Zm275.02.78c-117.91.13-235.01 7.06-351.76 13.35-323.21 17.44-645.8 40-972.33 42.8l-2.56 1.56c7.37-.43 14.3.65 21.53.82 55.44 1.28 112.56-.66 167.8-1.63 299.83-5.3 596.86-26.6 894.32-42.86 71.61-3.91 143.37-6.93 214.7-11.6 8.43-.56 17.63-.46 25.75-.89 2.59-.14 5.26-.63 2.55-1.56v.01Zm-721.26 3.12c-52.28.12-104.4 1.76-156.62 1.6-61.19-.2-102.96-.45-161.62 9.73-9.24 1.6-21.85 4-29.44 6.6 35.75-2.92 69.84-10.55 106.4-11.68 71.3-2.21 155.67 8.1 223.6-1.35 2.64-.36 17.08-2.24 17.67-2.57.38-.21-.22-1.69.01-2.33Zm176.4.01c-26.46 1.84-51.44 6.53-77.46 9.12-84.45 8.41-170.07.27-256.93 5.82-64.02 4.1-165.9 11.38-225.18 20.92-6.83 1.1-16.46 2.48-21.59 4.68 46.32-6.35 94.95-6.98 142.45-10.25 55.98-3.85 113.07-10.33 169.69-11.62 64.68-1.47 132.05 6.76 193.82-4.63l75.2-14.05v.01Zm-58.78 18.7c24.55-2.75 51.66-5.51 76.98-6.23 16.25-.46 43.14 1.4 57.19-1.5 7.07-1.47 4.59-2.35-.98-3.58-24.62-5.44-91.67 2.36-117.09 7.27l-16.1 4.04ZM102.08 280.2c19.29-.19 38.7.26 58 .04 46.7-.54 152.76-1.21 189.18-13.75 3-1.03 11.41-4.6 12.67-5.98 1.61-1.75 3.1-6.21-2.74-5.94-1.9.08-26.45 7.33-32.82 8.62-49.73 10-105.48 8.77-157.94 13.8l-66.35 3.2Zm991.08-7.79-55.28 7.43c-65.8 6.37-132.36.2-198.12-1.97-47.3-1.56-103.56-2.03-139.22 14.03 45.47-7.78 90.65-9.74 139.22-8.56 76.32 1.84 178.1 17.94 245.34-6.39 1.5-.54 10.33-3.62 8.07-4.54h-.01Zm-755.86 7.8c-2.43-.56-4.62.5-3.44.77 2.42.56 4.6-.5 3.44-.77Zm399.56 14.81-9.06.2a1420.9 1420.9 0 0 1-263.52 6.88c-2.98-.61-3.22 1.13-2.43 1.49 2.9 1.31 63.14 5.12 71.79 5.46 57.37 2.23 129.25-.77 184.57-8.02 7.8-1.02 20.85-1.3 18.65-6.01Zm432.41 16.38c-29.66.87-59.37.39-89.14.74-139.97 1.68-279.4 10.34-417.97 19L640 334c38.7 1.26 78.05-.08 116.74-1.55 134.3-5.13 269.18-12 402.82-19.59 2.09-.11 9.45-.34 9.71-1.46Zm209.3 34.31c61.33 2.19 88.37 6.33 148.19-5.32 37.85-7.37 100.29-28.24 139.65-25.8 5.18.32 19.29 4.18 20.03 3.83 5.44-2.62-16.71-5.8-20.32-6.03-39.31-2.4-112.06 21.24-154.37 26.7-66.66 8.6-120.17-1.58-184.28.36-4.63.14-37.4 2.55-38.85 3.16-6.47 2.71 15.16.76 16.37.74 21.5-.28 44.43-.5 64.93 1.6-10.71-.23-26.09-.48-35.92 1.32-2.12.39-1.91 1.63-3.33 1.78-8.15.82-25.75.31-35.77.89-82.4 4.75-158 16.75-238.02 25.26-135.9 14.45-279.35 20.52-399.44 56.2-3.02.9-21.34 5.46-17.43 7.34 39.42-8.82 78.35-18.03 119.37-25.33 98.39-17.53 187.25-22.66 288.85-32.76 77.71-7.72 157.7-20.93 236.3-25.25 27.65-1.52 83.92-3.39 108.36 2.42 14.31 3.4-5.75 16.8-11.88 20.81-44.17 28.91-146.02 43.19-220.05 50.52-35.47 3.52-83.39 8.83-117.92 2.96-40.94-6.96-5.94-15.05 14.92-19.77 44.09-9.98 83.35-14.6 132.96-15.7 41.16-.91 101.41 3.18 135.62-9.04 7.74-2.76 9.49-4.03 18.11-6.64 3.5-1.05 10.02-7.53 9.39-9.5-1.97-6.17-26.05-1.89-30.78 2.17 4.9-.2 23.25-2.54 13.79 1.54-2.54 1.1-31.07 7.51-35.54 8.16-35.65 5.13-93.51 4.55-132.86 7.16-39.97 2.66-105.46 11.93-137.58 22.98-42.87 14.73 5.79 25.3 38.98 26.73 105.03 4.53 303.71-32.46 355.37-75.88 1.48-1.23 1.4-3.4 1.68-3.52.92-.43 21.94.1 26.54-.13 31.78-1.58 70-12.26 97.9-19.02-1.2-1.08-4.66.02-6.37.25-44.78 6.14-73.39 15.2-124.28 13.43-16.98-.6-26.58-5.98-42.32-8.6v-.01Zm105.27-24.08c-213.33-2.03-425.8 8.2-636.9 20.3-196.09 11.22-391.13 25.72-586.86 37.98-81.78 5.12-167.83 8.18-248.6 14.26-2.03.15-8.05.23-8 1.44 75.3-2.6 150.5-6.25 225.5-10.23 407.83-21.62 806.11-51.77 1217.83-59.2 9.36-.18 28.74.88 36.11.07 2.95-.33 2.64-3.62.91-4.62h.01Zm73.75 17.06v.78c1.13-.25 1.13-.52 0-.78Zm-3.46.78v.78c1.13-.25 1.13-.52 0-.78Zm-863.97 8.58c.52-2.35.08-4.07-5.97-3.93-84.54.46-169.4-1.1-253.48 1.6-.25 1.82-.57 1.37 2.56 1.56 5.85.33 12.88-.18 19.04 0a3566 3566 0 0 0 70.87 1.58c55.7.51 111.34-.84 166.99-.82Zm418.59 4.69c-196.67-3.22-380.35 32.85-571.91 45.9l-73.26 4c23.94.18 47.93-.5 71.76-1.56 192.74-8.5 378.79-42.15 573.41-46v-2.34ZM448 354.3c-36.4-1.1-71.93 3.84-108.03 4.7-40.8.98-80.61-1.74-121.07-2.4-26.6-.44-53.3.84-79.56.84-26.26.01-54.9-2.19-81.44-.84-2.6.13-5.34.16-6 1.58 30.7 1.63 61.74 1.2 92.53 2.36 38.98 1.48 72.23 4.39 112.51 3.93 62.43-.71 123.33-4.13 185.01-8.61 2.58-.19 5.34-.04 6.05-1.55v-.01Zm521.5 88.9c8.52.39 18.15-.29 26.81 0 .25-1.86.57-1.38-2.58-1.56-29.23-1.68-67.93-4-52.35-22.04 16.91-19.6 84.69-26.34 125.49-30.77 57.93-6.3 118.54-9.93 177.12-15.29 20.39-1.86 41.12-5.16 61.58-6.55 23.86-1.61 47.38-.7 71.27.55-.54-1.44-3.56-1.3-5.82-1.65-49.13-7.6-109.53 2.51-158.17 6.87-90.85 8.15-201.96 11.15-281.06 33.93-24.7 7.12-49.14 18.94-41.53 33.24 4.23 7.93 26.88 13.26 43.34 14.77 102.27 9.37 233.78-9.3 329.52-25.74 20.79-3.57 68.54-11.11 84.93-16.3 1.17-.37 2.92-.69 2.85-1.44-33.69 5.55-66.67 12.65-100.72 18.15-49.24 7.95-100.17 15.2-152.69 16.94-46.18 1.52-131.22 2.21-173.8-3.51-50.2-6.75-6.39-27.31 19.9-33.9-18.87 15.17-21.87 32.13 25.92 34.3Zm732.51-63.95c-1.18-.71-34.26-2.99-38.93-3.12-32.95-.91-71.23 3.1-97.89 12.02-.84.28-6.39.87-3.26 2 1.02.38 20.65-3.56 24.62-4.1 31.28-4.15 57.63-1.91 88.64-2.92 2.91-.1 30.93-1.38 26.82-3.88ZM588.1 385.51c-61.23 7.12-122.46-4.91-183.99-1.47-59.7 3.33-118.29 17.2-181.34 21.96-1.83.14-6.88.2-6.53 1.32 63.13-.5 122.29-12.94 184.45-16.25 54.27-2.9 108.92 3.89 161.48-1.28 6.4-.63 15.07-1.84 21.18-2.93 1.83-.33 5.16-.23 4.75-1.35Zm155.67 6.23c-3.54-1.68-52.63 5.98-60.47 7.43-39.98 7.4-74.8 17.94-116.78 24.56-83.64 13.19-250.6 25.42-336.5 18.33-11.1-.92-22.1-3-32.8-3.14 19.43 4.09 43.5 6.43 64.87 7.4 101.34 4.62 219.77-.44 313.86-18.33 57.01-10.85 106-29.94 167.84-33.9-.22-.64.34-2.17-.02-2.34Zm193.73 3.9c-45.97-.33-103.27 4.6-142.99 15.46-25.64 7-57.6 23.7-25.6 35.21 22.1 7.95 73.8 11.35 102.02 12.49 6.93.28 42.51 1.38 45.87.42 12.13-3.48-24.5-2.66-26.85-2.77-24.8-1.03-59.02-4.62-83.26-7.69-23.2-2.94-54.5-7.44-37.68-21.1 26.04-21.13 109.39-24.9 156.41-30.07 3.25-.35 10.52-.64 12.07-1.95Zm529.28.78c-1.8-.8-6.94 1.54-5.18 2.33 1.8.8 6.94-1.55 5.18-2.33Zm-6.03 3.13-2.58 1.16c-.03.83 4.32-.45 2.58-1.16Zm-556.12 3.1c-18.53 3.14-38.64 5.38-56.5 9.23-21.3 4.59-40.24 10.9-34.76 22.96 3.45 7.6 47.36 17.02 63.27 17.56 5.51.18 10.62-.1 8.9-2.91-35.55-3.62-103.04-16.04-45.8-32.82 18.1-5.31 47.78-6.3 61.32-10.57 3.12-.98 4.12-1.68 3.57-3.45Zm347.67 1.57c-52.12 3.25-112.04.15-155.66 15.58 48.04-6.38 106.38-4.28 151.88-13.82 2.43-.5 4.72.47 3.78-1.76Zm103.77 7c1.97-.9-.74-2.5-3.44-.38-.22.68 3.32.44 3.44.39ZM352.88 429.96c32.26.28 63.71.13 95.48-2.57 6.68-.57 41.45-4.25 43.8-5.99 2.72-2 .72-4-4.99-3.88-19.99.39-53.2 5.8-75.17 7.51-12.34.97-25.08 2.02-37.52 2.58-6.55.3-20.96-1.54-21.6 2.34Zm1150.21-6.24c-1.92-.99-50.48 4.93-57.06 5.85-28.48 4-68.48 12.45-89.78 21.92-1.08.48-5.51 1.8-3.62 2.65 1.3.58 27.58-7.48 32.24-7.69 30.33-6.49 64.53-7.9 95.19-14.01 4.45-.9 29.25-5.51 23.03-8.71Zm-1179.63 2.34c-6.98-1.2-39.63-.59-43.06 1.63-5.4 3.5 13.64 7.2 21 6.8 4.4-.23 17.2-2.99 18.1-5.03.28-.6-1.46-1.74-1.24-1.83 1-.41 7.02.96 5.2-1.56ZM192 436.98c-2.43-.56-4.61.49-3.44.76 2.43.56 4.61-.49 3.44-.76Zm2.6.77v.78c1.13-.26 1.13-.52 0-.78Zm-35.46 5.45c5.55-.39 9.77 1.09 14.37 1.73 9.19 1.28 8.28-2.53-1.5-3.23-1.97-.14-18.22-.45-12.87 1.5Zm1133.81 1.56v.79c1.13-.26 1.13-.53 0-.79Zm-2.6.8c-29.17 3-55.7 9.7-83.86 14.04-125.08 19.23-285.67 5.6-415.16 0-75.73-3.29-154.33-7.63-229.97-9.4-56.09-1.32-105.7.84-160.86 1.62-41.36.58-83.1-.84-124.34-.52-1.67.02-7.31.13-6.33 1.64 1.42 2.18 50.74 5.64 57.98 5.86 82.07 2.34 164.86-2.35 249.04.78 106.01 3.95 209.46 10.3 316.47 12.51 146.46 3.03 257.96 6.11 391.82-24.6 2-.47 4.78-.74 5.21-1.94Zm-624.4 34.3c-6.66-2.68-17.59-5.04-25.98-6.61-95.73-18.01-204.9-2.22-302.3 4.83a4727.01 4727.01 0 0 1-241.58 11.17c-12.03.25-26.7-.69-38.16-.03-2.4.14-5 .42-2.55 1.55 3.63 1.68 54.64 2.48 63.2 2.38 57.14-.6 124.25-3.11 181.53-5.49 96.55-4.02 245.1-24.18 334.7-12.86 10.82 1.37 20.34 3.82 31.14 5.06Zm-487.78-7.03c-6.86-4.1-18.68-4.97-29.4-5.44-1.25 6.84 19.45 4.24 29.4 5.44Zm1278.23 9.38c-62.68 11.62-120.56 27.83-183.36 39.36-111.52 20.49-224.69 29.48-344.98 30.85-47.14.54-167.1-3.8-203.78 4.04-2.3.5-9.92 2.09-6.44 3.72 1.26.59 28.79-3.67 35.39-3.93 23.91-.92 47.33 1.35 70.9 1.62 135.13 1.57 261.33-1.6 390.04-20.73 83.24-12.37 169.1-28.49 240.49-51.45l1.74-3.5v.02Zm-276.76 35.87c-1.98-.98-48.18 8.03-55.34 8.96-58.8 7.57-124.12 2.11-184.13 1.13-14.35-.23-38.5-.74-52 .04-2.52.14-5.36.59-2.55 1.56a795.5 795.5 0 0 1 37.17.78c65.71 2.98 191.32 13.91 245.59-5.47 2.44-.88 14.08-5.62 11.27-7h-.01Zm-304.4 20.29c-.3-.17-6.6-.5-9.12-.97-88.75-16.77-160.11-12.61-252.1-3.34-102.48 10.33-201.2 25.58-305.76 32.93-17.72 1.25-35.41 1.61-53.16 2.56-3.17.17-2.78-.23-2.56 1.56 178.92 3.85 347.15-42.3 525.05-38.25 14.04.32 33.94 1.3 47.54 2.74 8.14.86 45.42 8.36 50.02 5.04.3-.21.24-2.19.08-2.27Zm551.77 6.22c-58.71-2.28-113.08 8.22-169.48 12.89-34.18 2.82-73.4 4.54-108.12 3.49-29.88-.91-61.18-5.55-91.43-5.19-1.54.02-5.94.42-4.58 1.67 1 .92 22.13 5.54 25.96 6.24 44.75 8.21 98.16 8.07 144.95 3.77 67.68-6.22 132.15-20.72 202.7-20.53v-2.34Zm-752.43 3.9c-29.05 1.03-58.17 3.83-86.8 6.47-160.51 14.84-317.93 39.07-483.04 42.69-12.57.27-27.91-.73-39.89-.03-2.52.14-5.36.59-2.55 1.56 72 .78 143.84-1.03 215.04-5.59 133.83-8.57 262.81-27.41 392.42-43.78 1.78-.23 5.23-.2 4.82-1.31Zm622.71 41.33c37.24-2.27 85.99 15.1 119.37 2.76 20.68-7.65 23.88-31.48-5.52-34.21-1.84-.18-6.83-.72-6.59.66.06.37 11.17 2.75 13.83 4.1 13.94 7.17 6.37 24.27-12.63 28.43-27.01 5.92-79.02-10.33-106.26-3.47-1.96.5-2.95-.04-2.2 1.74Zm-110.7 15.6c58.88-7.65 98.07-25.34 163.51-23.42 14.28.42 38.7 4.24 51.01 2.77 13.23-1.57 31.09-14.92 13-16.04-19.73-1.21-31.59 5.47-6.14 5.88-15.14 7.67-38.82-.44-57.88-1.2-82.47-3.25-139.48 28.9-216.75 32.58-31.87 1.51-69.95-1.42-103.37-.6-10.24.25-35.66 1.24-44.58 2.52-1.78.26-3.32.88-2.91 1.79 1.72.97 3.2 1.7 6.09 1.94 35.56 2.97 84.16-1.02 120.96-1.58 24.18-.36 48.6-.43 72.65-.78 21.62-.3 43.33-.14 64.92-.75 2.81-.96-.03-1.4-2.55-1.56-8.57-.49-18.88.4-27.69 0l-30.28-1.54h.01Zm377.06-34.31H1619c.82-2.37-1.3-1.25-4.21-1.58-16.66-1.9-31.88.27-48.58.02l-2.56 1.56ZM823.33 575c-55.94 6.5-113.58 3.65-170.43 4.64-79.67 1.4-155.18 13.74-235.24 13.32l-43.16-1.6c-4.2 3.04 11.37 4.9 16.8 5.68 74.07 10.81 152.2-5.94 225.6-10.24 57.8-3.39 150.76-.46 202.1-9.48 2.68-.47 5-.65 4.34-2.33v.01Zm390.91 9.36c-82.25 5.01-158.69-11.7-241.26-9.36-78.13 2.22-150.04 23-227.15 28.6-61.43 4.57-123.93 5.84-186.28 5.7l-6.03.78c79.84.2 158.77 5.27 237.32-3.34 81.8-8.98 130.94-25.2 221.98-23.2 53.51 1.18 123.87 13.7 173.81 8.25 2.55-.28 32.95-5.33 27.61-7.43Zm-176.43 13.25c-40-1.96-78.77 1.35-117.24 6.01-67.02 8.14-134.1 21.48-202.42 27.28-11.43.96-82.37 4.2-85.07 5.7-5.58 3.12 15.37 3.8 19.82 3.93 20.42.61 41.24-1.47 61.46-2.36.4 1.12-3.04 1.08-4.82 1.31-28.35 3.6-58.44 5.77-87.72 7.25-30.87 1.56-62.4 1.56-93.2 3.21-2.72.15-9.46.28-7.96 2.25 23.41-.05 46.64 1.2 70.12.82 46.88-.74 99.34-4.69 143.51-11.72 5.2-.83 40.89-7.05 42.11-7.91.56-.4.87-2.28-.65-2.25-17.75 1.56-36.36 5.61-54.04 6.84-1.86.12-6 .83-5.6-.58 76.4-7.35 148.67-23.93 224.83-31.6 28.98-2.92 57.92-3.78 86.83-6.1 3.23-.25 11.57.07 10.04-2.08Zm456.64 1.56c-3.11-1.42-31.06 5.42-35.45 7.02l-11.23 5.45 18.4-4.56c7.23-1.76 19.15-2.72 25.46-4.9 2.09-.73 4.59-2.2 2.82-3.01Zm-231.77 23.4c52.6 9.37 115.85 5.34 153.1-14.8 1.76-.95 9.73-5.13 7.74-6.25-40.34 14.34-80.07 24.94-133.82 22.52-8.69-.4-16.73-2.11-24.72-2.9-3.34-.34-2.3.21-2.3 1.43Zm-640.22-3.01c-2.19-1.45-67.04-7.86-75.5-8.46-74.43-5.28-107.65 9.38-173.34 17.31-77.43 9.36-147.17-4.8-223.98-4.9-34.46-.06-69.47 2.5-103.8 3.73-11.97.43-24.25.15-36.34.8-2.58.13-5.29.6-2.55 1.55 60.03 2.03 120.63-.82 180.52 2.44 74.33 4.06 125.39 14.39 202.1 3.58 37.01-5.22 74.27-16.55 112.85-17.75 39.97-1.23 80.35 5.04 120.3 4.71-.32-.88.67-2.39-.26-3v-.01Zm328.89-.9c4.38-.39 27.44 1.32 25.92-1.93-.72-1.56-29.8-2.92-25.92 1.93Zm247.33-1.54c-22.57 1.71-45.37 4.08-68.34 4.66-49.14 1.25-106.28-3.74-153.07 2.73-2.8.4-14.87 2.22-16.26 2.67-1.49.48-1.48 2.19-1.02 2.4 1.2.57 28.94-2.68 33.96-3 49.57-3.23 95.07.6 143.31-.9 19.88-.61 45.56-3.13 61.42-8.56ZM838.91 628.8c19.52-1.19 38.61-3.43 58.2-4.56 9.02-.52 32.78-.38 38.23-1.48 6.5-1.3 4.63-3-2.08-3.34-21.8-1.12-67.28 4.16-88.5 7.74-2.2.37-5.3.17-5.85 1.65v-.01Zm776.62.79c.52-1.58-1.34-2.03-4.38-2.32-9.54-.87-80.47-4.29-83.82-3.14l2.54 1.56 85.65 3.9h.01ZM591.42 640.46c2.56-.85 1.34-3.91-1.7-4.97-3.4-1.19-23.63-4.27-28.91-4.9-9.85-1.17-22.58-2.27-32.66-2.26-2.83 0-20.56.94-21.34 1.27-5.42 2.35 8.22.69 9.42.74 6.25.27 15.98 1.09 22.08 1.82 8.06.97 49.23 9.57 53.1 8.3Zm638.39-9.3c-16.05 1.11-29.18 5.61-44.88 7.45-4.62.54-13.58-.63-12.18 1.9 14.17-.48 28.72-.79 41.98-3.3 3.1-.58 18.87-4.24 15.08-6.05Zm-717.8 3.12c-62.27 1.98-108.5 23.73-163.16 34.44-53.65 10.52-123.73 13.05-182 12.38-4.12-.05-14.3-2.27-12.88.74 59.62 2.6 124.2 1.68 181.6-6.63 55.64-8.07 98.8-27.33 153.57-35.27 8.57-1.24 25.5-.69 22.87-5.67Zm1044.72 4.68c-4.32-1.9-85.85-1.84-97.8-1.6-86.88 1.77-149.81 14.96-226.26 31.35-1.24.26-11.23 1.8-8.03 3 71.31-11.98 136.32-25.94 213.63-28.85 36.15-1.37 73.11.32 108.94-1.57 1.52-.08 13.24-.7 9.52-2.33Zm-1143.33.78c-4.07-.3-4.92 2.12-8.6 2.73 1.6.17 11.48-1.38 8.6-2.73Zm394.38 6.23a704.1 704.1 0 0 0 38.64-1.68c3.3-.24 23.62-1.66 23.59-2.6-.06-2.22-21.08-.46-24.58-.19-10.16.8-22.1 2.25-32.49 3.3-1.9.2-5.59 0-5.15 1.16Zm-98.58 18.7c88.58-1.89 178.45-5.64 267.3-3.92 67.67 1.32 201.32 15.47 256.82-4.23 3.8-1.35 17.24-7.3 16.87-9.26-.19-1.04-2.51-2.87-5.35-2.76-2.39.1-22.91 5.75-28.24 6.81-68.06 13.53-139.74 5.82-210.8 4.02-44.58-1.13-92.02-.58-136.6.78-50.22 1.53-100.19 4.95-150.26 7.12l-9.75 1.44ZM39.8 646.75c1.67.78 23.27 3.38 27.28 3.7 17 1.35 71.6 3.62 85.99.98 6.8-1.25 5-3.83-.32-4.52-2.23-.29-17.43-1-20.42-1-13.7-.03-28.75 1.8-43.32 1.65-13.22-.14-35.01-3.07-46.64-2.38-2.38.14-5 .41-2.56 1.55v.02Zm437.2 4.03c-4.43.2-22 3.9-20.34 6.5 1.51 2.37 22.54-1.75 25.12-2.69 5.1-1.86.41-4.03-4.79-3.8Zm967.3 1.44h-24.22v1.56h24.22v-1.56Zm259.44 6.25c-27.95.94-55.84 1.42-83.59 3.25a1115.82 1115.82 0 0 0-140.69 18.45l-133.75 28.98c3 .21 5.4-.18 8.16-.6 44.56-6.9 90.11-17.36 134.97-24.93 59.24-10 120.14-18.86 183.16-22.7 9.65-.59 20.19-.38 29.19-.89 2.54-.14 5.34-.6 2.55-1.56Zm-1217.7.77c-2.32-1.02-13 .82-16.13 1.69-2.26.63-17.09 6.79-14.98 7.66 3.25 1.34 9.81-2.79 12.2-3.46 3.95-1.1 23.83-3.73 18.92-5.89Zm978.61 5.3c3.54-1.17 2.78-5.17-3.91-4.59-10.38 1.46-65.4 1.02-70.05 3.2-2.46 1.15 1.59 1.72 3.37 1.94 4.35.54 13.47 1.07 18.17 1.2 7.13.19 48.64-.52 52.42-1.76Zm-902.48 9.51c20.49-.49 42.79-2.4 62.63-4.9 5.55-.7 35.48-4.5 34.22-7.18-.45-.95-3.92-1.18-5.96-1.21-15.3-.2-71.53 8.25-87.1 11.52-2.44.5-4.73-.47-3.79 1.76v.01Zm759.33-9.35c-4.92 1.9 19.34 6.2 21.12 6.46 7.98 1.2 42.98 5.6 49 5.28 11.34-.62 4.67-4.7-2.94-5.77l-67.18-5.97Zm-299.45 5.54c-1.52-.82-30.56-3.1-35.18-3.23-31.31-.97-71.81.28-103.93.78-179.65 2.77-360.42 14.4-535.59 32.25-30.54 3.11-63.26 6.8-93.06 11.07-3.19.46-11.65.69-10.38 2.72 93.39-7.28 185.49-16.84 279.55-22.5 141.69-8.55 296.43-15.6 439.14-18.03 8.54-.15 57.62.96 59.66-.01.23-.11.27-2.77-.21-3.03v-.01Zm123.02 36.57c57.32 1.56 127.44 11.96 176.44-6.62 7.99-3.02 25.35-11.37 22.13-16.21-2.95-4.44-35.79-10.15-45.68-10.61-25.6-1.2-12.47 4-16.5 6.05-.81.4-6.78.02-8.18 2.21-3.26 5.1 20.29 6.55 23.87 4.86.38-.18.51-3.5.15-4.13-.45-.78-3.3-.43-3.46-.51-1.62-.84-.43-1.62 2.54-1.56 5.99.14 32.48 4.31 33.51 6.74 1.66 3.9-29.63 14.54-37.74 16.3-47.38 10.34-95.09 2.24-142.73 1.9-3.57-.03-5.07-.44-4.36 1.58h.01ZM88.22 676.38c1.29.49 25.74 2.12 24.22-1.15-.97-2.09-17.86-1.16-21.8-.5-1.74.3-5.36.54-2.42 1.65Zm1327.96 8.4c3.67-1.39 3.32-4.53-3.79-4.52-7.12.02-38.07 2.72-45.04 3.94-17.43 3.07 17.01 3.3 22.44 3.1 3.42-.13 25.13-2.04 26.39-2.52Zm-983.73 28.26c77.6 3.67 155.14-3.5 232.7-2.37 112.01 1.63 255.13 18.24 361.75-2.17 18.57-3.56 28.09-8.44 42.92-14.18 1.13-2.35 2.91-7.09-2.01-8.44-4.2-1.15-26.81-3.51-32.78-3.93-64.85-4.58-129.21 5.05-190.93 12.39-.05 1.32-.97 1.7 2.44 1.5 5.8-.33 11.49-.52 17.24-.82 63.46-3.43 132.78-19.51 194.77-4.97-12.41 9.86-37.49 13.15-60.82 15.46-111.17 11-228.97-4.04-341.37-1.85-38.12.75-76.11 4.14-114.1 5.49-35.6 1.26-71.63 1.05-107.26 2.35l-2.55 1.56v-.02Zm636.52-29.64c2.1 1.05 24.09 2.96 28.55 3.12 42.08 1.55 70.89.4 113.64 5.7 7.42.92 34.77 6.05 38.66 6 7.39-.11 6.94-5.97-.94-6.63-48.79-5-97.57-9.75-147.86-10.54a533.5 533.5 0 0 0-22.63 0c-1.34.04-13.14.52-9.43 2.36l.01-.01Zm-265.21 2.46c-2.37.1-9.16 2.28-12.8 2.84-40.65 6.14-72.93-.28-112.13 1.7-8.5.43-8.13 2.2.06 3.17 18.76 2.19 58.41 3.66 77.84 3.1 8.3-.24 44.03-3.04 49.33-5.05 3.22-1.21 2.83-5.97-2.3-5.75v-.01ZM1143.33 699c3.4-1.56-2.47-3.86-6.53-4.46-34.36-5.09-67.58 9.75-95 16.79-43.24 11.1-93.8 16.21-143.23 18.08-55.57 2.11-126.57-1.85-178.14 7.04-2 .34-6.28.38-6.04 1.55 9.58.72 19.52-.68 28.46-.8 88.75-1.26 202.8 3.75 282.9-15.17 27.65-6.52 65.89-24.7 95.96-24.63 4.31 0 19.89 2.4 21.62 1.61V699Zm-340.18 1.8c-2.09 1.1-3.26 3.37.34 3.67.78.06 14.39-2.23 14.65-2.75 1.22-2.34-9.86-3.58-14.99-.91Zm286.57 8.35c-1.03.65.88 2 2.9 2.2l75.96 4.77c5.21-.06 6.17-3.66 1.21-4.48-6.42-1.07-23.48-2.01-31-2.4-7.16-.36-46.44-1.73-49.07-.09Zm231.76-.78c-23.76 5.24-46 9.28-72.32 11.45-23.8 1.95-53.12 3.4-77.3 4.13-35.88 1.09-108.5-1.82-136.97 6.88-2.22.68-4.72.88-3.97 2.49 12.5-.74 24.91-2.29 37.42-3 68.94-3.96 146.52 2.52 213.74-7.36 14.5-2.13 36.59-7.17 39.4-14.59Zm-853.02 10.26c-.66-.2-12.17-.87-14.34-.94-23.79-.73-47.5 2.04-71 3.14-86.6 4.05-165.27 8.58-245.35 25.07l-30.5 7.68c75.96-14.77 160.51-23.57 243.02-27.28 13.58-.6 31.61-1.48 44.89-1.6 11.36-.1 70.62 2.33 75.1-.84 1.07-.76-.45-4.84-1.82-5.24v.01Zm600.5 2.99h44.1c1.15 0 6.65-1.37 4.33-2.33-2.58-1.07-26.65-.9-31.6-.6-3.7.22-14.43 1.43-16.84 2.93h.01Zm-529.28 7.8h61.4c1.34 0 20.73-2.81 21.31-3.25 1.19-.9 1.76-3.03-2.28-3.01-8.68.03-23.25 2.33-33.15 3.02-11.88.82-23.96 1.05-35.82 1.78-2.62.17-10.49.38-11.46 1.47Zm181.62-6.24c-37.82-1.4-71.16 8.34-105.89 13.48-38.48 5.7-94.59 13.3-113.16-8.86a586.96 586.96 0 0 1-72.7 9.3c-35.43 2.3-71.44 2.7-106.93 4.03-26.56 1-53.29 1.46-75.44 8.9-1.93.64-4.31-.02-3.27 2 33.4-5.88 68.21-3.22 102.98-3.86 41.7-.77 91.68-2.93 130.5-9.8 5.07-.9 18.38-5.15 22.21-4.13.78.2 6.31 5.36 9.74 6.91 43.81 19.81 144.66-9.6 195.7-13.21 9.43-.66 18.18 1.87 16.26-4.76Zm570.79 24.96c-45.98-3.3-90.78 3.94-133.77 10.26-8.78 3.85 1.09 4.62 9.74 3.75 1.22-.13 1.07-1.29 3.61-1.65 9.38-1.34 19.14-2.4 28.72-3.4 28.37-3 62.26-3.81 89.17-7.38 2.54-.34 3.01.43 2.53-1.58ZM104.67 753.6v.78c1.12-.26 1.12-.52 0-.78Zm812.08.79c-3.62-.23-3.94-.08-3.45 1.55l3.45-1.55Z" />
    <path fill="#5A3C26"
      d="M1579.21-.54c-13.36 3-26.98 6.13-41.08 8.38-8.96 1.44-17.98 2.12-26.37 3.32 1.01-.77 1.11-.88 2.91-1.38 10.91-3 32.78-5.96 45.68-8.34 2.65-.5 6.05.07 5.03-1.98h13.84-.01Z" />
    <path fill="#442E1A"
      d="M1727.97 35.33v7.02c-48.68-4.4-100.56-1.26-149.14 2.55-15.56 1.22-51.06 3.77-64.2 6.16-3.36.6-1.95 2.21-4.05 3.04-87.68 34.5-285.03 4.4-388.88-.83-58.8-2.96-120.7-2.8-179.95-3.09-98.56-.48-196.37.14-293.13 9.7-54.5 5.4-158.36 22.48-209.76 12.72-12-2.28-6.99-3.22 3.16-2.98 96.63 2.28 176.84-16.82 271.73-22.47 129.7-7.74 295.34-6.39 424.76 2.45 98.24 6.72 207.14 22.77 305.81 12.65 19.18-1.96 36.9-5.3 55.32-8.2.39-1.43-3.69-.68-5.57-.57-8.76.53-17.45 1.88-26.35 2.16-20.61.66-40.51-.49-57.18-6.29l-6.91-3.86c46.28 15.39 101.97.45 151.3-4.33 55.93-5.41 116.04-8.12 173.04-5.82ZM.02 24.42c42.36 3.2 82.52-2.05 123.92-4.57 29.1-1.78 58.46-2.96 87.46-5.02C264.21 11.1 328.93 1.86 379.62.21c49.53-1.62 130.43-1.62 179.93.04 36.97 1.24 78.54 7.58 113.67 12.7 4.92.71 12.76-.1 11.76 3.27-.89 2.98-69.81-6.4-76.1-7.02-71.74-7.03-149.46-7.36-222.03-2.62-45.87 3-90.88 9-137.18 12.24-36.03 2.52-72.28 3.7-108.44 5.7-36.23 2.01-74.04 7.05-110.77 4.5-10.22-.72-20.45-2.68-30.44-3.83v-.78ZM1302.46-.54h12.11c.35 2-2.74 1.94-5.43 2.62-76.19 19.27-212.44-.68-298.05-1.09-31.6-.15-63.69 2.41-95.23 3.15C844.1 5.8 763.87 7.8 693.3 1.55c-.92-.08-8.6-.3-5.73-1.3l401.48.05 5.85-.83h1.73c67.05 5.64 140.33 11.24 205.83 0Z" />
    <path fill="#442E1A"
      d="M1727.96 61.07v3.12c-89.31-5.7-176.74 6.25-264.01 12.37-34.86 2.44-82.79 6.02-117.36 4.77-4.47-.16-33.02-2.47-33.77-3.5-1.29-1.8 3.84-1.1 6.05-1.16 24.69-.73 49.77-.71 74.38-1.57 104.47-3.63 205.51-18.91 311.34-15.59 7.26.23 16.1.99 23.37 1.56ZM.02 149.97v-5.46c51.92-6.67 99.71-13.61 154.78-12.47 38.92.8 82.77 3.94 122.8 5.46 18.68.71 32.22 4.82 6.47 7.57-36.6 3.91-80.4-4.11-117.15-6.02-58.38-3.02-112.46 1.8-166.9 10.91v.01ZM1452.95-.54c1 2.08-2.33 1.51-5.13 1.94-52.79 8.04-116.37 16.52-170.94 21.23-56.26 4.85-155.47 8.4-205.62-5.1-2.79-.75-8.42-1.42-7.48-3.24 4.57-.62 2.72 1.06 4.72 1.52 51.7 11.9 156.98 5.9 213.22.43L1413.16-.54h39.79ZM.02 70.43c60.01-5.44 118.8 2.9 177.56 6.9 34.68 2.36 69.81 3.42 104.38 5.98 1.23 1.8-3.78 1.1-6.05 1.16-32.81.89-60.46.73-93.2-.87C122.15 80.64 61.25 73 0 78.23v-7.8ZM.02 35.33c15.82-.33 31.71-.47 47.55-.79 75.6-1.52 151.15-4.03 226.66-7 3.65-.14 6.07.03 4.28 1.94-.96 1.03-42.24 5.12-48.1 5.62-70.14 6.03-139.93 3.73-210.52 5.68-6.6.18-13.29-.1-19.87 0v-5.46.01ZM.02 55.61a1691.12 1691.12 0 0 1 237.58-3.79c44.72 2.43 77.57 9.2 118.64 12.8 7.67.67 52.4 2.43 53.82 4.73 3.6 5.8-6.34 2.4-11.52 1.93a3887.75 3887.75 0 0 1-95.46-10c-76.87-8.88-169.64-9.36-248.37-5.58-18.26.87-36.56 2.55-54.7 3.8v-3.9.01ZM1727.97 87.58v2.34c-59.81 4.1-115.34 16.5-175.79 19.4-50.31 2.41-127.98.12-171.74-12.05-3.95-1.1-10.56-2.59-12.26-4.6 7.18-.55 14.56 2.33 21.6 3.51 62.05 10.47 142.21 8.7 207.07 4.43 44.41-2.93 87.05-9.38 131.12-13.02Z" />
    <path fill="#442E1A"
      d="M1727.96 72.76v4.69c-31.12.6-63.31-3.84-94.34-3.16-39.04.86-80.28 8.01-119.49 10.08-2.96.15-22.33 1.25-23.13.87-.35-.15.2-1.7-.02-2.33 40.26-2.97 80.86-11.14 121.98-12.47 38.45-1.24 76.77 1.88 115.01 2.33h-.01ZM1601.7-.54c1.02 2.05-2.38 1.5-5.04 1.98-17.87 3.28-35.44 6.94-53.75 9.73l14.77.8c47.24-1.5 95.44-3.92 139.15-12.52h12.11c.94 2.02-2.16 1.6-4.73 2.12-32.95 6.7-69.42 10.61-105.32 12.6-11.71.65-85.15 3.2-88.71.81-.71-1.32.07-2.68 1.58-3.83 8.39-1.2 17.41-1.88 26.37-3.32 14.1-2.25 27.73-5.38 41.08-8.38h22.49v.01Z" />
    <path fill="#442E1A"
      d="M1565.38-.54c1.02 2.06-2.39 1.48-5.04 1.98-12.89 2.4-34.76 5.33-45.67 8.34-1.8.49-1.91.6-2.92 1.38-52.73 7.51-102.6 18.16-158.51 21.72-32.85 2.1-74.98 2.75-107.08-1.41-2.35-.3-5.36-.1-5.97-1.6 106.65 9.99 210.01-11.03 304.42-30.42h20.76l.01.01ZM13.86-.54c35.66 5.28 77.41 6.37 115 5.46 14.88-.36 98.26-6.2 104.57-3.07.33.16.4 2.7-.1 2.98-.9.48-23.7 2.79-27.05 3.01-52.8 3.61-134.91 1.46-186.27-5.3L6.94-.54h6.92Z" />
    <path fill="#5A3C26"
      d="M1696.83-.54c-43.71 8.6-91.91 11.01-139.15 12.52l-14.77-.8c18.31-2.8 35.88-6.44 53.75-9.74 2.66-.49 6.06.08 5.04-1.97h95.13Z" />
    <path fill="#442E1A"
      d="M.02 137.5v-5.47c43.41-.19 86.39-10.14 128.89-11.69 5.92-.22 35.48-1.11 33.7 2.71L0 137.49Z" />
    <path fill="#5A3C26" d="M1302.46-.54c-65.5 11.24-138.78 5.64-205.83 0h205.83Z" />
    <path fill="#442E1A"
      d="M.02 16.62c38.03-.73 76.06-3.45 114.17-1.94-1 2.54-8.7 3.22-13.43 4.08-20.63 3.74-40.11 3.92-61.83 4.88L.02 22.07v-5.46.01ZM1727.97 100.06v7.02c-22.91.75-48.98-.13-71.31 1.77-24.12 2.04-46.64 9.52-71.32 9.96-2.2.03-9.16.6-7.86-1.2 28.98-1.06 52.27-10.16 79.85-13.14 22.52-2.43 47.77-2.52 70.64-4.42v.01ZM1727.97 119.56v4.68c-47.71-3.91-90.95 12.01-136.22 15.4-2.46.2-6.35.95-5.63-.96 47.19-6 90.2-22.91 141.84-19.12h.01ZM.02 96.95c11.07-.3 21.83 1.1 19.02 7.02 11.68-.44 22.11-2.84 34.2-3.7 24.34-1.7 50.34-1.08 74.77-.2-.68 1.47-3.41 1.42-6 1.57-10.84.67-22.45.3-32.9.77-26.19 1.16-52.77 2.6-77.83 6.24-1.27-4.7.9-8.37-11.26-10.15v-1.56ZM1727.96 22.85v3.9l-147.03.39c-1.15-1.81 3.72-1.12 6.05-1.16 8.61-.16 17.35.24 25.94-.01 38.3-1.13 76.49-3.99 115.04-3.12ZM.02 115.66c31.3-1.28 61.34-5.05 89.09-11.7 3.44-.36 3.08.92 2.69 1.98-.46 1.25-6.81 2.97-9.29 3.63-24.26 6.55-54.41 9.36-82.49 10v-3.91ZM.02 87.58l138.38 1.17C93.17 93.8 46.1 90.6.02 90.7v-3.12ZM1727.96 8.04v3.9l-38.07 1.94c-.22-1.58 3.21-1.72 5.55-2.18 9.95-1.9 21.97-2.6 32.52-3.66ZM970.36 94.6c.81.37.03 2.78-1.68 3.53-2.55 1.12-35.99 6.75-41.92 7.61-136.01 19.93-228.5-.2-358.55-5.68-55.15-2.32-128.35 4.33-177.26-5.09-6.73-1.3-17.14-3.28-20.8-6.22l42.33 3.54c69.8-1.82 127.31-4.65 196.72 1.77 111.85 10.34 195.57 25.07 312.37 8.56 6.4-.9 46.95-8.85 48.8-8.01h-.01ZM1544.42 136.03l.21 3.02c-2.91 1.37-70.14-6.26-80.61-6.93-28.73-1.84-65.7-2.78-94.89-3.23-167.24-2.6-333.64 13.49-500.83 10.55-.02-1.71 36.03-1.05 40.65-1.17 164.08-4.33 327.3-23.48 492.72-14.7 48.15 2.55 95.26 8.36 142.74 12.45h.01ZM1087.99 33c2.93 1.1-.67 1.35-2.41 1.64-4.35.72-15.75 1.26-20.97 1.46-95.66 3.72-191.35-8.28-286.86-3C721 36.25 664.78 46.37 607.14 43.14c-1.34-1.91 3.38-1.88 6.5-2.12 50.57-3.72 99.09-9.55 148.84-13.23 80.63-5.97 193.64-1.67 276.19 2.1 6.25.29 47.42 2.4 49.32 3.11ZM539.87 48.5c2.59 1.1 20.96-2.92 17.05 1.24-4.75 5.06-52.14 6.14-63.15 5.9-56.54-1.2-108.86-4.41-164.48-7.72-62.42-3.72-113.95-3.18-176.12-2.41-43.65.54-87.44-3.56-130.22-.21-3.34.26-2.07-.03-2.18-1.38 41.37-2.9 83.66-1.09 125.48-1.53 36.87-.4 72.85-2.38 110.7-1.63 81.51 1.63 161.73 11.55 243.8 10.16l26.82-1.54c-48.26.31-95.38-4.9-142.94-7.7a4035.16 4035.16 0 0 0-88.84-4c-2.87-.97.2-1.43 2.58-1.57 9.45-.54 26.38-.22 36.42-.03 35.97.69 71.52 3.78 107.18 5.49 27.37 1.3 57.57 1.2 84.5 3.23 2.6.2 10.3.61 11.58 1.04 1.9.63 1.19 2.38 1.83 2.65h-.01Z" />
    <path fill="#442E1A"
      d="M1065.49 107.1c.25 1.12-4.09 1.26-6.02 1.55-44.65 6.84-96.43 8.34-142.74 12.85-57.88 5.64-119.25 17.79-179 16-61.09-1.85-126.26-16.05-184.62-24.39-4.2-.6-24.59-2.5-25.54-2.91-2.58-1.1.17-1.42 2.56-1.56 52.79-3.03 123.58 13.86 177 18.47 51.07 4.41 88.75 2.08 139.07-1.53 73.41-5.28 145.74-13.54 219.29-18.48ZM645.19 93.04c7.82-3.22 22.07-4.72 32.5-6.01 27.36-3.38 56.4-5.03 84.13-8.08 82.48-9.08 166.45-25.29 252.67-25.66 52.21-.23 98.8 5.32 149.24 9.12 34.38 2.6 71.62 2.67 104.6 8.2 2.51.43 30.71 5.69 17.67 6.84-1.28.12-19.79-3.6-23.69-4.12-31.12-4.15-60.48-4.56-91.88-6.92-44.15-3.33-88.45-8.48-133.4-9.27-95.8-1.67-181.37 18.03-272.48 26.95-39.34 3.85-79.65 6.05-119.36 8.95ZM667.67 76.67c1 1.94-7.3 2.86-10.43 3.49-73.81 14.87-165.9 3.1-242.98.42-83.51-2.91-169.94.34-251.08-10.83-2.82-.4-4.89.63-4.02-1.66a751.51 751.51 0 0 0 40.88 3.79c65.12 4.06 131.38 1.7 196.92 3.23 66 1.56 130.76 7.76 197.18 5.45 24.56-.86 48.9-3.28 73.52-3.89Z" />
    <path fill="#442E1A"
      d="M861.4 93.04c-.88-2.21 1.17-1.28 3.8-1.76 9.42-1.7 22.1-3.02 32.15-4.26 84.6-10.47 214.55-20.86 290.8 3.36 3.15 1 25.52 8.34 14.68 9.64-9.08-.82-16.69-3.8-25.46-5.56-97.3-19.54-214.88-9.16-315.97-1.43ZM702.28 18.94l25.09-1.54c65.17-.04 130.4-3.06 195.42-.78 50.63 1.77 100.21 7.63 150.71 10.03 42.78 2.04 96.76.44 136.02 8.09 6.45 1.25 19.82 4.45 5.86 6-54.19-5.36-109.57-7.26-164.33-10.98-27.43-1.87-54.4-4.93-81.83-6.77-88.6-5.96-177.47-3.62-266.94-4.04ZM525.83 121.91c.46 1.02-3.18 1.24-4.74 1.36-83.6 6.16-131.96 15.55-218.75 5.43-37.42-4.36-74.17-9.96-111.68-14.4-1.83-.2-7.27.22-5.55-1.36 1.47-1.35 5.02-1.11 7.67-1.22 57.06-2.25 108.63 12.98 164.43 14.85 56.59 1.89 112.12-5.51 168.61-4.66Z" />
    <path fill="#442E1A"
      d="M416.87 110.2c4.26 1.45-8.17 2.17-9.73 2.24-60.88 2.85-126.65-12.83-186.58-11.58-54.4 1.13-103.52 19.52-158.27 20.25-.38-2.02-.28-1.3 2.6-1.53 67.05-5.42 113.1-26.96 185.04-24.97 55.9 1.55 111.59 12.4 166.94 15.6ZM1625.9 121.9c1.25 1.95-5.31 2.4-8.26 2.9-50.44 8.4-107.63 2.92-158.14-2.34-64.7-6.74-128.65-16.43-195.11-19.28v-2.33c67.29-3.31 130.99 10.08 195.1 16.93 39.25 4.2 81.85 7.53 122.38 6.5 14.73-.38 29.25-2.23 44.03-2.37ZM219.69 151.53c-.9-.42-1.02-1.77 2.3-1.43 8.67.86 17.92 2.64 27.04 3.41 107.28 9.05 199.44-14.43 300.96-23.44 7.3-.65 29.93-2.9 35.54-2.73 6.58.2 5.47 4.54-.38 5.32-58.31 2.53-113.03 12.4-169.28 18.82-55.52 6.33-110.06 10.83-166.8 4.36-3.69-.42-28.3-3.82-29.38-4.3v-.01ZM1058.59 61.86v2.33c-5.56-.66-11.97.7-16.63.7-26.12.05-47.82-1.86-74.74.6-52.52 4.82-113.54 18.87-168.1 25.6a1205.1 1205.1 0 0 1-70.9 6.63c-1.25-2.12 6.65-2.43 9.9-2.93 32.92-5.12 68.36-8.55 101.68-13.43C886.67 74.5 949.3 59.78 997.1 59.48c20.05-.13 41.42 2.09 61.5 2.38ZM1682.99 82.13c3.38 4.78-15.49 7.74-23.76 9.17-40.44 6.99-128.62 9.8-169.16 3.34-7.59-1.21-14.12-3.39-21.54-4.72-.43-1.49 3.09-.4 4.87-.25 17.28 1.35 35.54 3.62 53.07 4.15 54.64 1.65 105.95-2.9 156.51-11.7h.01ZM1030.91 93.82c-.43-1.16 3.24-.97 5.16-1.16 56.78-5.86 112.66 8.2 166.66 13.77 5.63 1.15 3.06 6.03-2.85 5.96-56.04-7.03-108.78-21.61-168.97-18.57ZM572.53 50.16c-.09 1.88-6.7 3.64-9.81 4.53-22.5 6.46-56.27 9.56-82.73 10.27-41.6 1.12-85.26-.57-125.38-5.46.53-1.43 8.86-.84 11.22-.77 37.36 1.14 72.85 4.94 110.7 3.11 33.17-1.6 64.72-6.97 96-11.69ZM496.27 19.8c.67.36.4 2.68-.08 3.34-1.83 2.52-27.42.7-33.26.4-14.1-.75-29.3-2.6-43.48-3.02-34.53-1.01-67.85.95-101.16 4.67-.24-1.05 3.9-1.36 5.73-1.69 37.25-6.63 109.24-8.47 148.86-6.01 3.14.2 22.62 1.9 23.4 2.31ZM849.28 54.05c1.18 1.9-5.9 2.24-8.73 2.69-16 2.5-32.58 4.1-48.31 7.07-22.04 4.14-77.45 19-97.77 18.93-7-.02-19.98-3.4-8.67-3.74 37.04-1.12 51.44-7.46 83.3-13.92 25.84-5.24 51.6-9.87 80.18-11.03ZM1233.27 46.24c-.87-.38-1.3-1.65 2.18-1.37 40.71 3.18 81.88 4.53 123.22 5.28 5.44.3 5.69 2.64 1.87 3.96-2.49.86-22.68.12-27.8-.07-9.53-.35-21.05-1.13-30.67-1.77-8.23-.55-66.27-4.94-68.8-6.04v.01ZM1217.71 87.58c-1.71-.78-.34-1.62 2.57-1.56 11.53.26 27.11 3.33 40.03 3.81 4.9.18 10.53.27 15.41.13 8.75-.26 24.3-3.2 29.46-3.13 8.16.09 2.71 3.63-.95 5.07-15.55 6.1-39.09 3.06-56.74.6-3.78-.53-28.65-4.41-29.77-4.92h-.01ZM487.53 35.45c.93.7-.02 2.09.26 3-15.95-.8-31.47-3.03-47.59-3.88-16.12-.85-34.96-.67-51.9-1.56-2.58-.14-5.3-.62-2.56-1.56 13.2-.55 96.75.25 101.78 4ZM851.03 97.73v2.33l-126.27 2.33c-.12-1.16 6.1-1.35 7.97-1.45 17.22-1.02 37.82-1.88 55.17-2.43 21.03-.66 42.03-.97 63.13-.78ZM1022.25 17.4l-.89 1.57c-22.73-4.93-48.8-4.57-72.51-7.86-3-.41-15.65-1.76-11.34-3.85 29.67 1.36 58.36 3.6 84.74 10.15ZM619.24 22.86c-.26.9.68 2.32-.25 3-3.47 2.6-79.92 9.4-91.4 7.91-5.63-1.93 11.17-1.55 12.74-1.65 27.88-1.84 52.1-6.33 78.91-9.26ZM1525.6 29.1v2.33c-34.7-.42-67.93 4.47-102.05 6.24-.84-2.35 1.25-1.26 4.19-1.58 18.39-2.02 39.36-4.46 57.75-5.97 13.38-1.1 26.7-2.1 40.11-1.02ZM371.89 100.06c-24.1-1.18-46.26-5.54-70.04-7.82-2.96-.28-5.15.87-4.32-1.53 16.78 1.05 33.73.67 50.19 2.71 1.98.25 29.39 4.64 24.17 6.64ZM690.15 64.97c.24.12.82 2.92-1.1 3.14l-88.82 6.99 3.99-1.66c11.1.4 82.9-9.9 85.93-8.47ZM1468.5 4.14c.64 1.7-2.4 2.18-5.18 2.73-19.37 3.8-47.42 4.81-67.45 8.96-.88-2.08 1-1.36 3.47-1.9 7.28-1.62 17.19-3.05 25.03-4.35 13.8-2.28 29.65-5.06 44.13-5.44ZM1150.14 15.9c.34.25.29 2.2.12 2.27-.67.32-16.47-.01-19.46-.2-8.7-.52-23.14-2.86-30.75-4.87-2.25-.6-4.36.14-3.41-1.94 10 1.49 20.26 3 30.74 3.69 4.14.27 21.28-.03 22.76 1.06ZM1456.38 92.27c.57.25-.29 3.02.02 3.9-1.76.8-18.51-1.69-21.92-2.21-5.49-.84-13.94-2.08-17.86-4.03 5.19.4 38.33 1.71 39.76 2.34ZM555.24 22.08c5.58 5.33-28.8 7.28-31.13 6.24-.9-.4-.05-2.12 1.76-2.71 1.28-.42 28.31-4.01 29.36-3.52ZM761.07 57.95c4.67 2.18-5.35 2.47-8.26 2.9-3.81.55-21.9 4.46-22.86 4.11-3.06-1.12 2.33-1.72 3.25-2.01 3.84-1.22 24.95-6.36 27.87-5ZM1357.79 87.61c.2.14.21 2.23.03 2.3-.55.26-13.23.81-15.57 1.57-1.97-3.43 12.9-5.68 15.53-3.87h.01ZM316.55 25.2c.04 1.34-9.68 2.6-10.37 2.33-3.9-1.52 9.03-2.55 10.37-2.33ZM723.01 66.53c1.89.85-1.55 2.4-3.44 1.55-1.89-.85 1.55-2.4 3.44-1.55ZM728.2 64.97c1.89.85-1.55 2.4-3.44 1.55-1.89-.85 1.55-2.4 3.44-1.55ZM1029.16 93.83c1.18.28-1.01 1.33-3.44.77-1.17-.27 1.02-1.33 3.44-.77ZM1061.17 13.5c1.13.26 1.13.52 0 .78v-.78ZM716.97 68.1c1.12.25 1.12.51 0 .77v-.78Z" />
  </g>
  <defs>
    <clipPath id="a">
      <path fill="#fff" d="M0 0h1728v137H0z" />
    </clipPath>
  </defs>
</svg>