<svg xmlns="http://www.w3.org/2000/svg" width="1728" height="900" fill="none">
    <g clip-path="url(#a)">
        <path fill="#65439C"
              d="M0 419V8.232C25.54 4.688 51.21-.314 77.175.13c34.843.572 67.614 10.19 101.791 14.12 34.177 3.932 67.151 5.907 100.773 5.003C353.66 17.24 425.046 5.132 499.595 8.177 568.448 11 634.842 33.169 704.249 31.416c95.633-2.4 187.048-20.95 284.308-20.212 72.623.535 139.023 9.266 210.683 15.136 84.91 6.958 157.96-14.951 240.81-25.288C1442.08.794 1456.16 0 1461.71 0h31.44c5.54 0 11.74 1.07 14.55 1.218 27.56 1.495 55.17.296 82.71 2.99 33.1 3.25 68.02 13.309 99.83 16.078 12.68 1.107 25.26-1.736 37.78-3.01V419H0ZM1252.65 49.505c2.76.83 15.07 0 19.16 0 1.33 0 2.18-5.02 1.41-5.944-1.3-1.55-18.11-1.68-20.48 0-2.36 1.68-2.2 5.316-.09 5.962v-.018Zm-585.999-1.182c2.645-.498 4.642-2.528 3.717-5.26-.665-1.957-16.681-4.91-17.957.074-1.165 4.54 11.3 5.74 14.259 5.186h-.019Zm615.869-7.77c-1.06 1.642-.33 5.556 2.42 5.962 1.13.166 16.44-2.843 16.68-3.655.67-2.4 0-4.984-2.61-5.464-2.03-.387-15.92 2.27-16.49 3.175v-.018Zm-45 5.925c6.22-6.331-6.54-7.254-11.09-7.144-8.6.222-7.2 7.144-5.05 7.144h16.14Zm-517.495-.296c3.606-.406 9.339-.258 7.749-5.076-1.369-4.116-16.904-1.772-17.903 2.012-1.294 4.892 7.324 3.397 10.154 3.064Zm-40.521.296c.574.59 14.278 0 16.626 0 1.979 0 3.681-6.036 1.018-6.036h-16.127c-1.48 0-2.016 5.519-1.517 6.036Zm64.748-1.237c3.255-.388 11.688-2.381 9.395-6.811-1.924-3.673-13.686-.092-14.518 2.695-1.276 4.319 1.664 4.522 5.123 4.116Zm459.848-.923c3.02-.978 1.89-5.814-1.05-6.682-.89-.258-16.5-1.052-17.81-.923-4.46.48-4.85 5.427-.92 6.553 2.08.59 18.01 1.643 19.8 1.052h-.02Zm-581.927-1.993c.574.922 19.752 5.482 19.086-1.366-.314-3.12-12.835-4.375-15.738-4.357-3.181.037-5.142 2.862-3.348 5.723Zm177.487.886c3.458-.296 17.476-2.345 13.5-7.882-1.757-2.437-15.868.37-17.236 3.064-1.905 3.747.111 5.131 3.736 4.818Zm-35.324-.905c1.221 1.975 15.091.702 15.831-1.514 1.11-3.248.148-5.205-3.347-5.205-1.609 0-11.337 1.2-12.059 1.717-.98.72-.943 4.19-.443 5.002h.018Zm403.404-1.07c3.61-1.071 3.98-4.781-.46-6.165-3.84-1.2-19.69-2.622-15.48 4.393 1.52 2.528 13.23 2.584 15.94 1.79v-.018Zm154.23-1.034c1.94-.332 6.39-2.03 7.32-3.766 3.7-7.014-15.55-3.414-16.53-.369-1.8 5.575 5.56 4.762 9.21 4.135Zm-189.29-7.808c-2.53-.701-11.61 0-15.13 0-1.31 0-2.53 4.227-.55 5.593.92.627 17.84 1.698 18.27-.166.37-1.698-1.02-4.984-2.59-5.427Zm-301.951 7.033c4.051.295 19.53 1.015 17.07-6.424-1.017-3.082-16.126-.387-16.922 2.03-.425 1.311-.074 2.99-.148 4.394ZM590.789 36.4c.684.978 21.952 7.604 19.197-2.4-.315-1.163-13.501-2.99-15.646-2.584-2.145.406-4.772 3.248-3.551 4.984Zm1107.841-.111c.46-.739.3-3.304 0-4.246-1.27-3.802-7.75.185-10.52.259-2.59.074-8.14-3.009-8.55 1.606-.64 7.29 17.83 4.337 19.09 2.362l-.02.019Zm14.48.923c3.41-.462 14.78-4.227 11.43-8.934-1.85-2.603-18.1 2.86-18.66 4.707-1.11 3.747 4.4 4.614 7.23 4.227Zm-841.823-.074c3.865-.425 13.389-1.975 9.413-7.826-1.147-1.68-15.442 1.292-16.718 2.547-5.327 5.26 3.347 5.703 7.305 5.279Zm41.981-11.684c-5.992-.812-21.971-1.33-18.882 8.27 1.461 4.54 5.141-.72 6.602-1.145 4.901-1.44 14.333 1.698 12.28-7.125Zm-640.316 8.694c7.065-6.793-16.256-8.51-16.94-2.252-.611 5.611 15.091 4.042 16.94 2.252Zm1392.888.092c1.76-.572 2.15-2.584 1.57-4.264-.85-2.492-20.34-5.464-23.1-4.135-1.97.96-2.82 3.304-1.03 5.04 1.59 1.513 19.95 4.19 22.54 3.359h.02Zm-316.67-.037c2.33-.314 13.15-3.618 13.76-5.5 2.7-8.325-16.16-2.16-17.53.646-1.78 3.617.05 5.352 3.79 4.854h-.02Zm-1039.581.13c.943.682 14.573-2.29 15.572-3.932 4.882-8.03-14.907-5.095-16.257-.056-.24.923.222 3.673.685 3.987Zm-26.04-1.182c2.626 2.289 17.902 2.215 15.794-4.19-.74-2.252-16.774-2.732-17.125-.96-.204 1.052.517 4.448 1.35 5.15h-.019Zm295.478.092c2.441-.794 2.46-4.891-.037-5.703-3.421-1.126-22.47-3.415-17.033 3.931 1.258 1.698 14.684 2.547 17.07 1.79v-.018ZM225.922 26.45c-5.53 8.011 24.116 9.691 17.125 1.33-1.405-1.68-16.052-2.88-17.125-1.33Zm871.708.148c-1.48-1.403-13.05-2.713-15.36-2.252-3.24.628-3.78 4.301-.8 5.833 2.76 1.421 15.26 3.765 17 .185.55-1.108-.02-3.027-.82-3.766h-.02Zm-59.36-3.138c-1.89-1.181-16.18.628-17.53 2.861-1.63 2.695-.32 5.15 2.99 5.113 1.87-.018 12.23-1.218 13.43-1.716 2.37-.997 2.37-5.464 1.09-6.258h.02Zm10.32 5.815c1.05 1.55 18.42 3.156 15.96-4.338-.78-2.344-11.1-2.067-13.34-1.421-2.09.609-3.71 4.153-2.62 5.74v.019Zm-55.41-5.815c-4.734 7.531 15.65 8.196 18.07 6.48 1.07-.758 1.46-4.782.83-5.501-.66-.794-17.753-2.806-18.9-.96v-.019Zm-47.677 0c-1.424-2.362-18.013-.683-19.53 1.846-5.289 8.823 19.382 3.766 19.715 2.363.203-.83.185-3.6-.185-4.209Zm-584.594 6.904c3.791.461 24.246.369 22.175-6.516-.777-2.584-16.534-.665-18.975.13-3.81 1.217-3.366 2.546-3.2 6.386Zm-7.286-1.219c.684-.498 1.405-3.23 1.146-4.153-1.202-4.227-18.087-1.218-18.087 2.861 0 4.08 15.091 2.64 16.941 1.292Zm-137.54 1.071c3.015-.978 1.887-5.814-1.054-6.7-2.256-.665-13.556-.942-14.333 1.403-2.108 6.423 11.781 6.46 15.387 5.279v.018Zm743.179-.85c2.774.832 15.073 0 19.16 0 .351 0 1.591-1.107 2.423-1.107 3.31-8.583-18.346-6.608-21.398-4.762-2.496 1.514-2.256 5.242-.185 5.87Zm-408.457-.165c3.015-.997 1.868-5.851-1.054-6.682-3.089-.886-14.425-1.735-17.199-.461-2.775 1.273-3.366 5.242-.592 6.146 1.128.37 17.754 1.366 18.845.997Zm-358.394-6.756c-.351-.572-11.762-2.123-13.39-2.067-5.4.166-8.026 5.574-3.976 6.83 1.628.498 13.297 1.476 14.98 1.162 2.737-.535 3.477-4.116 2.386-5.906v-.019Zm1434.129 4.836c2.44-.683 2.42-5.279-.03-6.81-4.83-3.01-18.92-.868-13.47 4.374 1.04.996 12.54 2.695 13.5 2.418v.018Zm-1230.141-.166c3.606-.074 16.515-2.215 12.465-7.882-1.332-1.845-14.61.739-16.275 2.012-3.643 2.787-.259 5.962 3.81 5.87Zm988.081-.997c2.81-.424 11.46-2.731 9.35-6.83-2.11-4.097-14.79.37-15.53 2.677-1.52 4.689 2.66 4.67 6.19 4.153h-.01ZM437.4 17.424c-1.22-1.956-17.421.997-18.531 2.861-4.827 8.03 13.704 4.08 16.978 2.861 1.886-.7 2.459-4.282 1.572-5.722h-.019Zm-271.713 7.771c3.033-1.015 1.979-5.555-1.091-6.663-3.458-1.255-20.824-3.489-15.942 3.84 1.054 1.587 14.869 3.543 17.033 2.823Zm339.623-2.067c1.72 1.237 15.35 1.864 16.959.757 1.609-1.108 1.535-4.67-.74-5.408-2.533-.831-13.426-1.81-15.775-1.237-1.609.388-1.72 4.947-.444 5.888Zm1075.64-6.719c-.51.332-1.18 2.917-.72 3.877 2.02 4.097 20.09 5.703 16.2-2.012-1.2-2.4-13.76-2.954-15.49-1.865h.01ZM491.329 23.165c3.107-1.015 2.089-5.334-1.314-6.442-3.402-1.107-19.159-2.012-14.721 4.633 1.461 2.178 13.556 2.603 16.035 1.809Zm-28.574-6.885c-.573-.59-14.258-.757-15.645 1.994-3.884 7.715 14.203 5.998 15.479 2.362.277-.812.37-4.171.166-4.356Zm-446.37 6.793c1.129-.166 8.082-2.29 8.378-2.695 5.42-7.568-15.165-5.925-15.756-.554-.481 4.504 4.142 3.729 7.379 3.267v-.018Zm1546.775-8.805c-3.92-1.089-12.13.794-16.62 0 .22 1.477-.71 4.264.57 5.15 2.31 1.587 18.68 3.378 19.59.35.68-1.587-2.59-5.241-3.52-5.5h-.02Zm-136.59-2.012c-3.92.037-15.8-.498-18.26 2.418-2.05 2.437-1.25 5.796 2.48 5.593 2.37-.13 12.56-1.347 14.06-2.16 2.49-1.347 1.68-3.322 1.72-5.85Zm-1286.09 7.9c2.552-.83 2.367-4.319-.018-5.722-2.035-1.181-16.386-4.614-17.403-1.55-2.016 6.128 13.667 8.509 17.421 7.272Zm1388.41-7.9c-2.57-.793-14.29 0-18.14 0-1.39 0-2.83 4.928.15 5.888 2.61.831 9.54.056 12.95.148 2.49.074 5.93 2.769 6.6-1.532.22-1.458-.11-4.06-1.56-4.504ZM36.488 17.996c2.886-.276 14.24-1.365 12.835-6.127-1.405-4.763-18.142-.536-18.956 2.03-1.59 5.002 2.848 4.393 6.122 4.098Zm1424.852-.72c3.45-2.842.99-6.773-3.09-6.995-1.22-.074-12.93 1.181-13.56 1.477-2.81 1.347-2.2 5.537-.52 5.537h17.15l.02-.018Zm28-1.217c2.92-.665 5.12-2.658 2.83-5.409-2.3-2.75-18.44-2.88-16.15 4.006.81 2.418 10.76 1.975 13.32 1.384v.019Zm-1371.497-.886c.759-.886.352-5.206-1.535-5.815-.684-.221-11.133-1.273-11.891-1.163-4.254.665-4.827 5.685-.851 6.848 2.201.646 13.001 1.662 14.296.111l-.019.019Zm-55.075-1.145c4.79-.867 8.656-6.239 4.106-7.697-2.127-.683-17.2.812-14.388 6.331.832 2.492 7.897 1.81 10.264 1.385l.018-.019Zm28.463-.775c2.09-1.218 3.883-5.002 1.553-6.59-.518-.35-11.17-1.476-12.65-1.458-8.988.037-7.046 8.066-5.03 8.066H91.23v-.018Z"/>
        <path fill="#F3C054"
              d="M1665.84 34.24c-2.59.849-20.97-1.828-22.54-3.36-1.81-1.735-.96-4.079 1.03-5.039 2.76-1.329 22.25 1.625 23.1 4.135.58 1.68.19 3.692-1.57 4.264h-.02ZM959.262 29.367c-2.089-.628-2.311-4.356.185-5.87 3.052-1.846 24.708-3.84 21.398 4.762-.832 0-2.053 1.108-2.423 1.108-4.087 0-16.386.83-19.16 0ZM1204.1 44.318c-1.79.59-17.71-.461-19.8-1.052-3.92-1.126-3.54-6.073.92-6.553 1.31-.147 16.92.646 17.81.923 2.96.868 4.07 5.704 1.06 6.682h.01ZM1252.65 49.505c-2.11-.646-2.2-4.356.09-5.962 2.3-1.606 19.18-1.532 20.48 0 .77.941-.08 5.943-1.41 5.943-4.09 0-16.4.83-19.16 0v.019ZM550.805 29.2c-1.091.37-17.717-.627-18.845-.996-2.774-.904-2.275-4.817.592-6.146 2.866-1.33 14.111-.425 17.199.461 2.922.83 4.087 5.704 1.054 6.682ZM360.909 30.364c-.185-3.84-.61-5.169 3.2-6.387 2.459-.794 18.198-2.732 18.975-.13 2.071 6.886-18.384 6.978-22.175 6.517ZM91.23 13.253H75.105c-2.016 0-3.958-8.01 5.03-8.066 1.48 0 12.132 1.107 12.65 1.458 2.33 1.587.518 5.371-1.553 6.59v.018ZM913.268 25.454c2.053 8.823-7.398 5.685-12.28 7.125-1.443.424-5.141 5.685-6.603 1.144-3.088-9.617 12.891-9.081 18.883-8.27ZM945.503 23.46c.37.628.388 3.378.185 4.209-.333 1.403-25.004 6.46-19.715-2.363 1.517-2.529 18.106-4.208 19.53-1.846ZM993.18 23.46c1.147-1.827 18.24.166 18.9.96.61.738.22 4.744-.83 5.5-2.42 1.717-22.804 1.053-18.07-6.478v.018ZM1528.89 12.256c1.45.443 1.78 3.064 1.56 4.504-.67 4.3-4.11 1.606-6.6 1.532-3.39-.092-10.34.683-12.95-.148-3-.96-1.54-5.888-.15-5.888 3.85 0 15.59-.793 18.14 0ZM1282.52 40.553c.57-.886 14.46-3.544 16.49-3.175 2.61.498 3.26 3.064 2.61 5.463-.22.83-15.53 3.821-16.68 3.655-2.75-.406-3.48-4.32-2.42-5.962v.019ZM1563.16 14.268c.93.258 4.2 3.913 3.52 5.5-.89 3.028-17.28 1.219-19.59-.35-1.29-.886-.35-3.673-.57-5.15 4.49.794 12.72-1.089 16.62 0h.02ZM140.48 20.156c-3.754 1.237-19.437-1.144-17.421-7.272 1.017-3.064 15.368.369 17.403 1.55 2.385 1.403 2.57 4.873.018 5.722ZM165.687 25.195c-2.164.72-15.979-1.218-17.033-2.824-4.882-7.328 12.484-5.094 15.942-3.84 3.07 1.108 4.124 5.65 1.091 6.664ZM437.4 17.424c.906 1.44.333 5.003-1.572 5.723-3.255 1.218-21.804 5.186-16.977-2.861 1.109-1.865 17.31-4.818 18.531-2.862h.018ZM1713.11 37.212c-2.81.387-8.34-.48-7.23-4.227.56-1.846 16.79-7.291 18.66-4.707 3.35 4.707-8.02 8.454-11.43 8.934ZM192.411 22.445c1.109 1.79.351 5.371-2.386 5.907-1.683.332-13.353-.665-14.98-1.163-4.05-1.237-1.424-6.645 3.976-6.83 1.628-.055 13.038 1.495 13.39 2.068v.018ZM1426.57 12.256c-.04 2.529.77 4.504-1.72 5.852-1.52.812-11.69 2.03-14.06 2.16-3.73.202-4.53-3.157-2.48-5.594 2.46-2.916 14.34-2.362 18.26-2.418ZM1698.63 36.289c-1.26 1.975-19.73 4.928-19.08-2.363.4-4.614 5.95-1.532 8.54-1.606 2.77-.092 9.25-4.06 10.52-.258.32.941.48 3.507 0 4.245l.02-.018ZM36.489 17.997c-3.274.295-7.73.904-6.122-4.098.814-2.566 17.57-6.719 18.956-2.03 1.387 4.688-9.95 5.85-12.834 6.128ZM1167.74 41.236c-2.71.812-14.42.756-15.94-1.79-4.21-7.015 11.64-5.594 15.48-4.394 4.46 1.403 4.09 5.095.46 6.165v.019ZM871.287 37.138c-3.958.424-12.632-.019-7.305-5.28 1.276-1.254 15.571-4.226 16.718-2.547 3.976 5.852-5.548 7.42-9.413 7.827ZM1038.27 23.46c1.26.794 1.27 5.26-1.09 6.258-1.2.498-11.56 1.698-13.43 1.716-3.31.037-4.64-2.4-3-5.113 1.35-2.252 15.65-4.042 17.54-2.86h-.02ZM622.173 42.325c-1.794-2.843.167-5.686 3.348-5.723 2.885-.036 15.424 1.219 15.738 4.357.666 6.848-18.513 2.288-19.086 1.365ZM590.789 36.4c-1.221-1.754 1.35-4.578 3.551-4.984 2.2-.406 15.331 1.421 15.645 2.584 2.738 10.023-18.53 3.378-19.196 2.4ZM1097.63 26.598c.8.739 1.37 2.658.82 3.766-1.72 3.58-14.24 1.218-17-.185-2.98-1.532-2.42-5.205.8-5.833 2.33-.443 13.89.85 15.37 2.252h.01ZM1461.34 17.277h-17.15c-1.7 0-2.31-4.172.52-5.538.61-.295 12.34-1.532 13.56-1.476 4.06.221 6.52 4.153 3.08 6.995l-.01.019ZM1349.17 34.203c-3.72.498-5.55-1.237-3.79-4.855 1.37-2.805 20.23-8.952 17.53-.646-.61 1.883-11.41 5.187-13.76 5.501h.02ZM1237.52 46.477h-16.12c-2.17 0-3.56-6.921 5.04-7.143 4.54-.11 17.31.812 11.1 7.143h-.02ZM799.66 43.21c-3.625.314-5.641-1.07-3.736-4.817 1.368-2.695 15.479-5.519 17.236-3.064 3.976 5.537-10.042 7.586-13.5 7.882ZM579.027 33.243c-2.368.775-15.813-.092-17.07-1.79-5.437-7.328 13.611-5.04 17.033-3.932 2.496.812 2.459 4.928.037 5.704v.018ZM666.651 48.324c-2.959.553-15.424-.646-14.259-5.187 1.276-4.984 17.292-2.03 17.958-.074.925 2.732-1.054 4.762-3.717 5.26h.018ZM491.329 23.165c-2.46.794-14.574.37-16.035-1.809-4.457-6.645 11.152-5.777 14.721-4.633 3.57 1.145 4.421 5.427 1.314 6.442ZM505.31 23.128c-1.276-.923-1.165-5.482.444-5.888 2.367-.572 13.26.406 15.775 1.237 2.256.738 2.404 4.264.74 5.408-1.665 1.144-15.258.48-16.959-.757ZM396.399 27.115c-4.068.092-7.434-3.101-3.81-5.87 1.665-1.273 14.944-3.858 16.275-2.012 4.05 5.667-8.877 7.808-12.465 7.882ZM225.922 26.45c1.073-1.55 15.738-.35 17.125 1.33 6.991 8.361-22.655 6.681-17.125-1.33ZM272.952 34.148c-1.849 1.771-17.551 3.34-16.94-2.252.684-6.24 24.005-4.541 16.94 2.252ZM1132.68 32.394c1.57.443 2.98 3.729 2.59 5.427-.41 1.864-17.35.794-18.27.166-1.98-1.366-.76-5.593.55-5.593 3.52 0 12.6-.701 15.13 0ZM830.729 39.427c.074-1.403-.277-3.064.148-4.393.795-2.418 15.887-5.132 16.922-2.03 2.46 7.438-13.02 6.718-17.07 6.423ZM216.083 30.216c-3.606 1.181-17.513 1.144-15.387-5.279.777-2.344 12.095-2.067 14.333-1.403 2.959.868 4.069 5.704 1.054 6.7v-.018ZM720.025 46.182c-2.848.333-11.448 1.828-10.153-3.064.998-3.784 16.533-6.128 17.902-2.012 1.59 4.836-4.143 4.67-7.749 5.076ZM679.504 46.478c-.499-.517.037-6.036 1.517-6.036h16.127c2.663 0 .98 6.036-1.018 6.036-2.367 0-16.052.59-16.626 0ZM283.549 33.15c-.814-.719-1.553-4.097-1.35-5.149.351-1.753 16.386-1.292 17.125.96 2.109 6.405-13.167 6.479-15.793 4.19h.018ZM309.589 34.332c-.444-.332-.925-3.064-.685-3.987 1.35-5.02 21.139-7.974 16.257.056-.999 1.66-14.629 4.614-15.572 3.931ZM117.843 15.172c-1.294 1.533-12.095.536-14.296-.11-3.976-1.163-3.402-6.184.851-6.848.758-.111 11.207.941 11.892 1.163 1.886.59 2.293 4.91 1.535 5.814l.018-.019ZM353.623 29.145c-1.85 1.348-16.959 2.917-16.941-1.292.019-4.208 16.885-7.088 18.087-2.86.259.904-.462 3.654-1.146 4.152ZM1321.97 40.202c-3.67.627-11.01 1.44-9.21-4.135.98-3.045 20.23-6.645 16.53.37-.91 1.734-5.38 3.433-7.32 3.765ZM1489.34 16.059c-2.54.572-12.51 1.033-13.32-1.385-2.31-6.903 13.85-6.737 16.15-4.005 2.29 2.732.09 4.725-2.83 5.408v-.018ZM1580.95 16.41c1.72-1.09 14.28-.536 15.5 1.864 3.89 7.715-14.2 6.11-16.2 2.011-.46-.96.21-3.543.72-3.876h-.02ZM462.756 16.28c.185.185.111 3.544-.167 4.356-1.257 3.637-19.344 5.353-15.479-2.362 1.387-2.77 15.091-2.585 15.646-1.994ZM62.768 14.028c-2.386.425-9.432 1.126-10.264-1.384-2.811-5.52 12.262-7.014 14.388-6.331 4.55 1.476.685 6.848-4.105 7.697l-.019.018ZM1626.54 27.281c-.96.277-12.44-1.421-13.5-2.418-5.47-5.242 8.62-7.383 13.47-4.374 2.46 1.532 2.47 6.11.03 6.81v-.018ZM764.336 42.306c-.499-.812-.536-4.282.444-5.002.721-.517 10.449-1.717 12.058-1.717 3.495 0 4.438 1.957 3.347 5.205-.739 2.197-14.61 3.49-15.83 1.514h-.019ZM1048.59 29.275c-1.07-1.606.53-5.132 2.62-5.74 2.24-.647 12.56-.924 13.34 1.42 2.46 7.494-14.91 5.889-15.96 4.338v-.018ZM1384.47 26.118c-3.51.517-7.71.536-6.19-4.153.74-2.307 13.41-6.792 15.53-2.676 2.13 4.116-6.54 6.405-9.35 6.83h.01ZM16.386 23.073c-3.236.461-7.86 1.236-7.38-3.267.574-5.372 21.176-6.996 15.758.553-.296.406-7.25 2.548-8.378 2.695v.019ZM744.252 45.24c-3.44.407-6.399.222-5.123-4.115.832-2.806 12.594-6.387 14.518-2.695 2.311 4.43-6.14 6.423-9.395 6.81Z"/>
    </g>
    <path fill="#65439C" d="M0 419h1728v481H0z"/>
    <defs>
        <clipPath id="a">
            <path fill="#fff" d="M1728 419H0V0h1728z"/>
        </clipPath>
    </defs>
</svg>