<svg width="390" height="983" viewBox="0 0 390 983" fill="none" xmlns="http://www.w3.org/2000/svg">
    <g clipPath="url(#clip0_1410_7668)">
        <path
                d="M-245 227V4.46001C-231.21 2.54001 -217.351 -0.169993 -203.331 0.0700073C-184.518 0.380007 -166.824 5.59 -148.371 7.72C-129.918 9.85 -112.114 10.92 -93.9604 10.43C-54.0486 9.33999 -15.5048 2.77999 24.7466 4.42999C61.9224 5.95999 97.7701 17.97 135.245 17.02C186.88 15.72 236.238 5.67001 288.752 6.07001C327.965 6.36001 363.812 11.09 402.506 14.27C448.349 18.04 487.792 6.17001 532.526 0.570007C533.625 0.430007 541.224 0 544.219 0H561.195C564.19 0 567.535 0.580004 569.053 0.660004C583.931 1.47 598.84 0.819999 613.708 2.28C631.582 4.04 650.435 9.49001 667.61 10.99C674.46 11.59 681.25 10.05 688.01 9.36V227H-244.99H-245ZM431.344 26.82C432.832 27.27 439.482 26.82 441.689 26.82C442.408 26.82 442.867 24.1 442.448 23.6C441.749 22.76 432.672 22.69 431.394 23.6C430.116 24.51 430.206 26.48 431.344 26.83V26.82ZM114.945 26.18C116.373 25.91 117.451 24.81 116.952 23.33C116.593 22.27 107.945 20.67 107.256 23.37C106.627 25.83 113.357 26.48 114.955 26.18H114.945ZM447.47 21.97C446.901 22.86 447.291 24.98 448.778 25.2C449.388 25.29 457.656 23.66 457.785 23.22C458.145 21.92 457.785 20.52 456.377 20.26C455.279 20.05 447.78 21.49 447.47 21.98V21.97ZM423.176 25.18C426.531 21.75 419.641 21.25 417.185 21.31C412.541 21.43 413.3 25.18 414.458 25.18H423.166H423.176ZM143.763 25.02C145.71 24.8 148.806 24.88 147.947 22.27C147.208 20.04 138.82 21.31 138.281 23.36C137.582 26.01 142.235 25.2 143.763 25.02ZM121.885 25.18C122.194 25.5 129.594 25.18 130.862 25.18C131.93 25.18 132.849 21.91 131.411 21.91H122.704C121.905 21.91 121.615 24.9 121.885 25.18ZM156.844 24.51C158.601 24.3 163.155 23.22 161.917 20.82C160.878 18.83 154.527 20.77 154.078 22.28C153.389 24.62 154.977 24.73 156.844 24.51ZM405.132 24.01C406.76 23.48 406.151 20.86 404.563 20.39C404.084 20.25 395.656 19.82 394.947 19.89C392.54 20.15 392.331 22.83 394.448 23.44C395.576 23.76 404.173 24.33 405.142 24.01H405.132ZM90.9301 22.93C91.2396 23.43 101.595 25.9 101.235 22.19C101.065 20.5 94.3051 19.82 92.7374 19.83C91.0199 19.85 89.9615 21.38 90.9301 22.93ZM186.76 23.41C188.628 23.25 196.197 22.14 194.05 19.14C193.101 17.82 185.482 19.34 184.743 20.8C183.715 22.83 184.803 23.58 186.76 23.41ZM167.688 22.92C168.347 23.99 175.836 23.3 176.236 22.1C176.835 20.34 176.316 19.28 174.428 19.28C173.56 19.28 168.307 19.93 167.918 20.21C167.389 20.6 167.409 22.48 167.678 22.92H167.688ZM385.501 22.34C387.448 21.76 387.648 19.75 385.251 19C383.174 18.35 374.617 17.58 376.893 21.38C377.712 22.75 384.033 22.78 385.501 22.35V22.34ZM468.769 21.78C469.818 21.6 472.224 20.68 472.724 19.74C474.721 15.94 464.326 17.89 463.797 19.54C462.828 22.56 466.802 22.12 468.769 21.78ZM366.568 17.55C365.2 17.17 360.297 17.55 358.4 17.55C357.691 17.55 357.032 19.84 358.101 20.58C358.6 20.92 367.737 21.5 367.966 20.49C368.166 19.57 367.417 17.79 366.568 17.55ZM203.536 21.36C205.723 21.52 214.081 21.91 212.752 17.88C212.203 16.21 204.045 17.67 203.616 18.98C203.386 19.69 203.576 20.6 203.536 21.36ZM73.9848 19.72C74.3543 20.25 85.8375 23.84 84.3496 18.42C84.1799 17.79 77.0603 16.8 75.902 17.02C74.7437 17.24 73.3258 18.78 73.9848 19.72ZM672.143 19.66C672.393 19.26 672.303 17.87 672.143 17.36C671.454 15.3 667.959 17.46 666.461 17.5C665.063 17.54 662.068 15.87 661.848 18.37C661.498 22.32 671.474 20.72 672.153 19.65L672.143 19.66ZM679.961 20.16C681.799 19.91 687.94 17.87 686.133 15.32C685.134 13.91 676.357 16.87 676.057 17.87C675.458 19.9 678.434 20.37 679.961 20.16ZM225.434 20.12C227.521 19.89 232.663 19.05 230.517 15.88C229.898 14.97 222.179 16.58 221.49 17.26C218.614 20.11 223.297 20.35 225.434 20.12ZM248.101 13.79C244.866 13.35 236.238 13.07 237.906 18.27C238.695 20.73 240.682 17.88 241.471 17.65C244.117 16.87 249.209 18.57 248.101 13.79ZM-97.6251 18.5C-93.8107 14.82 -106.402 13.89 -106.772 17.28C-107.101 20.32 -98.6237 19.47 -97.6251 18.5ZM654.439 18.55C655.387 18.24 655.597 17.15 655.287 16.24C654.828 14.89 644.303 13.28 642.816 14C641.747 14.52 641.288 15.79 642.256 16.73C643.115 17.55 653.031 19 654.429 18.55H654.439ZM483.458 18.53C484.716 18.36 490.558 16.57 490.887 15.55C492.345 11.04 482.16 14.38 481.421 15.9C480.462 17.86 481.451 18.8 483.468 18.53H483.458ZM-77.844 18.6C-77.3347 18.97 -69.9754 17.36 -69.4362 16.47C-66.8 12.12 -77.4845 13.71 -78.2134 16.44C-78.3432 16.94 -78.0936 18.43 -77.844 18.6ZM-91.9034 17.96C-90.4855 19.2 -82.2375 19.16 -83.3759 15.69C-83.7753 14.47 -92.4327 14.21 -92.6224 15.17C-92.7322 15.74 -92.3428 17.58 -91.8935 17.96H-91.9034ZM67.634 18.01C68.9521 17.58 68.9621 15.36 67.6141 14.92C65.7668 14.31 55.4817 13.07 58.4175 17.05C59.0965 17.97 66.3459 18.43 67.634 18.02V18.01ZM-123.018 14.33C-126.004 18.67 -109.997 19.58 -113.772 15.05C-114.53 14.14 -122.439 13.49 -123.018 14.33ZM347.646 14.41C346.847 13.65 340.596 12.94 339.348 13.19C337.601 13.53 337.311 15.52 338.919 16.35C340.406 17.12 347.157 18.39 348.095 16.45C348.395 15.85 348.085 14.81 347.656 14.41H347.646ZM315.593 12.71C314.574 12.07 306.855 13.05 306.126 14.26C305.248 15.72 305.957 17.05 307.744 17.03C308.753 17.02 314.344 16.37 314.993 16.1C316.272 15.56 316.272 13.14 315.583 12.71H315.593ZM321.164 15.86C321.734 16.7 331.11 17.57 329.782 13.51C329.363 12.24 323.791 12.39 322.582 12.74C321.454 13.07 320.575 14.99 321.164 15.85V15.86ZM291.248 12.71C288.692 16.79 299.696 17.15 301.004 16.22C301.583 15.81 301.793 13.63 301.453 13.24C301.094 12.81 291.867 11.72 291.248 12.72V12.71ZM265.506 12.71C264.737 11.43 255.78 12.34 254.961 13.71C252.105 18.49 265.426 15.75 265.605 14.99C265.715 14.54 265.705 13.04 265.506 12.71ZM-50.1343 16.45C-48.0873 16.7 -37.0434 16.65 -38.1617 12.92C-38.5811 11.52 -47.0887 12.56 -48.4068 12.99C-50.4638 13.65 -50.2242 14.37 -50.1343 16.45ZM-54.0686 15.79C-53.6991 15.52 -53.3097 14.04 -53.4495 13.54C-54.0986 11.25 -63.2153 12.88 -63.2153 15.09C-63.2153 17.3 -55.0672 16.52 -54.0686 15.79ZM-128.33 16.37C-126.703 15.84 -127.312 13.22 -128.9 12.74C-130.118 12.38 -136.219 12.23 -136.638 13.5C-137.777 16.98 -130.278 17 -128.33 16.36V16.37ZM272.935 15.91C274.433 16.36 281.073 15.91 283.28 15.91C283.469 15.91 284.138 15.31 284.588 15.31C286.375 10.66 274.682 11.73 273.035 12.73C271.687 13.55 271.816 15.57 272.935 15.91ZM52.3962 15.82C54.0238 15.28 53.4048 12.65 51.8271 12.2C50.1595 11.72 44.0384 11.26 42.5406 11.95C41.0428 12.64 40.7233 14.79 42.2211 15.28C42.8302 15.48 51.8071 16.02 52.3962 15.82ZM-141.112 12.16C-141.301 11.85 -147.462 11.01 -148.341 11.04C-151.257 11.13 -152.675 14.06 -150.488 14.74C-149.609 15.01 -143.308 15.54 -142.4 15.37C-140.922 15.08 -140.523 13.14 -141.112 12.17V12.16ZM633.22 14.78C634.538 14.41 634.528 11.92 633.2 11.09C630.593 9.46 622.985 10.62 625.93 13.46C626.489 14 632.7 14.92 633.22 14.77V14.78ZM-30.9723 14.69C-29.0251 14.65 -22.0553 13.49 -24.2421 10.42C-24.961 9.42 -32.1306 10.82 -33.0293 11.51C-34.9964 13.02 -33.1691 14.74 -30.9723 14.69ZM502.52 14.15C504.038 13.92 508.711 12.67 507.573 10.45C506.434 8.23 499.584 10.65 499.185 11.9C498.366 14.44 500.623 14.43 502.53 14.15H502.52ZM-8.83449 9.44C-9.49353 8.38 -18.2408 9.98001 -18.8399 10.99C-21.4461 15.34 -11.4407 13.2 -9.6733 12.54C-8.65478 12.16 -8.34526 10.22 -8.82456 9.44H-8.83449ZM-155.541 13.65C-153.903 13.1 -154.472 10.64 -156.13 10.04C-157.997 9.35999 -167.373 8.15 -164.737 12.12C-164.168 12.98 -156.709 14.04 -155.541 13.65ZM27.832 12.53C28.7607 13.2 36.1199 13.54 36.9887 12.94C37.8574 12.34 37.8175 10.41 36.5893 10.01C35.2213 9.55999 29.3398 9.03 28.0717 9.34C27.2029 9.55 27.143 12.02 27.832 12.53ZM608.606 8.89C608.326 9.07 607.966 10.47 608.216 10.99C609.304 13.21 619.06 14.08 616.963 9.89999C616.314 8.59999 609.534 8.3 608.596 8.89H608.606ZM20.283 12.55C21.9606 12 21.4114 9.66 19.574 9.06C17.7367 8.46 9.22917 7.97001 11.6257 11.57C12.4145 12.75 18.945 12.98 20.283 12.55ZM4.85551 8.82001C4.54596 8.50001 -2.84323 8.40999 -3.59214 9.89999C-5.68908 14.08 4.07668 13.15 4.76568 11.18C4.91546 10.74 4.96535 8.92001 4.85551 8.82001ZM-236.153 12.5C-235.544 12.41 -231.79 11.26 -231.63 11.04C-228.704 6.93999 -239.818 7.83001 -240.137 10.74C-240.397 13.18 -237.901 12.76 -236.153 12.51V12.5ZM599 7.73C596.883 7.14 592.449 8.16 590.023 7.73C590.142 8.53 589.643 10.04 590.332 10.52C591.58 11.38 600.417 12.35 600.907 10.71C601.276 9.85001 599.509 7.87 599.009 7.73H599ZM525.247 6.64C523.13 6.66 516.719 6.37 515.391 7.95C514.283 9.27 514.712 11.09 516.729 10.98C518.008 10.91 523.51 10.25 524.318 9.81C525.666 9.08 525.227 8.01 525.247 6.64ZM-169.151 10.92C-167.773 10.47 -167.873 8.58001 -169.161 7.82001C-170.259 7.18001 -178.008 5.32 -178.557 6.98C-179.646 10.3 -171.178 11.59 -169.151 10.92ZM580.496 6.64C579.108 6.21 572.778 6.64 570.701 6.64C569.952 6.64 569.173 9.31 570.781 9.83C572.189 10.28 575.933 9.86 577.77 9.91C579.118 9.95 580.976 11.41 581.335 9.08C581.455 8.29 581.275 6.88 580.496 6.64ZM-225.299 9.75C-223.741 9.6 -217.61 9.00999 -218.369 6.42999C-219.128 3.84999 -228.165 6.14 -228.604 7.53C-229.463 10.24 -227.066 9.91 -225.299 9.75ZM544.02 9.36C545.887 7.82 544.559 5.69001 542.352 5.57001C541.693 5.53001 535.372 6.21 535.033 6.37C533.515 7.1 533.844 9.37 534.753 9.37H544.01L544.02 9.36ZM559.138 8.7C560.715 8.34 561.904 7.26 560.665 5.77C559.427 4.28 550.71 4.21 551.948 7.94C552.387 9.25 557.76 9.01 559.138 8.69V8.7ZM-181.373 8.22C-180.964 7.74 -181.183 5.40001 -182.202 5.07001C-182.571 4.95001 -188.213 4.38 -188.622 4.44C-190.919 4.8 -191.229 7.51999 -189.082 8.14999C-187.894 8.49999 -182.062 9.05001 -181.363 8.21001L-181.373 8.22ZM-211.11 7.60001C-208.523 7.13001 -206.437 4.21999 -208.893 3.42999C-210.041 3.05999 -218.179 3.87 -216.662 6.86C-216.212 8.21 -212.398 7.84 -211.12 7.61L-211.11 7.60001ZM-195.742 7.17999C-194.614 6.51999 -193.645 4.47 -194.903 3.61C-195.183 3.42 -200.935 2.81001 -201.733 2.82001C-206.586 2.84001 -205.538 7.19 -204.449 7.19H-195.742V7.17999Z"
                fill="#65439C"
        />
        <path
                d="M272.935 15.91C271.807 15.57 271.687 13.55 273.035 12.73C274.683 11.73 286.376 10.65 284.588 15.31C284.139 15.31 283.48 15.91 283.28 15.91C281.073 15.91 274.433 16.36 272.935 15.91Z"
                fill="#F3C054"
        />
        <path
                d="M52.3964 15.8201C51.8072 16.0201 42.8304 15.4801 42.2213 15.2801C40.7234 14.7901 40.993 12.6701 42.5407 11.9501C44.0885 11.2301 50.1597 11.7201 51.8272 12.2001C53.4049 12.6501 54.034 15.2901 52.3964 15.8201Z"
                fill="#F3C054"
        />
        <path
                d="M248.101 13.7899C249.21 18.5699 244.107 16.8699 241.471 17.6499C240.692 17.8799 238.695 20.73 237.906 18.27C236.238 13.06 244.866 13.3499 248.101 13.7899Z"
                fill="#F3C054"
        />
        <path
                d="M265.506 12.7099C265.706 13.0499 265.716 14.5399 265.606 14.9899C265.426 15.7499 252.106 18.4899 254.961 13.7099C255.78 12.3399 264.737 11.4299 265.506 12.7099Z"
                fill="#F3C054"
        />
        <path
                d="M291.249 12.71C291.868 11.72 301.094 12.8 301.454 13.23C301.783 13.63 301.574 15.8 301.004 16.21C299.696 17.14 288.692 16.78 291.249 12.7V12.71Z"
                fill="#F3C054"
        />
        <path
                d="M385.501 22.34C384.033 22.78 377.712 22.75 376.894 21.37C374.617 17.57 383.174 18.34 385.251 18.99C387.658 19.75 387.458 21.75 385.501 22.33V22.34Z"
                fill="#F3C054"
        />
        <path
                d="M225.434 20.1199C223.297 20.3499 218.614 20.1099 221.49 17.2599C222.179 16.5799 229.898 14.9699 230.517 15.8799C232.664 19.0499 227.521 19.8999 225.434 20.1199Z"
                fill="#F3C054"
        />
        <path
                d="M315.593 12.7101C316.272 13.1401 316.282 15.5601 315.004 16.1001C314.355 16.3701 308.763 17.02 307.755 17.03C305.967 17.05 305.248 15.73 306.137 14.26C306.866 13.04 314.585 12.0701 315.603 12.7101H315.593Z"
                fill="#F3C054"
        />
        <path
                d="M90.93 22.93C89.9614 21.39 91.0199 19.85 92.7374 19.83C94.2951 19.81 101.065 20.49 101.235 22.19C101.594 25.9 91.2396 23.43 90.93 22.93Z"
                fill="#F3C054"
        />
        <path
                d="M73.9849 19.72C73.3258 18.77 74.7138 17.24 75.9021 17.02C77.0903 16.8 84.18 17.79 84.3497 18.42C85.8276 23.85 74.3444 20.25 73.9849 19.72Z"
                fill="#F3C054"
        />
        <path
                d="M347.646 14.41C348.075 14.81 348.385 15.85 348.085 16.45C347.157 18.39 340.397 17.11 338.909 16.35C337.301 15.52 337.601 13.53 339.338 13.19C340.596 12.95 346.837 13.65 347.636 14.41H347.646Z"
                fill="#F3C054"
        />
        <path
                d="M186.76 23.4101C184.803 23.5801 183.715 22.8301 184.743 20.8001C185.482 19.3401 193.101 17.8101 194.05 19.1401C196.197 22.1401 188.628 23.2501 186.76 23.4101Z"
                fill="#F3C054"
        />
        <path
                d="M67.634 18.01C66.3559 18.43 59.0965 17.96 58.4175 17.04C55.4818 13.07 65.7668 14.31 67.6141 14.91C68.9621 15.35 68.9421 17.58 67.634 18V18.01Z"
                fill="#F3C054"
        />
        <path
                d="M114.945 26.1801C113.348 26.4801 106.617 25.8301 107.246 23.3701C107.935 20.6701 116.583 22.2701 116.942 23.3301C117.442 24.8101 116.373 25.9101 114.935 26.1801H114.945Z"
                fill="#F3C054"
        />
        <path
                d="M20.283 12.5499C18.9549 12.9799 12.4145 12.7499 11.6256 11.5699C9.21914 7.96995 17.6468 8.43994 19.574 9.05994C21.5012 9.67994 21.9605 11.9999 20.283 12.5499Z"
                fill="#F3C054"
        />
        <path
                d="M27.8323 12.5299C27.1433 12.0299 27.2032 9.55992 28.0719 9.33992C29.3501 9.02992 35.2315 9.55992 36.5895 10.0099C37.8078 10.4099 37.8876 12.3199 36.9889 12.9399C36.0902 13.5599 28.7509 13.1999 27.8323 12.5299Z"
                fill="#F3C054"
        />
        <path
                d="M366.569 17.55C367.418 17.79 368.176 19.57 367.967 20.49C367.747 21.5 358.6 20.92 358.101 20.58C357.033 19.84 357.692 17.55 358.401 17.55C360.298 17.55 365.201 17.17 366.569 17.55Z"
                fill="#F3C054"
        />
        <path
                d="M203.536 21.36C203.576 20.6 203.387 19.7 203.616 18.98C204.046 17.67 212.194 16.2 212.753 17.88C214.081 21.91 205.723 21.52 203.536 21.36Z"
                fill="#F3C054"
        />
        <path
                d="M143.764 25.0201C142.226 25.2001 137.583 26.0101 138.282 23.3601C138.821 21.3101 147.209 20.0401 147.948 22.2701C148.806 24.8901 145.711 24.8001 143.764 25.0201Z"
                fill="#F3C054"
        />
        <path
                d="M121.885 25.18C121.616 24.9 121.905 21.9101 122.704 21.9101H131.411C132.849 21.9101 131.94 25.18 130.862 25.18C129.584 25.18 122.195 25.5 121.885 25.18Z"
                fill="#F3C054"
        />
        <path
                d="M4.85569 8.82003C4.95555 8.92003 4.91564 10.74 4.76586 11.18C4.08685 13.15 -5.67891 14.08 -3.59196 9.90002C-2.84305 8.40002 4.55613 8.50003 4.85569 8.82003Z"
                fill="#F3C054"
        />
        <path
                d="M167.688 22.92C167.419 22.48 167.399 20.6 167.928 20.21C168.317 19.93 173.57 19.28 174.438 19.28C176.326 19.28 176.835 20.34 176.246 22.1C175.846 23.29 168.357 23.99 167.698 22.92H167.688Z"
                fill="#F3C054"
        />
        <path
                d="M321.165 15.8601C320.586 14.9901 321.455 13.0801 322.583 12.7501C323.791 12.4001 329.363 12.2501 329.782 13.5201C331.111 17.5801 321.734 16.7101 321.165 15.8701V15.8601Z"
                fill="#F3C054"
        />
        <path
                d="M156.844 24.51C154.987 24.73 153.389 24.63 154.078 22.28C154.527 20.76 160.878 18.82 161.917 20.82C163.165 23.22 158.601 24.3 156.844 24.51Z"
                fill="#F3C054"
        />
    </g>
    <rect y="189" width="390" height="794" fill="#65439C"/>
    <defs>
        <clipPath id="clip0_1410_7668">
            <rect width="390" height="189" fill="white" transform="matrix(-1 0 0 -1 390 189)"/>
        </clipPath>
    </defs>
</svg>