<svg xmlns="http://www.w3.org/2000/svg" width="780" height="983" fill="none">
    <g clip-path="url(#a)">
        <path fill="#65439C"
              d="M-245 227V4.46c13.79-1.92 27.649-4.63 41.669-4.39 18.813.31 36.507 5.52 54.96 7.65 18.453 2.13 36.257 3.2 54.41 2.71 39.912-1.09 78.456-7.65 118.708-6C61.922 5.96 97.77 17.97 135.245 17.02c51.635-1.3 100.993-11.35 153.507-10.95 39.213.29 75.06 5.02 113.754 8.2 45.843 3.77 85.286-8.1 130.02-13.7 1.099-.14 8.698-.57 11.693-.57h16.976c2.995 0 6.34.58 7.858.66 14.878.81 29.787.16 44.655 1.62 17.874 1.76 36.727 7.21 53.902 8.71 6.85.6 13.64-.94 20.4-1.63V227H-245ZM431.344 26.82c1.488.45 8.138 0 10.345 0 .719 0 1.178-2.72.759-3.22-.699-.84-9.776-.91-11.054 0-1.278.91-1.188 2.88-.05 3.23v-.01Zm-316.399-.64c1.428-.27 2.506-1.37 2.007-2.85-.359-1.06-9.007-2.66-9.696.04-.629 2.46 6.101 3.11 7.699 2.81h-.01Zm332.525-4.21c-.569.89-.179 3.01 1.308 3.23.61.09 8.878-1.54 9.007-1.98.36-1.3 0-2.7-1.408-2.96-1.098-.21-8.597 1.23-8.907 1.72v-.01Zm-24.294 3.21c3.355-3.43-3.535-3.93-5.991-3.87-4.644.12-3.885 3.87-2.727 3.87h8.718Zm-279.413-.16c1.947-.22 5.043-.14 4.184-2.75-.739-2.23-9.127-.96-9.666 1.09-.699 2.65 3.954 1.84 5.482 1.66Zm-21.878.16c.309.32 7.709 0 8.977 0 1.068 0 1.987-3.27.549-3.27h-8.707c-.799 0-1.089 2.99-.819 3.27Zm34.959-.67c1.757-.21 6.311-1.29 5.073-3.69-1.039-1.99-7.39-.05-7.839 1.46-.689 2.34.899 2.45 2.766 2.23Zm248.288-.5c1.628-.53 1.019-3.15-.569-3.62-.479-.14-8.907-.57-9.616-.5-2.407.26-2.616 2.94-.499 3.55 1.128.32 9.725.89 10.694.57h-.01ZM90.93 22.93c.31.5 10.665 2.97 10.305-.74-.17-1.69-6.93-2.37-8.498-2.36-1.717.02-2.775 1.55-1.807 3.1Zm95.83.48c1.868-.16 9.437-1.27 7.29-4.27-.949-1.32-8.568.2-9.307 1.66-1.028 2.03.06 2.78 2.017 2.61Zm-19.072-.49c.659 1.07 8.148.38 8.548-.82.599-1.76.08-2.82-1.808-2.82-.868 0-6.121.65-6.51.93-.529.39-.509 2.27-.24 2.71h.01Zm217.813-.58c1.947-.58 2.147-2.59-.25-3.34-2.077-.65-10.634-1.42-8.358 2.38.819 1.37 7.14 1.4 8.608.97v-.01Zm83.268-.56c1.049-.18 3.455-1.1 3.955-2.04 1.997-3.8-8.398-1.85-8.927-.2-.969 3.02 3.005 2.58 4.972 2.24Zm-102.201-4.23c-1.368-.38-6.271 0-8.168 0-.709 0-1.368 2.29-.299 3.03.499.34 9.636.92 9.865-.09.2-.92-.549-2.7-1.398-2.94Zm-163.032 3.81c2.187.16 10.545.55 9.216-3.48-.549-1.67-8.707-.21-9.136 1.1-.23.71-.04 1.62-.08 2.38ZM73.985 19.72c.37.53 11.853 4.12 10.365-1.3-.17-.63-7.29-1.62-8.448-1.4-1.158.22-2.576 1.76-1.917 2.7Zm598.158-.06c.25-.4.16-1.79 0-2.3-.689-2.06-4.184.1-5.682.14-1.398.04-4.393-1.63-4.613.87-.35 3.95 9.626 2.35 10.305 1.28l-.01.01Zm7.818.5c1.838-.25 7.979-2.29 6.172-4.84-.999-1.41-9.776 1.55-10.076 2.55-.599 2.03 2.377 2.5 3.904 2.29Zm-454.527-.04c2.087-.23 7.229-1.07 5.083-4.24-.619-.91-8.338.7-9.027 1.38-2.876 2.85 1.807 3.09 3.944 2.86Zm22.667-6.33c-3.235-.44-11.863-.72-10.195 4.48.789 2.46 2.776-.39 3.565-.62 2.646-.78 7.738.92 6.63-3.86ZM-97.625 18.5c3.814-3.68-8.777-4.61-9.147-1.22-.329 3.04 8.148 2.19 9.147 1.22Zm752.064.05c.948-.31 1.158-1.4.848-2.31-.459-1.35-10.984-2.96-12.471-2.24-1.069.52-1.528 1.79-.56 2.73.859.82 10.775 2.27 12.173 1.82h.01Zm-170.981-.02c1.258-.17 7.1-1.96 7.429-2.98 1.458-4.51-8.727-1.17-9.466.35-.959 1.96.03 2.9 2.047 2.63h-.01Zm-561.302.07c.51.37 7.869-1.24 8.408-2.13 2.636-4.35-8.048-2.76-8.777-.03-.13.5.12 1.99.369 2.16Zm-14.06-.64c1.418 1.24 9.666 1.2 8.528-2.27-.4-1.22-9.057-1.48-9.246-.52-.11.57.28 2.41.728 2.79h-.01Zm159.538.05c1.318-.43 1.328-2.65-.02-3.09-1.847-.61-12.132-1.85-9.197 2.13.68.92 7.929 1.38 9.217.97v-.01Zm-190.652-3.68c-2.986 4.34 13.021 5.25 9.246.72-.758-.91-8.667-1.56-9.246-.72Zm470.664.08c-.799-.76-7.05-1.47-8.298-1.22-1.747.34-2.037 2.33-.429 3.16 1.487.77 8.238 2.04 9.176.1.3-.6-.01-1.64-.439-2.04h-.01Zm-32.053-1.7c-1.019-.64-8.738.34-9.467 1.55-.878 1.46-.169 2.79 1.618 2.77 1.009-.01 6.6-.66 7.249-.93 1.279-.54 1.279-2.96.59-3.39h.01Zm5.571 3.15c.57.84 9.946 1.71 8.618-2.35-.419-1.27-5.991-1.12-7.2-.77-1.128.33-2.007 2.25-1.418 3.11v.01Zm-29.916-3.15c-2.556 4.08 8.448 4.44 9.756 3.51.579-.41.789-2.59.449-2.98-.359-.43-9.586-1.52-10.205-.52v-.01Zm-25.742 0c-.769-1.28-9.726-.37-10.545 1-2.856 4.78 10.465 2.04 10.644 1.28.11-.45.1-1.95-.099-2.28Zm-315.64 3.74c2.047.25 13.09.2 11.972-3.53-.42-1.4-8.927-.36-10.245.07-2.057.66-1.817 1.38-1.727 3.46Zm-3.935-.66c.37-.27.76-1.75.62-2.25-.65-2.29-9.766-.66-9.766 1.55s8.148 1.43 9.146.7Zm-74.261.58c1.627-.53 1.018-3.15-.57-3.63-1.218-.36-7.319-.51-7.738.76-1.139 3.48 6.36 3.5 8.308 2.86v.01Zm401.265-.46c1.498.45 8.138 0 10.345 0 .189 0 .858-.6 1.308-.6 1.787-4.65-9.906-3.58-11.553-2.58-1.348.82-1.219 2.84-.1 3.18Zm-220.539-.09c1.628-.54 1.009-3.17-.569-3.62-1.667-.48-7.789-.94-9.286-.25-1.498.69-1.818 2.84-.32 3.33.61.2 9.586.74 10.175.54Zm-193.508-3.66c-.189-.31-6.35-1.15-7.229-1.12-2.916.09-4.334 3.02-2.147 3.7.879.27 7.18.8 8.088.63 1.478-.29 1.877-2.23 1.288-3.2v-.01Zm774.332 2.62c1.318-.37 1.308-2.86-.02-3.69-2.607-1.63-10.215-.47-7.27 2.37.559.54 6.77 1.46 7.29 1.31v.01Zm-664.192-.09c1.947-.04 8.917-1.2 6.73-4.27-.719-1-7.889.4-8.787 1.09-1.967 1.51-.14 3.23 2.057 3.18Zm533.492-.54c1.518-.23 6.191-1.48 5.053-3.7-1.139-2.22-7.989.2-8.388 1.45-.819 2.54 1.438 2.53 3.345 2.25h-.01ZM-8.834 9.44c-.66-1.06-9.407.54-10.006 1.55-2.606 4.35 7.4 2.21 9.167 1.55 1.018-.38 1.328-2.32.848-3.1h-.01Zm-146.707 4.21c1.638-.55 1.069-3.01-.589-3.61-1.867-.68-11.243-1.89-8.607 2.08.569.86 8.028 1.92 9.196 1.53Zm183.373-1.12c.929.67 8.288 1.01 9.157.41.868-.6.829-2.53-.4-2.93-1.368-.45-7.25-.98-8.517-.67-.87.21-.929 2.68-.24 3.19Zm580.774-3.64c-.28.18-.64 1.58-.39 2.1 1.088 2.22 10.844 3.09 8.747-1.09-.649-1.3-7.429-1.6-8.367-1.01h.01ZM20.283 12.55c1.678-.55 1.128-2.89-.709-3.49-1.837-.6-10.345-1.09-7.948 2.51.789 1.18 7.319 1.41 8.657.98ZM4.856 8.82c-.31-.32-7.7-.41-8.448 1.08-2.097 4.18 7.669 3.25 8.358 1.28.15-.44.2-2.26.09-2.36Zm-241.009 3.68c.609-.09 4.363-1.24 4.523-1.46 2.926-4.1-8.188-3.21-8.507-.3-.26 2.44 2.236 2.02 3.984 1.77v-.01ZM599 7.73c-2.117-.59-6.551.43-8.977 0 .119.8-.38 2.31.309 2.79 1.248.86 10.085 1.83 10.575.19.369-.86-1.398-2.84-1.898-2.98H599Zm-73.753-1.09c-2.117.02-8.528-.27-9.856 1.31-1.108 1.32-.679 3.14 1.338 3.03 1.279-.07 6.781-.73 7.589-1.17 1.348-.73.909-1.8.929-3.17Zm-694.398 4.28c1.378-.45 1.278-2.34-.01-3.1-1.098-.64-8.847-2.5-9.396-.84-1.089 3.32 7.379 4.61 9.406 3.94Zm749.647-4.28c-1.388-.43-7.718 0-9.795 0-.749 0-1.528 2.67.08 3.19 1.408.45 5.152.03 6.989.08 1.348.04 3.206 1.5 3.565-.83.12-.79-.06-2.2-.839-2.44Zm-805.795 3.11c1.558-.15 7.689-.74 6.93-3.32-.759-2.58-9.796-.29-10.235 1.1-.859 2.71 1.538 2.38 3.305 2.22Zm769.319-.39c1.867-1.54.539-3.67-1.668-3.79-.659-.04-6.98.64-7.319.8-1.518.73-1.189 3-.28 3h9.257l.01-.01Zm15.118-.66c1.577-.36 2.766-1.44 1.527-2.93-1.238-1.49-9.955-1.56-8.717 2.17.439 1.31 5.812 1.07 7.19.75v.01Zm-740.511-.48c.409-.48.19-2.82-.829-3.15-.369-.12-6.011-.69-6.42-.63-2.297.36-2.607 3.08-.46 3.71 1.188.35 7.02.9 7.719.06l-.01.01Zm-29.737-.62c2.587-.47 4.673-3.38 2.217-4.17-1.148-.37-9.286.44-7.769 3.43.45 1.35 4.264.98 5.542.75l.01-.01Zm15.368-.42c1.128-.66 2.097-2.71.839-3.57-.28-.19-6.032-.8-6.83-.79-4.853.02-3.805 4.37-2.716 4.37h8.707v-.01Z"/>
        <path fill="#F3C054"
              d="M272.935 15.91c-1.128-.34-1.248-2.36.1-3.18 1.648-1 13.341-2.08 11.553 2.58-.449 0-1.108.6-1.308.6-2.207 0-8.847.45-10.345 0ZM52.396 15.82c-.589.2-9.566-.34-10.175-.54-1.498-.49-1.228-2.61.32-3.33 1.548-.72 7.619-.23 9.286.25 1.578.45 2.207 3.09.57 3.62ZM248.101 13.79c1.109 4.78-3.994 3.08-6.63 3.86-.779.23-2.776 3.08-3.565.62-1.668-5.21 6.96-4.92 10.195-4.48ZM265.506 12.71c.2.34.21 1.83.1 2.28-.18.76-13.5 3.5-10.645-1.28.819-1.37 9.776-2.28 10.545-1ZM291.249 12.71c.619-.99 9.845.09 10.205.52.329.4.12 2.57-.45 2.98-1.308.93-12.312.57-9.755-3.51v.01ZM385.501 22.34c-1.468.44-7.789.41-8.607-.97-2.277-3.8 6.28-3.03 8.357-2.38 2.407.76 2.207 2.76.25 3.34v.01ZM225.434 20.12c-2.137.23-6.82-.01-3.944-2.86.689-.68 8.408-2.29 9.027-1.38 2.147 3.17-2.996 4.02-5.083 4.24ZM315.593 12.71c.679.43.689 2.85-.589 3.39-.649.27-6.241.92-7.249.93-1.788.02-2.507-1.3-1.618-2.77.729-1.22 8.448-2.19 9.466-1.55h-.01ZM90.93 22.93c-.969-1.54.09-3.08 1.807-3.1 1.558-.02 8.328.66 8.498 2.36.359 3.71-9.995 1.24-10.305.74ZM73.985 19.72c-.66-.95.729-2.48 1.917-2.7 1.188-.22 8.278.77 8.448 1.4 1.478 5.43-10.006 1.83-10.365 1.3ZM347.646 14.41c.429.4.739 1.44.439 2.04-.928 1.94-7.688.66-9.176-.1-1.608-.83-1.308-2.82.429-3.16 1.258-.24 7.499.46 8.298 1.22h.01ZM186.76 23.41c-1.957.17-3.045-.58-2.017-2.61.739-1.46 8.358-2.99 9.307-1.66 2.147 3-5.422 4.11-7.29 4.27ZM67.634 18.01c-1.278.42-8.538-.05-9.217-.97-2.935-3.97 7.35-2.73 9.197-2.13 1.348.44 1.328 2.67.02 3.09v.01ZM114.945 26.18c-1.597.3-8.328-.35-7.699-2.81.689-2.7 9.337-1.1 9.696-.04.5 1.48-.569 2.58-2.007 2.85h.01ZM20.283 12.55c-1.328.43-7.869.2-8.657-.98-2.407-3.6 6.02-3.13 7.948-2.51 1.927.62 2.386 2.94.709 3.49ZM27.832 12.53c-.689-.5-.629-2.97.24-3.19 1.278-.31 7.16.22 8.518.67 1.218.4 1.298 2.31.399 2.93-.899.62-8.238.26-9.157-.41ZM366.569 17.55c.849.24 1.607 2.02 1.398 2.94-.22 1.01-9.367.43-9.866.09-1.068-.74-.409-3.03.3-3.03 1.897 0 6.8-.38 8.168 0ZM203.536 21.36c.04-.76-.149-1.66.08-2.38.43-1.31 8.578-2.78 9.137-1.1 1.328 4.03-7.03 3.64-9.217 3.48ZM143.764 25.02c-1.538.18-6.181.99-5.482-1.66.539-2.05 8.927-3.32 9.666-1.09.858 2.62-2.237 2.53-4.184 2.75ZM121.885 25.18c-.269-.28.02-3.27.819-3.27h8.707c1.438 0 .529 3.27-.549 3.27-1.278 0-8.667.32-8.977 0ZM4.856 8.82c.1.1.06 1.92-.09 2.36-.68 1.97-10.445 2.9-8.358-1.28.749-1.5 8.148-1.4 8.448-1.08ZM167.688 22.92c-.269-.44-.289-2.32.24-2.71.389-.28 5.642-.93 6.51-.93 1.888 0 2.397 1.06 1.808 2.82-.4 1.19-7.889 1.89-8.548.82h-.01ZM321.165 15.86c-.579-.87.29-2.78 1.418-3.11 1.208-.35 6.78-.5 7.199.77 1.329 4.06-8.048 3.19-8.617 2.35v-.01ZM156.844 24.51c-1.857.22-3.455.12-2.766-2.23.449-1.52 6.8-3.46 7.839-1.46 1.248 2.4-3.316 3.48-5.073 3.69Z"/>
    </g>
    <path fill="#65439C" d="M0 189h390v794H0z"/>
    <g clip-path="url(#b)">
        <path fill="#65439C"
              d="M1025 227V4.46c-13.79-1.92-27.649-4.63-41.669-4.39-18.813.31-36.507 5.52-54.96 7.65-18.453 2.13-36.257 3.2-54.411 2.71-39.911-1.09-78.455-7.65-118.707-6-37.175 1.53-73.023 13.54-110.498 12.59-51.635-1.3-100.993-11.35-153.507-10.95-39.213.29-75.06 5.02-113.754 8.2-45.843 3.77-85.286-8.1-130.02-13.7-1.099-.14-8.698-.57-11.693-.57h-16.976c-2.995 0-6.34.58-7.858.66-14.878.81-29.787.16-44.655 1.62-17.874 1.76-36.727 7.21-53.902 8.71-6.85.6-13.64-.94-20.4-1.63V227H1025ZM348.656 26.82c-1.488.45-8.138 0-10.345 0-.719 0-1.178-2.72-.759-3.22.699-.84 9.776-.91 11.054 0 1.278.91 1.188 2.88.05 3.23v-.01Zm316.399-.64c-1.428-.27-2.506-1.37-2.007-2.85.359-1.06 9.007-2.66 9.696.04.629 2.46-6.101 3.11-7.699 2.81h.01ZM332.53 21.97c.569.89.179 3.01-1.308 3.23-.61.09-8.878-1.54-9.007-1.98-.36-1.3 0-2.7 1.408-2.96 1.098-.21 8.597 1.23 8.907 1.72v-.01Zm24.294 3.21c-3.355-3.43 3.535-3.93 5.991-3.87 4.644.12 3.885 3.87 2.727 3.87h-8.718Zm279.413-.16c-1.947-.22-5.043-.14-4.184-2.75.739-2.23 9.127-.96 9.666 1.09.699 2.65-3.954 1.84-5.482 1.66Zm21.878.16c-.309.32-7.709 0-8.977 0-1.068 0-1.987-3.27-.549-3.27h8.707c.799 0 1.089 2.99.819 3.27Zm-34.959-.67c-1.757-.21-6.311-1.29-5.073-3.69 1.039-1.99 7.39-.05 7.839 1.46.689 2.34-.899 2.45-2.766 2.23Zm-248.288-.5c-1.628-.53-1.019-3.15.569-3.62.479-.14 8.907-.57 9.616-.5 2.407.26 2.616 2.94.499 3.55-1.128.32-9.725.89-10.694.57h.01Zm314.202-1.08c-.31.5-10.665 2.97-10.305-.74.17-1.69 6.93-2.37 8.498-2.36 1.717.02 2.776 1.55 1.807 3.1Zm-95.83.48c-1.868-.16-9.437-1.27-7.29-4.27.949-1.32 8.568.2 9.307 1.66 1.028 2.03-.06 2.78-2.017 2.61Zm19.072-.49c-.659 1.07-8.148.38-8.548-.82-.599-1.76-.08-2.82 1.808-2.82.868 0 6.121.65 6.51.93.529.39.509 2.27.24 2.71h-.01Zm-217.813-.58c-1.947-.58-2.147-2.59.25-3.34 2.077-.65 10.634-1.42 8.358 2.38-.819 1.37-7.14 1.4-8.608.97v-.01Zm-83.268-.56c-1.049-.18-3.455-1.1-3.955-2.04-1.997-3.8 8.398-1.85 8.927-.2.969 3.02-3.005 2.58-4.972 2.24Zm102.201-4.23c1.368-.38 6.271 0 8.168 0 .709 0 1.368 2.29.299 3.03-.499.34-9.636.92-9.865-.09-.2-.92.549-2.7 1.398-2.94Zm163.032 3.81c-2.187.16-10.545.55-9.216-3.48.549-1.67 8.707-.21 9.136 1.1.23.71.04 1.62.08 2.38Zm129.551-1.64c-.369.53-11.852 4.12-10.365-1.3.17-.63 7.29-1.62 8.448-1.4 1.158.22 2.576 1.76 1.917 2.7Zm-598.158-.06c-.25-.4-.16-1.79 0-2.3.689-2.06 4.184.1 5.682.14 1.398.04 4.393-1.63 4.613.87.35 3.95-9.626 2.35-10.305 1.28l.01.01Zm-7.818.5c-1.838-.25-7.979-2.29-6.171-4.84.998-1.41 9.775 1.55 10.075 2.55.599 2.03-2.377 2.5-3.904 2.29Zm454.527-.04c-2.087-.23-7.229-1.07-5.083-4.24.619-.91 8.338.7 9.027 1.38 2.876 2.85-1.807 3.09-3.944 2.86Zm-22.667-6.33c3.235-.44 11.863-.72 10.195 4.48-.789 2.46-2.776-.39-3.565-.62-2.646-.78-7.738.92-6.63-3.86Zm345.726 4.71c-3.814-3.68 8.777-4.61 9.147-1.22.329 3.04-8.148 2.19-9.147 1.22Zm-752.064.05c-.948-.31-1.158-1.4-.848-2.31.459-1.35 10.984-2.96 12.471-2.24 1.069.52 1.528 1.79.56 2.73-.859.82-10.775 2.27-12.173 1.82h-.01Zm170.981-.02c-1.258-.17-7.1-1.96-7.429-2.98-1.458-4.51 8.727-1.17 9.466.35.959 1.96-.03 2.9-2.047 2.63h.01Zm561.302.07c-.509.37-7.869-1.24-8.408-2.13-2.636-4.35 8.048-2.76 8.777-.03.13.5-.119 1.99-.369 2.16Zm14.059-.64c-1.418 1.24-9.665 1.2-8.527-2.27.399-1.22 9.057-1.48 9.246-.52.11.57-.279 2.41-.729 2.79h.01Zm-159.537.05c-1.318-.43-1.328-2.65.02-3.09 1.847-.61 12.132-1.85 9.197 2.13-.679.92-7.929 1.38-9.217.97v-.01Zm190.652-3.68c2.986 4.34-13.021 5.25-9.246.72.758-.91 8.667-1.56 9.246-.72Zm-470.664.08c.799-.76 7.05-1.47 8.298-1.22 1.747.34 2.037 2.33.429 3.16-1.487.77-8.238 2.04-9.176.1-.3-.6.01-1.64.439-2.04h.01Zm32.053-1.7c1.019-.64 8.738.34 9.467 1.55.878 1.46.169 2.79-1.618 2.77-1.009-.01-6.6-.66-7.249-.93-1.279-.54-1.279-2.96-.59-3.39h-.01Zm-5.571 3.15c-.57.84-9.946 1.71-8.618-2.35.419-1.27 5.991-1.12 7.2-.77 1.128.33 2.007 2.25 1.418 3.11v.01Zm29.916-3.15c2.556 4.08-8.448 4.44-9.756 3.51-.579-.41-.789-2.59-.449-2.98.359-.43 9.586-1.52 10.205-.52v-.01Zm25.742 0c.769-1.28 9.726-.37 10.545 1 2.856 4.78-10.465 2.04-10.644 1.28-.11-.45-.1-1.95.099-2.28Zm315.64 3.74c-2.047.25-13.091.2-11.972-3.53.419-1.4 8.927-.36 10.245.07 2.057.66 1.817 1.38 1.727 3.46Zm3.935-.66c-.37-.27-.759-1.75-.619-2.25.649-2.29 9.765-.66 9.765 1.55s-8.148 1.43-9.146.7Zm74.261.58c-1.627-.53-1.018-3.15.57-3.63 1.218-.36 7.319-.51 7.738.76 1.139 3.48-6.36 3.5-8.308 2.86v.01Zm-401.265-.46c-1.498.45-8.138 0-10.345 0-.189 0-.858-.6-1.308-.6-1.787-4.65 9.906-3.58 11.553-2.58 1.348.82 1.219 2.84.1 3.18Zm220.539-.09c-1.628-.54-1.009-3.17.569-3.62 1.667-.48 7.789-.94 9.286-.25 1.498.69 1.818 2.84.32 3.33-.609.2-9.586.74-10.175.54Zm193.508-3.66c.189-.31 6.35-1.15 7.229-1.12 2.916.09 4.334 3.02 2.147 3.7-.879.27-7.18.8-8.088.63-1.478-.29-1.877-2.23-1.288-3.2v-.01ZM146.78 14.78c-1.318-.37-1.308-2.86.02-3.69 2.607-1.63 10.215-.47 7.27 2.37-.559.54-6.77 1.46-7.29 1.31v.01Zm664.192-.09c-1.947-.04-8.917-1.2-6.73-4.27.719-1 7.889.4 8.787 1.09 1.967 1.51.14 3.23-2.057 3.18Zm-533.492-.54c-1.518-.23-6.191-1.48-5.053-3.7 1.139-2.22 7.989.2 8.388 1.45.819 2.54-1.438 2.53-3.345 2.25h.01Zm511.354-4.71c.66-1.06 9.407.54 10.006 1.55 2.606 4.35-7.399 2.21-9.167 1.55-1.018-.38-1.328-2.32-.848-3.1h.009Zm146.707 4.21c-1.638-.55-1.069-3.01.589-3.61 1.867-.68 11.243-1.89 8.607 2.08-.569.86-8.028 1.92-9.196 1.53Zm-183.373-1.12c-.929.67-8.288 1.01-9.157.41-.868-.6-.828-2.53.4-2.93 1.368-.45 7.249-.98 8.517-.67.869.21.929 2.68.24 3.19ZM171.394 8.89c.28.18.64 1.58.39 2.1-1.088 2.22-10.844 3.09-8.747-1.09.649-1.3 7.429-1.6 8.367-1.01h-.01Zm588.323 3.66c-1.678-.55-1.128-2.89.709-3.49 1.837-.6 10.345-1.09 7.948 2.51-.789 1.18-7.319 1.41-8.657.98Zm15.427-3.73c.31-.32 7.699-.41 8.448 1.08 2.097 4.18-7.669 3.25-8.358 1.28-.149-.44-.199-2.26-.09-2.36Zm241.006 3.68c-.61-.09-4.36-1.24-4.52-1.46-2.93-4.1 8.19-3.21 8.51-.3.26 2.44-2.24 2.02-3.99 1.77v-.01ZM181 7.73c2.117-.59 6.551.43 8.977 0-.119.8.38 2.31-.309 2.79-1.248.86-10.085 1.83-10.575.19-.369-.86 1.398-2.84 1.898-2.98H181Zm73.753-1.09c2.117.02 8.528-.27 9.856 1.31 1.108 1.32.679 3.14-1.338 3.03-1.279-.07-6.781-.73-7.589-1.17-1.348-.73-.909-1.8-.929-3.17Zm694.398 4.28c-1.378-.45-1.278-2.34.01-3.1 1.098-.64 8.847-2.5 9.396-.84 1.089 3.32-7.379 4.61-9.406 3.94ZM199.504 6.64c1.388-.43 7.718 0 9.795 0 .749 0 1.528 2.67-.08 3.19-1.408.45-5.152.03-6.989.08-1.348.04-3.206 1.5-3.565-.83-.12-.79.06-2.2.839-2.44ZM1005.3 9.75c-1.56-.15-7.69-.74-6.931-3.32.759-2.58 9.791-.29 10.231 1.1.86 2.71-1.53 2.38-3.3 2.22Zm-769.32-.39c-1.867-1.54-.539-3.67 1.668-3.79.659-.04 6.98.64 7.319.8 1.518.73 1.189 3 .28 3h-9.257l-.01-.01Zm-15.118-.66c-1.577-.36-2.766-1.44-1.527-2.93 1.238-1.49 9.955-1.56 8.717 2.17-.439 1.31-5.812 1.07-7.19.75v.01Zm740.511-.48c-.409-.48-.19-2.82.829-3.15.369-.12 6.011-.69 6.42-.63 2.297.36 2.607 3.08.46 3.71-1.188.35-7.02.9-7.719.06l.01.01Zm29.737-.62c-2.587-.47-4.673-3.38-2.217-4.17 1.148-.37 9.286.44 7.769 3.43-.45 1.35-4.264.98-5.542.75l-.01-.01Zm-15.368-.42c-1.128-.66-2.097-2.71-.839-3.57.28-.19 6.032-.8 6.83-.79 4.853.02 3.805 4.37 2.716 4.37h-8.707v-.01Z"/>
        <path fill="#F3C054"
              d="M507.065 15.91c1.128-.34 1.248-2.36-.1-3.18-1.648-1-13.341-2.08-11.553 2.58.449 0 1.108.6 1.308.6 2.207 0 8.847.45 10.345 0ZM727.604 15.82c.589.2 9.566-.34 10.175-.54 1.498-.49 1.228-2.61-.32-3.33-1.547-.72-7.619-.23-9.286.25-1.578.45-2.207 3.09-.569 3.62ZM531.899 13.79c-1.109 4.78 3.994 3.08 6.63 3.86.779.23 2.776 3.08 3.565.62 1.668-5.21-6.96-4.92-10.195-4.48ZM514.494 12.71c-.2.34-.21 1.83-.1 2.28.18.76 13.5 3.5 10.645-1.28-.819-1.37-9.776-2.28-10.545-1ZM488.751 12.71c-.619-.99-9.845.09-10.205.52-.329.4-.12 2.57.45 2.98 1.308.93 12.312.57 9.755-3.51v.01ZM394.499 22.34c1.468.44 7.789.41 8.607-.97 2.277-3.8-6.28-3.03-8.357-2.38-2.407.76-2.207 2.76-.25 3.34v.01ZM554.566 20.12c2.137.23 6.82-.01 3.944-2.86-.689-.68-8.408-2.29-9.027-1.38-2.147 3.17 2.996 4.02 5.083 4.24ZM464.407 12.71c-.679.43-.689 2.85.589 3.39.649.27 6.241.92 7.249.93 1.788.02 2.507-1.3 1.618-2.77-.729-1.22-8.448-2.19-9.466-1.55h.01ZM689.07 22.93c.969-1.54-.09-3.08-1.807-3.1-1.558-.02-8.328.66-8.498 2.36-.359 3.71 9.995 1.24 10.305.74ZM706.015 19.72c.659-.95-.729-2.48-1.917-2.7-1.188-.22-8.278.77-8.448 1.4-1.478 5.43 10.006 1.83 10.365 1.3ZM432.354 14.41c-.429.4-.739 1.44-.439 2.04.928 1.94 7.688.66 9.176-.1 1.608-.83 1.308-2.82-.429-3.16-1.258-.24-7.499.46-8.298 1.22h-.01ZM593.24 23.41c1.957.17 3.045-.58 2.017-2.61-.739-1.46-8.358-2.99-9.307-1.66-2.147 3 5.422 4.11 7.29 4.27ZM712.366 18.01c1.278.42 8.538-.05 9.217-.97 2.935-3.97-7.35-2.73-9.197-2.13-1.348.44-1.328 2.67-.02 3.09v.01ZM665.055 26.18c1.597.3 8.328-.35 7.699-2.81-.689-2.7-9.337-1.1-9.696-.04-.5 1.48.569 2.58 2.007 2.85h-.01ZM759.717 12.55c1.328.43 7.869.2 8.657-.98 2.407-3.6-6.021-3.13-7.948-2.51-1.927.62-2.387 2.94-.709 3.49ZM752.168 12.53c.689-.5.629-2.97-.24-3.19-1.278-.31-7.16.22-8.518.67-1.218.4-1.298 2.31-.399 2.93.899.62 8.238.26 9.157-.41ZM413.431 17.55c-.849.24-1.607 2.02-1.398 2.94.22 1.01 9.367.43 9.866.09 1.068-.74.409-3.03-.3-3.03-1.897 0-6.8-.38-8.168 0ZM576.464 21.36c-.04-.76.149-1.66-.08-2.38-.43-1.31-8.578-2.78-9.137-1.1-1.328 4.03 7.03 3.64 9.217 3.48ZM636.236 25.02c1.538.18 6.181.99 5.482-1.66-.539-2.05-8.927-3.32-9.666-1.09-.858 2.62 2.237 2.53 4.184 2.75ZM658.115 25.18c.269-.28-.02-3.27-.819-3.27h-8.707c-1.438 0-.529 3.27.549 3.27 1.278 0 8.667.32 8.977 0ZM775.144 8.82c-.1.1-.06 1.92.09 2.36.679 1.97 10.445 2.9 8.358-1.28-.749-1.5-8.148-1.4-8.448-1.08ZM612.312 22.92c.269-.44.289-2.32-.24-2.71-.389-.28-5.642-.93-6.51-.93-1.888 0-2.397 1.06-1.808 2.82.4 1.19 7.889 1.89 8.548.82h.01ZM458.835 15.86c.579-.87-.29-2.78-1.418-3.11-1.208-.35-6.78-.5-7.199.77-1.329 4.06 8.048 3.19 8.617 2.35v-.01ZM623.156 24.51c1.857.22 3.455.12 2.766-2.23-.449-1.52-6.8-3.46-7.839-1.46-1.248 2.4 3.316 3.48 5.073 3.69Z"/>
    </g>
    <path fill="#65439C" d="M780 189H390v794h390z"/>
    <defs>
        <clipPath id="a">
            <path fill="#fff" d="M390 189H0V0h390z"/>
        </clipPath>
        <clipPath id="b">
            <path fill="#fff" d="M390 189h390V0H390z"/>
        </clipPath>
    </defs>
</svg>