<svg width="1728" height="900" viewBox="0 0 1728 900" fill="none" xmlns="http://www.w3.org/2000/svg">
    <g clip-path="url(#clip0_1408_7353)">
        <path d="M-8.40769e-06 419V8.23235C25.5401 4.68839 51.2097 -0.313767 77.1752 0.129228C112.018 0.701431 144.789 10.3181 178.966 14.2497C213.143 18.1813 246.117 20.1563 279.739 19.2518C353.66 17.2399 425.046 5.13136 499.595 8.17695C568.448 11.0011 634.842 33.1693 704.249 31.4158C799.882 29.0162 891.297 10.4658 988.557 11.2041C1061.18 11.7394 1127.58 20.4701 1199.24 26.3398C1284.15 33.2985 1357.2 11.3887 1440.05 1.05214C1442.08 0.793722 1456.16 7.86781e-06 1461.71 7.86781e-06H1493.15C1498.69 7.86781e-06 1504.89 1.07059 1507.7 1.21825C1535.26 2.71336 1562.87 1.51357 1590.41 4.20846C1623.51 7.4571 1658.43 17.5168 1690.24 20.2855C1702.92 21.393 1715.5 18.5504 1728.02 17.2768V419H0.0185036H-8.40769e-06ZM1252.65 49.5048C1255.41 50.3354 1267.72 49.5048 1271.81 49.5048C1273.14 49.5048 1273.99 44.4842 1273.22 43.5613C1271.92 42.0108 1255.11 41.8816 1252.74 43.5613C1250.38 45.2409 1250.54 48.8772 1252.65 49.5232V49.5048ZM666.651 48.3234C669.296 47.8251 671.293 45.7947 670.368 43.0629C669.703 41.1063 653.687 38.153 652.411 43.1367C651.246 47.6774 663.711 48.8772 666.67 48.3234H666.651ZM1282.52 40.5526C1281.46 42.1953 1282.19 46.1085 1284.94 46.5145C1286.07 46.6807 1301.38 43.672 1301.62 42.8598C1302.29 40.4603 1301.62 37.8761 1299.01 37.3962C1296.98 37.0086 1283.09 39.6666 1282.52 40.571V40.5526ZM1237.52 46.4776C1243.74 40.1465 1230.98 39.2236 1226.43 39.3343C1217.83 39.5558 1219.23 46.4776 1221.38 46.4776H1237.5H1237.52ZM720.025 46.1823C723.631 45.7762 729.364 45.9239 727.774 41.1063C726.405 36.9901 710.87 39.3343 709.871 43.1182C708.577 48.0097 717.195 46.5146 720.025 46.1823ZM679.504 46.4776C680.078 47.0683 693.782 46.4776 696.13 46.4776C698.109 46.4776 699.811 40.4418 697.148 40.4418H681.021C679.541 40.4418 679.005 45.9608 679.504 46.4776ZM744.252 45.2409C747.507 44.8533 755.94 42.8598 753.647 38.4299C751.723 34.7567 739.961 38.3376 739.129 41.1248C737.853 45.444 740.793 45.647 744.252 45.2409ZM1204.1 44.318C1207.12 43.3397 1205.99 38.5037 1203.05 37.6362C1202.16 37.3778 1186.55 36.5841 1185.24 36.7133C1180.78 37.1932 1180.39 42.14 1184.32 43.2659C1186.4 43.8566 1202.33 44.9087 1204.12 44.318H1204.1ZM622.173 42.3245C622.747 43.2474 641.925 47.8066 641.259 40.9586C640.945 37.8392 628.424 36.5841 625.521 36.6025C622.34 36.6394 620.379 39.4635 622.173 42.3245ZM799.66 43.2105C803.118 42.9152 817.136 40.8663 813.16 35.3289C811.403 32.8924 797.292 35.6981 795.924 38.393C794.019 42.14 796.035 43.5243 799.66 43.2105ZM764.336 42.3061C765.557 44.2811 779.427 43.0075 780.167 40.7925C781.277 37.5439 780.315 35.5873 776.82 35.5873C775.211 35.5873 765.483 36.7871 764.761 37.3039C763.781 38.0238 763.818 41.4939 764.318 42.3061H764.336ZM1167.74 41.2355C1171.35 40.1649 1171.72 36.4549 1167.28 35.0705C1163.44 33.8707 1147.59 32.4494 1151.8 39.4635C1153.32 41.9923 1165.03 42.0477 1167.74 41.254V41.2355ZM1321.97 40.2019C1323.91 39.8696 1328.36 38.1715 1329.29 36.4364C1332.99 29.4223 1313.74 33.0216 1312.76 36.0672C1310.96 41.6416 1318.32 40.8294 1321.97 40.2019ZM1132.68 32.3941C1130.15 31.6927 1121.07 32.3941 1117.55 32.3941C1116.24 32.3941 1115.02 36.621 1117 37.9869C1117.92 38.6145 1134.84 39.685 1135.27 37.8208C1135.64 36.1226 1134.25 32.8371 1132.68 32.3941ZM830.729 39.4266C834.78 39.7219 850.259 40.4418 847.799 33.0032C846.782 29.9207 831.673 32.6156 830.877 35.0336C830.452 36.3441 830.803 38.0238 830.729 39.4266ZM590.789 36.3995C591.473 37.3778 612.741 44.0042 609.986 33.9999C609.671 32.8371 596.485 31.0097 594.34 31.4158C592.195 31.8219 589.568 34.6644 590.789 36.3995ZM1698.63 36.2887C1699.09 35.5504 1698.93 32.9847 1698.63 32.0434C1697.36 28.241 1690.88 32.2279 1688.11 32.3018C1685.52 32.3756 1679.97 29.2931 1679.56 33.9076C1678.92 41.1986 1697.39 38.2453 1698.65 36.2703L1698.63 36.2887ZM1713.11 37.2116C1716.52 36.7502 1727.89 32.9847 1724.54 28.2779C1722.69 25.6753 1706.44 31.1389 1705.88 32.9847C1704.77 36.7317 1710.28 37.5993 1713.11 37.2116ZM871.287 37.1378C875.152 36.7133 884.676 35.1628 880.7 29.3116C879.553 27.6319 865.258 30.6036 863.982 31.8588C858.655 37.1193 867.329 37.5623 871.287 37.1378ZM913.268 25.4538C907.276 24.6416 891.297 24.1248 894.386 33.7231C895.847 38.2638 899.527 33.0032 900.988 32.5786C905.889 31.1389 915.321 34.2768 913.268 25.4538ZM272.952 34.1476C280.017 27.355 256.696 25.6384 256.012 31.8957C255.401 37.507 271.103 35.938 272.952 34.1476ZM1665.84 34.2399C1667.6 33.6677 1667.99 31.6557 1667.41 29.9761C1666.56 27.4842 1647.07 24.5124 1644.31 25.8414C1642.34 26.8012 1641.49 29.1454 1643.28 30.8805C1644.87 32.3941 1663.23 35.0705 1665.82 34.2399H1665.84ZM1349.17 34.203C1351.5 33.8892 1362.32 30.5852 1362.93 28.7024C1365.63 20.3778 1346.77 26.5428 1345.4 29.3485C1343.62 32.9663 1345.45 34.7013 1349.19 34.203H1349.17ZM309.589 34.3322C310.532 35.0151 324.162 32.0434 325.161 30.4006C330.043 22.3713 310.254 25.3061 308.904 30.3452C308.664 31.2681 309.126 34.0184 309.589 34.3322ZM283.549 33.1509C286.175 35.4397 301.451 35.3658 299.343 28.9608C298.603 26.709 282.569 26.229 282.218 28.001C282.014 29.0531 282.735 32.4494 283.568 33.1509H283.549ZM579.027 33.2431C581.468 32.4494 581.487 28.3517 578.99 27.5396C575.569 26.4136 556.52 24.1248 561.957 31.4712C563.215 33.1693 576.641 34.0184 579.027 33.2616V33.2431ZM225.922 26.4505C220.392 34.4614 250.038 36.1411 243.047 27.7795C241.642 26.0998 226.995 24.9001 225.922 26.4505ZM1097.63 26.5982C1096.15 25.1954 1084.58 23.8849 1082.27 24.3463C1079.03 24.9739 1078.49 28.6471 1081.47 30.1791C1084.23 31.6004 1096.73 33.9445 1098.47 30.3637C1099.02 29.2562 1098.45 27.3365 1097.65 26.5982H1097.63ZM1038.27 23.4603C1036.38 22.279 1022.09 24.0879 1020.74 26.3213C1019.11 29.0162 1020.42 31.4712 1023.73 31.4342C1025.6 31.4158 1035.96 30.216 1037.16 29.7176C1039.53 28.7209 1039.53 24.254 1038.25 23.4603H1038.27ZM1048.59 29.2746C1049.64 30.8251 1067.01 32.431 1064.55 24.937C1063.77 22.5928 1053.45 22.8697 1051.21 23.5157C1049.12 24.1248 1047.5 27.6688 1048.59 29.2562V29.2746ZM993.18 23.4603C988.446 30.9913 1008.83 31.6557 1011.25 29.9391C1012.32 29.1823 1012.71 25.1585 1012.08 24.4386C1011.42 23.6449 994.327 21.633 993.18 23.4788V23.4603ZM945.503 23.4603C944.079 21.0977 927.49 22.7774 925.973 25.3061C920.684 34.1291 945.355 29.0716 945.688 27.6688C945.891 26.8382 945.873 24.0694 945.503 23.4603ZM360.909 30.3637C364.7 30.8251 385.155 30.7328 383.084 23.8479C382.307 21.2638 366.55 23.1835 364.109 23.9772C360.299 25.1954 360.743 26.5244 360.909 30.3637ZM353.623 29.1454C354.307 28.647 355.028 25.9152 354.769 24.9923C353.567 20.7654 336.682 23.7741 336.682 27.8533C336.682 31.9326 351.773 30.4929 353.623 29.1454ZM216.083 30.216C219.098 29.2377 217.97 24.4017 215.029 23.5157C212.773 22.8512 201.473 22.5743 200.696 24.9185C198.588 31.3419 212.477 31.3789 216.083 30.1975V30.216ZM959.262 29.3669C962.036 30.1975 974.335 29.3669 978.422 29.3669C978.773 29.3669 980.013 28.2594 980.845 28.2594C984.155 19.6764 962.499 21.6514 959.447 23.4972C956.951 25.0108 957.191 28.7394 959.262 29.3669ZM550.805 29.2008C553.82 28.2041 552.673 23.3496 549.751 22.5189C546.662 21.633 535.326 20.7839 532.552 22.0575C529.777 23.3311 529.186 27.2996 531.96 28.2041C533.088 28.5732 549.714 29.57 550.805 29.2008ZM192.411 22.4451C192.06 21.8729 180.649 20.3224 179.021 20.3778C173.621 20.5439 170.995 25.9522 175.045 27.2073C176.673 27.7057 188.342 28.684 190.025 28.3702C192.762 27.8349 193.502 24.254 192.411 22.4636V22.4451ZM1626.54 27.2812C1628.98 26.5982 1628.96 22.0021 1626.51 20.4701C1621.68 17.4614 1607.59 19.6026 1613.04 24.8447C1614.08 25.8414 1625.58 27.5396 1626.54 27.2627V27.2812ZM396.399 27.115C400.005 27.0412 412.914 24.9 408.864 19.2334C407.532 17.3876 394.254 19.9717 392.589 21.2453C388.946 24.0325 392.33 27.2073 396.399 27.115ZM1384.48 26.1183C1387.29 25.6937 1395.94 23.3865 1393.83 19.2888C1391.72 15.1911 1379.04 19.6579 1378.3 21.9652C1376.78 26.6536 1380.96 26.6351 1384.49 26.1183H1384.48ZM437.4 17.4245C436.18 15.4679 419.979 18.4213 418.869 20.2855C414.042 28.3148 432.573 24.3648 435.847 23.1465C437.733 22.4451 438.306 18.8642 437.419 17.4245H437.4ZM165.687 25.1954C168.72 24.1802 167.666 19.6395 164.596 18.532C161.138 17.2768 143.772 15.0434 148.654 22.3713C149.708 23.9587 163.523 25.9152 165.687 25.1954ZM505.31 23.1281C507.03 24.3648 520.66 24.9923 522.269 23.8849C523.878 22.7774 523.804 19.2149 521.529 18.4766C518.996 17.646 508.103 16.6677 505.754 17.2399C504.145 17.6275 504.034 22.1867 505.31 23.1281ZM1580.95 16.4093C1580.44 16.7415 1579.77 19.3257 1580.23 20.2855C1582.25 24.3832 1600.32 25.9891 1596.43 18.2736C1595.23 15.874 1582.67 15.3203 1580.94 16.4093H1580.95ZM491.329 23.165C494.436 22.1498 493.418 17.8306 490.015 16.7231C486.613 15.6156 470.856 14.7112 475.294 21.3561C476.755 23.5342 488.85 23.9587 491.329 23.165ZM462.755 16.2801C462.182 15.6894 448.497 15.5233 447.11 18.2736C443.226 25.9891 461.313 24.2725 462.589 20.6362C462.866 19.824 462.959 16.4647 462.755 16.2801ZM16.3856 23.0727C17.5137 22.9066 24.4675 20.7839 24.7634 20.3778C30.1821 12.81 9.59834 14.4527 9.00653 19.8241C8.52569 24.3279 13.1492 23.5526 16.3856 23.0911V23.0727ZM1563.16 14.2681C1559.24 13.1791 1551.03 15.0618 1546.54 14.2681C1546.76 15.7448 1545.83 18.532 1547.11 19.418C1549.42 21.0054 1565.79 22.7958 1566.7 19.7687C1567.38 18.1813 1564.11 14.5266 1563.18 14.2681H1563.16ZM1426.57 12.2562C1422.65 12.2931 1410.77 11.7578 1408.31 14.6742C1406.26 17.1107 1407.06 20.4701 1410.79 20.267C1413.16 20.1378 1423.35 18.9196 1424.85 18.1074C1427.34 16.76 1426.53 14.785 1426.57 12.2562ZM140.48 20.1563C143.032 19.3257 142.847 15.8371 140.462 14.4343C138.427 13.253 124.076 9.81974 123.059 12.8838C121.043 19.0119 136.726 21.393 140.48 20.1563ZM1528.89 12.2562C1526.32 11.4625 1514.6 12.2562 1510.75 12.2562C1509.36 12.2562 1507.92 17.1845 1510.9 18.1444C1513.51 18.975 1520.44 18.1997 1523.85 18.292C1526.34 18.3659 1529.78 21.0608 1530.45 16.76C1530.67 15.3018 1530.34 12.6992 1528.89 12.2562ZM36.4885 17.9967C39.3736 17.7198 50.7288 16.6308 49.3233 11.8686C47.9178 7.10638 31.1807 11.3333 30.367 13.899C28.7765 18.9012 33.2151 18.292 36.4885 17.9967ZM1461.34 17.2768C1464.79 14.4343 1462.33 10.5027 1458.25 10.2812C1457.03 10.2074 1445.32 11.4625 1444.69 11.7578C1441.88 13.1053 1442.49 17.2953 1444.17 17.2953H1461.32L1461.34 17.2768ZM1489.34 16.0586C1492.26 15.3941 1494.46 13.4006 1492.17 10.6504C1489.87 7.9001 1473.73 7.77089 1476.02 14.6558C1476.83 17.0738 1486.78 16.6308 1489.34 16.0401V16.0586ZM117.843 15.1726C118.602 14.2866 118.195 9.96742 116.308 9.3583C115.624 9.13681 105.175 8.08468 104.417 8.19543C100.163 8.85992 99.5899 13.8805 103.566 15.0434C105.767 15.6894 116.567 16.7046 117.862 15.1542L117.843 15.1726ZM62.7684 14.0282C67.5584 13.1607 71.4236 7.78933 66.874 6.33114C64.7472 5.64819 49.6747 7.14331 52.4858 12.6623C53.318 15.1541 60.3827 14.4712 62.7499 14.0467L62.7684 14.0282ZM91.2305 13.2529C93.3203 12.0347 95.1143 8.2508 92.7841 6.6634C92.2662 6.3127 81.6137 5.18676 80.1342 5.20522C71.1461 5.24214 73.088 13.2714 75.1039 13.2714H91.2305V13.2529Z"
              fill="#65439C"/>
        <path d="M1665.84 34.2399C1663.25 35.089 1644.87 32.4125 1643.3 30.8805C1641.49 29.1454 1642.34 26.8013 1644.33 25.8414C1647.09 24.5124 1666.58 27.4658 1667.43 29.9761C1668.01 31.6558 1667.62 33.6677 1665.86 34.2399H1665.84Z"
              fill="#F3C054"/>
        <path d="M959.262 29.3669C957.173 28.7393 956.951 25.0108 959.447 23.4972C962.499 21.6514 984.155 19.6579 980.845 28.2594C980.013 28.2594 978.792 29.3669 978.422 29.3669C974.335 29.3669 962.036 30.1975 959.262 29.3669Z"
              fill="#F3C054"/>
        <path d="M1204.1 44.318C1202.31 44.9087 1186.39 43.8566 1184.3 43.2659C1180.38 42.14 1180.76 37.1932 1185.22 36.7133C1186.53 36.5656 1202.14 37.3593 1203.03 37.6362C1205.99 38.5037 1207.1 43.3397 1204.09 44.318H1204.1Z"
              fill="#F3C054"/>
        <path d="M1252.65 49.5048C1250.54 48.8587 1250.45 45.1486 1252.74 43.5428C1255.04 41.9369 1271.92 42.0108 1273.22 43.5428C1273.99 44.4841 1273.14 49.4863 1271.81 49.4863C1267.72 49.4863 1255.41 50.3169 1252.65 49.4863V49.5048Z"
              fill="#F3C054"/>
        <path d="M550.805 29.2008C549.714 29.57 533.088 28.5732 531.96 28.2041C529.186 27.2996 529.685 23.3865 532.552 22.0575C535.418 20.7285 546.663 21.633 549.751 22.519C552.673 23.3496 553.838 28.2225 550.805 29.2008Z"
              fill="#F3C054"/>
        <path d="M360.909 30.3636C360.724 26.5243 360.299 25.1954 364.109 23.9771C366.568 23.1834 382.307 21.2453 383.084 23.8479C385.155 30.7328 364.7 30.8251 360.909 30.3636Z"
              fill="#F3C054"/>
        <path d="M91.2307 13.2529H75.1041C73.0882 13.2529 71.1463 5.2421 80.1344 5.18673C81.6139 5.18673 92.2664 6.29423 92.7843 6.64494C95.1145 8.23234 93.302 12.0162 91.2307 13.2345V13.2529Z"
              fill="#F3C054"/>
        <path d="M913.268 25.4538C915.321 34.2768 905.87 31.1389 900.988 32.5786C899.545 33.0031 895.847 38.2637 894.385 33.723C891.297 24.1063 907.276 24.6416 913.268 25.4538Z"
              fill="#F3C054"/>
        <path d="M945.503 23.4603C945.873 24.0879 945.891 26.8382 945.688 27.6688C945.355 29.0716 920.684 34.1291 925.973 25.3061C927.49 22.7774 944.079 21.0977 945.503 23.4603Z"
              fill="#F3C054"/>
        <path d="M993.18 23.4603C994.327 21.633 1011.42 23.6264 1012.08 24.4201C1012.69 25.1585 1012.3 29.1639 1011.25 29.9207C1008.83 31.6373 988.446 30.9728 993.18 23.4419V23.4603Z"
              fill="#F3C054"/>
        <path d="M1528.89 12.2562C1530.34 12.6992 1530.67 15.3203 1530.45 16.76C1529.78 21.0607 1526.34 18.3659 1523.85 18.292C1520.46 18.1997 1513.51 18.975 1510.9 18.1444C1507.9 17.1845 1509.36 12.2562 1510.75 12.2562C1514.6 12.2562 1526.34 11.4625 1528.89 12.2562Z"
              fill="#F3C054"/>
        <path d="M1282.52 40.5525C1283.09 39.6665 1296.98 37.0085 1299.01 37.3777C1301.62 37.8761 1302.27 40.4418 1301.62 42.8413C1301.4 43.6719 1286.09 46.6622 1284.94 46.496C1282.19 46.0899 1281.46 42.1768 1282.52 40.5341V40.5525Z"
              fill="#F3C054"/>
        <path d="M1563.16 14.2681C1564.09 14.5265 1567.36 18.1813 1566.68 19.7687C1565.79 22.7958 1549.4 20.9869 1547.09 19.418C1545.8 18.532 1546.74 15.7448 1546.52 14.2681C1551.01 15.0618 1559.24 13.1791 1563.14 14.2681H1563.16Z"
              fill="#F3C054"/>
        <path d="M140.48 20.1562C136.726 21.3929 121.043 19.0118 123.059 12.8837C124.076 9.81967 138.427 13.2529 140.462 14.4342C142.847 15.837 143.032 19.3072 140.48 20.1562Z"
              fill="#F3C054"/>
        <path d="M165.687 25.1953C163.523 25.9152 149.708 23.9771 148.654 22.3712C143.772 15.0433 161.138 17.2768 164.596 18.5319C167.666 19.6394 168.72 24.1801 165.687 25.1953Z"
              fill="#F3C054"/>
        <path d="M437.4 17.4245C438.306 18.8642 437.733 22.4266 435.828 23.1465C432.573 24.3647 414.024 28.3332 418.851 20.2855C419.96 18.4212 436.161 15.4679 437.382 17.4245H437.4Z"
              fill="#F3C054"/>
        <path d="M1713.11 37.2116C1710.3 37.5992 1704.77 36.7317 1705.88 32.9847C1706.44 31.1388 1722.67 25.6937 1724.54 28.2779C1727.89 32.9847 1716.52 36.7317 1713.11 37.2116Z"
              fill="#F3C054"/>
        <path d="M192.411 22.4451C193.52 24.2355 192.762 27.8164 190.025 28.3517C188.342 28.6839 176.672 27.6872 175.045 27.1888C170.995 25.9521 173.621 20.5439 179.021 20.3593C180.649 20.3039 192.059 21.8544 192.411 22.4266V22.4451Z"
              fill="#F3C054"/>
        <path d="M1426.57 12.2563C1426.53 14.785 1427.34 16.76 1424.85 18.1075C1423.33 18.9197 1413.16 20.1379 1410.79 20.2671C1407.06 20.4701 1406.26 17.1108 1408.31 14.6743C1410.77 11.7579 1422.65 12.3116 1426.57 12.2563Z"
              fill="#F3C054"/>
        <path d="M1698.63 36.2888C1697.37 38.2638 1678.9 41.2171 1679.55 33.9261C1679.95 29.3116 1685.5 32.3941 1688.09 32.3203C1690.86 32.228 1697.34 28.2595 1698.61 32.0618C1698.93 33.0032 1699.09 35.5689 1698.61 36.3072L1698.63 36.2888Z"
              fill="#F3C054"/>
        <path d="M36.4885 17.9966C33.2151 18.292 28.7581 18.9011 30.367 13.8989C31.1808 11.3332 47.9363 7.18015 49.3233 11.8685C50.7104 16.5569 39.3736 17.7198 36.4885 17.9966Z"
              fill="#F3C054"/>
        <path d="M1167.74 41.2355C1165.03 42.0477 1153.32 41.9923 1151.8 39.4451C1147.59 32.431 1163.44 33.8523 1167.28 35.052C1171.74 36.4549 1171.37 40.1465 1167.74 41.2171V41.2355Z"
              fill="#F3C054"/>
        <path d="M871.287 37.1378C867.329 37.5623 858.655 37.1193 863.982 31.8587C865.258 30.6036 879.553 27.6318 880.7 29.3115C884.676 35.1628 875.152 36.7317 871.287 37.1378Z"
              fill="#F3C054"/>
        <path d="M1038.27 23.4604C1039.53 24.2541 1039.54 28.7209 1037.18 29.7177C1035.98 30.2161 1025.62 31.4158 1023.75 31.4343C1020.44 31.4712 1019.11 29.0347 1020.75 26.3214C1022.1 24.0695 1036.4 22.279 1038.29 23.4604H1038.27Z"
              fill="#F3C054"/>
        <path d="M622.173 42.3245C620.379 39.482 622.34 36.6394 625.521 36.6025C628.406 36.5656 640.945 37.8207 641.259 40.9586C641.925 47.8066 622.746 43.2474 622.173 42.3245Z"
              fill="#F3C054"/>
        <path d="M590.789 36.3994C589.568 34.6459 592.139 31.8218 594.34 31.4158C596.54 31.0097 609.671 32.837 609.985 33.9999C612.723 44.0227 591.455 37.3777 590.789 36.3994Z"
              fill="#F3C054"/>
        <path d="M1097.63 26.5982C1098.43 27.3365 1099 29.2561 1098.45 30.3636C1096.73 33.9445 1084.21 31.5819 1081.45 30.1791C1078.47 28.647 1079.03 24.9739 1082.25 24.3463C1084.58 23.9033 1096.14 25.1954 1097.62 26.5982H1097.63Z"
              fill="#F3C054"/>
        <path d="M1461.34 17.2769H1444.19C1442.49 17.2769 1441.88 13.1053 1444.71 11.7394C1445.32 11.4441 1457.05 10.2074 1458.27 10.2628C1462.33 10.4843 1464.79 14.4159 1461.35 17.2584L1461.34 17.2769Z"
              fill="#F3C054"/>
        <path d="M1349.17 34.203C1345.45 34.7013 1343.62 32.9663 1345.38 29.3485C1346.75 26.5428 1365.61 20.3963 1362.91 28.7024C1362.3 30.5852 1351.5 33.8892 1349.15 34.203H1349.17Z"
              fill="#F3C054"/>
        <path d="M1237.52 46.4775H1221.4C1219.23 46.4775 1217.84 39.5557 1226.44 39.3342C1230.98 39.2235 1243.75 40.1464 1237.54 46.4775H1237.52Z"
              fill="#F3C054"/>
        <path d="M799.66 43.2106C796.035 43.5244 794.019 42.14 795.924 38.393C797.292 35.6981 811.403 32.874 813.16 35.3289C817.136 40.8664 803.118 42.9152 799.66 43.2106Z"
              fill="#F3C054"/>
        <path d="M579.027 33.2431C576.659 34.0183 563.214 33.1508 561.957 31.4526C556.52 24.1247 575.568 26.4136 578.99 27.5211C581.486 28.3332 581.449 32.4494 579.027 33.2246V33.2431Z"
              fill="#F3C054"/>
        <path d="M666.651 48.3235C663.692 48.8772 651.227 47.6775 652.392 43.1368C653.668 38.1531 669.684 41.1064 670.35 43.0629C671.275 45.7947 669.296 47.8251 666.633 48.3235H666.651Z"
              fill="#F3C054"/>
        <path d="M491.329 23.1651C488.869 23.9588 476.755 23.5342 475.294 21.3562C470.837 14.7112 486.446 15.5788 490.015 16.7232C493.585 17.8676 494.436 22.1499 491.329 23.1651Z"
              fill="#F3C054"/>
        <path d="M505.31 23.1281C504.034 22.2052 504.145 17.646 505.754 17.2399C508.121 16.6677 519.014 17.646 521.529 18.4766C523.785 19.2149 523.933 22.7405 522.269 23.8849C520.604 25.0293 507.011 24.3648 505.31 23.1281Z"
              fill="#F3C054"/>
        <path d="M396.399 27.115C392.331 27.2073 388.965 24.014 392.589 21.2453C394.254 19.9717 407.533 17.3875 408.864 19.2334C412.914 24.9 399.987 27.0412 396.399 27.115Z"
              fill="#F3C054"/>
        <path d="M225.922 26.4505C226.995 24.9001 241.66 26.0998 243.047 27.7795C250.038 36.1411 220.392 34.4614 225.922 26.4505Z"
              fill="#F3C054"/>
        <path d="M272.952 34.1475C271.103 35.9195 255.401 37.4885 256.012 31.8957C256.696 25.6568 280.017 27.355 272.952 34.1475Z"
              fill="#F3C054"/>
        <path d="M1132.68 32.3941C1134.25 32.8371 1135.66 36.1227 1135.27 37.8208C1134.86 39.6851 1117.92 38.6145 1117 37.9869C1115.02 36.621 1116.24 32.3941 1117.55 32.3941C1121.07 32.3941 1130.15 31.6927 1132.68 32.3941Z"
              fill="#F3C054"/>
        <path d="M830.729 39.4266C830.803 38.0238 830.452 36.3626 830.877 35.0336C831.672 32.6156 846.764 29.9022 847.799 33.0032C850.259 40.4418 834.779 39.722 830.729 39.4266Z"
              fill="#F3C054"/>
        <path d="M216.083 30.216C212.477 31.3973 198.57 31.3604 200.696 24.937C201.473 22.5928 212.791 22.8697 215.029 23.5342C217.988 24.4017 219.098 29.2377 216.083 30.2345V30.216Z"
              fill="#F3C054"/>
        <path d="M720.025 46.1823C717.177 46.5146 708.577 48.0097 709.872 43.1183C710.87 39.3344 726.405 36.9902 727.774 41.1063C729.364 45.9424 723.631 45.7763 720.025 46.1823Z"
              fill="#F3C054"/>
        <path d="M679.504 46.4776C679.005 45.9608 679.541 40.4418 681.021 40.4418H697.148C699.811 40.4418 698.128 46.4776 696.13 46.4776C693.763 46.4776 680.078 47.0683 679.504 46.4776Z"
              fill="#F3C054"/>
        <path d="M283.549 33.1509C282.735 32.431 281.996 29.0532 282.199 28.0011C282.55 26.2476 298.585 26.709 299.324 28.9609C301.433 35.3659 286.157 35.4397 283.531 33.1509H283.549Z"
              fill="#F3C054"/>
        <path d="M309.589 34.3321C309.145 33.9999 308.664 31.2681 308.904 30.3452C310.254 25.3245 330.043 22.3712 325.161 30.4005C324.162 32.0618 310.532 35.0151 309.589 34.3321Z"
              fill="#F3C054"/>
        <path d="M117.843 15.1725C116.549 16.7046 105.748 15.7078 103.547 15.0618C99.5712 13.8989 100.145 8.87829 104.398 8.2138C105.156 8.10305 115.605 9.15517 116.29 9.37667C118.176 9.96733 118.583 14.2865 117.825 15.191L117.843 15.1725Z"
              fill="#F3C054"/>
        <path d="M353.623 29.1454C351.773 30.4928 336.664 32.0618 336.682 27.8533C336.701 23.6449 353.567 20.7654 354.769 24.9923C355.028 25.8968 354.307 28.647 353.623 29.1454Z"
              fill="#F3C054"/>
        <path d="M1321.97 40.2018C1318.3 40.8294 1310.96 41.6415 1312.76 36.0672C1313.74 33.0216 1332.99 29.4223 1329.29 36.4364C1328.38 38.1714 1323.91 39.8696 1321.97 40.2018Z"
              fill="#F3C054"/>
        <path d="M1489.34 16.0586C1486.8 16.6308 1476.83 17.0922 1476.02 14.6742C1473.71 7.77087 1489.87 7.937 1492.17 10.6688C1494.46 13.4006 1492.26 15.3941 1489.34 16.0771V16.0586Z"
              fill="#F3C054"/>
        <path d="M1580.95 16.4093C1582.67 15.3203 1595.23 15.874 1596.45 18.2736C1600.34 25.9891 1582.25 24.3832 1580.25 20.2855C1579.79 19.3257 1580.46 16.7416 1580.97 16.4093H1580.95Z"
              fill="#F3C054"/>
        <path d="M462.756 16.2802C462.941 16.4648 462.867 19.8241 462.589 20.6363C461.332 24.2725 443.245 25.9891 447.11 18.2736C448.497 15.5049 462.201 15.6895 462.756 16.2802Z"
              fill="#F3C054"/>
        <path d="M62.7682 14.0282C60.3825 14.4528 53.3363 15.1542 52.5041 12.6439C49.693 7.12487 64.7655 5.62974 66.8923 6.31269C71.4419 7.78934 67.5767 13.1607 62.7867 14.0097L62.7682 14.0282Z"
              fill="#F3C054"/>
        <path d="M1626.54 27.2812C1625.58 27.558 1614.1 25.8599 1613.04 24.8632C1607.57 19.621 1621.66 17.4799 1626.51 20.4886C1628.97 22.0206 1628.98 26.5982 1626.54 27.2996V27.2812Z"
              fill="#F3C054"/>
        <path d="M764.336 42.3061C763.837 41.4939 763.8 38.0238 764.78 37.3039C765.501 36.7871 775.229 35.5873 776.838 35.5873C780.333 35.5873 781.276 37.5439 780.185 40.7925C779.446 42.989 765.575 44.2811 764.355 42.3061H764.336Z"
              fill="#F3C054"/>
        <path d="M1048.59 29.2746C1047.52 27.6688 1049.12 24.1433 1051.21 23.5342C1053.45 22.8881 1063.77 22.6113 1064.55 24.9554C1067.01 32.4494 1049.64 30.8436 1048.59 29.2931V29.2746Z"
              fill="#F3C054"/>
        <path d="M1384.47 26.1182C1380.96 26.6351 1376.76 26.6535 1378.28 21.9652C1379.02 19.6579 1391.69 15.1726 1393.81 19.2887C1395.94 23.4049 1387.27 25.6937 1384.46 26.1182H1384.47Z"
              fill="#F3C054"/>
        <path d="M16.3859 23.0727C13.1495 23.5341 8.526 24.3094 9.00684 19.8056C9.58016 14.4343 30.1824 12.8099 24.7637 20.3593C24.4678 20.7654 17.514 22.9066 16.3859 23.0542V23.0727Z"
              fill="#F3C054"/>
        <path d="M744.252 45.2409C740.812 45.647 737.853 45.4624 739.129 41.1248C739.961 38.3191 751.723 34.7383 753.647 38.4299C755.958 42.8598 747.507 44.8533 744.252 45.2409Z"
              fill="#F3C054"/>
    </g>
    <rect y="419" width="1728" height="481" fill="#65439C"/>
    <defs>
        <clipPath id="clip0_1408_7353">
            <rect width="1728" height="419" fill="white" transform="matrix(-1 0 0 -1 1728 419)"/>
        </clipPath>
    </defs>
</svg>
