<svg xmlns="http://www.w3.org/2000/svg" width="1326" height="353" fill="none">
  <path fill="#5A3C26" d="M653.6 78.6 78 337h1151.2L653.6 78.6Z" />
  <path fill="#442E1A"
    d="M759.5 136.4c-1.6 1.3-8.8 1.6-12 2-47.1 5.2-130.4 9-156.5 30.1-16.8 13.7 14.5 18.2 37.7 21.2 24.2 3 58.4 6.6 83.3 7.7 2.3 0 39-.7 26.8 2.8-3.4 1-39-.2-45.9-.5-28.2-1.1-79.9-4.5-102-12.5-32-11.5 0-28.3 25.6-35.3 39.7-10.9 97-15.8 143-15.5ZM1001.6 259.1c2.9 1.4-8.8 6.2-11.2 7-54.3 19.5-179.9 8.5-245.6 5.6-12.3-.6-24.9-.9-37.2-.8-2.8-1 0-1.4 2.6-1.6 13.5-.8 37.6-.3 52 0 60 1 125.3 6.4 184-1.2 7.3-.9 53.5-10 55.4-9ZM711.7 111.7c.9 2.2-1.4 1.3-3.8 1.8-45.5 9.5-103.9 7.4-151.9 13.8 43.6-15.4 103.5-12.3 155.7-15.6Z" />
  <path fill="#442E1A"
    d="M726.6 143.4c.6 1.8-.4 2.5-3.5 3.5-13.6 4.3-43.3 5.3-61.4 10.6-57.2 16.8 10.3 29.3 45.8 32.9 1.8 2.8-3.3 3-8.9 3-15.9-.6-59.8-10-63.2-17.7-5.5-12 13.4-18.4 34.7-23 17.9-3.9 38-6.1 56.5-9.2Z" />
  <path fill="#442E1A" fill-rule="evenodd"
    d="M80.2 336c6.4-.4 12.8-.7 19.1-1.2 108.4-6.9 213.5-20.6 318.4-34.3l74-9.5 1.3-.2c1.8-.1 4-.3 3.6-1.2a1419.5 1419.5 0 0 0-86.8 6.5c-50.1 4.7-100 10.2-149.7 15.8-54.6 6-109.2 12.2-164.2 17L80.2 336Z"
    clip-rule="evenodd" />
  <path fill="#442E1A" fill-rule="evenodd"
    d="M134 311.9c68.6-2.4 136-10.6 203.3-18.8 86.7-10.6 173.3-21.2 262.3-19.1 14 .3 34 1.3 47.5 2.7 2.1.2 6 .9 11 1.7 14 2.3 35.6 5.9 39 3.4.4-.2.3-2.2.1-2.3l-2.8-.3c-2-.2-4.8-.4-6.3-.7-88.7-16.8-160-12.6-252-3.3-39.5 4-78.3 8.7-117.1 13.4-57.6 7-115.1 14-174.4 18.5L134 312ZM184 289.5c33.4-3.5 66.8-6.8 99.5-9.8 23.2-2.1 47.2-3.7 71.2-5.3 32.8-2.2 65.7-4.5 96.7-8 6.4-.7 10-1.3 5.5-4.6-26.4 1.1-53.6 3.3-80 5.4-58.8 4.8-119.2 10.2-179.1 16l-13.9 6.3ZM245 262l4-.3a5500 5500 0 0 1 198.4-11.9c6.8-.3 8.8-2.2 1.6-3.2-20.9.3-41.3 2-61.8 3.6-12.3 1-24.6 2-37 2.6-13.6.7-27.4 1-41.2 1.4a1537.7 1537.7 0 0 0-50.7 1.9l-13.4 6Z"
    clip-rule="evenodd" />
  <path fill="#442E1A" fill-rule="evenodd"
    d="M298 238.3c63.8-1.3 128.8-.7 186.9 3 29 2 56.6 6.2 84.2 10.5 41.1 6.3 82 12.7 126.4 10.9 0-1.2-9.9-1.2-16.4-1.2l-5-.1c-31.6-2-59.6-7-87.8-12.2-14.7-2.7-29.4-5.4-44.8-7.6-61.1-9-146.8-11-229.2-9.8l-14.4 6.5ZM345.8 337l24.7-2.6c23-2.5 46-5 68.4-6.3 20.4-1.2 45.2-1.7 71-2 47.2-.9 97.9-1.7 131.1-7.5l.8-.2c2.3-.4 4.1-.7 3.5-2.2-39.6 4.7-80.1 4.6-120.6 4.5-16.6 0-33.3-.1-49.8.2-36.9.6-72.8 3.6-108.8 6.6-41.7 3.5-83.4 7-126.4 6.7l-43.2-1.6c-2.6 2 2.5 3.4 8.1 4.4h141.2ZM690.9 337c43.7-7 84.9-13.3 143.4-12 20.2.4 42.9 2.5 66 4.6 37.8 3.5 76.8 7 107.8 3.7 2.6-.3 33-5.4 27.6-7.5-43.7 2.7-85.8-.8-128-4.3a1009 1009 0 0 0-113.2-5c-43 1.2-84.1 8-125.2 14.9l-34.6 5.6h56.2ZM1222 333.7c-12.8 1.3-29.2-.7-45.8-2.8-20.3-2.5-40.8-5.1-54.7-1.6l-1.3.3c-1 .1-1.5.2-1 1.5 14.8-1 31.3 1.2 48 3.4 6.7 1 13.4 1.8 20 2.5h39.3l2-.4-6.6-2.9Z"
    clip-rule="evenodd" />
  <path fill="#442E1A" fill-rule="evenodd"
    d="M1181.1 315.4c-3-.4-6-.7-9-.8-45.7-1.8-83.6 7.3-121.5 16.4l-25.5 6h36.6l5.2-1.1c32.3-7.1 63.4-13.9 105.2-12.7 5.3.2 12 .8 19 1.5l13.2 1.1-23.2-10.4ZM1131.6 293.2c-17.3 2-34.6 4-52 5.4-34.3 2.9-73.5 4.6-108.2 3.5-12.7-.3-25.6-1.4-38.6-2.5A570.2 570.2 0 0 0 880 297c-1.6 0-6 .5-4.6 1.7 1 1 22.1 5.6 26 6.3 44.7 8.2 98.1 8 145 3.8 24.3-2.3 48.2-5.6 72.1-9l21.3-2.8-8.2-3.7ZM1106.7 282c-2.2 1-4.4 2.2-6.5 3.3 1.3 1 3.7.4 5.4-.1l.7-.2 4.5-1.2-4.1-1.8ZM1072.5 266.7a2049.3 2049.3 0 0 1-322.4 26.9c-12.5.1-30 0-49.8-.3-55-.6-127-1.4-154 4.3h-.1c-2.4.6-9.8 2.1-6.4 3.8.7.3 8.7-.8 17-1.9 7.6-1 15.3-2 18.4-2 14.8-.6 29.3 0 43.8.6 9 .4 18 .8 27.1 1 135.2 1.5 261.4-1.7 390-20.8 15.4-2.3 30.8-4.7 46.1-7.3l-9.7-4.3ZM788.3 139c-12 2.6-23.6 5.3-34.5 8.5-24.7 7.1-49.2 19-41.5 33.3 4.2 8 26.8 13.3 43.3 14.8a887.4 887.4 0 0 0 154.2-2l-13-5.8c-47.6 1-114.8.8-151.1-4.1-50.2-6.8-6.4-27.4 19.9-34-18.9 15.2-21.9 32.2 25.9 34.4 4.5.2 9.3.1 14 0 4.4 0 8.7-.1 12.8 0 .1-.8.2-1.2 0-1.3-.1-.3-.8-.2-2.6-.3-29.2-1.6-67.9-4-52.3-22 6.1-7.2 19-12.7 35-17l-10-4.4Z"
    clip-rule="evenodd" />
  <path fill="#442E1A" fill-rule="evenodd"
    d="M759.8 126.3c-97.8 9.1-195 19.5-280.4 45-.4 0-1 .3-1.9.5-5.6 1.5-18.9 5.2-15.5 6.8l20.6-4.6c32.4-7.4 64.9-14.7 98.8-20.8A2158.1 2158.1 0 0 1 767.8 130l-8-3.6Zm86.3 38.7c.4 2 4.1 4 12.9 5.8l18 8c-23.5-2.6-47-9-39.3-17.5l8.4 3.7ZM943.6 208.8c-84.3 4.3-176.5-.5-261.4-4.9l-68.9-3.4-63.4-2.9c-49.3-2.3-99.1-4.6-148-6l-18.7 8.4 15.7.5c39.1 1.5 77.9 3.3 116.7 5 66.2 3.1 132.2 6.2 199.7 7.5l9.8.3c82.2 1.7 153.6 3.2 224.6-1.8l-6-2.7ZM966.2 219c-96.3 10.4-203 14.6-283.8 12.8-53.1-1.1-85.2-6.2-129.4-13.2-5.8-1-11.9-2-18.2-2.9h-.3c-2-.4-4.5-.7-3.3.8.4.7 23 5.4 26.5 6 97.9 19.3 252.1 17.4 356 9 22.5-1.8 44.5-4 66-6.5l-13.5-6ZM1008.4 237.9A1626.2 1626.2 0 0 1 717 250.2c-10-.7-30.1-2-30.2-.8 109 16 225.4 9 333-6.4l-11.4-5.1Z"
    clip-rule="evenodd" />
  <path fill="#382A21" d="M47.9 352.4 78 337.2 653.6 79.5V27L25.4 312l22.5 40.5Z" />
  <path fill="#382A21" d="M653.5 27v52.5L1229 337.2l30.2 15.2 22.5-40.5L653.5 27Z" />
  <path fill="#fff"
    d="M1325.5 287.9v8.9c-3 7-4.8 14.2-11.6 18.7-18 12-40 1-54.9-10.7-8-6.3-15.6-16.8-24.3-21.3-19.5-10.1-38.2-5.9-58.6-13.7-46.1-17.5-72.4-52.7-126.4-63.7-30.4-6.2-43.1-8.6-69.8-25.7-25-16.2-49.4-33-75.4-47.8-31-17.6-67.3-25.5-100.6-38.7-44.1-17.3-90.4-46.9-136.6-54.5-37.3-6.2-52.4 5.8-85.9 15.3-23 6.6-46.3 9.4-69 17.6-38.9 14.2-70.5 41.2-108.2 58-44.7 19.8-86.2 23.4-127.7 53.4-22.6 16.4-40.5 39-65.2 52.6-41.5 22.7-89.6 18.2-128.8 49-21.2 16.6-38.4 47-68.3 46.3-15.3-8.8-16.4-26-11.9-41.7 9.2-32.3 58.5-69 88.7-81 21.6-8.4 44.9-11 67-17.8 59.3-18 103.4-63 157.2-91.8C353 79 382.4 73.7 422.6 62 510.2 36.7 570-14.2 668.2 3.8 742 17.2 783 58.3 847.6 85c41.6 17.2 85 30.8 125.7 50.3 29.3 14 55.5 33.6 85.4 47.5 36.3 17 70 25.2 108.2 35.6 35.7 9.7 62.1 29 97.7 37 23.1 5.3 51.5 6 61 32.5Z" />
  <path fill="#C1DDE5"
    d="M1314 315.5c-8.5 23.7-33.2 21-52.8 13.8-29.6-11-53.4-33.2-83-45.4-11.3-4.6-28-10.6-39.6-14.1-20.1-6.1-39.8-4.3-57.4-18.5-6.7-5.5-9.6-13-15.6-18.3-16.4-14.3-35.9-12.5-55.4-17.8-32.5-8.7-48.7-22.7-76-39.1-25.6-15.4-54.1-16.3-79.8-29.2-24.6-12.3-45.9-34.8-74.5-41.5-31.6-7.4-51-7.7-79-27.2-14.2-9.8-24-24.7-43.2-24-23.3 1-49.1 26.1-72.7 35.3-15.3 5.9-30.2 6.4-44 11.4-16.1 5.8-31.3 18.2-48 23.4-7.4 2.3-15.3 2.8-22.6 5.1-21.5 7-36.6 30.6-58.1 40-38.9 17.2-74.7 14.3-114 38.8-34.2 21.2-69 48-109 57.8-18.4 4.6-35.3 1.4-53 9.5-34.4 15.7-78.4 81-122.1 56 30 .7 47-29.6 68.3-46.3 39.2-30.7 87.3-26.2 128.8-48.9 24.7-13.5 42.6-36.2 65.2-52.6 41.5-30 83-33.6 127.7-53.5 37.7-16.7 69.3-43.7 108.2-57.9 22.7-8.2 46-11 69-17.6 33.5-9.5 48.6-21.5 86-15.3C713.4 47 759.7 76.6 803.8 94c33.3 13.2 69.6 21 100.6 38.7 26 14.8 50.3 31.6 75.4 47.8 26.7 17.1 39.4 19.5 69.8 25.7 54 11 80.3 46.2 126.4 63.7 20.4 7.8 39.1 3.6 58.6 13.7 8.7 4.5 16.3 15 24.3 21.3 14.9 11.8 36.9 22.8 55 10.7Z" />
</svg>