<svg xmlns="http://www.w3.org/2000/svg" width="1728" height="365" fill="none">
  <path fill="url(#a)"
    d="M1728 40.71v324H365.5v-170.5c73.5-23.67 254-71.9 388-75.5 167.5-4.5 223-96 332-105s142.5 27 241 27 111.5-47 220.5-40c87.2 5.6 157 29 181 40Z" />
  <path fill="url(#b)"
    d="M0 87.47V365h1155V219.45c-59.03-18.6-219.3-59.08-388.17-72.15-211.09-16.35-398.67 77.7-518.22 4.62C152.97 93.46 43 84.6 0 87.47Z" />
  <path fill="url(#c)"
    d="M1728 365H0V223.46c31.5 18.16 159 54.46 417 54.46 322.5 0 471.5-80.92 787.5-80.92 252.8 0 454.33 43.49 523.5 65.23V365Z" />
  <defs>
    <linearGradient id="a" x1="1021.81" x2="1071.69" y1="0" y2="364.71"
      gradientUnits="userSpaceOnUse">
      <stop offset=".19" stop-color="#D4EFFF" />
      <stop offset="1" stop-color="#3479B9" />
    </linearGradient>
    <linearGradient id="b" x1="619.17" x2="586.84" y1="87" y2="370.81"
      gradientUnits="userSpaceOnUse">
      <stop offset=".45" stop-color="#F3F7FF" />
      <stop offset="1" stop-color="#2D70BC" />
    </linearGradient>
    <linearGradient id="c" x1="864" x2="864" y1="197" y2="365" gradientUnits="userSpaceOnUse">
      <stop offset=".56" stop-color="#fff" />
      <stop offset="1" stop-color="#CFDDFF" />
    </linearGradient>
  </defs>
</svg>