<svg width="1728" height="365" viewBox="0 0 1728 365" fill="none" xmlns="http://www.w3.org/2000/svg">
<path d="M1728 40.7109V364.711H365.5V194.211C439 170.544 619.5 122.311 753.5 118.711C921 114.211 976.5 22.7109 1085.5 13.7109C1194.5 4.71091 1228 40.7109 1326.5 40.7109C1425 40.7109 1438 -6.28909 1547 0.710911C1634.2 6.31091 1704 29.7109 1728 40.7109Z" fill="url(#paint0_linear_655_13514)"/>
<path d="M0 87.4745V365H1155V219.453C1095.97 200.849 935.705 160.371 766.832 147.297C555.741 130.953 368.159 225.004 248.608 151.922C152.966 93.4567 43.0186 84.5965 0 87.4745Z" fill="url(#paint1_linear_655_13514)"/>
<path d="M1728 365H0V223.462C31.5 241.615 159 277.923 417 277.923C739.5 277.923 888.5 197 1204.5 197C1457.3 197 1658.83 240.487 1728 262.231V365Z" fill="url(#paint2_linear_655_13514)"/>
<defs>
<linearGradient id="paint0_linear_655_13514" x1="1021.81" y1="5.38055e-06" x2="1071.69" y2="364.711" gradientUnits="userSpaceOnUse">
<stop offset="0.19" stop-color="#D4EFFF"/>
<stop offset="1" stop-color="#3479B9"/>
</linearGradient>
<linearGradient id="paint1_linear_655_13514" x1="619.175" y1="87" x2="586.838" y2="370.812" gradientUnits="userSpaceOnUse">
<stop offset="0.454337" stop-color="#F3F7FF"/>
<stop offset="1" stop-color="#2D70BC"/>
</linearGradient>
<linearGradient id="paint2_linear_655_13514" x1="864" y1="197" x2="864" y2="365" gradientUnits="userSpaceOnUse">
<stop offset="0.555" stop-color="white"/>
<stop offset="1" stop-color="#CFDDFF"/>
</linearGradient>
</defs>
</svg>
