<svg width="1485" height="1186" viewBox="0 0 1485 1186" fill="none" xmlns="http://www.w3.org/2000/svg">
<path d="M-289 347L474 -416" stroke="#2F7346" stroke-width="16"/>
<path d="M437 347L1200 -416" stroke="#D0332E" stroke-width="16"/>
<path d="M833 347L1596 -416" stroke="#D0332E" stroke-width="16"/>
<path d="M-289 413L474 -350" stroke="#D0332E" stroke-width="16"/>
<path d="M437 413L1200 -350" stroke="#2F7346" stroke-width="16"/>
<path d="M833 413L1596 -350" stroke="#2F7346" stroke-width="16"/>
<path d="M-289 479L474 -284" stroke="#2F7346" stroke-width="16"/>
<path d="M437 479L1200 -284" stroke="#D0332E" stroke-width="16"/>
<path d="M833 479L1596 -284" stroke="#D0332E" stroke-width="16"/>
<path d="M-289 545L474 -218" stroke="#D0332E" stroke-width="16"/>
<path d="M437 545L1200 -218" stroke="#2F7346" stroke-width="16"/>
<path d="M833 545L1596 -218" stroke="#2F7346" stroke-width="16"/>
<path d="M-289 611L474 -152" stroke="#2F7346" stroke-width="16"/>
<path d="M437 611L1200 -152" stroke="#D0332E" stroke-width="16"/>
<path d="M833 611L1596 -152" stroke="#D0332E" stroke-width="16"/>
<path d="M-289 677L474 -86" stroke="#D0332E" stroke-width="16"/>
<path d="M437 677L1200 -86" stroke="#2F7346" stroke-width="16"/>
<path d="M833 677L1596 -86" stroke="#2F7346" stroke-width="16"/>
<path d="M-289 743L474 -20" stroke="#2F7346" stroke-width="16"/>
<path d="M437 743L1200 -20" stroke="#D0332E" stroke-width="16"/>
<path d="M833 743L1596 -20" stroke="#D0332E" stroke-width="16"/>
<path d="M-289 809L548 -28" stroke="#D0332E" stroke-width="16"/>
<path d="M437 809L1200 46" stroke="#D0332E" stroke-width="16"/>
<path d="M833 809L1596 46" stroke="#2F7346" stroke-width="16"/>
<path d="M-289 875L636 -50" stroke="#2F7346" stroke-width="16"/>
<path d="M437 875L1200 112" stroke="#D0332E" stroke-width="16"/>
<path d="M833 875L1596 112" stroke="#D0332E" stroke-width="16"/>
<path d="M-289 941L672 -20" stroke="#D0332E" stroke-width="16"/>
<path d="M437 941L1200 178" stroke="#D0332E" stroke-width="16"/>
<path d="M833 941L1596 178" stroke="#2F7346" stroke-width="16"/>
<path d="M-289 1007L758 -40" stroke="#2F7346" stroke-width="16"/>
<path d="M437 1007L1200 244" stroke="#D0332E" stroke-width="16"/>
<path d="M833 1007L1596 244" stroke="#D0332E" stroke-width="16"/>
<path d="M-289 1073L474 310" stroke="#D0332E" stroke-width="16"/>
<path d="M437 1073L1200 310" stroke="#D0332E" stroke-width="16"/>
<path d="M833 1073L1596 310" stroke="#2F7346" stroke-width="16"/>
<path d="M-289 1139L474 376" stroke="#2F7346" stroke-width="16"/>
<path d="M437 1139L1200 376" stroke="#D0332E" stroke-width="16"/>
<path d="M833 1139L1596 376" stroke="#D0332E" stroke-width="16"/>
<path d="M-289 1205L474 442" stroke="#D0332E" stroke-width="16"/>
<path d="M437 1205L1200 442" stroke="#D0332E" stroke-width="16"/>
<path d="M833 1205L1596 442" stroke="#2F7346" stroke-width="16"/>
<path d="M-289 1271L474 508" stroke="#2F7346" stroke-width="16"/>
<path d="M437 1271L1200 508" stroke="#D0332E" stroke-width="16"/>
<path d="M833 1271L1596 508" stroke="#D0332E" stroke-width="16"/>
<path d="M-289 1337L474 574" stroke="#D0332E" stroke-width="16"/>
<path d="M437 1337L1200 574" stroke="#D0332E" stroke-width="16"/>
<path d="M833 1337L1596 574" stroke="#2F7346" stroke-width="16"/>
<path d="M-289 1403L474 640" stroke="#2F7346" stroke-width="16"/>
<path d="M437 1403L1200 640" stroke="#D0332E" stroke-width="16"/>
<path d="M833 1403L1596 640" stroke="#D0332E" stroke-width="16"/>
<path d="M-289 1469L474 706" stroke="#D0332E" stroke-width="16"/>
<path d="M437 1469L1200 706" stroke="#D0332E" stroke-width="16"/>
<path d="M833 1469L1596 706" stroke="#2F7346" stroke-width="16"/>
<path d="M-289 1535L474 772" stroke="#D0332E" stroke-width="16"/>
<path d="M437 1535L1200 772" stroke="#D0332E" stroke-width="16"/>
<path d="M833 1535L1596 772" stroke="#D0332E" stroke-width="16"/>
<path d="M-289 1601L474 838" stroke="#D0332E" stroke-width="16"/>
<path d="M437 1601L1200 838" stroke="#D0332E" stroke-width="16"/>
<path d="M833 1601L1596 838" stroke="#2F7346" stroke-width="16"/>
<path d="M-289 1667L474 904" stroke="#D0332E" stroke-width="16"/>
<path d="M437 1667L1200 904" stroke="#D0332E" stroke-width="16"/>
<path d="M833 1667L1596 904" stroke="#D0332E" stroke-width="16"/>
<path d="M-289 1733L474 970" stroke="#D0332E" stroke-width="16"/>
<path d="M437 1733L1200 970" stroke="#D0332E" stroke-width="16"/>
<path d="M833 1733L1596 970" stroke="#2F7346" stroke-width="16"/>
<path d="M-289 1799L474 1036" stroke="#D0332E" stroke-width="16"/>
<path d="M437 1799L1200 1036" stroke="#D0332E" stroke-width="16"/>
<path d="M833 1799L1596 1036" stroke="#D0332E" stroke-width="16"/>
</svg>
