<svg width="1728" height="359" viewBox="0 0 1728 359" fill="none" xmlns="http://www.w3.org/2000/svg">
<g clip-path="url(#clip0_554_2832)">
<path d="M1728 -60V350.768C1702.46 354.312 1676.79 359.314 1650.83 358.871C1615.98 358.299 1583.21 348.682 1549.03 344.75C1514.86 340.819 1481.88 338.844 1448.26 339.748C1374.34 341.76 1302.95 353.869 1228.4 350.823C1159.55 347.999 1093.16 325.831 1023.75 327.584C928.119 329.984 836.703 348.534 739.443 347.796C666.818 347.261 600.424 338.53 528.76 332.66C443.855 325.701 370.804 347.611 287.951 357.948C285.916 358.206 271.843 359 266.294 359H234.855C229.307 359 223.111 357.929 220.3 357.782C192.744 356.287 165.133 357.486 137.595 354.792C104.491 351.543 69.5743 341.483 37.7648 338.714C25.0779 337.607 12.502 340.45 -0.0183716 341.723V-60H1727.98H1728ZM475.35 309.495C472.594 308.665 460.277 309.495 456.19 309.495C454.859 309.495 454.008 314.516 454.785 315.439C456.079 316.989 472.89 317.118 475.258 315.439C477.625 313.759 477.458 310.123 475.35 309.477V309.495ZM1061.35 310.677C1058.7 311.175 1056.71 313.205 1057.63 315.937C1058.3 317.894 1074.31 320.847 1075.59 315.863C1076.75 311.323 1064.29 310.123 1061.33 310.677H1061.35ZM445.482 318.447C446.536 316.805 445.815 312.892 443.06 312.485C441.931 312.319 426.618 315.328 426.378 316.14C425.712 318.54 426.378 321.124 428.986 321.604C431.02 321.991 444.909 319.333 445.482 318.429V318.447ZM490.478 312.522C484.264 318.854 497.025 319.776 501.574 319.666C510.174 319.444 508.769 312.522 506.623 312.522H490.496H490.478ZM1007.98 312.818C1004.37 313.224 998.636 313.076 1000.23 317.894C1001.6 322.01 1017.13 319.666 1018.13 315.882C1019.42 310.99 1010.81 312.485 1007.98 312.818ZM1048.5 312.522C1047.92 311.932 1034.22 312.522 1031.87 312.522C1029.89 312.522 1028.19 318.558 1030.85 318.558H1046.98C1048.46 318.558 1049 313.039 1048.5 312.522ZM983.748 313.759C980.494 314.147 972.06 316.14 974.354 320.57C976.277 324.243 988.039 320.662 988.871 317.875C990.147 313.556 987.207 313.353 983.748 313.759ZM523.897 314.682C520.882 315.66 522.01 320.496 524.951 321.364C525.838 321.622 541.447 322.416 542.76 322.287C547.217 321.807 547.606 316.86 543.685 315.734C541.595 315.143 525.672 314.091 523.878 314.682H523.897ZM1105.83 316.675C1105.25 315.753 1086.08 311.193 1086.74 318.041C1087.06 321.161 1099.58 322.416 1102.48 322.397C1105.66 322.361 1107.62 319.536 1105.83 316.675ZM928.341 315.789C924.882 316.085 910.864 318.134 914.84 323.671C916.597 326.108 930.708 323.302 932.076 320.607C933.981 316.86 931.965 315.476 928.341 315.789ZM963.664 316.694C962.443 314.719 948.573 315.992 947.833 318.207C946.724 321.456 947.685 323.413 951.181 323.413C952.79 323.413 962.517 322.213 963.239 321.696C964.219 320.976 964.182 317.506 963.683 316.694H963.664ZM560.256 317.764C556.649 318.835 556.279 322.545 560.718 323.93C564.565 325.129 580.414 326.551 576.197 319.536C574.681 317.008 562.974 316.952 560.256 317.746V317.764ZM406.035 318.798C404.093 319.13 399.636 320.829 398.711 322.564C395.012 329.578 414.264 325.978 415.245 322.933C417.039 317.358 409.678 318.171 406.035 318.798ZM595.32 326.606C597.854 327.307 606.934 326.606 610.448 326.606C611.761 326.606 612.982 322.379 611.003 321.013C610.078 320.386 593.156 319.315 592.731 321.179C592.361 322.877 593.748 326.163 595.32 326.606ZM897.271 319.573C893.221 319.278 877.741 318.558 880.201 325.997C881.218 329.079 896.328 326.384 897.123 323.966C897.548 322.656 897.197 320.976 897.271 319.573ZM1137.21 322.601C1136.53 321.622 1115.26 314.996 1118.01 325C1118.33 326.163 1131.52 327.99 1133.66 327.584C1135.81 327.178 1138.43 324.336 1137.21 322.601ZM29.3685 322.711C28.9062 323.45 29.0726 326.015 29.3685 326.957C30.6446 330.759 37.1175 326.772 39.8916 326.698C42.4807 326.624 48.0289 329.707 48.4358 325.092C49.083 317.801 30.6076 320.755 29.35 322.73L29.3685 322.711ZM14.8877 321.788C11.4849 322.25 0.111086 326.015 3.45849 330.722C5.30788 333.325 21.5641 327.861 22.1189 326.015C23.2285 322.268 17.7173 321.401 14.8877 321.788ZM856.714 321.862C852.848 322.287 843.324 323.837 847.3 329.688C848.447 331.368 862.743 328.396 864.019 327.141C869.345 321.881 860.671 321.438 856.714 321.862ZM814.732 333.546C820.724 334.358 836.703 334.875 833.615 325.277C832.154 320.736 828.473 325.997 827.012 326.421C822.111 327.861 812.68 324.723 814.732 333.546ZM1455.05 324.852C1447.98 331.645 1471.3 333.362 1471.99 327.104C1472.6 321.493 1456.9 323.062 1455.05 324.852ZM62.1583 324.76C60.4013 325.332 60.013 327.344 60.5863 329.024C61.437 331.516 80.9296 334.488 83.6852 333.159C85.6641 332.199 86.5148 329.855 84.7209 328.12C83.1304 326.606 64.7659 323.93 62.1768 324.76H62.1583ZM378.83 324.797C376.5 325.111 365.681 328.415 365.071 330.298C362.37 338.622 381.234 332.457 382.603 329.652C384.378 326.034 382.547 324.299 378.812 324.797H378.83ZM1418.41 324.668C1417.47 323.985 1403.84 326.957 1402.84 328.599C1397.96 336.629 1417.75 333.694 1419.1 328.655C1419.34 327.732 1418.87 324.982 1418.41 324.668ZM1444.45 325.849C1441.82 323.56 1426.55 323.634 1428.66 330.039C1429.4 332.291 1445.43 332.771 1445.78 330.999C1445.99 329.947 1445.26 326.551 1444.43 325.849H1444.45ZM1148.97 325.757C1146.53 326.551 1146.51 330.648 1149.01 331.46C1152.43 332.586 1171.48 334.875 1166.04 327.529C1164.79 325.831 1151.36 324.982 1148.97 325.738V325.757ZM1502.08 332.549C1507.61 324.539 1477.96 322.859 1484.95 331.22C1486.36 332.9 1501.01 334.1 1502.08 332.549ZM630.366 332.402C631.846 333.805 643.423 335.115 645.735 334.654C648.971 334.026 649.507 330.353 646.53 328.821C643.774 327.4 631.272 325.055 629.534 328.636C628.979 329.744 629.552 331.663 630.348 332.402H630.366ZM689.732 335.54C691.618 336.721 705.914 334.912 707.264 332.679C708.891 329.984 707.578 327.529 704.268 327.566C702.4 327.584 692.043 328.784 690.841 329.282C688.474 330.279 688.474 334.746 689.75 335.54H689.732ZM679.412 329.725C678.358 328.175 660.992 326.569 663.452 334.063C664.229 336.407 674.548 336.13 676.786 335.484C678.876 334.875 680.503 331.331 679.412 329.744V329.725ZM734.82 335.54C739.554 328.009 719.174 327.344 716.751 329.061C715.679 329.818 715.29 333.842 715.919 334.561C716.585 335.355 733.673 337.367 734.82 335.521V335.54ZM782.497 335.54C783.921 337.902 800.51 336.223 802.027 333.694C807.316 324.871 782.645 329.928 782.312 331.331C782.109 332.162 782.127 334.931 782.497 335.54ZM1367.09 328.636C1363.3 328.175 1342.85 328.267 1344.92 335.152C1345.69 337.736 1361.45 335.817 1363.89 335.023C1367.7 333.805 1367.26 332.476 1367.09 328.636ZM1374.38 329.855C1373.69 330.353 1372.97 333.085 1373.23 334.008C1374.43 338.235 1391.32 335.226 1391.32 331.147C1391.32 327.067 1376.23 328.507 1374.38 329.855ZM1511.92 328.784C1508.9 329.762 1510.03 334.598 1512.97 335.484C1515.23 336.149 1526.53 336.426 1527.3 334.081C1529.41 327.658 1515.52 327.621 1511.92 328.802V328.784ZM768.738 329.633C765.964 328.802 753.665 329.633 749.578 329.633C749.227 329.633 747.988 330.741 747.155 330.741C743.845 339.324 765.501 337.349 768.553 335.503C771.05 333.989 770.809 330.261 768.738 329.633ZM1177.2 329.799C1174.18 330.796 1175.33 335.65 1178.25 336.481C1181.34 337.367 1192.67 338.216 1195.45 336.943C1198.22 335.669 1198.81 331.7 1196.04 330.796C1194.91 330.427 1178.29 329.43 1177.2 329.799ZM1535.59 336.555C1535.94 337.127 1547.35 338.678 1548.98 338.622C1554.38 338.456 1557.01 333.048 1552.96 331.793C1551.33 331.294 1539.66 330.316 1537.97 330.63C1535.24 331.165 1534.5 334.746 1535.59 336.536V336.555ZM101.458 331.719C99.0167 332.402 99.0352 336.998 101.495 338.53C106.322 341.539 120.414 339.397 114.958 334.155C113.923 333.159 102.42 331.46 101.458 331.737V331.719ZM1331.6 331.885C1327.99 331.959 1315.09 334.1 1319.14 339.767C1320.47 341.612 1333.75 339.028 1335.41 337.755C1339.05 334.967 1335.67 331.793 1331.6 331.885ZM343.525 332.882C340.714 333.306 332.059 335.614 334.167 339.711C336.275 343.809 348.962 339.342 349.702 337.035C351.219 332.346 347.039 332.365 343.507 332.882H343.525ZM1290.6 341.576C1291.82 343.532 1308.02 340.579 1309.13 338.714C1313.96 330.685 1295.43 334.635 1292.15 335.853C1290.27 336.555 1289.69 340.136 1290.58 341.576H1290.6ZM1562.31 333.805C1559.28 334.82 1560.33 339.361 1563.4 340.468C1566.86 341.723 1584.23 343.957 1579.35 336.629C1578.29 335.041 1564.48 333.085 1562.31 333.805ZM1222.69 335.872C1220.97 334.635 1207.34 334.008 1205.73 335.115C1204.12 336.223 1204.2 339.785 1206.47 340.523C1209 341.354 1219.9 342.332 1222.25 341.76C1223.86 341.372 1223.97 336.813 1222.69 335.872ZM147.045 342.591C147.563 342.258 148.229 339.674 147.767 338.714C145.751 334.617 127.682 333.011 131.566 340.726C132.768 343.126 145.326 343.68 147.064 342.591H147.045ZM1236.67 335.835C1233.56 336.85 1234.58 341.169 1237.98 342.277C1241.39 343.384 1257.14 344.289 1252.71 337.644C1251.24 335.466 1239.15 335.041 1236.67 335.835ZM1265.24 342.72C1265.82 343.311 1279.5 343.477 1280.89 340.726C1284.77 333.011 1266.69 334.728 1265.41 338.364C1265.13 339.176 1265.04 342.535 1265.24 342.72ZM1711.61 335.927C1710.49 336.093 1703.53 338.216 1703.24 338.622C1697.82 346.19 1718.4 344.547 1718.99 339.176C1719.47 334.672 1714.85 335.447 1711.61 335.909V335.927ZM164.837 344.732C168.757 345.821 176.969 343.938 181.463 344.732C181.241 343.255 182.165 340.468 180.889 339.582C178.578 337.995 162.211 336.204 161.304 339.231C160.62 340.819 163.893 344.473 164.818 344.732H164.837ZM301.433 346.744C305.354 346.707 317.227 347.242 319.686 344.326C321.739 341.889 320.944 338.53 317.208 338.733C314.841 338.862 304.651 340.08 303.153 340.893C300.656 342.24 301.47 344.215 301.433 346.744ZM1587.52 338.844C1584.97 339.674 1585.15 343.163 1587.54 344.566C1589.57 345.747 1603.92 349.18 1604.94 346.116C1606.96 339.988 1591.27 337.607 1587.52 338.844ZM199.106 346.744C201.677 347.537 213.402 346.744 217.248 346.744C218.636 346.744 220.078 341.815 217.101 340.856C214.493 340.025 207.558 340.8 204.155 340.708C201.658 340.634 198.218 337.939 197.552 342.24C197.331 343.698 197.663 346.301 199.106 346.744ZM1691.51 341.003C1688.63 341.28 1677.27 342.369 1678.68 347.131C1680.08 351.894 1696.82 347.667 1697.63 345.101C1699.22 340.099 1694.79 340.708 1691.51 341.003ZM266.664 341.723C263.206 344.566 265.666 348.497 269.753 348.719C270.973 348.793 282.68 347.537 283.309 347.242C286.12 345.895 285.51 341.705 283.827 341.705H266.683L266.664 341.723ZM238.664 342.941C235.742 343.606 233.542 345.599 235.835 348.35C238.128 351.1 254.273 351.229 251.98 344.344C251.166 341.926 241.217 342.369 238.664 342.96V342.941ZM1610.16 343.827C1609.4 344.713 1609.81 349.033 1611.69 349.642C1612.38 349.863 1622.83 350.915 1623.58 350.805C1627.84 350.14 1628.41 345.119 1624.43 343.957C1622.23 343.311 1611.43 342.295 1610.14 343.846L1610.16 343.827ZM1665.23 344.972C1660.44 345.839 1656.58 351.211 1661.13 352.669C1663.25 353.352 1678.33 351.857 1675.51 346.338C1674.68 343.846 1667.62 344.529 1665.25 344.953L1665.23 344.972ZM1636.77 345.747C1634.68 346.965 1632.89 350.749 1635.22 352.337C1635.73 352.687 1646.39 353.813 1647.87 353.795C1656.85 353.758 1654.91 345.729 1652.9 345.729H1636.77V345.747Z" fill="#D0332E"/>
<path d="M62.1581 324.76C64.7473 323.911 83.1302 326.588 84.7022 328.12C86.5146 329.855 85.6639 332.199 83.6666 333.159C80.911 334.488 61.4184 331.534 60.5676 329.024C59.9943 327.344 60.3827 325.332 62.1396 324.76H62.1581Z" fill="#F3C054"/>
<path d="M768.738 329.633C770.827 330.261 771.049 333.989 768.553 335.503C765.501 337.349 743.845 339.342 747.155 330.741C747.987 330.741 749.208 329.633 749.578 329.633C753.665 329.633 765.964 328.802 768.738 329.633Z" fill="#F3C054"/>
<path d="M523.896 314.682C525.69 314.091 541.614 315.143 543.703 315.734C547.624 316.86 547.236 321.807 542.779 322.287C541.466 322.434 525.857 321.641 524.969 321.364C522.01 320.496 520.9 315.66 523.915 314.682H523.896Z" fill="#F3C054"/>
<path d="M475.35 309.495C477.458 310.141 477.551 313.851 475.257 315.457C472.964 317.063 456.079 316.989 454.785 315.457C454.008 314.516 454.859 309.514 456.19 309.514C460.277 309.514 472.594 308.683 475.35 309.514V309.495Z" fill="#F3C054"/>
<path d="M1177.19 329.799C1178.29 329.43 1194.91 330.427 1196.04 330.796C1198.81 331.7 1198.32 335.614 1195.45 336.942C1192.58 338.271 1181.34 337.367 1178.25 336.481C1175.33 335.65 1174.16 330.777 1177.19 329.799Z" fill="#F3C054"/>
<path d="M1367.09 328.636C1367.28 332.476 1367.7 333.805 1363.89 335.023C1361.43 335.817 1345.69 337.755 1344.92 335.152C1342.85 328.267 1363.3 328.175 1367.09 328.636Z" fill="#F3C054"/>
<path d="M1636.77 345.747H1652.9C1654.91 345.747 1656.85 353.758 1647.87 353.813C1646.39 353.813 1635.73 352.706 1635.22 352.355C1632.89 350.768 1634.7 346.984 1636.77 345.766V345.747Z" fill="#F3C054"/>
<path d="M814.732 333.546C812.679 324.723 822.13 327.861 827.012 326.421C828.455 325.997 832.153 320.736 833.614 325.277C836.703 334.894 820.724 334.358 814.732 333.546Z" fill="#F3C054"/>
<path d="M782.497 335.54C782.127 334.912 782.109 332.162 782.312 331.331C782.645 329.928 807.316 324.871 802.027 333.694C800.51 336.223 783.921 337.902 782.497 335.54Z" fill="#F3C054"/>
<path d="M734.82 335.54C733.673 337.367 716.585 335.374 715.919 334.58C715.309 333.842 715.697 329.836 716.751 329.079C719.174 327.363 739.554 328.027 734.82 335.558V335.54Z" fill="#F3C054"/>
<path d="M199.106 346.744C197.663 346.301 197.33 343.68 197.552 342.24C198.218 337.939 201.658 340.634 204.155 340.708C207.539 340.8 214.493 340.025 217.1 340.856C220.096 341.815 218.635 346.744 217.248 346.744C213.402 346.744 201.658 347.538 199.106 346.744Z" fill="#F3C054"/>
<path d="M445.482 318.447C444.909 319.333 431.02 321.991 428.986 321.622C426.378 321.124 425.731 318.558 426.378 316.159C426.6 315.328 441.913 312.338 443.059 312.504C445.815 312.91 446.536 316.823 445.482 318.466V318.447Z" fill="#F3C054"/>
<path d="M164.837 344.732C163.912 344.473 160.638 340.819 161.323 339.231C162.21 336.204 178.596 338.013 180.908 339.582C182.202 340.468 181.259 343.255 181.481 344.732C176.987 343.938 168.757 345.821 164.855 344.732H164.837Z" fill="#F3C054"/>
<path d="M1587.52 338.844C1591.27 337.607 1606.96 339.988 1604.94 346.116C1603.92 349.18 1589.57 345.747 1587.54 344.566C1585.15 343.163 1584.97 339.693 1587.52 338.844Z" fill="#F3C054"/>
<path d="M1562.31 333.805C1564.48 333.085 1578.29 335.023 1579.35 336.629C1584.23 343.957 1566.86 341.723 1563.4 340.468C1560.33 339.361 1559.28 334.82 1562.31 333.805Z" fill="#F3C054"/>
<path d="M1290.6 341.576C1289.69 340.136 1290.27 336.573 1292.17 335.854C1295.43 334.635 1313.98 330.667 1309.15 338.714C1308.04 340.579 1291.84 343.532 1290.62 341.576H1290.6Z" fill="#F3C054"/>
<path d="M14.8876 321.788C17.6987 321.401 23.2284 322.268 22.1188 326.015C21.564 327.861 5.32628 333.306 3.45839 330.722C0.110983 326.015 11.4848 322.268 14.8876 321.788Z" fill="#F3C054"/>
<path d="M1535.59 336.555C1534.48 334.764 1535.24 331.184 1537.97 330.648C1539.66 330.316 1551.33 331.313 1552.95 331.811C1557 333.048 1554.38 338.456 1548.98 338.641C1547.35 338.696 1535.94 337.146 1535.59 336.573V336.555Z" fill="#F3C054"/>
<path d="M301.433 346.744C301.47 344.215 300.656 342.24 303.153 340.893C304.669 340.08 314.841 338.862 317.208 338.733C320.944 338.53 321.739 341.889 319.686 344.326C317.227 347.242 305.353 346.688 301.433 346.744Z" fill="#F3C054"/>
<path d="M29.3684 322.711C30.626 320.736 49.1014 317.783 48.4541 325.074C48.0473 329.688 42.4991 326.606 39.9099 326.68C37.1358 326.772 30.6629 330.741 29.3869 326.938C29.0725 325.997 28.906 323.431 29.3869 322.693L29.3684 322.711Z" fill="#F3C054"/>
<path d="M1691.51 341.003C1694.79 340.708 1699.24 340.099 1697.63 345.101C1696.82 347.667 1680.06 351.82 1678.68 347.131C1677.29 342.443 1688.63 341.28 1691.51 341.003Z" fill="#F3C054"/>
<path d="M560.256 317.764C562.974 316.952 574.681 317.008 576.197 319.555C580.414 326.569 564.565 325.148 560.718 323.948C556.261 322.545 556.631 318.854 560.256 317.783V317.764Z" fill="#F3C054"/>
<path d="M856.713 321.862C860.671 321.438 869.345 321.881 864.019 327.141C862.742 328.396 848.447 331.368 847.3 329.688C843.324 323.837 852.848 322.268 856.713 321.862Z" fill="#F3C054"/>
<path d="M689.732 335.54C688.474 334.746 688.456 330.279 690.823 329.282C692.025 328.784 702.381 327.584 704.249 327.566C707.56 327.529 708.891 329.965 707.245 332.679C705.895 334.931 691.599 336.721 689.713 335.54H689.732Z" fill="#F3C054"/>
<path d="M1105.83 316.675C1107.62 319.518 1105.66 322.361 1102.48 322.397C1099.59 322.434 1087.06 321.179 1086.74 318.041C1086.08 311.193 1105.25 315.753 1105.83 316.675Z" fill="#F3C054"/>
<path d="M1137.21 322.601C1138.43 324.354 1135.86 327.178 1133.66 327.584C1131.46 327.99 1118.33 326.163 1118.01 325C1115.28 314.977 1136.55 321.622 1137.21 322.601Z" fill="#F3C054"/>
<path d="M630.366 332.402C629.571 331.663 628.997 329.744 629.552 328.636C631.272 325.055 643.793 327.418 646.548 328.821C649.526 330.353 648.971 334.026 645.753 334.654C643.423 335.097 631.864 333.805 630.384 332.402H630.366Z" fill="#F3C054"/>
<path d="M266.664 341.723H283.808C285.51 341.723 286.12 345.895 283.29 347.261C282.68 347.556 270.955 348.793 269.734 348.737C265.666 348.516 263.206 344.584 266.646 341.742L266.664 341.723Z" fill="#F3C054"/>
<path d="M378.83 324.797C382.547 324.299 384.378 326.034 382.621 329.652C381.253 332.457 362.389 338.604 365.089 330.298C365.699 328.415 376.5 325.111 378.848 324.797H378.83Z" fill="#F3C054"/>
<path d="M490.478 312.522H506.605C508.768 312.522 510.155 319.444 501.556 319.666C497.025 319.776 484.245 318.854 490.459 312.522H490.478Z" fill="#F3C054"/>
<path d="M928.34 315.789C931.965 315.476 933.981 316.86 932.076 320.607C930.708 323.302 916.597 326.126 914.84 323.671C910.864 318.134 924.882 316.085 928.34 315.789Z" fill="#F3C054"/>
<path d="M1148.97 325.757C1151.34 324.982 1164.79 325.849 1166.04 327.547C1171.48 334.875 1152.43 332.586 1149.01 331.479C1146.51 330.667 1146.55 326.551 1148.97 325.775V325.757Z" fill="#F3C054"/>
<path d="M1061.35 310.677C1064.31 310.123 1076.77 311.323 1075.61 315.863C1074.33 320.847 1058.32 317.894 1057.65 315.937C1056.73 313.205 1058.7 311.175 1061.37 310.677H1061.35Z" fill="#F3C054"/>
<path d="M1236.67 335.835C1239.13 335.041 1251.24 335.466 1252.71 337.644C1257.16 344.289 1241.55 343.421 1237.98 342.277C1234.42 341.132 1233.56 336.85 1236.67 335.835Z" fill="#F3C054"/>
<path d="M1222.69 335.872C1223.97 336.795 1223.86 341.354 1222.25 341.76C1219.88 342.332 1208.99 341.354 1206.47 340.523C1204.21 339.785 1204.07 336.26 1205.73 335.115C1207.4 333.971 1220.99 334.635 1222.69 335.872Z" fill="#F3C054"/>
<path d="M1331.6 331.885C1335.67 331.793 1339.04 334.986 1335.41 337.755C1333.75 339.028 1320.47 341.612 1319.14 339.767C1315.09 334.1 1328.01 331.959 1331.6 331.885Z" fill="#F3C054"/>
<path d="M1502.08 332.549C1501.01 334.1 1486.34 332.9 1484.95 331.22C1477.96 322.859 1507.61 324.539 1502.08 332.549Z" fill="#F3C054"/>
<path d="M1455.05 324.852C1456.9 323.08 1472.6 321.511 1471.99 327.104C1471.3 333.343 1447.98 331.645 1455.05 324.852Z" fill="#F3C054"/>
<path d="M595.32 326.606C593.748 326.163 592.342 322.877 592.731 321.179C593.138 319.315 610.078 320.386 611.003 321.013C612.982 322.379 611.761 326.606 610.448 326.606C606.934 326.606 597.854 327.307 595.32 326.606Z" fill="#F3C054"/>
<path d="M897.271 319.573C897.197 320.976 897.548 322.637 897.123 323.966C896.327 326.384 881.236 329.098 880.201 325.997C877.741 318.558 893.22 319.278 897.271 319.573Z" fill="#F3C054"/>
<path d="M1511.92 328.784C1515.52 327.603 1529.43 327.64 1527.3 334.063C1526.53 336.407 1515.21 336.13 1512.97 335.466C1510.01 334.598 1508.9 329.762 1511.92 328.766V328.784Z" fill="#F3C054"/>
<path d="M1007.98 312.818C1010.82 312.485 1019.42 310.99 1018.13 315.882C1017.13 319.666 1001.59 322.01 1000.23 317.894C998.636 313.058 1004.37 313.224 1007.98 312.818Z" fill="#F3C054"/>
<path d="M1048.5 312.522C1049 313.039 1048.46 318.558 1046.98 318.558H1030.85C1028.19 318.558 1029.87 312.522 1031.87 312.522C1034.24 312.522 1047.92 311.932 1048.5 312.522Z" fill="#F3C054"/>
<path d="M1444.45 325.849C1445.26 326.569 1446 329.947 1445.8 330.999C1445.45 332.752 1429.42 332.291 1428.68 330.039C1426.57 323.634 1441.84 323.56 1444.47 325.849H1444.45Z" fill="#F3C054"/>
<path d="M1418.41 324.668C1418.86 325 1419.34 327.732 1419.1 328.655C1417.75 333.675 1397.96 336.629 1402.84 328.599C1403.84 326.938 1417.47 323.985 1418.41 324.668Z" fill="#F3C054"/>
<path d="M1610.16 343.827C1611.45 342.295 1622.25 343.292 1624.45 343.938C1628.43 345.101 1627.86 350.122 1623.6 350.786C1622.84 350.897 1612.39 349.845 1611.71 349.623C1609.82 349.033 1609.42 344.713 1610.18 343.809L1610.16 343.827Z" fill="#F3C054"/>
<path d="M1374.38 329.855C1376.23 328.507 1391.34 326.938 1391.32 331.147C1391.3 335.355 1374.43 338.235 1373.23 334.008C1372.97 333.103 1373.69 330.353 1374.38 329.855Z" fill="#F3C054"/>
<path d="M406.035 318.798C409.696 318.171 417.038 317.358 415.245 322.933C414.264 325.978 395.012 329.578 398.711 322.564C399.617 320.829 404.093 319.13 406.035 318.798Z" fill="#F3C054"/>
<path d="M238.664 342.941C241.198 342.369 251.166 341.908 251.98 344.326C254.292 351.229 238.128 351.063 235.835 348.331C233.542 345.599 235.742 343.606 238.664 342.923V342.941Z" fill="#F3C054"/>
<path d="M147.045 342.591C145.325 343.68 132.768 343.126 131.547 340.726C127.664 333.011 145.751 334.617 147.748 338.714C148.21 339.674 147.545 342.258 147.027 342.591H147.045Z" fill="#F3C054"/>
<path d="M1265.24 342.72C1265.06 342.535 1265.13 339.176 1265.41 338.364C1266.67 334.728 1284.76 333.011 1280.89 340.726C1279.5 343.495 1265.8 343.311 1265.24 342.72Z" fill="#F3C054"/>
<path d="M1665.23 344.972C1667.62 344.547 1674.66 343.846 1675.5 346.356C1678.31 351.875 1663.23 353.37 1661.11 352.687C1656.56 351.211 1660.42 345.839 1665.21 344.99L1665.23 344.972Z" fill="#F3C054"/>
<path d="M101.458 331.719C102.419 331.442 113.904 333.14 114.958 334.137C120.433 339.379 106.34 341.52 101.495 338.511C99.0351 336.979 99.0166 332.402 101.458 331.7V331.719Z" fill="#F3C054"/>
<path d="M963.664 316.694C964.163 317.506 964.2 320.976 963.22 321.696C962.499 322.213 952.771 323.413 951.162 323.413C947.667 323.413 946.723 321.456 947.815 318.207C948.554 316.011 962.425 314.719 963.645 316.694H963.664Z" fill="#F3C054"/>
<path d="M679.412 329.725C680.485 331.331 678.876 334.857 676.786 335.466C674.548 336.112 664.228 336.389 663.452 334.045C660.992 326.551 678.358 328.156 679.412 329.707V329.725Z" fill="#F3C054"/>
<path d="M343.525 332.882C347.039 332.365 351.237 332.346 349.72 337.035C348.981 339.342 336.312 343.827 334.186 339.711C332.059 335.595 340.732 333.306 343.543 332.882H343.525Z" fill="#F3C054"/>
<path d="M1711.61 335.927C1714.85 335.466 1719.47 334.691 1718.99 339.194C1718.42 344.566 1697.82 346.19 1703.24 338.641C1703.53 338.235 1710.49 336.093 1711.61 335.946V335.927Z" fill="#F3C054"/>
<path d="M983.748 313.759C987.188 313.353 990.147 313.538 988.871 317.875C988.039 320.681 976.277 324.262 974.353 320.57C972.042 316.14 980.493 314.147 983.748 313.759Z" fill="#F3C054"/>
</g>
<defs>
<clipPath id="clip0_554_2832">
<rect width="1728" height="419" fill="white" transform="translate(0 -60)"/>
</clipPath>
</defs>
</svg>
