<svg width="1728" height="137" viewBox="0 0 1728 137" fill="none" xmlns="http://www.w3.org/2000/svg">
<g clip-path="url(#clip0_720_12024)">
<path d="M6.93637 -0.539792L20.0057 2.53472C71.3656 9.30021 153.469 11.4539 206.283 7.84099C209.632 7.61469 232.439 5.31271 233.321 4.8289C233.826 4.55578 233.756 2.0119 233.427 1.84803C227.122 -1.29672 143.741 4.54798 128.863 4.91474C91.2748 5.82773 49.5204 4.73526 13.8552 -0.539792H1094.9L1089.05 0.295164L687.57 0.232738C684.699 1.23937 692.382 1.45786 693.308 1.5437C763.879 7.79417 844.1 5.79651 915.865 4.1266C947.403 3.39309 979.495 0.833594 1011.09 0.981858C1096.7 1.39543 1232.96 21.3408 1309.14 2.07432C1311.83 1.39543 1314.92 1.44225 1314.57 -0.547596H1413.17L1281.73 16.2296C1225.48 21.6997 1120.21 27.7083 1068.51 15.8004C1066.51 15.34 1068.36 13.6623 1063.79 14.2787C1062.85 16.1047 1068.49 16.768 1071.27 17.5171C1121.42 31.0325 1220.63 27.4742 1276.89 22.6205C1331.46 17.9151 1395.03 9.42506 1447.83 1.39543C1450.62 0.974054 1453.95 1.53589 1452.96 -0.547596H1544.63C1450.21 18.8437 1346.85 39.8503 1240.21 29.8776C1240.81 31.3758 1243.82 31.1651 1246.18 31.4695C1278.27 35.6287 1320.4 34.9732 1353.26 32.8819C1409.17 29.3236 1459.04 18.672 1511.77 11.1574C1510.27 12.3045 1509.48 13.6623 1510.19 14.9888C1513.76 17.3845 1587.19 14.8328 1598.9 14.1773C1634.8 12.1874 1671.27 8.27797 1704.22 1.57491C1706.79 1.05209 1709.88 1.47347 1708.95 -0.539792H1727.98V8.03607C1717.43 9.09732 1705.4 9.78402 1695.46 11.7036C1693.11 12.1562 1689.69 12.3045 1689.91 13.8808L1727.98 11.9377V22.8546C1689.43 21.9728 1651.24 24.8366 1612.94 25.9681C1604.35 26.2178 1595.61 25.8199 1586.99 25.9759C1584.66 26.0149 1579.8 25.3283 1580.95 27.1386L1727.98 26.7563V35.3321C1670.99 33.0301 1610.87 35.7301 1554.95 41.1534C1505.61 45.9369 1449.92 60.8802 1403.65 45.4843L1410.56 49.3469C1427.22 55.1448 1447.13 56.2919 1467.73 55.6364C1476.64 55.3555 1485.33 54.0055 1494.09 53.4749C1495.97 53.3578 1500.05 52.6165 1499.65 54.0367C1481.24 56.9396 1463.51 60.2794 1444.33 62.2458C1345.67 72.3589 1236.77 56.3075 1138.52 49.5966C1009.1 40.7554 843.472 39.4133 713.77 47.1386C618.874 52.796 538.671 71.8907 442.036 69.6122C431.89 69.3703 426.868 70.3145 438.875 72.593C490.279 82.355 594.136 65.2735 648.639 59.8814C745.392 50.3145 843.204 49.6903 941.771 50.1741C1001.02 50.4706 1062.92 50.3067 1121.72 53.2642C1225.57 58.4846 1422.92 88.5977 1510.59 54.0913C1512.7 53.2642 1511.29 51.6567 1514.65 51.048C1527.78 48.6602 1563.28 46.1163 1578.84 44.8912C1627.43 41.0832 1679.31 37.9384 1727.98 42.3395V61.0597C1720.72 60.4901 1711.87 59.7332 1704.61 59.5069C1598.78 56.1826 1497.75 71.4616 1393.27 75.0901C1368.67 75.9485 1343.58 75.9329 1318.9 76.6586C1316.68 76.721 1311.56 76.0187 1312.85 77.8213C1313.59 78.8513 1342.14 81.1611 1346.62 81.325C1381.18 82.5735 1429.12 78.9996 1463.97 76.5493C1551.24 70.4315 1638.68 58.4768 1727.99 64.181V72.7569C1689.76 72.3043 1651.44 69.1908 1612.98 70.4237C1571.86 71.7503 1531.26 79.9204 1491 82.8934C1491.22 83.5255 1490.68 85.0628 1491.02 85.2266C1491.83 85.6012 1511.2 84.5087 1514.15 84.3527C1553.36 82.277 1594.6 75.1369 1633.64 74.2786C1664.67 73.5997 1696.86 78.0398 1727.98 77.4311V87.5676C1683.91 91.2196 1641.27 97.6573 1596.86 100.584C1532 104.86 1451.84 106.623 1389.79 96.1591C1382.76 94.973 1375.37 92.0936 1368.19 92.6398C1369.89 94.6609 1376.51 96.1513 1380.45 97.2516C1424.22 109.417 1501.88 111.711 1552.19 109.3C1612.65 106.405 1668.18 93.9976 1727.98 89.9008V100.037C1705.11 101.934 1679.86 102.019 1657.34 104.454C1629.75 107.435 1606.46 116.534 1577.49 117.595C1576.19 119.397 1583.14 118.828 1585.35 118.789C1610.02 118.352 1632.55 110.876 1656.67 108.832C1678.99 106.936 1705.07 107.809 1727.97 107.06V119.538C1676.33 115.745 1633.32 132.647 1586.13 138.656C1585.41 140.576 1589.29 139.811 1591.76 139.624C1637.02 136.229 1680.27 120.295 1727.98 124.22V142.16C1708.74 142.456 1689.25 141.754 1670.02 142.16C1667.97 142.207 1662.44 141.59 1663.97 143.322L1727.98 146.061V155.418C1717.99 155.784 1705.53 155.878 1695.96 156.963C1693.25 157.267 1689.9 156.978 1689.91 158.913L1727.98 159.311V167.887C1645.88 184.93 1562.88 162.893 1484.09 152.679C1414.84 143.705 1341.95 137.735 1269.6 139.421C1343.8 141.372 1414.9 149.159 1485.42 159.101C1544.81 167.474 1624.98 185.039 1686.86 179.366C1701.81 177.993 1714.43 174.598 1727.99 171.781V185.819C1664.26 189.105 1615.63 213.849 1549.82 213.115C1548.15 217.758 1551.75 217.228 1559.84 218.359C1591.42 222.784 1627.67 223.463 1660.52 224.032C1661.36 221.785 1659.43 222.745 1656.52 222.37C1636.84 219.834 1614.86 219.257 1594.76 217.423L1579.25 215.464C1630.98 211.352 1674.63 194.653 1727.99 193.623V206.1C1658.02 201.434 1656.93 233.513 1727.99 230.275V241.192C1634.97 226.436 1532.03 212.772 1433.93 225.991C1433.31 228.098 1436.83 226.849 1439.14 226.771C1478.97 225.413 1513.99 224.945 1553.91 227.263C1613.1 230.689 1670.09 239.101 1727.99 245.086V252.101C1707.08 250.056 1686.02 248.16 1665.34 245.64C1633.96 241.816 1601.92 234.668 1568.85 236.12L1622.47 241.574C1657.67 246.576 1691.79 253.271 1727.98 256.783V269.26C1640.87 254.996 1548.53 237.423 1454.68 250.158C1454.05 252.249 1457.55 251.04 1459.9 250.946C1489.09 249.775 1510.14 248.41 1540.09 249.861C1606.96 253.1 1666.02 265.913 1727.98 276.276V283.291C1665.1 283.275 1610.3 267.38 1549.84 261.839C1454.04 253.061 1382.66 265.398 1290.74 271.367C1256.28 273.607 1220.5 274.2 1185.8 274.746C1180.95 274.824 1138.14 274.208 1138.14 275.885C1164.82 277.142 1191.83 279.311 1218.61 280.169C1328.25 283.681 1429.85 262.44 1540.09 267.801C1604.2 270.915 1662.51 286.763 1727.98 285.64V291.882C1708.82 292.795 1689.2 292.116 1670.06 292.67C1626.18 293.95 1582.49 297.665 1538.56 298.897C1500.62 299.959 1470.58 298.32 1432.62 303.384C1423.66 304.578 1411.73 306.459 1404.53 309.042C1421.9 307.473 1439.52 305.632 1457.3 305.156C1488.49 304.321 1520.02 306.521 1550.76 305.959C1586.53 305.304 1622.34 301.964 1657.94 300.474C1681.19 299.498 1704.66 298.874 1727.98 298.913V309.83C1720.81 309.939 1713.53 309.666 1706.35 309.83C1704.28 309.877 1698.81 309.245 1700.3 310.993C1700.89 311.687 1724.02 313.739 1727.98 313.732V335.565C1691.87 332.452 1656.19 328.831 1619 330.111V332.444L1727.98 343.369V351.945C1710.18 350.282 1691.65 349.939 1673.41 350.345C1666.71 350.493 1652.24 352.311 1647.66 351.999C1645.74 351.866 1647.54 349.494 1643.89 348.917C1640.57 348.386 1613.22 348.613 1607.7 348.792C1456.43 353.747 1412.38 423.15 1299.06 452.171C1185.5 481.254 989.922 493.575 860.47 490.797C800.269 489.502 767.084 483.158 712.796 474.707C710.737 474.387 708.028 473.895 709.196 475.542C709.648 476.181 732.284 480.863 735.717 481.534C833.607 500.699 987.854 498.842 1091.79 490.508C1190.44 482.604 1281.05 467.91 1356.13 437.344C1422.73 410.228 1464.84 370.103 1556.76 357.789C1584.39 354.09 1609.3 353.349 1637.69 352.163C1639.6 352.085 1643.57 351.242 1643.23 352.709C1597.31 358.733 1544.91 366.81 1505.34 379.061C1498.47 381.191 1471.14 390.946 1468.55 393.669C1467.68 394.59 1469.06 395.214 1471.11 394.824C1473.44 394.371 1489.06 387.091 1493.66 385.491C1522.77 375.425 1568.56 365.71 1603.86 361.082C1644.11 355.815 1686.86 355.097 1727.99 358.952V383.127C1617.41 383.259 1507.7 400.2 1414.9 426.412C1435.93 424.032 1456.16 419.459 1476.75 416.08C1556.96 402.9 1641.41 391.063 1727.99 393.271V415.885C1661.91 418.671 1597.28 422.713 1533.9 431.71C1416.83 448.323 1311.57 478.671 1194.84 495.643C1097.5 509.798 1002.14 513.052 900.346 509.47C897.123 509.353 864.931 506.848 864.86 508.308C991.959 527.059 1129.37 514.285 1251.02 493.684C1373.46 472.943 1489.54 439.435 1618.7 427.84C1654.7 424.609 1691.46 422.9 1727.99 421.355V446.31L1586.14 443.587C1586.05 445.436 1589.5 445.233 1592.09 445.585C1634.15 451.242 1684.31 452.085 1727.99 453.333V457.235C1722.95 457.492 1718.29 456.548 1713.35 456.423C1601.38 453.645 1517.96 458.655 1412.76 475.37C1352.9 484.874 1284.72 496.907 1226.78 508.503C1224.68 508.924 1221.67 508.893 1221.19 510.266C1224.1 510.422 1226.76 510.095 1229.52 509.736C1332.32 496.423 1425.5 474.863 1533.9 466.825C1597.61 462.104 1663.81 462.697 1727.99 465.038V485.311C1694.94 483.36 1661.86 482.752 1628.55 482.182C1583.34 481.41 1464.49 480.013 1440.51 501.917C1437.17 504.976 1431.78 513.255 1439.12 515.721C1438.19 496.86 1481.98 493.645 1514.62 491.655C1584.82 487.379 1657.75 491.772 1727.99 493.887V499.349C1679.59 500.918 1631.31 504.788 1584.07 509.712C1546.85 513.591 1508.98 519.919 1470.91 521.862C1405.07 525.218 1325.65 517.57 1278.26 544.18C1279.69 545.342 1282.71 544.25 1284.37 543.813C1356.45 525.085 1411.46 533.224 1487.93 527.972C1521.85 525.639 1554.29 520.27 1587.53 516.727C1634.22 511.749 1681.34 507.488 1727.99 502.463V518.062C1671.68 519.849 1616.29 523.875 1561.58 529.985C1534.01 533.06 1505.35 536.103 1480.61 542.611C1454.1 549.595 1427.04 561.839 1447.45 576.314C1462.28 586.833 1482.8 576.54 1482.37 567.972C1473.72 566.778 1473.43 571.226 1468.52 572.256C1455.15 575.057 1448.89 565.779 1456.42 560.559C1472.43 549.455 1554.86 539.279 1584.07 536.228C1631.29 531.289 1679.76 527.98 1728 525.865V550.04C1709.31 548.791 1690.49 549.665 1671.71 549.291C1631.83 548.503 1591.28 544.804 1552.87 551.015C1538.84 553.286 1525.67 556.766 1511.48 558.865C1507.22 559.498 1498 558.772 1497.93 561.339C1519.4 565.202 1540.14 558.444 1560.23 555.892C1595.91 551.359 1623.13 555.627 1657.96 557.055C1681.15 558.007 1704.73 558.21 1728 558.624V568.76C1699.56 569.205 1671.56 572.584 1643.22 573.832C1671.24 574.261 1700.26 574.948 1728 573.442V582.798C1691.98 582.525 1655.84 583.149 1619.82 582.83C1562.68 582.315 1496.6 576.072 1447.6 593.239C1445.67 593.918 1442.29 594.23 1442.58 595.658L1473.74 590.211C1519.94 583.579 1569 587.753 1616.36 588.292C1653.72 588.713 1690.82 587.73 1728 587.48V597.617C1667.09 602.346 1605.69 595.221 1544.63 596.446L1661.33 603.11C1683.73 603.173 1706.24 603.376 1728 600.738V605.42C1636.26 610.297 1533.4 600.777 1447.17 618.787C1441.75 619.919 1434.24 621.23 1430.49 623.344C1494.65 614.667 1558.09 611.437 1625.16 611.616C1630.1 611.632 1634.36 612.459 1638.85 612.467C1668.58 612.513 1698.45 612.802 1728 611.655V634.269C1715.75 636.321 1705.61 640.324 1693.37 642.447C1641.57 651.405 1556.66 647.238 1500.53 648.307C1498.2 648.354 1493.33 647.66 1494.48 649.47C1571.37 651.788 1658.72 658.576 1728 639.731V660.005C1616.43 668.182 1520.92 697.164 1414.52 712.466C1375.73 718.046 1335.69 722.142 1295.91 726.052C1246.22 730.945 1185.07 737.671 1135.37 740.238C1071.49 743.531 1009.83 737.25 947.017 747.339C943.54 747.901 918.977 752.536 918.499 753.207C917.331 754.846 920.031 754.37 922.103 754.042C987.88 743.641 1018.06 747.168 1085.35 747.378C1161.47 747.62 1253.66 737.866 1328.13 729.657C1367.93 725.272 1407.82 720.043 1446.04 713.411C1539.83 697.125 1626.2 669.93 1728 663.898V680.278C1695.79 682.166 1664.15 685.802 1633.27 690.211C1623.09 691.663 1547.94 703.648 1546.37 705.638C1545 707.378 1549.95 706.856 1552.04 706.622C1563.38 705.357 1576.84 702.096 1588.29 700.348C1633.69 693.403 1680.36 687.847 1728 684.96V695.096L1677.83 699.396C1676.34 701.081 1681.8 700.636 1683.86 700.551C1698.6 699.911 1713.55 698.881 1728 697.437V702.119C1652.67 710.266 1575.47 714.035 1499.36 720.301C1483.2 721.627 1459.91 723.102 1444.97 725.412C1442.7 725.763 1439.68 725.63 1439.14 727.066C1536.43 723.329 1631.9 713.34 1728 706.021V730.976C1722.45 730.984 1664.01 732.256 1663.98 733.707C1685.11 735.283 1706.6 734.862 1728 734.877V754.378C1710.87 755.681 1694 757.889 1676.75 758.959C1654.54 760.332 1628.45 761.081 1606.13 761.432C1558.02 762.181 1508.9 759.559 1461.61 764.132C1461.63 764.897 1491.82 766.036 1495.29 766.114C1548.65 767.269 1621.92 765.989 1675.23 763.734C1692.93 762.985 1710.54 761.221 1728 759.84V777H1695.14C1693.34 775.697 1690.45 775.533 1687.39 775.424C1664.36 774.596 1639.52 775.026 1616.36 775.439C1613.02 775.502 1609.41 774.635 1610.38 777H1312.88L1450.23 759.146C1453.04 758.248 1451.19 754.979 1447.05 755.174L1292.12 777H1229.85C1356.59 755.845 1491.39 744.632 1626.88 743.5C1631.47 743.461 1635.72 742.634 1640.62 742.626C1658.43 742.618 1676.89 744.522 1693.39 747.363C1696.32 742.774 1687.01 742.47 1678.73 741.112C1623.95 732.131 1519.88 737.499 1461.05 741.253C1368.02 747.191 1272.57 758.475 1188.34 777H702.299C748.948 770.453 797.881 768.432 846.707 769.212C929.263 770.523 1036.29 781.401 1114.85 769.212C1116.89 768.9 1142.96 764.842 1138.17 762.962L1047.35 766.848C963.111 769.29 876.709 760.082 793.021 762.142C750.928 763.18 704.758 769.134 664.259 774.276C659.864 774.831 652.814 775.143 650.404 777H392.682L554.028 766.692L556.157 766.083C558.861 764.538 538.658 763.843 535.365 763.75C472.2 761.963 395.795 768.689 334.14 775.213C331.093 775.533 327.665 774.792 328.688 777H147.073L149.826 776.282C278.833 768.447 407.051 758.958 537.134 755.174C646.624 751.99 756.451 754.206 865.409 747.995C869.848 747.261 870.541 745.435 870.08 743.477L768.963 747.402C639.06 747.979 509.13 750.726 379.731 755.174C275.497 758.756 172.242 768.026 68.4418 770.796C45.6747 771.405 22.7057 770.476 0.0482912 772.326V746.59C58.5333 738.444 123.849 736.032 178.243 722.821C185.157 721.144 203.038 717.258 202.362 713.504C200.896 705.381 178.923 714.55 171.052 716.462C116.852 729.61 57.2602 735.283 0.0482912 745.03V711.499C7.6344 712.981 14.9878 715.283 22.8813 716.415C30.6078 717.515 52.0799 719.349 59.7406 719.31C67.7833 719.263 85.2954 715.822 75.387 711.452C66.1414 707.379 36.9428 710.313 23.3247 709.969C15.8527 709.782 7.58611 708.713 0.0439011 708.377V689.657C26.8543 694.48 55.9388 698.787 84.4043 701.144C187.8 709.704 305.732 701.417 401.304 682.236C405.146 681.464 412.697 680.176 415.664 679.349C422.847 677.343 418.926 675.908 411.266 676.587C392.665 678.233 368.796 682.954 349.44 685.365C234.752 699.63 114.678 707.09 0.0482912 688.096V679.521C21.6301 680.137 43.5806 683.321 64.9429 684.187C69.5393 684.374 75.8216 685.147 74.4343 682.252C73.6397 680.597 8.32365 677.328 0.0482912 677.18V663.141C21.2481 663.344 42.1275 665.514 63.2 666.255C157.192 669.564 296.53 673.013 379.376 651.296C387.467 649.173 397.841 646.63 403.03 643.251C367.606 652.716 328.819 658.92 287.794 661.471C251.558 663.727 216.955 663.048 180.785 662.369C120.46 661.237 60.0567 659.045 0.0526813 656.118V617.906C14.5664 616.22 29.5542 615.073 44.406 614.121C149.892 607.324 249.398 611.569 353.698 609.298C362.452 609.111 386.04 611.101 387.028 606.489C388.332 600.395 365.433 602.182 355.516 602.322C267.208 603.54 177.29 601.604 89.3475 606.31C59.306 607.917 29.7957 610.961 0.0482912 613.231V591.398C82.1916 583.852 160.41 570.165 241.838 561.206C313.489 553.325 389.39 545.171 461.541 538.608C516.417 533.614 575.776 531.421 629.401 525.389C635.859 524.664 639.424 524.063 634.898 520.77C608.522 521.878 581.356 524.016 554.954 526.138C453.112 534.332 346.639 544.773 245.644 555.128C161.912 563.711 83.2628 577.102 0.0482912 585.943V566.443C3.53843 566.645 6.76077 566.247 10.1192 565.927C149.479 552.42 286.613 532.443 426.951 520.676C492.478 515.182 559.265 512.014 625.411 508.776C632.272 508.44 634.182 506.591 626.996 505.592C593.604 506.037 561.157 509.946 528.24 511.757C503.08 513.138 477.525 513.052 452.37 514.199C397.112 516.727 344.325 522.767 290.612 528.612C193.297 539.201 97.2717 551.944 0.0439011 562.541V557.078C30.8537 555.869 59.0294 550.329 85.9627 543.953C89.7821 543.048 99.4184 539.576 101.583 539.295C107.198 538.569 118.112 540.395 112.659 534.816C107.206 529.236 103.795 537.352 102.702 537.625C100.555 538.163 92.7674 538.514 89.0622 539.115C59.486 543.914 30.8625 550.079 0.0439011 553.177V537.578C11.6689 537.562 94.8922 535.51 96.9205 533.286C98.0663 532.03 97.7853 531.413 94.361 531.335C62.2693 530.586 31.6834 532.873 0.039511 534.464V514.964C7.09881 514.269 14.3074 513.544 21.5774 513.364C66.8702 512.264 110.31 516.603 156.556 514.956C216.972 512.802 279.589 506.06 340.163 502.596C440.969 496.837 562.263 493.825 662.893 500.356C735.242 505.054 799.334 524.57 873.544 521.589C873.636 520.083 855.391 520.52 852.125 520.317C804.014 517.383 764.41 507.153 719.517 500.559C615.476 485.272 440.368 490.134 331.559 497.149C276.717 500.684 219.975 507.278 165.204 509.494C110.214 511.71 53.972 507.637 0.0351209 513.403V507.941C10.1543 507.676 21.6608 506.076 31.1391 504.422C38.4266 503.142 49.7487 501.378 53.6691 498.202C53.7613 496.025 4.16182 501.729 0.0307308 503.267V475.19L111.311 472.888C114.283 472.561 114.323 468.472 111.311 468.136C74.0173 467.668 36.9516 469.275 0.0307308 471.289V452.568C61.9927 453.981 124.28 455.799 185.724 459.701C212.78 461.417 239.946 465.023 267.283 465.819C269.228 465.873 283.658 466.599 281.981 464.664C281.367 463.961 256.207 462.674 251.149 462.174C234.195 460.497 217.89 457.672 201.032 455.916C135.681 449.112 66.9667 447.957 0.0307308 447.106V430.727C56.5666 431.882 113.765 432.639 169.902 428.94C252.379 423.509 317.282 412.857 403.346 417.727C405.778 417.867 408.877 419.162 408.25 417.087C319.732 405.07 230.643 421.644 142.714 426.037C95.3883 428.402 47.602 427.395 0.0351209 427.606V418.249C36.754 418.725 74.0436 415.3 109.38 411.008C142.701 406.958 186.667 400.551 218.43 394.668C223.619 393.708 233.075 392.21 235.288 389.791C234.296 388.761 230.779 389.884 229.181 390.157C155.125 402.9 79.5488 410.602 0.0351209 412.787V376.135C32.1488 376.346 63.8234 373.607 95.1864 371.055C95.1995 369.112 91.8279 369.416 89.1412 369.104C81.937 368.261 67.5331 367.762 59.6923 367.567C40.3583 367.083 19.1716 367.419 0.0351209 368.339V345.725C22.6881 344.344 45.5957 345.218 68.4286 344.976C125.706 344.367 180.477 344.087 237.852 346.513C264.469 347.637 292.869 350.423 319.179 351.18C331.844 351.539 332.551 350.033 320.961 348.035C263.429 338.133 151.691 339.748 89.0402 341.02L0.0175604 344.165V325.444C16.9458 326.607 33.9575 325.975 51.0263 326.233C139.641 327.559 228.624 328.129 317.484 327.036C669.676 322.713 1018.38 294.145 1370.72 291.094C1447.47 290.431 1529.11 293.771 1604.37 291.945C1611.53 291.773 1619.62 292.077 1617.28 288.012C1577.2 287.754 1537.08 287.606 1496.98 287.263C1425.99 286.654 1355.4 286.342 1284.38 287.263C1102.98 289.604 923.526 300.895 742.899 307.497C567.935 313.895 390.729 318.086 215.431 319.233C143.601 319.701 71.6027 319.077 0.0131703 318.421V305.164L75.1806 307.536C145.708 306.99 217.973 308.995 287.754 304.274C291.565 304.016 314.235 302.339 314.824 301.644C316.426 299.756 303.703 300.404 301.767 300.45C258.547 301.496 215.554 303.892 172.031 303.642C145.128 303.486 117.725 301.605 90.8885 301.231C60.6625 300.809 30.2303 301.613 0.00878022 301.262V298.921C39.5549 298.89 85.853 300.474 120.636 290.564C123.981 289.612 123.775 287.333 121.848 287.208C81.5814 290.166 41.3417 294.66 0.00878022 293.459V273.185L77.8542 268.886C78.6357 267.255 70.3076 267.349 67.8184 267.177C45.5167 265.64 22.5959 265.25 0.00878022 265.39V249.791C27.3899 249.9 54.8369 249.658 82.2399 249.76C129.811 249.939 176.206 250.353 223.992 248.23C295.507 245.047 364.844 235.769 436.768 233.428C443.651 233.201 450.667 233.584 457.559 233.428C461.133 233.342 460.698 232.975 460.11 231.477C458.661 227.778 307.799 238.944 294.704 239.569C222.772 242.963 148.97 242.152 77.0596 241.964C51.3599 241.902 25.5021 241.652 0.00439011 242.784V233.428C23.1359 235.207 46.6361 237.22 70.0705 238.102C108.19 239.53 151.204 239.444 188.863 236.299C194.653 235.815 205.541 235.214 210.313 234.27C217.31 232.889 215.686 230.384 208.447 230.236C139.333 235.932 68.9906 233.248 0.00439011 228.746V217.048C11.5109 217.727 25.8226 219.225 37.2808 218.648C45.3806 218.234 45.4859 215.246 38.9008 214.723C26.7226 213.755 12.4635 213.95 0.00878022 213.154V178.063L96.8722 185.07C96.4332 183.908 93.6981 183.572 91.6787 183.127C81.5331 180.927 61.8523 178.219 50.5477 176.713C34.0936 174.528 17.1697 172.421 0.00878022 171.812V164.797C77.6303 163.666 155.752 167.567 229.3 178.82C246.373 172.46 224.756 170.689 212.754 169.089C144.834 160.053 70.4964 158.086 0.00878022 160.115V149.979C54.4461 140.872 108.524 136.05 166.903 139.07C203.653 140.974 247.457 148.988 284.058 145.086C309.814 142.339 296.271 138.227 277.591 137.517C237.558 135.995 193.714 132.858 154.791 132.054C99.7213 130.915 51.9218 137.852 0.00439011 144.524V137.509L162.588 123.073C164.375 119.249 134.816 120.154 128.894 120.365C86.393 121.91 43.4182 131.859 0.00439011 132.054V119.577C28.0791 118.945 58.2348 116.136 82.4946 109.589C84.9706 108.918 91.3231 107.209 91.7796 105.96C92.1748 104.891 92.5391 103.619 89.0885 103.97C61.3474 110.634 31.3147 114.395 0 115.675V98.5157C12.1606 100.295 9.9875 103.97 11.265 108.668C36.3282 105.024 62.9059 103.588 89.0929 102.425C99.5414 101.957 111.149 102.324 121.984 101.66C124.578 101.504 127.309 101.551 127.994 100.092C103.563 99.218 77.5645 98.5937 53.2257 100.295C41.1397 101.145 30.7088 103.541 19.0267 103.986C21.8364 98.0631 11.0631 96.6585 0 96.9628V90.7202C46.083 90.6343 93.1537 93.8259 138.385 88.7615L0.0175604 87.5832V78.227C61.264 73.0066 122.164 80.6383 182.708 83.5957C215.453 85.1954 243.102 85.3515 275.918 84.4697C278.184 84.4073 283.197 85.1174 281.968 83.307C247.4 80.7397 212.262 79.6863 177.589 77.3297C118.818 73.3266 60.0392 65.0004 0.0219505 70.4315V59.5147C18.1531 58.2661 36.4511 56.5806 54.7139 55.7066C133.446 51.9298 226.214 52.4058 303.089 61.2938C336.967 65.2111 364.085 68.0983 398.543 71.2899C403.728 71.7659 413.658 75.1603 410.063 69.3547C408.64 67.0527 363.914 65.2969 356.249 64.6258C315.175 61.0363 282.324 54.2552 237.606 51.8284C158.544 47.5365 78.0474 48.7773 0.0219505 55.6208V40.8023C6.60712 40.693 13.302 40.9739 19.896 40.7945C90.4933 38.8514 160.274 41.1456 230.424 35.1136C236.267 34.6142 277.552 30.5253 278.517 29.4952C280.3 27.5834 277.89 27.4039 274.233 27.5522C198.727 30.5253 123.173 33.0379 47.5712 34.5596C31.7361 34.8795 15.8395 35.02 0.0219505 35.3477V25.2112C10.0095 26.3583 20.2472 28.3169 30.4674 29.0348C67.1906 31.5943 105.007 26.5456 141.239 24.5479C177.391 22.5503 213.645 21.3642 249.674 18.8437C295.977 15.6053 340.989 9.61234 386.852 6.60806C459.421 1.85583 537.143 2.19137 608.886 9.22218C615.173 9.83864 684.098 19.2182 684.984 16.2452C685.985 12.8741 678.145 13.6857 673.219 12.9678C638.098 7.85659 596.524 1.51248 559.55 0.271754C510.052 -1.39036 429.155 -1.38255 379.622 0.232738C328.933 1.88704 264.219 11.1106 211.406 14.8562C182.4 16.9085 153.044 18.0946 123.942 19.8737C82.5385 22.3708 42.3821 27.6146 0.0175604 24.4153V22.0743L38.9359 23.6349C60.6538 22.6751 80.1371 22.4956 100.762 18.7578C105.481 17.8995 113.195 17.2206 114.196 14.6767C76.0894 13.1707 38.0491 15.8862 0.0219505 16.6197V-0.539792H6.94076H6.93637ZM1468.51 4.14221C1454.02 4.53237 1438.17 7.30256 1424.38 9.58113C1416.53 10.8765 1406.63 12.3123 1399.34 13.9276C1396.87 14.4738 1395 13.7481 1395.88 15.8316C1415.9 11.6802 1443.95 10.6736 1463.32 6.86557C1466.1 6.31934 1469.14 5.84333 1468.51 4.14221H1468.51ZM1022.25 17.4079C995.875 10.8609 967.185 8.62132 937.512 7.26354C933.201 9.34703 945.867 10.697 948.852 11.1106C972.559 14.4036 998.627 14.029 1021.37 18.9685L1022.25 17.4079H1022.25ZM1150.14 15.9018C1148.66 14.8172 1131.52 15.1137 1127.38 14.8406C1116.9 14.1461 1106.64 12.6478 1096.64 11.1574C1095.69 13.2331 1097.8 12.4996 1100.05 13.0926C1107.65 15.1059 1122.1 17.4469 1130.8 17.9697C1133.79 18.1492 1149.59 18.4847 1150.26 18.1648C1150.44 18.079 1150.48 16.1437 1150.14 15.894V15.9018ZM1061.17 13.4984V14.2787C1062.3 14.0212 1062.3 13.7559 1061.17 13.4984ZM702.277 18.9451C791.752 19.3743 880.617 17.0177 969.213 22.9795C996.652 24.8288 1023.62 27.8877 1051.05 29.7527C1105.81 33.4749 1161.18 35.3789 1215.37 40.7398C1229.34 39.1792 1215.96 35.9876 1209.51 34.7313C1170.25 27.084 1116.28 28.6837 1073.5 26.647C1022.99 24.2436 973.415 18.3833 922.779 16.6119C857.757 14.3334 792.533 17.3532 727.362 17.3923L702.273 18.9373L702.277 18.9451ZM496.276 19.8035C495.503 19.3899 476.024 17.681 472.885 17.4859C433.264 15.0201 361.271 16.8694 324.03 23.5023C322.19 23.83 318.05 24.1421 318.292 25.1878C351.6 21.4734 384.925 19.5148 419.453 20.5214C433.629 20.935 448.84 22.7922 462.937 23.5335C468.776 23.8378 494.366 25.6482 496.192 23.1355C496.671 22.48 496.943 20.1546 496.28 19.8035H496.276ZM555.235 22.0821C554.181 21.5905 527.151 25.18 525.874 25.6014C524.065 26.2022 523.218 27.9112 524.118 28.3091C526.44 29.347 560.819 27.4117 555.239 22.0743L555.235 22.0821ZM619.234 22.8624C592.415 25.7887 568.203 30.2756 540.322 32.1172C538.75 32.2186 521.962 31.844 527.577 33.7715C539.066 35.2463 615.511 28.4418 618.984 25.8667C619.91 25.18 618.975 23.7676 619.229 22.8624H619.234ZM316.549 25.2034C315.206 24.9849 302.277 26.0071 306.184 27.5288C306.869 27.7941 316.588 26.53 316.549 25.2034ZM1087.99 32.9989C1086.09 32.2732 1044.92 30.1663 1038.67 29.8854C956.122 26.1086 843.107 21.8168 762.483 27.7863C712.73 31.4695 664.211 37.2986 613.632 41.0208C610.519 41.2471 605.809 41.2158 607.139 43.1355C664.781 46.366 721.001 36.2529 777.752 33.116C873.263 27.8331 968.946 39.8346 1064.61 36.1125C1069.83 35.9096 1081.22 35.3789 1085.58 34.6454C1087.32 34.3567 1090.92 34.1148 1087.99 33.0067V32.9989ZM1525.61 29.0973C1512.2 28.0126 1498.88 29.027 1485.5 30.1195C1467.11 31.6255 1446.14 34.068 1427.75 36.089C1424.81 36.409 1422.72 35.3243 1423.55 37.6653C1457.67 35.9018 1490.91 31.0091 1525.61 31.4305V29.0973ZM487.526 35.4492C482.499 31.6958 398.947 30.892 385.746 31.4383C383.002 32.3747 385.719 32.8585 388.301 32.9989C405.247 33.8963 423.409 33.6778 440.21 34.5596C457.01 35.4414 471.84 37.6419 487.79 38.4457C487.517 37.5405 488.461 36.1437 487.531 35.4414L487.526 35.4492ZM539.865 48.4963C539.228 48.2232 539.953 46.4753 538.039 45.8432C536.761 45.4218 529.052 45.0005 526.458 44.8054C499.533 42.7765 469.333 42.8858 441.957 41.5748C406.3 39.8659 370.745 36.7757 334.781 36.089C324.741 35.894 307.808 35.574 298.356 36.1203C295.981 36.2607 292.913 36.7133 295.784 37.6809C325.434 38.7656 355.112 39.9595 384.622 41.6918C432.18 44.4932 479.303 49.6981 527.56 49.3859L500.74 50.931C418.672 52.32 338.451 42.3941 256.944 40.771C219.088 40.0141 183.107 42.004 146.243 42.3941C104.419 42.8389 62.1288 41.0286 20.7608 43.9236C20.875 45.2658 19.5975 45.5623 22.9383 45.3048C65.7199 41.9572 109.511 46.0539 153.158 45.5155C215.326 44.7429 266.853 44.2123 329.28 47.9267C384.903 51.2353 437.229 54.4503 493.76 55.652C504.766 55.8861 552.157 54.817 556.912 49.7449C560.819 45.5857 542.451 49.6044 539.856 48.5042L539.865 48.4963ZM1233.27 46.2412C1235.8 47.3337 1293.84 51.7269 1302.08 52.2732C1311.69 52.9052 1323.21 53.6856 1332.75 54.0445C1337.86 54.2318 1358.05 54.9731 1360.55 54.1147C1364.37 52.796 1364.12 50.455 1358.68 50.1585C1317.34 49.4093 1276.16 48.0594 1235.45 44.8756C1231.97 44.6025 1232.4 45.8744 1233.28 46.249L1233.27 46.2412ZM572.532 50.1585C541.244 54.8795 509.692 60.2404 476.529 61.8479C438.677 63.6816 403.183 59.8814 365.828 58.7421C363.466 58.6719 355.134 58.0788 354.611 59.5069C394.724 64.3995 438.383 66.0851 479.984 64.9692C506.443 64.2591 540.216 61.1534 562.716 54.7C565.824 53.8104 572.44 52.0469 572.527 50.1663L572.532 50.1585ZM645.188 93.0378C684.905 90.1349 725.215 87.9344 764.555 84.0873C855.663 75.1681 941.24 55.4725 1037.03 57.1424C1081.99 57.9306 1126.28 63.0808 1170.43 66.405C1201.83 68.7694 1231.19 69.1752 1262.31 73.3344C1266.21 73.8572 1284.73 77.5716 1286 77.4545C1299.04 76.2918 1270.84 71.0402 1268.33 70.6188C1235.36 65.0784 1198.11 65.0004 1163.73 62.4097C1113.29 58.6095 1066.7 53.0613 1014.49 53.2876C928.271 53.6622 844.302 69.8697 761.82 78.9528C734.097 82.0039 705.052 83.6504 677.684 87.0292C667.262 88.3167 653.016 89.815 645.193 93.0378H645.188ZM849.276 54.0523C820.696 55.2072 794.935 59.8346 769.103 65.0784C737.244 71.5396 722.84 77.8837 685.801 78.9996C674.488 79.3429 687.474 82.7218 694.471 82.7452C714.785 82.8154 770.197 67.9501 792.235 63.8065C807.965 60.849 824.542 59.2415 840.552 56.7367C843.384 56.2919 850.461 55.9563 849.276 54.0523ZM761.07 57.954C758.15 56.5884 737.034 61.7308 733.197 62.9481C732.275 63.2446 726.884 63.8377 729.948 64.9614C730.901 65.3125 748.992 61.3875 752.807 60.8412C755.714 60.4198 765.732 60.1311 761.065 57.954H761.07ZM1058.59 61.8557C1038.52 61.5669 1017.14 59.3508 997.095 59.4756C949.295 59.78 886.679 74.5127 839.811 81.364C806.485 86.2411 771.048 89.6667 738.131 94.7857C734.878 95.2929 726.98 95.6129 728.223 97.7198C752.184 96.1903 775.798 93.9742 799.127 91.0947C853.688 84.3605 914.706 70.3223 967.225 65.4998C994.145 63.0262 1015.85 64.938 1041.97 64.8912C1046.62 64.8833 1053.03 63.5256 1058.59 64.1889V61.8557ZM690.152 64.9692C687.122 63.5334 615.331 73.8416 604.215 73.4358L600.225 75.0979L689.054 68.1139C690.968 67.8876 690.393 65.0784 690.152 64.9692ZM728.201 64.9692C726.313 64.1186 722.871 65.6715 724.759 66.522C726.647 67.3726 730.088 65.8197 728.201 64.9692ZM723.012 66.5299C721.124 65.6793 717.682 67.2321 719.57 68.0827C721.458 68.9333 724.899 67.3804 723.012 66.5299ZM667.666 76.6742C643.046 77.2906 618.703 79.7019 594.144 80.5602C527.726 82.8778 462.972 76.6664 396.963 75.1135C331.418 73.5763 265.163 75.9407 200.044 71.8751C186.277 71.0168 172.575 69.6668 159.163 68.0905C158.299 70.3769 160.366 69.3547 163.185 69.7448C244.318 80.927 330.746 77.6652 414.264 80.5759C491.346 83.268 583.432 95.0276 657.243 80.1545C660.369 79.5224 668.671 78.6094 667.67 76.6742H667.666ZM716.971 68.0905V68.8708C718.095 68.6133 718.095 68.348 716.971 68.0905ZM861.405 93.0378C962.492 85.3047 1080.07 74.9184 1177.37 94.4658C1186.15 96.2293 1193.76 99.2024 1202.84 100.03C1213.67 98.7264 1191.3 91.3835 1188.15 90.3846C1111.91 66.1631 981.958 76.5493 897.352 87.0292C887.312 88.2699 874.633 89.5965 865.203 91.2898C862.569 91.7658 860.527 90.8372 861.41 93.0456L861.405 93.0378ZM1682.98 82.1287C1632.42 90.9153 1581.11 95.4646 1526.48 93.8181C1508.94 93.2875 1490.68 91.0167 1473.4 89.6667C1471.62 89.5263 1468.1 88.4416 1468.53 89.9164C1475.96 91.243 1482.48 93.4279 1490.07 94.6375C1530.61 101.106 1618.79 98.2894 1659.23 91.2976C1667.5 89.8696 1686.37 86.9044 1682.99 82.1287H1682.98ZM1217.72 87.5754C1218.84 88.0827 1243.71 91.9609 1247.48 92.4915C1265.14 94.9496 1288.68 98.0007 1304.23 91.8907C1307.88 90.4549 1313.33 86.9122 1305.18 86.8185C1300.02 86.7561 1284.47 89.6979 1275.72 89.9477C1270.84 90.0881 1265.2 90.0023 1260.31 89.8228C1247.39 89.3468 1231.8 86.2723 1220.28 86.0148C1217.36 85.9523 1216 86.7951 1217.71 87.5676L1217.72 87.5754ZM1357.79 87.6145C1355.15 85.8041 1340.28 88.0514 1342.26 91.4771C1344.59 90.7202 1357.28 90.174 1357.83 89.9164C1358 89.8306 1357.99 87.7549 1357.79 87.6145H1357.79ZM970.359 94.6062C968.52 93.7713 927.964 101.723 921.568 102.62C804.764 119.132 721.045 104.399 609.198 94.06C539.786 87.6457 482.271 90.4705 412.477 92.2887L370.152 88.7537C373.809 91.6878 384.218 93.6776 390.948 94.973C439.854 104.384 513.055 97.7354 568.208 100.061C698.256 105.539 790.742 125.663 926.752 105.742C932.692 104.868 966.127 99.2492 968.678 98.1333C970.39 97.3842 971.167 94.973 970.355 94.6062H970.359ZM1456.39 92.273C1454.96 91.641 1421.82 90.33 1416.62 89.932C1420.54 91.8829 1429 93.1314 1434.48 93.9586C1437.9 94.4736 1454.64 96.9628 1456.41 96.1669C1456.09 95.2851 1456.95 92.5228 1456.39 92.273ZM371.891 100.061C377.106 98.0553 349.699 93.662 347.719 93.4201C331.26 91.3679 314.306 91.758 297.531 90.7124C296.692 93.108 298.887 91.9609 301.851 92.2418C325.632 94.5204 347.789 98.8825 371.891 100.061ZM1030.91 93.8181C1091.1 90.7826 1143.84 105.359 1199.88 112.39C1205.8 112.46 1208.36 107.575 1202.73 106.428C1148.74 100.857 1092.85 86.7873 1036.07 92.6554C1034.15 92.8505 1030.48 92.6554 1030.91 93.8181ZM1029.16 93.8337C1026.74 93.2719 1024.55 94.3253 1025.72 94.5984C1028.15 95.1603 1030.34 94.1068 1029.16 93.8337ZM416.872 110.205C361.526 107.014 305.824 96.1591 249.938 94.614C177.988 92.6242 131.94 114.161 64.8858 119.585C62.0191 119.819 61.9181 119.101 62.2957 121.114C117.049 120.381 166.166 101.988 220.568 100.857C280.493 99.6082 346.266 115.293 407.148 112.445C408.71 112.374 421.139 111.649 416.876 110.205H416.872ZM851.027 97.7276C829.928 97.5403 808.935 97.8446 787.897 98.5079C770.552 99.0541 749.954 99.9203 732.731 100.935C730.861 101.044 724.64 101.239 724.759 102.394L851.027 100.061V97.7276ZM1625.9 121.902C1611.13 122.051 1596.6 123.892 1581.88 124.267C1541.35 125.305 1498.74 121.965 1459.5 117.774C1395.38 110.931 1331.69 97.5325 1264.4 100.841V103.174C1330.85 106.023 1394.8 115.706 1459.5 122.449C1510.01 127.708 1567.2 133.202 1617.64 124.79C1620.58 124.298 1627.15 123.845 1625.9 121.894V121.902ZM1065.49 107.092C991.932 112.039 919.605 120.295 846.189 125.57C795.874 129.183 758.198 131.516 707.133 127.107C653.709 122.495 582.91 105.601 530.128 108.637C527.74 108.777 524.987 109.097 527.56 110.189C528.521 110.595 548.913 112.507 553.101 113.108C611.472 121.442 676.635 135.644 737.732 137.486C797.468 139.28 858.837 127.131 916.721 121.497C963.032 116.994 1014.82 115.488 1059.47 108.644C1061.4 108.348 1065.73 108.207 1065.48 107.084L1065.49 107.092ZM525.83 121.91C469.329 121.06 413.803 128.465 357.219 126.569C301.412 124.704 249.85 109.472 192.787 111.719C190.136 111.82 186.584 111.586 185.113 112.944C183.392 114.528 188.827 114.099 190.667 114.31C228.172 118.734 264.926 124.337 302.342 128.699C389.139 138.812 437.505 129.425 521.097 123.268C522.656 123.151 526.295 122.94 525.834 121.91H525.83ZM1544.42 136.026C1496.94 131.937 1449.82 126.124 1401.68 123.572C1236.26 114.801 1073.03 133.951 908.95 138.274C904.341 138.399 868.289 137.735 868.302 139.452C1035.5 142.386 1201.89 126.296 1369.13 128.894C1398.33 129.347 1435.3 130.291 1464.02 132.125C1474.49 132.788 1541.72 140.427 1544.63 139.062L1544.43 136.034L1544.42 136.026ZM219.69 151.524C220.779 152.015 245.381 155.41 249.073 155.831C305.811 162.3 360.349 157.813 415.866 151.469C472.117 145.047 526.831 135.184 585.145 132.647C590.997 131.867 592.107 127.536 585.531 127.333C579.925 127.162 557.281 129.409 549.993 130.057C448.472 139.07 356.306 162.55 249.029 153.506C239.911 152.733 230.661 150.954 221.986 150.088C218.667 149.76 218.781 151.11 219.69 151.516V151.524ZM1039.56 153.1C1007.32 152.999 975.526 156.939 943.536 157.766C889.164 159.179 828.326 156.175 774.293 152.983C713.836 149.409 654.017 143.479 593.301 140.622C592.463 142.963 594.561 141.879 597.494 142.199C655.158 148.535 721.172 154.325 779.776 159.093C848.007 164.641 926.739 170.314 994.935 163.01C1003 162.144 1033.18 158.164 1038.47 156.292C1040.64 155.527 1039.28 154.169 1039.56 153.1ZM1145.06 167.903C1247.21 149.986 1349.57 169.3 1438.54 191.953C1459.86 197.384 1506.24 212.749 1528.27 213.17C1551.34 213.607 1551.79 203.705 1544.93 196.237C1507.92 155.925 1342.55 144.75 1258.29 146.038C1151.15 147.684 1056.05 164.415 954.827 177.665C911.492 183.338 866.612 186.881 824.651 194.622L807.789 198.313C935.743 192.281 1052.44 164.711 1179.07 155.55C1271.88 148.839 1471.77 149.378 1529.78 189.807C1535.08 193.498 1550.45 206.959 1534.68 208.316C1510.74 210.384 1448.14 189.503 1425.8 183.65C1352.14 164.345 1266.94 151.547 1181.38 161.27C1169.65 162.604 1154.17 164.423 1145.07 167.895L1145.06 167.903ZM161.74 150.751C151.595 150.291 140.058 151.087 129.741 150.751C127.146 155.972 146.34 156.362 155.037 156.892C180.227 158.422 205.725 157.423 227.452 164.797C230.288 164.04 226.942 163.065 225.761 162.441C215.142 156.846 177.909 151.493 161.74 150.751ZM1570.57 151.539C1571.01 154.38 1582.97 154.497 1588.75 155.425C1604.48 157.938 1627.64 163.83 1644.07 162.448C1648.61 162.066 1650.11 160.061 1647.66 158.5C1645.73 157.275 1635.21 157.915 1630.72 157.564C1610.35 155.987 1591.59 151.477 1570.58 151.547L1570.57 151.539ZM115.916 184.282C198.815 184.727 280.993 192.382 363.83 187.279C371.798 186.787 402.981 183.33 407.165 183.697C409.848 183.931 418.426 188.886 422.171 190.088C458.608 201.793 508.651 194.637 549.212 193.654C588.398 192.702 642.932 197.368 670.308 181.184C684.958 172.53 677.293 163.954 655.558 160.505C559.252 145.211 433.449 175.613 336.221 181.067C264.157 185.109 193.753 182.175 121.944 183.51C119.841 183.549 115.513 182.924 115.916 184.282ZM1521.7 197.353C1526.22 195.402 1521.63 193.303 1517.55 192.203C1507.56 189.526 1489.57 187.638 1477.13 184.696C1442.05 176.401 1409.37 162.058 1366.47 164.025L1402.73 169.893C1433.32 174.707 1456.86 186.483 1483.52 193.513C1491.13 195.519 1514.46 200.482 1521.7 197.361V197.353ZM999.782 164.797C927.586 167.794 855.417 173.56 790.444 188.566C691.895 211.321 652.23 229.065 530.18 225.616C486.96 224.399 430.775 212.858 390.531 218.82C380.017 220.373 362.566 225.187 359.796 230.298C370.17 228.168 379.156 225.507 390.562 224.29C433.04 219.748 485.05 232.202 530.18 233.412C657.643 236.83 695.679 214.879 797.363 191.68C858.771 177.673 931.279 169.659 999.782 167.13V164.797ZM779.236 177.267C791.19 176.721 806.586 177.267 819.019 177.267C820.099 177.267 821.688 175.956 821.684 175.308C821.679 170.884 785.246 167.778 777.607 167.88C742.789 168.34 738.175 180.404 719.605 190.15C714.934 192.6 706.843 196.213 701.355 198.297C698.19 199.499 688.593 201.488 687.5 202.191C681.398 206.108 695.402 203.947 698.765 203.369C731.976 197.696 737.477 179.163 779.231 177.259L779.236 177.267ZM1143.33 167.919C1140.9 167.357 1138.71 168.41 1139.88 168.683C1142.31 169.245 1144.5 168.192 1143.33 167.919ZM1330.13 181.169C1330.98 180.802 1330.27 178.313 1327.18 178.219C1287.93 175.074 1247.02 166.951 1206.48 168.707C1202.92 168.863 1190.73 170.103 1199.54 171.032C1220.78 173.256 1244.53 175.183 1266.1 176.908C1274.11 177.548 1327.79 182.183 1330.13 181.176L1330.13 181.169ZM716.049 171.04C715.724 170.946 711.15 170.962 710.956 171.04C710.298 171.29 707.264 176.799 705.513 178.344C670.431 209.409 562.988 206.178 497.316 203.775C442.422 201.769 370.977 191.11 318.287 197.938C315.965 198.242 309.986 198.64 309.639 199.873C337.117 198.344 363.8 198.734 390.944 201.044C413.351 202.948 435.442 206.607 457.959 208.262C523.696 213.1 668.368 215.417 707.791 185.601C710.662 183.432 721.304 172.585 716.049 171.032V171.04ZM1094.89 175.714C1091.72 174.364 1077.82 177.454 1074.1 178.453C1071.88 179.046 1069.74 178.313 1070.7 180.388C1073.31 179.585 1102.26 178.851 1094.89 175.714ZM1619.6 192.359C1621.36 191.492 1638.09 185.484 1628.28 184.345C1626.26 184.11 1621.43 185.062 1618.2 185.101C1610.14 185.195 1600.28 185.328 1592.39 184.969C1573.18 184.095 1555.21 179.382 1535.98 178.835L1577.49 186.233C1589.99 187.622 1602.48 189.432 1615.53 188.972C1604.4 194.785 1590.44 201.426 1572.3 201.442C1570.21 195.09 1583.52 196.908 1587.9 195.613C1596.63 193.053 1577.61 189.315 1567.86 193.592C1564.18 195.207 1563.56 204.532 1568.2 205.226C1586.84 208.012 1608.51 197.782 1619.6 192.351V192.359ZM684.971 231.859H711.782C744.558 231.859 813.549 214.809 851.339 210.556C970.105 197.189 1090.51 187.021 1213.46 188.153C1248.53 188.473 1289.45 188.714 1324.07 189.752C1365.35 190.993 1401.49 200.654 1442.58 200.661V198.328C1406.17 197.704 1372.73 188.59 1337.49 186.046C1308.57 183.962 1278.75 185.133 1249.73 184.282C1220.98 183.439 1192.18 180.778 1163.31 180.357C1077.49 179.101 956.868 190.814 873.145 200.895C808.364 208.699 752.623 227.388 684.958 229.526L684.971 231.859ZM368.431 209.253C356.898 209.643 346.244 211.922 334.684 212.359C293.553 213.919 254.042 208.792 213.623 206.92C199.693 206.272 183.827 206.764 170.411 206.124C119.042 203.697 68.5691 198.242 17.3102 195.987C17.7404 197.087 16.4497 200.021 17.5209 200.583C19.6106 201.668 54.3759 205.375 60.2367 205.882C110.881 210.275 160.946 210.345 211.88 212.374C259.407 214.27 317.172 225.562 361.372 212.686C364.186 211.867 368.936 211.118 368.427 209.245L368.431 209.253ZM1387.21 204.571C1363.41 206.077 1339.19 209.877 1315.21 210.704C1266.72 212.382 1219.85 205.655 1171.85 204.571C1116.96 203.338 1061.29 206.209 1006.67 203.4C1006.42 204.953 1009.91 205.109 1012.2 205.585C1047.9 213.037 1129.62 210.415 1171.86 211.586C1226.09 213.092 1339.57 222.479 1383.29 207.076C1385.4 206.334 1387.98 206.17 1387.21 204.563L1387.21 204.571ZM1459.86 205.351C1458 204.43 1414.16 212.468 1407.57 213.357C1330.01 223.814 1246.99 224.563 1166.7 221.723C1083.23 218.765 981.611 206.803 900.811 214.934C869.172 218.117 843.472 222.183 810.357 224.071C808.004 224.204 804.852 224.618 807.785 225.624C848.63 226.561 887.873 220.482 928.008 218.617C991.103 215.691 1058.76 222.347 1121.72 224.844C1221.66 228.8 1328.78 230.041 1424.44 214.723C1430.44 213.763 1455.46 209.721 1458.79 208.543C1460.49 207.942 1460.23 205.538 1459.86 205.351ZM907.633 227.762C911.404 225.999 909.038 221.668 903.84 221.699C858.06 231.282 809.282 238.671 758.541 240.435C755.678 242.214 758.172 243.026 762.022 243.525C790.202 247.185 839.661 240.177 867.047 235.581C872.236 234.707 906.075 228.496 907.633 227.762ZM1190.03 235.769C1126.92 234.965 1063.86 233.529 1000.56 234.231L918.464 231.087C918.701 231.976 917.472 232.827 919.504 233.49C923.161 234.692 946.991 237.158 953.049 237.719C1025.4 244.446 1099.31 240.318 1171.86 237.314L1190.02 235.769H1190.03ZM1465.05 236.541C1347.14 236.674 1230.04 243.595 1113.29 249.893C790.075 267.333 467.498 289.885 140.958 292.686L138.403 294.247C145.774 293.818 152.697 294.902 159.932 295.066C215.37 296.354 272.494 294.411 327.722 293.435C627.557 288.137 924.592 266.834 1222.05 250.579C1293.66 246.67 1365.42 243.65 1436.75 238.976C1445.18 238.422 1454.38 238.523 1462.5 238.094C1465.09 237.953 1467.76 237.462 1465.05 236.533V236.541ZM743.79 239.662C691.508 239.779 639.389 241.418 587.173 241.254C525.983 241.051 484.207 240.809 425.547 250.985C416.31 252.585 403.701 254.996 396.115 257.594C431.859 254.668 465.949 247.044 502.51 245.913C573.809 243.697 658.179 254.005 726.111 244.563C728.754 244.196 743.193 242.316 743.781 241.988C744.163 241.777 743.557 240.302 743.79 239.662ZM920.198 239.67C893.734 241.512 868.755 246.202 842.726 248.792C758.282 257.204 672.657 249.058 585.799 254.614C521.778 258.71 419.892 265.991 360.621 275.526C353.79 276.627 344.163 278.008 339.031 280.208C385.351 273.857 433.976 273.232 481.481 269.963C537.464 266.108 594.548 259.631 651.167 258.344C715.847 256.869 783.218 265.101 844.991 253.708L920.193 239.662L920.198 239.67ZM861.41 258.367C885.955 255.62 913.073 252.858 938.386 252.14C954.643 251.68 981.528 253.545 995.58 250.634C1002.65 249.167 1000.17 248.285 994.597 247.06C969.977 241.621 902.932 249.417 877.513 254.333L861.405 258.367H861.41ZM102.079 280.208C121.369 280.021 140.786 280.474 160.085 280.248C206.774 279.709 312.839 279.038 349.264 266.498C352.262 265.468 360.674 261.902 361.934 260.521C363.541 258.765 365.033 254.309 359.186 254.575C357.298 254.66 332.735 261.91 326.365 263.197C276.643 273.209 220.893 271.968 168.431 276.994L102.083 280.208H102.079ZM1093.16 272.421L1037.88 279.85C972.08 286.217 905.517 280.052 839.758 277.883C792.459 276.322 736.195 275.854 700.539 291.906C746.011 284.134 791.19 282.167 839.762 283.345C916.08 285.187 1017.86 301.285 1085.1 276.962C1086.6 276.416 1095.43 273.342 1093.17 272.421H1093.16ZM337.297 280.224C334.869 279.662 332.683 280.716 333.855 280.989C336.282 281.551 338.469 280.497 337.297 280.224ZM736.862 295.035L727.797 295.23C642.317 305.515 551.938 308.105 464.281 302.105C461.3 301.496 461.063 303.244 461.848 303.595C464.75 304.914 524.991 308.722 533.64 309.057C591.01 311.289 662.893 308.293 718.209 301.043C726.01 300.021 739.062 299.732 736.862 295.027V295.035ZM1169.27 311.414C1139.61 312.28 1109.9 311.796 1080.13 312.155C940.164 313.833 800.725 322.487 662.165 331.149L640.003 334.012C678.707 335.269 718.046 333.934 756.736 332.46C891.034 327.325 1025.92 320.466 1159.56 312.873C1161.65 312.756 1169.01 312.53 1169.27 311.414H1169.27ZM1378.57 345.725C1439.9 347.91 1466.94 352.054 1526.76 340.403C1564.61 333.029 1627.05 312.163 1666.41 314.598C1671.59 314.918 1685.7 318.78 1686.44 318.429C1691.88 315.807 1669.73 312.624 1666.12 312.405C1626.81 309.994 1554.06 333.638 1511.75 339.1C1445.09 347.707 1391.58 337.516 1327.47 339.459C1322.84 339.6 1290.07 342.011 1288.62 342.62C1282.15 345.335 1303.78 343.376 1304.99 343.361C1326.49 343.08 1349.42 342.861 1369.92 344.953C1359.21 344.734 1343.83 344.477 1334 346.279C1331.88 346.669 1332.09 347.91 1330.67 348.058C1322.52 348.878 1304.92 348.371 1294.9 348.948C1212.5 353.7 1136.9 365.702 1056.88 374.207C920.975 388.659 777.528 394.73 657.445 430.415C654.421 431.312 636.101 435.869 640.012 437.75C679.431 428.932 718.358 419.724 759.379 412.42C857.77 394.894 946.635 389.759 1048.23 379.662C1125.94 371.937 1205.93 358.726 1284.53 354.41C1312.18 352.889 1368.45 351.024 1392.89 356.829C1407.2 360.224 1387.14 373.63 1381.01 377.641C1336.84 406.552 1234.99 420.825 1160.96 428.16C1125.49 431.679 1077.57 436.993 1043.04 431.117C1002.1 424.157 1037.1 416.072 1057.96 411.351C1102.05 401.371 1141.31 396.751 1190.92 395.651C1232.08 394.738 1292.33 398.827 1326.54 386.607C1334.28 383.845 1336.03 382.58 1344.65 379.974C1348.15 378.921 1354.67 372.436 1354.04 370.47C1352.07 364.305 1327.99 368.581 1323.26 372.639C1328.16 372.436 1346.51 370.095 1337.05 374.184C1334.51 375.276 1305.98 381.691 1301.51 382.339C1265.86 387.473 1208 386.888 1168.65 389.502C1128.68 392.163 1063.19 401.433 1031.07 412.475C988.201 427.215 1036.86 437.781 1070.05 439.209C1175.08 443.743 1373.76 406.747 1425.42 363.33C1426.9 362.097 1426.82 359.935 1427.1 359.81C1428.02 359.381 1449.04 359.912 1453.64 359.685C1485.42 358.101 1523.64 347.419 1551.54 340.661C1550.34 339.584 1546.88 340.677 1545.17 340.911C1500.39 347.052 1471.78 356.119 1420.89 354.34C1403.91 353.747 1394.31 348.355 1378.57 345.733L1378.57 345.725ZM1483.84 321.644C1270.51 319.608 1058.04 329.845 846.94 341.933C650.851 353.162 455.808 367.66 260.083 379.919C178.304 385.038 92.2494 388.097 11.4889 394.176C9.45191 394.332 3.43307 394.41 3.48136 395.62C78.7717 393.013 153.979 389.369 228.979 385.39C636.812 363.774 1035.09 333.615 1446.81 326.186C1456.17 326.014 1475.55 327.068 1482.92 326.256C1485.87 325.928 1485.56 322.643 1483.83 321.644H1483.84ZM1557.59 338.702V339.483C1558.72 339.225 1558.72 338.96 1557.59 338.702ZM1554.13 339.483V340.263C1555.26 340.005 1555.26 339.74 1554.13 339.483ZM690.165 348.058C690.683 345.71 690.235 343.985 684.19 344.126C599.65 344.594 514.789 343.025 430.709 345.725C430.463 347.551 430.139 347.099 433.273 347.286C439.116 347.621 446.149 347.114 452.313 347.286C475.567 347.973 499.889 348.652 523.178 348.87C578.889 349.385 634.516 348.027 690.169 348.051L690.165 348.058ZM1108.75 352.748C912.081 349.533 728.398 385.6 536.836 398.647L463.582 402.651C487.517 402.83 511.509 402.143 535.339 401.09C728.082 392.584 914.126 358.944 1108.75 355.081V352.748H1108.75ZM448.002 354.309C411.599 353.201 376.074 358.148 339.97 359.014C299.177 359.99 259.359 357.266 218.904 356.603C192.3 356.166 165.599 357.446 139.338 357.454C113.076 357.461 84.4482 355.261 57.8968 356.611C55.3066 356.744 52.5584 356.775 51.9043 358.195C82.6043 359.818 113.638 359.381 144.426 360.552C183.414 362.026 216.656 364.937 256.94 364.477C319.372 363.767 380.271 360.349 441.952 355.87C444.529 355.682 447.291 355.831 447.998 354.317L448.002 354.309ZM969.503 443.204C978.024 443.595 987.652 442.924 996.314 443.204C996.555 441.347 996.875 441.831 993.732 441.652C964.503 439.974 925.804 437.656 941.38 419.607C958.295 400.013 1026.07 393.271 1066.87 388.839C1124.8 382.541 1185.41 378.913 1243.99 373.552C1264.38 371.687 1285.11 368.394 1305.57 367.005C1329.43 365.39 1352.95 366.303 1376.84 367.551C1376.3 366.115 1373.28 366.248 1371.02 365.897C1321.89 358.296 1261.49 368.41 1212.85 372.772C1122 380.918 1010.89 383.915 931.792 406.7C907.085 413.817 882.645 425.639 890.262 439.935C894.489 447.871 917.142 453.201 933.596 454.714C1035.87 464.078 1167.38 445.405 1263.12 428.971C1283.91 425.405 1331.66 417.859 1348.05 412.67C1349.22 412.303 1350.97 411.983 1350.9 411.234C1317.21 416.782 1284.23 423.883 1250.18 429.377C1200.94 437.329 1150.01 444.578 1097.49 446.318C1051.31 447.84 966.272 448.534 923.692 442.807C873.491 436.057 917.305 415.495 943.584 408.909C924.72 424.079 921.717 441.035 969.512 443.204H969.503ZM1702.01 379.264C1700.83 378.546 1667.75 376.275 1663.08 376.143C1630.13 375.23 1591.85 379.241 1565.19 388.16C1564.35 388.441 1558.8 389.026 1561.93 390.165C1562.95 390.54 1582.58 386.599 1586.55 386.068C1617.83 381.909 1644.18 384.149 1675.19 383.142C1678.1 383.049 1706.12 381.761 1702.01 379.264H1702.01ZM588.099 385.507C526.87 392.631 465.641 380.598 404.114 384.04C344.413 387.372 285.823 401.246 222.767 405.998C220.941 406.139 215.892 406.201 216.239 407.325C279.365 406.818 338.526 394.379 400.69 391.07C454.965 388.175 509.608 394.956 562.171 389.791C568.572 389.159 577.238 387.949 583.349 386.857C585.184 386.529 588.507 386.63 588.099 385.507ZM743.772 391.742C740.23 390.064 691.135 397.719 683.299 399.17C643.322 406.568 608.5 417.11 566.522 423.727C482.877 436.915 315.912 449.151 230.029 442.057C218.922 441.137 207.911 439.061 197.213 438.92C216.652 443.009 240.723 445.35 262.09 446.326C363.426 450.938 481.863 445.881 575.947 427.988C632.962 417.141 681.951 398.047 743.794 394.083C743.57 393.45 744.132 391.921 743.772 391.749V391.742ZM937.495 395.643C891.526 395.308 834.231 400.247 794.513 411.102C768.871 418.109 736.915 434.8 768.901 446.31C791.001 454.262 842.712 457.664 870.928 458.796C877.86 459.076 913.441 460.185 916.8 459.217C928.93 455.737 892.294 456.556 889.954 456.455C865.141 455.424 830.929 451.835 806.692 448.76C783.49 445.819 752.184 441.324 769.007 427.668C795.053 406.529 878.4 402.768 925.422 397.594C928.675 397.235 935.936 396.954 937.49 395.635L937.495 395.643ZM1466.78 396.416C1464.98 395.62 1459.84 397.961 1461.6 398.749C1463.4 399.545 1468.54 397.204 1466.78 396.416ZM1460.75 399.553L1458.17 400.715C1458.14 401.535 1462.49 400.255 1460.75 399.553ZM904.63 402.658C886.104 405.788 865.993 408.027 848.13 411.882C826.838 416.47 807.886 422.783 813.365 434.839C816.82 442.44 860.734 451.858 876.639 452.397C882.153 452.584 887.259 452.303 885.542 449.486C849.991 445.873 782.498 433.45 839.736 416.665C857.836 411.359 887.518 410.376 901.057 406.1C904.178 405.116 905.175 404.422 904.63 402.651V402.658ZM1252.3 404.219C1200.18 407.473 1140.26 404.375 1096.64 419.802C1144.68 413.419 1203.02 415.518 1248.52 405.983C1250.95 405.475 1253.24 406.451 1252.3 404.219ZM1356.07 411.226C1358.04 410.321 1355.33 408.714 1352.63 410.844C1352.41 411.523 1355.95 411.281 1356.07 411.226ZM352.881 429.947C385.136 430.228 416.591 430.079 448.362 427.379C455.035 426.81 489.809 423.127 492.167 421.394C494.884 419.397 492.878 417.399 487.175 417.508C467.182 417.898 433.976 423.306 411.999 425.023C399.662 425.99 386.922 427.036 374.476 427.598C367.926 427.894 353.522 426.061 352.881 429.939V429.947ZM1503.09 423.712C1501.17 422.721 1452.61 428.636 1446.03 429.564C1417.55 433.56 1377.55 442.011 1356.25 451.476C1355.17 451.96 1350.74 453.286 1352.63 454.129C1353.93 454.707 1380.21 446.646 1384.87 446.443C1415.2 439.951 1449.4 438.546 1480.06 432.428C1484.51 431.539 1509.31 426.919 1503.09 423.72V423.712ZM323.463 426.053C316.483 424.851 283.829 425.46 280.401 427.684C274.992 431.187 294.041 434.871 301.394 434.488C305.793 434.254 318.595 431.492 319.508 429.447C319.776 428.854 318.037 427.707 318.257 427.621C319.266 427.208 325.276 428.581 323.468 426.061L323.463 426.053ZM192.001 436.977C189.574 436.416 187.387 437.469 188.56 437.742C190.987 438.304 193.174 437.251 192.001 436.977ZM194.605 437.75V438.53C195.729 438.273 195.729 438.007 194.605 437.75ZM159.141 443.204C164.691 442.814 168.909 444.289 173.51 444.929C182.699 446.209 181.79 442.401 172.013 441.698C170.042 441.558 153.79 441.246 159.141 443.204ZM1292.95 444.765V445.546C1294.08 445.288 1294.08 445.023 1292.95 444.765ZM1290.35 445.553C1261.18 448.558 1234.65 455.268 1206.49 459.599C1081.41 478.827 920.821 465.194 791.331 459.591C715.601 456.314 637.001 451.975 561.363 450.196C505.271 448.878 455.654 451.039 400.505 451.819C359.137 452.405 317.401 450.977 276.16 451.304C274.492 451.32 268.846 451.429 269.834 452.943C271.247 455.12 320.566 458.585 327.805 458.796C409.883 461.137 492.667 456.455 576.852 459.584C682.864 463.532 786.313 469.876 893.322 472.092C1039.78 475.12 1151.28 478.202 1285.14 447.481C1287.14 447.02 1289.92 446.755 1290.35 445.553ZM665.945 479.857C659.294 477.18 648.362 474.824 639.973 473.247C544.242 455.237 435.077 471.031 337.665 478.078C258.112 483.836 176.531 487.582 96.0863 489.252C84.0574 489.502 69.3901 488.565 57.9319 489.221C55.5261 489.361 52.9228 489.642 55.3769 490.774C59.0119 492.451 110.021 493.247 118.577 493.154C175.719 492.545 242.83 490.04 300.112 487.66C396.664 483.641 545.203 463.485 634.806 474.8C645.627 476.166 655.154 478.624 665.949 479.857H665.945ZM178.173 472.834C171.306 468.729 159.488 467.855 148.776 467.387C147.525 474.231 168.216 471.632 178.173 472.834ZM1456.4 482.206C1393.72 493.832 1335.84 510.04 1273.04 521.573C1161.52 542.057 1048.35 551.054 928.06 552.42C880.924 552.958 760.96 548.628 724.28 556.462C721.98 556.954 714.359 558.546 717.84 560.176C719.104 560.77 746.626 556.509 753.229 556.251C777.142 555.331 800.559 557.601 824.138 557.874C959.257 559.443 1085.46 556.267 1214.17 537.141C1297.41 524.773 1383.27 508.651 1454.66 485.694L1456.4 482.198V482.206ZM1179.64 518.077C1177.66 517.102 1131.46 526.115 1124.3 527.036C1065.5 534.605 1000.18 529.15 940.168 528.175C925.817 527.941 901.663 527.426 888.176 528.206C885.652 528.354 882.812 528.799 885.621 529.767C897.94 529.743 910.54 530.001 922.792 530.555C988.504 533.528 1114.11 544.461 1168.38 525.077C1170.82 524.203 1182.46 519.459 1179.65 518.077H1179.64ZM875.234 538.366C874.936 538.202 868.645 537.875 866.116 537.399C777.374 520.629 706.009 524.788 614.027 534.059C511.54 544.39 412.824 559.638 308.26 566.989C290.542 568.237 272.845 568.604 255.105 569.548C251.931 569.72 252.322 569.322 252.545 571.109C431.456 574.956 599.693 528.807 777.585 532.865C791.633 533.185 811.529 534.168 825.126 535.604C833.274 536.462 870.554 543.961 875.147 540.645C875.445 540.426 875.392 538.452 875.23 538.366H875.234ZM1427.01 544.593C1368.3 542.307 1313.93 552.81 1257.53 557.477C1223.35 560.301 1184.13 562.018 1149.41 560.965C1119.53 560.059 1088.23 555.424 1057.98 555.783C1056.44 555.799 1052.04 556.197 1053.4 557.453C1054.4 558.374 1075.53 562.986 1079.36 563.688C1124.11 571.905 1177.52 571.757 1224.31 567.457C1291.99 561.238 1356.46 546.739 1427.01 546.926V544.593ZM674.584 548.495C645.526 549.517 616.407 552.318 587.779 554.964C427.267 569.798 269.847 594.027 104.735 597.648C92.166 597.921 76.8269 596.922 64.8507 597.617C62.3264 597.765 59.486 598.21 62.2957 599.177C134.307 599.958 206.142 598.147 277.341 593.59C411.169 585.022 540.15 566.177 669.755 549.806C671.538 549.58 674.988 549.611 674.58 548.495H674.584ZM1297.29 589.821C1334.53 587.551 1383.28 604.921 1416.66 592.576C1437.34 584.929 1440.54 561.097 1411.14 558.366C1409.3 558.194 1404.31 557.648 1404.55 559.029C1404.61 559.404 1415.72 561.776 1418.38 563.134C1432.32 570.297 1424.75 587.402 1405.75 591.561C1378.74 597.476 1326.73 581.23 1299.49 588.089C1297.53 588.581 1296.54 588.05 1297.29 589.829V589.821ZM1186.59 605.428C1245.47 597.773 1284.66 580.075 1350.1 581.995C1364.38 582.416 1388.8 586.24 1401.11 584.773C1414.34 583.196 1432.2 569.845 1414.11 568.729C1394.38 567.519 1382.52 574.199 1407.97 574.613C1392.83 582.276 1369.15 574.168 1350.09 573.419C1267.62 570.165 1210.61 602.307 1133.34 605.99C1101.47 607.504 1063.39 604.57 1029.97 605.389C1019.73 605.639 994.312 606.63 985.395 607.909C983.613 608.167 982.072 608.791 982.48 609.696C984.197 610.672 985.681 611.398 988.565 611.639C1024.13 614.605 1072.73 610.617 1109.53 610.063C1133.71 609.696 1158.13 609.634 1182.18 609.283C1203.8 608.971 1225.51 609.142 1247.1 608.534C1249.91 607.574 1247.07 607.121 1244.55 606.973C1235.98 606.481 1225.67 607.363 1216.86 606.973L1186.58 605.428H1186.59ZM1563.65 571.109H1619C1619.82 568.745 1617.7 569.86 1614.79 569.533C1598.13 567.629 1582.91 569.798 1566.21 569.548L1563.65 571.109ZM823.334 575.011C767.391 581.511 709.754 578.663 652.897 579.654C573.225 581.043 497.724 593.387 417.662 592.974L374.498 591.374C370.293 594.41 385.869 596.267 391.299 597.055C465.374 607.863 543.491 591.109 616.894 586.809C674.703 583.423 767.659 586.349 819.001 577.328C821.684 576.86 824.002 576.68 823.339 575.003L823.334 575.011ZM1214.24 584.367C1131.99 589.384 1055.55 572.662 972.98 575.011C894.845 577.234 822.939 598.007 745.827 603.61C684.396 608.183 621.899 609.447 559.55 609.314L553.523 610.087C633.357 610.282 712.291 615.362 790.843 606.747C872.635 597.773 921.783 581.542 1012.82 583.547C1066.33 584.726 1136.69 597.25 1186.63 591.796C1189.18 591.515 1219.58 586.466 1214.24 584.367ZM1037.81 597.625C997.802 595.658 959.037 598.967 920.571 603.633C853.547 611.772 786.462 625.108 718.152 630.906C706.716 631.873 635.776 635.112 633.076 636.618C627.505 639.731 648.446 640.41 652.897 640.543C673.324 641.152 694.142 639.068 714.363 638.179C714.767 639.302 711.321 639.263 709.538 639.49C681.191 643.087 651.102 645.256 621.82 646.739C590.948 648.299 559.427 648.299 528.613 649.954C525.896 650.102 519.157 650.227 520.658 652.201C544.071 652.154 567.303 653.395 590.782 653.021C637.659 652.279 690.117 648.331 734.294 641.3C739.496 640.473 775.179 634.253 776.4 633.387C776.957 632.989 777.269 631.109 775.75 631.14C758.001 632.701 739.391 636.751 721.712 637.976C719.855 638.101 715.706 638.811 716.11 637.398C792.511 630.055 864.777 613.473 940.941 605.795C969.925 602.876 998.864 602.018 1027.77 599.708C1031 599.451 1039.34 599.771 1037.81 597.617V597.625ZM1494.45 599.185C1491.34 597.757 1463.39 604.601 1459 606.201L1447.77 611.655L1466.17 607.09C1473.4 605.327 1485.32 604.375 1491.63 602.19C1493.72 601.464 1496.22 599.989 1494.45 599.177L1494.45 599.185ZM1262.68 622.572C1315.28 631.951 1378.53 627.925 1415.78 607.777C1417.54 606.825 1425.51 602.65 1423.52 601.526C1383.18 615.869 1343.45 626.466 1289.7 624.047C1281.01 623.657 1272.97 621.94 1264.98 621.144C1261.64 620.808 1262.68 621.362 1262.68 622.58V622.572ZM622.456 619.568C620.27 618.116 555.419 611.71 546.955 611.109C472.534 605.834 439.314 620.488 373.625 628.424C296.192 637.781 226.451 623.625 149.637 623.516C115.175 623.461 80.1722 626.021 45.8371 627.254C33.8741 627.683 21.5862 627.402 9.5002 628.042C6.9232 628.175 4.21451 628.659 6.94515 629.603C66.9799 631.632 127.581 628.783 187.466 632.045C261.804 636.103 312.857 646.427 389.561 635.619C426.583 630.399 463.841 619.068 502.417 617.874C542.389 616.641 582.774 622.907 622.711 622.58C622.404 621.698 623.387 620.192 622.461 619.575L622.456 619.568ZM951.346 618.67C955.727 618.28 978.788 619.989 977.274 616.735C976.549 615.182 947.478 613.817 951.346 618.67ZM1198.68 617.125C1176.11 618.842 1153.31 621.206 1130.34 621.792C1081.2 623.04 1024.06 618.046 977.265 624.523C974.468 624.913 962.4 626.739 961.013 627.191C959.52 627.675 959.529 629.376 959.994 629.595C961.197 630.157 988.934 626.911 993.947 626.583C1043.52 623.36 1089.02 627.191 1137.26 625.693C1157.14 625.077 1182.82 622.556 1198.68 617.133L1198.68 617.125ZM838.911 628.807C858.433 627.621 877.522 625.381 897.101 624.25C906.128 623.727 929.891 623.867 935.335 622.775C941.845 621.464 939.971 619.771 933.263 619.427C911.462 618.311 865.98 623.594 844.763 627.168C842.559 627.543 839.455 627.34 838.915 628.815L838.911 628.807ZM1615.53 629.595C1616.05 628.019 1614.19 627.566 1611.15 627.285C1601.61 626.411 1530.68 622.993 1527.33 624.14L1529.87 625.701L1615.52 629.595H1615.53ZM591.418 640.457C593.982 639.614 592.761 636.548 589.724 635.486C586.317 634.3 566.087 631.218 560.806 630.594C550.963 629.423 538.228 628.323 528.148 628.331C525.321 628.331 507.589 629.267 506.812 629.603C501.395 631.951 515.03 630.289 516.229 630.344C522.48 630.609 532.209 631.429 538.311 632.162C546.371 633.13 587.542 641.729 591.418 640.457ZM1229.81 631.163C1213.76 632.271 1200.63 636.774 1184.93 638.608C1180.31 639.146 1171.35 637.983 1172.75 640.512C1186.92 640.028 1201.47 639.724 1214.73 637.219C1217.83 636.633 1233.6 632.974 1229.81 631.156V631.163ZM512.005 634.277C449.736 636.259 403.508 658.007 348.851 668.721C295.2 679.24 225.12 681.768 166.859 681.097C162.728 681.05 152.548 678.834 153.966 681.838C213.592 684.445 278.175 683.524 335.567 675.205C391.211 667.145 434.371 647.878 489.137 639.942C497.711 638.701 514.644 639.255 512.005 634.269V634.277ZM1556.73 638.959C1552.41 637.063 1470.88 637.117 1458.93 637.359C1372.05 639.131 1309.12 652.318 1232.67 668.705C1231.43 668.97 1221.44 670.508 1224.64 671.702C1295.95 659.731 1360.96 645.771 1438.27 642.861C1474.42 641.495 1511.38 643.18 1547.21 641.292C1548.73 641.214 1560.45 640.59 1556.73 638.959H1556.73ZM413.399 639.739C409.325 639.443 408.478 641.862 404.794 642.47C406.406 642.642 416.283 641.089 413.399 639.739ZM807.785 645.966C820.652 645.763 833.713 645.194 846.422 644.289C849.728 644.054 870.036 642.634 870.01 641.682C869.949 639.474 848.929 641.23 845.434 641.503C835.267 642.299 823.339 643.75 812.943 644.796C811.033 644.991 807.35 644.804 807.789 645.958L807.785 645.966ZM709.196 664.679C797.78 662.782 887.65 659.029 976.492 660.754C1044.17 662.072 1177.82 676.22 1233.32 656.516C1237.12 655.166 1250.56 649.22 1250.19 647.262C1250 646.216 1247.68 644.39 1244.84 644.499C1242.45 644.593 1221.93 650.25 1216.6 651.312C1148.54 664.835 1076.86 657.133 1005.8 655.33C961.223 654.199 913.784 654.753 869.198 656.111C818.984 657.64 769.011 661.058 718.938 663.227L709.192 664.671L709.196 664.679ZM39.8051 646.739C41.4734 647.519 63.0683 650.118 67.0765 650.438C84.0794 651.788 138.679 654.058 153.07 651.421C159.875 650.172 158.07 647.589 152.745 646.903C150.519 646.614 135.325 645.904 132.327 645.896C118.621 645.865 103.576 647.706 89.0139 647.55C75.7865 647.41 53.9984 644.484 42.3733 645.17C39.9939 645.311 37.3642 645.584 39.8051 646.723V646.739ZM476.999 650.773C472.573 650.968 455.004 654.667 456.664 657.273C458.174 659.638 479.198 655.525 481.784 654.581C486.876 652.716 482.192 650.547 476.994 650.781L476.999 650.773ZM1444.3 652.209H1420.08V653.77H1444.3V652.209ZM1703.74 658.459C1675.79 659.404 1647.9 659.88 1620.15 661.706C1571.2 664.921 1524.72 671.358 1479.46 680.16L1345.71 709.142C1348.71 709.353 1351.11 708.963 1353.87 708.541C1398.43 701.635 1443.98 691.179 1488.84 683.61C1548.08 673.614 1608.98 664.749 1672 660.91C1681.65 660.324 1692.19 660.535 1701.19 660.02C1703.73 659.88 1706.53 659.419 1703.74 658.459H1703.74ZM486.047 659.232C483.72 658.21 473.034 660.051 469.913 660.917C467.648 661.55 452.822 667.706 454.93 668.58C458.178 669.922 464.741 665.795 467.138 665.123C471.076 664.015 490.964 661.386 486.047 659.232ZM1464.65 664.523C1468.19 663.36 1467.43 659.357 1460.74 659.942C1450.36 661.401 1395.34 660.964 1390.69 663.141C1388.23 664.289 1392.28 664.858 1394.06 665.077C1398.41 665.623 1407.53 666.154 1412.23 666.278C1419.36 666.466 1460.87 665.755 1464.65 664.515V664.523ZM562.171 674.043C582.66 673.551 604.957 671.647 624.805 669.142C630.345 668.44 660.281 664.632 659.017 661.963C658.565 661.011 655.101 660.777 653.064 660.746C637.76 660.543 581.527 669.002 565.951 672.271C563.519 672.779 561.227 671.803 562.171 674.035V674.043ZM1321.5 664.694C1316.58 666.598 1340.84 670.882 1342.62 671.148C1350.6 672.342 1385.6 676.758 1391.62 676.43C1402.96 675.814 1396.29 671.733 1388.68 670.664L1321.5 664.694ZM1022.05 670.235C1020.53 669.415 991.489 667.137 986.866 666.996C955.56 666.029 915.057 667.285 882.943 667.777C703.291 670.547 522.52 682.182 347.354 700.028C316.812 703.141 284.088 706.832 254.293 711.101C251.101 711.561 242.637 711.787 243.91 713.824C337.297 706.544 429.397 696.984 523.464 691.311C665.15 682.767 819.888 675.728 962.598 673.286C971.145 673.137 1020.22 674.253 1022.26 673.278C1022.49 673.169 1022.53 670.508 1022.05 670.25V670.235ZM1145.07 706.801C1202.39 708.362 1272.51 718.756 1321.51 700.184C1329.5 697.156 1346.86 688.814 1343.64 683.969C1340.69 679.528 1307.85 673.824 1297.96 673.356C1272.36 672.154 1285.49 677.367 1281.46 679.411C1280.65 679.817 1274.68 679.427 1273.28 681.62C1270.02 686.715 1293.57 688.167 1297.15 686.481C1297.53 686.302 1297.66 682.985 1297.3 682.353C1296.85 681.573 1294 681.916 1293.84 681.838C1292.22 681.003 1293.41 680.223 1296.38 680.285C1302.37 680.418 1328.86 684.593 1329.89 687.02C1331.55 690.913 1300.26 701.557 1292.15 703.329C1244.77 713.66 1197.06 705.56 1149.42 705.217C1145.85 705.194 1144.35 704.78 1145.06 706.801H1145.07ZM88.2236 676.384C89.5056 676.867 113.958 678.498 112.435 675.229C111.465 673.145 94.5849 674.074 90.6338 674.737C88.9041 675.026 85.2779 675.268 88.2236 676.376V676.384ZM1416.18 684.78C1419.85 683.391 1419.5 680.246 1412.39 680.262C1405.27 680.278 1374.32 682.977 1367.35 684.203C1349.92 687.269 1384.36 687.503 1389.79 687.301C1393.21 687.168 1414.92 685.256 1416.18 684.78H1416.18ZM432.448 713.036C510.056 716.711 587.586 709.54 665.15 710.672C777.164 712.295 920.281 728.908 1026.9 708.502C1045.47 704.944 1054.99 700.059 1069.82 694.324C1070.95 691.967 1072.73 687.23 1067.81 685.88C1063.61 684.725 1041 682.369 1035.03 681.947C970.179 677.367 905.816 687.004 844.1 694.339C844.047 695.658 843.129 696.032 846.545 695.837C852.34 695.51 858.029 695.322 863.781 695.018C927.24 691.592 996.559 675.51 1058.55 690.047C1046.14 699.911 1021.06 703.196 997.727 705.506C886.556 716.516 768.757 701.471 656.361 703.664C618.237 704.405 580.25 707.8 542.258 709.15C506.658 710.414 470.629 710.203 435.003 711.499L432.452 713.059L432.448 713.036ZM1068.97 683.399C1071.07 684.445 1093.06 686.356 1097.52 686.52C1139.6 688.073 1168.41 686.926 1211.16 692.217C1218.58 693.137 1245.93 698.272 1249.82 698.217C1257.21 698.108 1256.76 692.248 1248.88 691.592C1200.09 686.598 1151.31 681.838 1101.02 681.05C1094 680.941 1085.3 680.839 1078.39 681.05C1077.05 681.089 1065.25 681.573 1068.96 683.414L1068.97 683.399ZM803.759 685.857C801.393 685.958 794.601 688.143 790.953 688.697C750.309 694.839 718.029 688.416 678.83 690.398C670.339 690.828 670.703 692.607 678.891 693.567C697.646 695.759 737.301 697.226 756.728 696.672C765.021 696.43 800.76 693.629 806.064 691.624C809.282 690.406 808.887 685.654 803.755 685.872L803.759 685.857ZM1143.33 698.998C1146.73 697.437 1140.86 695.143 1136.8 694.542C1102.44 689.454 1069.22 704.288 1041.8 711.327C998.561 722.423 948 727.542 898.568 729.415C842.998 731.522 771.996 727.558 720.426 736.446C718.424 736.789 714.152 736.828 714.385 737.999C723.969 738.724 733.908 737.32 742.846 737.195C831.605 735.939 945.652 740.948 1025.75 722.033C1053.4 715.51 1091.64 697.336 1121.71 697.398C1126.02 697.406 1141.6 699.801 1143.33 699.013L1143.33 698.998ZM803.153 700.808C801.063 701.893 799.887 704.171 803.491 704.468C804.273 704.53 817.878 702.244 818.145 701.721C819.357 699.38 808.281 698.139 803.153 700.808ZM1089.72 709.15C1088.69 709.798 1090.6 711.148 1092.62 711.343L1168.58 716.118C1173.79 716.064 1174.75 712.458 1169.79 711.639C1163.37 710.57 1146.31 709.626 1138.79 709.243C1131.63 708.877 1092.35 707.511 1089.72 709.15ZM1321.48 708.37C1297.72 713.606 1275.48 717.655 1249.16 719.817C1225.36 721.768 1196.04 723.219 1171.86 723.953C1135.98 725.037 1063.36 722.135 1034.89 730.828C1032.67 731.506 1030.17 731.709 1030.92 733.317C1043.42 732.576 1055.83 731.03 1068.34 730.312C1137.28 726.356 1214.86 732.841 1282.08 722.962C1296.58 720.831 1318.67 715.79 1321.48 708.37H1321.48ZM468.456 718.631C467.801 718.436 456.29 717.757 454.122 717.687C430.332 716.961 406.616 719.731 383.129 720.831C296.526 724.881 217.85 729.415 137.77 745.904L107.268 753.582C183.23 738.81 267.784 730.008 350.287 726.302C363.87 725.693 381.9 724.819 395.176 724.702C406.537 724.6 465.799 727.035 470.286 723.859C471.353 723.102 469.825 719.021 468.456 718.623V718.631ZM1068.96 721.62H1113.06C1114.21 721.62 1119.71 720.246 1117.39 719.286C1114.81 718.217 1090.74 718.381 1085.79 718.686C1082.09 718.912 1071.36 720.121 1068.95 721.62H1068.96ZM539.676 729.423H601.081C602.42 729.423 621.811 726.606 622.39 726.169C623.58 725.279 624.146 723.141 620.107 723.157C611.433 723.188 596.857 725.49 586.958 726.177C575.078 726.996 563.001 727.23 551.139 727.964C548.518 728.128 540.651 728.338 539.681 729.431L539.676 729.423ZM721.299 723.18C683.479 721.776 650.14 731.522 615.41 736.664C576.926 742.353 520.821 749.969 502.246 727.8C478.364 732.318 455.29 735.416 429.555 737.094C394.118 739.403 358.114 739.794 322.62 741.128C296.065 742.127 269.333 742.587 247.176 750.024C245.249 750.671 242.865 750.008 243.915 752.029C277.31 746.145 312.124 748.806 346.889 748.167C388.595 747.402 438.572 745.24 477.381 738.373C482.464 737.476 495.771 733.215 499.603 734.238C500.385 734.448 505.912 739.598 509.336 741.151C553.154 760.964 654.004 731.545 705.034 727.94C714.473 727.277 723.218 729.813 721.299 723.18ZM1292.09 748.143C1246.11 744.835 1201.31 752.084 1158.32 758.404C1149.54 762.252 1159.41 763.016 1168.06 762.15C1169.28 762.025 1169.13 760.863 1171.67 760.496C1181.05 759.161 1190.81 758.1 1200.39 757.094C1228.76 754.105 1262.65 753.286 1289.56 749.719C1292.1 749.384 1292.57 750.149 1292.09 748.143ZM104.665 753.598V754.378C105.788 754.12 105.788 753.855 104.665 753.598ZM916.747 754.386C913.134 754.159 912.809 754.308 913.305 755.939L916.747 754.386Z" fill="#5A3C26"/>
<path d="M1579.21 -0.539062C1565.85 2.45742 1552.23 5.58655 1538.13 7.84172C1529.17 9.27753 1520.15 9.96422 1511.76 11.1581C1512.77 10.3934 1512.87 10.2764 1514.67 9.77694C1525.58 6.77266 1547.45 3.823 1560.35 1.43518C1563 0.943571 1566.4 1.51321 1565.38 -0.539062H1579.22H1579.21Z" fill="#5A3C26"/>
<path d="M1727.97 35.332V42.3472C1679.29 37.9539 1627.41 41.0909 1578.83 44.8989C1563.27 46.1162 1527.77 48.6679 1514.63 51.0557C1511.27 51.6644 1512.68 53.2719 1510.58 54.099C1422.9 88.6054 1225.55 58.4923 1121.7 53.2719C1062.9 50.3144 1001 50.4705 941.755 50.1818C843.188 49.698 745.376 50.3222 648.623 59.8891C594.119 65.2812 490.263 82.3627 438.859 72.6007C426.852 70.3222 431.874 69.378 442.02 69.6199C538.65 71.8984 618.858 52.8037 713.754 47.1463C843.456 39.4132 1009.09 40.7631 1138.51 49.6043C1236.75 56.3152 1345.65 72.3666 1444.32 62.2535C1463.5 60.2871 1481.22 56.9473 1499.64 54.0444C1500.03 52.6242 1495.95 53.3655 1494.07 53.4826C1485.31 54.0132 1476.62 55.3632 1467.72 55.6441C1447.11 56.2996 1427.21 55.1525 1410.54 49.3546L1403.63 45.492C1449.91 60.8801 1505.6 45.9368 1554.93 41.1611C1610.86 35.7456 1670.97 33.0378 1727.97 35.3398V35.332Z" fill="#442E1A"/>
<path d="M0.0175781 24.4155C42.3821 27.6148 82.5385 22.371 123.937 19.8505C153.039 18.0714 182.396 16.8853 211.401 14.833C264.214 11.0874 328.929 1.86385 379.617 0.209544C429.151 -1.40575 510.047 -1.41355 559.546 0.248561C596.519 1.48929 638.094 7.8334 673.215 12.9446C678.136 13.6625 685.977 12.8431 684.98 16.222C684.093 19.1951 615.169 9.81545 608.882 9.19898C537.139 2.16818 459.416 1.84044 386.848 6.58487C340.98 9.58915 295.972 15.5821 249.67 18.8205C213.64 21.341 177.387 22.5193 141.234 24.5247C105.003 26.5302 67.1863 31.5711 30.463 29.0116C20.2428 28.3015 10.0051 26.3351 0.0175781 25.188V24.4077L0.0175781 24.4155Z" fill="#442E1A"/>
<path d="M1302.46 -0.539062H1314.57C1314.92 1.45079 1311.83 1.40397 1309.14 2.08286C1232.95 21.3493 1096.7 1.40397 1011.09 0.990391C979.491 0.842127 947.404 3.40162 915.861 4.13513C844.091 5.80505 763.871 7.8027 693.304 1.55223C692.382 1.4742 684.695 1.2479 687.566 0.241271L1089.05 0.303697L1094.9 -0.531259H1096.63C1163.68 5.11055 1236.96 10.7055 1302.46 -0.531259L1302.46 -0.539062Z" fill="#442E1A"/>
<path d="M1727.96 61.0674V64.1887C1638.65 58.4923 1551.22 70.4392 1463.95 76.557C1429.09 78.9994 1381.16 82.5812 1346.59 81.3326C1342.12 81.1688 1313.57 78.859 1312.82 77.8289C1311.53 76.0264 1316.66 76.7365 1318.87 76.6663C1343.56 75.9405 1368.64 75.9561 1393.25 75.0978C1497.72 71.4692 1598.76 56.1903 1704.59 59.5145C1711.85 59.7408 1720.69 60.4977 1727.96 61.0674H1727.96Z" fill="#442E1A"/>
<path d="M0.0175781 149.971V144.509C51.9394 137.837 99.7345 130.9 154.804 132.039C193.722 132.843 237.571 135.98 277.604 137.501C296.284 138.211 309.823 142.324 284.071 145.07C247.471 148.98 203.662 140.958 166.916 139.054C108.537 136.034 54.4593 140.857 0.0219682 149.963L0.0175781 149.971Z" fill="#442E1A"/>
<path d="M1452.95 -0.539062C1453.95 1.54443 1450.62 0.974784 1447.82 1.40397C1395.03 9.4414 1331.45 17.9236 1276.88 22.629C1220.62 27.4827 1121.41 31.0332 1071.26 17.5257C1068.47 16.7765 1062.84 16.1132 1063.78 14.2873C1068.35 13.6708 1066.5 15.3485 1068.5 15.8089C1120.2 27.7168 1225.48 21.716 1281.72 16.2381L1413.16 -0.539062H1452.95Z" fill="#442E1A"/>
<path d="M0.0161089 70.4322C60.0333 64.9933 118.812 73.3272 177.583 77.3303C212.256 79.6947 247.394 80.7482 281.962 83.3077C283.191 85.1181 278.178 84.408 275.913 84.4704C243.097 85.36 215.448 85.1961 182.702 83.5964C122.158 80.639 61.2581 73.0073 0.0117188 78.2277V70.4322H0.0161089Z" fill="#442E1A"/>
<path d="M0.0175781 35.3322C15.8351 35.0044 31.7317 34.864 47.5669 34.544C123.169 33.0224 198.718 30.5097 274.228 27.5366C277.885 27.3962 280.3 27.5679 278.513 29.4797C277.547 30.5097 236.267 34.5987 230.419 35.0981C160.27 41.13 90.4846 38.8281 19.8916 40.7789C13.2977 40.9584 6.60274 40.6775 0.0175781 40.7867V35.3244L0.0175781 35.3322Z" fill="#442E1A"/>
<path d="M0.0175781 55.6132C78.043 48.7697 158.544 47.5368 237.602 51.8208C282.319 54.2477 315.166 61.0288 356.244 64.6183C363.909 65.2894 408.636 67.0529 410.058 69.3471C413.654 75.1528 403.723 71.7583 398.539 71.2823C364.081 68.0986 336.963 65.2035 303.084 61.2863C226.209 52.3983 133.442 51.9223 54.7096 55.6991C36.4467 56.5731 18.1487 58.2508 0.0175781 59.5071V55.6054L0.0175781 55.6132Z" fill="#442E1A"/>
<path d="M1727.97 87.5828V89.9238C1668.16 94.0205 1612.63 106.428 1552.18 109.323C1501.87 111.734 1424.2 109.44 1380.44 97.2745C1376.49 96.1742 1369.88 94.6838 1368.18 92.6627C1375.36 92.1165 1382.74 94.9959 1389.78 96.182C1451.83 106.646 1531.99 104.883 1596.85 100.607C1641.26 97.6803 1683.9 91.2347 1727.97 87.5906L1727.97 87.5828Z" fill="#442E1A"/>
<path d="M1727.96 72.7643V77.4463C1696.84 78.0549 1664.65 73.6149 1633.62 74.2937C1594.58 75.1521 1553.34 82.3 1514.13 84.3678C1511.17 84.5239 1491.8 85.6164 1491 85.2418C1490.65 85.0857 1491.2 83.5407 1490.98 82.9086C1531.24 79.9356 1571.84 71.7655 1612.96 70.4389C1651.41 69.1982 1689.73 72.3195 1727.97 72.7721L1727.96 72.7643Z" fill="#442E1A"/>
<path d="M1601.7 -0.539072C1602.72 1.5132 1599.32 0.951365 1596.66 1.43517C1578.79 4.72037 1561.22 8.38014 1542.91 11.1659L1557.68 11.9697C1604.92 10.4636 1653.12 8.0524 1696.83 -0.546875H1708.94C1709.88 1.46638 1706.78 1.045 1704.21 1.56783C1671.26 8.27089 1634.79 12.1804 1598.89 14.1702C1587.18 14.8179 1513.74 17.3774 1510.18 14.9818C1509.47 13.6552 1510.25 12.2974 1511.76 11.1503C1520.15 9.95641 1529.17 9.26972 1538.13 7.8339C1552.23 5.57874 1565.86 2.4496 1579.21 -0.546875H1601.7V-0.539072Z" fill="#442E1A"/>
<path d="M1565.38 -0.539072C1566.4 1.52101 1562.99 0.943561 1560.34 1.43517C1547.45 3.83079 1525.58 6.77265 1514.67 9.77693C1512.87 10.2685 1512.76 10.3856 1511.75 11.1581C1459.02 18.6727 1409.15 29.3243 1353.24 32.8826C1320.39 34.9739 1278.26 35.6294 1246.16 31.4702C1243.81 31.1659 1240.8 31.3766 1240.19 29.8783C1346.84 39.8588 1450.2 18.8444 1544.61 -0.546875H1565.37L1565.38 -0.539072Z" fill="#442E1A"/>
<path d="M13.8563 -0.539062C49.5216 4.73599 91.2715 5.82846 128.864 4.91547C143.742 4.55651 227.123 -1.28818 233.428 1.84876C233.757 2.01263 233.827 4.55651 233.322 4.82963C232.436 5.31344 209.629 7.61542 206.284 7.84172C153.475 11.4547 71.3668 9.30094 20.0069 2.53545L6.9375 -0.539062H13.8563Z" fill="#442E1A"/>
<path d="M1696.83 -0.539062C1653.12 8.06021 1604.92 10.4714 1557.68 11.9775L1542.91 11.1737C1561.22 8.38795 1578.79 4.73599 1596.66 1.44298C1599.32 0.951374 1602.72 1.52102 1601.7 -0.531259H1696.83V-0.539062Z" fill="#5A3C26"/>
<path d="M0.0175781 137.494V132.032C43.4314 131.844 86.4062 121.887 128.907 120.342C134.833 120.124 164.388 119.226 162.601 123.05L0.0175781 137.494Z" fill="#442E1A"/>
<path d="M1302.46 -0.539062C1236.96 10.6977 1163.68 5.10275 1096.63 -0.539062H1302.46Z" fill="#5A3C26"/>
<path d="M0.0175781 16.62C38.0491 15.8865 76.085 13.171 114.191 14.677C113.195 17.2209 105.481 17.8998 100.757 18.7581C80.1327 22.4959 60.6494 22.6754 38.9315 23.6352L0.0175781 22.0746V16.6122V16.62Z" fill="#442E1A"/>
<path d="M1727.97 100.061V107.076C1705.06 107.826 1678.99 106.952 1656.66 108.848C1632.54 110.892 1610.02 118.368 1585.34 118.805C1583.14 118.844 1576.18 119.414 1577.48 117.611C1606.46 116.55 1629.75 107.451 1657.33 104.47C1679.85 102.036 1705.1 101.95 1727.97 100.053L1727.97 100.061Z" fill="#442E1A"/>
<path d="M1727.97 119.562V124.244C1680.26 120.327 1637.02 136.253 1591.75 139.648C1589.29 139.835 1585.4 140.592 1586.12 138.68C1633.31 132.679 1676.32 115.77 1727.96 119.562H1727.97Z" fill="#442E1A"/>
<path d="M0.0175781 96.9468C11.085 96.6425 21.854 98.0471 19.0443 103.97C30.722 103.525 41.1529 101.129 53.2433 100.279C77.582 98.5699 103.585 99.1942 128.011 100.076C127.326 101.543 124.596 101.488 122.001 101.644C111.166 102.308 99.5589 101.949 89.1105 102.409C62.9235 103.572 36.3414 105.008 11.2826 108.652C10.0051 103.954 12.1738 100.279 0.0175781 98.4997V96.939L0.0175781 96.9468Z" fill="#442E1A"/>
<path d="M1727.96 22.8548V26.7565L1580.93 27.1388C1579.78 25.3284 1584.65 26.0151 1586.98 25.9761C1595.59 25.8201 1604.33 26.218 1612.92 25.9683C1651.22 24.8446 1689.41 21.9808 1727.96 22.8548Z" fill="#442E1A"/>
<path d="M0.0175781 115.66C31.3278 114.38 61.365 110.611 89.1061 103.955C92.5523 103.604 92.1879 104.876 91.7972 105.945C91.3406 107.193 84.9882 108.91 82.5121 109.573C58.248 116.12 28.0967 118.929 0.0219682 119.561V115.66H0.0175781Z" fill="#442E1A"/>
<path d="M0.0175781 87.5828L138.403 88.7455C93.1713 93.8098 46.1006 90.6105 0.0175781 90.7041V87.5828Z" fill="#442E1A"/>
<path d="M1727.96 8.03613V11.9378L1689.89 13.8808C1689.67 12.3046 1693.1 12.1563 1695.44 11.7037C1705.39 9.79188 1717.41 9.09739 1727.96 8.03613H1727.96Z" fill="#442E1A"/>
<path d="M970.359 94.6069C971.171 94.9736 970.394 97.3849 968.682 98.134C966.131 99.2499 932.692 104.876 926.756 105.742C790.746 125.672 698.255 105.539 568.212 100.061C513.063 97.736 439.858 104.392 390.952 94.9737C384.222 93.6783 373.809 91.6884 370.156 88.7544L412.481 92.2893C482.275 90.4711 539.79 87.6385 609.202 94.0607C721.049 104.4 804.768 119.133 921.572 102.621C927.972 101.716 968.524 93.7719 970.363 94.6069H970.359Z" fill="#442E1A"/>
<path d="M1544.42 136.026L1544.63 139.054C1541.72 140.419 1474.49 132.788 1464.02 132.117C1435.29 130.283 1398.32 129.339 1369.13 128.886C1201.89 126.295 1035.49 142.378 868.297 139.444C868.284 137.727 904.331 138.39 908.945 138.266C1073.03 133.943 1236.25 114.793 1401.67 123.564C1449.82 126.116 1496.93 131.929 1544.41 136.018L1544.42 136.026Z" fill="#442E1A"/>
<path d="M1087.99 32.9987C1090.92 34.1067 1087.32 34.3486 1085.58 34.6374C1081.23 35.3631 1069.83 35.9015 1064.61 36.1044C968.95 39.8188 873.263 27.825 777.751 33.1079C721 36.2448 664.781 46.358 607.139 43.1274C605.804 41.2156 610.519 41.2468 613.632 41.0127C664.21 37.2905 712.73 31.4614 762.483 27.7782C843.107 21.8087 956.117 26.1083 1038.67 29.8773C1044.92 30.166 1086.09 32.2729 1087.99 32.9909V32.9987Z" fill="#442E1A"/>
<path d="M539.866 48.4964C542.46 49.5967 560.829 45.578 556.921 49.7372C552.167 54.8015 504.776 55.8784 493.77 55.6443C437.234 54.4426 384.908 51.2276 329.29 47.919C266.867 44.2046 215.336 44.7352 153.167 45.5078C109.516 46.0462 65.7251 41.9495 22.9478 45.2971C19.607 45.5624 20.8801 45.2659 20.7704 43.9159C62.1384 41.0209 104.428 42.8312 146.253 42.3864C183.117 41.9963 219.098 40.0064 256.954 40.7633C338.461 42.3942 418.681 52.3123 500.75 50.9233L527.569 49.3782C479.313 49.6904 432.19 44.4777 384.631 41.6841C355.121 39.9518 325.444 38.7579 295.793 37.6732C292.922 36.7056 295.986 36.253 298.366 36.1126C307.822 35.5663 324.75 35.8941 334.791 36.0813C370.759 36.768 406.314 39.8582 441.966 41.5671C469.343 42.878 499.543 42.7766 526.467 44.7977C529.062 44.9928 536.771 45.4141 538.048 45.8355C539.958 46.4676 539.238 48.2233 539.875 48.4886L539.866 48.4964Z" fill="#442E1A"/>
<path d="M1065.49 107.091C1065.74 108.215 1061.4 108.355 1059.47 108.652C1014.82 115.495 963.038 116.994 916.727 121.504C858.848 127.138 797.478 139.288 737.738 137.493C676.641 135.652 611.474 121.449 553.107 113.115C548.919 112.515 528.523 110.603 527.566 110.197C524.993 109.105 527.741 108.785 530.134 108.644C582.916 105.609 653.711 122.503 707.139 127.115C758.204 131.524 795.88 129.19 846.195 125.577C919.611 120.302 991.938 112.039 1065.49 107.099L1065.49 107.091Z" fill="#442E1A"/>
<path d="M645.19 93.0381C653.013 89.8154 667.259 88.3171 677.681 87.0296C705.049 83.6507 734.094 82.0042 761.818 78.9531C844.299 69.87 928.269 53.6625 1014.49 53.288C1066.7 53.0617 1113.29 58.6098 1163.73 62.4101C1198.11 65.0008 1235.35 65.0788 1268.33 70.6192C1270.84 71.0405 1299.04 76.3 1286 77.4549C1284.72 77.5719 1266.21 73.8497 1262.31 73.3347C1231.19 69.1755 1201.83 68.7698 1170.43 66.4054C1126.28 63.0811 1081.98 57.9309 1037.03 57.1428C941.237 55.4729 855.661 75.1685 764.553 84.0877C725.213 87.9426 684.903 90.1353 645.186 93.0381H645.19Z" fill="#442E1A"/>
<path d="M667.666 76.675C668.667 78.6102 660.366 79.531 657.24 80.1553C583.429 95.0284 491.342 83.261 414.26 80.5766C330.747 77.666 244.315 80.92 163.181 69.7456C160.363 69.3555 158.295 70.3777 159.16 68.0913C172.572 69.6676 186.273 71.0176 200.041 71.8759C265.159 75.9415 331.415 73.5771 396.959 75.1143C462.969 76.6672 527.723 82.8708 594.141 80.561C618.699 79.7027 643.042 77.2836 667.662 76.675H667.666Z" fill="#442E1A"/>
<path d="M861.406 93.038C860.523 90.8297 862.565 91.7583 865.199 91.2823C874.624 89.5889 887.303 88.2624 897.348 87.0216C981.954 76.5496 1111.9 66.1633 1188.15 90.3771C1191.3 91.3759 1213.67 98.7188 1202.83 100.022C1193.75 99.2026 1186.14 96.2218 1177.37 94.4582C1080.07 74.9187 962.493 85.2971 861.401 93.0302L861.406 93.038Z" fill="#442E1A"/>
<path d="M702.279 18.9446L727.369 17.3996C792.54 17.3605 857.764 14.3407 922.786 16.6192C973.417 18.3906 1023 24.2509 1073.5 26.6543C1116.28 28.691 1170.26 27.0913 1209.52 34.7386C1215.97 35.9949 1229.34 39.1943 1215.38 40.7471C1161.19 35.3784 1105.81 33.4822 1051.05 29.76C1023.62 27.895 996.658 24.8283 969.22 22.9867C880.623 17.025 791.754 19.3738 702.284 18.9524L702.279 18.9446Z" fill="#442E1A"/>
<path d="M525.828 121.91C526.289 122.932 522.65 123.15 521.091 123.268C437.499 129.432 389.129 138.82 302.337 128.699C264.92 124.337 228.166 118.742 190.661 114.309C188.826 114.091 183.386 114.52 185.107 112.944C186.578 111.594 190.13 111.828 192.781 111.719C249.844 109.471 301.406 124.703 357.213 126.568C413.797 128.457 469.327 121.059 525.824 121.91H525.828Z" fill="#442E1A"/>
<path d="M416.871 110.206C421.134 111.649 408.705 112.375 407.142 112.445C346.265 115.294 280.488 99.6089 220.563 100.857C166.161 101.989 117.044 120.381 62.2905 121.115C61.913 119.094 62.0139 119.812 64.8807 119.585C131.935 114.162 177.983 92.6249 249.933 94.6147C305.823 96.1598 361.52 107.014 416.867 110.206H416.871Z" fill="#442E1A"/>
<path d="M1625.9 121.902C1627.15 123.853 1620.59 124.306 1617.64 124.797C1567.2 133.202 1510.01 127.716 1459.5 122.456C1394.8 115.722 1330.85 106.03 1264.39 103.182V100.849C1331.68 97.5404 1395.38 110.931 1459.49 117.782C1498.74 121.973 1541.34 125.312 1581.87 124.275C1596.6 123.9 1611.12 122.051 1625.9 121.91L1625.9 121.902Z" fill="#442E1A"/>
<path d="M219.69 151.525C218.781 151.111 218.667 149.761 221.986 150.097C230.661 150.963 239.911 152.742 249.029 153.514C356.31 162.559 448.472 139.078 549.993 130.065C557.281 129.418 579.925 127.17 585.531 127.342C592.107 127.545 590.997 131.876 585.145 132.656C526.835 135.192 472.117 145.056 415.866 151.478C360.349 157.814 305.811 162.309 249.073 155.84C245.381 155.418 220.779 152.024 219.69 151.532V151.525Z" fill="#442E1A"/>
<path d="M1058.59 61.8553V64.1885C1053.03 63.5252 1046.62 64.883 1041.96 64.8908C1015.84 64.9376 994.144 63.0336 967.219 65.4995C914.7 70.3141 853.682 84.3601 799.122 91.0944C775.793 93.9738 752.179 96.19 728.217 97.7194C726.975 95.6047 734.873 95.2926 738.126 94.7854C771.038 89.6664 806.48 86.2407 839.805 81.3636C886.674 74.5045 949.29 59.7796 997.09 59.4753C1017.14 59.3504 1038.51 61.5666 1058.59 61.8553H1058.59Z" fill="#442E1A"/>
<path d="M1682.99 82.1294C1686.37 86.905 1667.5 89.8703 1659.23 91.2983C1618.79 98.2901 1530.61 101.107 1490.07 94.6381C1482.48 93.4286 1475.95 91.2515 1468.53 89.9171C1468.1 88.4345 1471.62 89.527 1473.4 89.6674C1490.68 91.0174 1508.94 93.2882 1526.47 93.8188C1581.11 95.4731 1632.42 90.9237 1682.98 82.1294H1682.99Z" fill="#442E1A"/>
<path d="M1030.91 93.8184C1030.48 92.6557 1034.15 92.8508 1036.07 92.6557C1092.85 86.7954 1148.73 100.857 1202.73 106.429C1208.36 107.576 1205.79 112.461 1199.88 112.39C1143.84 105.36 1091.1 90.7751 1030.91 93.8184Z" fill="#442E1A"/>
<path d="M572.531 50.1582C572.444 52.0388 565.828 53.8023 562.72 54.6919C540.22 61.1453 506.447 64.251 479.988 64.9611C438.392 66.077 394.728 64.3915 354.615 59.4988C355.138 58.0708 363.466 58.6638 365.832 58.7341C403.187 59.8733 438.681 63.6736 476.533 61.8398C509.696 60.2323 541.248 54.8714 572.536 50.1504L572.531 50.1582Z" fill="#442E1A"/>
<path d="M496.275 19.8039C496.938 20.1551 496.666 22.4805 496.188 23.1359C494.361 25.6564 468.771 23.846 462.932 23.5339C448.836 22.7926 433.629 20.9354 419.448 20.5218C384.92 19.5074 351.599 21.4738 318.287 25.1882C318.05 24.1426 322.186 23.8304 324.025 23.5027C361.266 16.8699 433.26 15.0283 472.88 17.4863C476.024 17.6814 495.498 19.3903 496.271 19.8039H496.275Z" fill="#442E1A"/>
<path d="M849.277 54.052C850.463 55.956 843.386 56.2916 840.554 56.7363C824.548 59.2412 807.971 60.8487 792.237 63.8062C770.198 67.9497 714.786 82.8151 694.473 82.7449C687.475 82.7214 674.489 79.3426 685.803 78.9993C722.842 77.8834 737.242 71.5393 769.105 65.0781C794.937 59.8421 820.698 55.2147 849.277 54.052Z" fill="#442E1A"/>
<path d="M1233.27 46.2413C1232.4 45.8589 1231.97 44.5948 1235.45 44.8679C1276.16 48.0516 1317.33 49.4016 1358.67 50.1507C1364.11 50.4551 1364.36 52.7883 1360.54 54.107C1358.05 54.9732 1337.86 54.2319 1332.74 54.0368C1323.21 53.6857 1311.69 52.9053 1302.07 52.2654C1293.84 51.7192 1235.8 47.3259 1233.27 46.2335L1233.27 46.2413Z" fill="#442E1A"/>
<path d="M1217.71 87.5754C1216 86.8029 1217.37 85.9601 1220.28 86.0226C1231.81 86.2801 1247.39 89.3468 1260.31 89.8306C1265.21 90.0101 1270.84 90.0959 1275.72 89.9554C1284.47 89.6979 1300.02 86.7639 1305.18 86.8263C1313.34 86.9199 1307.89 90.4627 1304.23 91.8985C1288.68 98.0007 1265.14 94.9574 1247.49 92.4993C1243.71 91.9687 1218.84 88.0904 1217.72 87.5832L1217.71 87.5754Z" fill="#442E1A"/>
<path d="M487.526 35.4491C488.456 36.1436 487.513 37.5404 487.785 38.4533C471.836 37.6418 456.325 35.4179 440.205 34.5673C424.084 33.7167 405.242 33.8962 388.296 33.0066C385.719 32.874 383.002 32.3902 385.741 31.446C398.942 30.8997 482.495 31.7035 487.521 35.4569L487.526 35.4491Z" fill="#442E1A"/>
<path d="M851.026 97.728V100.061L724.758 102.394C724.639 101.232 730.86 101.044 732.73 100.935C749.952 99.9208 770.551 99.0624 787.896 98.5084C808.934 97.8451 829.927 97.5408 851.026 97.728Z" fill="#442E1A"/>
<path d="M1022.25 17.4085L1021.36 18.9692C998.626 14.0375 972.558 14.4042 948.847 11.1112C945.857 10.6976 933.196 9.34765 937.507 7.26416C967.18 8.62194 995.869 10.8615 1022.25 17.4085H1022.25Z" fill="#442E1A"/>
<path d="M619.236 22.8633C618.977 23.7685 619.916 25.1809 618.99 25.8676C615.517 28.4505 539.072 35.255 527.583 33.7723C521.964 31.8449 538.756 32.2195 540.328 32.118C568.209 30.2842 592.421 25.7895 619.24 22.8633H619.236Z" fill="#442E1A"/>
<path d="M1525.6 29.0971V31.4303C1490.9 31.0089 1457.67 35.9016 1423.55 37.6651C1422.71 35.3242 1424.8 36.4088 1427.74 36.0889C1446.13 34.0678 1467.1 31.6254 1485.49 30.1193C1498.87 29.0269 1512.19 28.0124 1525.6 29.0971H1525.6Z" fill="#442E1A"/>
<path d="M371.89 100.061C347.784 98.8825 325.632 94.5204 301.85 92.2419C298.887 91.9609 296.696 93.108 297.53 90.7124C314.305 91.758 331.26 91.3757 347.718 93.4202C349.698 93.6699 377.106 98.0553 371.89 100.061Z" fill="#442E1A"/>
<path d="M690.152 64.9701C690.393 65.0871 690.968 67.8885 689.054 68.1148L600.225 75.0988L604.215 73.4367C615.327 73.8424 687.118 63.5342 690.152 64.9701Z" fill="#442E1A"/>
<path d="M1468.5 4.14233C1469.14 5.84346 1466.1 6.31946 1463.32 6.8657C1443.95 10.6737 1415.9 11.6804 1395.87 15.8317C1394.99 13.7482 1396.87 14.4739 1399.34 13.9277C1406.62 12.3124 1416.53 10.8766 1424.37 9.58126C1438.17 7.30268 1454.02 4.5247 1468.5 4.14233H1468.5Z" fill="#442E1A"/>
<path d="M1150.14 15.9012C1150.48 16.1509 1150.43 18.0939 1150.26 18.1719C1149.59 18.4919 1133.79 18.1563 1130.8 17.9769C1122.1 17.454 1107.66 15.113 1100.05 13.0998C1097.8 12.5067 1095.69 13.2402 1096.64 11.1646C1106.64 12.6472 1116.9 14.1532 1127.38 14.8477C1131.52 15.1208 1148.66 14.8165 1150.14 15.909V15.9012Z" fill="#442E1A"/>
<path d="M1456.38 92.2736C1456.95 92.5233 1456.09 95.2935 1456.4 96.1675C1454.64 96.9634 1437.89 94.482 1434.48 93.9591C1428.99 93.1242 1420.54 91.8756 1416.62 89.9326C1421.81 90.3306 1454.95 91.6415 1456.38 92.2736Z" fill="#442E1A"/>
<path d="M555.236 22.0828C560.816 27.4124 526.437 29.3555 524.114 28.3176C523.214 27.9119 524.062 26.2029 525.87 25.6099C527.152 25.1885 554.182 21.599 555.231 22.0906L555.236 22.0828Z" fill="#442E1A"/>
<path d="M761.069 57.9546C765.736 60.1318 755.718 60.4205 752.811 60.8419C748.996 61.3959 730.905 65.3132 729.952 64.962C726.888 63.8383 732.279 63.2375 733.201 62.9488C737.038 61.7314 758.154 56.589 761.073 57.9546H761.069Z" fill="#442E1A"/>
<path d="M1357.79 87.6144C1357.99 87.7549 1358 89.8384 1357.82 89.9164C1357.27 90.1739 1344.59 90.7202 1342.25 91.4771C1340.28 88.0514 1355.15 85.8041 1357.78 87.6144H1357.79Z" fill="#442E1A"/>
<path d="M316.55 25.2035C316.589 26.5378 306.869 27.802 306.184 27.5288C302.282 26.0072 315.206 24.985 316.55 25.2035Z" fill="#442E1A"/>
<path d="M723.01 66.5298C724.897 67.3804 721.456 68.9332 719.568 68.0827C717.68 67.2321 721.122 65.6792 723.01 66.5298Z" fill="#442E1A"/>
<path d="M728.201 64.969C730.089 65.8196 726.647 67.3724 724.759 66.5219C722.872 65.6713 726.313 64.1185 728.201 64.969Z" fill="#442E1A"/>
<path d="M1029.16 93.8342C1030.34 94.1073 1028.15 95.1607 1025.72 94.5989C1024.55 94.3258 1026.74 93.2723 1029.16 93.8342Z" fill="#442E1A"/>
<path d="M1061.17 13.4988C1062.3 13.7563 1062.3 14.0216 1061.17 14.2791V13.4988Z" fill="#442E1A"/>
<path d="M716.969 68.0913C718.094 68.3488 718.094 68.6141 716.969 68.8716V68.0913Z" fill="#442E1A"/>
</g>
<defs>
<clipPath id="clip0_720_12024">
<rect width="1728" height="137" fill="white"/>
</clipPath>
</defs>
</svg>
