<svg width="1326" height="259" viewBox="0 0 1326 259" fill="none" xmlns="http://www.w3.org/2000/svg">
<path d="M653.611 -15.3748L78 243H1229.22L653.611 -15.3748Z" fill="#5A3C26"/>
<path d="M759.494 42.4112C757.935 43.7333 750.674 44.0149 747.425 44.3747C700.398 49.5612 617.057 53.3395 591.01 74.5233C574.187 88.2129 605.489 92.7188 628.695 95.6679C652.937 98.7501 687.149 102.348 711.958 103.381C714.298 103.475 750.933 102.661 738.803 106.15C735.445 107.12 699.863 106.009 692.931 105.728C664.716 104.594 613.005 101.175 590.905 93.2116C558.918 81.6732 590.874 64.9405 616.517 57.9158C656.234 47.0423 713.529 42.0827 759.498 42.4191L759.494 42.4112Z" fill="#442E1A"/>
<path d="M1001.65 165.149C1004.46 166.534 992.812 171.29 990.372 172.166C936.105 191.597 810.5 180.638 744.789 177.657C732.54 177.102 719.941 176.844 707.618 176.867C704.808 175.905 707.648 175.451 710.173 175.303C723.659 174.528 747.818 175.037 762.165 175.271C822.173 176.241 887.498 181.717 946.295 174.129C953.455 173.206 999.652 164.163 1001.64 165.149H1001.65Z" fill="#442E1A"/>
<path d="M711.66 17.707C712.6 19.9443 710.312 18.9665 707.88 19.475C662.381 29.0421 604.041 26.93 556 33.3289C599.62 17.8635 659.545 20.9691 711.66 17.707Z" fill="#442E1A"/>
<path d="M726.629 49.4446C727.169 51.2203 726.177 51.9166 723.056 52.9022C709.512 57.189 679.835 58.1747 661.735 63.4941C604.496 80.3206 671.99 92.7665 707.541 96.3962C709.258 99.2124 704.152 99.494 698.638 99.314C682.737 98.7743 638.818 89.3323 635.363 81.7131C629.884 69.627 648.841 63.2985 670.129 58.6988C687.992 54.8344 708.103 52.5971 726.629 49.4524V49.4446Z" fill="#442E1A"/>
<path fill-rule="evenodd" clip-rule="evenodd" d="M80.2051 242.01C86.5902 241.645 92.9706 241.258 99.3459 240.849C207.666 233.897 312.811 220.19 417.682 206.519C442.377 203.3 467.057 200.083 491.76 196.956C492.129 196.911 492.569 196.876 493.033 196.84C494.805 196.7 496.908 196.535 496.585 195.642C496.586 195.642 496.588 195.642 496.589 195.642H496.585C496.585 195.642 496.585 195.642 496.585 195.642C469.331 196.596 442.022 199.133 415.116 201.632C413.337 201.797 411.559 201.962 409.784 202.127C359.686 206.768 309.889 212.327 260.065 217.889C205.517 223.978 150.937 230.071 95.8946 234.967L80.2051 242.01Z" fill="#442E1A"/>
<path fill-rule="evenodd" clip-rule="evenodd" d="M133.973 217.876C202.602 215.524 269.965 207.303 337.251 199.091C423.978 188.507 510.576 177.938 599.591 179.973C613.635 180.294 633.535 181.28 647.132 182.719C649.209 182.938 653.179 183.59 658.019 184.385C672.162 186.708 693.728 190.25 697.153 187.772C697.451 187.553 697.398 185.574 697.236 185.488H697.24C697.115 185.419 695.936 185.322 694.423 185.196C692.327 185.022 689.59 184.795 688.122 184.518C599.38 167.715 528.01 171.877 436.033 181.17C396.645 185.151 357.812 189.86 318.989 194.567C261.416 201.548 203.866 208.527 144.56 213.124L133.973 217.876Z" fill="#442E1A"/>
<path fill-rule="evenodd" clip-rule="evenodd" d="M183.928 195.452C217.396 191.992 250.837 188.686 283.51 185.707C306.704 183.594 330.699 181.98 354.723 180.364C387.539 178.157 420.411 175.946 451.371 172.455C457.833 171.728 461.393 171.125 456.867 167.824C430.491 168.935 403.325 171.078 376.923 173.206C318.098 177.951 257.727 183.447 197.76 189.244L183.928 195.452Z" fill="#442E1A"/>
<path fill-rule="evenodd" clip-rule="evenodd" d="M244.914 168.078C246.251 167.964 247.588 167.851 248.926 167.738C311.768 162.457 375.772 159.319 439.251 156.207C441.964 156.075 444.675 155.942 447.385 155.809C454.243 155.472 456.157 153.626 448.97 152.617C428.141 152.89 407.679 154.521 387.242 156.15C374.916 157.132 362.598 158.114 350.215 158.797C336.55 159.549 322.771 159.867 309.003 160.185C297.418 160.452 285.84 160.72 274.345 161.245C268.964 161.492 263.607 161.772 258.27 162.082L244.914 168.078Z" fill="#442E1A"/>
<path fill-rule="evenodd" clip-rule="evenodd" d="M297.914 144.287C361.845 143.003 426.802 143.598 484.875 147.376C513.873 149.264 541.544 153.538 569.071 157.789C610.225 164.146 651.059 170.452 695.526 168.662C695.591 167.539 685.621 167.491 679.108 167.46C676.818 167.449 674.955 167.44 674.107 167.387C642.454 165.452 614.484 160.351 586.268 155.205C571.596 152.529 556.857 149.841 541.499 147.58C480.352 138.573 394.658 136.543 312.302 137.828L297.914 144.287Z" fill="#442E1A"/>
<path fill-rule="evenodd" clip-rule="evenodd" d="M345.775 243C354.032 242.154 362.277 241.259 370.498 240.366C393.57 237.861 416.451 235.376 438.891 234.058C459.298 232.86 484.084 232.45 509.873 232.024C557.142 231.242 607.78 230.405 640.999 224.554C641.275 224.505 641.548 224.46 641.814 224.416C644.128 224.031 645.935 223.731 645.336 222.223L645.332 222.23C605.671 226.85 565.164 226.76 524.686 226.67C508.064 226.633 491.446 226.596 474.895 226.885C438.04 227.529 402.079 230.522 366.146 233.512C324.399 236.986 282.689 240.457 239.659 240.238L196.496 238.635C193.852 240.55 199.038 241.994 204.601 243H345.775Z" fill="#442E1A"/>
<path fill-rule="evenodd" clip-rule="evenodd" d="M690.86 243C734.561 235.972 775.772 229.706 834.293 230.999C854.54 231.445 877.199 233.521 900.25 235.632C938.125 239.1 977.061 242.666 1008.11 239.267C1010.66 238.985 1041.06 233.924 1035.72 231.82C991.991 234.494 949.908 231.009 907.674 227.511C870.463 224.429 833.134 221.338 794.457 222.441C751.483 223.667 710.395 230.515 669.291 237.365C657.775 239.285 646.259 241.204 634.699 243H690.86Z" fill="#442E1A"/>
<path fill-rule="evenodd" clip-rule="evenodd" d="M1221.92 239.721C1209.25 241.031 1192.78 238.971 1176.18 236.895C1155.91 234.36 1135.45 231.802 1121.5 235.325C1120.98 235.457 1120.53 235.517 1120.16 235.565C1119.13 235.703 1118.73 235.755 1119.29 237.07V237.062C1134.02 236.165 1150.54 238.344 1167.21 240.542C1173.9 241.425 1180.61 242.31 1187.23 243H1226.5C1227.15 242.89 1227.8 242.773 1228.44 242.648L1221.92 239.721Z" fill="#442E1A"/>
<path fill-rule="evenodd" clip-rule="evenodd" d="M1181.12 221.406C1178.03 221.029 1175.01 220.742 1172.1 220.627C1126.36 218.818 1088.45 227.927 1050.57 237.027C1042.12 239.059 1033.66 241.091 1025.12 243H1061.65C1063.41 242.619 1065.15 242.236 1066.9 241.855C1099.24 234.788 1130.32 227.996 1172.11 229.225C1177.42 229.379 1184.14 230.008 1191.12 230.661C1195.5 231.071 1199.99 231.491 1204.29 231.809L1181.12 221.406Z" fill="#442E1A"/>
<path fill-rule="evenodd" clip-rule="evenodd" d="M1131.57 199.169C1114.29 201.187 1097.01 203.198 1079.53 204.646C1045.34 207.477 1006.13 209.198 971.405 208.142C958.737 207.758 945.813 206.701 932.821 205.638C915.174 204.195 897.401 202.741 879.976 202.948C878.435 202.972 874.036 203.363 875.402 204.622C876.403 205.545 897.528 210.168 901.361 210.873C946.109 219.118 999.519 218.961 1046.31 214.651C1070.66 212.408 1094.58 209.092 1118.53 205.773C1125.61 204.792 1132.69 203.81 1139.79 202.856L1131.57 199.169Z" fill="#442E1A"/>
<path fill-rule="evenodd" clip-rule="evenodd" d="M1106.69 187.997C1104.47 189.044 1102.32 190.155 1100.23 191.332C1101.46 192.338 1103.88 191.653 1105.59 191.17C1105.86 191.094 1106.11 191.023 1106.34 190.964C1107.83 190.576 1109.31 190.2 1110.78 189.836L1106.69 187.997Z" fill="#442E1A"/>
<path fill-rule="evenodd" clip-rule="evenodd" d="M1072.5 172.651C968.258 190.375 862.255 198.307 750.06 199.584C737.602 199.725 720.057 199.525 700.307 199.301C645.328 198.677 573.262 197.858 546.28 203.636C546.247 203.643 546.212 203.651 546.176 203.659C543.76 204.176 536.409 205.749 539.84 207.36C540.508 207.674 548.514 206.629 556.888 205.535C564.356 204.56 572.116 203.547 575.229 203.425C589.954 202.857 604.492 203.502 618.995 204.145C628.044 204.546 637.079 204.947 646.138 205.052C781.256 206.625 907.459 203.441 1036.17 184.267C1051.48 181.986 1066.87 179.579 1082.24 177.025L1072.5 172.651Z" fill="#442E1A"/>
<path fill-rule="evenodd" clip-rule="evenodd" d="M788.312 45.0881C776.282 47.555 764.727 50.3353 753.784 53.4953C729.076 60.6296 704.632 72.4731 712.253 86.8121C716.481 94.7677 739.134 100.118 755.588 101.628C802.882 105.973 856.432 104.303 909.806 99.6235L896.859 93.812C849.221 94.802 782.002 94.5888 745.684 89.6908C695.483 82.9242 739.301 62.3115 765.576 55.7092C746.711 70.9164 743.713 87.9151 791.504 90.0898H791.495C795.986 90.2959 800.785 90.2066 805.588 90.1171C809.898 90.0369 814.21 89.9566 818.305 90.0898C818.407 89.3058 818.522 88.9379 818.388 88.7613C818.202 88.5186 817.543 88.6372 815.724 88.5331C786.494 86.8512 747.796 84.5279 763.372 66.4341C769.532 59.2775 782.439 53.832 798.331 49.5856L788.312 45.0881Z" fill="#442E1A"/>
<path fill-rule="evenodd" clip-rule="evenodd" d="M759.816 32.2971C661.952 41.4051 564.796 51.8336 479.442 77.2609C479.037 77.3813 478.358 77.5673 477.495 77.8037C471.912 79.3336 458.625 82.9745 462.009 84.6142C468.874 83.0747 475.724 81.5235 482.572 79.9725C515.05 72.6174 547.499 65.2687 581.376 59.2218C645.512 47.7695 705.599 41.5951 767.799 35.8805L759.816 32.2971ZM846.107 71.0306C846.481 72.9628 850.202 74.9179 858.983 76.8102L876.987 84.8918C853.478 82.2478 829.979 75.8916 837.744 67.2764L846.107 71.0306Z" fill="#442E1A"/>
<path fill-rule="evenodd" clip-rule="evenodd" d="M943.607 114.795C859.327 119.101 767.056 114.311 682.212 109.906C658.564 108.678 635.492 107.48 613.332 106.517C592.361 105.608 571.17 104.616 549.882 103.62C500.577 101.314 450.756 98.9828 401.958 97.5854L383.188 106.011C388.404 106.149 393.626 106.314 398.853 106.51C438 107.971 476.797 109.761 515.552 111.55C581.751 114.604 647.828 117.653 715.323 119.049C718.588 119.117 721.837 119.185 725.068 119.252C807.288 120.966 878.667 122.454 949.673 117.518L943.607 114.795Z" fill="#442E1A"/>
<path fill-rule="evenodd" clip-rule="evenodd" d="M966.21 124.942C869.885 135.413 763.274 139.577 682.443 137.833C629.277 136.686 597.185 131.593 553.023 124.583C547.175 123.655 541.116 122.693 534.768 121.703C534.68 121.689 534.591 121.675 534.502 121.661C532.489 121.344 530.05 120.959 531.168 122.54C531.62 123.181 554.256 127.875 557.689 128.547C655.58 147.752 809.822 145.898 913.758 137.543C936.172 135.743 958.171 133.591 979.666 130.982L966.21 124.942Z" fill="#442E1A"/>
<path fill-rule="evenodd" clip-rule="evenodd" d="M1008.39 143.876C913.969 157.047 821.18 160.023 722.325 156.536C721.649 156.513 719.696 156.384 717.032 156.208C707.004 155.547 686.895 154.221 686.84 155.37C795.744 171.477 912.223 164.381 1019.87 149.027L1008.39 143.876Z" fill="#442E1A"/>
<path d="M47.8859 258.434L78.0256 243.224L653.637 -14.5129V-66.9587L25.3516 217.872L47.8859 258.434Z" fill="#382A21"/>
<path d="M653.494 -66.9587V-14.5129L1229.11 243.224L1259.25 258.434L1281.78 217.872L653.494 -66.9587Z" fill="#382A21"/>
<path d="M1325.52 193.873V202.788C1322.43 209.853 1320.71 216.968 1313.91 221.511C1295.87 233.567 1273.88 222.582 1259 210.788C1251.01 204.461 1243.4 194.019 1234.74 189.527C1215.23 179.397 1196.52 183.595 1176.1 175.834C1129.95 158.291 1103.65 123.124 1049.68 112.113C1019.3 105.913 1006.58 103.527 979.894 86.3673C954.819 70.244 930.544 53.4052 904.488 38.5917C873.512 20.9783 837.178 13.0575 803.867 -0.0659561C759.764 -17.4399 713.513 -46.9515 667.331 -54.5878C629.967 -60.765 614.855 -48.8274 581.408 -39.2673C558.384 -32.6872 535.117 -29.8958 512.405 -21.6539C473.522 -7.54454 441.887 19.5136 404.246 36.2256C359.498 56.0924 317.973 59.7261 276.516 89.7277C253.866 106.119 236.041 128.785 211.293 142.317C169.779 165.015 121.66 160.488 82.5287 191.225C61.2845 207.912 44.1246 238.206 14.168 237.561C-1.07365 228.835 -2.17219 211.546 2.30369 195.853C11.5118 163.573 60.7578 126.915 91.0045 114.986C112.57 106.482 135.856 103.851 157.985 97.1387C217.276 79.1507 261.418 34.082 315.19 5.2944C353.104 -15.0034 382.424 -20.3187 422.597 -31.938C510.228 -57.2919 570.014 -108.194 668.221 -90.2484C742.044 -76.7588 783 -35.6815 847.623 -8.96702C889.221 8.23232 932.589 21.7585 973.277 41.2592C1002.57 55.2981 1028.77 74.8832 1058.72 88.8264C1094.99 105.71 1128.76 114.023 1166.9 124.4C1202.56 134.103 1229.05 153.477 1264.62 161.494C1287.72 166.702 1316.07 167.423 1325.53 193.87L1325.52 193.873Z" fill="white"/>
<path d="M1313.91 221.511C1305.45 245.175 1280.79 242.589 1261.22 235.316C1231.63 224.32 1207.76 202.109 1178.11 189.876C1166.95 185.27 1150.18 179.276 1138.63 175.792C1118.46 169.705 1098.82 171.51 1081.23 157.3C1074.47 151.844 1071.6 144.3 1065.58 139.033C1049.23 124.726 1029.74 126.467 1010.19 121.211C977.702 112.476 961.5 98.4568 934.183 82.0603C908.575 66.6891 880.1 65.7905 854.417 52.9009C829.821 40.5577 808.509 18.0543 779.882 11.3898C748.275 4.02953 728.991 3.69997 700.829 -15.8063C686.666 -25.6172 676.937 -40.4673 657.743 -39.7434C634.397 -38.8618 608.562 -13.6515 584.951 -4.52225C569.71 1.37048 554.831 1.8606 540.976 6.86322C524.869 12.6827 509.675 25.0991 492.98 30.2849C485.637 32.5665 477.747 33.0791 470.446 35.4311C448.858 42.3886 433.771 65.9877 412.285 75.4521C373.419 92.5698 337.592 89.7304 298.309 114.155C264.147 135.396 229.351 162.153 189.263 172.04C170.88 176.575 154.005 173.355 136.211 181.499C101.86 197.219 57.862 262.577 14.168 237.559C44.1274 238.204 61.2844 207.909 82.5287 191.222C121.66 160.485 169.779 165.012 211.293 142.314C236.041 128.782 253.866 106.116 276.516 89.7248C317.973 59.7231 359.501 56.0895 404.246 36.2226C441.889 19.5106 473.522 -7.54749 512.405 -21.6568C535.117 -29.8987 558.383 -32.6902 581.408 -39.2702C614.854 -48.8276 629.969 -60.768 667.331 -54.5907C713.515 -46.9544 759.764 -17.4429 803.867 -0.0689011C837.178 13.0545 873.512 20.9725 904.488 38.5887C930.544 53.4023 954.819 70.241 979.894 86.3644C1006.58 103.524 1019.3 105.91 1049.68 112.11C1103.65 123.121 1129.95 158.291 1176.1 175.831C1196.52 183.592 1215.23 179.395 1234.74 189.524C1243.4 194.019 1251.01 204.458 1259 210.785C1273.88 222.579 1295.87 233.564 1313.91 221.508L1313.91 221.511Z" fill="#C1DDE5"/>
</svg>
